<svg width="277" height="80" viewBox="0 0 277 80" fill="none" xmlns="http://www.w3.org/2000/svg">
<rect x="0.5" y="0.5" width="275.538" height="79" rx="8.5" fill="url(#paint0_linear_4133_12517)"/>
<rect x="0.5" y="0.5" width="275.538" height="79" rx="8.5" stroke="white"/>
<path d="M61.7155 40.9802C61.656 34.5342 67.1288 31.3982 67.3791 31.2522C64.2796 26.8462 59.4755 26.2442 57.7873 26.1962C53.7524 25.7822 49.8386 28.5502 47.7832 28.5502C45.6868 28.5502 42.5217 26.2362 39.1104 26.3042C34.7206 26.3702 30.614 28.8482 28.3617 32.6962C23.7135 40.5422 27.1801 52.0722 31.6335 58.4142C33.8612 61.5202 36.4642 64.9882 39.8714 64.8662C43.2047 64.7322 44.4499 62.7942 48.4724 62.7942C52.4581 62.7942 53.6273 64.8662 57.1022 64.7882C60.6796 64.7322 62.9319 61.6682 65.0817 58.5342C67.656 54.9742 68.6899 51.4682 68.7309 51.2882C68.6468 51.2602 61.7832 48.7062 61.7155 40.9802Z" fill="white"/>
<path d="M55.1514 22.0242C56.9442 19.8382 58.1709 16.8642 57.8304 13.8462C55.2355 13.9582 51.9904 15.5962 50.1217 17.7342C48.4683 19.6182 46.9914 22.7062 47.373 25.6102C50.2878 25.8222 53.2806 24.1762 55.1514 22.0242Z" fill="white"/>
<path d="M109.954 50.0828H105.296L102.744 42.2648H93.8744L91.4436 50.0828H86.9082L95.6959 23.4668H101.124L109.954 50.0828ZM101.975 38.9848L99.6672 32.0348C99.4231 31.3248 98.9656 29.6528 98.2908 27.0208H98.2087C97.94 28.1528 97.5072 29.8248 96.9123 32.0348L94.6456 38.9848H101.975V38.9848Z" fill="white"/>
<path d="M132.554 40.2508C132.554 43.5148 131.649 46.0948 129.84 47.9888C128.219 49.6748 126.207 50.5168 123.805 50.5168C121.212 50.5168 119.349 49.6088 118.215 47.7928H118.133V57.9028H113.76V37.2088C113.76 35.1568 113.704 33.0508 113.598 30.8908H117.444L117.688 33.9328H117.77C119.228 31.6408 121.442 30.4968 124.412 30.4968C126.734 30.4968 128.673 31.3908 130.223 33.1808C131.778 34.9728 132.554 37.3288 132.554 40.2508ZM128.098 40.4068C128.098 38.5388 127.667 36.9988 126.802 35.7868C125.856 34.5228 124.586 33.8908 122.995 33.8908C121.916 33.8908 120.935 34.2428 120.059 34.9368C119.181 35.6368 118.607 36.5508 118.338 37.6828C118.203 38.2108 118.135 38.6428 118.135 38.9828V42.1828C118.135 43.5788 118.574 44.7568 119.452 45.7188C120.33 46.6808 121.47 47.1608 122.874 47.1608C124.521 47.1608 125.803 46.5408 126.72 45.3048C127.639 44.0668 128.098 42.4348 128.098 40.4068Z" fill="white"/>
<path d="M155.194 40.2508C155.194 43.5148 154.289 46.0948 152.478 47.9888C150.86 49.6748 148.847 50.5168 146.445 50.5168C143.853 50.5168 141.99 49.6088 140.858 47.7928H140.776V57.9028H136.402V37.2088C136.402 35.1568 136.347 33.0508 136.24 30.8908H140.086L140.33 33.9328H140.413C141.869 31.6408 144.082 30.4968 147.055 30.4968C149.375 30.4968 151.313 31.3908 152.868 33.1808C154.417 34.9728 155.194 37.3288 155.194 40.2508ZM150.739 40.4068C150.739 38.5388 150.306 36.9988 149.44 35.7868C148.495 34.5228 147.229 33.8908 145.635 33.8908C144.554 33.8908 143.576 34.2428 142.698 34.9368C141.82 35.6368 141.247 36.5508 140.979 37.6828C140.845 38.2108 140.776 38.6428 140.776 38.9828V42.1828C140.776 43.5788 141.215 44.7568 142.088 45.7188C142.966 46.6788 144.107 47.1608 145.514 47.1608C147.161 47.1608 148.443 46.5408 149.36 45.3048C150.279 44.0668 150.739 42.4348 150.739 40.4068Z" fill="white"/>
<path d="M180.506 42.6189C180.506 44.8829 179.7 46.7249 178.081 48.1469C176.303 49.7009 173.827 50.4769 170.645 50.4769C167.708 50.4769 165.353 49.9249 163.57 48.8189L164.584 45.2649C166.504 46.3969 168.61 46.9649 170.906 46.9649C172.553 46.9649 173.835 46.6009 174.756 45.8769C175.673 45.1529 176.13 44.1809 176.13 42.9689C176.13 41.8889 175.753 40.9789 174.996 40.2409C174.243 39.5029 172.986 38.8169 171.23 38.1829C166.45 36.4449 164.063 33.8989 164.063 30.5509C164.063 28.3629 164.9 26.5689 166.575 25.1729C168.245 23.7749 170.473 23.0769 173.259 23.0769C175.743 23.0769 177.806 23.4989 179.453 24.3409L178.36 27.8169C176.822 27.0009 175.082 26.5929 173.135 26.5929C171.597 26.5929 170.395 26.9629 169.533 27.6989C168.805 28.3569 168.44 29.1589 168.44 30.1089C168.44 31.1609 168.856 32.0309 169.693 32.7149C170.422 33.3469 171.745 34.0309 173.665 34.7689C176.013 35.6909 177.739 36.7689 178.848 38.0049C179.954 39.2369 180.506 40.7789 180.506 42.6189Z" fill="white"/>
<path d="M194.966 34.0909H190.146V43.4089C190.146 45.7789 190.995 46.9629 192.697 46.9629C193.479 46.9629 194.127 46.8969 194.64 46.7649L194.761 50.0029C193.9 50.3169 192.765 50.4749 191.36 50.4749C189.633 50.4749 188.283 49.9609 187.309 48.9349C186.339 47.9069 185.85 46.1829 185.85 43.7609V34.0869H182.979V30.8869H185.85V27.3729L190.146 26.1089V30.8869H194.966V34.0909Z" fill="white"/>
<path d="M216.716 40.3288C216.716 43.2788 215.85 45.7008 214.123 47.5948C212.311 49.5448 209.907 50.5168 206.91 50.5168C204.022 50.5168 201.723 49.5828 200.008 47.7148C198.293 45.8468 197.436 43.4888 197.436 40.6468C197.436 37.6728 198.318 35.2368 200.088 33.3428C201.854 31.4468 204.238 30.4988 207.235 30.4988C210.123 30.4988 212.447 31.4328 214.201 33.3028C215.879 35.1168 216.716 37.4588 216.716 40.3288ZM212.178 40.4668C212.178 38.6968 211.79 37.1788 211.005 35.9128C210.088 34.3808 208.777 33.6168 207.079 33.6168C205.321 33.6168 203.985 34.3828 203.068 35.9128C202.283 37.1808 201.895 38.7228 201.895 40.5468C201.895 42.3168 202.283 43.8348 203.068 45.0988C204.014 46.6308 205.335 47.3948 207.04 47.3948C208.709 47.3948 210.02 46.6148 210.966 45.0588C211.772 43.7688 212.178 42.2348 212.178 40.4668Z" fill="white"/>
<path d="M230.932 34.6408C230.499 34.5628 230.037 34.5228 229.553 34.5228C228.015 34.5228 226.825 35.0888 225.988 36.2228C225.26 37.2228 224.895 38.4868 224.895 40.0128V50.0828H220.523L220.564 36.9348C220.564 34.7228 220.509 32.7088 220.4 30.8928H224.21L224.37 34.5648H224.491C224.952 33.3028 225.68 32.2868 226.677 31.5248C227.652 30.8388 228.704 30.4968 229.838 30.4968C230.242 30.4968 230.608 30.5248 230.932 30.5748V34.6408Z" fill="white"/>
<path d="M250.489 39.5789C250.489 40.3429 250.438 40.9869 250.329 41.5129H237.209C237.261 43.4089 237.895 44.8589 239.113 45.8589C240.219 46.7529 241.648 47.2009 243.404 47.2009C245.347 47.2009 247.119 46.8989 248.713 46.2929L249.398 49.2529C247.536 50.0449 245.337 50.4389 242.799 50.4389C239.747 50.4389 237.351 49.5629 235.607 47.8129C233.868 46.0629 232.996 43.7129 232.996 40.7649C232.996 37.8709 233.806 35.4609 235.429 33.5389C237.127 31.4869 239.423 30.4609 242.311 30.4609C245.148 30.4609 247.296 31.4869 248.754 33.5389C249.909 35.1689 250.489 37.1849 250.489 39.5789ZM246.319 38.4729C246.348 37.2089 246.063 36.1169 245.47 35.1949C244.713 34.0089 243.55 33.4169 241.985 33.4169C240.555 33.4169 239.392 33.9949 238.504 35.1549C237.776 36.0769 237.343 37.1829 237.209 38.4709H246.319V38.4729Z" fill="white"/>
<defs>
<linearGradient id="paint0_linear_4133_12517" x1="-37.6923" y1="40" x2="317.692" y2="40" gradientUnits="userSpaceOnUse">
<stop stop-color="white" stop-opacity="0.4"/>
<stop offset="1" stop-color="white" stop-opacity="0.07"/>
</linearGradient>
</defs>
</svg>
