<svg width="200" height="214" viewBox="0 0 200 214" fill="none" xmlns="http://www.w3.org/2000/svg">
<g filter="url(#filter0_d_4468_12680)">
<path d="M105.303 188.455L94.2508 188.603L93.2881 188.617C85.9905 188.347 78.7338 187.493 71.603 186.066C65.4146 183.977 62.4993 176.908 61.1393 171.07C60.1391 170.27 59.3396 169.286 58.7944 168.184C58.2493 167.083 57.971 165.889 57.9782 164.682L57.6868 148.988C57.6243 147.025 58.2948 145.1 59.5903 143.522L59.5467 141.226L59.4141 134.249L52.1602 131.693L52.1142 129.318L59.3463 130.172L58.5728 88.472C57.2163 86.9321 56.4708 85.0257 56.4556 83.0579L55.7513 44.7091C55.674 42.5348 56.5075 40.4141 58.0855 38.7706C58.7637 34.1154 60.6368 27.0112 65.8581 26.4499L97.3767 26.0556L128.907 25.6617C134.134 26.0702 136.275 33.1489 137.123 37.7773C138.763 39.3773 139.678 41.4763 139.684 43.6572L140.405 82.0066C140.469 83.97 139.798 85.8954 138.502 87.4725L139.282 129.443L145.862 128.51L145.908 130.885L139.35 133.371L139.476 140.216L139.565 142.551C140.891 144.086 141.617 145.974 141.631 147.921L141.923 163.614C141.974 165.592 141.282 167.528 139.96 169.105C138.913 175.125 136.324 182.92 129.888 185.278C122.811 186.882 115.59 187.916 108.31 188.368L105.305 188.407L105.303 188.455Z" fill="#5B67EC"/>
</g>
<g filter="url(#filter1_d_4468_12680)">
<path d="M105.303 188.455L94.2508 188.603L93.2881 188.617C85.9905 188.347 78.7338 187.493 71.603 186.066C65.4146 183.977 62.4993 176.908 61.1393 171.07C60.1391 170.27 59.3396 169.286 58.7944 168.184C58.2493 167.083 57.971 165.889 57.9782 164.682L57.6868 148.988C57.6243 147.025 58.2948 145.1 59.5903 143.522L59.5467 141.226L59.4141 134.249L52.1602 131.693L52.1142 129.318L59.3463 130.172L58.5728 88.472C57.2163 86.9321 56.4708 85.0257 56.4556 83.0579L55.7513 44.7091C55.674 42.5348 56.5075 40.4141 58.0855 38.7706C58.7637 34.1154 60.6368 27.0112 65.8581 26.4499L97.3767 26.0556L128.907 25.6617C134.134 26.0702 136.275 33.1489 137.123 37.7773C138.763 39.3773 139.678 41.4763 139.684 43.6572L140.405 82.0066C140.469 83.97 139.798 85.8954 138.502 87.4725L139.282 129.443L145.862 128.51L145.908 130.885L139.35 133.371L139.476 140.216L139.565 142.551C140.891 144.086 141.617 145.974 141.631 147.921L141.923 163.614C141.974 165.592 141.282 167.528 139.96 169.105C138.913 175.125 136.324 182.92 129.888 185.278C122.811 186.882 115.59 187.916 108.31 188.368L105.305 188.407L105.303 188.455Z" fill="#5B67EC"/>
</g>
<path d="M82.9347 40.135C77.3584 40.135 72.8379 37.7712 72.8379 34.8553C72.8379 31.9395 77.3584 29.5757 82.9347 29.5757L113.225 29.5757C118.802 29.5757 123.322 31.9395 123.322 34.8553C123.322 37.7712 118.802 40.135 113.225 40.135L82.9347 40.135Z" fill="#333333"/>
<path d="M70.7867 40.1401C67.5585 40.1401 64.9414 37.7764 64.9414 34.8605C64.9414 31.9446 67.5585 29.5808 70.7867 29.5808L82.4774 29.5808C85.7057 29.5808 88.3228 31.9446 88.3228 34.8605C88.3228 37.7764 85.7057 40.1401 82.4774 40.1401L70.7867 40.1401Z" fill="#333333"/>
<path d="M89.5047 188.847C87.8906 188.847 86.582 187.665 86.582 186.207C86.582 184.75 87.8906 183.568 89.5047 183.568L112.886 183.568C114.5 183.568 115.809 184.75 115.809 186.207C115.809 187.665 114.5 188.847 112.886 188.847L89.5047 188.847Z" fill="#333333"/>
<path d="M111.695 40.1401C108.467 40.1401 105.85 37.7764 105.85 34.8605C105.85 31.9446 108.467 29.5808 111.695 29.5808L123.386 29.5808C126.614 29.5808 129.231 31.9446 129.231 34.8605C129.231 37.7764 126.614 40.1401 123.386 40.1401L111.695 40.1401Z" fill="#333333"/>
<path d="M102.28 147.53L102.282 147.488C110.438 147.643 118.544 146.492 126.225 144.088C128.039 143.606 129.717 142.782 131.148 141.671C132.579 140.56 133.733 139.187 134.533 137.641L134.537 137.557C134.674 137.21 134.776 136.853 134.844 136.489C135.012 135.717 134.987 134.919 134.77 134.154L124.979 110.032C122.435 113.29 105.828 114.248 99.5465 114.502C93.271 114.181 76.6569 113.103 74.033 109.823L64.7076 133.854C64.5062 134.619 64.4973 135.417 64.6817 136.189C64.7549 136.554 64.8618 136.914 65.0013 137.263L65.0145 137.348C65.8482 138.902 67.0301 140.285 68.4844 141.408C69.9387 142.532 71.6334 143.37 73.46 143.871C81.1812 146.331 89.308 147.545 97.4667 147.458L97.4646 147.5C98.2779 147.505 99.0737 147.509 99.8581 147.507C100.643 147.504 101.438 147.519 102.251 147.518L102.28 147.53Z" fill="#333333"/>
<path d="M72.1545 74.0395L105.011 74.3494L124.876 74.5587L126.122 74.5711C132.817 70.069 133.107 59.0544 132.449 51.7408L65.1691 51.0851C64.5978 58.3874 64.9753 69.408 71.7156 74.0358L72.1545 74.0395Z" fill="#333333"/>
<path d="M59.0929 72.832C58.3833 93.0583 58.5468 104.4 59.0929 124.625C59.0929 124.625 70.7836 102.287 70.7836 96.2262C70.7836 90.1651 59.0929 66.7445 59.0929 72.832Z" fill="#333333"/>
<path d="M138.857 74.2168C139.077 95.8486 141.136 127.499 138.857 124.619C138.857 124.619 129.238 101.54 129.238 95.4794C129.238 89.4183 138.857 68.1294 138.857 74.2168Z" fill="#333333"/>
<defs>
<filter id="filter0_d_4468_12680" x="48.1019" y="23.6559" width="101.818" height="170.978" filterUnits="userSpaceOnUse" color-interpolation-filters="sRGB">
<feFlood flood-opacity="0" result="BackgroundImageFix"/>
<feColorMatrix in="SourceAlpha" type="matrix" values="0 0 0 0 0 0 0 0 0 0 0 0 0 0 0 0 0 0 127 0" result="hardAlpha"/>
<feOffset dy="2.00569"/>
<feGaussianBlur stdDeviation="2.00569"/>
<feColorMatrix type="matrix" values="0 0 0 0 0 0 0 0 0 0 0 0 0 0 0 0 0 0 0.2 0"/>
<feBlend mode="normal" in2="BackgroundImageFix" result="effect1_dropShadow_4468_12680"/>
<feBlend mode="normal" in="SourceGraphic" in2="effect1_dropShadow_4468_12680" result="shape"/>
</filter>
<filter id="filter1_d_4468_12680" x="48.1019" y="23.6559" width="101.818" height="170.978" filterUnits="userSpaceOnUse" color-interpolation-filters="sRGB">
<feFlood flood-opacity="0" result="BackgroundImageFix"/>
<feColorMatrix in="SourceAlpha" type="matrix" values="0 0 0 0 0 0 0 0 0 0 0 0 0 0 0 0 0 0 127 0" result="hardAlpha"/>
<feOffset dy="2.00569"/>
<feGaussianBlur stdDeviation="2.00569"/>
<feColorMatrix type="matrix" values="0 0 0 0 0 0 0 0 0 0 0 0 0 0 0 0 0 0 0.2 0"/>
<feBlend mode="normal" in2="BackgroundImageFix" result="effect1_dropShadow_4468_12680"/>
<feBlend mode="normal" in="SourceGraphic" in2="effect1_dropShadow_4468_12680" result="shape"/>
</filter>
</defs>
</svg>
