<svg width="317" height="211" viewBox="0 0 317 211" fill="none" xmlns="http://www.w3.org/2000/svg">
<path d="M28.9929 188.197L19.1847 179.37C18.212 178.494 17.5015 177.366 17.1323 176.111C16.1009 172.604 17.9136 168.889 21.3126 167.544L267.927 69.9733C274.579 67.3413 281.952 67.1733 288.716 69.4983L293.504 71.1443L306.413 76.7923C307.977 77.4763 309.427 78.3963 310.712 79.5203L312.495 81.0813C314.982 83.2573 316.408 86.4003 316.408 89.7043C316.408 92.2123 315.585 94.6523 314.064 96.6473L311.631 99.8413C309.745 102.316 307.383 104.39 304.683 105.94L134.232 203.8C132.575 204.751 130.832 205.542 129.025 206.161L119.77 209.334C116.638 210.408 113.351 210.956 110.04 210.956H85.8833C84.0113 210.956 82.1443 210.781 80.3063 210.433L69.5183 208.392C66.7953 207.877 64.1573 206.987 61.6783 205.748L35.6455 192.731C33.2343 191.526 30.9967 190.001 28.9929 188.197Z" fill="black" fill-opacity="0.5"/>
<path d="M1.96262 161.727C1.00082 156.478 1.96262 136.436 1.96262 136.436C1.96262 136.436 0.53102 128.324 9.12022 117.826C17.7093 107.329 19.1483 106.851 26.7756 100.171C34.403 93.4906 45.8626 88.2416 45.8626 88.2416C45.8626 88.2416 79.2746 53.4077 84.9906 47.2042C90.7066 41.0007 108.383 29.5488 115.53 25.2542C122.678 20.9596 147.968 9.03033 157.045 8.07593C166.121 7.12163 187.107 8.07593 187.107 8.07593C187.107 8.07593 193.777 3.30423 199.513 2.34983C205.249 1.39553 207.605 0.440831 211.433 1.39533C215.26 2.34973 222.885 5.21293 232.438 10.4618C241.992 15.7107 244.358 17.1422 254.865 25.2542C265.373 33.3662 272.511 40.5238 273.952 42.9097C276.328 45.7727 277.293 49.1129 277.293 49.1129V64.3826C279.06 63.6176 280.152 63.6006 281.11 65.8136V79.6526L277.293 85.8556C277.293 85.8556 86.9066 197.992 80.2196 199.423C73.5316 200.855 61.6096 199.423 61.6096 199.423C61.6096 199.423 56.8306 198.946 49.6726 196.083C42.5149 193.22 12.945 176.519 9.12022 172.702C5.29532 168.884 2.92442 166.975 1.96262 161.727Z" fill="white"/>
<path d="M1.96262 136.436C1.96262 136.436 1.00082 156.478 1.96262 161.727C2.92442 166.975 5.29532 168.884 9.12022 172.702C12.945 176.519 42.5149 193.22 49.6726 196.083C56.8306 198.946 61.6096 199.423 61.6096 199.423C61.6096 199.423 73.5316 200.855 80.2196 199.423C86.9066 197.992 277.293 85.8556 277.293 85.8556L281.11 79.6526V65.8136C280.152 63.6006 279.06 63.6176 277.293 64.3826V49.1129C277.293 49.1129 276.328 45.7727 273.952 42.9097M1.96262 136.436C1.96262 136.436 0.53102 128.324 9.12022 117.826C17.7093 107.329 19.1483 106.851 26.7756 100.171C34.403 93.4906 45.8626 88.2416 45.8626 88.2416C45.8626 88.2416 79.2746 53.4077 84.9906 47.2042C90.7066 41.0007 108.383 29.5488 115.53 25.2542C122.678 20.9596 147.968 9.03033 157.045 8.07593C166.121 7.12163 187.107 8.07593 187.107 8.07593C187.107 8.07593 193.777 3.30423 199.513 2.34983C205.249 1.39553 207.605 0.440831 211.433 1.39533C215.26 2.34973 222.885 5.21293 232.438 10.4618C241.992 15.7107 244.358 17.1422 254.865 25.2542C265.373 33.3662 272.511 40.5238 273.952 42.9097M1.96262 136.436C1.96262 136.436 1.96262 137.868 4.34842 142.64C6.73432 147.411 11.0289 151.229 11.0289 151.229C17.1024 156.175 19.7823 158.283 29.1615 164.112C29.1615 164.112 43.4767 174.61 55.4061 176.042C67.3356 177.473 66.8486 176.519 66.8486 176.519L81.1736 166.975L95.0116 156.955L121.734 136.436L151.319 90.6276L172.791 74.4036L200.945 59.1336C200.945 59.1336 219.067 52.4531 226.235 51.976C233.403 51.4988 259.637 54.3618 259.637 54.3618C259.637 54.3618 266.308 51.4988 269.658 49.1129C273.008 46.7271 273.952 42.9097 273.952 42.9097" stroke="black"/>
<path d="M1.42756 161.245C0.465556 156.017 1.42756 136.057 1.42756 136.057C1.42756 136.057 1.42756 137.483 3.81386 142.235C6.20016 146.988 10.4955 150.79 10.4955 150.79C16.5701 155.716 19.2505 157.815 28.6314 163.621C28.6314 163.621 42.9491 174.077 54.8806 175.502C66.8117 176.928 66.3247 175.977 66.3247 175.977L80.6527 166.473L94.4927 156.493L121.22 136.057L150.81 90.4336L172.287 74.2756L200.445 59.0676C200.445 59.0676 218.571 52.414 225.74 51.9388C232.909 51.4635 259.148 54.315 259.148 54.315C259.148 54.315 265.82 51.4635 269.17 49.0873C272.521 46.7111 273.466 42.9092 273.466 42.9092C275.842 45.7606 276.807 49.0873 276.807 49.0873V64.2946C278.574 63.5326 279.666 63.9916 280.625 66.1956V79.5026L276.807 85.6806C276.807 85.6806 86.3867 197.363 79.6977 198.789C73.0087 200.215 61.0847 198.789 61.0847 198.789C61.0847 198.789 56.3047 198.314 49.1461 195.462C41.9872 192.611 12.412 175.977 8.58646 172.176C4.76086 168.374 2.38956 166.473 1.42756 161.245Z" fill="#AFC7FC" stroke="black"/>
<path d="M6.72656 136.609L11.4984 128.801C29.1492 144.554 41.8155 151.706 63.9877 161.596L56.6997 168.884C46.0373 164.745 39.9147 161.462 28.5899 154.308C18.5294 148.368 13.1688 143.314 6.72656 136.609Z" fill="#AFC7FC" stroke="black"/>
<path d="M170.475 11.6975L189.008 10.4619C199.524 13.375 206.347 16.9528 221.456 26.6858C233.472 34.4706 240.274 39.4805 250.849 48.3062C251.565 48.9038 251.142 50.0674 250.209 50.0674H224.796L169.986 13.5273C169.191 12.9974 169.521 11.761 170.475 11.6975Z" fill="#394FCA" stroke="black"/>
<path d="M50.6258 65.8135L56.2357 71.8555C56.6137 72.2625 57.1447 72.4945 57.7017 72.4945H61.6007L65.8957 68.1995L60.9807 62.8755C60.4597 62.3115 59.7417 61.9685 58.9757 61.9175L53.0117 61.5195C53.0117 61.5195 51.0783 62.3245 50.6258 63.4285C50.2725 64.2905 50.6258 65.8135 50.6258 65.8135Z" fill="white" stroke="black"/>
<path d="M179.467 107.804L189.01 73.4482C189.01 73.4482 170.4 83.9452 164.674 88.7172C158.948 93.4892 158.471 93.4892 155.131 97.7842C152.081 101.705 138.291 125.118 135.916 129.16C135.702 129.524 135.747 129.97 136.017 130.294L137.405 131.96C137.72 132.339 138.264 132.431 138.687 132.179L179.467 107.804Z" fill="#4F67FF" stroke="black"/>
<path d="M179.465 107.804L189.009 73.4484C189.009 73.4484 185.668 75.3564 193.303 70.5854C200.938 65.8134 220.025 58.6554 223.365 57.7014C226.705 56.7474 246.747 57.7014 247.701 59.1324C248.54 60.3914 248.273 62.7544 248.196 63.3094C248.185 63.3884 248.163 63.4624 248.13 63.5354C247.867 64.1194 246.543 66.9204 244.838 68.1994C242.929 69.6304 179.465 107.804 179.465 107.804Z" fill="#394FCA" stroke="black"/>
<path d="M8.6233 165.186L8.3339 158.24C8.2642 156.566 10.1609 155.554 11.5132 156.543L27.7252 168.405L50.8228 179.954C51.2615 180.174 51.4762 180.675 51.3137 181.138C50.6121 183.136 48.6263 188.255 46.335 189.401C43.4719 190.833 32.8205 182.905 22.4762 177.472C13.5729 171.988 12.4982 169.924 8.8759 165.811C8.7235 165.638 8.6329 165.417 8.6233 165.186Z" fill="#7B9BFF" stroke="black"/>
<path d="M54.4427 166.976C55.8246 165.091 58.4166 161.599 59.8216 159.839C60.3086 159.229 61.1106 159.035 61.8446 159.299C64.2376 160.163 69.5916 162.061 72.0986 162.681C74.3166 163.23 82.5796 164.051 86.8946 164.282C88.5496 164.371 88.8896 165.401 88.4136 166.989L86.8166 172.312C86.5746 173.119 85.8526 173.687 85.0116 173.734L69.5716 174.592C69.3486 174.604 69.1256 174.579 68.9116 174.518L59.2146 171.747C59.2146 171.747 52.693 169.362 54.4427 166.976Z" fill="#C6ECFB" stroke="black"/>
<path d="M103.117 170.315L275.377 70.5853L277.285 63.9053" stroke="black" stroke-width="1.5"/>
<path d="M93.0966 56.7477C89.3476 53.0685 87.7086 50.8849 86.4166 46.7266L44.9023 89.6727C48.5068 96.1407 50.5248 99.6837 56.3546 105.897C61.6246 111.513 72.1846 118.674 74.1636 119.997C74.3806 120.141 74.6046 120.277 74.8326 120.402C84.2726 125.604 89.1496 127.969 97.8686 131.187C106.604 134.333 113.363 135.056 121.251 135.959L151.79 89.6727C151.79 89.6727 145.109 88.7177 142.723 87.7637C140.338 86.8097 118.421 77.1087 111.23 72.0167C104.039 66.9247 100.204 63.6337 93.0966 56.7477Z" fill="#AFC7FC" stroke="black"/>
<path d="M135.566 124.029C135.566 124.029 138.729 118.038 140.16 117.561C141.592 117.084 143.678 117.561 143.678 117.561C143.678 117.561 151.313 125.938 152.744 128.059C154.176 130.18 154.176 133.096 154.176 133.096C154.176 133.096 154.176 135.004 151.79 136.648C149.404 138.292 147.495 137.125 145.586 135.959C143.678 134.792 140.337 132.831 138.429 130.445C136.52 128.059 135.566 124.029 135.566 124.029Z" fill="white" stroke="black"/>
<path d="M10.5411 142.161L3.88104 136.202C2.41634 134.892 1.85524 132.845 2.44714 130.971L4.33794 124.983L9.58684 117.826C10.1054 123.378 10.9452 126.047 13.4246 129.192C13.7143 129.559 13.8814 130.008 13.8793 130.476C13.8687 132.807 13.8035 140.087 13.4042 141.684C12.927 143.593 10.5411 142.161 10.5411 142.161Z" fill="#C6ECFB" stroke="black"/>
<path d="M121.249 135.481L150.834 90.15L144.154 88.718L133.656 84.424L127.453 81.083L76.3945 120.689C85.7925 125.906 91.1315 127.942 101.208 131.664C110.232 134.155 111.8 134.189 121.249 135.481Z" fill="#9EB5EA"/>
<path d="M46.8086 90.1496L84.5057 52.4531L94.4767 62.8786C94.8277 63.2446 95.2047 63.5836 95.6067 63.8926L107.41 72.9716L125.543 83.4696L143.198 91.1046L116.476 133.096C116.476 133.096 105.501 131.187 95.9577 128.324C86.4137 125.461 74.9617 117.826 74.9617 117.826C74.9617 117.826 69.2357 114.486 60.1697 105.42C51.1032 96.3536 46.8086 90.1496 46.8086 90.1496Z" fill="#4F67FF" stroke="black"/>
<path d="M60.6445 105.419C84.0255 99.0567 124.205 83.8507 124.586 83.4688L142.719 91.1038L116.82 132.071C116.61 132.404 116.223 132.582 115.834 132.524C114.078 132.262 109.123 131.495 106.22 130.765C102.645 129.866 95.2195 127.542 92.1375 126.415C89.0565 125.288 80.2495 120.7 78.2995 119.447C74.7945 117.313 72.5705 115.761 69.2335 113.054L60.6445 105.419Z" fill="#394FCA"/>
<path d="M188.051 74.4023V137.389" stroke="black"/>
<path d="M122.656 194.61C131.339 197.75 142.352 189.306 147.253 175.752C152.153 162.197 149.087 148.663 140.403 145.524C131.719 142.384 120.707 150.827 115.806 164.382C110.905 177.937 113.972 191.47 122.656 194.61Z" fill="black"/>
<path d="M147.746 175.556C145.334 182.228 141.466 187.636 137.189 190.992C132.905 194.353 128.279 195.611 124.282 194.166C120.286 192.721 117.535 188.795 116.39 183.472C115.248 178.157 115.733 171.526 118.145 164.854C120.558 158.181 124.425 152.775 128.702 149.42C132.986 146.059 137.613 144.799 141.609 146.244C145.605 147.689 148.357 151.615 149.501 156.938C150.643 162.253 150.159 168.884 147.746 175.556Z" fill="#3E3A39" stroke="black"/>
<path d="M142.893 173.903C141.043 179.02 138.212 183.207 135.156 185.849C132.086 188.502 128.883 189.523 126.223 188.561C123.562 187.599 121.754 184.766 121.09 180.763C120.429 176.778 120.931 171.748 122.781 166.632C124.631 161.515 127.462 157.328 130.518 154.687C133.588 152.033 136.79 151.012 139.451 151.974C142.112 152.936 143.92 155.769 144.584 159.772C145.245 163.757 144.743 168.787 142.893 173.903Z" fill="#595757" stroke="black"/>
<path d="M143.777 174.271C141.945 179.338 139.131 183.481 136.087 186.09C133.03 188.71 129.834 189.715 127.171 188.752C124.508 187.79 122.694 184.973 122.019 181.004C121.347 177.051 121.833 172.066 123.665 167C125.497 161.933 128.311 157.79 131.355 155.181C134.413 152.561 137.609 151.556 140.272 152.519C142.935 153.481 144.749 156.298 145.423 160.267C146.095 164.22 145.609 169.204 143.777 174.271Z" stroke="black"/>
<path d="M127.603 175.766L127.764 176.007C127.873 176.171 127.932 176.364 127.932 176.561V177.834C127.932 178.05 127.861 178.261 127.732 178.434L126.106 180.601C125.645 181.216 124.69 181.102 124.387 180.395L123.718 178.833C123.665 178.709 123.637 178.575 123.637 178.439V178.15C123.637 177.858 123.765 177.581 123.986 177.391L126.12 175.561C126.576 175.171 127.27 175.267 127.603 175.766Z" fill="black"/>
<path d="M125.429 172.957L126.502 172.599C126.801 172.5 127.035 172.265 127.134 171.967L127.735 170.164C127.855 169.805 127.761 169.409 127.494 169.141L126.293 167.94C126.119 167.767 125.884 167.669 125.639 167.669C125.289 167.669 124.969 167.867 124.812 168.18L124.219 169.367C124.149 169.506 124.113 169.659 124.113 169.814V172.008C124.113 172.691 124.782 173.173 125.429 172.957Z" fill="black"/>
<path d="M127.603 175.766L127.764 176.007C127.873 176.171 127.932 176.364 127.932 176.561V177.834C127.932 178.05 127.861 178.261 127.732 178.434L126.106 180.601C125.645 181.216 124.69 181.102 124.387 180.395L123.718 178.833C123.665 178.709 123.637 178.575 123.637 178.439V178.15C123.637 177.858 123.765 177.581 123.986 177.391L126.12 175.561C126.576 175.171 127.27 175.267 127.603 175.766Z" stroke="black"/>
<path d="M125.429 172.957L126.502 172.599C126.801 172.5 127.035 172.265 127.134 171.967L127.735 170.164C127.855 169.805 127.761 169.409 127.494 169.141L126.293 167.94C126.119 167.767 125.884 167.669 125.639 167.669C125.289 167.669 124.969 167.867 124.812 168.18L124.219 169.367C124.149 169.506 124.113 169.659 124.113 169.814V172.008C124.113 172.691 124.782 173.173 125.429 172.957Z" stroke="black"/>
<path d="M129.133 165.531L127.601 163.999C127.245 163.643 127.209 163.076 127.519 162.678L129.089 160.659C129.595 160.009 130.627 160.215 130.843 161.01L131.596 163.77C131.69 164.116 131.592 164.486 131.338 164.74L130.547 165.531C130.157 165.921 129.523 165.921 129.133 165.531Z" fill="black" stroke="black"/>
<path d="M134.137 161.058V158.171C134.137 157.619 134.585 157.171 135.137 157.171H136.336C137.08 157.171 137.563 157.954 137.231 158.618L135.813 161.454C135.663 161.754 135.357 161.943 135.022 161.943C134.533 161.943 134.137 161.547 134.137 161.058Z" fill="black" stroke="black"/>
<path d="M138.059 163.64L139.674 160.411C139.789 160.18 140.025 160.034 140.284 160.034C140.597 160.034 140.87 160.247 140.946 160.55L141.6 163.167C141.702 163.577 141.536 164.007 141.185 164.242L139.092 165.637C138.972 165.717 138.831 165.76 138.686 165.76C138.281 165.76 137.953 165.432 137.953 165.027V164.087C137.953 163.932 137.99 163.779 138.059 163.64Z" fill="black" stroke="black"/>
<path d="M131.227 179.121H130.885C130.533 179.121 130.208 179.306 130.027 179.607L127.857 183.224C127.621 183.617 127.683 184.121 128.007 184.445L128.117 184.555C128.304 184.742 128.559 184.848 128.824 184.848H130.859C131.124 184.848 131.378 184.742 131.566 184.555L131.934 184.186C132.122 183.999 132.227 183.744 132.227 183.479V180.121C132.227 179.569 131.779 179.121 131.227 179.121Z" fill="black" stroke="black"/>
<path d="M135.383 176.919L136.292 176.01C136.682 175.62 137.315 175.62 137.706 176.01L138.615 176.919C138.802 177.106 138.908 177.361 138.908 177.626V177.752C138.908 178.017 138.802 178.271 138.615 178.459L136.797 180.276C136.167 180.906 135.09 180.46 135.09 179.569V177.626C135.09 177.361 135.196 177.106 135.383 176.919Z" fill="black" stroke="black"/>
<path d="M137.877 169.755L139.694 168.392C140.354 167.897 141.294 168.368 141.294 169.192V171.183C141.294 171.642 140.982 172.042 140.537 172.153L139.386 172.441L138.719 172.607C138.088 172.765 137.477 172.288 137.477 171.637V170.555C137.477 170.24 137.625 169.944 137.877 169.755Z" fill="black" stroke="black"/>
<path d="M237.179 129.174C245.863 132.313 256.875 123.87 261.776 110.315C266.677 96.7603 263.61 83.2268 254.926 80.0871C246.243 76.9475 235.23 85.3907 230.329 98.9455C225.429 112.5 228.495 126.034 237.179 129.174Z" fill="black"/>
<path d="M262.269 110.122C259.856 116.795 255.989 122.202 251.712 125.557C247.428 128.918 242.801 130.177 238.805 128.732C234.809 127.287 232.057 123.361 230.913 118.038C229.771 112.723 230.255 106.093 232.668 99.4199C235.08 92.7479 238.947 87.3409 243.225 83.9849C247.509 80.6239 252.135 79.3649 256.131 80.8099C260.128 82.2549 262.879 86.1819 264.023 91.5049C265.166 96.8199 264.681 103.45 262.269 110.122Z" fill="#3E3A39" stroke="black"/>
<path d="M257.416 108.47C255.566 113.586 252.736 117.774 249.679 120.415C246.609 123.068 243.407 124.09 240.746 123.128C238.085 122.166 236.277 119.332 235.613 115.329C234.953 111.344 235.455 106.315 237.304 101.198C239.154 96.0816 241.985 91.8936 245.041 89.2526C248.112 86.5996 251.314 85.5776 253.975 86.5396C256.635 87.5016 258.444 90.3346 259.107 94.3386C259.768 98.3236 259.266 103.353 257.416 108.47Z" fill="#595757" stroke="black"/>
<path d="M258.3 108.835C256.468 113.901 253.654 118.044 250.609 120.653C247.552 123.274 244.356 124.279 241.693 123.316C239.03 122.353 237.216 119.537 236.542 115.567C235.87 111.615 236.356 106.63 238.188 101.563C240.02 96.4964 242.834 92.3534 245.878 89.7444C248.935 87.1244 252.131 86.1194 254.794 87.0824C257.457 88.0454 259.271 90.8614 259.946 94.8314C260.618 98.7834 260.132 103.768 258.3 108.835Z" stroke="black"/>
<path d="M242.122 110.33L242.282 110.571C242.392 110.735 242.45 110.928 242.45 111.126V112.398C242.45 112.615 242.38 112.825 242.25 112.998L240.625 115.165C240.163 115.781 239.209 115.666 238.906 114.959L238.236 113.397C238.183 113.273 238.156 113.139 238.156 113.004V112.714C238.156 112.422 238.283 112.145 238.505 111.955L240.639 110.126C241.095 109.735 241.789 109.831 242.122 110.33Z" fill="black"/>
<path d="M239.949 107.52L241.021 107.163C241.32 107.063 241.554 106.829 241.654 106.53L242.255 104.728C242.375 104.368 242.281 103.972 242.013 103.704L240.812 102.504C240.639 102.33 240.404 102.233 240.159 102.233C239.808 102.233 239.488 102.431 239.332 102.744L238.738 103.93C238.669 104.069 238.633 104.222 238.633 104.378V106.571C238.633 107.254 239.301 107.736 239.949 107.52Z" fill="black"/>
<path d="M242.122 110.33L242.282 110.571C242.392 110.735 242.45 110.928 242.45 111.126V112.398C242.45 112.615 242.38 112.825 242.25 112.998L240.625 115.165C240.163 115.781 239.209 115.666 238.906 114.959L238.236 113.397C238.183 113.273 238.156 113.139 238.156 113.004V112.714C238.156 112.422 238.283 112.145 238.505 111.955L240.639 110.126C241.095 109.735 241.789 109.831 242.122 110.33Z" stroke="black"/>
<path d="M239.949 107.52L241.021 107.163C241.32 107.063 241.554 106.829 241.654 106.53L242.255 104.728C242.375 104.368 242.281 103.972 242.013 103.704L240.812 102.504C240.639 102.33 240.404 102.233 240.159 102.233C239.808 102.233 239.488 102.431 239.332 102.744L238.738 103.93C238.669 104.069 238.633 104.222 238.633 104.378V106.571C238.633 107.254 239.301 107.736 239.949 107.52Z" stroke="black"/>
<path d="M243.656 100.095L242.125 98.564C241.768 98.207 241.733 97.641 242.042 97.243L243.613 95.224C244.119 94.573 245.15 94.779 245.367 95.574L246.119 98.334C246.214 98.68 246.115 99.05 245.862 99.304L245.07 100.095C244.68 100.486 244.047 100.486 243.656 100.095Z" fill="black" stroke="black"/>
<path d="M248.656 95.6224V92.7354C248.656 92.1824 249.103 91.7354 249.656 91.7354H250.855C251.598 91.7354 252.082 92.5174 251.749 93.1824L250.332 96.0174C250.182 96.3174 249.875 96.5064 249.54 96.5064C249.052 96.5064 248.656 96.1104 248.656 95.6224Z" fill="black" stroke="black"/>
<path d="M252.582 98.2046L254.197 94.9756C254.313 94.7446 254.549 94.5986 254.807 94.5986C255.12 94.5986 255.393 94.8116 255.469 95.1156L256.123 97.7326C256.226 98.1426 256.06 98.5726 255.708 98.8066L253.616 100.202C253.495 100.282 253.354 100.325 253.209 100.325C252.805 100.325 252.477 99.9966 252.477 99.5926V98.6516C252.477 98.4966 252.513 98.3436 252.582 98.2046Z" fill="black" stroke="black"/>
<path d="M245.747 113.686H245.404C245.053 113.686 244.727 113.87 244.547 114.171L242.377 117.788C242.141 118.182 242.203 118.685 242.527 119.01L242.636 119.119C242.824 119.307 243.078 119.412 243.343 119.412H245.378C245.643 119.412 245.898 119.307 246.085 119.119L246.454 118.751C246.641 118.563 246.747 118.309 246.747 118.043V114.686C246.747 114.134 246.299 113.686 245.747 113.686Z" fill="black" stroke="black"/>
<path d="M249.902 111.483L250.81 110.575C251.201 110.184 251.834 110.184 252.225 110.575L253.133 111.483C253.321 111.671 253.426 111.925 253.426 112.19V112.316C253.426 112.582 253.321 112.836 253.133 113.023L251.316 114.841C250.686 115.471 249.609 115.025 249.609 114.134V112.19C249.609 111.925 249.714 111.671 249.902 111.483Z" fill="black" stroke="black"/>
<path d="M252.396 104.319L254.214 102.956C254.873 102.462 255.814 102.932 255.814 103.756V105.747C255.814 106.206 255.502 106.606 255.056 106.717L253.905 107.005L253.239 107.172C252.608 107.329 251.996 106.852 251.996 106.202V105.119C251.996 104.805 252.145 104.508 252.396 104.319Z" fill="black" stroke="black"/>
</svg>
