<svg width="1983" height="166" viewBox="0 0 1983 166" fill="none" xmlns="http://www.w3.org/2000/svg">
<g opacity="0.3">
<rect width="9.3965" height="1982.65" transform="matrix(2.25455e-08 1 1 -2.11116e-08 0 0)" fill="url(#paint0_linear_4317_17711)"/>
<rect width="7.83042" height="1982.65" transform="matrix(2.18168e-08 1 1 -2.18168e-08 0 158.174)" fill="url(#paint1_linear_4317_17711)"/>
<rect width="9.39646" height="166.004" transform="matrix(1 -1.13359e-08 -4.19882e-08 -1 571.617 166.004)" fill="url(#paint2_linear_4317_17711)"/>
<rect width="9.39646" height="166.004" transform="matrix(1 -1.13359e-08 -4.19882e-08 -1 673.412 166.004)" fill="url(#paint3_linear_4317_17711)"/>
<rect width="9.39646" height="166.004" transform="matrix(1 -1.13359e-08 -4.19882e-08 -1 773.641 166.004)" fill="url(#paint4_linear_4317_17711)"/>
<rect width="9.39646" height="166.004" transform="matrix(1 -1.13359e-08 -4.19882e-08 -1 875.438 166.004)" fill="url(#paint5_linear_4317_17711)"/>
<rect width="9.39646" height="166.004" transform="matrix(1 -1.13359e-08 -4.19882e-08 -1 469.822 166.004)" fill="url(#paint6_linear_4317_17711)"/>
<rect width="9.39646" height="166.004" transform="matrix(1 -1.13359e-08 -4.19882e-08 -1 368.027 166.004)" fill="url(#paint7_linear_4317_17711)"/>
<rect width="7.83039" height="166.004" transform="matrix(1 -1.13359e-08 -4.19882e-08 -1 267.799 166.004)" fill="url(#paint8_linear_4317_17711)"/>
<rect width="9.39646" height="166.004" transform="matrix(1 -1.13359e-08 -4.19882e-08 -1 166.004 166.004)" fill="url(#paint9_linear_4317_17711)"/>
<rect width="9.39646" height="166.004" transform="matrix(1 -1.13359e-08 -4.19882e-08 -1 1484.64 166.004)" fill="url(#paint10_linear_4317_17711)"/>
<rect width="9.39646" height="166.004" transform="matrix(1 -1.13359e-08 -4.19882e-08 -1 1586.44 166.004)" fill="url(#paint11_linear_4317_17711)"/>
<rect width="7.83039" height="166.004" transform="matrix(1 -1.13359e-08 -4.19882e-08 -1 1688.23 166.004)" fill="url(#paint12_linear_4317_17711)"/>
<rect width="9.39646" height="166.004" transform="matrix(1 -1.13359e-08 -4.19882e-08 -1 1788.46 166.004)" fill="url(#paint13_linear_4317_17711)"/>
<rect width="9.39646" height="166.004" transform="matrix(1 -1.13359e-08 -4.19882e-08 -1 1382.85 166.004)" fill="url(#paint14_linear_4317_17711)"/>
<rect width="9.39646" height="166.004" transform="matrix(1 -1.13359e-08 -4.19882e-08 -1 1281.05 166.004)" fill="url(#paint15_linear_4317_17711)"/>
<rect width="9.39646" height="166.004" transform="matrix(1 -1.13359e-08 -4.19882e-08 -1 1180.82 166.004)" fill="url(#paint16_linear_4317_17711)"/>
<rect width="9.39646" height="166.004" transform="matrix(1 -1.13359e-08 -4.19882e-08 -1 1079.03 166.004)" fill="url(#paint17_linear_4317_17711)"/>
<rect width="9.39646" height="166.004" transform="matrix(1 -1.13359e-08 -4.19882e-08 -1 977.232 166.004)" fill="url(#paint18_linear_4317_17711)"/>
<rect width="9.39646" height="166.004" transform="matrix(1 -1.13359e-08 -4.19882e-08 -1 1890.25 166.004)" fill="url(#paint19_linear_4317_17711)"/>
<g filter="url(#filter0_d_4317_17711)">
<path d="M121.282 31.5554L113.648 31.4532L112.983 31.4433C107.943 31.63 102.93 32.2196 98.0052 33.2052C93.7309 34.6485 91.7173 39.5306 90.7779 43.5632C90.087 44.1158 89.5348 44.7952 89.1583 45.5562C88.7817 46.3171 88.5895 47.142 88.5945 47.9754L88.3932 58.8152C88.3501 60.1712 88.8131 61.501 89.708 62.5905L89.6779 64.1762L89.5863 68.9956L84.576 70.7607L84.5442 72.4014L89.5394 71.8116L89.0052 100.614C88.0683 101.677 87.5534 102.994 87.5429 104.353L87.0564 130.841C87.003 132.343 87.5787 133.808 88.6686 134.943C89.137 138.158 90.4308 143.065 94.0372 143.453L115.807 143.725L137.585 143.997C141.196 143.715 142.674 138.826 143.26 135.629C144.393 134.524 145.025 133.074 145.029 131.568L145.527 105.079C145.571 103.723 145.108 102.393 144.212 101.304L144.751 72.3151L149.296 72.9595L149.328 71.3189L144.798 69.6016L144.886 64.8739L144.947 63.2615C145.862 62.2012 146.364 60.8971 146.374 59.5525L146.575 48.7127C146.61 47.3466 146.133 46.0099 145.219 44.9205C144.496 40.7624 142.708 35.3785 138.263 33.7499C133.375 32.6417 128.387 31.9273 123.359 31.6153L121.283 31.5882L121.282 31.5554Z" fill="white"/>
</g>
<g filter="url(#filter1_d_4317_17711)">
<path d="M121.282 31.5554L113.648 31.4532L112.983 31.4433C107.943 31.63 102.93 32.2196 98.0052 33.2052C93.7309 34.6485 91.7173 39.5306 90.7779 43.5632C90.087 44.1158 89.5348 44.7952 89.1583 45.5562C88.7817 46.3171 88.5895 47.142 88.5945 47.9754L88.3932 58.8152C88.3501 60.1712 88.8131 61.501 89.708 62.5905L89.6779 64.1762L89.5863 68.9956L84.576 70.7607L84.5442 72.4014L89.5394 71.8116L89.0052 100.614C88.0683 101.677 87.5534 102.994 87.5429 104.353L87.0564 130.841C87.003 132.343 87.5787 133.808 88.6686 134.943C89.137 138.158 90.4308 143.065 94.0372 143.453L115.807 143.725L137.585 143.997C141.196 143.715 142.674 138.826 143.26 135.629C144.393 134.524 145.025 133.074 145.029 131.568L145.527 105.079C145.571 103.723 145.108 102.393 144.212 101.304L144.751 72.3151L149.296 72.9595L149.328 71.3189L144.798 69.6016L144.886 64.8739L144.947 63.2615C145.862 62.2012 146.364 60.8971 146.374 59.5525L146.575 48.7127C146.61 47.3466 146.133 46.0099 145.219 44.9205C144.496 40.7624 142.708 35.3785 138.263 33.7499C133.375 32.6417 128.387 31.9273 123.359 31.6153L121.283 31.5882L121.282 31.5554Z" fill="white"/>
</g>
<path d="M105.831 133.999C101.98 133.999 98.8574 135.632 98.8574 137.646C98.8574 139.66 101.98 141.292 105.831 141.292L126.753 141.292C130.605 141.292 133.727 139.66 133.727 137.646C133.727 135.632 130.605 133.999 126.753 133.999L105.831 133.999Z" fill="#333333"/>
<path d="M97.4417 133.997C95.2119 133.997 93.4043 135.629 93.4043 137.643C93.4043 139.657 95.2119 141.29 97.4417 141.29L105.516 141.29C107.746 141.29 109.554 139.657 109.554 137.643C109.554 135.629 107.746 133.997 105.516 133.997L97.4417 133.997Z" fill="#333333"/>
<path d="M110.37 31.2837C109.255 31.2837 108.352 32.1001 108.352 33.1071C108.352 34.1141 109.255 34.9304 110.37 34.9304L126.52 34.9304C127.635 34.9304 128.539 34.1141 128.539 33.1071C128.539 32.1001 127.635 31.2837 126.52 31.2837L110.37 31.2837Z" fill="#333333"/>
<path d="M125.698 133.998C123.468 133.998 121.66 135.63 121.66 137.644C121.66 139.658 123.468 141.291 125.698 141.291L133.772 141.291C136.002 141.291 137.81 139.658 137.81 137.644C137.81 135.63 136.002 133.998 133.772 133.998L125.698 133.998Z" fill="#333333"/>
<path d="M119.191 59.8203L119.193 59.8494C124.826 59.7422 130.425 60.5372 135.73 62.1976C136.983 62.5311 138.142 63.0999 139.13 63.8671C140.119 64.6343 140.916 65.5827 141.469 66.6506L141.472 66.7089C141.566 66.9485 141.637 67.1954 141.683 67.4466C141.8 67.9797 141.782 68.5308 141.632 69.0595L134.869 85.7206C133.113 83.4699 121.642 82.8085 117.303 82.6327C112.969 82.8547 101.493 83.5994 99.681 85.8648L93.24 69.2665C93.1009 68.738 93.0947 68.1868 93.2221 67.6534C93.2726 67.4013 93.3465 67.1533 93.4428 66.9119L93.4519 66.853C94.0278 65.7796 94.8441 64.8245 95.8486 64.0487C96.8531 63.2729 98.0237 62.6936 99.2853 62.3478C104.618 60.6485 110.232 59.8098 115.867 59.8701L115.865 59.8409C116.427 59.8377 116.977 59.8351 117.519 59.8366C118.06 59.8381 118.61 59.8282 119.172 59.8286L119.191 59.8203Z" fill="#333333"/>
<path d="M98.3861 110.582L121.08 110.368L134.801 110.223L135.662 110.215C140.286 113.324 140.486 120.932 140.032 125.984L93.5613 126.437C93.1667 121.393 93.4274 113.781 98.083 110.585L98.3861 110.582Z" fill="#333333"/>
<path d="M89.3644 111.416C88.8742 97.4454 88.9871 89.6114 89.3644 75.6419C89.3644 75.6419 97.4391 91.071 97.4391 95.2574C97.4391 99.4438 89.3644 115.62 89.3644 111.416Z" fill="#333333"/>
<path d="M144.458 110.46C144.61 95.5188 146.032 73.6577 144.458 75.6467C144.458 75.6467 137.814 91.5875 137.814 95.7739C137.814 99.9602 144.458 114.665 144.458 110.46Z" fill="#333333"/>
<g filter="url(#filter2_d_4317_17711)">
<path d="M428.733 31.0656L421.099 30.9635L420.434 30.9535C415.394 31.1403 410.382 31.7299 405.456 32.7155C401.182 34.1588 399.168 39.0409 398.229 43.0734C397.538 43.626 396.986 44.3055 396.609 45.0664C396.233 45.8274 396.041 46.6522 396.046 47.4857L395.844 58.3255C395.801 59.6815 396.264 61.0112 397.159 62.1008L397.129 63.6865L397.037 68.5058L392.027 70.271L391.995 71.9117L396.991 71.3218L396.456 100.124C395.519 101.188 395.005 102.504 394.994 103.864L394.508 130.351C394.454 131.853 395.03 133.318 396.12 134.453C396.588 137.668 397.882 142.575 401.488 142.963L423.258 143.235L445.036 143.507C448.647 143.225 450.125 138.336 450.711 135.139C451.844 134.034 452.476 132.584 452.48 131.078L452.978 104.59C453.022 103.234 452.559 101.904 451.664 100.814L452.202 71.8254L456.747 72.4698L456.779 70.8291L452.249 69.1119L452.337 64.3842L452.398 62.7718C453.314 61.7114 453.815 60.4074 453.825 59.0627L454.026 48.2229C454.062 46.8568 453.584 45.5202 452.67 44.4307C451.947 40.2727 450.159 34.8888 445.714 33.2601C440.826 32.1519 435.838 31.4376 430.81 31.1256L428.735 31.0985L428.733 31.0656Z" fill="white"/>
</g>
<g filter="url(#filter3_d_4317_17711)">
<path d="M428.733 31.0656L421.099 30.9635L420.434 30.9535C415.394 31.1403 410.382 31.7299 405.456 32.7155C401.182 34.1588 399.168 39.0409 398.229 43.0734C397.538 43.626 396.986 44.3055 396.609 45.0664C396.233 45.8274 396.041 46.6522 396.046 47.4857L395.844 58.3255C395.801 59.6815 396.264 61.0112 397.159 62.1008L397.129 63.6865L397.037 68.5058L392.027 70.271L391.995 71.9117L396.991 71.3218L396.456 100.124C395.519 101.188 395.005 102.504 394.994 103.864L394.508 130.351C394.454 131.853 395.03 133.318 396.12 134.453C396.588 137.668 397.882 142.575 401.488 142.963L423.258 143.235L445.036 143.507C448.647 143.225 450.125 138.336 450.711 135.139C451.844 134.034 452.476 132.584 452.48 131.078L452.978 104.59C453.022 103.234 452.559 101.904 451.664 100.814L452.202 71.8254L456.747 72.4698L456.779 70.8291L452.249 69.1119L452.337 64.3842L452.398 62.7718C453.314 61.7114 453.815 60.4074 453.825 59.0627L454.026 48.2229C454.062 46.8568 453.584 45.5202 452.67 44.4307C451.947 40.2727 450.159 34.8888 445.714 33.2601C440.826 32.1519 435.838 31.4376 430.81 31.1256L428.735 31.0985L428.733 31.0656Z" fill="white"/>
</g>
<path d="M413.283 133.508C409.431 133.508 406.309 135.141 406.309 137.155C406.309 139.169 409.431 140.802 413.283 140.802L434.204 140.802C438.056 140.802 441.178 139.169 441.178 137.155C441.178 135.141 438.056 133.508 434.204 133.508L413.283 133.508Z" fill="#333333"/>
<path d="M404.893 133.506C402.663 133.506 400.855 135.139 400.855 137.153C400.855 139.167 402.663 140.8 404.893 140.8L412.968 140.8C415.197 140.8 417.005 139.167 417.005 137.153C417.005 135.139 415.197 133.506 412.968 133.506L404.893 133.506Z" fill="#333333"/>
<path d="M417.821 30.7933C416.707 30.7933 415.803 31.6096 415.803 32.6166C415.803 33.6236 416.707 34.4399 417.821 34.4399L433.971 34.4399C435.086 34.4399 435.99 33.6236 435.99 32.6166C435.99 31.6096 435.086 30.7933 433.971 30.7933L417.821 30.7933Z" fill="#333333"/>
<path d="M433.149 133.507C430.919 133.507 429.111 135.14 429.111 137.154C429.111 139.168 430.919 140.8 433.149 140.8L441.224 140.8C443.453 140.8 445.261 139.168 445.261 137.154C445.261 135.14 443.453 133.507 441.224 133.507L433.149 133.507Z" fill="#333333"/>
<path d="M426.643 59.3296L426.644 59.3587C432.277 59.2514 437.876 60.0464 443.182 61.7069C444.435 62.0403 445.593 62.6092 446.582 63.3764C447.57 64.1436 448.367 65.092 448.92 66.1599L448.923 66.2182C449.017 66.4578 449.088 66.7047 449.134 66.9559C449.251 67.489 449.234 68.0401 449.084 68.5688L442.32 85.2298C440.564 82.9792 429.093 82.3178 424.754 82.142C420.42 82.364 408.945 83.1086 407.132 85.3741L400.691 68.7758C400.552 68.2473 400.546 67.6961 400.673 67.1627C400.724 66.9106 400.798 66.6625 400.894 66.4211L400.903 66.3622C401.479 65.2889 402.295 64.3338 403.3 63.558C404.304 62.7822 405.475 62.2028 406.736 61.857C412.07 60.1578 417.683 59.3191 423.318 59.3793L423.316 59.3502C423.878 59.347 424.428 59.3444 424.97 59.3459C425.512 59.3473 426.061 59.3375 426.623 59.3379L426.643 59.3296Z" fill="#333333"/>
<path d="M405.837 110.092L428.531 109.877L442.252 109.733L443.113 109.724C447.737 112.834 447.937 120.442 447.483 125.493L401.012 125.946C400.618 120.902 400.879 113.29 405.534 110.094L405.837 110.092Z" fill="#333333"/>
<path d="M396.814 110.925C396.323 96.9547 396.436 89.1207 396.814 75.1512C396.814 75.1512 404.888 90.5803 404.888 94.7667C404.888 98.9531 396.814 115.13 396.814 110.925Z" fill="#333333"/>
<path d="M451.909 109.969C452.061 95.0283 453.483 73.1672 451.909 75.1563C451.909 75.1563 445.266 91.097 445.266 95.2834C445.266 99.4698 451.909 114.174 451.909 109.969Z" fill="#333333"/>
<g filter="url(#filter4_d_4317_17711)">
<path d="M529.733 31.0651L522.099 30.963L521.434 30.953C516.394 31.1398 511.382 31.7294 506.456 32.715C502.182 34.1583 500.168 39.0404 499.229 43.073C498.538 43.6255 497.986 44.305 497.609 45.066C497.233 45.8269 497.041 46.6517 497.046 47.4852L496.844 58.325C496.801 59.681 497.264 61.0107 498.159 62.1003L498.129 63.686L498.037 68.5054L493.027 70.2705L492.995 71.9112L497.991 71.3213L497.456 100.124C496.519 101.187 496.005 102.504 495.994 103.863L495.508 130.351C495.454 131.853 496.03 133.317 497.12 134.453C497.588 137.668 498.882 142.575 502.488 142.962L524.258 143.235L546.036 143.507C549.647 143.225 551.125 138.335 551.711 135.139C552.844 134.033 553.476 132.584 553.48 131.077L553.978 104.589C554.022 103.233 553.559 101.903 552.664 100.814L553.202 71.8249L557.747 72.4693L557.779 70.8286L553.249 69.1114L553.337 64.3837L553.398 62.7713C554.314 61.7109 554.815 60.4069 554.825 59.0622L555.026 48.2224C555.062 46.8563 554.584 45.5197 553.67 44.4303C552.947 40.2722 551.159 34.8883 546.714 33.2596C541.826 32.1514 536.838 31.4371 531.81 31.1251L529.735 31.098L529.733 31.0651Z" fill="white"/>
</g>
<g filter="url(#filter5_d_4317_17711)">
<path d="M529.733 31.0651L522.099 30.963L521.434 30.953C516.394 31.1398 511.382 31.7294 506.456 32.715C502.182 34.1583 500.168 39.0404 499.229 43.073C498.538 43.6255 497.986 44.305 497.609 45.066C497.233 45.8269 497.041 46.6517 497.046 47.4852L496.844 58.325C496.801 59.681 497.264 61.0107 498.159 62.1003L498.129 63.686L498.037 68.5054L493.027 70.2705L492.995 71.9112L497.991 71.3213L497.456 100.124C496.519 101.187 496.005 102.504 495.994 103.863L495.508 130.351C495.454 131.853 496.03 133.317 497.12 134.453C497.588 137.668 498.882 142.575 502.488 142.962L524.258 143.235L546.036 143.507C549.647 143.225 551.125 138.335 551.711 135.139C552.844 134.033 553.476 132.584 553.48 131.077L553.978 104.589C554.022 103.233 553.559 101.903 552.664 100.814L553.202 71.8249L557.747 72.4693L557.779 70.8286L553.249 69.1114L553.337 64.3837L553.398 62.7713C554.314 61.7109 554.815 60.4069 554.825 59.0622L555.026 48.2224C555.062 46.8563 554.584 45.5197 553.67 44.4303C552.947 40.2722 551.159 34.8883 546.714 33.2596C541.826 32.1514 536.838 31.4371 531.81 31.1251L529.735 31.098L529.733 31.0651Z" fill="white"/>
</g>
<path d="M514.283 133.508C510.431 133.508 507.309 135.141 507.309 137.155C507.309 139.169 510.431 140.801 514.283 140.801L535.204 140.801C539.056 140.801 542.178 139.169 542.178 137.155C542.178 135.141 539.056 133.508 535.204 133.508L514.283 133.508Z" fill="#333333"/>
<path d="M505.893 133.506C503.663 133.506 501.855 135.138 501.855 137.152C501.855 139.166 503.663 140.799 505.893 140.799L513.968 140.799C516.197 140.799 518.005 139.166 518.005 137.152C518.005 135.138 516.197 133.506 513.968 133.506L505.893 133.506Z" fill="#333333"/>
<path d="M518.821 30.7928C517.707 30.7928 516.803 31.6091 516.803 32.6161C516.803 33.6231 517.707 34.4395 518.821 34.4395L534.971 34.4395C536.086 34.4395 536.99 33.6231 536.99 32.6161C536.99 31.6091 536.086 30.7928 534.971 30.7928L518.821 30.7928Z" fill="#333333"/>
<path d="M534.153 133.507C531.923 133.507 530.115 135.139 530.115 137.153C530.115 139.167 531.923 140.8 534.153 140.8L542.227 140.8C544.457 140.8 546.265 139.167 546.265 137.153C546.265 135.139 544.457 133.507 542.227 133.507L534.153 133.507Z" fill="#333333"/>
<path d="M527.643 59.3291L527.644 59.3582C533.277 59.251 538.876 60.0459 544.182 61.7064C545.435 62.0398 546.593 62.6087 547.582 63.3759C548.57 64.1431 549.367 65.0915 549.92 66.1594L549.923 66.2177C550.017 66.4573 550.088 66.7042 550.134 66.9554C550.251 67.4885 550.234 68.0396 550.084 68.5683L543.32 85.2294C541.564 82.9787 530.093 82.3173 525.754 82.1415C521.42 82.3635 509.945 83.1081 508.132 85.3736L501.691 68.7753C501.552 68.2468 501.546 67.6956 501.673 67.1622C501.724 66.9101 501.798 66.662 501.894 66.4206L501.903 66.3617C502.479 65.2884 503.295 64.3333 504.3 63.5575C505.304 62.7817 506.475 62.2023 507.736 61.8565C513.07 60.1573 518.683 59.3186 524.318 59.3789L524.316 59.3497C524.878 59.3465 525.428 59.3439 525.97 59.3454C526.512 59.3469 527.061 59.337 527.623 59.3374L527.643 59.3291Z" fill="#333333"/>
<path d="M506.837 110.091L529.531 109.877L543.252 109.732L544.113 109.724C548.737 112.833 548.937 120.441 548.483 125.493L502.012 125.946C501.618 120.902 501.879 113.29 506.534 110.094L506.837 110.091Z" fill="#333333"/>
<path d="M497.814 110.925C497.323 96.9545 497.436 89.1204 497.814 75.1509C497.814 75.1509 505.888 90.5801 505.888 94.7664C505.888 98.9528 497.814 115.129 497.814 110.925Z" fill="#333333"/>
<path d="M552.909 109.969C553.061 95.0278 554.483 73.1668 552.909 75.1558C552.909 75.1558 546.266 91.0965 546.266 95.2829C546.266 99.4693 552.909 114.174 552.909 109.969Z" fill="#333333"/>
<g filter="url(#filter6_d_4317_17711)">
<path d="M1648.73 31.5556L1641.1 31.4535L1640.43 31.4435C1635.39 31.6303 1630.38 32.2199 1625.46 33.2055C1621.18 34.6487 1619.17 39.5309 1618.23 43.5634C1617.54 44.116 1616.99 44.7955 1616.61 45.5564C1616.23 46.3174 1616.04 47.1422 1616.05 47.9757L1615.84 58.8154C1615.8 60.1715 1616.26 61.5012 1617.16 62.5908L1617.13 64.1765L1617.04 68.9958L1612.03 70.761L1612 72.4016L1616.99 71.8118L1616.46 100.614C1615.52 101.678 1615 102.994 1614.99 104.354L1614.51 130.841C1614.45 132.343 1615.03 133.808 1616.12 134.943C1616.59 138.158 1617.88 143.065 1621.49 143.453L1643.26 143.725L1665.04 143.997C1668.65 143.715 1670.13 138.826 1670.71 135.629C1671.84 134.524 1672.48 133.074 1672.48 131.568L1672.98 105.08C1673.02 103.724 1672.56 102.394 1671.66 101.304L1672.2 72.3154L1676.75 72.9598L1676.78 71.3191L1672.25 69.6019L1672.34 64.8741L1672.4 63.2618C1673.31 62.2014 1673.82 60.8974 1673.83 59.5527L1674.03 48.7129C1674.06 47.3468 1673.58 46.0102 1672.67 44.9207C1671.95 40.7627 1670.16 35.3788 1665.71 33.7501C1660.83 32.6419 1655.84 31.9276 1650.81 31.6156L1648.73 31.5885L1648.73 31.5556Z" fill="white"/>
</g>
<g filter="url(#filter7_d_4317_17711)">
<path d="M1648.73 31.5556L1641.1 31.4535L1640.43 31.4435C1635.39 31.6303 1630.38 32.2199 1625.46 33.2055C1621.18 34.6487 1619.17 39.5309 1618.23 43.5634C1617.54 44.116 1616.99 44.7955 1616.61 45.5564C1616.23 46.3174 1616.04 47.1422 1616.05 47.9757L1615.84 58.8154C1615.8 60.1715 1616.26 61.5012 1617.16 62.5908L1617.13 64.1765L1617.04 68.9958L1612.03 70.761L1612 72.4016L1616.99 71.8118L1616.46 100.614C1615.52 101.678 1615 102.994 1614.99 104.354L1614.51 130.841C1614.45 132.343 1615.03 133.808 1616.12 134.943C1616.59 138.158 1617.88 143.065 1621.49 143.453L1643.26 143.725L1665.04 143.997C1668.65 143.715 1670.13 138.826 1670.71 135.629C1671.84 134.524 1672.48 133.074 1672.48 131.568L1672.98 105.08C1673.02 103.724 1672.56 102.394 1671.66 101.304L1672.2 72.3154L1676.75 72.9598L1676.78 71.3191L1672.25 69.6019L1672.34 64.8741L1672.4 63.2618C1673.31 62.2014 1673.82 60.8974 1673.83 59.5527L1674.03 48.7129C1674.06 47.3468 1673.58 46.0102 1672.67 44.9207C1671.95 40.7627 1670.16 35.3788 1665.71 33.7501C1660.83 32.6419 1655.84 31.9276 1650.81 31.6156L1648.73 31.5885L1648.73 31.5556Z" fill="white"/>
</g>
<path d="M1633.28 133.999C1629.43 133.999 1626.31 135.632 1626.31 137.646C1626.31 139.66 1629.43 141.292 1633.28 141.292L1654.2 141.292C1658.06 141.292 1661.18 139.66 1661.18 137.646C1661.18 135.632 1658.06 133.999 1654.2 133.999L1633.28 133.999Z" fill="#333333"/>
<path d="M1624.89 133.997C1622.66 133.997 1620.86 135.629 1620.86 137.643C1620.86 139.657 1622.66 141.29 1624.89 141.29L1632.97 141.29C1635.2 141.29 1637.01 139.657 1637.01 137.643C1637.01 135.629 1635.2 133.997 1632.97 133.997L1624.89 133.997Z" fill="#333333"/>
<path d="M1637.82 31.2837C1636.71 31.2837 1635.8 32.1001 1635.8 33.1071C1635.8 34.1141 1636.71 34.9304 1637.82 34.9304L1653.97 34.9304C1655.09 34.9304 1655.99 34.1141 1655.99 33.1071C1655.99 32.1001 1655.09 31.2837 1653.97 31.2837L1637.82 31.2837Z" fill="#333333"/>
<path d="M1653.15 133.998C1650.92 133.998 1649.12 135.63 1649.12 137.644C1649.12 139.658 1650.92 141.291 1653.15 141.291L1661.23 141.291C1663.46 141.291 1665.26 139.658 1665.26 137.644C1665.26 135.63 1663.46 133.998 1661.23 133.998L1653.15 133.998Z" fill="#333333"/>
<path d="M1646.64 59.8201L1646.64 59.8492C1652.28 59.7419 1657.88 60.5369 1663.18 62.1973C1664.43 62.5308 1665.59 63.0997 1666.58 63.8669C1667.57 64.6341 1668.37 65.5825 1668.92 66.6504L1668.92 66.7087C1669.02 66.9483 1669.09 67.1951 1669.13 67.4464C1669.25 67.9794 1669.23 68.5305 1669.08 69.0593L1662.32 85.7203C1660.56 83.4697 1649.09 82.8083 1644.75 82.6325C1640.42 82.8544 1628.94 83.5991 1627.13 85.8645L1620.69 69.2662C1620.55 68.7378 1620.55 68.1866 1620.67 67.6532C1620.72 67.4011 1620.8 67.153 1620.89 66.9116L1620.9 66.8527C1621.48 65.7794 1622.3 64.8242 1623.3 64.0484C1624.3 63.2727 1625.47 62.6933 1626.74 62.3475C1632.07 60.6483 1637.68 59.8095 1643.32 59.8698L1643.32 59.8407C1643.88 59.8375 1644.43 59.8349 1644.97 59.8364C1645.51 59.8378 1646.06 59.828 1646.62 59.8284L1646.64 59.8201Z" fill="#333333"/>
<path d="M1625.84 110.582L1648.53 110.368L1662.25 110.223L1663.11 110.215C1667.74 113.324 1667.94 120.932 1667.48 125.984L1621.01 126.437C1620.62 121.393 1620.88 113.781 1625.53 110.585L1625.84 110.582Z" fill="#333333"/>
<path d="M1616.82 111.416C1616.33 97.4452 1616.44 89.6111 1616.82 75.6417C1616.82 75.6417 1624.89 91.0708 1624.89 95.2572C1624.89 99.4436 1616.82 115.62 1616.82 111.416Z" fill="#333333"/>
<path d="M1671.91 110.46C1672.06 95.5188 1673.48 73.6577 1671.91 75.6467C1671.91 75.6467 1665.27 91.5875 1665.27 95.7739C1665.27 99.9602 1671.91 114.665 1671.91 110.46Z" fill="#333333"/>
<g filter="url(#filter8_d_4317_17711)">
<path d="M833.514 31.5558L825.881 31.4537L825.216 31.4438C820.175 31.6305 815.163 32.2201 810.238 33.2057C805.963 34.649 803.95 39.5311 803.01 43.5637C802.319 44.1162 801.767 44.7957 801.391 45.5567C801.014 46.3176 800.822 47.1424 800.827 47.9759L800.626 58.8157C800.582 60.1717 801.046 61.5015 801.94 62.591L801.91 64.1767L801.819 68.9961L796.808 70.7612L796.777 72.4019L801.772 71.812L801.238 100.614C800.301 101.678 799.786 102.995 799.775 104.354L799.289 130.841C799.235 132.343 799.811 133.808 800.901 134.943C801.369 138.159 802.663 143.065 806.27 143.453L828.04 143.726L849.818 143.998C853.428 143.715 854.906 138.826 855.492 135.629C856.626 134.524 857.257 133.074 857.261 131.568L857.76 105.08C857.803 103.724 857.34 102.394 856.445 101.305L856.983 72.3156L861.529 72.96L861.56 71.3194L857.031 69.6021L857.118 64.8744L857.179 63.262C858.095 62.2016 858.597 60.8976 858.606 59.5529L858.808 48.7132C858.843 47.3471 858.365 46.0104 857.452 44.921C856.729 40.7629 854.941 35.379 850.496 33.7504C845.607 32.6421 840.62 31.9278 835.592 31.6158L833.516 31.5887L833.514 31.5558Z" fill="white"/>
</g>
<g filter="url(#filter9_d_4317_17711)">
<path d="M833.514 31.5558L825.881 31.4537L825.216 31.4438C820.175 31.6305 815.163 32.2201 810.238 33.2057C805.963 34.649 803.95 39.5311 803.01 43.5637C802.319 44.1162 801.767 44.7957 801.391 45.5567C801.014 46.3176 800.822 47.1424 800.827 47.9759L800.626 58.8157C800.582 60.1717 801.046 61.5015 801.94 62.591L801.91 64.1767L801.819 68.9961L796.808 70.7612L796.777 72.4019L801.772 71.812L801.238 100.614C800.301 101.678 799.786 102.995 799.775 104.354L799.289 130.841C799.235 132.343 799.811 133.808 800.901 134.943C801.369 138.159 802.663 143.065 806.27 143.453L828.04 143.726L849.818 143.998C853.428 143.715 854.906 138.826 855.492 135.629C856.626 134.524 857.257 133.074 857.261 131.568L857.76 105.08C857.803 103.724 857.34 102.394 856.445 101.305L856.983 72.3156L861.529 72.96L861.56 71.3194L857.031 69.6021L857.118 64.8744L857.179 63.262C858.095 62.2016 858.597 60.8976 858.606 59.5529L858.808 48.7132C858.843 47.3471 858.365 46.0104 857.452 44.921C856.729 40.7629 854.941 35.379 850.496 33.7504C845.607 32.6421 840.62 31.9278 835.592 31.6158L833.516 31.5887L833.514 31.5558Z" fill="white"/>
</g>
<path d="M818.064 133.999C814.212 133.999 811.09 135.632 811.09 137.646C811.09 139.66 814.212 141.292 818.064 141.292L838.986 141.292C842.837 141.292 845.959 139.66 845.959 137.646C845.959 135.632 842.837 133.999 838.986 133.999L818.064 133.999Z" fill="#333333"/>
<path d="M809.674 133.997C807.444 133.997 805.637 135.63 805.637 137.644C805.637 139.658 807.444 141.29 809.674 141.29L817.749 141.29C819.979 141.29 821.786 139.658 821.786 137.644C821.786 135.63 819.979 133.997 817.749 133.997L809.674 133.997Z" fill="#333333"/>
<path d="M822.603 31.284C821.488 31.284 820.584 32.1003 820.584 33.1073C820.584 34.1143 821.488 34.9307 822.603 34.9307L838.752 34.9307C839.867 34.9307 840.771 34.1143 840.771 33.1073C840.771 32.1003 839.867 31.284 838.752 31.284L822.603 31.284Z" fill="#333333"/>
<path d="M837.934 133.998C835.704 133.998 833.896 135.63 833.896 137.644C833.896 139.658 835.704 141.291 837.934 141.291L846.009 141.291C848.238 141.291 850.046 139.658 850.046 137.644C850.046 135.63 848.238 133.998 846.009 133.998L837.934 133.998Z" fill="#333333"/>
<path d="M831.424 59.8203L831.425 59.8494C837.058 59.7422 842.657 60.5372 847.963 62.1976C849.216 62.5311 850.374 63.0999 851.363 63.8671C852.352 64.6343 853.148 65.5827 853.701 66.6506L853.704 66.7089C853.798 66.9485 853.869 67.1954 853.916 67.4466C854.032 67.9797 854.015 68.5308 853.865 69.0595L847.102 85.7206C845.345 83.4699 833.874 82.8085 829.536 82.6327C825.201 82.8547 813.726 83.5994 811.913 85.8648L805.472 69.2665C805.333 68.738 805.327 68.1868 805.454 67.6534C805.505 67.4013 805.579 67.1533 805.675 66.9119L805.684 66.853C806.26 65.7796 807.077 64.8245 808.081 64.0487C809.086 63.2729 810.256 62.6936 811.518 62.3478C816.851 60.6485 822.464 59.8098 828.099 59.8701L828.098 59.8409C828.659 59.8377 829.209 59.8351 829.751 59.8366C830.293 59.8381 830.842 59.8282 831.404 59.8286L831.424 59.8203Z" fill="#333333"/>
<path d="M810.617 110.582L833.311 110.368L847.031 110.224L847.892 110.215C852.516 113.325 852.717 120.932 852.262 125.984L805.792 126.437C805.397 121.393 805.658 113.781 810.313 110.585L810.617 110.582Z" fill="#333333"/>
<path d="M801.599 111.416C801.109 97.4454 801.222 89.6114 801.599 75.6419C801.599 75.6419 809.674 91.071 809.674 95.2574C809.674 99.4438 801.599 115.62 801.599 111.416Z" fill="#333333"/>
<path d="M856.688 110.46C856.84 95.519 858.263 73.658 856.688 75.647C856.688 75.647 850.045 91.5877 850.045 95.7741C850.045 99.9605 856.688 114.665 856.688 110.46Z" fill="#333333"/>
<g filter="url(#filter10_d_4317_17711)">
<path d="M1140.39 31.0644L1132.76 30.9623L1132.09 30.9523C1127.05 31.139 1122.04 31.7287 1117.11 32.7143C1112.84 34.1575 1110.82 39.0397 1109.89 43.0722C1109.19 43.6248 1108.64 44.3043 1108.27 45.0652C1107.89 45.8262 1107.7 46.651 1107.7 47.4845L1107.5 58.3242C1107.46 59.6803 1107.92 61.01 1108.82 62.0996L1108.79 63.6853L1108.69 68.5046L1103.68 70.2698L1103.65 71.9104L1108.65 71.3206L1108.11 100.123C1107.18 101.186 1106.66 102.503 1106.65 103.862L1106.16 130.35C1106.11 131.852 1106.69 133.317 1107.78 134.452C1108.24 137.667 1109.54 142.574 1113.14 142.962L1134.91 143.234L1156.69 143.506C1160.3 143.224 1161.78 138.335 1162.37 135.138C1163.5 134.033 1164.13 132.583 1164.14 131.077L1164.63 104.589C1164.68 103.232 1164.22 101.902 1163.32 100.813L1163.86 71.8242L1168.4 72.4686L1168.44 70.8279L1163.91 69.1107L1163.99 64.3829L1164.05 62.7705C1164.97 61.7102 1165.47 60.4062 1165.48 59.0615L1165.68 48.2217C1165.72 46.8556 1165.24 45.519 1164.33 44.4295C1163.6 40.2714 1161.82 34.8876 1157.37 33.2589C1152.48 32.1507 1147.49 31.4364 1142.47 31.1244L1140.39 31.0973L1140.39 31.0644Z" fill="black"/>
</g>
<g filter="url(#filter11_d_4317_17711)">
<path d="M1140.39 31.0644L1132.76 30.9623L1132.09 30.9523C1127.05 31.139 1122.04 31.7287 1117.11 32.7143C1112.84 34.1575 1110.82 39.0397 1109.89 43.0722C1109.19 43.6248 1108.64 44.3043 1108.27 45.0652C1107.89 45.8262 1107.7 46.651 1107.7 47.4845L1107.5 58.3242C1107.46 59.6803 1107.92 61.01 1108.82 62.0996L1108.79 63.6853L1108.69 68.5046L1103.68 70.2698L1103.65 71.9104L1108.65 71.3206L1108.11 100.123C1107.18 101.186 1106.66 102.503 1106.65 103.862L1106.16 130.35C1106.11 131.852 1106.69 133.317 1107.78 134.452C1108.24 137.667 1109.54 142.574 1113.14 142.962L1134.91 143.234L1156.69 143.506C1160.3 143.224 1161.78 138.335 1162.37 135.138C1163.5 134.033 1164.13 132.583 1164.14 131.077L1164.63 104.589C1164.68 103.232 1164.22 101.902 1163.32 100.813L1163.86 71.8242L1168.4 72.4686L1168.44 70.8279L1163.91 69.1107L1163.99 64.3829L1164.05 62.7705C1164.97 61.7102 1165.47 60.4062 1165.48 59.0615L1165.68 48.2217C1165.72 46.8556 1165.24 45.519 1164.33 44.4295C1163.6 40.2714 1161.82 34.8876 1157.37 33.2589C1152.48 32.1507 1147.49 31.4364 1142.47 31.1244L1140.39 31.0973L1140.39 31.0644Z" fill="black"/>
</g>
<path d="M1124.94 133.507C1121.09 133.507 1117.96 135.14 1117.96 137.154C1117.96 139.168 1121.09 140.801 1124.94 140.801L1145.86 140.801C1149.71 140.801 1152.83 139.168 1152.83 137.154C1152.83 135.14 1149.71 133.507 1145.86 133.507L1124.94 133.507Z" fill="#333333"/>
<path d="M1116.55 133.505C1114.32 133.505 1112.51 135.138 1112.51 137.152C1112.51 139.166 1114.32 140.799 1116.55 140.799L1124.62 140.799C1126.85 140.799 1128.66 139.166 1128.66 137.152C1128.66 135.138 1126.85 133.505 1124.62 133.505L1116.55 133.505Z" fill="#333333"/>
<path d="M1129.48 30.7923C1128.36 30.7923 1127.46 31.6086 1127.46 32.6156C1127.46 33.6226 1128.36 34.439 1129.48 34.439L1145.63 34.439C1146.74 34.439 1147.65 33.6226 1147.65 32.6156C1147.65 31.6086 1146.74 30.7923 1145.63 30.7923L1129.48 30.7923Z" fill="#333333"/>
<path d="M1144.81 133.506C1142.58 133.506 1140.77 135.139 1140.77 137.153C1140.77 139.167 1142.58 140.8 1144.81 140.8L1152.88 140.8C1155.11 140.8 1156.92 139.167 1156.92 137.153C1156.92 135.139 1155.11 133.506 1152.88 133.506L1144.81 133.506Z" fill="#333333"/>
<path d="M1138.3 59.3286L1138.3 59.3578C1143.93 59.2505 1149.53 60.0455 1154.84 61.7059C1156.09 62.0394 1157.25 62.6082 1158.24 63.3754C1159.23 64.1426 1160.02 65.091 1160.58 66.1589L1160.58 66.2172C1160.67 66.4568 1160.74 66.7037 1160.79 66.9549C1160.91 67.488 1160.89 68.0391 1160.74 68.5678L1153.98 85.2289C1152.22 82.9782 1140.75 82.3168 1136.41 82.141C1132.08 82.363 1120.6 83.1077 1118.79 85.3731L1112.35 68.7748C1112.21 68.2463 1112.2 67.6951 1112.33 67.1617C1112.38 66.9096 1112.45 66.6616 1112.55 66.4202L1112.56 66.3613C1113.14 65.2879 1113.95 64.3328 1114.96 63.557C1115.96 62.7812 1117.13 62.2019 1118.39 61.8561C1123.73 60.1568 1129.34 59.3181 1134.97 59.3784L1134.97 59.3492C1135.53 59.346 1136.08 59.3434 1136.63 59.3449C1137.17 59.3464 1137.72 59.3365 1138.28 59.3369L1138.3 59.3286Z" fill="#333333"/>
<path d="M1117.49 110.091L1140.19 109.876L1153.91 109.732L1154.77 109.723C1159.39 112.833 1159.59 120.441 1159.14 125.492L1112.67 125.945C1112.27 120.901 1112.53 113.29 1117.19 110.093L1117.49 110.091Z" fill="#333333"/>
<path d="M1108.47 110.924C1107.98 96.9537 1108.1 89.1197 1108.47 75.1502C1108.47 75.1502 1116.55 90.5793 1116.55 94.7657C1116.55 98.9521 1108.47 115.129 1108.47 110.924Z" fill="#333333"/>
<path d="M1163.57 109.969C1163.72 95.0273 1165.14 73.1663 1163.57 75.1553C1163.57 75.1553 1156.92 91.096 1156.92 95.2824C1156.92 99.4688 1163.57 114.173 1163.57 109.969Z" fill="#333333"/>
<g filter="url(#filter12_d_4317_17711)">
<path d="M1745.73 31.0651L1738.1 30.963L1737.43 30.953C1732.39 31.1398 1727.38 31.7294 1722.46 32.715C1718.18 34.1583 1716.17 39.0404 1715.23 43.073C1714.54 43.6255 1713.99 44.305 1713.61 45.066C1713.23 45.8269 1713.04 46.6517 1713.05 47.4852L1712.84 58.325C1712.8 59.681 1713.26 61.0107 1714.16 62.1003L1714.13 63.686L1714.04 68.5054L1709.03 70.2705L1709 71.9112L1713.99 71.3213L1713.46 100.124C1712.52 101.187 1712 102.504 1711.99 103.863L1711.51 130.351C1711.45 131.853 1712.03 133.317 1713.12 134.453C1713.59 137.668 1714.88 142.575 1718.49 142.962L1740.26 143.235L1762.04 143.507C1765.65 143.225 1767.13 138.335 1767.71 135.139C1768.84 134.033 1769.48 132.584 1769.48 131.077L1769.98 104.589C1770.02 103.233 1769.56 101.903 1768.66 100.814L1769.2 71.8249L1773.75 72.4693L1773.78 70.8286L1769.25 69.1114L1769.34 64.3837L1769.4 62.7713C1770.31 61.7109 1770.82 60.4069 1770.83 59.0622L1771.03 48.2224C1771.06 46.8563 1770.58 45.5197 1769.67 44.4303C1768.95 40.2722 1767.16 34.8883 1762.71 33.2596C1757.83 32.1514 1752.84 31.4371 1747.81 31.1251L1745.73 31.098L1745.73 31.0651Z" fill="#C2C5CA"/>
</g>
<g filter="url(#filter13_d_4317_17711)">
<path d="M1745.73 31.0651L1738.1 30.963L1737.43 30.953C1732.39 31.1398 1727.38 31.7294 1722.46 32.715C1718.18 34.1583 1716.17 39.0404 1715.23 43.073C1714.54 43.6255 1713.99 44.305 1713.61 45.066C1713.23 45.8269 1713.04 46.6517 1713.05 47.4852L1712.84 58.325C1712.8 59.681 1713.26 61.0107 1714.16 62.1003L1714.13 63.686L1714.04 68.5054L1709.03 70.2705L1709 71.9112L1713.99 71.3213L1713.46 100.124C1712.52 101.187 1712 102.504 1711.99 103.863L1711.51 130.351C1711.45 131.853 1712.03 133.317 1713.12 134.453C1713.59 137.668 1714.88 142.575 1718.49 142.962L1740.26 143.235L1762.04 143.507C1765.65 143.225 1767.13 138.335 1767.71 135.139C1768.84 134.033 1769.48 132.584 1769.48 131.077L1769.98 104.589C1770.02 103.233 1769.56 101.903 1768.66 100.814L1769.2 71.8249L1773.75 72.4693L1773.78 70.8286L1769.25 69.1114L1769.34 64.3837L1769.4 62.7713C1770.31 61.7109 1770.82 60.4069 1770.83 59.0622L1771.03 48.2224C1771.06 46.8563 1770.58 45.5197 1769.67 44.4303C1768.95 40.2722 1767.16 34.8883 1762.71 33.2596C1757.83 32.1514 1752.84 31.4371 1747.81 31.1251L1745.73 31.098L1745.73 31.0651Z" fill="#C2C5CA"/>
</g>
<path d="M1730.29 133.505C1726.44 133.505 1723.31 135.138 1723.31 137.152C1723.31 139.166 1726.44 140.798 1730.29 140.798L1751.21 140.798C1755.06 140.798 1758.18 139.166 1758.18 137.152C1758.18 135.138 1755.06 133.505 1751.21 133.505L1730.29 133.505Z" fill="#333333"/>
<path d="M1721.89 133.505C1719.66 133.505 1717.86 135.138 1717.86 137.152C1717.86 139.166 1719.66 140.799 1721.89 140.799L1729.97 140.799C1732.2 140.799 1734.01 139.166 1734.01 137.152C1734.01 135.138 1732.2 133.505 1729.97 133.505L1721.89 133.505Z" fill="#333333"/>
<path d="M1734.83 30.7898C1733.71 30.7898 1732.81 31.6062 1732.81 32.6132C1732.81 33.6202 1733.71 34.4365 1734.83 34.4365L1750.98 34.4365C1752.09 34.4365 1753 33.6202 1753 32.6132C1753 31.6062 1752.09 30.7898 1750.98 30.7898L1734.83 30.7898Z" fill="#333333"/>
<path d="M1750.15 133.504C1747.92 133.504 1746.12 135.136 1746.12 137.15C1746.12 139.164 1747.92 140.797 1750.15 140.797L1758.23 140.797C1760.46 140.797 1762.27 139.164 1762.27 137.15C1762.27 135.136 1760.46 133.504 1758.23 133.504L1750.15 133.504Z" fill="#333333"/>
<path d="M1743.64 59.3286L1743.64 59.3578C1749.28 59.2505 1754.88 60.0455 1760.18 61.7059C1761.43 62.0394 1762.59 62.6082 1763.58 63.3754C1764.57 64.1426 1765.37 65.091 1765.92 66.1589L1765.92 66.2172C1766.02 66.4568 1766.09 66.7037 1766.13 66.9549C1766.25 67.488 1766.23 68.0391 1766.08 68.5678L1759.32 85.2289C1757.56 82.9782 1746.09 82.3168 1741.75 82.141C1737.42 82.363 1725.94 83.1077 1724.13 85.3731L1717.69 68.7748C1717.55 68.2463 1717.55 67.6951 1717.67 67.1617C1717.72 66.9096 1717.8 66.6616 1717.89 66.4202L1717.9 66.3613C1718.48 65.2879 1719.3 64.3328 1720.3 63.557C1721.3 62.7812 1722.47 62.2019 1723.74 61.8561C1729.07 60.1568 1734.68 59.3181 1740.32 59.3784L1740.32 59.3492C1740.88 59.346 1741.43 59.3434 1741.97 59.3449C1742.51 59.3464 1743.06 59.3365 1743.62 59.3369L1743.64 59.3286Z" fill="#333333"/>
<path d="M1722.84 110.09L1745.53 109.876L1759.25 109.732L1760.11 109.723C1764.74 112.833 1764.94 120.441 1764.48 125.492L1718.01 125.945C1717.62 120.901 1717.88 113.289 1722.53 110.093L1722.84 110.09Z" fill="#333333"/>
<path d="M1713.82 110.924C1713.33 96.9535 1713.44 89.1194 1713.82 75.15C1713.82 75.15 1721.89 90.5791 1721.89 94.7655C1721.89 98.9519 1713.82 115.129 1713.82 110.924Z" fill="#333333"/>
<path d="M1768.91 109.969C1769.06 95.0273 1770.48 73.1663 1768.91 75.1553C1768.91 75.1553 1762.27 91.096 1762.27 95.2824C1762.27 99.4688 1768.91 114.173 1768.91 109.969Z" fill="#333333"/>
<g filter="url(#filter14_d_4317_17711)">
<path d="M1040.73 31.0651L1033.1 30.963L1032.43 30.953C1027.39 31.1398 1022.38 31.7294 1017.46 32.715C1013.18 34.1583 1011.17 39.0404 1010.23 43.073C1009.54 43.6255 1008.99 44.305 1008.61 45.066C1008.23 45.8269 1008.04 46.6517 1008.05 47.4852L1007.84 58.325C1007.8 59.681 1008.26 61.0107 1009.16 62.1003L1009.13 63.686L1009.04 68.5054L1004.03 70.2705L1004 71.9112L1008.99 71.3213L1008.46 100.124C1007.52 101.187 1007 102.504 1006.99 103.863L1006.51 130.351C1006.45 131.853 1007.03 133.317 1008.12 134.453C1008.59 137.668 1009.88 142.575 1013.49 142.962L1035.26 143.235L1057.04 143.507C1060.65 143.225 1062.13 138.335 1062.71 135.139C1063.84 134.033 1064.48 132.584 1064.48 131.077L1064.98 104.589C1065.02 103.233 1064.56 101.903 1063.66 100.814L1064.2 71.8249L1068.75 72.4693L1068.78 70.8286L1064.25 69.1114L1064.34 64.3837L1064.4 62.7713C1065.31 61.7109 1065.82 60.4069 1065.83 59.0622L1066.03 48.2224C1066.06 46.8563 1065.58 45.5197 1064.67 44.4303C1063.95 40.2722 1062.16 34.8883 1057.71 33.2596C1052.83 32.1514 1047.84 31.4371 1042.81 31.1251L1040.73 31.098L1040.73 31.0651Z" fill="#C2C5CA"/>
</g>
<g filter="url(#filter15_d_4317_17711)">
<path d="M1040.73 31.0651L1033.1 30.963L1032.43 30.953C1027.39 31.1398 1022.38 31.7294 1017.46 32.715C1013.18 34.1583 1011.17 39.0404 1010.23 43.073C1009.54 43.6255 1008.99 44.305 1008.61 45.066C1008.23 45.8269 1008.04 46.6517 1008.05 47.4852L1007.84 58.325C1007.8 59.681 1008.26 61.0107 1009.16 62.1003L1009.13 63.686L1009.04 68.5054L1004.03 70.2705L1004 71.9112L1008.99 71.3213L1008.46 100.124C1007.52 101.187 1007 102.504 1006.99 103.863L1006.51 130.351C1006.45 131.853 1007.03 133.317 1008.12 134.453C1008.59 137.668 1009.88 142.575 1013.49 142.962L1035.26 143.235L1057.04 143.507C1060.65 143.225 1062.13 138.335 1062.71 135.139C1063.84 134.033 1064.48 132.584 1064.48 131.077L1064.98 104.589C1065.02 103.233 1064.56 101.903 1063.66 100.814L1064.2 71.8249L1068.75 72.4693L1068.78 70.8286L1064.25 69.1114L1064.34 64.3837L1064.4 62.7713C1065.31 61.7109 1065.82 60.4069 1065.83 59.0622L1066.03 48.2224C1066.06 46.8563 1065.58 45.5197 1064.67 44.4303C1063.95 40.2722 1062.16 34.8883 1057.71 33.2596C1052.83 32.1514 1047.84 31.4371 1042.81 31.1251L1040.73 31.098L1040.73 31.0651Z" fill="#C2C5CA"/>
</g>
<path d="M1025.29 133.505C1021.44 133.505 1018.31 135.138 1018.31 137.152C1018.31 139.166 1021.44 140.798 1025.29 140.798L1046.21 140.798C1050.06 140.798 1053.18 139.166 1053.18 137.152C1053.18 135.138 1050.06 133.505 1046.21 133.505L1025.29 133.505Z" fill="#333333"/>
<path d="M1016.89 133.505C1014.66 133.505 1012.86 135.138 1012.86 137.152C1012.86 139.166 1014.66 140.799 1016.89 140.799L1024.97 140.799C1027.2 140.799 1029.01 139.166 1029.01 137.152C1029.01 135.138 1027.2 133.505 1024.97 133.505L1016.89 133.505Z" fill="#333333"/>
<path d="M1029.83 30.7898C1028.71 30.7898 1027.81 31.6062 1027.81 32.6132C1027.81 33.6202 1028.71 34.4365 1029.83 34.4365L1045.98 34.4365C1047.09 34.4365 1048 33.6202 1048 32.6132C1048 31.6062 1047.09 30.7898 1045.98 30.7898L1029.83 30.7898Z" fill="#333333"/>
<path d="M1045.15 133.504C1042.92 133.504 1041.12 135.136 1041.12 137.15C1041.12 139.164 1042.92 140.797 1045.15 140.797L1053.23 140.797C1055.46 140.797 1057.27 139.164 1057.27 137.15C1057.27 135.136 1055.46 133.504 1053.23 133.504L1045.15 133.504Z" fill="#333333"/>
<path d="M1038.64 59.3286L1038.64 59.3578C1044.28 59.2505 1049.88 60.0455 1055.18 61.7059C1056.43 62.0394 1057.59 62.6082 1058.58 63.3754C1059.57 64.1426 1060.37 65.091 1060.92 66.1589L1060.92 66.2172C1061.02 66.4568 1061.09 66.7037 1061.13 66.9549C1061.25 67.488 1061.23 68.0391 1061.08 68.5678L1054.32 85.2289C1052.56 82.9782 1041.09 82.3168 1036.75 82.141C1032.42 82.363 1020.94 83.1077 1019.13 85.3731L1012.69 68.7748C1012.55 68.2463 1012.55 67.6951 1012.67 67.1617C1012.72 66.9096 1012.8 66.6616 1012.89 66.4202L1012.9 66.3613C1013.48 65.2879 1014.3 64.3328 1015.3 63.557C1016.3 62.7812 1017.47 62.2019 1018.74 61.8561C1024.07 60.1568 1029.68 59.3181 1035.32 59.3784L1035.32 59.3492C1035.88 59.346 1036.43 59.3434 1036.97 59.3449C1037.51 59.3464 1038.06 59.3365 1038.62 59.3369L1038.64 59.3286Z" fill="#333333"/>
<path d="M1017.84 110.09L1040.53 109.876L1054.25 109.732L1055.11 109.723C1059.74 112.833 1059.94 120.441 1059.48 125.492L1013.01 125.945C1012.62 120.901 1012.88 113.289 1017.53 110.093L1017.84 110.09Z" fill="#333333"/>
<path d="M1008.82 110.924C1008.33 96.9535 1008.44 89.1194 1008.82 75.15C1008.82 75.15 1016.89 90.5791 1016.89 94.7655C1016.89 98.9519 1008.82 115.129 1008.82 110.924Z" fill="#333333"/>
<path d="M1063.91 109.969C1064.06 95.0273 1065.48 73.1663 1063.91 75.1553C1063.91 75.1553 1057.27 91.096 1057.27 95.2824C1057.27 99.4688 1063.91 114.173 1063.91 109.969Z" fill="#333333"/>
<g filter="url(#filter16_d_4317_17711)">
<path d="M1442.1 31.0644L1434.47 30.9623L1433.8 30.9523C1428.76 31.139 1423.75 31.7287 1418.83 32.7143C1414.55 34.1575 1412.54 39.0397 1411.6 43.0722C1410.91 43.6248 1410.36 44.3043 1409.98 45.0652C1409.6 45.8262 1409.41 46.651 1409.41 47.4845L1409.21 58.3242C1409.17 59.6803 1409.63 61.01 1410.53 62.0996L1410.5 63.6853L1410.41 68.5046L1405.4 70.2698L1405.36 71.9104L1410.36 71.3206L1409.83 100.123C1408.89 101.186 1408.37 102.503 1408.36 103.862L1407.88 130.35C1407.82 131.852 1408.4 133.317 1409.49 134.452C1409.96 137.667 1411.25 142.574 1414.86 142.962L1436.63 143.234L1458.41 143.506C1462.02 143.224 1463.49 138.335 1464.08 135.138C1465.21 134.033 1465.84 132.583 1465.85 131.077L1466.35 104.589C1466.39 103.232 1465.93 101.902 1465.03 100.813L1465.57 71.8242L1470.12 72.4686L1470.15 70.8279L1465.62 69.1107L1465.71 64.3829L1465.77 62.7705C1466.68 61.7102 1467.18 60.4062 1467.19 59.0615L1467.4 48.2217C1467.43 46.8556 1466.95 45.519 1466.04 44.4295C1465.32 40.2714 1463.53 34.8876 1459.08 33.2589C1454.2 32.1507 1449.21 31.4364 1444.18 31.1244L1442.1 31.0973L1442.1 31.0644Z" fill="white"/>
</g>
<g filter="url(#filter17_d_4317_17711)">
<path d="M1442.1 31.0644L1434.47 30.9623L1433.8 30.9523C1428.76 31.139 1423.75 31.7287 1418.83 32.7143C1414.55 34.1575 1412.54 39.0397 1411.6 43.0722C1410.91 43.6248 1410.36 44.3043 1409.98 45.0652C1409.6 45.8262 1409.41 46.651 1409.41 47.4845L1409.21 58.3242C1409.17 59.6803 1409.63 61.01 1410.53 62.0996L1410.5 63.6853L1410.41 68.5046L1405.4 70.2698L1405.36 71.9104L1410.36 71.3206L1409.83 100.123C1408.89 101.186 1408.37 102.503 1408.36 103.862L1407.88 130.35C1407.82 131.852 1408.4 133.317 1409.49 134.452C1409.96 137.667 1411.25 142.574 1414.86 142.962L1436.63 143.234L1458.41 143.506C1462.02 143.224 1463.49 138.335 1464.08 135.138C1465.21 134.033 1465.84 132.583 1465.85 131.077L1466.35 104.589C1466.39 103.232 1465.93 101.902 1465.03 100.813L1465.57 71.8242L1470.12 72.4686L1470.15 70.8279L1465.62 69.1107L1465.71 64.3829L1465.77 62.7705C1466.68 61.7102 1467.18 60.4062 1467.19 59.0615L1467.4 48.2217C1467.43 46.8556 1466.95 45.519 1466.04 44.4295C1465.32 40.2714 1463.53 34.8876 1459.08 33.2589C1454.2 32.1507 1449.21 31.4364 1444.18 31.1244L1442.1 31.0973L1442.1 31.0644Z" fill="white"/>
</g>
<path d="M1426.65 133.508C1422.8 133.508 1419.68 135.14 1419.68 137.154C1419.68 139.168 1422.8 140.801 1426.65 140.801L1447.57 140.801C1451.43 140.801 1454.55 139.168 1454.55 137.154C1454.55 135.14 1451.43 133.508 1447.57 133.508L1426.65 133.508Z" fill="#333333"/>
<path d="M1418.26 133.505C1416.03 133.505 1414.22 135.138 1414.22 137.152C1414.22 139.166 1416.03 140.799 1418.26 140.799L1426.34 140.799C1428.57 140.799 1430.37 139.166 1430.37 137.152C1430.37 135.138 1428.57 133.505 1426.34 133.505L1418.26 133.505Z" fill="#333333"/>
<path d="M1431.19 30.7925C1430.08 30.7925 1429.17 31.6089 1429.17 32.6159C1429.17 33.6229 1430.08 34.4392 1431.19 34.4392L1447.34 34.4392C1448.46 34.4392 1449.36 33.6229 1449.36 32.6159C1449.36 31.6089 1448.46 30.7925 1447.34 30.7925L1431.19 30.7925Z" fill="#333333"/>
<path d="M1446.52 133.506C1444.29 133.506 1442.48 135.139 1442.48 137.153C1442.48 139.167 1444.29 140.8 1446.52 140.8L1454.59 140.8C1456.82 140.8 1458.63 139.167 1458.63 137.153C1458.63 135.139 1456.82 133.506 1454.59 133.506L1446.52 133.506Z" fill="#333333"/>
<path d="M1440.01 59.3289L1440.02 59.358C1445.65 59.2507 1451.25 60.0457 1456.55 61.7061C1457.81 62.0396 1458.96 62.6084 1459.95 63.3757C1460.94 64.1429 1461.74 65.0913 1462.29 66.1592L1462.29 66.2174C1462.39 66.4571 1462.46 66.7039 1462.51 66.9552C1462.62 67.4882 1462.6 68.0393 1462.45 68.568L1455.69 85.2291C1453.93 82.9785 1442.46 82.3171 1438.13 82.1413C1433.79 82.3632 1422.32 83.1079 1420.5 85.3733L1414.06 68.775C1413.92 68.2465 1413.92 67.6954 1414.04 67.162C1414.09 66.9099 1414.17 66.6618 1414.27 66.4204L1414.27 66.3615C1414.85 65.2882 1415.67 64.333 1416.67 63.5572C1417.68 62.7814 1418.85 62.2021 1420.11 61.8563C1425.44 60.1571 1431.05 59.3183 1436.69 59.3786L1436.69 59.3495C1437.25 59.3463 1437.8 59.3437 1438.34 59.3451C1438.88 59.3466 1439.43 59.3367 1439.99 59.3372L1440.01 59.3289Z" fill="#333333"/>
<path d="M1419.21 110.091L1441.9 109.877L1455.62 109.732L1456.48 109.724C1461.11 112.833 1461.31 120.441 1460.85 125.493L1414.38 125.945C1413.99 120.902 1414.25 113.29 1418.9 110.093L1419.21 110.091Z" fill="#333333"/>
<path d="M1410.18 110.924C1409.69 96.954 1409.81 89.1199 1410.18 75.1505C1410.18 75.1505 1418.26 90.5796 1418.26 94.766C1418.26 98.9523 1410.18 115.129 1410.18 110.924Z" fill="#333333"/>
<path d="M1465.27 109.969C1465.43 95.0276 1466.85 73.1665 1465.27 75.1555C1465.27 75.1555 1458.63 91.0963 1458.63 95.2826C1458.63 99.469 1465.27 114.173 1465.27 109.969Z" fill="#333333"/>
<g filter="url(#filter18_d_4317_17711)">
<path d="M1852.12 31.0651L1844.49 30.963L1843.82 30.953C1838.78 31.1398 1833.77 31.7294 1828.85 32.715C1824.57 34.1583 1822.56 39.0404 1821.62 43.073C1820.93 43.6255 1820.38 44.305 1820 45.066C1819.62 45.8269 1819.43 46.6517 1819.44 47.4852L1819.24 58.325C1819.19 59.681 1819.65 61.0107 1820.55 62.1003L1820.52 63.686L1820.43 68.5054L1815.42 70.2705L1815.39 71.9112L1820.38 71.3213L1819.85 100.124C1818.91 101.187 1818.4 102.504 1818.38 103.863L1817.9 130.351C1817.84 131.853 1818.42 133.317 1819.51 134.453C1819.98 137.668 1821.27 142.575 1824.88 142.962L1846.65 143.235L1868.43 143.507C1872.04 143.225 1873.52 138.335 1874.1 135.139C1875.23 134.033 1875.87 132.584 1875.87 131.077L1876.37 104.589C1876.41 103.233 1875.95 101.903 1875.05 100.814L1875.59 71.8249L1880.14 72.4693L1880.17 70.8286L1875.64 69.1114L1875.73 64.3837L1875.79 62.7713C1876.7 61.7109 1877.21 60.4069 1877.22 59.0622L1877.42 48.2224C1877.45 46.8563 1876.97 45.5197 1876.06 44.4303C1875.34 40.2722 1873.55 34.8883 1869.1 33.2596C1864.22 32.1514 1859.23 31.4371 1854.2 31.1251L1852.13 31.098L1852.12 31.0651Z" fill="white"/>
</g>
<g filter="url(#filter19_d_4317_17711)">
<path d="M1852.12 31.0651L1844.49 30.963L1843.82 30.953C1838.78 31.1398 1833.77 31.7294 1828.85 32.715C1824.57 34.1583 1822.56 39.0404 1821.62 43.073C1820.93 43.6255 1820.38 44.305 1820 45.066C1819.62 45.8269 1819.43 46.6517 1819.44 47.4852L1819.24 58.325C1819.19 59.681 1819.65 61.0107 1820.55 62.1003L1820.52 63.686L1820.43 68.5054L1815.42 70.2705L1815.39 71.9112L1820.38 71.3213L1819.85 100.124C1818.91 101.187 1818.4 102.504 1818.38 103.863L1817.9 130.351C1817.84 131.853 1818.42 133.317 1819.51 134.453C1819.98 137.668 1821.27 142.575 1824.88 142.962L1846.65 143.235L1868.43 143.507C1872.04 143.225 1873.52 138.335 1874.1 135.139C1875.23 134.033 1875.87 132.584 1875.87 131.077L1876.37 104.589C1876.41 103.233 1875.95 101.903 1875.05 100.814L1875.59 71.8249L1880.14 72.4693L1880.17 70.8286L1875.64 69.1114L1875.73 64.3837L1875.79 62.7713C1876.7 61.7109 1877.21 60.4069 1877.22 59.0622L1877.42 48.2224C1877.45 46.8563 1876.97 45.5197 1876.06 44.4303C1875.34 40.2722 1873.55 34.8883 1869.1 33.2596C1864.22 32.1514 1859.23 31.4371 1854.2 31.1251L1852.13 31.098L1852.12 31.0651Z" fill="white"/>
</g>
<path d="M1836.67 133.508C1832.82 133.508 1829.7 135.141 1829.7 137.155C1829.7 139.169 1832.82 140.802 1836.67 140.802L1857.59 140.802C1861.45 140.802 1864.57 139.169 1864.57 137.155C1864.57 135.141 1861.45 133.508 1857.59 133.508L1836.67 133.508Z" fill="#333333"/>
<path d="M1828.28 133.506C1826.05 133.506 1824.25 135.139 1824.25 137.153C1824.25 139.167 1826.05 140.799 1828.28 140.799L1836.36 140.799C1838.59 140.799 1840.4 139.167 1840.4 137.153C1840.4 135.139 1838.59 133.506 1836.36 133.506L1828.28 133.506Z" fill="#333333"/>
<path d="M1841.21 30.793C1840.1 30.793 1839.19 31.6094 1839.19 32.6164C1839.19 33.6234 1840.1 34.4397 1841.21 34.4397L1857.36 34.4397C1858.48 34.4397 1859.38 33.6234 1859.38 32.6164C1859.38 31.6094 1858.48 30.793 1857.36 30.793L1841.21 30.793Z" fill="#333333"/>
<path d="M1856.54 133.507C1854.31 133.507 1852.5 135.14 1852.5 137.154C1852.5 139.168 1854.31 140.8 1856.54 140.8L1864.61 140.8C1866.84 140.8 1868.65 139.168 1868.65 137.154C1868.65 135.14 1866.84 133.507 1864.61 133.507L1856.54 133.507Z" fill="#333333"/>
<path d="M1850.04 59.3296L1850.04 59.3587C1855.67 59.2514 1861.27 60.0464 1866.57 61.7069C1867.83 62.0403 1868.99 62.6092 1869.97 63.3764C1870.96 64.1436 1871.76 65.092 1872.31 66.1599L1872.32 66.2182C1872.41 66.4578 1872.48 66.7047 1872.53 66.9559C1872.64 67.489 1872.63 68.0401 1872.48 68.5688L1865.71 85.2298C1863.96 82.9792 1852.49 82.3178 1848.15 82.142C1843.81 82.364 1832.34 83.1086 1830.52 85.3741L1824.08 68.7758C1823.94 68.2473 1823.94 67.6961 1824.07 67.1627C1824.12 66.9106 1824.19 66.6625 1824.29 66.4211L1824.3 66.3622C1824.87 65.2889 1825.69 64.3338 1826.69 63.558C1827.7 62.7822 1828.87 62.2028 1830.13 61.857C1835.46 60.1578 1841.08 59.3191 1846.71 59.3793L1846.71 59.3502C1847.27 59.347 1847.82 59.3444 1848.36 59.3459C1848.9 59.3473 1849.45 59.3375 1850.02 59.3379L1850.04 59.3296Z" fill="#333333"/>
<path d="M1829.23 110.091L1851.92 109.877L1865.64 109.733L1866.5 109.724C1871.13 112.834 1871.33 120.441 1870.87 125.493L1824.4 125.946C1824.01 120.902 1824.27 113.29 1828.92 110.094L1829.23 110.091Z" fill="#333333"/>
<path d="M1820.21 110.925C1819.72 96.9547 1819.83 89.1207 1820.21 75.1512C1820.21 75.1512 1828.28 90.5803 1828.28 94.7667C1828.28 98.9531 1820.21 115.13 1820.21 110.925Z" fill="#333333"/>
<path d="M1875.3 109.969C1875.45 95.0281 1876.87 73.167 1875.3 75.156C1875.3 75.156 1868.66 91.0967 1868.66 95.2831C1868.66 99.4695 1875.3 114.174 1875.3 109.969Z" fill="#333333"/>
</g>
<defs>
<filter id="filter0_d_4317_17711" x="80.5335" y="29.4377" width="72.806" height="120.576" filterUnits="userSpaceOnUse" color-interpolation-filters="sRGB">
<feFlood flood-opacity="0" result="BackgroundImageFix"/>
<feColorMatrix in="SourceAlpha" type="matrix" values="0 0 0 0 0 0 0 0 0 0 0 0 0 0 0 0 0 0 127 0" result="hardAlpha"/>
<feOffset dy="2.00569"/>
<feGaussianBlur stdDeviation="2.00569"/>
<feColorMatrix type="matrix" values="0 0 0 0 0 0 0 0 0 0 0 0 0 0 0 0 0 0 0.2 0"/>
<feBlend mode="normal" in2="BackgroundImageFix" result="effect1_dropShadow_4317_17711"/>
<feBlend mode="normal" in="SourceGraphic" in2="effect1_dropShadow_4317_17711" result="shape"/>
</filter>
<filter id="filter1_d_4317_17711" x="80.5335" y="29.4377" width="72.806" height="120.576" filterUnits="userSpaceOnUse" color-interpolation-filters="sRGB">
<feFlood flood-opacity="0" result="BackgroundImageFix"/>
<feColorMatrix in="SourceAlpha" type="matrix" values="0 0 0 0 0 0 0 0 0 0 0 0 0 0 0 0 0 0 127 0" result="hardAlpha"/>
<feOffset dy="2.00569"/>
<feGaussianBlur stdDeviation="2.00569"/>
<feColorMatrix type="matrix" values="0 0 0 0 0 0 0 0 0 0 0 0 0 0 0 0 0 0 0.2 0"/>
<feBlend mode="normal" in2="BackgroundImageFix" result="effect1_dropShadow_4317_17711"/>
<feBlend mode="normal" in="SourceGraphic" in2="effect1_dropShadow_4317_17711" result="shape"/>
</filter>
<filter id="filter2_d_4317_17711" x="387.985" y="28.9479" width="72.806" height="120.576" filterUnits="userSpaceOnUse" color-interpolation-filters="sRGB">
<feFlood flood-opacity="0" result="BackgroundImageFix"/>
<feColorMatrix in="SourceAlpha" type="matrix" values="0 0 0 0 0 0 0 0 0 0 0 0 0 0 0 0 0 0 127 0" result="hardAlpha"/>
<feOffset dy="2.00569"/>
<feGaussianBlur stdDeviation="2.00569"/>
<feColorMatrix type="matrix" values="0 0 0 0 0 0 0 0 0 0 0 0 0 0 0 0 0 0 0.2 0"/>
<feBlend mode="normal" in2="BackgroundImageFix" result="effect1_dropShadow_4317_17711"/>
<feBlend mode="normal" in="SourceGraphic" in2="effect1_dropShadow_4317_17711" result="shape"/>
</filter>
<filter id="filter3_d_4317_17711" x="387.985" y="28.9479" width="72.806" height="120.576" filterUnits="userSpaceOnUse" color-interpolation-filters="sRGB">
<feFlood flood-opacity="0" result="BackgroundImageFix"/>
<feColorMatrix in="SourceAlpha" type="matrix" values="0 0 0 0 0 0 0 0 0 0 0 0 0 0 0 0 0 0 127 0" result="hardAlpha"/>
<feOffset dy="2.00569"/>
<feGaussianBlur stdDeviation="2.00569"/>
<feColorMatrix type="matrix" values="0 0 0 0 0 0 0 0 0 0 0 0 0 0 0 0 0 0 0.2 0"/>
<feBlend mode="normal" in2="BackgroundImageFix" result="effect1_dropShadow_4317_17711"/>
<feBlend mode="normal" in="SourceGraphic" in2="effect1_dropShadow_4317_17711" result="shape"/>
</filter>
<filter id="filter4_d_4317_17711" x="488.985" y="28.9474" width="72.806" height="120.576" filterUnits="userSpaceOnUse" color-interpolation-filters="sRGB">
<feFlood flood-opacity="0" result="BackgroundImageFix"/>
<feColorMatrix in="SourceAlpha" type="matrix" values="0 0 0 0 0 0 0 0 0 0 0 0 0 0 0 0 0 0 127 0" result="hardAlpha"/>
<feOffset dy="2.00569"/>
<feGaussianBlur stdDeviation="2.00569"/>
<feColorMatrix type="matrix" values="0 0 0 0 0 0 0 0 0 0 0 0 0 0 0 0 0 0 0.2 0"/>
<feBlend mode="normal" in2="BackgroundImageFix" result="effect1_dropShadow_4317_17711"/>
<feBlend mode="normal" in="SourceGraphic" in2="effect1_dropShadow_4317_17711" result="shape"/>
</filter>
<filter id="filter5_d_4317_17711" x="488.985" y="28.9474" width="72.806" height="120.576" filterUnits="userSpaceOnUse" color-interpolation-filters="sRGB">
<feFlood flood-opacity="0" result="BackgroundImageFix"/>
<feColorMatrix in="SourceAlpha" type="matrix" values="0 0 0 0 0 0 0 0 0 0 0 0 0 0 0 0 0 0 127 0" result="hardAlpha"/>
<feOffset dy="2.00569"/>
<feGaussianBlur stdDeviation="2.00569"/>
<feColorMatrix type="matrix" values="0 0 0 0 0 0 0 0 0 0 0 0 0 0 0 0 0 0 0.2 0"/>
<feBlend mode="normal" in2="BackgroundImageFix" result="effect1_dropShadow_4317_17711"/>
<feBlend mode="normal" in="SourceGraphic" in2="effect1_dropShadow_4317_17711" result="shape"/>
</filter>
<filter id="filter6_d_4317_17711" x="1607.98" y="29.4379" width="72.806" height="120.576" filterUnits="userSpaceOnUse" color-interpolation-filters="sRGB">
<feFlood flood-opacity="0" result="BackgroundImageFix"/>
<feColorMatrix in="SourceAlpha" type="matrix" values="0 0 0 0 0 0 0 0 0 0 0 0 0 0 0 0 0 0 127 0" result="hardAlpha"/>
<feOffset dy="2.00569"/>
<feGaussianBlur stdDeviation="2.00569"/>
<feColorMatrix type="matrix" values="0 0 0 0 0 0 0 0 0 0 0 0 0 0 0 0 0 0 0.2 0"/>
<feBlend mode="normal" in2="BackgroundImageFix" result="effect1_dropShadow_4317_17711"/>
<feBlend mode="normal" in="SourceGraphic" in2="effect1_dropShadow_4317_17711" result="shape"/>
</filter>
<filter id="filter7_d_4317_17711" x="1607.98" y="29.4379" width="72.806" height="120.576" filterUnits="userSpaceOnUse" color-interpolation-filters="sRGB">
<feFlood flood-opacity="0" result="BackgroundImageFix"/>
<feColorMatrix in="SourceAlpha" type="matrix" values="0 0 0 0 0 0 0 0 0 0 0 0 0 0 0 0 0 0 127 0" result="hardAlpha"/>
<feOffset dy="2.00569"/>
<feGaussianBlur stdDeviation="2.00569"/>
<feColorMatrix type="matrix" values="0 0 0 0 0 0 0 0 0 0 0 0 0 0 0 0 0 0 0.2 0"/>
<feBlend mode="normal" in2="BackgroundImageFix" result="effect1_dropShadow_4317_17711"/>
<feBlend mode="normal" in="SourceGraphic" in2="effect1_dropShadow_4317_17711" result="shape"/>
</filter>
<filter id="filter8_d_4317_17711" x="792.766" y="29.4382" width="72.806" height="120.576" filterUnits="userSpaceOnUse" color-interpolation-filters="sRGB">
<feFlood flood-opacity="0" result="BackgroundImageFix"/>
<feColorMatrix in="SourceAlpha" type="matrix" values="0 0 0 0 0 0 0 0 0 0 0 0 0 0 0 0 0 0 127 0" result="hardAlpha"/>
<feOffset dy="2.00569"/>
<feGaussianBlur stdDeviation="2.00569"/>
<feColorMatrix type="matrix" values="0 0 0 0 0 0 0 0 0 0 0 0 0 0 0 0 0 0 0.2 0"/>
<feBlend mode="normal" in2="BackgroundImageFix" result="effect1_dropShadow_4317_17711"/>
<feBlend mode="normal" in="SourceGraphic" in2="effect1_dropShadow_4317_17711" result="shape"/>
</filter>
<filter id="filter9_d_4317_17711" x="792.766" y="29.4382" width="72.806" height="120.576" filterUnits="userSpaceOnUse" color-interpolation-filters="sRGB">
<feFlood flood-opacity="0" result="BackgroundImageFix"/>
<feColorMatrix in="SourceAlpha" type="matrix" values="0 0 0 0 0 0 0 0 0 0 0 0 0 0 0 0 0 0 127 0" result="hardAlpha"/>
<feOffset dy="2.00569"/>
<feGaussianBlur stdDeviation="2.00569"/>
<feColorMatrix type="matrix" values="0 0 0 0 0 0 0 0 0 0 0 0 0 0 0 0 0 0 0.2 0"/>
<feBlend mode="normal" in2="BackgroundImageFix" result="effect1_dropShadow_4317_17711"/>
<feBlend mode="normal" in="SourceGraphic" in2="effect1_dropShadow_4317_17711" result="shape"/>
</filter>
<filter id="filter10_d_4317_17711" x="1099.64" y="28.9467" width="72.806" height="120.576" filterUnits="userSpaceOnUse" color-interpolation-filters="sRGB">
<feFlood flood-opacity="0" result="BackgroundImageFix"/>
<feColorMatrix in="SourceAlpha" type="matrix" values="0 0 0 0 0 0 0 0 0 0 0 0 0 0 0 0 0 0 127 0" result="hardAlpha"/>
<feOffset dy="2.00569"/>
<feGaussianBlur stdDeviation="2.00569"/>
<feColorMatrix type="matrix" values="0 0 0 0 0 0 0 0 0 0 0 0 0 0 0 0 0 0 0.2 0"/>
<feBlend mode="normal" in2="BackgroundImageFix" result="effect1_dropShadow_4317_17711"/>
<feBlend mode="normal" in="SourceGraphic" in2="effect1_dropShadow_4317_17711" result="shape"/>
</filter>
<filter id="filter11_d_4317_17711" x="1099.64" y="28.9467" width="72.806" height="120.576" filterUnits="userSpaceOnUse" color-interpolation-filters="sRGB">
<feFlood flood-opacity="0" result="BackgroundImageFix"/>
<feColorMatrix in="SourceAlpha" type="matrix" values="0 0 0 0 0 0 0 0 0 0 0 0 0 0 0 0 0 0 127 0" result="hardAlpha"/>
<feOffset dy="2.00569"/>
<feGaussianBlur stdDeviation="2.00569"/>
<feColorMatrix type="matrix" values="0 0 0 0 0 0 0 0 0 0 0 0 0 0 0 0 0 0 0.2 0"/>
<feBlend mode="normal" in2="BackgroundImageFix" result="effect1_dropShadow_4317_17711"/>
<feBlend mode="normal" in="SourceGraphic" in2="effect1_dropShadow_4317_17711" result="shape"/>
</filter>
<filter id="filter12_d_4317_17711" x="1704.98" y="28.9474" width="72.806" height="120.576" filterUnits="userSpaceOnUse" color-interpolation-filters="sRGB">
<feFlood flood-opacity="0" result="BackgroundImageFix"/>
<feColorMatrix in="SourceAlpha" type="matrix" values="0 0 0 0 0 0 0 0 0 0 0 0 0 0 0 0 0 0 127 0" result="hardAlpha"/>
<feOffset dy="2.00569"/>
<feGaussianBlur stdDeviation="2.00569"/>
<feColorMatrix type="matrix" values="0 0 0 0 0 0 0 0 0 0 0 0 0 0 0 0 0 0 0.2 0"/>
<feBlend mode="normal" in2="BackgroundImageFix" result="effect1_dropShadow_4317_17711"/>
<feBlend mode="normal" in="SourceGraphic" in2="effect1_dropShadow_4317_17711" result="shape"/>
</filter>
<filter id="filter13_d_4317_17711" x="1704.98" y="28.9474" width="72.806" height="120.576" filterUnits="userSpaceOnUse" color-interpolation-filters="sRGB">
<feFlood flood-opacity="0" result="BackgroundImageFix"/>
<feColorMatrix in="SourceAlpha" type="matrix" values="0 0 0 0 0 0 0 0 0 0 0 0 0 0 0 0 0 0 127 0" result="hardAlpha"/>
<feOffset dy="2.00569"/>
<feGaussianBlur stdDeviation="2.00569"/>
<feColorMatrix type="matrix" values="0 0 0 0 0 0 0 0 0 0 0 0 0 0 0 0 0 0 0.2 0"/>
<feBlend mode="normal" in2="BackgroundImageFix" result="effect1_dropShadow_4317_17711"/>
<feBlend mode="normal" in="SourceGraphic" in2="effect1_dropShadow_4317_17711" result="shape"/>
</filter>
<filter id="filter14_d_4317_17711" x="999.985" y="28.9474" width="72.806" height="120.576" filterUnits="userSpaceOnUse" color-interpolation-filters="sRGB">
<feFlood flood-opacity="0" result="BackgroundImageFix"/>
<feColorMatrix in="SourceAlpha" type="matrix" values="0 0 0 0 0 0 0 0 0 0 0 0 0 0 0 0 0 0 127 0" result="hardAlpha"/>
<feOffset dy="2.00569"/>
<feGaussianBlur stdDeviation="2.00569"/>
<feColorMatrix type="matrix" values="0 0 0 0 0 0 0 0 0 0 0 0 0 0 0 0 0 0 0.2 0"/>
<feBlend mode="normal" in2="BackgroundImageFix" result="effect1_dropShadow_4317_17711"/>
<feBlend mode="normal" in="SourceGraphic" in2="effect1_dropShadow_4317_17711" result="shape"/>
</filter>
<filter id="filter15_d_4317_17711" x="999.985" y="28.9474" width="72.806" height="120.576" filterUnits="userSpaceOnUse" color-interpolation-filters="sRGB">
<feFlood flood-opacity="0" result="BackgroundImageFix"/>
<feColorMatrix in="SourceAlpha" type="matrix" values="0 0 0 0 0 0 0 0 0 0 0 0 0 0 0 0 0 0 127 0" result="hardAlpha"/>
<feOffset dy="2.00569"/>
<feGaussianBlur stdDeviation="2.00569"/>
<feColorMatrix type="matrix" values="0 0 0 0 0 0 0 0 0 0 0 0 0 0 0 0 0 0 0.2 0"/>
<feBlend mode="normal" in2="BackgroundImageFix" result="effect1_dropShadow_4317_17711"/>
<feBlend mode="normal" in="SourceGraphic" in2="effect1_dropShadow_4317_17711" result="shape"/>
</filter>
<filter id="filter16_d_4317_17711" x="1401.35" y="28.9467" width="72.806" height="120.576" filterUnits="userSpaceOnUse" color-interpolation-filters="sRGB">
<feFlood flood-opacity="0" result="BackgroundImageFix"/>
<feColorMatrix in="SourceAlpha" type="matrix" values="0 0 0 0 0 0 0 0 0 0 0 0 0 0 0 0 0 0 127 0" result="hardAlpha"/>
<feOffset dy="2.00569"/>
<feGaussianBlur stdDeviation="2.00569"/>
<feColorMatrix type="matrix" values="0 0 0 0 0 0 0 0 0 0 0 0 0 0 0 0 0 0 0.2 0"/>
<feBlend mode="normal" in2="BackgroundImageFix" result="effect1_dropShadow_4317_17711"/>
<feBlend mode="normal" in="SourceGraphic" in2="effect1_dropShadow_4317_17711" result="shape"/>
</filter>
<filter id="filter17_d_4317_17711" x="1401.35" y="28.9467" width="72.806" height="120.576" filterUnits="userSpaceOnUse" color-interpolation-filters="sRGB">
<feFlood flood-opacity="0" result="BackgroundImageFix"/>
<feColorMatrix in="SourceAlpha" type="matrix" values="0 0 0 0 0 0 0 0 0 0 0 0 0 0 0 0 0 0 127 0" result="hardAlpha"/>
<feOffset dy="2.00569"/>
<feGaussianBlur stdDeviation="2.00569"/>
<feColorMatrix type="matrix" values="0 0 0 0 0 0 0 0 0 0 0 0 0 0 0 0 0 0 0.2 0"/>
<feBlend mode="normal" in2="BackgroundImageFix" result="effect1_dropShadow_4317_17711"/>
<feBlend mode="normal" in="SourceGraphic" in2="effect1_dropShadow_4317_17711" result="shape"/>
</filter>
<filter id="filter18_d_4317_17711" x="1811.38" y="28.9474" width="72.806" height="120.576" filterUnits="userSpaceOnUse" color-interpolation-filters="sRGB">
<feFlood flood-opacity="0" result="BackgroundImageFix"/>
<feColorMatrix in="SourceAlpha" type="matrix" values="0 0 0 0 0 0 0 0 0 0 0 0 0 0 0 0 0 0 127 0" result="hardAlpha"/>
<feOffset dy="2.00569"/>
<feGaussianBlur stdDeviation="2.00569"/>
<feColorMatrix type="matrix" values="0 0 0 0 0 0 0 0 0 0 0 0 0 0 0 0 0 0 0.2 0"/>
<feBlend mode="normal" in2="BackgroundImageFix" result="effect1_dropShadow_4317_17711"/>
<feBlend mode="normal" in="SourceGraphic" in2="effect1_dropShadow_4317_17711" result="shape"/>
</filter>
<filter id="filter19_d_4317_17711" x="1811.38" y="28.9474" width="72.806" height="120.576" filterUnits="userSpaceOnUse" color-interpolation-filters="sRGB">
<feFlood flood-opacity="0" result="BackgroundImageFix"/>
<feColorMatrix in="SourceAlpha" type="matrix" values="0 0 0 0 0 0 0 0 0 0 0 0 0 0 0 0 0 0 127 0" result="hardAlpha"/>
<feOffset dy="2.00569"/>
<feGaussianBlur stdDeviation="2.00569"/>
<feColorMatrix type="matrix" values="0 0 0 0 0 0 0 0 0 0 0 0 0 0 0 0 0 0 0.2 0"/>
<feBlend mode="normal" in2="BackgroundImageFix" result="effect1_dropShadow_4317_17711"/>
<feBlend mode="normal" in="SourceGraphic" in2="effect1_dropShadow_4317_17711" result="shape"/>
</filter>
<linearGradient id="paint0_linear_4317_17711" x1="4.68723" y1="-1403.35" x2="-116.635" y2="-1400.2" gradientUnits="userSpaceOnUse">
<stop stop-color="#DADADA"/>
<stop offset="1" stop-color="white"/>
</linearGradient>
<linearGradient id="paint1_linear_4317_17711" x1="3.90603" y1="-1403.35" x2="-97.2168" y2="-1401.16" gradientUnits="userSpaceOnUse">
<stop stop-color="#DADADA"/>
<stop offset="1" stop-color="white"/>
</linearGradient>
<linearGradient id="paint2_linear_4317_17711" x1="4.68721" y1="-117.5" x2="-106.095" y2="-83.1982" gradientUnits="userSpaceOnUse">
<stop stop-color="#DADADA"/>
<stop offset="1" stop-color="white"/>
</linearGradient>
<linearGradient id="paint3_linear_4317_17711" x1="4.68721" y1="-117.5" x2="-106.095" y2="-83.1982" gradientUnits="userSpaceOnUse">
<stop stop-color="#DADADA"/>
<stop offset="1" stop-color="white"/>
</linearGradient>
<linearGradient id="paint4_linear_4317_17711" x1="4.68721" y1="-117.5" x2="-106.095" y2="-83.1982" gradientUnits="userSpaceOnUse">
<stop stop-color="#DADADA"/>
<stop offset="1" stop-color="white"/>
</linearGradient>
<linearGradient id="paint5_linear_4317_17711" x1="4.68721" y1="-117.5" x2="-106.095" y2="-83.1982" gradientUnits="userSpaceOnUse">
<stop stop-color="#DADADA"/>
<stop offset="1" stop-color="white"/>
</linearGradient>
<linearGradient id="paint6_linear_4317_17711" x1="4.68721" y1="-117.5" x2="-106.095" y2="-83.1982" gradientUnits="userSpaceOnUse">
<stop stop-color="#DADADA"/>
<stop offset="1" stop-color="white"/>
</linearGradient>
<linearGradient id="paint7_linear_4317_17711" x1="4.68721" y1="-117.5" x2="-106.095" y2="-83.1982" gradientUnits="userSpaceOnUse">
<stop stop-color="#DADADA"/>
<stop offset="1" stop-color="white"/>
</linearGradient>
<linearGradient id="paint8_linear_4317_17711" x1="3.90601" y1="-117.5" x2="-90.9484" y2="-93.0251" gradientUnits="userSpaceOnUse">
<stop stop-color="#DADADA"/>
<stop offset="1" stop-color="white"/>
</linearGradient>
<linearGradient id="paint9_linear_4317_17711" x1="4.68721" y1="-117.5" x2="-106.095" y2="-83.1982" gradientUnits="userSpaceOnUse">
<stop stop-color="#DADADA"/>
<stop offset="1" stop-color="white"/>
</linearGradient>
<linearGradient id="paint10_linear_4317_17711" x1="4.68721" y1="-117.5" x2="-106.095" y2="-83.1982" gradientUnits="userSpaceOnUse">
<stop stop-color="#DADADA"/>
<stop offset="1" stop-color="white"/>
</linearGradient>
<linearGradient id="paint11_linear_4317_17711" x1="4.68721" y1="-117.5" x2="-106.095" y2="-83.1982" gradientUnits="userSpaceOnUse">
<stop stop-color="#DADADA"/>
<stop offset="1" stop-color="white"/>
</linearGradient>
<linearGradient id="paint12_linear_4317_17711" x1="3.90601" y1="-117.5" x2="-90.9484" y2="-93.0251" gradientUnits="userSpaceOnUse">
<stop stop-color="#DADADA"/>
<stop offset="1" stop-color="white"/>
</linearGradient>
<linearGradient id="paint13_linear_4317_17711" x1="4.68721" y1="-117.5" x2="-106.095" y2="-83.1982" gradientUnits="userSpaceOnUse">
<stop stop-color="#DADADA"/>
<stop offset="1" stop-color="white"/>
</linearGradient>
<linearGradient id="paint14_linear_4317_17711" x1="4.68721" y1="-117.5" x2="-106.095" y2="-83.1982" gradientUnits="userSpaceOnUse">
<stop stop-color="#DADADA"/>
<stop offset="1" stop-color="white"/>
</linearGradient>
<linearGradient id="paint15_linear_4317_17711" x1="4.68721" y1="-117.5" x2="-106.095" y2="-83.1982" gradientUnits="userSpaceOnUse">
<stop stop-color="#DADADA"/>
<stop offset="1" stop-color="white"/>
</linearGradient>
<linearGradient id="paint16_linear_4317_17711" x1="4.68721" y1="-117.5" x2="-106.095" y2="-83.1982" gradientUnits="userSpaceOnUse">
<stop stop-color="#DADADA"/>
<stop offset="1" stop-color="white"/>
</linearGradient>
<linearGradient id="paint17_linear_4317_17711" x1="4.68721" y1="-117.5" x2="-106.095" y2="-83.1982" gradientUnits="userSpaceOnUse">
<stop stop-color="#DADADA"/>
<stop offset="1" stop-color="white"/>
</linearGradient>
<linearGradient id="paint18_linear_4317_17711" x1="4.68721" y1="-117.5" x2="-106.095" y2="-83.1982" gradientUnits="userSpaceOnUse">
<stop stop-color="#DADADA"/>
<stop offset="1" stop-color="white"/>
</linearGradient>
<linearGradient id="paint19_linear_4317_17711" x1="4.68721" y1="-117.5" x2="-106.095" y2="-83.1982" gradientUnits="userSpaceOnUse">
<stop stop-color="#DADADA"/>
<stop offset="1" stop-color="white"/>
</linearGradient>
</defs>
</svg>
