<svg width="360" height="312" viewBox="0 0 360 312" fill="none" xmlns="http://www.w3.org/2000/svg">
<path d="M161.228 104.176V87.6846H199.123V107.334L207.161 108.922C207.536 108.996 207.693 109.447 207.444 109.738C200.245 118.137 192.867 126.299 178.5 122.878C164.882 121.57 158.942 114.806 149 109.088L161.228 104.176Z" fill="#FCCACB" stroke="#FF9BA7" stroke-linecap="round"/>
<path d="M151.107 53.1304C157.539 43.1005 160.284 34.5816 167.671 28.1372C168.764 27.1836 170.412 27.8766 170.625 29.3114C172.089 39.1657 180.766 46.3183 190.718 45.8757L203.861 45.2914L204.498 53.6267C204.534 54.1048 205.157 54.2623 205.417 53.859L206.096 52.8018C206.447 52.2557 206.885 51.7499 207.47 51.469C208.355 51.0443 209.159 51.0483 210.446 51.4075C211.811 51.9538 212.503 52.5515 213.219 53.6234C213.582 54.1666 213.787 54.7991 213.862 55.448C214.358 59.7497 213.995 62.3555 212.715 66.6784C210.376 68.8532 208.921 69.4981 206.083 69.7923C205.411 75.7649 204.416 79.1479 201.812 84.3997C201.481 85.0663 201.067 85.6915 200.585 86.2585C195.59 92.1366 191.59 95.628 184.872 99.7361C182.109 101.426 178.655 101.547 175.778 100.061C170.044 97.0994 165.925 94.3217 161.73 90.3754C157.561 86.4534 155.25 81.011 154.409 75.3494L153.944 72.2191C149.567 70.8735 147.563 68.7591 144.269 65.1508C144.076 64.9395 143.912 64.7008 143.791 64.4418C142.684 62.0817 142.46 60.6312 142.906 58.1108C142.932 57.9643 142.97 57.8198 143.02 57.6793C143.649 55.8791 144.061 54.9112 145.377 53.77C145.859 53.3523 146.489 53.1564 147.126 53.1528L151.107 53.1304Z" fill="#FCCACB" stroke="#FF9BA7" stroke-linecap="round"/>
<path d="M149.319 53.0416C155.542 56.7283 159.568 31.299 169.323 27.721C171.423 39.1316 181.749 47.1512 193.324 46.3613L203.911 45.6387L204.427 52.911C204.483 53.7058 205.401 54.1187 206.033 53.6336L208.986 51.3673C209.833 50.7173 210.451 49.8125 210.744 48.786C211.977 44.4708 212.656 41.6619 212.842 36.5077C212.658 32.8784 212.38 30.7617 211.55 27.3975C211.45 26.9941 211.298 26.604 211.095 26.2415C204.474 14.425 193.408 5.84451 183.636 4.32658C181.48 3.99173 179.27 4.38409 177.308 5.33723C174.599 6.65303 173.011 8.17319 171.064 10.79C168.865 9.51569 167.455 9.09421 165.652 9.17557C164.624 9.22195 163.633 9.56887 162.724 10.0509C153.922 14.7195 150.184 19.8214 146.78 30.8771C146.438 31.9877 146.312 33.1601 146.398 34.3189C146.928 41.4122 147.694 45.7764 149.319 53.0416Z" fill="black" stroke="black" stroke-linecap="round"/>
<circle cx="1.75438" cy="1.75438" r="1.75438" transform="matrix(-0.989139 0.146983 0.146983 0.989139 189.672 54.8496)" fill="black"/>
<circle cx="1.75438" cy="1.75438" r="1.75438" transform="matrix(-0.989139 0.146983 0.146983 0.989139 168.332 54.4736)" fill="black"/>
<circle cx="1.75438" cy="1.75438" r="1.75438" transform="matrix(-0.989139 0.146983 0.146983 0.989139 178.828 67.8115)" fill="black"/>
<path d="M174.11 82.9042C178.199 80.8728 180.476 80.8131 184.508 82.8692" stroke="black" stroke-width="3" stroke-linecap="round"/>
<path d="M182.947 121.959C175.122 121.196 152.034 112.184 149.965 109.089C137.026 113.691 128.516 117.254 118.4 122.331C111.077 126.007 106.285 133.236 105.68 141.406C104.041 163.533 102.023 201.552 102 213.5H256.5L251.679 145.524C251.039 136.497 246.452 128.09 238.733 123.367C229.164 117.512 220.711 113.705 207.86 109.089C201.988 116.733 196.446 119.492 182.947 121.959Z" fill="#5B67EC"/>
<path d="M257 213L251.168 145.232C250.405 136.373 245.841 128.164 238.265 123.51C228.6 117.573 220.114 113.743 207.158 109.089C201.286 116.733 195.744 119.492 182.245 121.959C174.42 121.196 151.332 112.184 149.263 109.089C136.324 113.691 127.814 117.254 117.698 122.331C110.375 126.007 105.589 133.237 105.048 141.412C103.59 163.418 102.023 201.062 102 213" stroke="black" stroke-width="2" stroke-linecap="round"/>
<path d="M131 171L128 214" stroke="black" stroke-width="2" stroke-linecap="round"/>
<path d="M231 171L234 214" stroke="black" stroke-width="2" stroke-linecap="round"/>
<path fill-rule="evenodd" clip-rule="evenodd" d="M166.307 218.086C166.307 217.766 166.319 217.449 166.343 217.136L134.176 196.515L138.307 188.365L171.483 208.067C173.334 206.785 175.56 206.037 177.955 206.037C180.754 206.037 183.323 207.059 185.332 208.761L218.654 189.961L223.787 197.428L189.601 218.276C189.503 224.843 184.327 230.136 177.955 230.136C171.522 230.136 166.307 224.741 166.307 218.086Z" fill="#49545A"/>
<path d="M166.343 217.136L166.842 217.173L166.864 216.876L166.613 216.715L166.343 217.136ZM134.176 196.515L133.73 196.288L133.525 196.692L133.906 196.935L134.176 196.515ZM138.307 188.365L138.562 187.935L138.103 187.662L137.861 188.139L138.307 188.365ZM171.483 208.067L171.228 208.497L171.504 208.661L171.768 208.478L171.483 208.067ZM185.332 208.761L185.009 209.143L185.274 209.368L185.577 209.197L185.332 208.761ZM218.654 189.961L219.067 189.677L218.807 189.3L218.409 189.525L218.654 189.961ZM223.787 197.428L224.048 197.855L224.499 197.58L224.199 197.145L223.787 197.428ZM189.601 218.276L189.341 217.849L189.106 217.993L189.101 218.269L189.601 218.276ZM165.845 217.098C165.82 217.424 165.807 217.754 165.807 218.086H166.807C166.807 217.779 166.819 217.475 166.842 217.173L165.845 217.098ZM133.906 196.935L166.073 217.557L166.613 216.715L134.446 196.094L133.906 196.935ZM137.861 188.139L133.73 196.288L134.622 196.741L138.753 188.591L137.861 188.139ZM171.738 207.637L138.562 187.935L138.052 188.795L171.228 208.497L171.738 207.637ZM177.955 205.537C175.454 205.537 173.129 206.318 171.198 207.656L171.768 208.478C173.539 207.251 175.666 206.537 177.955 206.537V205.537ZM185.655 208.38C183.561 206.605 180.879 205.537 177.955 205.537V206.537C180.63 206.537 183.085 207.513 185.009 209.143L185.655 208.38ZM218.409 189.525L185.086 208.326L185.577 209.197L218.9 190.396L218.409 189.525ZM224.199 197.145L219.067 189.677L218.242 190.244L223.375 197.711L224.199 197.145ZM189.862 218.703L224.048 197.855L223.527 197.001L189.341 217.849L189.862 218.703ZM177.955 230.636C184.616 230.636 189.999 225.108 190.101 218.284L189.101 218.269C189.007 224.579 184.038 229.636 177.955 229.636V230.636ZM165.807 218.086C165.807 225.001 171.23 230.636 177.955 230.636V229.636C171.814 229.636 166.807 224.481 166.807 218.086H165.807Z" fill="black"/>
<mask id="path-14-inside-1_4026_718" fill="white">
<path fill-rule="evenodd" clip-rule="evenodd" d="M179.5 274C210.152 274 235 249.152 235 218.5C235 187.848 210.152 163 179.5 163C148.848 163 124 187.848 124 218.5C124 249.152 148.848 274 179.5 274ZM179.5 258.275C202.489 258.275 221.125 239.639 221.125 216.65C221.125 193.661 202.489 175.025 179.5 175.025C156.511 175.025 137.875 193.661 137.875 216.65C137.875 239.639 156.511 258.275 179.5 258.275Z"/>
</mask>
<path fill-rule="evenodd" clip-rule="evenodd" d="M179.5 274C210.152 274 235 249.152 235 218.5C235 187.848 210.152 163 179.5 163C148.848 163 124 187.848 124 218.5C124 249.152 148.848 274 179.5 274ZM179.5 258.275C202.489 258.275 221.125 239.639 221.125 216.65C221.125 193.661 202.489 175.025 179.5 175.025C156.511 175.025 137.875 193.661 137.875 216.65C137.875 239.639 156.511 258.275 179.5 258.275Z" fill="#49545A"/>
<path d="M234 218.5C234 248.6 209.6 273 179.5 273V275C210.704 275 236 249.704 236 218.5H234ZM179.5 164C209.6 164 234 188.4 234 218.5H236C236 187.296 210.704 162 179.5 162V164ZM125 218.5C125 188.4 149.4 164 179.5 164V162C148.296 162 123 187.296 123 218.5H125ZM179.5 273C149.4 273 125 248.6 125 218.5H123C123 249.704 148.296 275 179.5 275V273ZM220.125 216.65C220.125 239.087 201.937 257.275 179.5 257.275V259.275C203.041 259.275 222.125 240.191 222.125 216.65H220.125ZM179.5 176.025C201.937 176.025 220.125 194.213 220.125 216.65H222.125C222.125 193.109 203.041 174.025 179.5 174.025V176.025ZM138.875 216.65C138.875 194.213 157.063 176.025 179.5 176.025V174.025C155.959 174.025 136.875 193.109 136.875 216.65H138.875ZM179.5 257.275C157.063 257.275 138.875 239.087 138.875 216.65H136.875C136.875 240.191 155.959 259.275 179.5 259.275V257.275Z" fill="black" mask="url(#path-14-inside-1_4026_718)"/>
<path d="M142.157 170.45L143.926 168.287L146.508 168C152.549 172.56 155.739 175.317 160.704 181.104C161.473 182.001 161.529 183.308 160.851 184.276C160.319 185.037 159.423 185.458 158.498 185.384L156.441 185.217V185.869C156.441 186.758 156.204 187.63 155.754 188.397L155.405 188.993C154.674 190.241 153.442 191.265 151.998 191.208C151.544 191.19 151.078 191.113 150.525 190.957C150.738 191.667 150.849 192.199 150.874 192.789C150.91 193.658 150.542 194.483 150.031 195.186L149.85 195.436C149.002 196.601 147.693 197.344 146.258 197.475L145.361 197.557L143.87 199.047C142.767 200.151 141.002 200.224 139.81 199.216L129.159 190.201C127.946 189.175 127.744 187.382 128.697 186.111L129.582 184.93C129.374 183.358 129.652 182.484 129.869 180.913L132.164 178.617L132.923 178.333C133.88 177.974 134.589 177.152 134.803 176.152L135.181 174.388C135.271 173.967 135.495 173.586 135.819 173.302L137.114 172.169C137.439 171.884 137.847 171.713 138.278 171.679L140.065 171.542C140.882 171.479 141.638 171.085 142.157 170.45Z" fill="#FCCACB"/>
<path d="M145.361 197.557L143.87 199.047C142.767 200.151 141.002 200.224 139.81 199.216L129.159 190.201C127.946 189.175 127.744 187.382 128.697 186.111L129.582 184.93C129.374 183.358 129.652 182.484 129.869 180.913L132.164 178.617L132.923 178.333C133.88 177.974 134.589 177.152 134.803 176.152L135.181 174.388C135.271 173.967 135.495 173.586 135.819 173.302L137.114 172.169C137.439 171.884 137.847 171.713 138.278 171.679L140.065 171.542C140.882 171.479 141.638 171.085 142.157 170.45L143.926 168.287L146.508 168C152.549 172.56 155.739 175.317 160.704 181.104C161.473 182.001 161.529 183.308 160.851 184.276V184.276C160.319 185.037 159.423 185.458 158.498 185.384L156.441 185.217M145.361 197.557L133.025 186.365M145.361 197.557L146.258 197.475C147.693 197.344 149.002 196.601 149.85 195.436L150.031 195.186C150.542 194.483 150.91 193.658 150.874 192.789C150.849 192.199 150.738 191.667 150.525 190.957M150.525 190.957L138.762 180.913M150.525 190.957C151.078 191.113 151.544 191.19 151.998 191.208C153.442 191.265 154.674 190.241 155.405 188.993L155.754 188.397C156.204 187.63 156.441 186.758 156.441 185.869V185.217M156.441 185.217L144.5 175.174" stroke="#FF9BA7" stroke-width="1.5" stroke-linecap="round"/>
<mask id="path-18-inside-2_4026_718" fill="white">
<path d="M0 212H360V312H0V212Z"/>
</mask>
<path d="M0 212H360V312H0V212Z" fill="white"/>
<path d="M0 214H360V210H0V214Z" fill="black" mask="url(#path-18-inside-2_4026_718)"/>
</svg>
