<svg width="917" height="1735" viewBox="0 0 917 1735" fill="none" xmlns="http://www.w3.org/2000/svg">
<rect x="10" y="10" width="897" height="1715" rx="85" fill="white"/>
<rect x="10" y="10" width="897" height="1715" rx="85" stroke="black" stroke-width="20"/>
<rect x="63" y="611" width="200" height="200" rx="11" fill="#878787" fill-opacity="0.3"/>
<path d="M187.972 711.309C187.972 724.666 176.282 735.619 161.701 735.619C147.12 735.619 135.43 724.666 135.43 711.309C135.43 697.952 147.12 686.999 161.701 686.999C176.282 686.999 187.972 697.952 187.972 711.309Z" fill="#878787" stroke="#878787" stroke-width="2"/>
<path d="M150.794 701.185L172.611 721.433M172.611 701.185L150.794 721.433" stroke="white" stroke-width="1.5" stroke-linecap="round" stroke-linejoin="round"/>
<rect x="61.7139" y="390.999" width="200" height="200" rx="11" fill="#5B67EC" fill-opacity="0.2"/>
<g opacity="0.5">
<g filter="url(#filter0_d_4256_13934)">
<path d="M246.442 498.715L246.596 488.362L246.611 487.46C246.33 480.624 245.445 473.827 243.965 467.147C241.798 461.351 234.467 458.62 228.413 457.346C227.583 456.409 226.563 455.66 225.42 455.149C224.278 454.639 223.039 454.378 221.788 454.385L205.512 454.112C203.476 454.053 201.479 454.681 199.843 455.895L197.463 455.854L190.226 455.73L187.576 448.935L185.113 448.892L185.998 455.666L142.752 454.942C141.155 453.671 139.178 452.973 137.137 452.959L97.3664 452.299C95.1115 452.226 92.9122 453.007 91.2077 454.485C86.3799 455.121 79.0123 456.875 78.4301 461.766L78.0212 491.29L77.6128 520.825C78.0364 525.721 85.3775 527.726 90.1776 528.521C91.8369 530.058 94.0138 530.914 96.2755 530.92L136.047 531.596C138.083 531.655 140.08 531.027 141.715 529.813L185.242 530.543L184.275 536.707L186.738 536.75L189.316 530.607L196.415 530.726L198.836 530.809C200.428 532.05 202.386 532.731 204.405 532.744L220.681 533.017C222.732 533.065 224.739 532.417 226.375 531.178C232.618 530.198 240.702 527.773 243.147 521.744C244.811 515.115 245.884 508.351 246.352 501.532L246.393 498.717L246.442 498.715Z" fill="white"/>
</g>
<g filter="url(#filter1_d_4256_13934)">
<path d="M246.442 498.715L246.596 488.362L246.611 487.46C246.33 480.624 245.445 473.827 243.965 467.147C241.798 461.351 234.467 458.62 228.413 457.346C227.583 456.409 226.563 455.66 225.42 455.149C224.278 454.639 223.039 454.378 221.788 454.385L205.512 454.112C203.476 454.053 201.479 454.681 199.843 455.895L197.463 455.854L190.226 455.73L187.576 448.935L185.113 448.892L185.998 455.666L142.752 454.942C141.155 453.671 139.178 452.973 137.137 452.959L97.3664 452.299C95.1115 452.226 92.9122 453.007 91.2077 454.485C86.3799 455.121 79.0123 456.875 78.4301 461.766L78.0212 491.29L77.6128 520.825C78.0364 525.721 85.3775 527.726 90.1776 528.521C91.8369 530.058 94.0138 530.914 96.2755 530.92L136.047 531.596C138.083 531.655 140.08 531.027 141.715 529.813L185.242 530.543L184.275 536.707L186.738 536.75L189.316 530.607L196.415 530.726L198.836 530.809C200.428 532.05 202.386 532.731 204.405 532.744L220.681 533.017C222.732 533.065 224.739 532.417 226.375 531.178C232.618 530.198 240.702 527.773 243.147 521.744C244.811 515.115 245.884 508.351 246.352 501.532L246.393 498.717L246.442 498.715Z" fill="white"/>
</g>
<path d="M92.6315 477.763C92.6315 472.539 90.1801 468.305 87.1561 468.305C84.1321 468.305 81.6807 472.539 81.6807 477.763L81.6807 506.136C81.6807 511.36 84.1321 515.594 87.1561 515.594C90.1801 515.594 92.6315 511.36 92.6315 506.136L92.6315 477.763Z" fill="#333333"/>
<path d="M92.6315 466.38C92.6315 463.356 90.1801 460.904 87.1561 460.904C84.1321 460.904 81.6807 463.356 81.6807 466.38L81.6807 477.331C81.6807 480.355 84.1321 482.806 87.1561 482.806C90.1801 482.806 92.6315 480.355 92.6315 477.331L92.6315 466.38Z" fill="#333333"/>
<path d="M245.947 485.538C245.947 484.026 244.721 482.8 243.209 482.8C241.697 482.8 240.472 484.026 240.472 485.538L240.472 507.439C240.472 508.951 241.697 510.177 243.209 510.177C244.721 510.177 245.947 508.951 245.947 507.439L245.947 485.538Z" fill="#333333"/>
<path d="M92.6315 504.707C92.6315 501.683 90.1801 499.231 87.1561 499.231C84.1321 499.231 81.6807 501.683 81.6807 504.707L81.6807 515.658C81.6807 518.682 84.1321 521.133 87.1561 521.133C90.1801 521.133 92.6315 518.682 92.6315 515.658L92.6315 504.707Z" fill="#333333"/>
<path d="M203.853 496.799L203.81 496.799C203.538 504.436 201.916 511.964 199.019 519.035C198.422 520.709 197.48 522.239 196.254 523.524C195.028 524.81 193.544 525.823 191.9 526.498L191.813 526.498C191.446 526.609 191.071 526.688 190.69 526.734C189.882 526.854 189.057 526.793 188.276 526.553L163.812 516.237C167.321 514.014 169.194 498.524 169.791 492.66C169.791 486.774 169.555 471.18 166.297 468.568L191.681 460.996C192.485 460.844 193.312 460.874 194.102 461.083C194.476 461.169 194.842 461.286 195.197 461.434L195.284 461.45C196.85 462.305 198.219 463.476 199.305 464.891C200.391 466.305 201.17 467.931 201.592 469.663C203.73 477.004 204.557 484.665 204.034 492.293L204.078 492.293C204.04 493.054 204.001 493.799 203.957 494.533C203.914 495.266 203.886 496.011 203.842 496.772L203.853 496.799Z" fill="#333333"/>
<path d="M129.294 468.3L127.69 499.044L126.743 517.633L126.683 518.8C121.629 524.823 110.207 524.511 102.673 523.509L105.936 460.552C113.531 460.404 124.92 461.34 129.316 467.889L129.294 468.3Z" fill="#333333"/>
<path d="M126.527 455.426L180.241 455.426C180.241 455.426 157.075 466.377 150.789 466.377C144.503 466.377 120.214 455.426 126.527 455.426Z" fill="#333333"/>
<path d="M126.553 532.08L180.267 532.08C180.267 532.08 156.312 521.129 150.026 521.129C143.741 521.129 120.24 532.08 126.553 532.08Z" fill="#333333"/>
</g>
<rect x="63" y="1271" width="200" height="200" rx="11" fill="#878787" fill-opacity="0.3"/>
<path d="M187.972 1371.31C187.972 1384.67 176.282 1395.62 161.701 1395.62C147.12 1395.62 135.43 1384.67 135.43 1371.31C135.43 1357.95 147.12 1347 161.701 1347C176.282 1347 187.972 1357.95 187.972 1371.31Z" fill="#878787" stroke="#878787" stroke-width="2"/>
<path d="M150.794 1361.18L172.611 1381.43M172.611 1361.18L150.794 1381.43" stroke="white" stroke-width="1.5" stroke-linecap="round" stroke-linejoin="round"/>
<rect x="650.999" y="1271" width="200" height="200" rx="11" fill="#878787" fill-opacity="0.3"/>
<path d="M775.969 1371.31C775.969 1384.67 764.279 1395.62 749.698 1395.62C735.117 1395.62 723.427 1384.67 723.427 1371.31C723.427 1357.95 735.117 1347 749.698 1347C764.279 1347 775.969 1357.95 775.969 1371.31Z" fill="#878787" stroke="#878787" stroke-width="2"/>
<path d="M738.792 1361.18L760.609 1381.43M760.609 1361.18L738.792 1381.43" stroke="white" stroke-width="1.5" stroke-linecap="round" stroke-linejoin="round"/>
<rect x="650.999" y="1051" width="200" height="200" rx="11" fill="#878787" fill-opacity="0.3"/>
<path d="M775.969 1151.31C775.969 1164.67 764.279 1175.62 749.698 1175.62C735.117 1175.62 723.427 1164.67 723.427 1151.31C723.427 1137.95 735.117 1127 749.698 1127C764.279 1127 775.969 1137.95 775.969 1151.31Z" fill="#878787" stroke="#878787" stroke-width="2"/>
<path d="M738.792 1141.19L760.609 1161.43M760.609 1141.19L738.792 1161.43" stroke="white" stroke-width="1.5" stroke-linecap="round" stroke-linejoin="round"/>
<rect x="61.7139" y="1051" width="200" height="200" rx="11" fill="#5B67EC" fill-opacity="0.2"/>
<g opacity="0.5">
<g filter="url(#filter2_d_4256_13934)">
<path d="M246.442 1158.72L246.596 1148.36L246.611 1147.46C246.33 1140.63 245.445 1133.83 243.965 1127.15C241.798 1121.35 234.467 1118.62 228.413 1117.35C227.583 1116.41 226.563 1115.66 225.42 1115.15C224.278 1114.64 223.039 1114.38 221.788 1114.39L205.512 1114.11C203.476 1114.05 201.479 1114.68 199.843 1115.9L197.463 1115.86L190.226 1115.73L187.576 1108.94L185.113 1108.89L185.998 1115.67L142.752 1114.94C141.155 1113.67 139.178 1112.97 137.137 1112.96L97.3664 1112.3C95.1115 1112.23 92.9122 1113.01 91.2077 1114.49C86.3799 1115.12 79.0123 1116.88 78.4301 1121.77L78.0212 1151.29L77.6128 1180.83C78.0364 1185.72 85.3775 1187.73 90.1776 1188.52C91.8369 1190.06 94.0138 1190.92 96.2755 1190.92L136.047 1191.6C138.083 1191.66 140.08 1191.03 141.715 1189.81L185.242 1190.54L184.275 1196.71L186.738 1196.75L189.316 1190.61L196.415 1190.73L198.836 1190.81C200.428 1192.05 202.386 1192.73 204.405 1192.75L220.681 1193.02C222.732 1193.07 224.739 1192.42 226.375 1191.18C232.618 1190.2 240.702 1187.77 243.147 1181.75C244.811 1175.12 245.884 1168.35 246.352 1161.53L246.393 1158.72L246.442 1158.72Z" fill="white"/>
</g>
<g filter="url(#filter3_d_4256_13934)">
<path d="M246.442 1158.72L246.596 1148.36L246.611 1147.46C246.33 1140.63 245.445 1133.83 243.965 1127.15C241.798 1121.35 234.467 1118.62 228.413 1117.35C227.583 1116.41 226.563 1115.66 225.42 1115.15C224.278 1114.64 223.039 1114.38 221.788 1114.39L205.512 1114.11C203.476 1114.05 201.479 1114.68 199.843 1115.9L197.463 1115.86L190.226 1115.73L187.576 1108.94L185.113 1108.89L185.998 1115.67L142.752 1114.94C141.155 1113.67 139.178 1112.97 137.137 1112.96L97.3664 1112.3C95.1115 1112.23 92.9122 1113.01 91.2077 1114.49C86.3799 1115.12 79.0123 1116.88 78.4301 1121.77L78.0212 1151.29L77.6128 1180.83C78.0364 1185.72 85.3775 1187.73 90.1776 1188.52C91.8369 1190.06 94.0138 1190.92 96.2755 1190.92L136.047 1191.6C138.083 1191.66 140.08 1191.03 141.715 1189.81L185.242 1190.54L184.275 1196.71L186.738 1196.75L189.316 1190.61L196.415 1190.73L198.836 1190.81C200.428 1192.05 202.386 1192.73 204.405 1192.75L220.681 1193.02C222.732 1193.07 224.739 1192.42 226.375 1191.18C232.618 1190.2 240.702 1187.77 243.147 1181.75C244.811 1175.12 245.884 1168.35 246.352 1161.53L246.393 1158.72L246.442 1158.72Z" fill="white"/>
</g>
<path d="M92.6315 1137.76C92.6315 1132.54 90.1801 1128.31 87.1561 1128.31C84.1321 1128.31 81.6807 1132.54 81.6807 1137.76L81.6807 1166.14C81.6807 1171.36 84.1321 1175.6 87.1561 1175.6C90.1801 1175.6 92.6315 1171.36 92.6315 1166.14L92.6315 1137.76Z" fill="#333333"/>
<path d="M92.6315 1126.38C92.6315 1123.36 90.1801 1120.9 87.1561 1120.9C84.1321 1120.9 81.6807 1123.36 81.6807 1126.38L81.6807 1137.33C81.6807 1140.35 84.1321 1142.81 87.1561 1142.81C90.1801 1142.81 92.6315 1140.35 92.6315 1137.33L92.6315 1126.38Z" fill="#333333"/>
<path d="M245.947 1145.54C245.947 1144.03 244.721 1142.8 243.209 1142.8C241.697 1142.8 240.472 1144.03 240.472 1145.54L240.472 1167.44C240.472 1168.95 241.697 1170.18 243.209 1170.18C244.721 1170.18 245.947 1168.95 245.947 1167.44L245.947 1145.54Z" fill="#333333"/>
<path d="M92.6315 1164.71C92.6315 1161.68 90.1801 1159.23 87.1561 1159.23C84.1321 1159.23 81.6807 1161.68 81.6807 1164.71L81.6807 1175.66C81.6807 1178.68 84.1321 1181.13 87.1561 1181.13C90.1801 1181.13 92.6315 1178.68 92.6315 1175.66L92.6315 1164.71Z" fill="#333333"/>
<path d="M203.853 1156.8L203.81 1156.8C203.538 1164.44 201.916 1171.97 199.019 1179.04C198.422 1180.71 197.48 1182.24 196.254 1183.53C195.028 1184.81 193.544 1185.82 191.9 1186.5L191.813 1186.5C191.446 1186.61 191.071 1186.69 190.69 1186.73C189.882 1186.86 189.057 1186.79 188.276 1186.55L163.812 1176.24C167.321 1174.02 169.194 1158.53 169.791 1152.66C169.791 1146.77 169.555 1131.18 166.297 1128.57L191.681 1121C192.485 1120.84 193.312 1120.87 194.102 1121.08C194.476 1121.17 194.842 1121.29 195.197 1121.43L195.284 1121.45C196.85 1122.31 198.219 1123.48 199.305 1124.89C200.391 1126.31 201.17 1127.93 201.592 1129.66C203.73 1137.01 204.557 1144.67 204.034 1152.29L204.078 1152.29C204.04 1153.06 204.001 1153.8 203.957 1154.53C203.914 1155.27 203.886 1156.01 203.842 1156.77L203.853 1156.8Z" fill="#333333"/>
<path d="M129.294 1128.3L127.69 1159.05L126.743 1177.63L126.683 1178.8C121.629 1184.82 110.207 1184.51 102.673 1183.51L105.936 1120.55C113.531 1120.41 124.92 1121.34 129.316 1127.89L129.294 1128.3Z" fill="#333333"/>
<path d="M126.527 1115.42L180.241 1115.42C180.241 1115.42 157.075 1126.38 150.789 1126.38C144.503 1126.38 120.214 1115.42 126.527 1115.42Z" fill="#333333"/>
<path d="M126.553 1192.08L180.267 1192.08C180.267 1192.08 156.312 1181.13 150.026 1181.13C143.741 1181.13 120.24 1192.08 126.553 1192.08Z" fill="#333333"/>
</g>
<rect x="61.7139" y="830.999" width="200" height="200" rx="11" fill="#5B67EC" fill-opacity="0.2"/>
<g opacity="0.5">
<g filter="url(#filter4_d_4256_13934)">
<path d="M246.442 938.715L246.596 928.362L246.611 927.46C246.33 920.624 245.445 913.827 243.965 907.147C241.798 901.351 234.467 898.62 228.413 897.346C227.583 896.409 226.563 895.66 225.42 895.149C224.278 894.639 223.039 894.378 221.788 894.385L205.512 894.112C203.476 894.053 201.479 894.681 199.843 895.895L197.463 895.854L190.226 895.73L187.576 888.935L185.113 888.892L185.998 895.666L142.752 894.942C141.155 893.671 139.178 892.973 137.137 892.959L97.3664 892.299C95.1115 892.226 92.9122 893.007 91.2077 894.485C86.3799 895.121 79.0123 896.875 78.4301 901.766L78.0212 931.29L77.6128 960.825C78.0364 965.721 85.3775 967.726 90.1776 968.521C91.8369 970.058 94.0138 970.914 96.2755 970.92L136.047 971.596C138.083 971.655 140.08 971.027 141.715 969.813L185.242 970.543L184.275 976.707L186.738 976.75L189.316 970.607L196.415 970.726L198.836 970.809C200.428 972.05 202.386 972.731 204.405 972.744L220.681 973.017C222.732 973.065 224.739 972.417 226.375 971.178C232.618 970.198 240.702 967.773 243.147 961.744C244.811 955.115 245.884 948.351 246.352 941.532L246.393 938.717L246.442 938.715Z" fill="white"/>
</g>
<g filter="url(#filter5_d_4256_13934)">
<path d="M246.442 938.715L246.596 928.362L246.611 927.46C246.33 920.624 245.445 913.827 243.965 907.147C241.798 901.351 234.467 898.62 228.413 897.346C227.583 896.409 226.563 895.66 225.42 895.149C224.278 894.639 223.039 894.378 221.788 894.385L205.512 894.112C203.476 894.053 201.479 894.681 199.843 895.895L197.463 895.854L190.226 895.73L187.576 888.935L185.113 888.892L185.998 895.666L142.752 894.942C141.155 893.671 139.178 892.973 137.137 892.959L97.3664 892.299C95.1115 892.226 92.9122 893.007 91.2077 894.485C86.3799 895.121 79.0123 896.875 78.4301 901.766L78.0212 931.29L77.6128 960.825C78.0364 965.721 85.3775 967.726 90.1776 968.521C91.8369 970.058 94.0138 970.914 96.2755 970.92L136.047 971.596C138.083 971.655 140.08 971.027 141.715 969.813L185.242 970.543L184.275 976.707L186.738 976.75L189.316 970.607L196.415 970.726L198.836 970.809C200.428 972.05 202.386 972.731 204.405 972.744L220.681 973.017C222.732 973.065 224.739 972.417 226.375 971.178C232.618 970.198 240.702 967.773 243.147 961.744C244.811 955.115 245.884 948.351 246.352 941.532L246.393 938.717L246.442 938.715Z" fill="white"/>
</g>
<path d="M92.6315 917.763C92.6315 912.539 90.1801 908.305 87.1561 908.305C84.1321 908.305 81.6807 912.539 81.6807 917.763L81.6807 946.136C81.6807 951.36 84.1321 955.594 87.1561 955.594C90.1801 955.594 92.6315 951.36 92.6315 946.136L92.6315 917.763Z" fill="#333333"/>
<path d="M92.6315 906.38C92.6315 903.356 90.1801 900.904 87.1561 900.904C84.1321 900.904 81.6807 903.356 81.6807 906.38L81.6807 917.331C81.6807 920.355 84.1321 922.806 87.1561 922.806C90.1801 922.806 92.6315 920.355 92.6315 917.331L92.6315 906.38Z" fill="#333333"/>
<path d="M245.947 925.538C245.947 924.026 244.721 922.8 243.209 922.8C241.697 922.8 240.472 924.026 240.472 925.538L240.472 947.439C240.472 948.951 241.697 950.177 243.209 950.177C244.721 950.177 245.947 948.951 245.947 947.439L245.947 925.538Z" fill="#333333"/>
<path d="M92.6315 944.707C92.6315 941.683 90.1801 939.231 87.1561 939.231C84.1321 939.231 81.6807 941.683 81.6807 944.707L81.6807 955.658C81.6807 958.682 84.1321 961.133 87.1561 961.133C90.1801 961.133 92.6315 958.682 92.6315 955.658L92.6315 944.707Z" fill="#333333"/>
<path d="M203.853 936.799L203.81 936.799C203.538 944.436 201.916 951.964 199.019 959.035C198.422 960.709 197.48 962.239 196.254 963.524C195.028 964.81 193.544 965.823 191.9 966.498L191.813 966.498C191.446 966.609 191.071 966.688 190.69 966.734C189.882 966.854 189.057 966.793 188.276 966.553L163.812 956.237C167.321 954.014 169.194 938.524 169.791 932.66C169.791 926.774 169.555 911.18 166.297 908.568L191.681 900.996C192.485 900.844 193.312 900.874 194.102 901.083C194.476 901.169 194.842 901.286 195.197 901.434L195.284 901.45C196.85 902.305 198.219 903.476 199.305 904.891C200.391 906.305 201.17 907.931 201.592 909.663C203.73 917.004 204.557 924.665 204.034 932.293L204.078 932.293C204.04 933.054 204.001 933.799 203.957 934.533C203.914 935.266 203.886 936.011 203.842 936.772L203.853 936.799Z" fill="#333333"/>
<path d="M129.294 908.3L127.69 939.044L126.743 957.633L126.683 958.8C121.629 964.823 110.207 964.511 102.673 963.509L105.936 900.552C113.531 900.404 124.92 901.34 129.316 907.889L129.294 908.3Z" fill="#333333"/>
<path d="M126.527 895.426L180.241 895.426C180.241 895.426 157.075 906.377 150.789 906.377C144.503 906.377 120.214 895.426 126.527 895.426Z" fill="#333333"/>
<path d="M126.553 972.08L180.267 972.08C180.267 972.08 156.312 961.129 150.026 961.129C143.741 961.129 120.24 972.08 126.553 972.08Z" fill="#333333"/>
</g>
<rect width="200" height="200" rx="11" transform="matrix(-1 0 0 1 850.717 390.999)" fill="#5B67EC" fill-opacity="0.2"/>
<g opacity="0.5">
<g filter="url(#filter6_d_4256_13934)">
<path d="M665.988 498.715L665.835 488.362L665.82 487.46C666.101 480.624 666.986 473.827 668.466 467.147C670.633 461.351 677.963 458.62 684.018 457.346C684.848 456.409 685.868 455.66 687.01 455.149C688.153 454.639 689.391 454.378 690.643 454.385L706.919 454.112C708.955 454.053 710.951 454.681 712.587 455.895L714.968 455.854L722.204 455.73L724.855 448.935L727.318 448.892L726.432 455.666L769.679 454.942C771.276 453.671 773.253 452.973 775.293 452.959L815.064 452.299C817.319 452.226 819.518 453.007 821.223 454.485C826.051 455.121 833.418 456.875 834.001 461.766L834.409 491.29L834.818 520.825C834.394 525.721 827.053 527.726 822.253 528.521C820.594 530.058 818.417 530.914 816.155 530.92L776.384 531.596C774.348 531.655 772.351 531.027 770.715 529.813L727.189 530.543L728.156 536.707L725.693 536.75L723.114 530.607L716.016 530.726L713.595 530.809C712.003 532.05 710.045 532.731 708.026 532.744L691.75 533.017C689.699 533.065 687.692 532.417 686.056 531.178C679.813 530.198 671.729 527.773 669.283 521.744C667.619 515.115 666.547 508.351 666.078 501.532L666.038 498.717L665.988 498.715Z" fill="white"/>
</g>
<g filter="url(#filter7_d_4256_13934)">
<path d="M665.988 498.715L665.835 488.362L665.82 487.46C666.101 480.624 666.986 473.827 668.466 467.147C670.633 461.351 677.963 458.62 684.018 457.346C684.848 456.409 685.868 455.66 687.01 455.149C688.153 454.639 689.391 454.378 690.643 454.385L706.919 454.112C708.955 454.053 710.951 454.681 712.587 455.895L714.968 455.854L722.204 455.73L724.855 448.935L727.318 448.892L726.432 455.666L769.679 454.942C771.276 453.671 773.253 452.973 775.293 452.959L815.064 452.299C817.319 452.226 819.518 453.007 821.223 454.485C826.051 455.121 833.418 456.875 834.001 461.766L834.409 491.29L834.818 520.825C834.394 525.721 827.053 527.726 822.253 528.521C820.594 530.058 818.417 530.914 816.155 530.92L776.384 531.596C774.348 531.655 772.351 531.027 770.715 529.813L727.189 530.543L728.156 536.707L725.693 536.75L723.114 530.607L716.016 530.726L713.595 530.809C712.003 532.05 710.045 532.731 708.026 532.744L691.75 533.017C689.699 533.065 687.692 532.417 686.056 531.178C679.813 530.198 671.729 527.773 669.283 521.744C667.619 515.115 666.547 508.351 666.078 501.532L666.038 498.717L665.988 498.715Z" fill="white"/>
</g>
<path d="M819.799 477.763C819.799 472.539 822.251 468.305 825.275 468.305C828.299 468.305 830.75 472.539 830.75 477.763L830.75 506.136C830.75 511.36 828.299 515.594 825.275 515.594C822.251 515.594 819.799 511.36 819.799 506.136L819.799 477.763Z" fill="#333333"/>
<path d="M819.799 466.38C819.799 463.356 822.251 460.904 825.275 460.904C828.299 460.904 830.75 463.356 830.75 466.38L830.75 477.331C830.75 480.355 828.299 482.806 825.275 482.806C822.251 482.806 819.799 480.355 819.799 477.331L819.799 466.38Z" fill="#333333"/>
<path d="M666.484 485.538C666.484 484.026 667.709 482.8 669.221 482.8C670.733 482.8 671.959 484.026 671.959 485.538L671.959 507.439C671.959 508.951 670.733 510.177 669.221 510.177C667.709 510.177 666.484 508.951 666.484 507.439L666.484 485.538Z" fill="#333333"/>
<path d="M819.799 504.707C819.799 501.683 822.251 499.231 825.275 499.231C828.299 499.231 830.75 501.683 830.75 504.707L830.75 515.658C830.75 518.682 828.299 521.133 825.275 521.133C822.251 521.133 819.799 518.682 819.799 515.658L819.799 504.707Z" fill="#333333"/>
<path d="M708.577 496.799L708.621 496.799C708.893 504.436 710.515 511.964 713.412 519.035C714.008 520.709 714.95 522.239 716.177 523.524C717.403 524.81 718.886 525.823 720.53 526.498L720.618 526.498C720.984 526.609 721.36 526.688 721.74 526.734C722.549 526.854 723.374 526.793 724.155 526.553L748.619 516.237C745.109 514.014 743.237 498.524 742.64 492.66C742.64 486.774 742.875 471.18 746.133 468.568L720.749 460.996C719.946 460.844 719.119 460.874 718.329 461.083C717.955 461.169 717.589 461.286 717.234 461.434L717.146 461.45C715.581 462.305 714.212 463.476 713.125 464.891C712.039 466.305 711.26 467.931 710.839 469.663C708.7 477.004 707.873 484.665 708.397 492.293L708.353 492.293C708.391 493.054 708.429 493.799 708.473 494.533C708.517 495.266 708.544 496.011 708.588 496.772L708.577 496.799Z" fill="#333333"/>
<path d="M783.136 468.3L784.741 499.044L785.688 517.633L785.748 518.8C790.802 524.823 802.224 524.511 809.758 523.509L806.494 460.552C798.9 460.404 787.511 461.34 783.114 467.889L783.136 468.3Z" fill="#333333"/>
<path d="M785.903 455.426L732.189 455.426C732.189 455.426 755.356 466.377 761.642 466.377C767.928 466.377 792.217 455.426 785.903 455.426Z" fill="#333333"/>
<path d="M785.877 532.08L732.163 532.08C732.163 532.08 756.118 521.129 762.404 521.129C768.69 521.129 792.191 532.08 785.877 532.08Z" fill="#333333"/>
</g>
<rect width="200" height="200" rx="11" transform="matrix(-1 0 0 1 850.717 830.999)" fill="#5B67EC" fill-opacity="0.2"/>
<g opacity="0.5">
<g filter="url(#filter8_d_4256_13934)">
<path d="M665.988 938.715L665.835 928.362L665.82 927.46C666.101 920.624 666.986 913.827 668.466 907.147C670.633 901.351 677.963 898.62 684.018 897.346C684.848 896.409 685.868 895.66 687.01 895.149C688.153 894.639 689.391 894.378 690.643 894.385L706.919 894.112C708.955 894.053 710.951 894.681 712.587 895.895L714.968 895.854L722.204 895.73L724.855 888.935L727.318 888.892L726.432 895.666L769.679 894.942C771.276 893.671 773.253 892.973 775.293 892.959L815.064 892.299C817.319 892.226 819.518 893.007 821.223 894.485C826.051 895.121 833.418 896.875 834.001 901.766L834.409 931.29L834.818 960.825C834.394 965.721 827.053 967.726 822.253 968.521C820.594 970.058 818.417 970.914 816.155 970.92L776.384 971.596C774.348 971.655 772.351 971.027 770.715 969.813L727.189 970.543L728.156 976.707L725.693 976.75L723.114 970.607L716.016 970.726L713.595 970.809C712.003 972.05 710.045 972.731 708.026 972.744L691.75 973.017C689.699 973.065 687.692 972.417 686.056 971.178C679.813 970.198 671.729 967.773 669.283 961.744C667.619 955.115 666.547 948.351 666.078 941.532L666.038 938.717L665.988 938.715Z" fill="white"/>
</g>
<g filter="url(#filter9_d_4256_13934)">
<path d="M665.988 938.715L665.835 928.362L665.82 927.46C666.101 920.624 666.986 913.827 668.466 907.147C670.633 901.351 677.963 898.62 684.018 897.346C684.848 896.409 685.868 895.66 687.01 895.149C688.153 894.639 689.391 894.378 690.643 894.385L706.919 894.112C708.955 894.053 710.951 894.681 712.587 895.895L714.968 895.854L722.204 895.73L724.855 888.935L727.318 888.892L726.432 895.666L769.679 894.942C771.276 893.671 773.253 892.973 775.293 892.959L815.064 892.299C817.319 892.226 819.518 893.007 821.223 894.485C826.051 895.121 833.418 896.875 834.001 901.766L834.409 931.29L834.818 960.825C834.394 965.721 827.053 967.726 822.253 968.521C820.594 970.058 818.417 970.914 816.155 970.92L776.384 971.596C774.348 971.655 772.351 971.027 770.715 969.813L727.189 970.543L728.156 976.707L725.693 976.75L723.114 970.607L716.016 970.726L713.595 970.809C712.003 972.05 710.045 972.731 708.026 972.744L691.75 973.017C689.699 973.065 687.692 972.417 686.056 971.178C679.813 970.198 671.729 967.773 669.283 961.744C667.619 955.115 666.547 948.351 666.078 941.532L666.038 938.717L665.988 938.715Z" fill="white"/>
</g>
<path d="M819.799 917.763C819.799 912.539 822.251 908.305 825.275 908.305C828.299 908.305 830.75 912.539 830.75 917.763L830.75 946.136C830.75 951.36 828.299 955.594 825.275 955.594C822.251 955.594 819.799 951.36 819.799 946.136L819.799 917.763Z" fill="#333333"/>
<path d="M819.799 906.38C819.799 903.356 822.251 900.904 825.275 900.904C828.299 900.904 830.75 903.356 830.75 906.38L830.75 917.331C830.75 920.355 828.299 922.806 825.275 922.806C822.251 922.806 819.799 920.355 819.799 917.331L819.799 906.38Z" fill="#333333"/>
<path d="M666.484 925.538C666.484 924.026 667.709 922.8 669.221 922.8C670.733 922.8 671.959 924.026 671.959 925.538L671.959 947.439C671.959 948.951 670.733 950.177 669.221 950.177C667.709 950.177 666.484 948.951 666.484 947.439L666.484 925.538Z" fill="#333333"/>
<path d="M819.799 944.707C819.799 941.683 822.251 939.231 825.275 939.231C828.299 939.231 830.75 941.683 830.75 944.707L830.75 955.658C830.75 958.682 828.299 961.133 825.275 961.133C822.251 961.133 819.799 958.682 819.799 955.658L819.799 944.707Z" fill="#333333"/>
<path d="M708.577 936.799L708.621 936.799C708.893 944.436 710.515 951.964 713.412 959.035C714.008 960.709 714.95 962.239 716.177 963.524C717.403 964.81 718.886 965.823 720.53 966.498L720.618 966.498C720.984 966.609 721.36 966.688 721.74 966.734C722.549 966.854 723.374 966.793 724.155 966.553L748.619 956.237C745.109 954.014 743.237 938.524 742.64 932.66C742.64 926.774 742.875 911.18 746.133 908.568L720.749 900.996C719.946 900.844 719.119 900.874 718.329 901.083C717.955 901.169 717.589 901.286 717.234 901.434L717.146 901.45C715.581 902.305 714.212 903.476 713.125 904.891C712.039 906.305 711.26 907.931 710.839 909.663C708.7 917.004 707.873 924.665 708.397 932.293L708.353 932.293C708.391 933.054 708.429 933.799 708.473 934.533C708.517 935.266 708.544 936.011 708.588 936.772L708.577 936.799Z" fill="#333333"/>
<path d="M783.136 908.3L784.741 939.044L785.688 957.633L785.748 958.8C790.802 964.823 802.224 964.511 809.758 963.509L806.494 900.552C798.9 900.404 787.511 901.34 783.114 907.889L783.136 908.3Z" fill="#333333"/>
<path d="M785.903 895.426L732.189 895.426C732.189 895.426 755.356 906.377 761.642 906.377C767.928 906.377 792.217 895.426 785.903 895.426Z" fill="#333333"/>
<path d="M785.877 972.08L732.163 972.08C732.163 972.08 756.118 961.129 762.404 961.129C768.69 961.129 792.191 972.08 785.877 972.08Z" fill="#333333"/>
</g>
<rect x="650.72" y="611" width="200" height="200" rx="11" fill="#5B67EC" fill-opacity="0.2" stroke="#5B67EC" stroke-width="8"/>
<g opacity="0.5">
<g filter="url(#filter10_d_4256_13934)">
<path d="M665.99 715.144L665.837 704.791L665.822 703.889C666.102 697.053 666.988 690.256 668.468 683.576C670.635 677.779 677.965 675.049 684.02 673.775C684.85 672.838 685.87 672.089 687.012 671.578C688.155 671.067 689.393 670.807 690.645 670.814L706.921 670.541C708.957 670.482 710.953 671.11 712.589 672.324L714.97 672.283L722.206 672.159L724.857 665.364L727.32 665.321L726.434 672.095L769.681 671.371C771.278 670.1 773.255 669.402 775.295 669.387L815.066 668.728C817.321 668.655 819.52 669.436 821.225 670.914C826.053 671.549 833.42 673.304 834.002 678.195L834.411 707.719L834.82 737.254C834.396 742.15 827.055 744.155 822.255 744.95C820.596 746.487 818.419 747.343 816.157 747.348L776.386 748.025C774.35 748.084 772.353 747.456 770.717 746.242L727.191 746.972L728.158 753.136L725.695 753.179L723.116 747.036L716.018 747.154L713.597 747.237C712.005 748.479 710.047 749.16 708.028 749.173L691.752 749.446C689.701 749.494 687.694 748.845 686.058 747.607C679.815 746.626 671.731 744.201 669.285 738.173C667.621 731.544 666.549 724.78 666.08 717.961L666.04 715.146L665.99 715.144Z" fill="#5B67EC"/>
</g>
<g filter="url(#filter11_d_4256_13934)">
<path d="M665.99 715.144L665.837 704.791L665.822 703.889C666.102 697.053 666.988 690.256 668.468 683.576C670.635 677.779 677.965 675.049 684.02 673.775C684.85 672.838 685.87 672.089 687.012 671.578C688.155 671.067 689.393 670.807 690.645 670.814L706.921 670.541C708.957 670.482 710.953 671.11 712.589 672.324L714.97 672.283L722.206 672.159L724.857 665.364L727.32 665.321L726.434 672.095L769.681 671.371C771.278 670.1 773.255 669.402 775.295 669.387L815.066 668.728C817.321 668.655 819.52 669.436 821.225 670.914C826.053 671.549 833.42 673.304 834.002 678.195L834.411 707.719L834.82 737.254C834.396 742.15 827.055 744.155 822.255 744.95C820.596 746.487 818.419 747.343 816.157 747.348L776.386 748.025C774.35 748.084 772.353 747.456 770.717 746.242L727.191 746.972L728.158 753.136L725.695 753.179L723.116 747.036L716.018 747.154L713.597 747.237C712.005 748.479 710.047 749.16 708.028 749.173L691.752 749.446C689.701 749.494 687.694 748.845 686.058 747.607C679.815 746.626 671.731 744.201 669.285 738.173C667.621 731.544 666.549 724.78 666.08 717.961L666.04 715.146L665.99 715.144Z" fill="#5B67EC"/>
</g>
<path d="M819.801 694.192C819.801 688.969 822.253 684.734 825.277 684.734C828.301 684.734 830.752 688.969 830.752 694.192L830.752 722.566C830.752 727.789 828.301 732.024 825.277 732.024C822.253 732.024 819.801 727.789 819.801 722.566L819.801 694.192Z" fill="#333333"/>
<path d="M819.801 682.808C819.801 679.784 822.253 677.333 825.277 677.333C828.301 677.333 830.752 679.784 830.752 682.808L830.752 693.759C830.752 696.783 828.301 699.235 825.277 699.235C822.253 699.235 819.801 696.783 819.801 693.759L819.801 682.808Z" fill="#333333"/>
<path d="M666.485 701.966C666.485 700.454 667.71 699.229 669.222 699.229C670.734 699.229 671.96 700.454 671.96 701.966L671.96 723.868C671.96 725.38 670.734 726.606 669.222 726.606C667.71 726.606 666.485 725.38 666.485 723.868L666.485 701.966Z" fill="#333333"/>
<path d="M819.801 721.135C819.801 718.111 822.253 715.659 825.277 715.659C828.301 715.659 830.752 718.111 830.752 721.135L830.752 732.085C830.752 735.109 828.301 737.561 825.277 737.561C822.253 737.561 819.801 735.109 819.801 732.085L819.801 721.135Z" fill="#333333"/>
<path d="M708.578 713.229L708.622 713.229C708.894 720.866 710.516 728.394 713.413 735.465C714.009 737.139 714.951 738.668 716.178 739.954C717.404 741.24 718.887 742.253 720.531 742.928L720.619 742.928C720.985 743.039 721.361 743.118 721.741 743.163C722.55 743.284 723.375 743.222 724.156 742.983L748.62 732.667C745.11 730.444 743.238 714.954 742.641 709.09C742.641 703.204 742.876 687.61 746.134 684.998L720.75 677.425C719.947 677.274 719.12 677.303 718.33 677.513C717.956 677.599 717.59 677.716 717.235 677.863L717.147 677.88C715.582 678.734 714.213 679.906 713.126 681.32C712.04 682.735 711.261 684.36 710.84 686.093C708.701 693.434 707.874 701.095 708.398 708.723L708.354 708.723C708.392 709.484 708.43 710.229 708.474 710.962C708.518 711.696 708.545 712.441 708.589 713.202L708.578 713.229Z" fill="#333333"/>
<path d="M783.138 684.727L784.743 715.472L785.69 734.061L785.75 735.227C790.804 741.25 802.226 740.938 809.76 739.936L806.496 676.98C798.902 676.832 787.513 677.768 783.116 684.317L783.138 684.727Z" fill="#333333"/>
<path d="M785.905 671.854L732.191 671.854C732.191 671.854 755.358 682.804 761.644 682.804C767.929 682.804 792.219 671.854 785.905 671.854Z" fill="#333333"/>
<path d="M785.88 748.508L732.166 748.508C732.166 748.508 756.121 737.558 762.407 737.558C768.693 737.558 792.194 748.508 785.88 748.508Z" fill="#333333"/>
</g>
<circle cx="750.718" cy="711" r="34.7143" fill="#5B67EC" stroke="#5B67EC" stroke-width="2"/>
<path d="M734.647 709.215L747.147 719.929L766.79 700.286" stroke="white" stroke-width="8" stroke-linecap="round" stroke-linejoin="round"/>
<g opacity="0.5">
<g filter="url(#filter12_d_4256_13934)">
<path d="M143.876 229.205L143.802 224.505L143.795 224.096C143.93 220.992 144.357 217.906 145.07 214.873C146.114 212.241 149.648 211.001 152.566 210.423C152.966 209.997 153.458 209.657 154.008 209.426C154.559 209.194 155.156 209.075 155.759 209.078L163.604 208.954C164.585 208.928 165.548 209.213 166.336 209.764L167.484 209.745L170.971 209.689L172.249 206.604L173.436 206.584L173.009 209.66L193.854 209.331C194.623 208.754 195.576 208.437 196.56 208.431L215.729 208.131C216.816 208.098 217.876 208.453 218.697 209.124C221.024 209.412 224.575 210.209 224.856 212.43L225.053 225.834L225.25 239.244C225.046 241.467 221.508 242.377 219.194 242.738C218.394 243.436 217.345 243.825 216.255 243.827L197.085 244.134C196.104 244.161 195.141 243.876 194.353 243.325L173.374 243.656L173.84 246.455L172.653 246.474L171.41 243.685L167.989 243.739L166.822 243.777C166.054 244.341 165.111 244.65 164.137 244.656L156.293 244.78C155.304 244.801 154.337 244.507 153.548 243.945C150.539 243.499 146.643 242.398 145.464 239.661C144.662 236.651 144.145 233.58 143.919 230.484L143.9 229.206L143.876 229.205Z" fill="#5B67EC"/>
</g>
<g filter="url(#filter13_d_4256_13934)">
<path d="M148.876 229.205L148.802 224.505L148.795 224.096C148.93 220.992 149.357 217.906 150.07 214.873C151.114 212.241 154.648 211.001 157.566 210.423C157.966 209.997 158.458 209.657 159.008 209.426C159.559 209.194 160.156 209.075 160.759 209.078L168.604 208.954C169.585 208.928 170.548 209.213 171.336 209.764L172.484 209.745L175.971 209.689L177.249 206.604L178.436 206.584L178.009 209.66L198.854 209.331C199.623 208.754 200.576 208.437 201.56 208.431L220.729 208.131C221.816 208.098 222.876 208.453 223.697 209.124C226.024 209.412 229.575 210.209 229.856 212.43L230.053 225.834L230.25 239.244C230.046 241.467 226.508 242.377 224.194 242.738C223.394 243.436 222.345 243.825 221.255 243.827L202.085 244.134C201.104 244.161 200.141 243.876 199.353 243.325L178.374 243.656L178.84 246.455L177.653 246.474L176.41 243.685L172.989 243.739L171.822 243.777C171.054 244.341 170.111 244.65 169.137 244.656L161.293 244.78C160.304 244.801 159.337 244.507 158.548 243.945C155.539 243.499 151.643 242.398 150.464 239.661C149.662 236.651 149.145 233.58 148.919 230.484L148.9 229.206L148.876 229.205Z" fill="#5B67EC"/>
</g>
<path d="M223.017 219.696C223.017 217.324 224.198 215.401 225.656 215.401C227.113 215.401 228.295 217.324 228.295 219.696L228.295 232.578C228.295 234.95 227.113 236.872 225.656 236.872C224.198 236.872 223.017 234.95 223.017 232.578L223.017 219.696Z" fill="#333333"/>
<path d="M223.017 214.526C223.017 213.153 224.198 212.04 225.656 212.04C227.113 212.04 228.295 213.153 228.295 214.526L228.295 219.498C228.295 220.871 227.113 221.984 225.656 221.984C224.198 221.984 223.017 220.871 223.017 219.498L223.017 214.526Z" fill="#333333"/>
<path d="M149.119 223.222C149.119 222.535 149.709 221.979 150.438 221.979C151.167 221.979 151.758 222.535 151.758 223.222L151.758 233.165C151.758 233.852 151.167 234.408 150.438 234.408C149.709 234.408 149.119 233.852 149.119 233.165L149.119 223.222Z" fill="#333333"/>
<path d="M223.017 231.937C223.017 230.564 224.198 229.451 225.656 229.451C227.113 229.451 228.295 230.564 228.295 231.937L228.295 236.909C228.295 238.282 227.113 239.395 225.656 239.395C224.198 239.395 223.017 238.282 223.017 236.909L223.017 231.937Z" fill="#333333"/>
<path d="M169.411 228.339L169.432 228.339C169.563 231.806 170.345 235.224 171.741 238.435C172.029 239.195 172.483 239.889 173.074 240.473C173.665 241.057 174.38 241.517 175.172 241.823L175.215 241.823C175.391 241.874 175.572 241.909 175.756 241.93C176.145 241.985 176.543 241.957 176.919 241.848L188.711 237.164C187.019 236.155 186.117 229.122 185.829 226.46C185.829 223.787 185.943 216.707 187.513 215.521L175.278 212.083C174.891 212.014 174.492 212.028 174.111 212.123C173.931 212.162 173.754 212.215 173.584 212.282L173.541 212.29C172.787 212.678 172.127 213.21 171.603 213.852C171.08 214.494 170.704 215.232 170.501 216.019C169.47 219.352 169.072 222.83 169.324 226.293L169.303 226.293C169.321 226.639 169.34 226.977 169.361 227.31C169.382 227.643 169.395 227.981 169.416 228.327L169.411 228.339Z" fill="#333333"/>
<path d="M205.345 215.402L206.119 229.361L206.575 237.801L206.604 238.33C209.04 241.065 214.545 240.923 218.177 240.468L216.604 211.884C212.943 211.817 207.454 212.242 205.335 215.215L205.345 215.402Z" fill="#333333"/>
<path d="M206.679 209.558L180.79 209.558C180.79 209.558 191.956 214.53 194.985 214.53C198.015 214.53 209.722 209.558 206.679 209.558Z" fill="#333333"/>
<path d="M206.668 244.364L180.779 244.364C180.779 244.364 192.325 239.392 195.355 239.392C198.384 239.392 209.711 244.364 206.668 244.364Z" fill="#333333"/>
</g>
<path d="M207.365 227.33C207.365 235.678 200.163 242.546 191.151 242.546C182.14 242.546 174.938 235.678 174.938 227.33C174.938 218.983 182.14 212.115 191.151 212.115C200.163 212.115 207.365 218.983 207.365 227.33Z" fill="#5B67EC" stroke="#5B67EC" stroke-width="2"/>
<path d="M182.399 226.522L188.424 231.386L197.892 222.468" stroke="white" stroke-width="2" stroke-linecap="round" stroke-linejoin="round"/>
<g opacity="0.5">
<g filter="url(#filter14_d_4256_13934)">
<path d="M455.308 230.069L455.373 225.535L455.379 225.14C455.261 222.146 454.889 219.17 454.268 216.245C453.358 213.706 450.28 212.51 447.738 211.952C447.389 211.542 446.961 211.214 446.481 210.99C446.001 210.767 445.481 210.652 444.956 210.655L438.121 210.536C437.266 210.51 436.428 210.785 435.741 211.317L434.741 211.299L431.703 211.244L430.59 208.269L429.555 208.25L429.927 211.217L411.768 210.899C411.097 210.343 410.267 210.037 409.41 210.031L392.71 209.742C391.763 209.71 390.84 210.052 390.124 210.699C388.097 210.978 385.003 211.746 384.758 213.888L384.587 226.817L384.415 239.751C384.593 241.896 387.676 242.774 389.691 243.122C390.388 243.795 391.302 244.17 392.252 244.172L408.952 244.468C409.807 244.494 410.646 244.219 411.333 243.687L429.61 244.007L429.204 246.707L430.238 246.726L431.321 244.035L434.301 244.087L435.318 244.124C435.987 244.667 436.809 244.965 437.656 244.971L444.491 245.091C445.352 245.112 446.195 244.828 446.882 244.285C449.503 243.856 452.898 242.794 453.925 240.154C454.623 237.251 455.074 234.289 455.27 231.302L455.288 230.07L455.308 230.069Z" fill="white"/>
</g>
<g filter="url(#filter15_d_4256_13934)">
<path d="M455.308 230.069L455.373 225.535L455.379 225.14C455.261 222.146 454.889 219.17 454.268 216.245C453.358 213.706 450.28 212.51 447.738 211.952C447.389 211.542 446.961 211.214 446.481 210.99C446.001 210.767 445.481 210.652 444.956 210.655L438.121 210.536C437.266 210.51 436.428 210.785 435.741 211.317L434.741 211.299L431.703 211.244L430.59 208.269L429.555 208.25L429.927 211.217L411.768 210.899C411.097 210.343 410.267 210.037 409.41 210.031L392.71 209.742C391.763 209.71 390.84 210.052 390.124 210.699C388.097 210.978 385.003 211.746 384.758 213.888L384.587 226.817L384.415 239.751C384.593 241.896 387.676 242.774 389.691 243.122C390.388 243.795 391.302 244.17 392.252 244.172L408.952 244.468C409.807 244.494 410.646 244.219 411.333 243.687L429.61 244.007L429.204 246.707L430.238 246.726L431.321 244.035L434.301 244.087L435.318 244.124C435.987 244.667 436.809 244.965 437.656 244.971L444.491 245.091C445.352 245.112 446.195 244.828 446.882 244.285C449.503 243.856 452.898 242.794 453.925 240.154C454.623 237.251 455.074 234.289 455.27 231.302L455.288 230.07L455.308 230.069Z" fill="white"/>
</g>
<path d="M390.721 220.895C390.721 218.607 389.692 216.753 388.422 216.753C387.152 216.753 386.123 218.607 386.123 220.895L386.123 233.32C386.123 235.608 387.152 237.462 388.422 237.462C389.692 237.462 390.721 235.608 390.721 233.32L390.721 220.895Z" fill="#333333"/>
<path d="M390.721 215.909C390.721 214.584 389.692 213.511 388.422 213.511C387.152 213.511 386.123 214.584 386.123 215.909L386.123 220.704C386.123 222.029 387.152 223.102 388.422 223.102C389.692 223.102 390.721 222.029 390.721 220.704L390.721 215.909Z" fill="#333333"/>
<path d="M455.099 224.303C455.099 223.641 454.584 223.104 453.949 223.104C453.314 223.104 452.8 223.641 452.8 224.303L452.8 233.895C452.8 234.557 453.314 235.094 453.949 235.094C454.584 235.094 455.099 234.557 455.099 233.895L455.099 224.303Z" fill="#333333"/>
<path d="M390.721 232.694C390.721 231.369 389.692 230.296 388.422 230.296C387.152 230.296 386.123 231.369 386.123 232.694L386.123 237.489C386.123 238.814 387.152 239.887 388.422 239.887C389.692 239.887 390.721 238.814 390.721 237.489L390.721 232.694Z" fill="#333333"/>
<path d="M437.428 229.232L437.41 229.232C437.296 232.576 436.615 235.873 435.398 238.97C435.148 239.703 434.752 240.372 434.237 240.936C433.722 241.499 433.099 241.942 432.409 242.238L432.372 242.238C432.218 242.286 432.061 242.321 431.901 242.341C431.562 242.394 431.215 242.367 430.887 242.262L420.614 237.744C422.088 236.771 422.874 229.987 423.125 227.419C423.125 224.841 423.026 218.012 421.658 216.869L432.317 213.552C432.654 213.486 433.002 213.499 433.333 213.591C433.49 213.628 433.644 213.68 433.793 213.744L433.83 213.751C434.487 214.126 435.062 214.639 435.518 215.258C435.975 215.878 436.302 216.589 436.479 217.348C437.377 220.563 437.724 223.918 437.504 227.259L437.522 227.259C437.506 227.592 437.49 227.918 437.472 228.239C437.453 228.561 437.442 228.887 437.424 229.22L437.428 229.232Z" fill="#333333"/>
<path d="M406.12 216.753L405.446 230.216L405.049 238.357L405.023 238.868C402.901 241.505 398.105 241.369 394.941 240.93L396.312 213.36C399.501 213.295 404.283 213.705 406.129 216.573L406.12 216.753Z" fill="#333333"/>
<path d="M404.953 211.114L427.508 211.114C427.508 211.114 417.781 215.91 415.141 215.91C412.502 215.91 402.302 211.114 404.953 211.114Z" fill="#333333"/>
<path d="M404.966 244.679L427.521 244.679C427.521 244.679 417.462 239.884 414.822 239.884C412.183 239.884 402.315 244.679 404.966 244.679Z" fill="#333333"/>
</g>
<path d="M648.401 227.101C648.401 232.419 643.422 236.951 636.99 236.951C630.557 236.951 625.579 232.419 625.579 227.101C625.579 221.783 630.557 217.251 636.99 217.251C643.422 217.251 648.401 221.783 648.401 227.101Z" fill="#878787" stroke="#878787" stroke-width="2"/>
<path d="M632.023 222.761L641.952 231.441M641.952 222.761L632.023 231.441" stroke="white" stroke-width="1.5" stroke-linecap="round" stroke-linejoin="round"/>
<rect x="141.26" y="182.68" width="94.8981" height="89.3054" rx="5.25" fill="#5B67EC" fill-opacity="0.2" stroke="#5B67EC" stroke-width="1.5"/>
<path d="M271.58 219.474H276.98V221.322H271.58V219.474ZM265.772 215.778H267.596V218.37C267.596 222.642 265.316 226.242 261.572 227.73L260.396 225.93C263.732 224.73 265.772 221.658 265.772 218.37V215.778ZM266.204 215.778H268.028V218.442C268.028 221.418 269.996 224.274 273.236 225.45L272.012 227.202C268.436 225.81 266.204 222.402 266.204 218.442V215.778ZM276.164 214.458H278.42V230.73H276.164V214.458ZM264.308 233.97H278.924V235.818H264.308V233.97ZM264.308 228.954H266.564V234.882H264.308V228.954ZM282.786 224.778H284.202C287.562 224.778 289.602 224.682 292.002 224.226L292.218 226.05C289.722 226.53 287.634 226.626 284.202 226.626H282.786V224.778ZM282.786 215.994H291.234V217.842H284.946V225.762H282.786V215.994ZM284.274 220.338H290.994V222.09H284.274V220.338ZM298.17 214.458H300.306V227.706H298.17V214.458ZM294.858 220.05H298.818V221.898H294.858V220.05ZM293.394 214.866H295.506V227.562H293.394V214.866ZM285.594 228.786H300.306V236.274H298.074V230.634H285.594V228.786ZM308.632 217.65H310.432V220.938C310.432 225.57 307.816 230.322 304.288 232.098L302.968 230.298C306.208 228.738 308.632 224.61 308.632 220.938V217.65ZM309.064 217.65H310.864V220.938C310.864 224.37 313.168 228.234 316.408 229.77L315.136 231.546C311.56 229.818 309.064 225.33 309.064 220.938V217.65ZM303.76 216.642H315.568V218.514H303.76V216.642ZM317.944 214.458H320.2V236.274H317.944V214.458ZM319.696 223.146H323.68V225.018H319.696V223.146ZM340.526 214.434H342.782V236.298H340.526V214.434ZM326.078 229.194H327.926C331.622 229.194 334.838 229.074 338.606 228.45L338.846 230.274C334.982 230.922 331.718 231.066 327.926 231.066H326.078V229.194ZM326.03 216.426H336.158V224.37H328.358V229.914H326.078V222.546H333.878V218.274H326.03V216.426Z" fill="black"/>
<rect x="372.239" y="184.466" width="92.9799" height="87.5855" rx="6" fill="#5B67EC" fill-opacity="0.2"/>
<path d="M498.528 216.618H503.928V218.466H498.528V216.618ZM492.72 212.922H494.544V215.514C494.544 219.786 492.264 223.386 488.52 224.874L487.344 223.074C490.68 221.874 492.72 218.802 492.72 215.514V212.922ZM493.152 212.922H494.976V215.586C494.976 218.562 496.944 221.418 500.184 222.594L498.96 224.346C495.384 222.954 493.152 219.546 493.152 215.586V212.922ZM503.112 211.602H505.368V227.874H503.112V211.602ZM491.256 231.114H505.872V232.962H491.256V231.114ZM491.256 226.098H493.512V232.026H491.256V226.098ZM509.734 221.922H511.15C514.51 221.922 516.55 221.826 518.95 221.37L519.166 223.194C516.67 223.674 514.582 223.77 511.15 223.77H509.734V221.922ZM509.734 213.138H518.182V214.986H511.894V222.906H509.734V213.138ZM511.222 217.482H517.942V219.234H511.222V217.482ZM525.118 211.602H527.254V224.85H525.118V211.602ZM521.806 217.194H525.766V219.042H521.806V217.194ZM520.342 212.01H522.454V224.706H520.342V212.01ZM512.542 225.93H527.254V233.418H525.022V227.778H512.542V225.93ZM544.893 211.578H547.149V233.394H544.893V211.578ZM546.549 220.314H550.533V222.186H546.549V220.314ZM539.277 213.906H541.485C541.485 220.17 538.725 225.786 531.621 229.362L530.373 227.61C536.325 224.586 539.277 220.074 539.277 214.266V213.906ZM531.405 213.906H540.453V215.754H531.405V213.906ZM554.419 217.506H569.275V219.33H554.419V217.506ZM554.419 212.01H556.675V218.322H554.419V212.01ZM551.803 221.706H571.531V223.53H551.803V221.706ZM561.619 225.354C566.299 225.354 569.107 226.794 569.107 229.362C569.107 231.882 566.299 233.346 561.619 233.346C556.939 233.346 554.131 231.882 554.131 229.362C554.131 226.794 556.939 225.354 561.619 225.354ZM561.619 227.106C558.307 227.106 556.411 227.898 556.411 229.362C556.411 230.778 558.307 231.57 561.619 231.57C564.931 231.57 566.851 230.778 566.851 229.362C566.851 227.898 564.931 227.106 561.619 227.106Z" fill="black"/>
<rect x="592.079" y="184.098" width="91.0175" height="85.737" rx="6" fill="#878787" fill-opacity="0.3"/>
<path d="M717.049 216.531H722.449V218.379H717.049V216.531ZM711.241 212.835H713.065V215.427C713.065 219.699 710.785 223.299 707.041 224.787L705.865 222.987C709.201 221.787 711.241 218.715 711.241 215.427V212.835ZM711.673 212.835H713.497V215.499C713.497 218.475 715.465 221.331 718.705 222.507L717.481 224.259C713.905 222.867 711.673 219.459 711.673 215.499V212.835ZM721.633 211.515H723.889V227.787H721.633V211.515ZM709.777 231.027H724.393V232.875H709.777V231.027ZM709.777 226.011H712.033V231.939H709.777V226.011ZM728.255 221.835H729.671C733.031 221.835 735.071 221.739 737.471 221.283L737.687 223.107C735.191 223.587 733.103 223.683 729.671 223.683H728.255V221.835ZM728.255 213.051H736.703V214.899H730.415V222.819H728.255V213.051ZM729.743 217.395H736.463V219.147H729.743V217.395ZM743.639 211.515H745.775V224.763H743.639V211.515ZM740.327 217.107H744.287V218.955H740.327V217.107ZM738.863 211.923H740.975V224.619H738.863V211.923ZM731.063 225.843H745.775V233.331H743.543V227.691H731.063V225.843ZM757.558 221.979H759.79V225.267H757.558V221.979ZM751.414 211.827H753.646V213.747H763.75V211.827H765.982V219.051H751.414V211.827ZM753.646 215.451V217.347H763.75V215.451H753.646ZM748.822 220.707H768.55V222.507H748.822V220.707ZM751.174 224.451H766.054V229.467H753.454V232.011H751.222V227.859H763.822V226.131H751.174V224.451ZM751.222 231.363H766.678V233.115H751.222V231.363ZM784.892 211.491H787.148V233.307H784.892V211.491ZM786.548 220.227H790.532V222.099H786.548V220.227ZM779.276 213.819H781.484C781.484 220.083 778.724 225.699 771.62 229.275L770.372 227.523C776.324 224.499 779.276 219.987 779.276 214.179V213.819ZM771.404 213.819H780.452V215.667H771.404V213.819Z" fill="black"/>
<defs>
<filter id="filter0_d_4256_13934" x="73.6009" y="446.886" width="177.021" height="95.8812" filterUnits="userSpaceOnUse" color-interpolation-filters="sRGB">
<feFlood flood-opacity="0" result="BackgroundImageFix"/>
<feColorMatrix in="SourceAlpha" type="matrix" values="0 0 0 0 0 0 0 0 0 0 0 0 0 0 0 0 0 0 127 0" result="hardAlpha"/>
<feOffset dy="2.00569"/>
<feGaussianBlur stdDeviation="2.00569"/>
<feColorMatrix type="matrix" values="0 0 0 0 0 0 0 0 0 0 0 0 0 0 0 0 0 0 0.2 0"/>
<feBlend mode="normal" in2="BackgroundImageFix" result="effect1_dropShadow_4256_13934"/>
<feBlend mode="normal" in="SourceGraphic" in2="effect1_dropShadow_4256_13934" result="shape"/>
</filter>
<filter id="filter1_d_4256_13934" x="73.6009" y="446.886" width="177.021" height="95.8812" filterUnits="userSpaceOnUse" color-interpolation-filters="sRGB">
<feFlood flood-opacity="0" result="BackgroundImageFix"/>
<feColorMatrix in="SourceAlpha" type="matrix" values="0 0 0 0 0 0 0 0 0 0 0 0 0 0 0 0 0 0 127 0" result="hardAlpha"/>
<feOffset dy="2.00569"/>
<feGaussianBlur stdDeviation="2.00569"/>
<feColorMatrix type="matrix" values="0 0 0 0 0 0 0 0 0 0 0 0 0 0 0 0 0 0 0.2 0"/>
<feBlend mode="normal" in2="BackgroundImageFix" result="effect1_dropShadow_4256_13934"/>
<feBlend mode="normal" in="SourceGraphic" in2="effect1_dropShadow_4256_13934" result="shape"/>
</filter>
<filter id="filter2_d_4256_13934" x="73.6009" y="1106.89" width="177.021" height="95.8812" filterUnits="userSpaceOnUse" color-interpolation-filters="sRGB">
<feFlood flood-opacity="0" result="BackgroundImageFix"/>
<feColorMatrix in="SourceAlpha" type="matrix" values="0 0 0 0 0 0 0 0 0 0 0 0 0 0 0 0 0 0 127 0" result="hardAlpha"/>
<feOffset dy="2.00569"/>
<feGaussianBlur stdDeviation="2.00569"/>
<feColorMatrix type="matrix" values="0 0 0 0 0 0 0 0 0 0 0 0 0 0 0 0 0 0 0.2 0"/>
<feBlend mode="normal" in2="BackgroundImageFix" result="effect1_dropShadow_4256_13934"/>
<feBlend mode="normal" in="SourceGraphic" in2="effect1_dropShadow_4256_13934" result="shape"/>
</filter>
<filter id="filter3_d_4256_13934" x="73.6009" y="1106.89" width="177.021" height="95.8812" filterUnits="userSpaceOnUse" color-interpolation-filters="sRGB">
<feFlood flood-opacity="0" result="BackgroundImageFix"/>
<feColorMatrix in="SourceAlpha" type="matrix" values="0 0 0 0 0 0 0 0 0 0 0 0 0 0 0 0 0 0 127 0" result="hardAlpha"/>
<feOffset dy="2.00569"/>
<feGaussianBlur stdDeviation="2.00569"/>
<feColorMatrix type="matrix" values="0 0 0 0 0 0 0 0 0 0 0 0 0 0 0 0 0 0 0.2 0"/>
<feBlend mode="normal" in2="BackgroundImageFix" result="effect1_dropShadow_4256_13934"/>
<feBlend mode="normal" in="SourceGraphic" in2="effect1_dropShadow_4256_13934" result="shape"/>
</filter>
<filter id="filter4_d_4256_13934" x="73.6009" y="886.886" width="177.021" height="95.8812" filterUnits="userSpaceOnUse" color-interpolation-filters="sRGB">
<feFlood flood-opacity="0" result="BackgroundImageFix"/>
<feColorMatrix in="SourceAlpha" type="matrix" values="0 0 0 0 0 0 0 0 0 0 0 0 0 0 0 0 0 0 127 0" result="hardAlpha"/>
<feOffset dy="2.00569"/>
<feGaussianBlur stdDeviation="2.00569"/>
<feColorMatrix type="matrix" values="0 0 0 0 0 0 0 0 0 0 0 0 0 0 0 0 0 0 0.2 0"/>
<feBlend mode="normal" in2="BackgroundImageFix" result="effect1_dropShadow_4256_13934"/>
<feBlend mode="normal" in="SourceGraphic" in2="effect1_dropShadow_4256_13934" result="shape"/>
</filter>
<filter id="filter5_d_4256_13934" x="73.6009" y="886.886" width="177.021" height="95.8812" filterUnits="userSpaceOnUse" color-interpolation-filters="sRGB">
<feFlood flood-opacity="0" result="BackgroundImageFix"/>
<feColorMatrix in="SourceAlpha" type="matrix" values="0 0 0 0 0 0 0 0 0 0 0 0 0 0 0 0 0 0 127 0" result="hardAlpha"/>
<feOffset dy="2.00569"/>
<feGaussianBlur stdDeviation="2.00569"/>
<feColorMatrix type="matrix" values="0 0 0 0 0 0 0 0 0 0 0 0 0 0 0 0 0 0 0.2 0"/>
<feBlend mode="normal" in2="BackgroundImageFix" result="effect1_dropShadow_4256_13934"/>
<feBlend mode="normal" in="SourceGraphic" in2="effect1_dropShadow_4256_13934" result="shape"/>
</filter>
<filter id="filter6_d_4256_13934" x="661.809" y="446.886" width="177.021" height="95.8812" filterUnits="userSpaceOnUse" color-interpolation-filters="sRGB">
<feFlood flood-opacity="0" result="BackgroundImageFix"/>
<feColorMatrix in="SourceAlpha" type="matrix" values="0 0 0 0 0 0 0 0 0 0 0 0 0 0 0 0 0 0 127 0" result="hardAlpha"/>
<feOffset dy="2.00569"/>
<feGaussianBlur stdDeviation="2.00569"/>
<feColorMatrix type="matrix" values="0 0 0 0 0 0 0 0 0 0 0 0 0 0 0 0 0 0 0.2 0"/>
<feBlend mode="normal" in2="BackgroundImageFix" result="effect1_dropShadow_4256_13934"/>
<feBlend mode="normal" in="SourceGraphic" in2="effect1_dropShadow_4256_13934" result="shape"/>
</filter>
<filter id="filter7_d_4256_13934" x="661.809" y="446.886" width="177.021" height="95.8812" filterUnits="userSpaceOnUse" color-interpolation-filters="sRGB">
<feFlood flood-opacity="0" result="BackgroundImageFix"/>
<feColorMatrix in="SourceAlpha" type="matrix" values="0 0 0 0 0 0 0 0 0 0 0 0 0 0 0 0 0 0 127 0" result="hardAlpha"/>
<feOffset dy="2.00569"/>
<feGaussianBlur stdDeviation="2.00569"/>
<feColorMatrix type="matrix" values="0 0 0 0 0 0 0 0 0 0 0 0 0 0 0 0 0 0 0.2 0"/>
<feBlend mode="normal" in2="BackgroundImageFix" result="effect1_dropShadow_4256_13934"/>
<feBlend mode="normal" in="SourceGraphic" in2="effect1_dropShadow_4256_13934" result="shape"/>
</filter>
<filter id="filter8_d_4256_13934" x="661.809" y="886.886" width="177.021" height="95.8812" filterUnits="userSpaceOnUse" color-interpolation-filters="sRGB">
<feFlood flood-opacity="0" result="BackgroundImageFix"/>
<feColorMatrix in="SourceAlpha" type="matrix" values="0 0 0 0 0 0 0 0 0 0 0 0 0 0 0 0 0 0 127 0" result="hardAlpha"/>
<feOffset dy="2.00569"/>
<feGaussianBlur stdDeviation="2.00569"/>
<feColorMatrix type="matrix" values="0 0 0 0 0 0 0 0 0 0 0 0 0 0 0 0 0 0 0.2 0"/>
<feBlend mode="normal" in2="BackgroundImageFix" result="effect1_dropShadow_4256_13934"/>
<feBlend mode="normal" in="SourceGraphic" in2="effect1_dropShadow_4256_13934" result="shape"/>
</filter>
<filter id="filter9_d_4256_13934" x="661.809" y="886.886" width="177.021" height="95.8812" filterUnits="userSpaceOnUse" color-interpolation-filters="sRGB">
<feFlood flood-opacity="0" result="BackgroundImageFix"/>
<feColorMatrix in="SourceAlpha" type="matrix" values="0 0 0 0 0 0 0 0 0 0 0 0 0 0 0 0 0 0 127 0" result="hardAlpha"/>
<feOffset dy="2.00569"/>
<feGaussianBlur stdDeviation="2.00569"/>
<feColorMatrix type="matrix" values="0 0 0 0 0 0 0 0 0 0 0 0 0 0 0 0 0 0 0.2 0"/>
<feBlend mode="normal" in2="BackgroundImageFix" result="effect1_dropShadow_4256_13934"/>
<feBlend mode="normal" in="SourceGraphic" in2="effect1_dropShadow_4256_13934" result="shape"/>
</filter>
<filter id="filter10_d_4256_13934" x="661.811" y="663.315" width="177.021" height="95.8812" filterUnits="userSpaceOnUse" color-interpolation-filters="sRGB">
<feFlood flood-opacity="0" result="BackgroundImageFix"/>
<feColorMatrix in="SourceAlpha" type="matrix" values="0 0 0 0 0 0 0 0 0 0 0 0 0 0 0 0 0 0 127 0" result="hardAlpha"/>
<feOffset dy="2.00569"/>
<feGaussianBlur stdDeviation="2.00569"/>
<feColorMatrix type="matrix" values="0 0 0 0 0 0 0 0 0 0 0 0 0 0 0 0 0 0 0.2 0"/>
<feBlend mode="normal" in2="BackgroundImageFix" result="effect1_dropShadow_4256_13934"/>
<feBlend mode="normal" in="SourceGraphic" in2="effect1_dropShadow_4256_13934" result="shape"/>
</filter>
<filter id="filter11_d_4256_13934" x="661.811" y="663.315" width="177.021" height="95.8812" filterUnits="userSpaceOnUse" color-interpolation-filters="sRGB">
<feFlood flood-opacity="0" result="BackgroundImageFix"/>
<feColorMatrix in="SourceAlpha" type="matrix" values="0 0 0 0 0 0 0 0 0 0 0 0 0 0 0 0 0 0 127 0" result="hardAlpha"/>
<feOffset dy="2.00569"/>
<feGaussianBlur stdDeviation="2.00569"/>
<feColorMatrix type="matrix" values="0 0 0 0 0 0 0 0 0 0 0 0 0 0 0 0 0 0 0.2 0"/>
<feBlend mode="normal" in2="BackgroundImageFix" result="effect1_dropShadow_4256_13934"/>
<feBlend mode="normal" in="SourceGraphic" in2="effect1_dropShadow_4256_13934" result="shape"/>
</filter>
<filter id="filter12_d_4256_13934" x="139.784" y="204.578" width="89.4778" height="47.9134" filterUnits="userSpaceOnUse" color-interpolation-filters="sRGB">
<feFlood flood-opacity="0" result="BackgroundImageFix"/>
<feColorMatrix in="SourceAlpha" type="matrix" values="0 0 0 0 0 0 0 0 0 0 0 0 0 0 0 0 0 0 127 0" result="hardAlpha"/>
<feOffset dy="2.00569"/>
<feGaussianBlur stdDeviation="2.00569"/>
<feColorMatrix type="matrix" values="0 0 0 0 0 0 0 0 0 0 0 0 0 0 0 0 0 0 0.2 0"/>
<feBlend mode="normal" in2="BackgroundImageFix" result="effect1_dropShadow_4256_13934"/>
<feBlend mode="normal" in="SourceGraphic" in2="effect1_dropShadow_4256_13934" result="shape"/>
</filter>
<filter id="filter13_d_4256_13934" x="144.784" y="204.578" width="89.4778" height="47.9134" filterUnits="userSpaceOnUse" color-interpolation-filters="sRGB">
<feFlood flood-opacity="0" result="BackgroundImageFix"/>
<feColorMatrix in="SourceAlpha" type="matrix" values="0 0 0 0 0 0 0 0 0 0 0 0 0 0 0 0 0 0 127 0" result="hardAlpha"/>
<feOffset dy="2.00569"/>
<feGaussianBlur stdDeviation="2.00569"/>
<feColorMatrix type="matrix" values="0 0 0 0 0 0 0 0 0 0 0 0 0 0 0 0 0 0 0.2 0"/>
<feBlend mode="normal" in2="BackgroundImageFix" result="effect1_dropShadow_4256_13934"/>
<feBlend mode="normal" in="SourceGraphic" in2="effect1_dropShadow_4256_13934" result="shape"/>
</filter>
<filter id="filter14_d_4256_13934" x="380.404" y="206.244" width="78.9866" height="46.4984" filterUnits="userSpaceOnUse" color-interpolation-filters="sRGB">
<feFlood flood-opacity="0" result="BackgroundImageFix"/>
<feColorMatrix in="SourceAlpha" type="matrix" values="0 0 0 0 0 0 0 0 0 0 0 0 0 0 0 0 0 0 127 0" result="hardAlpha"/>
<feOffset dy="2.00569"/>
<feGaussianBlur stdDeviation="2.00569"/>
<feColorMatrix type="matrix" values="0 0 0 0 0 0 0 0 0 0 0 0 0 0 0 0 0 0 0.2 0"/>
<feBlend mode="normal" in2="BackgroundImageFix" result="effect1_dropShadow_4256_13934"/>
<feBlend mode="normal" in="SourceGraphic" in2="effect1_dropShadow_4256_13934" result="shape"/>
</filter>
<filter id="filter15_d_4256_13934" x="380.404" y="206.244" width="78.9866" height="46.4984" filterUnits="userSpaceOnUse" color-interpolation-filters="sRGB">
<feFlood flood-opacity="0" result="BackgroundImageFix"/>
<feColorMatrix in="SourceAlpha" type="matrix" values="0 0 0 0 0 0 0 0 0 0 0 0 0 0 0 0 0 0 127 0" result="hardAlpha"/>
<feOffset dy="2.00569"/>
<feGaussianBlur stdDeviation="2.00569"/>
<feColorMatrix type="matrix" values="0 0 0 0 0 0 0 0 0 0 0 0 0 0 0 0 0 0 0.2 0"/>
<feBlend mode="normal" in2="BackgroundImageFix" result="effect1_dropShadow_4256_13934"/>
<feBlend mode="normal" in="SourceGraphic" in2="effect1_dropShadow_4256_13934" result="shape"/>
</filter>
</defs>
</svg>
