<svg width="260" height="132" viewBox="0 0 260 132" fill="none" xmlns="http://www.w3.org/2000/svg">
<path d="M101.285 117.08C98.7842 120.189 94.6722 123.051 88.9492 125.668C83.2252 128.286 78.2616 129.622 74.0586 129.676L78.4169 116.263C82.2238 115.663 86.1362 113.591 90.1542 110.046C94.1902 106.448 97.4842 100.722 100.035 92.8703L106.599 72.6684H97.9132C96.2512 72.6684 95.1052 72.3143 94.4752 71.6053C93.9032 70.8963 93.8732 69.7513 94.3872 68.1703L97.0712 59.9093H110.745L113.509 51.4023H131.483L128.719 59.9093H141.705L139.021 68.1703C138.507 69.7513 137.705 70.8963 136.615 71.6053C135.582 72.3143 134.234 72.6684 132.571 72.6684H124.573L118.009 92.8703C115.458 100.722 114.974 106.448 116.556 110.046C118.157 113.591 120.551 115.663 123.739 116.263L119.38 129.676C115.385 129.622 111.49 128.286 107.697 125.668C103.903 123.051 101.766 120.189 101.285 117.08ZM153.924 83.7103H165.878L162.954 92.7073C162.352 94.5613 161.287 95.8973 159.76 96.7153C158.291 97.5323 156.524 97.9413 154.46 97.9413H149.3L142.337 119.371C141.362 122.37 139.458 124.878 136.624 126.895C133.829 128.967 130.855 130.003 127.702 130.003H121.424L145.847 54.8383H163.305L153.924 83.7103Z" fill="#5B67EC"/>
<path d="M19.8761 47.2587C18.2413 46.5357 16.7445 45.6227 15.3861 44.5187C13.9752 43.3777 13.0212 42.1037 12.5238 40.6957H17.9839L14.5537 30.1387H3.09375L5.94905 38.9267C6.77725 41.4757 8.43125 43.7967 10.911 45.8887C13.3385 47.9427 15.8311 49.2747 18.3889 49.8827L19.8761 47.2587Z" fill="#5B67EC"/>
<path d="M197.201 84.2183C193.984 87.4703 189.531 90.0953 183.842 92.0933C178.172 94.0333 173.137 95.0313 168.739 95.0883L173.3 81.0513C177.21 80.6513 181.257 78.9963 185.443 76.0863C188.607 73.9184 191.324 70.2663 193.593 65.1303H184.143C182.403 65.1303 181.203 64.7593 180.544 64.0173C179.945 63.2763 179.915 62.0773 180.452 60.4223L183.206 51.9483H231.176L228.422 60.4223C227.885 62.0773 227.045 63.2763 225.904 64.0173C224.823 64.7593 223.413 65.1303 221.673 65.1303H212.853C211.784 70.2663 212.007 73.9184 213.523 76.0863C215.637 78.9963 218.55 80.6513 222.26 81.0513L217.699 95.0883C213.337 95.0313 209.042 94.0333 204.812 92.0933C200.601 90.0953 198.064 87.4703 197.201 84.2183ZM247.835 65.2163H259.715L256.544 74.9743C255.97 76.7423 254.982 78.0263 253.583 78.8253C252.243 79.6243 250.584 80.0243 248.604 80.0243H243.024L240.076 89.0974C239.501 90.8664 238.407 92.2923 236.795 93.3763C235.201 94.4043 233.354 94.9173 231.254 94.9173H219.914L233.931 51.7773H252.201L247.835 65.2163ZM215.347 113.406C215.644 112.493 215.615 111.751 215.26 111.18C214.906 110.61 213.768 110.324 211.848 110.324H189.348C187.488 110.324 186.166 110.61 185.38 111.18C184.655 111.751 184.144 112.493 183.847 113.406L183.652 114.005C183.356 114.918 183.385 115.66 183.739 116.23C184.154 116.801 185.291 117.086 187.151 117.086H209.651C211.571 117.086 212.894 116.801 213.619 116.23C214.345 115.66 214.856 114.918 215.152 114.005L215.347 113.406ZM232.094 118.37C230.796 122.365 228.364 125.418 224.798 127.529C221.274 129.697 217.381 130.782 213.121 130.782H174.781C170.581 130.782 167.394 129.697 165.218 127.529C163.024 125.418 162.576 122.365 163.874 118.37L166.822 109.297C168.12 105.303 170.552 102.25 174.118 100.138C177.702 97.9704 181.595 96.8863 185.795 96.8863H224.135C228.395 96.8863 231.582 97.9704 233.698 100.138C235.892 102.25 236.34 105.303 235.042 109.297L232.094 118.37Z" fill="#5B67EC"/>
<path d="M38.2387 71.002C35.7297 72.999 31.6035 74.711 25.86 76.138C20.195 77.507 15.1725 78.192 10.7925 78.192L14.853 65.695C18.7071 65.467 22.516 64.64 26.2795 63.213C30.1216 61.729 32.8306 58.562 34.4066 53.712L34.9628 52H53.5928L53.0366 53.712C51.4421 58.619 51.9823 61.758 54.6573 63.127C57.4109 64.44 60.6706 65.21 64.4364 65.438L60.3759 77.935C55.9959 77.935 51.4691 77.279 46.7956 75.967C42.182 74.654 39.3297 72.999 38.2387 71.002ZM77.8386 90.946C77.2638 92.715 75.1703 95.141 73.558 96.226C71.9643 97.253 70.1174 97.766 68.0174 97.766H56.9474L59.5326 91.887C58.5585 92.116 57.2336 92.315 55.558 92.486C53.6238 92.715 51.6067 92.829 49.5067 92.829H40.1467C38.5959 94.97 37.8585 95.855 36.9346 96.482C35.7935 97.224 34.293 97.595 32.433 97.595H19.653L21.8767 92.829H10.8067C8.82669 92.829 7.39429 92.344 6.50949 91.374C5.68469 90.404 5.56899 89.006 6.16229 87.18L8.49839 79.99H54.2184C56.1384 79.99 58.0355 79.875 59.9097 79.647C61.5253 79.476 62.7902 79.276 63.7044 79.048L72.465 52.086H90.465L77.8386 90.946ZM9.05769 99.735H27.3277L24.5 107H53.5L56.0377 99.735H74.3077L65.6305 126.441C65.0743 128.152 64.1378 129.465 62.8212 130.378C61.486 131.348 59.8884 131.833 58.0284 131.833H4.38839C2.52839 131.833 1.24599 131.348 0.541193 130.378C-0.122107 129.465 -0.175707 128.152 0.380493 126.441L9.05769 99.735ZM48.5 121L50.5 114H22L19.5 121H48.5Z" fill="#5B67EC"/>
<path d="M114.289 29.4239L115.957 28.3239C117.213 27.4959 118.838 27.4879 120.102 28.3029C121.185 29.0009 121.839 30.2019 121.839 31.4909V31.6449C121.839 32.8769 121.241 34.0309 120.236 34.7419C118.912 35.6779 117.14 35.6679 115.826 34.7189L114.289 33.6089" stroke="#5B67EC" stroke-width="4" stroke-linecap="round"/>
<path d="M40.7852 29.4239L42.4534 28.3239C43.7086 27.4959 45.334 27.4879 46.5975 28.3029C47.6809 29.0009 48.3354 30.2019 48.3354 31.4909V31.6449C48.3354 32.8769 47.7374 34.0309 46.7316 34.7419C45.4079 35.6779 43.6359 35.6679 42.322 34.7189L40.7852 33.6089" stroke="#5B67EC" stroke-width="4" stroke-linecap="round"/>
<path d="M97.67 2L119.054 7.8211M97.67 2L95.337 7.8211M97.67 2L86.026 2.25L72.8554 3.5L56.8454 11.0551M119.054 7.8211H95.337M119.054 7.8211L123.349 6.3921C124.367 6.0534 125.433 5.8807 126.506 5.8807H130.72C131.94 5.8807 133.086 6.4654 133.802 7.4532L140 16V22.3737V30V29.165M95.337 7.8211L93.782 11.7019L61.5986 12.5L56.8454 11.0551M56.8454 11.0551L48.4101 10.0887C45.0395 9.7026 41.6261 10.1802 38.4909 11.4767L35.0651 12.8934C34.0887 13.2972 33.1458 13.7777 32.2452 14.3304L29.1406 16.2362C26.7873 17.6807 25.082 20.0387 25.0094 22.799C24.9679 24.3786 25.0549 26.218 25.4525 28C26.4708 32.564 30.5435 33.046 30.5435 33.046H35.1254M56.8454 33.046H108.336H54.9014" stroke="#5B67EC" stroke-width="4" stroke-linejoin="round"/>
<path d="M54.3962 31.102C54.3962 36.741 49.9555 41.243 44.5614 41.243C39.1673 41.243 34.7266 36.741 34.7266 31.102C34.7266 25.4633 39.1673 20.9609 44.5614 20.9609C49.9555 20.9609 54.3962 25.4633 54.3962 31.102Z" stroke="#5B67EC" stroke-width="4"/>
<path d="M127.909 31.75C127.909 37.388 123.468 41.891 118.074 41.891C112.68 41.891 108.24 37.388 108.24 31.75C108.24 26.111 112.68 21.6084 118.074 21.6084C123.468 21.6084 127.909 26.111 127.909 31.75Z" stroke="#5B67EC" stroke-width="4"/>
<path d="M85.0176 18H103.068" stroke="#5B67EC" stroke-width="4" stroke-linecap="round"/>
<path d="M122.424 13.3184H138.026" stroke="#5B67EC" stroke-width="4" stroke-linecap="round"/>
<path d="M127.781 32H135.926" stroke="#5B67EC" stroke-width="4" stroke-linecap="round"/>
<path d="M62.0781 27.5781H99.7508" stroke="#5B67EC" stroke-width="4" stroke-linecap="round"/>
<path d="M87.0547 26L90.6177 20H101.309L97.7457 26H87.0547Z" fill="#5B67EC" stroke="#5B67EC" stroke-width="4"/>
</svg>
