<svg width="359" height="423" viewBox="0 0 359 423" fill="none" xmlns="http://www.w3.org/2000/svg">
<path d="M161.228 215.176V198.685H199.123V218.334L207.161 219.923C207.536 219.997 207.693 220.448 207.444 220.738C200.245 229.137 192.867 237.299 178.5 233.878C164.882 232.57 158.942 225.807 149 220.089L161.228 215.176Z" fill="#FCCACB" stroke="#FF9BA7" stroke-linecap="round"/>
<path d="M151.107 164.131C157.539 154.101 160.284 145.583 167.671 139.138C168.764 138.185 170.412 138.878 170.625 140.312C172.089 150.167 180.766 157.319 190.718 156.877L203.861 156.292L204.498 164.628C204.534 165.106 205.157 165.263 205.417 164.86L206.096 163.803C206.447 163.257 206.885 162.751 207.47 162.47C208.355 162.045 209.159 162.049 210.446 162.408C211.811 162.955 212.503 163.552 213.219 164.624C213.582 165.168 213.787 165.8 213.862 166.449C214.358 170.751 213.995 173.356 212.715 177.679C210.376 179.854 208.921 180.499 206.083 180.793C205.411 186.766 204.416 190.149 201.812 195.401C201.481 196.067 201.067 196.693 200.585 197.26C195.59 203.138 191.59 206.629 184.872 210.737C182.109 212.427 178.655 212.548 175.778 211.062C170.044 208.1 165.925 205.323 161.73 201.376C157.561 197.454 155.25 192.012 154.409 186.35L153.944 183.22C149.567 181.875 147.563 179.76 144.269 176.152C144.076 175.94 143.912 175.702 143.791 175.443C142.684 173.083 142.46 171.632 142.906 169.112C142.932 168.965 142.97 168.821 143.02 168.68C143.649 166.88 144.061 165.912 145.377 164.771C145.859 164.353 146.489 164.157 147.126 164.154L151.107 164.131Z" fill="#FCCACB" stroke="#FF9BA7" stroke-linecap="round"/>
<path d="M149.319 164.042C155.542 167.729 159.568 142.3 169.323 138.722C171.423 150.132 181.749 158.152 193.324 157.362L203.911 156.639L204.427 163.911C204.483 164.706 205.401 165.119 206.033 164.634L208.986 162.368C209.833 161.718 210.451 160.813 210.744 159.786C211.977 155.471 212.656 152.662 212.842 147.508C212.658 143.879 212.38 141.762 211.55 138.398C211.45 137.995 211.298 137.605 211.095 137.242C204.474 125.425 193.408 116.845 183.636 115.327C181.48 114.992 179.27 115.385 177.308 116.338C174.599 117.654 173.011 119.174 171.064 121.791C168.865 120.516 167.455 120.095 165.652 120.176C164.624 120.222 163.633 120.569 162.724 121.051C153.922 125.72 150.184 130.822 146.78 141.878C146.438 142.988 146.312 144.161 146.398 145.319C146.928 152.413 147.694 156.777 149.319 164.042Z" fill="black" stroke="black" stroke-linecap="round"/>
<circle cx="1.75438" cy="1.75438" r="1.75438" transform="matrix(-0.989139 0.146983 0.146983 0.989139 189.672 165.851)" fill="black"/>
<circle cx="1.75438" cy="1.75438" r="1.75438" transform="matrix(-0.989139 0.146983 0.146983 0.989139 168.332 165.474)" fill="black"/>
<circle cx="1.75438" cy="1.75438" r="1.75438" transform="matrix(-0.989139 0.146983 0.146983 0.989139 178.828 178.812)" fill="black"/>
<path d="M174.11 193.905C178.199 191.873 180.476 191.814 184.508 193.87" stroke="black" stroke-width="3" stroke-linecap="round"/>
<path d="M182.947 232.959C175.122 232.196 152.034 223.185 149.965 220.089C137.026 224.691 128.516 228.255 118.4 233.332C111.077 237.007 106.285 244.236 105.68 252.407C104.041 274.533 102.023 312.552 102 324.5H256.5L251.679 256.524C251.039 247.498 246.452 239.091 238.733 234.367C229.164 228.512 220.711 224.706 207.86 220.089C201.988 227.734 196.446 230.492 182.947 232.959Z" fill="#5B67EC"/>
<path d="M257 324L251.168 256.232C250.405 247.374 245.841 239.164 238.265 234.511C228.6 228.574 220.114 224.743 207.158 220.089C201.286 227.734 195.744 230.492 182.245 232.959C174.42 232.196 151.332 223.185 149.263 220.089C136.324 224.691 127.814 228.255 117.698 233.332C110.375 237.007 105.589 244.237 105.048 252.413C103.59 274.419 102.023 312.063 102 324" stroke="black" stroke-width="2" stroke-linecap="round"/>
<path d="M131 282L128 325" stroke="black" stroke-width="2" stroke-linecap="round"/>
<path d="M231 282L234 325" stroke="black" stroke-width="2" stroke-linecap="round"/>
<path fill-rule="evenodd" clip-rule="evenodd" d="M166.307 329.087C166.307 328.767 166.319 328.45 166.343 328.136L134.176 307.515L138.307 299.366L171.483 319.067C173.334 317.785 175.56 317.038 177.955 317.038C180.754 317.038 183.323 318.059 185.332 319.762L218.654 300.961L223.787 308.428L189.601 329.277C189.503 335.844 184.327 341.136 177.955 341.136C171.522 341.136 166.307 335.742 166.307 329.087Z" fill="#49545A"/>
<path d="M166.343 328.136L166.842 328.174L166.864 327.876L166.613 327.715L166.343 328.136ZM134.176 307.515L133.73 307.289L133.525 307.692L133.906 307.936L134.176 307.515ZM138.307 299.366L138.562 298.936L138.103 298.663L137.861 299.14L138.307 299.366ZM171.483 319.067L171.228 319.497L171.504 319.661L171.768 319.478L171.483 319.067ZM185.332 319.762L185.009 320.143L185.274 320.368L185.577 320.197L185.332 319.762ZM218.654 300.961L219.067 300.678L218.807 300.301L218.409 300.526L218.654 300.961ZM223.787 308.428L224.048 308.855L224.499 308.58L224.199 308.145L223.787 308.428ZM189.601 329.277L189.341 328.85L189.106 328.993L189.101 329.269L189.601 329.277ZM165.845 328.099C165.82 328.425 165.807 328.754 165.807 329.087H166.807C166.807 328.78 166.819 328.475 166.842 328.174L165.845 328.099ZM133.906 307.936L166.073 328.557L166.613 327.715L134.446 307.094L133.906 307.936ZM137.861 299.14L133.73 307.289L134.622 307.741L138.753 299.592L137.861 299.14ZM171.738 318.637L138.562 298.936L138.052 299.796L171.228 319.497L171.738 318.637ZM177.955 316.538C175.454 316.538 173.129 317.319 171.198 318.656L171.768 319.478C173.539 318.252 175.666 317.538 177.955 317.538V316.538ZM185.655 319.38C183.561 317.605 180.879 316.538 177.955 316.538V317.538C180.63 317.538 183.085 318.513 185.009 320.143L185.655 319.38ZM218.409 300.526L185.086 319.326L185.577 320.197L218.9 301.397L218.409 300.526ZM224.199 308.145L219.067 300.678L218.242 301.244L223.375 308.712L224.199 308.145ZM189.862 329.704L224.048 308.855L223.527 308.001L189.341 328.85L189.862 329.704ZM177.955 341.636C184.616 341.636 189.999 336.108 190.101 329.284L189.101 329.269C189.007 335.579 184.038 340.636 177.955 340.636V341.636ZM165.807 329.087C165.807 336.002 171.23 341.636 177.955 341.636V340.636C171.814 340.636 166.807 335.482 166.807 329.087H165.807Z" fill="black"/>
<mask id="path-14-inside-1_3966_1095" fill="white">
<path fill-rule="evenodd" clip-rule="evenodd" d="M179.5 385C210.152 385 235 360.152 235 329.5C235 298.849 210.152 274 179.5 274C148.848 274 124 298.849 124 329.5C124 360.152 148.848 385 179.5 385ZM179.5 369.275C202.489 369.275 221.125 350.639 221.125 327.65C221.125 304.662 202.489 286.025 179.5 286.025C156.511 286.025 137.875 304.662 137.875 327.65C137.875 350.639 156.511 369.275 179.5 369.275Z"/>
</mask>
<path fill-rule="evenodd" clip-rule="evenodd" d="M179.5 385C210.152 385 235 360.152 235 329.5C235 298.849 210.152 274 179.5 274C148.848 274 124 298.849 124 329.5C124 360.152 148.848 385 179.5 385ZM179.5 369.275C202.489 369.275 221.125 350.639 221.125 327.65C221.125 304.662 202.489 286.025 179.5 286.025C156.511 286.025 137.875 304.662 137.875 327.65C137.875 350.639 156.511 369.275 179.5 369.275Z" fill="#49545A"/>
<path d="M234 329.5C234 359.6 209.6 384 179.5 384V386C210.704 386 236 360.705 236 329.5H234ZM179.5 275C209.6 275 234 299.401 234 329.5H236C236 298.296 210.704 273 179.5 273V275ZM125 329.5C125 299.401 149.4 275 179.5 275V273C148.296 273 123 298.296 123 329.5H125ZM179.5 384C149.4 384 125 359.6 125 329.5H123C123 360.705 148.296 386 179.5 386V384ZM220.125 327.65C220.125 350.087 201.937 368.275 179.5 368.275V370.275C203.041 370.275 222.125 351.192 222.125 327.65H220.125ZM179.5 287.025C201.937 287.025 220.125 305.214 220.125 327.65H222.125C222.125 304.109 203.041 285.025 179.5 285.025V287.025ZM138.875 327.65C138.875 305.214 157.063 287.025 179.5 287.025V285.025C155.959 285.025 136.875 304.109 136.875 327.65H138.875ZM179.5 368.275C157.063 368.275 138.875 350.087 138.875 327.65H136.875C136.875 351.192 155.959 370.275 179.5 370.275V368.275Z" fill="black" mask="url(#path-14-inside-1_3966_1095)"/>
<path d="M142.157 281.451L143.926 279.287L146.508 279C152.549 283.56 155.739 286.318 160.704 292.104C161.473 293.001 161.529 294.308 160.851 295.277C160.319 296.037 159.423 296.459 158.498 296.384L156.441 296.218V296.869C156.441 297.758 156.204 298.631 155.754 299.398L155.405 299.994C154.674 301.241 153.442 302.266 151.998 302.208C151.544 302.19 151.078 302.113 150.525 301.957C150.738 302.667 150.849 303.2 150.874 303.789C150.91 304.658 150.542 305.484 150.031 306.187L149.85 306.436C149.002 307.602 147.693 308.345 146.258 308.475L145.361 308.557L143.87 310.048C142.767 311.151 141.002 311.225 139.81 310.217L129.159 301.201C127.946 300.175 127.744 298.382 128.697 297.112L129.582 295.931C129.374 294.359 129.652 293.485 129.869 291.914L132.164 289.618L132.923 289.333C133.88 288.974 134.589 288.152 134.803 287.153L135.181 285.389C135.271 284.967 135.495 284.586 135.819 284.303L137.114 283.169C137.439 282.885 137.847 282.713 138.278 282.68L140.065 282.542C140.882 282.48 141.638 282.085 142.157 281.451Z" fill="#FCCACB"/>
<path d="M145.361 308.557L143.87 310.048C142.767 311.151 141.002 311.225 139.81 310.217L129.159 301.201C127.946 300.175 127.744 298.382 128.697 297.112L129.582 295.931C129.374 294.359 129.652 293.485 129.869 291.914L132.164 289.618L132.923 289.333C133.88 288.974 134.589 288.152 134.803 287.153L135.181 285.389C135.271 284.967 135.495 284.586 135.819 284.303L137.114 283.169C137.439 282.885 137.847 282.713 138.278 282.68L140.065 282.542C140.882 282.48 141.638 282.085 142.157 281.451L143.926 279.287L146.508 279C152.549 283.56 155.739 286.318 160.704 292.104C161.473 293.001 161.529 294.308 160.851 295.277V295.277C160.319 296.037 159.423 296.459 158.498 296.384L156.441 296.218M145.361 308.557L133.025 297.366M145.361 308.557L146.258 308.475C147.693 308.345 149.002 307.602 149.85 306.436L150.031 306.187C150.542 305.484 150.91 304.658 150.874 303.789C150.849 303.2 150.738 302.667 150.525 301.957M150.525 301.957L138.762 291.914M150.525 301.957C151.078 302.113 151.544 302.19 151.998 302.208C153.442 302.266 154.674 301.241 155.405 299.994L155.754 299.398C156.204 298.631 156.441 297.758 156.441 296.869V296.218M156.441 296.218L144.5 286.174" stroke="#FF9BA7" stroke-width="1.5" stroke-linecap="round"/>
<mask id="path-18-inside-2_3966_1095" fill="white">
<path d="M0 323H360V423H0V323Z"/>
</mask>
<path d="M0 323H360V423H0V323Z" fill="white"/>
<path d="M0 325H360V321H0V325Z" fill="black" mask="url(#path-18-inside-2_3966_1095)"/>
<mask id="path-20-inside-3_3966_1095" fill="white">
<path fill-rule="evenodd" clip-rule="evenodd" d="M259 116C299.317 116 332 90.0325 332 58C332 25.9675 299.317 0 259 0C218.683 0 186 25.9675 186 58C186 75.1765 195.397 90.6091 210.33 101.229L205.471 118.496L229.717 111.145C238.681 114.267 248.586 116 259 116Z"/>
</mask>
<path fill-rule="evenodd" clip-rule="evenodd" d="M259 116C299.317 116 332 90.0325 332 58C332 25.9675 299.317 0 259 0C218.683 0 186 25.9675 186 58C186 75.1765 195.397 90.6091 210.33 101.229L205.471 118.496L229.717 111.145C238.681 114.267 248.586 116 259 116Z" fill="white"/>
<path d="M210.33 101.229L212.255 101.771L212.637 100.416L211.489 99.5994L210.33 101.229ZM205.471 118.496L203.546 117.954L202.556 121.469L206.051 120.41L205.471 118.496ZM229.717 111.145L230.375 109.256L229.76 109.042L229.137 109.231L229.717 111.145ZM330 58C330 88.5234 298.666 114 259 114V118C299.968 118 334 91.5416 334 58H330ZM259 2C298.666 2 330 27.4766 330 58H334C334 24.4584 299.968 -2 259 -2V2ZM188 58C188 27.4766 219.334 2 259 2V-2C218.032 -2 184 24.4584 184 58H188ZM211.489 99.5994C196.968 89.2718 188 74.3987 188 58H184C184 75.9543 193.827 91.9463 209.171 102.859L211.489 99.5994ZM207.396 119.037L212.255 101.771L208.405 100.687L203.546 117.954L207.396 119.037ZM229.137 109.231L204.891 116.582L206.051 120.41L230.297 113.059L229.137 109.231ZM259 114C248.807 114 239.125 112.304 230.375 109.256L229.059 113.034C238.237 116.231 248.365 118 259 118V114Z" fill="black" mask="url(#path-20-inside-3_3966_1095)"/>
<path d="M263.207 35.7814C265.571 39.7033 265.096 44.9314 262.245 50.2867C259.4 55.6315 254.225 61.015 247.38 65.1415C240.536 69.2679 233.359 71.331 227.304 71.3523C221.237 71.3737 216.392 69.3531 214.028 65.4312C211.663 61.5094 212.138 56.2813 214.989 50.926C217.835 45.5812 223.01 40.1977 229.854 36.0712C236.699 31.9447 243.875 29.8816 249.93 29.8603C255.997 29.839 260.842 31.8596 263.207 35.7814Z" stroke="black"/>
<path d="M312.04 40.7308C313.631 45.0249 312.189 50.0726 308.388 54.8018C304.595 59.5217 298.507 63.8449 291.013 66.6217C283.518 69.3984 276.083 70.086 270.13 68.977C264.166 67.8658 259.783 64.9766 258.192 60.6824C256.601 56.3882 258.043 51.3406 261.843 46.6114C265.636 41.8915 271.725 37.5682 279.219 34.7915C286.713 32.0147 294.149 31.3271 300.102 32.4361C306.066 33.5473 310.449 36.4366 312.04 40.7308Z" stroke="black"/>
<path d="M285.521 58.2418C286.438 62.7285 284.242 67.4969 279.764 71.5906C275.295 75.6763 268.618 79.0197 260.788 80.6201C252.958 82.2204 245.504 81.7652 239.791 79.7606C234.066 77.7521 230.175 74.2277 229.258 69.741C228.341 65.2543 230.537 60.4859 235.015 56.3922C239.484 52.3065 246.161 48.9632 253.991 47.3628C261.821 45.7624 269.274 46.2177 274.988 48.2222C280.713 50.2307 284.604 53.7551 285.521 58.2418Z" stroke="black"/>
<path d="M292.437 73.6194C292.306 78.1969 289.08 82.3384 283.786 85.3023C278.503 88.2604 271.239 89.9919 263.25 89.7632C255.262 89.5345 248.109 87.3904 243.003 84.1349C237.888 80.873 234.904 76.5537 235.035 71.9761C235.166 67.3985 238.392 63.257 243.686 60.2931C248.969 57.335 256.233 55.6036 264.222 55.8323C272.211 56.061 279.363 58.2051 284.469 61.4606C289.584 64.7225 292.568 69.0418 292.437 73.6194Z" stroke="black"/>
<path d="M275.03 47.0144C274.932 50.4536 272.552 53.5832 268.611 55.834C264.679 58.0796 259.266 59.3995 253.307 59.2289C247.348 59.0584 242.019 57.4309 238.222 54.964C234.416 52.4915 232.219 49.2309 232.318 45.7917C232.416 42.3524 234.796 39.2228 238.737 36.9721C242.669 34.7265 248.082 33.4065 254.041 33.5771C260 33.7477 265.329 35.3751 269.126 37.842C272.932 40.3145 275.129 43.5752 275.03 47.0144Z" stroke="black"/>
<path d="M293.137 38.3337C293.031 42.0479 290.512 45.4177 286.364 47.8373C282.224 50.2525 276.528 51.6729 270.259 51.4935C263.991 51.3141 258.386 49.5701 254.391 46.922C250.388 44.2691 248.066 40.7607 248.172 37.0465C248.279 33.3323 250.798 29.9624 254.945 27.5429C259.086 25.1277 264.782 23.7073 271.05 23.8867C277.318 24.0661 282.923 25.8101 286.919 28.4582C290.921 31.111 293.243 34.6195 293.137 38.3337Z" stroke="black"/>
<path d="M306.977 61.927C305.215 65.1986 301.452 67.0799 296.66 67.381C291.876 67.6816 286.148 66.3951 280.627 63.4221C275.106 60.4492 270.879 56.3754 268.497 52.2161C266.11 48.0493 265.609 43.8719 267.371 40.6004C269.133 37.3288 272.896 35.4475 277.688 35.1464C282.472 34.8458 288.2 36.1324 293.721 39.1053C299.242 42.0782 303.469 46.152 305.851 50.3113C308.238 54.4781 308.739 58.6555 306.977 61.927Z" stroke="black"/>
<path d="M300.504 78.2625C298.743 81.534 294.98 83.4153 290.187 83.7165C285.403 84.0171 279.676 82.7305 274.154 79.7576C268.633 76.7847 264.406 72.7108 262.024 68.5515C259.638 64.3847 259.137 60.2074 260.898 56.9358C262.66 53.6643 266.423 51.783 271.216 51.4818C275.999 51.1812 281.727 52.4678 287.248 55.4407C292.769 58.4136 296.996 62.4875 299.379 66.6468C301.765 70.8136 302.266 74.9909 300.504 78.2625Z" stroke="black"/>
<path d="M291.551 95.8792C289.79 99.1507 286.026 101.032 281.234 101.333C276.45 101.634 270.722 100.347 265.201 97.3743C259.68 94.4013 255.453 90.3275 253.071 86.1682C250.684 82.0014 250.184 77.8241 251.945 74.5525C253.707 71.281 257.47 69.3997 262.263 69.0985C267.046 68.7979 272.774 70.0845 278.295 73.0574C283.816 76.0303 288.043 80.1042 290.426 84.2635C292.812 88.4303 293.313 92.6076 291.551 95.8792Z" stroke="black"/>
<path d="M317.543 64.4002C315.782 67.6717 312.019 69.553 307.226 69.8542C302.442 70.1548 296.715 68.8682 291.194 65.8953C285.672 62.9223 281.445 58.8485 279.063 54.6892C276.677 50.5224 276.176 46.3451 277.937 43.0735C279.699 39.8019 283.462 37.9207 288.255 37.6195C293.039 37.3189 298.766 38.6055 304.287 41.5784C309.808 44.5513 314.035 48.6252 316.418 52.7845C318.804 56.9513 319.305 61.1286 317.543 64.4002Z" stroke="black"/>
<path d="M251.407 87.7928C249.645 91.0643 245.882 92.9456 241.09 93.2467C236.306 93.5473 230.578 92.2608 225.057 89.2878C219.536 86.3149 215.309 82.2411 212.926 78.0818C210.54 73.915 210.039 69.7376 211.801 66.4661C213.562 63.1945 217.326 61.3132 222.118 61.0121C226.902 60.7115 232.63 61.9981 238.151 64.971C243.672 67.9439 247.899 72.0178 250.281 76.1771C252.668 80.3439 253.168 84.5212 251.407 87.7928Z" stroke="black"/>
<path d="M219.433 92.0878C216.4 89.9405 214.992 85.9761 215.277 81.1827C215.562 76.3979 217.537 70.8696 221.16 65.752C224.784 60.6345 229.343 56.9355 233.761 55.078C238.188 53.2171 242.395 53.2291 245.428 55.3764C248.46 57.5236 249.869 61.4881 249.584 66.2815C249.299 71.0662 247.324 76.5946 243.7 81.7121C240.076 86.8297 235.518 90.5286 231.099 92.3862C226.672 94.2471 222.465 94.235 219.433 92.0878Z" stroke="black"/>
<path d="M209.253 60.0804C208.011 56.5784 209.143 52.5264 212.137 48.7725C215.126 45.0253 219.925 41.6441 225.835 39.5483C231.745 37.4526 237.602 37.055 242.284 38.0819C246.975 39.1107 250.407 41.5441 251.649 45.0461C252.891 48.5482 251.758 52.6002 248.764 56.3541C245.775 60.1012 240.976 63.4825 235.066 65.5782C229.156 67.674 223.299 68.0716 218.617 67.0447C213.927 66.0159 210.494 63.5825 209.253 60.0804Z" stroke="black"/>
<path d="M225.139 62.1019C223.897 58.5999 225.03 54.5479 228.024 50.794C231.013 47.0468 235.812 43.6656 241.722 41.5698C247.632 39.474 253.489 39.0764 258.171 40.1034C262.861 41.1322 266.294 43.5656 267.535 47.0676C268.777 50.5697 267.645 54.6217 264.651 58.3756C261.662 62.1227 256.863 65.504 250.953 67.5997C245.043 69.6955 239.186 70.0931 234.504 69.0662C229.813 68.0374 226.381 65.6039 225.139 62.1019Z" stroke="black"/>
<path d="M211.276 50.2611C210.034 46.7591 211.166 42.707 214.161 38.9531C217.15 35.206 221.949 31.8248 227.859 29.729C233.769 27.6332 239.626 27.2356 244.308 28.2626C248.998 29.2914 252.43 31.7248 253.672 35.2268C254.914 38.7288 253.782 42.7809 250.787 46.5348C247.798 50.2819 242.999 53.6631 237.089 55.7589C231.179 57.8547 225.322 58.2523 220.64 57.2253C215.95 56.1965 212.518 53.7631 211.276 50.2611Z" stroke="black"/>
<path d="M272.788 65.8563C271.546 62.3543 272.678 58.3023 275.672 54.5484C278.661 50.8012 283.46 47.42 289.37 45.3242C295.28 43.2284 301.138 42.8308 305.82 43.8578C310.51 44.8866 313.942 47.32 315.184 50.822C316.426 54.3241 315.293 58.3761 312.299 62.13C309.31 65.8771 304.511 69.2584 298.601 71.3541C292.691 73.4499 286.834 73.8475 282.152 72.8206C277.462 71.7918 274.03 69.3583 272.788 65.8563Z" stroke="black"/>
<path d="M264.128 82.3177C262.886 78.8157 264.018 74.7637 267.012 71.0098C270.001 67.2626 274.8 63.8814 280.71 61.7856C286.62 59.6899 292.477 59.2923 297.159 60.3192C301.85 61.348 305.282 63.7814 306.524 67.2834C307.766 70.7855 306.633 74.8375 303.639 78.5914C300.65 82.3386 295.851 85.7198 289.941 87.8155C284.031 89.9113 278.174 90.3089 273.492 89.282C268.802 88.2532 265.369 85.8198 264.128 82.3177Z" stroke="black"/>
<path d="M227.055 81.5966C226.982 80.4655 227.464 79.306 228.494 78.1639C229.526 77.0201 231.081 75.927 233.067 74.9547C237.038 73.0113 242.639 71.5962 248.926 71.1936C255.213 70.7911 260.949 71.4803 265.135 72.9015C267.229 73.6125 268.911 74.4985 270.08 75.5013C271.248 76.5026 271.873 77.5912 271.946 78.7224C272.018 79.8535 271.537 81.013 270.506 82.1551C269.475 83.2989 267.92 84.392 265.933 85.3643C261.963 87.3077 256.361 88.7228 250.074 89.1254C243.787 89.5279 238.051 88.8387 233.865 87.4175C231.771 86.7065 230.089 85.8205 228.92 84.8177C227.753 83.8164 227.127 82.7278 227.055 81.5966Z" stroke="black"/>
<path d="M238.634 82.1057C238.725 80.9759 239.369 79.8978 240.553 78.9159C241.738 77.9325 243.434 77.0746 245.54 76.3983C249.749 75.0466 255.495 74.4524 261.775 74.959C268.055 75.4656 273.632 76.9732 277.569 78.9821C279.539 79.9871 281.076 81.1059 282.089 82.2665C283.1 83.4255 283.562 84.5928 283.471 85.7226C283.38 86.8524 282.737 87.9305 281.553 88.9124C280.367 89.8957 278.671 90.7537 276.565 91.4299C272.356 92.7816 266.61 93.3758 260.33 92.8693C254.051 92.3627 248.474 90.8551 244.536 88.8462C242.566 87.8411 241.029 86.7224 240.016 85.5617C239.005 84.4028 238.543 83.2355 238.634 82.1057Z" stroke="black"/>
<path d="M264.511 29.1496C264.922 28.0932 265.847 27.2446 267.263 26.643C268.68 26.0405 270.551 25.7043 272.762 25.6595C277.182 25.57 282.858 26.6467 288.729 28.9307C294.601 31.2147 299.512 34.2566 302.71 37.3092C304.309 38.8364 305.461 40.3484 306.099 41.7505C306.736 43.1506 306.844 44.4014 306.433 45.4578C306.022 46.5141 305.097 47.3627 303.682 47.9644C302.264 48.5669 300.393 48.9031 298.182 48.9479C293.762 49.0374 288.086 47.9607 282.215 45.6767C276.344 43.3927 271.432 40.3508 268.235 37.2982C266.635 35.771 265.483 34.2589 264.845 32.8569C264.208 31.4568 264.1 30.206 264.511 29.1496Z" stroke="black"/>
<path d="M278.841 40.8855C279.779 40.2492 281.022 40.0759 282.529 40.3842C284.038 40.6929 285.769 41.4782 287.615 42.6966C291.304 45.1319 295.366 49.2405 298.903 54.4539C302.439 59.6673 304.756 64.9597 305.655 69.288C306.105 71.4533 306.195 73.3519 305.924 74.8683C305.654 76.3824 305.033 77.4738 304.095 78.1102C303.157 78.7466 301.914 78.9198 300.407 78.6115C298.898 78.3028 297.167 77.5176 295.321 76.2992C291.632 73.8638 287.57 69.7552 284.033 64.5418C280.496 59.3284 278.18 54.036 277.28 49.7078C276.83 47.5424 276.741 45.6438 277.011 44.1275C277.282 42.6134 277.903 41.5219 278.841 40.8855Z" stroke="black"/>
<path d="M268.735 56.1917C269.673 55.5553 270.917 55.3821 272.424 55.6904C273.933 55.9991 275.664 56.7844 277.509 58.0027C281.199 60.4381 285.26 64.5467 288.797 69.7601C292.334 74.9735 294.651 80.2659 295.55 84.5941C296 86.7595 296.09 88.6581 295.819 90.1744C295.548 91.6885 294.928 92.78 293.99 93.4164C293.052 94.0527 291.808 94.226 290.301 93.9177C288.792 93.609 287.061 92.8237 285.215 91.6053C281.526 89.17 277.465 85.0614 273.928 79.848C270.391 74.6346 268.074 69.3422 267.175 65.0139C266.725 62.8486 266.635 60.95 266.906 59.4336C267.177 57.9195 267.797 56.8281 268.735 56.1917Z" stroke="black"/>
<path d="M276.66 54.9189C277.458 54.1143 278.646 53.7055 280.184 53.7188C281.724 53.7321 283.573 54.1704 285.619 55.0118C289.707 56.6936 294.482 59.9461 298.954 64.3835C303.426 68.821 306.715 73.5703 308.429 77.6453C309.286 79.684 309.738 81.5301 309.764 83.0702C309.789 84.6081 309.389 85.7984 308.591 86.603C307.793 87.4076 306.605 87.8164 305.067 87.8031C303.527 87.7898 301.678 87.3514 299.632 86.5101C295.544 84.8283 290.769 81.5758 286.297 77.1383C281.825 72.7009 278.536 67.9516 276.823 63.8765C275.965 61.8378 275.513 59.9918 275.487 58.4516C275.462 56.9138 275.862 55.7235 276.66 54.9189Z" stroke="black"/>
<path d="M231.828 22.5932C232.626 21.7886 233.814 21.3798 235.352 21.3931C236.892 21.4064 238.741 21.8448 240.787 22.6861C244.875 24.3679 249.65 27.6204 254.122 32.0579C258.594 36.4953 261.883 41.2446 263.597 45.3197C264.454 47.3584 264.906 49.2044 264.932 50.7446C264.957 52.2824 264.557 53.4727 263.759 54.2773C262.961 55.0819 261.773 55.4907 260.235 55.4774C258.695 55.4641 256.846 55.0258 254.8 54.1844C250.712 52.5026 245.937 49.2501 241.465 44.8127C236.993 40.3752 233.704 35.6259 231.991 31.5509C231.133 29.5122 230.681 27.6661 230.655 26.126C230.63 24.5881 231.03 23.3978 231.828 22.5932Z" stroke="black"/>
<path d="M277.777 86.9416C276.367 91.2984 272.108 94.3678 266.195 95.7267C260.294 97.0828 252.836 96.7057 245.232 94.2438C237.629 91.7818 231.366 87.7161 227.379 83.1584C223.385 78.5918 221.733 73.6086 223.144 69.2519C224.555 64.8951 228.814 61.8256 234.726 60.4668C240.628 59.1106 248.086 59.4877 255.689 61.9497C263.292 64.4116 269.556 68.4773 273.542 73.035C277.537 77.6017 279.188 82.5848 277.777 86.9416Z" stroke="black"/>
<path d="M258.409 18.7033C262.954 19.2591 266.778 22.8559 269.237 28.4021C271.692 33.9374 272.741 41.3307 271.771 49.2637C270.801 57.1968 268.001 64.1195 264.286 68.9004C260.562 73.6906 255.985 76.2602 251.439 75.7044C246.893 75.1486 243.07 71.5517 240.61 66.0055C238.156 60.4702 237.107 53.077 238.077 45.1439C239.047 37.2108 241.846 30.2882 245.562 25.5073C249.285 20.717 253.863 18.1475 258.409 18.7033Z" stroke="black"/>
<path d="M304.504 29.8639C306.868 33.7858 306.393 39.0139 303.542 44.3692C300.696 49.714 295.522 55.0975 288.677 59.224C281.833 63.3504 274.656 65.4136 268.601 65.4349C262.534 65.4562 257.689 63.4356 255.324 59.5138C252.96 55.5919 253.435 50.3638 256.286 45.0085C259.132 39.6637 264.307 34.2802 271.151 30.1537C277.995 26.0273 285.172 23.9641 291.227 23.9428C297.294 23.9215 302.139 25.9421 304.504 29.8639Z" stroke="black"/>
<path d="M281.402 65.9636C283.767 69.8854 283.292 75.1135 280.44 80.4688C277.595 85.8136 272.42 91.1971 265.576 95.3236C258.731 99.4501 251.555 101.513 245.5 101.534C239.433 101.556 234.587 99.5352 232.223 95.6134C229.858 91.6915 230.333 86.4634 233.185 81.1081C236.03 75.7633 241.205 70.3798 248.049 66.2533C254.894 62.1269 262.07 60.0638 268.126 60.0425C274.192 60.0211 279.038 62.0417 281.402 65.9636Z" stroke="black"/>
<path d="M284.415 20.0954C287.81 23.1684 288.863 28.3113 287.678 34.2614C286.496 40.1999 283.094 46.8473 277.731 52.7728C272.368 58.6983 266.091 62.7441 260.3 64.5112C254.497 66.2818 249.275 65.7449 245.88 62.6719C242.484 59.5989 241.431 54.456 242.616 48.5059C243.799 42.5674 247.201 35.92 252.564 29.9944C257.927 24.0689 264.203 20.0232 269.994 18.2561C275.797 16.4854 281.019 17.0224 284.415 20.0954Z" stroke="black"/>
</svg>
