<svg width="917" height="1575" viewBox="0 0 917 1575" fill="none" xmlns="http://www.w3.org/2000/svg">
<g clip-path="url(#clip0_4124_1362)">
<path d="M121 31H796C842.944 31 881 69.0558 881 116V1655H36V116C36 69.0558 74.0558 31 121 31Z" fill="white" stroke="black" stroke-width="20"/>
<rect x="63" y="587" width="200" height="200" rx="11" fill="#878787" fill-opacity="0.3"/>
<path d="M187.97 687.31C187.97 700.667 176.28 711.62 161.699 711.62C147.118 711.62 135.428 700.667 135.428 687.31C135.428 673.953 147.118 663 161.699 663C176.28 663 187.97 673.953 187.97 687.31Z" fill="#878787" stroke="#878787" stroke-width="2"/>
<path d="M150.793 677.185L172.61 697.433M172.61 677.185L150.793 697.433" stroke="white" stroke-width="1.5" stroke-linecap="round" stroke-linejoin="round"/>
<rect x="61.7139" y="367" width="200" height="200" rx="11" fill="#5B67EC" fill-opacity="0.2"/>
<g opacity="0.5">
<g filter="url(#filter0_d_4124_1362)">
<path d="M246.442 474.717L246.596 464.364L246.611 463.462C246.33 456.626 245.445 449.829 243.965 443.149C241.798 437.353 234.467 434.622 228.413 433.348C227.583 432.411 226.563 431.662 225.42 431.151C224.278 430.641 223.039 430.38 221.788 430.387L205.512 430.114C203.476 430.055 201.479 430.683 199.843 431.897L197.463 431.856L190.226 431.732L187.576 424.937L185.113 424.894L185.998 431.668L142.752 430.944C141.155 429.673 139.178 428.975 137.137 428.961L97.3664 428.301C95.1115 428.228 92.9122 429.009 91.2077 430.487C86.3799 431.123 79.0123 432.877 78.4301 437.768L78.0212 467.292L77.6128 496.827C78.0364 501.723 85.3775 503.728 90.1776 504.523C91.8369 506.06 94.0138 506.916 96.2755 506.922L136.047 507.598C138.083 507.657 140.08 507.029 141.715 505.815L185.242 506.545L184.275 512.709L186.738 512.752L189.316 506.609L196.415 506.728L198.836 506.811C200.428 508.052 202.386 508.733 204.405 508.746L220.681 509.019C222.732 509.067 224.739 508.419 226.375 507.18C232.618 506.199 240.702 503.775 243.147 497.746C244.811 491.117 245.884 484.353 246.352 477.534L246.393 474.719L246.442 474.717Z" fill="white"/>
</g>
<g filter="url(#filter1_d_4124_1362)">
<path d="M246.442 474.717L246.596 464.364L246.611 463.462C246.33 456.626 245.445 449.829 243.965 443.149C241.798 437.353 234.467 434.622 228.413 433.348C227.583 432.411 226.563 431.662 225.42 431.151C224.278 430.641 223.039 430.38 221.788 430.387L205.512 430.114C203.476 430.055 201.479 430.683 199.843 431.897L197.463 431.856L190.226 431.732L187.576 424.937L185.113 424.894L185.998 431.668L142.752 430.944C141.155 429.673 139.178 428.975 137.137 428.961L97.3664 428.301C95.1115 428.228 92.9122 429.009 91.2077 430.487C86.3799 431.123 79.0123 432.877 78.4301 437.768L78.0212 467.292L77.6128 496.827C78.0364 501.723 85.3775 503.728 90.1776 504.523C91.8369 506.06 94.0138 506.916 96.2755 506.922L136.047 507.598C138.083 507.657 140.08 507.029 141.715 505.815L185.242 506.545L184.275 512.709L186.738 512.752L189.316 506.609L196.415 506.728L198.836 506.811C200.428 508.052 202.386 508.733 204.405 508.746L220.681 509.019C222.732 509.067 224.739 508.419 226.375 507.18C232.618 506.199 240.702 503.775 243.147 497.746C244.811 491.117 245.884 484.353 246.352 477.534L246.393 474.719L246.442 474.717Z" fill="white"/>
</g>
<path d="M92.6315 453.764C92.6315 448.54 90.1801 444.306 87.1561 444.306C84.1321 444.306 81.6807 448.54 81.6807 453.764L81.6807 482.137C81.6807 487.361 84.1321 491.595 87.1561 491.595C90.1801 491.595 92.6315 487.361 92.6315 482.137L92.6315 453.764Z" fill="#333333"/>
<path d="M92.6315 442.381C92.6315 439.357 90.1801 436.905 87.1561 436.905C84.1321 436.905 81.6807 439.357 81.6807 442.381L81.6807 453.332C81.6807 456.356 84.1321 458.807 87.1561 458.807C90.1801 458.807 92.6315 456.356 92.6315 453.332L92.6315 442.381Z" fill="#333333"/>
<path d="M245.947 461.538C245.947 460.026 244.721 458.801 243.209 458.801C241.697 458.801 240.472 460.026 240.472 461.538L240.472 483.44C240.472 484.952 241.697 486.178 243.209 486.178C244.721 486.178 245.947 484.952 245.947 483.44L245.947 461.538Z" fill="#333333"/>
<path d="M92.6315 480.707C92.6315 477.683 90.1801 475.231 87.1561 475.231C84.1321 475.231 81.6807 477.683 81.6807 480.707L81.6807 491.658C81.6807 494.682 84.1321 497.133 87.1561 497.133C90.1801 497.133 92.6315 494.682 92.6315 491.658L92.6315 480.707Z" fill="#333333"/>
<path d="M203.853 472.8L203.81 472.8C203.538 480.437 201.916 487.965 199.019 495.036C198.422 496.71 197.48 498.24 196.254 499.525C195.028 500.811 193.544 501.824 191.9 502.499L191.813 502.499C191.446 502.61 191.071 502.689 190.69 502.735C189.882 502.855 189.057 502.794 188.276 502.554L163.812 492.238C167.321 490.015 169.194 474.525 169.791 468.661C169.791 462.775 169.555 447.181 166.297 444.569L191.681 436.997C192.485 436.845 193.312 436.875 194.102 437.084C194.476 437.17 194.842 437.287 195.197 437.435L195.284 437.451C196.85 438.305 198.219 439.477 199.305 440.892C200.391 442.306 201.17 443.932 201.592 445.664C203.73 453.005 204.557 460.666 204.034 468.294L204.078 468.294C204.04 469.055 204.001 469.8 203.957 470.534C203.914 471.267 203.886 472.012 203.842 472.773L203.853 472.8Z" fill="#333333"/>
<path d="M129.294 444.301L127.69 475.045L126.743 493.634L126.683 494.801C121.629 500.824 110.207 500.511 102.673 499.509L105.936 436.553C113.531 436.405 124.92 437.341 129.316 443.89L129.294 444.301Z" fill="#333333"/>
<path d="M126.527 431.426L180.241 431.426C180.241 431.426 157.075 442.377 150.789 442.377C144.503 442.377 120.214 431.426 126.527 431.426Z" fill="#333333"/>
<path d="M126.553 508.081L180.267 508.081C180.267 508.081 156.312 497.13 150.026 497.13C143.741 497.13 120.24 508.081 126.553 508.081Z" fill="#333333"/>
</g>
<rect x="63" y="1247" width="200" height="200" rx="11" fill="#878787" fill-opacity="0.3"/>
<path d="M187.97 1347.31C187.97 1360.67 176.28 1371.62 161.699 1371.62C147.118 1371.62 135.428 1360.67 135.428 1347.31C135.428 1333.95 147.118 1323 161.699 1323C176.28 1323 187.97 1333.95 187.97 1347.31Z" fill="#878787" stroke="#878787" stroke-width="2"/>
<path d="M150.793 1337.18L172.61 1357.43M172.61 1337.18L150.793 1357.43" stroke="white" stroke-width="1.5" stroke-linecap="round" stroke-linejoin="round"/>
<rect x="651" y="1247" width="200" height="200" rx="11" fill="#878787" fill-opacity="0.3"/>
<path d="M775.97 1347.31C775.97 1360.67 764.28 1371.62 749.699 1371.62C735.118 1371.62 723.428 1360.67 723.428 1347.31C723.428 1333.95 735.118 1323 749.699 1323C764.28 1323 775.97 1333.95 775.97 1347.31Z" fill="#878787" stroke="#878787" stroke-width="2"/>
<path d="M738.793 1337.18L760.61 1357.43M760.61 1337.18L738.793 1357.43" stroke="white" stroke-width="1.5" stroke-linecap="round" stroke-linejoin="round"/>
<rect x="651" y="1027" width="200" height="200" rx="11" fill="#878787" fill-opacity="0.3"/>
<path d="M775.97 1127.31C775.97 1140.67 764.28 1151.62 749.699 1151.62C735.118 1151.62 723.428 1140.67 723.428 1127.31C723.428 1113.95 735.118 1103 749.699 1103C764.28 1103 775.97 1113.95 775.97 1127.31Z" fill="#878787" stroke="#878787" stroke-width="2"/>
<path d="M738.793 1117.18L760.61 1137.43M760.61 1117.18L738.793 1137.43" stroke="white" stroke-width="1.5" stroke-linecap="round" stroke-linejoin="round"/>
<rect x="61.7139" y="1027" width="200" height="200" rx="11" fill="#5B67EC" fill-opacity="0.2"/>
<g opacity="0.5">
<g filter="url(#filter2_d_4124_1362)">
<path d="M246.442 1134.72L246.596 1124.36L246.611 1123.46C246.33 1116.63 245.445 1109.83 243.965 1103.15C241.798 1097.35 234.467 1094.62 228.413 1093.35C227.583 1092.41 226.563 1091.66 225.42 1091.15C224.278 1090.64 223.039 1090.38 221.788 1090.39L205.512 1090.11C203.476 1090.06 201.479 1090.68 199.843 1091.9L197.463 1091.86L190.226 1091.73L187.576 1084.94L185.113 1084.89L185.998 1091.67L142.752 1090.94C141.155 1089.67 139.178 1088.97 137.137 1088.96L97.3664 1088.3C95.1115 1088.23 92.9122 1089.01 91.2077 1090.49C86.3799 1091.12 79.0123 1092.88 78.4301 1097.77L78.0212 1127.29L77.6128 1156.83C78.0364 1161.72 85.3775 1163.73 90.1776 1164.52C91.8369 1166.06 94.0138 1166.92 96.2755 1166.92L136.047 1167.6C138.083 1167.66 140.08 1167.03 141.715 1165.81L185.242 1166.55L184.275 1172.71L186.738 1172.75L189.316 1166.61L196.415 1166.73L198.836 1166.81C200.428 1168.05 202.386 1168.73 204.405 1168.75L220.681 1169.02C222.732 1169.07 224.739 1168.42 226.375 1167.18C232.618 1166.2 240.702 1163.77 243.147 1157.75C244.811 1151.12 245.884 1144.35 246.352 1137.53L246.393 1134.72L246.442 1134.72Z" fill="white"/>
</g>
<g filter="url(#filter3_d_4124_1362)">
<path d="M246.442 1134.72L246.596 1124.36L246.611 1123.46C246.33 1116.63 245.445 1109.83 243.965 1103.15C241.798 1097.35 234.467 1094.62 228.413 1093.35C227.583 1092.41 226.563 1091.66 225.42 1091.15C224.278 1090.64 223.039 1090.38 221.788 1090.39L205.512 1090.11C203.476 1090.06 201.479 1090.68 199.843 1091.9L197.463 1091.86L190.226 1091.73L187.576 1084.94L185.113 1084.89L185.998 1091.67L142.752 1090.94C141.155 1089.67 139.178 1088.97 137.137 1088.96L97.3664 1088.3C95.1115 1088.23 92.9122 1089.01 91.2077 1090.49C86.3799 1091.12 79.0123 1092.88 78.4301 1097.77L78.0212 1127.29L77.6128 1156.83C78.0364 1161.72 85.3775 1163.73 90.1776 1164.52C91.8369 1166.06 94.0138 1166.92 96.2755 1166.92L136.047 1167.6C138.083 1167.66 140.08 1167.03 141.715 1165.81L185.242 1166.55L184.275 1172.71L186.738 1172.75L189.316 1166.61L196.415 1166.73L198.836 1166.81C200.428 1168.05 202.386 1168.73 204.405 1168.75L220.681 1169.02C222.732 1169.07 224.739 1168.42 226.375 1167.18C232.618 1166.2 240.702 1163.77 243.147 1157.75C244.811 1151.12 245.884 1144.35 246.352 1137.53L246.393 1134.72L246.442 1134.72Z" fill="white"/>
</g>
<path d="M92.6315 1113.76C92.6315 1108.54 90.1801 1104.31 87.1561 1104.31C84.1321 1104.31 81.6807 1108.54 81.6807 1113.76L81.6807 1142.14C81.6807 1147.36 84.1321 1151.6 87.1561 1151.6C90.1801 1151.6 92.6315 1147.36 92.6315 1142.14L92.6315 1113.76Z" fill="#333333"/>
<path d="M92.6315 1102.38C92.6315 1099.36 90.1801 1096.91 87.1561 1096.91C84.1321 1096.91 81.6807 1099.36 81.6807 1102.38L81.6807 1113.33C81.6807 1116.36 84.1321 1118.81 87.1561 1118.81C90.1801 1118.81 92.6315 1116.36 92.6315 1113.33L92.6315 1102.38Z" fill="#333333"/>
<path d="M245.947 1121.54C245.947 1120.03 244.721 1118.8 243.209 1118.8C241.697 1118.8 240.472 1120.03 240.472 1121.54L240.472 1143.44C240.472 1144.95 241.697 1146.18 243.209 1146.18C244.721 1146.18 245.947 1144.95 245.947 1143.44L245.947 1121.54Z" fill="#333333"/>
<path d="M92.6315 1140.71C92.6315 1137.68 90.1801 1135.23 87.1561 1135.23C84.1321 1135.23 81.6807 1137.68 81.6807 1140.71L81.6807 1151.66C81.6807 1154.68 84.1321 1157.13 87.1561 1157.13C90.1801 1157.13 92.6315 1154.68 92.6315 1151.66L92.6315 1140.71Z" fill="#333333"/>
<path d="M203.853 1132.8L203.81 1132.8C203.538 1140.44 201.916 1147.97 199.019 1155.04C198.422 1156.71 197.48 1158.24 196.254 1159.53C195.028 1160.81 193.544 1161.82 191.9 1162.5L191.813 1162.5C191.446 1162.61 191.071 1162.69 190.69 1162.73C189.882 1162.86 189.057 1162.79 188.276 1162.55L163.812 1152.24C167.321 1150.02 169.194 1134.53 169.791 1128.66C169.791 1122.77 169.555 1107.18 166.297 1104.57L191.681 1097C192.485 1096.84 193.312 1096.87 194.102 1097.08C194.476 1097.17 194.842 1097.29 195.197 1097.43L195.284 1097.45C196.85 1098.31 198.219 1099.48 199.305 1100.89C200.391 1102.31 201.17 1103.93 201.592 1105.66C203.73 1113.01 204.557 1120.67 204.034 1128.29L204.078 1128.29C204.04 1129.06 204.001 1129.8 203.957 1130.53C203.914 1131.27 203.886 1132.01 203.842 1132.77L203.853 1132.8Z" fill="#333333"/>
<path d="M129.294 1104.3L127.69 1135.05L126.743 1153.63L126.683 1154.8C121.629 1160.82 110.207 1160.51 102.673 1159.51L105.936 1096.55C113.531 1096.41 124.92 1097.34 129.316 1103.89L129.294 1104.3Z" fill="#333333"/>
<path d="M126.527 1091.43L180.241 1091.43C180.241 1091.43 157.075 1102.38 150.789 1102.38C144.503 1102.38 120.214 1091.43 126.527 1091.43Z" fill="#333333"/>
<path d="M126.553 1168.08L180.267 1168.08C180.267 1168.08 156.312 1157.13 150.026 1157.13C143.741 1157.13 120.24 1168.08 126.553 1168.08Z" fill="#333333"/>
</g>
<rect x="61.7139" y="807" width="200" height="200" rx="11" fill="#5B67EC" fill-opacity="0.2"/>
<g opacity="0.5">
<g filter="url(#filter4_d_4124_1362)">
<path d="M246.442 914.717L246.596 904.364L246.611 903.462C246.33 896.626 245.445 889.829 243.965 883.149C241.798 877.353 234.467 874.622 228.413 873.348C227.583 872.411 226.563 871.662 225.42 871.151C224.278 870.641 223.039 870.38 221.788 870.387L205.512 870.114C203.476 870.055 201.479 870.683 199.843 871.897L197.463 871.856L190.226 871.732L187.576 864.937L185.113 864.894L185.998 871.668L142.752 870.944C141.155 869.673 139.178 868.975 137.137 868.961L97.3664 868.301C95.1115 868.228 92.9122 869.009 91.2077 870.487C86.3799 871.123 79.0123 872.877 78.4301 877.768L78.0212 907.292L77.6128 936.827C78.0364 941.723 85.3775 943.728 90.1776 944.523C91.8369 946.06 94.0138 946.916 96.2755 946.922L136.047 947.598C138.083 947.657 140.08 947.029 141.715 945.815L185.242 946.545L184.275 952.709L186.738 952.752L189.316 946.609L196.415 946.728L198.836 946.811C200.428 948.052 202.386 948.733 204.405 948.746L220.681 949.019C222.732 949.067 224.739 948.419 226.375 947.18C232.618 946.199 240.702 943.775 243.147 937.746C244.811 931.117 245.884 924.353 246.352 917.534L246.393 914.719L246.442 914.717Z" fill="white"/>
</g>
<g filter="url(#filter5_d_4124_1362)">
<path d="M246.442 914.717L246.596 904.364L246.611 903.462C246.33 896.626 245.445 889.829 243.965 883.149C241.798 877.353 234.467 874.622 228.413 873.348C227.583 872.411 226.563 871.662 225.42 871.151C224.278 870.641 223.039 870.38 221.788 870.387L205.512 870.114C203.476 870.055 201.479 870.683 199.843 871.897L197.463 871.856L190.226 871.732L187.576 864.937L185.113 864.894L185.998 871.668L142.752 870.944C141.155 869.673 139.178 868.975 137.137 868.961L97.3664 868.301C95.1115 868.228 92.9122 869.009 91.2077 870.487C86.3799 871.123 79.0123 872.877 78.4301 877.768L78.0212 907.292L77.6128 936.827C78.0364 941.723 85.3775 943.728 90.1776 944.523C91.8369 946.06 94.0138 946.916 96.2755 946.922L136.047 947.598C138.083 947.657 140.08 947.029 141.715 945.815L185.242 946.545L184.275 952.709L186.738 952.752L189.316 946.609L196.415 946.728L198.836 946.811C200.428 948.052 202.386 948.733 204.405 948.746L220.681 949.019C222.732 949.067 224.739 948.419 226.375 947.18C232.618 946.199 240.702 943.775 243.147 937.746C244.811 931.117 245.884 924.353 246.352 917.534L246.393 914.719L246.442 914.717Z" fill="white"/>
</g>
<path d="M92.6315 893.764C92.6315 888.54 90.1801 884.306 87.1561 884.306C84.1321 884.306 81.6807 888.54 81.6807 893.764L81.6807 922.137C81.6807 927.361 84.1321 931.595 87.1561 931.595C90.1801 931.595 92.6315 927.361 92.6315 922.137L92.6315 893.764Z" fill="#333333"/>
<path d="M92.6315 882.381C92.6315 879.357 90.1801 876.905 87.1561 876.905C84.1321 876.905 81.6807 879.357 81.6807 882.381L81.6807 893.332C81.6807 896.356 84.1321 898.807 87.1561 898.807C90.1801 898.807 92.6315 896.356 92.6315 893.332L92.6315 882.381Z" fill="#333333"/>
<path d="M245.947 901.538C245.947 900.026 244.721 898.801 243.209 898.801C241.697 898.801 240.472 900.026 240.472 901.538L240.472 923.44C240.472 924.952 241.697 926.178 243.209 926.178C244.721 926.178 245.947 924.952 245.947 923.44L245.947 901.538Z" fill="#333333"/>
<path d="M92.6315 920.707C92.6315 917.683 90.1801 915.231 87.1561 915.231C84.1321 915.231 81.6807 917.683 81.6807 920.707L81.6807 931.658C81.6807 934.682 84.1321 937.133 87.1561 937.133C90.1801 937.133 92.6315 934.682 92.6315 931.658L92.6315 920.707Z" fill="#333333"/>
<path d="M203.853 912.8L203.81 912.8C203.538 920.437 201.916 927.965 199.019 935.036C198.422 936.71 197.48 938.24 196.254 939.525C195.028 940.811 193.544 941.824 191.9 942.499L191.813 942.499C191.446 942.61 191.071 942.689 190.69 942.735C189.882 942.855 189.057 942.794 188.276 942.554L163.812 932.238C167.321 930.015 169.194 914.525 169.791 908.661C169.791 902.775 169.555 887.181 166.297 884.569L191.681 876.997C192.485 876.845 193.312 876.875 194.102 877.084C194.476 877.17 194.842 877.287 195.197 877.435L195.284 877.451C196.85 878.305 198.219 879.477 199.305 880.892C200.391 882.306 201.17 883.932 201.592 885.664C203.73 893.005 204.557 900.666 204.034 908.294L204.078 908.294C204.04 909.055 204.001 909.8 203.957 910.534C203.914 911.267 203.886 912.012 203.842 912.773L203.853 912.8Z" fill="#333333"/>
<path d="M129.294 884.301L127.69 915.045L126.743 933.634L126.683 934.801C121.629 940.824 110.207 940.511 102.673 939.509L105.936 876.553C113.531 876.405 124.92 877.341 129.316 883.89L129.294 884.301Z" fill="#333333"/>
<path d="M126.527 871.426L180.241 871.426C180.241 871.426 157.075 882.377 150.789 882.377C144.503 882.377 120.214 871.426 126.527 871.426Z" fill="#333333"/>
<path d="M126.553 948.081L180.267 948.081C180.267 948.081 156.312 937.13 150.026 937.13C143.741 937.13 120.24 948.081 126.553 948.081Z" fill="#333333"/>
</g>
<rect width="200" height="200" rx="11" transform="matrix(-1 0 0 1 850.715 367)" fill="#5B67EC" fill-opacity="0.2"/>
<g opacity="0.5">
<g filter="url(#filter6_d_4124_1362)">
<path d="M665.986 474.717L665.833 464.364L665.818 463.462C666.099 456.626 666.984 449.829 668.464 443.149C670.631 437.353 677.961 434.622 684.016 433.348C684.846 432.411 685.866 431.662 687.008 431.151C688.151 430.641 689.389 430.38 690.641 430.387L706.917 430.114C708.953 430.055 710.949 430.683 712.585 431.897L714.966 431.856L722.202 431.732L724.853 424.937L727.316 424.894L726.43 431.668L769.677 430.944C771.274 429.673 773.251 428.975 775.291 428.961L815.062 428.301C817.317 428.228 819.516 429.009 821.221 430.487C826.049 431.123 833.416 432.877 833.999 437.768L834.407 467.292L834.816 496.827C834.392 501.723 827.051 503.728 822.251 504.523C820.592 506.06 818.415 506.916 816.153 506.922L776.382 507.598C774.346 507.657 772.349 507.029 770.713 505.815L727.187 506.545L728.154 512.709L725.691 512.752L723.112 506.609L716.014 506.728L713.593 506.811C712.001 508.052 710.043 508.733 708.024 508.746L691.748 509.019C689.697 509.067 687.69 508.419 686.054 507.18C679.811 506.199 671.727 503.775 669.281 497.746C667.618 491.117 666.545 484.353 666.076 477.534L666.036 474.719L665.986 474.717Z" fill="white"/>
</g>
<g filter="url(#filter7_d_4124_1362)">
<path d="M665.986 474.717L665.833 464.364L665.818 463.462C666.099 456.626 666.984 449.829 668.464 443.149C670.631 437.353 677.961 434.622 684.016 433.348C684.846 432.411 685.866 431.662 687.008 431.151C688.151 430.641 689.389 430.38 690.641 430.387L706.917 430.114C708.953 430.055 710.949 430.683 712.585 431.897L714.966 431.856L722.202 431.732L724.853 424.937L727.316 424.894L726.43 431.668L769.677 430.944C771.274 429.673 773.251 428.975 775.291 428.961L815.062 428.301C817.317 428.228 819.516 429.009 821.221 430.487C826.049 431.123 833.416 432.877 833.999 437.768L834.407 467.292L834.816 496.827C834.392 501.723 827.051 503.728 822.251 504.523C820.592 506.06 818.415 506.916 816.153 506.922L776.382 507.598C774.346 507.657 772.349 507.029 770.713 505.815L727.187 506.545L728.154 512.709L725.691 512.752L723.112 506.609L716.014 506.728L713.593 506.811C712.001 508.052 710.043 508.733 708.024 508.746L691.748 509.019C689.697 509.067 687.69 508.419 686.054 507.18C679.811 506.199 671.727 503.775 669.281 497.746C667.618 491.117 666.545 484.353 666.076 477.534L666.036 474.719L665.986 474.717Z" fill="white"/>
</g>
<path d="M819.797 453.764C819.797 448.54 822.249 444.306 825.273 444.306C828.297 444.306 830.748 448.54 830.748 453.764L830.748 482.137C830.748 487.361 828.297 491.595 825.273 491.595C822.249 491.595 819.797 487.361 819.797 482.137L819.797 453.764Z" fill="#333333"/>
<path d="M819.797 442.381C819.797 439.357 822.249 436.905 825.273 436.905C828.297 436.905 830.748 439.357 830.748 442.381L830.748 453.332C830.748 456.356 828.297 458.807 825.273 458.807C822.249 458.807 819.797 456.356 819.797 453.332L819.797 442.381Z" fill="#333333"/>
<path d="M666.482 461.538C666.482 460.026 667.707 458.801 669.219 458.801C670.731 458.801 671.957 460.026 671.957 461.538L671.957 483.44C671.957 484.952 670.731 486.178 669.219 486.178C667.707 486.178 666.482 484.952 666.482 483.44L666.482 461.538Z" fill="#333333"/>
<path d="M819.797 480.707C819.797 477.683 822.249 475.231 825.273 475.231C828.297 475.231 830.748 477.683 830.748 480.707L830.748 491.658C830.748 494.682 828.297 497.133 825.273 497.133C822.249 497.133 819.797 494.682 819.797 491.658L819.797 480.707Z" fill="#333333"/>
<path d="M708.575 472.8L708.619 472.8C708.891 480.437 710.513 487.965 713.41 495.036C714.006 496.71 714.948 498.24 716.175 499.525C717.401 500.811 718.884 501.824 720.528 502.499L720.616 502.499C720.982 502.61 721.358 502.689 721.738 502.735C722.547 502.855 723.372 502.794 724.153 502.554L748.617 492.238C745.107 490.015 743.235 474.525 742.638 468.661C742.638 462.775 742.873 447.181 746.131 444.569L720.747 436.997C719.944 436.845 719.117 436.875 718.327 437.084C717.953 437.17 717.587 437.287 717.232 437.435L717.144 437.451C715.579 438.305 714.21 439.477 713.123 440.892C712.037 442.306 711.258 443.932 710.837 445.664C708.698 453.005 707.872 460.666 708.395 468.294L708.351 468.294C708.389 469.055 708.428 469.8 708.471 470.534C708.515 471.267 708.543 472.012 708.586 472.773L708.575 472.8Z" fill="#333333"/>
<path d="M783.134 444.301L784.739 475.045L785.686 493.634L785.746 494.801C790.8 500.824 802.222 500.511 809.756 499.509L806.493 436.553C798.898 436.405 787.509 437.341 783.112 443.89L783.134 444.301Z" fill="#333333"/>
<path d="M785.901 431.426L732.187 431.426C732.187 431.426 755.354 442.377 761.64 442.377C767.926 442.377 792.215 431.426 785.901 431.426Z" fill="#333333"/>
<path d="M785.875 508.081L732.162 508.081C732.162 508.081 756.117 497.13 762.402 497.13C768.688 497.13 792.189 508.081 785.875 508.081Z" fill="#333333"/>
</g>
<rect width="200" height="200" rx="11" transform="matrix(-1 0 0 1 850.715 807)" fill="#5B67EC" fill-opacity="0.2"/>
<g opacity="0.5">
<g filter="url(#filter8_d_4124_1362)">
<path d="M665.986 914.717L665.833 904.364L665.818 903.462C666.099 896.626 666.984 889.829 668.464 883.149C670.631 877.353 677.961 874.622 684.016 873.348C684.846 872.411 685.866 871.662 687.008 871.151C688.151 870.641 689.389 870.38 690.641 870.387L706.917 870.114C708.953 870.055 710.949 870.683 712.585 871.897L714.966 871.856L722.202 871.732L724.853 864.937L727.316 864.894L726.43 871.668L769.677 870.944C771.274 869.673 773.251 868.975 775.291 868.961L815.062 868.301C817.317 868.228 819.516 869.009 821.221 870.487C826.049 871.123 833.416 872.877 833.999 877.768L834.407 907.292L834.816 936.827C834.392 941.723 827.051 943.728 822.251 944.523C820.592 946.06 818.415 946.916 816.153 946.922L776.382 947.598C774.346 947.657 772.349 947.029 770.713 945.815L727.187 946.545L728.154 952.709L725.691 952.752L723.112 946.609L716.014 946.728L713.593 946.811C712.001 948.052 710.043 948.733 708.024 948.746L691.748 949.019C689.697 949.067 687.69 948.419 686.054 947.18C679.811 946.199 671.727 943.775 669.281 937.746C667.618 931.117 666.545 924.353 666.076 917.534L666.036 914.719L665.986 914.717Z" fill="white"/>
</g>
<g filter="url(#filter9_d_4124_1362)">
<path d="M665.986 914.717L665.833 904.364L665.818 903.462C666.099 896.626 666.984 889.829 668.464 883.149C670.631 877.353 677.961 874.622 684.016 873.348C684.846 872.411 685.866 871.662 687.008 871.151C688.151 870.641 689.389 870.38 690.641 870.387L706.917 870.114C708.953 870.055 710.949 870.683 712.585 871.897L714.966 871.856L722.202 871.732L724.853 864.937L727.316 864.894L726.43 871.668L769.677 870.944C771.274 869.673 773.251 868.975 775.291 868.961L815.062 868.301C817.317 868.228 819.516 869.009 821.221 870.487C826.049 871.123 833.416 872.877 833.999 877.768L834.407 907.292L834.816 936.827C834.392 941.723 827.051 943.728 822.251 944.523C820.592 946.06 818.415 946.916 816.153 946.922L776.382 947.598C774.346 947.657 772.349 947.029 770.713 945.815L727.187 946.545L728.154 952.709L725.691 952.752L723.112 946.609L716.014 946.728L713.593 946.811C712.001 948.052 710.043 948.733 708.024 948.746L691.748 949.019C689.697 949.067 687.69 948.419 686.054 947.18C679.811 946.199 671.727 943.775 669.281 937.746C667.618 931.117 666.545 924.353 666.076 917.534L666.036 914.719L665.986 914.717Z" fill="white"/>
</g>
<path d="M819.797 893.764C819.797 888.54 822.249 884.306 825.273 884.306C828.297 884.306 830.748 888.54 830.748 893.764L830.748 922.137C830.748 927.361 828.297 931.595 825.273 931.595C822.249 931.595 819.797 927.361 819.797 922.137L819.797 893.764Z" fill="#333333"/>
<path d="M819.797 882.381C819.797 879.357 822.249 876.905 825.273 876.905C828.297 876.905 830.748 879.357 830.748 882.381L830.748 893.332C830.748 896.356 828.297 898.807 825.273 898.807C822.249 898.807 819.797 896.356 819.797 893.332L819.797 882.381Z" fill="#333333"/>
<path d="M666.482 901.538C666.482 900.026 667.707 898.801 669.219 898.801C670.731 898.801 671.957 900.026 671.957 901.538L671.957 923.44C671.957 924.952 670.731 926.178 669.219 926.178C667.707 926.178 666.482 924.952 666.482 923.44L666.482 901.538Z" fill="#333333"/>
<path d="M819.797 920.707C819.797 917.683 822.249 915.231 825.273 915.231C828.297 915.231 830.748 917.683 830.748 920.707L830.748 931.658C830.748 934.682 828.297 937.133 825.273 937.133C822.249 937.133 819.797 934.682 819.797 931.658L819.797 920.707Z" fill="#333333"/>
<path d="M708.575 912.8L708.619 912.8C708.891 920.437 710.513 927.965 713.41 935.036C714.006 936.71 714.948 938.24 716.175 939.525C717.401 940.811 718.884 941.824 720.528 942.499L720.616 942.499C720.982 942.61 721.358 942.689 721.738 942.735C722.547 942.855 723.372 942.794 724.153 942.554L748.617 932.238C745.107 930.015 743.235 914.525 742.638 908.661C742.638 902.775 742.873 887.181 746.131 884.569L720.747 876.997C719.944 876.845 719.117 876.875 718.327 877.084C717.953 877.17 717.587 877.287 717.232 877.435L717.144 877.451C715.579 878.305 714.21 879.477 713.123 880.892C712.037 882.306 711.258 883.932 710.837 885.664C708.698 893.005 707.872 900.666 708.395 908.294L708.351 908.294C708.389 909.055 708.428 909.8 708.471 910.534C708.515 911.267 708.543 912.012 708.586 912.773L708.575 912.8Z" fill="#333333"/>
<path d="M783.134 884.301L784.739 915.045L785.686 933.634L785.746 934.801C790.8 940.824 802.222 940.511 809.756 939.509L806.493 876.553C798.898 876.405 787.509 877.341 783.112 883.89L783.134 884.301Z" fill="#333333"/>
<path d="M785.901 871.426L732.187 871.426C732.187 871.426 755.354 882.377 761.64 882.377C767.926 882.377 792.215 871.426 785.901 871.426Z" fill="#333333"/>
<path d="M785.875 948.081L732.162 948.081C732.162 948.081 756.117 937.13 762.402 937.13C768.688 937.13 792.189 948.081 785.875 948.081Z" fill="#333333"/>
</g>
<rect x="650.717" y="587" width="200" height="200" rx="11" fill="#5B67EC" fill-opacity="0.2" stroke="#5B67EC" stroke-width="8"/>
<g opacity="0.5">
<g filter="url(#filter10_d_4124_1362)">
<path d="M665.986 691.145L665.833 680.792L665.818 679.89C666.099 673.054 666.984 666.257 668.464 659.577C670.631 653.78 677.961 651.05 684.016 649.776C684.846 648.839 685.866 648.09 687.008 647.579C688.151 647.068 689.389 646.808 690.641 646.815L706.917 646.542C708.953 646.483 710.949 647.111 712.585 648.325L714.966 648.284L722.202 648.16L724.853 641.365L727.316 641.322L726.43 648.096L769.677 647.372C771.274 646.101 773.251 645.403 775.291 645.388L815.062 644.729C817.317 644.656 819.516 645.437 821.221 646.915C826.049 647.55 833.416 649.305 833.999 654.196L834.407 683.72L834.816 713.255C834.392 718.151 827.051 720.156 822.251 720.951C820.592 722.488 818.415 723.344 816.153 723.349L776.382 724.026C774.346 724.085 772.349 723.457 770.713 722.243L727.187 722.973L728.154 729.137L725.691 729.18L723.112 723.037L716.014 723.155L713.593 723.238C712.001 724.48 710.043 725.161 708.024 725.174L691.748 725.447C689.697 725.495 687.69 724.846 686.054 723.608C679.811 722.627 671.727 720.202 669.281 714.174C667.618 707.545 666.545 700.781 666.076 693.962L666.036 691.147L665.986 691.145Z" fill="#5B67EC"/>
</g>
<g filter="url(#filter11_d_4124_1362)">
<path d="M665.986 691.145L665.833 680.792L665.818 679.89C666.099 673.054 666.984 666.257 668.464 659.577C670.631 653.78 677.961 651.05 684.016 649.776C684.846 648.839 685.866 648.09 687.008 647.579C688.151 647.068 689.389 646.808 690.641 646.815L706.917 646.542C708.953 646.483 710.949 647.111 712.585 648.325L714.966 648.284L722.202 648.16L724.853 641.365L727.316 641.322L726.43 648.096L769.677 647.372C771.274 646.101 773.251 645.403 775.291 645.388L815.062 644.729C817.317 644.656 819.516 645.437 821.221 646.915C826.049 647.55 833.416 649.305 833.999 654.196L834.407 683.72L834.816 713.255C834.392 718.151 827.051 720.156 822.251 720.951C820.592 722.488 818.415 723.344 816.153 723.349L776.382 724.026C774.346 724.085 772.349 723.457 770.713 722.243L727.187 722.973L728.154 729.137L725.691 729.18L723.112 723.037L716.014 723.155L713.593 723.238C712.001 724.48 710.043 725.161 708.024 725.174L691.748 725.447C689.697 725.495 687.69 724.846 686.054 723.608C679.811 722.627 671.727 720.202 669.281 714.174C667.618 707.545 666.545 700.781 666.076 693.962L666.036 691.147L665.986 691.145Z" fill="#5B67EC"/>
</g>
<path d="M819.797 670.192C819.797 664.969 822.249 660.734 825.273 660.734C828.297 660.734 830.748 664.969 830.748 670.192L830.748 698.566C830.748 703.789 828.297 708.024 825.273 708.024C822.249 708.024 819.797 703.789 819.797 698.566L819.797 670.192Z" fill="#333333"/>
<path d="M819.797 658.809C819.797 655.785 822.249 653.334 825.273 653.334C828.297 653.334 830.748 655.785 830.748 658.809L830.748 669.76C830.748 672.784 828.297 675.236 825.273 675.236C822.249 675.236 819.797 672.784 819.797 669.76L819.797 658.809Z" fill="#333333"/>
<path d="M666.481 677.966C666.481 676.454 667.706 675.229 669.218 675.229C670.73 675.229 671.956 676.454 671.956 677.966L671.956 699.868C671.956 701.38 670.73 702.606 669.218 702.606C667.706 702.606 666.481 701.38 666.481 699.868L666.481 677.966Z" fill="#333333"/>
<path d="M819.797 697.135C819.797 694.111 822.249 691.659 825.273 691.659C828.297 691.659 830.748 694.111 830.748 697.135L830.748 708.085C830.748 711.109 828.297 713.561 825.273 713.561C822.249 713.561 819.797 711.109 819.797 708.085L819.797 697.135Z" fill="#333333"/>
<path d="M708.574 689.229L708.618 689.229C708.89 696.866 710.512 704.394 713.409 711.465C714.005 713.139 714.947 714.668 716.174 715.954C717.4 717.24 718.883 718.253 720.527 718.928L720.615 718.928C720.981 719.039 721.357 719.118 721.737 719.163C722.546 719.284 723.371 719.222 724.152 718.983L748.616 708.667C745.106 706.444 743.234 690.954 742.637 685.09C742.637 679.204 742.872 663.61 746.13 660.998L720.746 653.425C719.943 653.274 719.116 653.303 718.326 653.513C717.952 653.599 717.586 653.716 717.231 653.863L717.143 653.88C715.578 654.734 714.209 655.906 713.122 657.32C712.036 658.735 711.257 660.36 710.836 662.093C708.697 669.434 707.871 677.095 708.394 684.723L708.35 684.723C708.388 685.484 708.427 686.229 708.47 686.962C708.514 687.696 708.542 688.441 708.585 689.202L708.574 689.229Z" fill="#333333"/>
<path d="M783.134 660.728L784.739 691.473L785.686 710.062L785.746 711.228C790.8 717.251 802.222 716.939 809.756 715.937L806.493 652.981C798.898 652.833 787.509 653.769 783.112 660.318L783.134 660.728Z" fill="#333333"/>
<path d="M785.901 647.854L732.187 647.854C732.187 647.854 755.354 658.804 761.64 658.804C767.926 658.804 792.215 647.854 785.901 647.854Z" fill="#333333"/>
<path d="M785.876 724.509L732.163 724.509C732.163 724.509 756.118 713.559 762.403 713.559C768.689 713.559 792.19 724.509 785.876 724.509Z" fill="#333333"/>
</g>
<circle cx="750.716" cy="686.999" r="34.7143" fill="#5B67EC" stroke="#5B67EC" stroke-width="2"/>
<path d="M734.646 685.214L747.146 695.928L766.788 676.285" stroke="white" stroke-width="8" stroke-linecap="round" stroke-linejoin="round"/>
</g>
<defs>
<filter id="filter0_d_4124_1362" x="73.6009" y="422.888" width="177.021" height="95.8812" filterUnits="userSpaceOnUse" color-interpolation-filters="sRGB">
<feFlood flood-opacity="0" result="BackgroundImageFix"/>
<feColorMatrix in="SourceAlpha" type="matrix" values="0 0 0 0 0 0 0 0 0 0 0 0 0 0 0 0 0 0 127 0" result="hardAlpha"/>
<feOffset dy="2.00569"/>
<feGaussianBlur stdDeviation="2.00569"/>
<feColorMatrix type="matrix" values="0 0 0 0 0 0 0 0 0 0 0 0 0 0 0 0 0 0 0.2 0"/>
<feBlend mode="normal" in2="BackgroundImageFix" result="effect1_dropShadow_4124_1362"/>
<feBlend mode="normal" in="SourceGraphic" in2="effect1_dropShadow_4124_1362" result="shape"/>
</filter>
<filter id="filter1_d_4124_1362" x="73.6009" y="422.888" width="177.021" height="95.8812" filterUnits="userSpaceOnUse" color-interpolation-filters="sRGB">
<feFlood flood-opacity="0" result="BackgroundImageFix"/>
<feColorMatrix in="SourceAlpha" type="matrix" values="0 0 0 0 0 0 0 0 0 0 0 0 0 0 0 0 0 0 127 0" result="hardAlpha"/>
<feOffset dy="2.00569"/>
<feGaussianBlur stdDeviation="2.00569"/>
<feColorMatrix type="matrix" values="0 0 0 0 0 0 0 0 0 0 0 0 0 0 0 0 0 0 0.2 0"/>
<feBlend mode="normal" in2="BackgroundImageFix" result="effect1_dropShadow_4124_1362"/>
<feBlend mode="normal" in="SourceGraphic" in2="effect1_dropShadow_4124_1362" result="shape"/>
</filter>
<filter id="filter2_d_4124_1362" x="73.6009" y="1082.89" width="177.021" height="95.8812" filterUnits="userSpaceOnUse" color-interpolation-filters="sRGB">
<feFlood flood-opacity="0" result="BackgroundImageFix"/>
<feColorMatrix in="SourceAlpha" type="matrix" values="0 0 0 0 0 0 0 0 0 0 0 0 0 0 0 0 0 0 127 0" result="hardAlpha"/>
<feOffset dy="2.00569"/>
<feGaussianBlur stdDeviation="2.00569"/>
<feColorMatrix type="matrix" values="0 0 0 0 0 0 0 0 0 0 0 0 0 0 0 0 0 0 0.2 0"/>
<feBlend mode="normal" in2="BackgroundImageFix" result="effect1_dropShadow_4124_1362"/>
<feBlend mode="normal" in="SourceGraphic" in2="effect1_dropShadow_4124_1362" result="shape"/>
</filter>
<filter id="filter3_d_4124_1362" x="73.6009" y="1082.89" width="177.021" height="95.8812" filterUnits="userSpaceOnUse" color-interpolation-filters="sRGB">
<feFlood flood-opacity="0" result="BackgroundImageFix"/>
<feColorMatrix in="SourceAlpha" type="matrix" values="0 0 0 0 0 0 0 0 0 0 0 0 0 0 0 0 0 0 127 0" result="hardAlpha"/>
<feOffset dy="2.00569"/>
<feGaussianBlur stdDeviation="2.00569"/>
<feColorMatrix type="matrix" values="0 0 0 0 0 0 0 0 0 0 0 0 0 0 0 0 0 0 0.2 0"/>
<feBlend mode="normal" in2="BackgroundImageFix" result="effect1_dropShadow_4124_1362"/>
<feBlend mode="normal" in="SourceGraphic" in2="effect1_dropShadow_4124_1362" result="shape"/>
</filter>
<filter id="filter4_d_4124_1362" x="73.6009" y="862.888" width="177.021" height="95.8812" filterUnits="userSpaceOnUse" color-interpolation-filters="sRGB">
<feFlood flood-opacity="0" result="BackgroundImageFix"/>
<feColorMatrix in="SourceAlpha" type="matrix" values="0 0 0 0 0 0 0 0 0 0 0 0 0 0 0 0 0 0 127 0" result="hardAlpha"/>
<feOffset dy="2.00569"/>
<feGaussianBlur stdDeviation="2.00569"/>
<feColorMatrix type="matrix" values="0 0 0 0 0 0 0 0 0 0 0 0 0 0 0 0 0 0 0.2 0"/>
<feBlend mode="normal" in2="BackgroundImageFix" result="effect1_dropShadow_4124_1362"/>
<feBlend mode="normal" in="SourceGraphic" in2="effect1_dropShadow_4124_1362" result="shape"/>
</filter>
<filter id="filter5_d_4124_1362" x="73.6009" y="862.888" width="177.021" height="95.8812" filterUnits="userSpaceOnUse" color-interpolation-filters="sRGB">
<feFlood flood-opacity="0" result="BackgroundImageFix"/>
<feColorMatrix in="SourceAlpha" type="matrix" values="0 0 0 0 0 0 0 0 0 0 0 0 0 0 0 0 0 0 127 0" result="hardAlpha"/>
<feOffset dy="2.00569"/>
<feGaussianBlur stdDeviation="2.00569"/>
<feColorMatrix type="matrix" values="0 0 0 0 0 0 0 0 0 0 0 0 0 0 0 0 0 0 0.2 0"/>
<feBlend mode="normal" in2="BackgroundImageFix" result="effect1_dropShadow_4124_1362"/>
<feBlend mode="normal" in="SourceGraphic" in2="effect1_dropShadow_4124_1362" result="shape"/>
</filter>
<filter id="filter6_d_4124_1362" x="661.807" y="422.888" width="177.021" height="95.8812" filterUnits="userSpaceOnUse" color-interpolation-filters="sRGB">
<feFlood flood-opacity="0" result="BackgroundImageFix"/>
<feColorMatrix in="SourceAlpha" type="matrix" values="0 0 0 0 0 0 0 0 0 0 0 0 0 0 0 0 0 0 127 0" result="hardAlpha"/>
<feOffset dy="2.00569"/>
<feGaussianBlur stdDeviation="2.00569"/>
<feColorMatrix type="matrix" values="0 0 0 0 0 0 0 0 0 0 0 0 0 0 0 0 0 0 0.2 0"/>
<feBlend mode="normal" in2="BackgroundImageFix" result="effect1_dropShadow_4124_1362"/>
<feBlend mode="normal" in="SourceGraphic" in2="effect1_dropShadow_4124_1362" result="shape"/>
</filter>
<filter id="filter7_d_4124_1362" x="661.807" y="422.888" width="177.021" height="95.8812" filterUnits="userSpaceOnUse" color-interpolation-filters="sRGB">
<feFlood flood-opacity="0" result="BackgroundImageFix"/>
<feColorMatrix in="SourceAlpha" type="matrix" values="0 0 0 0 0 0 0 0 0 0 0 0 0 0 0 0 0 0 127 0" result="hardAlpha"/>
<feOffset dy="2.00569"/>
<feGaussianBlur stdDeviation="2.00569"/>
<feColorMatrix type="matrix" values="0 0 0 0 0 0 0 0 0 0 0 0 0 0 0 0 0 0 0.2 0"/>
<feBlend mode="normal" in2="BackgroundImageFix" result="effect1_dropShadow_4124_1362"/>
<feBlend mode="normal" in="SourceGraphic" in2="effect1_dropShadow_4124_1362" result="shape"/>
</filter>
<filter id="filter8_d_4124_1362" x="661.807" y="862.888" width="177.021" height="95.8812" filterUnits="userSpaceOnUse" color-interpolation-filters="sRGB">
<feFlood flood-opacity="0" result="BackgroundImageFix"/>
<feColorMatrix in="SourceAlpha" type="matrix" values="0 0 0 0 0 0 0 0 0 0 0 0 0 0 0 0 0 0 127 0" result="hardAlpha"/>
<feOffset dy="2.00569"/>
<feGaussianBlur stdDeviation="2.00569"/>
<feColorMatrix type="matrix" values="0 0 0 0 0 0 0 0 0 0 0 0 0 0 0 0 0 0 0.2 0"/>
<feBlend mode="normal" in2="BackgroundImageFix" result="effect1_dropShadow_4124_1362"/>
<feBlend mode="normal" in="SourceGraphic" in2="effect1_dropShadow_4124_1362" result="shape"/>
</filter>
<filter id="filter9_d_4124_1362" x="661.807" y="862.888" width="177.021" height="95.8812" filterUnits="userSpaceOnUse" color-interpolation-filters="sRGB">
<feFlood flood-opacity="0" result="BackgroundImageFix"/>
<feColorMatrix in="SourceAlpha" type="matrix" values="0 0 0 0 0 0 0 0 0 0 0 0 0 0 0 0 0 0 127 0" result="hardAlpha"/>
<feOffset dy="2.00569"/>
<feGaussianBlur stdDeviation="2.00569"/>
<feColorMatrix type="matrix" values="0 0 0 0 0 0 0 0 0 0 0 0 0 0 0 0 0 0 0.2 0"/>
<feBlend mode="normal" in2="BackgroundImageFix" result="effect1_dropShadow_4124_1362"/>
<feBlend mode="normal" in="SourceGraphic" in2="effect1_dropShadow_4124_1362" result="shape"/>
</filter>
<filter id="filter10_d_4124_1362" x="661.807" y="639.316" width="177.021" height="95.8812" filterUnits="userSpaceOnUse" color-interpolation-filters="sRGB">
<feFlood flood-opacity="0" result="BackgroundImageFix"/>
<feColorMatrix in="SourceAlpha" type="matrix" values="0 0 0 0 0 0 0 0 0 0 0 0 0 0 0 0 0 0 127 0" result="hardAlpha"/>
<feOffset dy="2.00569"/>
<feGaussianBlur stdDeviation="2.00569"/>
<feColorMatrix type="matrix" values="0 0 0 0 0 0 0 0 0 0 0 0 0 0 0 0 0 0 0.2 0"/>
<feBlend mode="normal" in2="BackgroundImageFix" result="effect1_dropShadow_4124_1362"/>
<feBlend mode="normal" in="SourceGraphic" in2="effect1_dropShadow_4124_1362" result="shape"/>
</filter>
<filter id="filter11_d_4124_1362" x="661.807" y="639.316" width="177.021" height="95.8812" filterUnits="userSpaceOnUse" color-interpolation-filters="sRGB">
<feFlood flood-opacity="0" result="BackgroundImageFix"/>
<feColorMatrix in="SourceAlpha" type="matrix" values="0 0 0 0 0 0 0 0 0 0 0 0 0 0 0 0 0 0 127 0" result="hardAlpha"/>
<feOffset dy="2.00569"/>
<feGaussianBlur stdDeviation="2.00569"/>
<feColorMatrix type="matrix" values="0 0 0 0 0 0 0 0 0 0 0 0 0 0 0 0 0 0 0.2 0"/>
<feBlend mode="normal" in2="BackgroundImageFix" result="effect1_dropShadow_4124_1362"/>
<feBlend mode="normal" in="SourceGraphic" in2="effect1_dropShadow_4124_1362" result="shape"/>
</filter>
<clipPath id="clip0_4124_1362">
<rect width="917" height="1575" fill="white"/>
</clipPath>
</defs>
</svg>
