<svg width="180" height="52" viewBox="0 0 180 52" fill="none" xmlns="http://www.w3.org/2000/svg">
<rect x="0.5" y="0.5" width="178.75" height="51" rx="8.5" fill="url(#paint0_linear_4133_12517)"/>
<rect x="0.5" y="0.5" width="178.75" height="51" rx="8.5" stroke="white"/>
<path d="M40.1148 26.6371C40.0761 22.4472 43.6335 20.4088 43.7961 20.3139C41.7815 17.45 38.6588 17.0587 37.5615 17.0275C34.9388 16.7584 32.3948 18.5576 31.0588 18.5576C29.6961 18.5576 27.6388 17.0535 25.4215 17.0977C22.5681 17.1406 19.8988 18.7513 18.4348 21.2525C15.4135 26.3524 17.6668 33.8469 20.5615 37.9692C22.0095 39.9881 23.7015 42.2423 25.9161 42.163C28.0828 42.0759 28.8921 40.8162 31.5068 40.8162C34.0975 40.8162 34.8575 42.163 37.1161 42.1123C39.4415 42.0759 40.9055 40.0843 42.3028 38.0472C43.9761 35.7332 44.6481 33.4543 44.6748 33.3373C44.6201 33.3191 40.1588 31.659 40.1148 26.6371Z" fill="white"/>
<path d="M35.8481 14.3157C37.0135 12.8948 37.8108 10.9617 37.5895 9C35.9028 9.0728 33.7935 10.1375 32.5788 11.5272C31.5041 12.7518 30.5441 14.759 30.7921 16.6466C32.6868 16.7844 34.6321 15.7145 35.8481 14.3157Z" fill="white"/>
<path d="M71.4702 32.5538H68.4422L66.7836 27.4721H61.0182L59.4382 32.5538H56.4902L62.2022 15.2534H65.7302L71.4702 32.5538ZM66.2836 25.3401L64.7836 20.8226C64.6249 20.3611 64.3276 19.2743 63.8889 17.5635H63.8356C63.6609 18.2993 63.3796 19.3861 62.9929 20.8226L61.5196 25.3401H66.2836Z" fill="white"/>
<path d="M86.1592 26.1631C86.1592 28.2847 85.5712 29.9617 84.3952 31.1928C83.3419 32.2887 82.0339 32.836 80.4726 32.836C78.7872 32.836 77.5766 32.2458 76.8392 31.0654H76.7859V37.6369H73.9432V24.1858C73.9432 22.852 73.9072 21.4831 73.8379 20.0791H76.3379L76.4966 22.0564H76.5499C77.4979 20.5666 78.9366 19.823 80.8672 19.823C82.3766 19.823 83.6366 20.4041 84.6446 21.5676C85.6552 22.7324 86.1592 24.2638 86.1592 26.1631ZM83.2632 26.2645C83.2632 25.0503 82.9832 24.0493 82.4206 23.2615C81.8059 22.4399 80.9806 22.0291 79.9459 22.0291C79.2446 22.0291 78.6072 22.2579 78.0379 22.709C77.4672 23.164 77.0939 23.7581 76.9192 24.4939C76.8312 24.8371 76.7872 25.1179 76.7872 25.3389V27.4189C76.7872 28.3263 77.0726 29.092 77.6432 29.7173C78.2139 30.3426 78.9552 30.6546 79.8672 30.6546C80.9379 30.6546 81.7712 30.2516 82.3672 29.4482C82.9646 28.6435 83.2632 27.5827 83.2632 26.2645Z" fill="white"/>
<path d="M100.875 26.1631C100.875 28.2847 100.287 29.9617 99.1094 31.1928C98.0574 32.2887 96.7494 32.836 95.188 32.836C93.5027 32.836 92.292 32.2458 91.556 31.0654H91.5027V37.6369H88.66V24.1858C88.66 22.852 88.624 21.4831 88.5547 20.0791H91.0547L91.2134 22.0564H91.2667C92.2134 20.5666 93.652 19.823 95.584 19.823C97.092 19.823 98.352 20.4041 99.3627 21.5676C100.369 22.7324 100.875 24.2638 100.875 26.1631ZM97.9787 26.2645C97.9787 25.0503 97.6974 24.0493 97.1347 23.2615C96.52 22.4399 95.6974 22.0291 94.6614 22.0291C93.9587 22.0291 93.3227 22.2579 92.752 22.709C92.1814 23.164 91.8094 23.7581 91.6347 24.4939C91.548 24.8371 91.5027 25.1179 91.5027 25.3389V27.4189C91.5027 28.3263 91.788 29.092 92.356 29.7173C92.9267 30.3413 93.668 30.6546 94.5827 30.6546C95.6534 30.6546 96.4867 30.2516 97.0827 29.4482C97.68 28.6435 97.9787 27.5827 97.9787 26.2645Z" fill="white"/>
<path d="M117.328 27.7023C117.328 29.1739 116.804 30.3712 115.752 31.2955C114.596 32.3056 112.987 32.81 110.919 32.81C109.01 32.81 107.479 32.4512 106.32 31.7323L106.979 29.4222C108.227 30.158 109.596 30.5272 111.088 30.5272C112.159 30.5272 112.992 30.2906 113.591 29.82C114.187 29.3494 114.484 28.7176 114.484 27.9298C114.484 27.2278 114.239 26.6363 113.747 26.1566C113.258 25.6769 112.44 25.231 111.299 24.8189C108.192 23.6892 106.64 22.0343 106.64 19.8581C106.64 18.4359 107.184 17.2698 108.274 16.3624C109.359 15.4537 110.807 15 112.618 15C114.232 15 115.574 15.2743 116.644 15.8216L115.934 18.081C114.934 17.5506 113.803 17.2854 112.538 17.2854C111.538 17.2854 110.756 17.5259 110.196 18.0043C109.723 18.432 109.486 18.9533 109.486 19.5708C109.486 20.2546 109.756 20.8201 110.3 21.2647C110.774 21.6755 111.634 22.1201 112.882 22.5998C114.408 23.1991 115.53 23.8998 116.251 24.7032C116.97 25.504 117.328 26.5063 117.328 27.7023Z" fill="white"/>
<path d="M126.728 22.159H123.594V28.2157C123.594 29.7562 124.146 30.5258 125.253 30.5258C125.761 30.5258 126.182 30.4829 126.516 30.3971L126.594 32.5018C126.034 32.7059 125.297 32.8086 124.384 32.8086C123.261 32.8086 122.384 32.4745 121.75 31.8076C121.12 31.1394 120.802 30.0188 120.802 28.4445V22.1564H118.936V20.0764H120.802V17.7923L123.594 16.9707V20.0764H126.728V22.159Z" fill="white"/>
<path d="M140.864 26.2137C140.864 28.1312 140.301 29.7055 139.179 30.9366C138.001 32.2041 136.439 32.8359 134.491 32.8359C132.613 32.8359 131.119 32.2288 130.004 31.0146C128.889 29.8004 128.332 28.2677 128.332 26.4204C128.332 24.4873 128.905 22.9039 130.056 21.6728C131.204 20.4404 132.753 19.8242 134.701 19.8242C136.579 19.8242 138.089 20.4313 139.229 21.6468C140.32 22.8259 140.864 24.3482 140.864 26.2137ZM137.915 26.3034C137.915 25.1529 137.663 24.1662 137.152 23.3433C136.556 22.3475 135.704 21.8509 134.6 21.8509C133.457 21.8509 132.589 22.3488 131.993 23.3433C131.483 24.1675 131.231 25.1698 131.231 26.3554C131.231 27.5059 131.483 28.4926 131.993 29.3142C132.608 30.31 133.467 30.8066 134.575 30.8066C135.66 30.8066 136.512 30.2996 137.127 29.2882C137.651 28.4497 137.915 27.4526 137.915 26.3034Z" fill="white"/>
<path d="M150.105 22.5166C149.824 22.4659 149.524 22.4399 149.209 22.4399C148.209 22.4399 147.436 22.8078 146.892 23.5449C146.418 24.1949 146.181 25.0165 146.181 26.0084V32.5539H143.34L143.366 24.0077C143.366 22.5699 143.33 21.2608 143.26 20.0804H145.736L145.84 22.4672H145.918C146.218 21.6469 146.692 20.9865 147.34 20.4912C147.973 20.0453 148.657 19.823 149.394 19.823C149.657 19.823 149.894 19.8412 150.105 19.8737V22.5166Z" fill="white"/>
<path d="M162.818 25.7263C162.818 26.2229 162.785 26.6415 162.714 26.9834H154.186C154.219 28.2158 154.631 29.1583 155.423 29.8083C156.142 30.3894 157.071 30.6806 158.213 30.6806C159.475 30.6806 160.627 30.4843 161.663 30.0904L162.109 32.0144C160.898 32.5292 159.469 32.7853 157.819 32.7853C155.835 32.7853 154.278 32.2159 153.145 31.0784C152.014 29.9409 151.447 28.4134 151.447 26.4972C151.447 24.6161 151.974 23.0496 153.029 21.8003C154.133 20.4665 155.625 19.7996 157.502 19.7996C159.346 19.7996 160.742 20.4665 161.69 21.8003C162.441 22.8598 162.818 24.1702 162.818 25.7263ZM160.107 25.0074C160.126 24.1858 159.941 23.476 159.555 22.8767C159.063 22.1058 158.307 21.721 157.29 21.721C156.361 21.721 155.605 22.0967 155.027 22.8507C154.554 23.45 154.273 24.1689 154.186 25.0061H160.107V25.0074Z" fill="white"/>
<defs>
<linearGradient id="paint0_linear_4133_12517" x1="-24.5" y1="26" x2="206.5" y2="26" gradientUnits="userSpaceOnUse">
<stop stop-color="white" stop-opacity="0.4"/>
<stop offset="1" stop-color="white" stop-opacity="0.07"/>
</linearGradient>
</defs>
</svg>
