<svg width="180" height="52" viewBox="0 0 180 52" fill="none" xmlns="http://www.w3.org/2000/svg">
<path d="M179 46.0219C179 48.7931 176.709 51.0377 173.874 51.0377H6.13243C3.2995 51.0377 1 48.7931 1 46.0219V6.02237C1 3.25254 3.2995 1 6.13243 1H173.873C176.709 1 178.999 3.25254 178.999 6.02237L179 46.0219Z" fill="url(#paint0_linear_4132_14420)"/>
<path d="M173.333 1.04162C176.42 1.04162 178.932 3.4905 178.932 6.5V45.5C178.932 48.5095 176.42 50.9584 173.333 50.9584H6.66667C3.58 50.9584 1.06833 48.5095 1.06833 45.5V6.5C1.06833 3.4905 3.58 1.04162 6.66667 1.04162H173.333ZM173.333 2.74817e-06H6.66667C3.00167 2.74817e-06 0 2.92663 0 6.5V45.5C0 49.0734 3.00167 52 6.66667 52H173.333C176.998 52 180 49.0734 180 45.5V6.5C180 2.92663 176.998 2.74817e-06 173.333 2.74817e-06Z" fill="white"/>
<path d="M40.1714 26.6371C40.1328 22.4472 43.6901 20.4088 43.8528 20.3139C41.8381 17.45 38.7154 17.0587 37.6181 17.0275C34.9954 16.7584 32.4514 18.5576 31.1154 18.5576C29.7528 18.5576 27.6954 17.0535 25.4781 17.0977C22.6248 17.1406 19.9554 18.7513 18.4914 21.2525C15.4701 26.3524 17.7234 33.8469 20.6181 37.9692C22.0661 39.9881 23.7581 42.2423 25.9728 42.163C28.1394 42.0759 28.9488 40.8162 31.5634 40.8162C34.1541 40.8162 34.9141 42.163 37.1728 42.1123C39.4981 42.0759 40.9621 40.0843 42.3594 38.0472C44.0328 35.7332 44.7048 33.4543 44.7314 33.3373C44.6768 33.3191 40.2154 31.659 40.1714 26.6371Z" fill="white"/>
<path d="M35.9048 14.3157C37.0701 12.8948 37.8674 10.9617 37.6461 9C35.9594 9.0728 33.8501 10.1375 32.6354 11.5272C31.5608 12.7518 30.6008 14.759 30.8488 16.6466C32.7434 16.7844 34.6888 15.7145 35.9048 14.3157Z" fill="white"/>
<path d="M71.5269 32.5538H68.4989L66.8402 27.4721H61.0749L59.4949 32.5538H56.5469L62.2589 15.2534H65.7869L71.5269 32.5538ZM66.3402 25.3401L64.8402 20.8226C64.6815 20.3611 64.3842 19.2743 63.9455 17.5635H63.8922C63.7175 18.2993 63.4362 19.3861 63.0495 20.8226L61.5762 25.3401H66.3402V25.3401Z" fill="white"/>
<path d="M86.2159 26.1631C86.2159 28.2847 85.6279 29.9617 84.4519 31.1928C83.3985 32.2887 82.0905 32.836 80.5292 32.836C78.8439 32.836 77.6332 32.2458 76.8959 31.0654H76.8425V37.6369H73.9999V24.1858C73.9999 22.852 73.9639 21.4831 73.8945 20.0791H76.3945L76.5532 22.0564H76.6065C77.5545 20.5666 78.9932 19.823 80.9239 19.823C82.4332 19.823 83.6932 20.4041 84.7012 21.5676C85.7119 22.7324 86.2159 24.2638 86.2159 26.1631ZM83.3199 26.2645C83.3199 25.0503 83.0399 24.0493 82.4772 23.2615C81.8625 22.4399 81.0372 22.0291 80.0025 22.0291C79.3012 22.0291 78.6639 22.2579 78.0945 22.709C77.5239 23.164 77.1505 23.7581 76.9759 24.4939C76.8879 24.8371 76.8439 25.1179 76.8439 25.3389V27.4189C76.8439 28.3263 77.1292 29.092 77.6999 29.7173C78.2705 30.3426 79.0119 30.6546 79.9239 30.6546C80.9945 30.6546 81.8279 30.2516 82.4239 29.4482C83.0212 28.6435 83.3199 27.5827 83.3199 26.2645Z" fill="white"/>
<path d="M100.931 26.1631C100.931 28.2847 100.343 29.9617 99.166 31.1928C98.114 32.2887 96.806 32.836 95.2447 32.836C93.5593 32.836 92.3487 32.2458 91.6127 31.0654H91.5593V37.6369H88.7167V24.1858C88.7167 22.852 88.6807 21.4831 88.6113 20.0791H91.1113L91.27 22.0564H91.3233C92.27 20.5666 93.7087 19.823 95.6407 19.823C97.1487 19.823 98.4087 20.4041 99.4193 21.5676C100.426 22.7324 100.931 24.2638 100.931 26.1631ZM98.0353 26.2645C98.0353 25.0503 97.754 24.0493 97.1913 23.2615C96.5767 22.4399 95.754 22.0291 94.718 22.0291C94.0153 22.0291 93.3793 22.2579 92.8087 22.709C92.238 23.164 91.866 23.7581 91.6913 24.4939C91.6047 24.8371 91.5593 25.1179 91.5593 25.3389V27.4189C91.5593 28.3263 91.8447 29.092 92.4127 29.7173C92.9833 30.3413 93.7247 30.6546 94.6393 30.6546C95.71 30.6546 96.5433 30.2516 97.1393 29.4482C97.7367 28.6435 98.0353 27.5827 98.0353 26.2645Z" fill="white"/>
<path d="M117.385 27.7023C117.385 29.1739 116.861 30.3712 115.809 31.2955C114.653 32.3056 113.044 32.81 110.976 32.81C109.066 32.81 107.536 32.4512 106.377 31.7323L107.036 29.4222C108.284 30.158 109.653 30.5272 111.145 30.5272C112.216 30.5272 113.049 30.2906 113.648 29.82C114.244 29.3494 114.541 28.7176 114.541 27.9298C114.541 27.2278 114.296 26.6363 113.804 26.1566C113.314 25.6769 112.497 25.231 111.356 24.8189C108.249 23.6892 106.697 22.0343 106.697 19.8581C106.697 18.4359 107.241 17.2698 108.33 16.3624C109.416 15.4537 110.864 15 112.674 15C114.289 15 115.63 15.2743 116.701 15.8216L115.99 18.081C114.99 17.5506 113.86 17.2854 112.594 17.2854C111.594 17.2854 110.813 17.5259 110.253 18.0043C109.78 18.432 109.542 18.9533 109.542 19.5708C109.542 20.2546 109.813 20.8201 110.357 21.2647C110.83 21.6755 111.69 22.1201 112.938 22.5998C114.465 23.1991 115.586 23.8998 116.308 24.7032C117.026 25.504 117.385 26.5063 117.385 27.7023Z" fill="white"/>
<path d="M126.784 22.159H123.651V28.2157C123.651 29.7562 124.203 30.5258 125.31 30.5258C125.818 30.5258 126.239 30.4829 126.572 30.3971L126.651 32.5018C126.091 32.7059 125.354 32.8086 124.44 32.8086C123.318 32.8086 122.44 32.4745 121.807 31.8076C121.176 31.1394 120.859 30.0188 120.859 28.4445V22.1564H118.992V20.0764H120.859V17.7923L123.651 16.9707V20.0764H126.784V22.159Z" fill="white"/>
<path d="M140.921 26.2137C140.921 28.1312 140.358 29.7055 139.235 30.9366C138.058 32.2041 136.495 32.8359 134.547 32.8359C132.67 32.8359 131.175 32.2288 130.061 31.0146C128.946 29.8004 128.389 28.2677 128.389 26.4204C128.389 24.4873 128.962 22.9039 130.113 21.6728C131.261 20.4404 132.81 19.8242 134.758 19.8242C136.635 19.8242 138.146 20.4313 139.286 21.6468C140.377 22.8259 140.921 24.3482 140.921 26.2137ZM137.971 26.3034C137.971 25.1529 137.719 24.1662 137.209 23.3433C136.613 22.3475 135.761 21.8509 134.657 21.8509C133.514 21.8509 132.646 22.3488 132.05 23.3433C131.539 24.1675 131.287 25.1698 131.287 26.3554C131.287 27.5059 131.539 28.4926 132.05 29.3142C132.665 30.31 133.523 30.8066 134.631 30.8066C135.717 30.8066 136.569 30.2996 137.183 29.2882C137.707 28.4497 137.971 27.4526 137.971 26.3034Z" fill="white"/>
<path d="M150.162 22.5166C149.88 22.4659 149.58 22.4399 149.266 22.4399C148.266 22.4399 147.492 22.8078 146.948 23.5449C146.475 24.1949 146.238 25.0165 146.238 26.0084V32.5539H143.396L143.423 24.0077C143.423 22.5699 143.387 21.2608 143.316 20.0804H145.792L145.896 22.4672H145.975C146.275 21.6469 146.748 20.9865 147.396 20.4912C148.03 20.0453 148.714 19.823 149.451 19.823C149.714 19.823 149.951 19.8412 150.162 19.8737V22.5166Z" fill="white"/>
<path d="M162.875 25.7263C162.875 26.2229 162.841 26.6415 162.771 26.9834H154.243C154.276 28.2158 154.688 29.1583 155.48 29.8083C156.199 30.3894 157.128 30.6806 158.269 30.6806C159.532 30.6806 160.684 30.4843 161.72 30.0904L162.165 32.0144C160.955 32.5292 159.525 32.7853 157.876 32.7853C155.892 32.7853 154.335 32.2159 153.201 31.0784C152.071 29.9409 151.504 28.4134 151.504 26.4972C151.504 24.6161 152.031 23.0496 153.085 21.8003C154.189 20.4665 155.681 19.7996 157.559 19.7996C159.403 19.7996 160.799 20.4665 161.747 21.8003C162.497 22.8598 162.875 24.1702 162.875 25.7263ZM160.164 25.0074C160.183 24.1858 159.997 23.476 159.612 22.8767C159.12 22.1058 158.364 21.721 157.347 21.721C156.417 21.721 155.661 22.0967 155.084 22.8507C154.611 23.45 154.329 24.1689 154.243 25.0061H160.164V25.0074Z" fill="white"/>
<defs>
<linearGradient id="paint0_linear_4132_14420" x1="1" y1="26.0189" x2="179" y2="26.0189" gradientUnits="userSpaceOnUse">
<stop stop-color="white" stop-opacity="0.4"/>
<stop offset="1" stop-color="white" stop-opacity="0.07"/>
</linearGradient>
</defs>
</svg>
