<svg width="277" height="80" viewBox="0 0 277 80" fill="none" xmlns="http://www.w3.org/2000/svg">
<rect x="0.5" y="0.5" width="275.538" height="79" rx="8.5" fill="url(#paint0_linear_4133_12504)"/>
<rect x="0.5" y="0.5" width="275.538" height="79" rx="8.5" stroke="white"/>
<path d="M139.571 32.2731C134.76 32.2731 130.83 35.8481 130.83 40.7806C130.83 45.6731 134.76 49.2856 139.571 49.2856C144.393 49.2856 148.323 45.6731 148.323 40.7806C148.323 35.8481 144.393 32.2731 139.571 32.2731ZM139.571 45.9356C136.931 45.9356 134.66 43.8081 134.66 40.7806C134.66 37.7131 136.931 35.6231 139.571 35.6231C142.211 35.6231 144.493 37.7131 144.493 40.7806C144.493 43.8081 142.211 45.9356 139.571 45.9356V45.9356ZM120.498 32.2731C115.676 32.2731 111.756 35.8481 111.756 40.7806C111.756 45.6731 115.676 49.2856 120.498 49.2856C125.317 49.2856 129.239 45.6731 129.239 40.7806C129.239 35.8481 125.317 32.2731 120.498 32.2731ZM120.498 45.9356C117.855 45.9356 115.576 43.8081 115.576 40.7806C115.576 37.7131 117.855 35.6231 120.498 35.6231C123.138 35.6231 125.409 37.7131 125.409 40.7806C125.409 43.8081 123.138 45.9356 120.498 45.9356ZM97.8007 34.8806V38.4956H106.642C106.384 40.5156 105.692 42.0006 104.632 43.0356C103.342 44.2856 101.332 45.6731 97.8007 45.6731C92.3595 45.6731 88.0987 41.3856 88.0987 36.0731C88.0987 30.7606 92.3595 26.4731 97.8007 26.4731C100.743 26.4731 102.883 27.5956 104.463 29.0506L107.073 26.5031C104.863 24.4431 101.923 22.8606 97.8007 22.8606C90.3392 22.8606 84.0684 28.7881 84.0684 36.0731C84.0684 43.3581 90.3392 49.2856 97.8007 49.2856C101.834 49.2856 104.863 47.9956 107.244 45.5756C109.684 43.1931 110.445 39.8431 110.445 37.1381C110.445 36.2981 110.373 35.5256 110.245 34.8806H97.8007ZM190.611 37.6831C189.892 35.7806 187.672 32.2731 183.15 32.2731C178.669 32.2731 174.938 35.7206 174.938 40.7806C174.938 45.5456 178.63 49.2856 183.58 49.2856C187.582 49.2856 189.892 46.9031 190.842 45.5156L187.872 43.5831C186.881 44.9981 185.531 45.9356 183.58 45.9356C181.642 45.9356 180.251 45.0681 179.36 43.3581L191.013 38.6506L190.611 37.6831V37.6831ZM178.73 40.5156C178.63 37.2356 181.34 35.5556 183.28 35.5556C184.801 35.5556 186.092 36.2981 186.522 37.3606L178.73 40.5156V40.5156ZM169.259 48.7681H173.089V23.7681H169.259V48.7681ZM162.985 34.1681H162.857C161.997 33.1731 160.356 32.2731 158.276 32.2731C153.913 32.2731 149.924 36.0131 149.924 40.8081C149.924 45.5756 153.913 49.2856 158.276 49.2856C160.356 49.2856 161.997 48.3781 162.857 47.3531H162.985V48.5731C162.985 51.8256 161.206 53.5731 158.335 53.5731C155.995 53.5731 154.543 51.9231 153.944 50.5356L150.613 51.8931C151.573 54.1481 154.115 56.9231 158.335 56.9231C162.827 56.9231 166.616 54.3431 166.616 48.0656V32.7906H162.985V34.1681V34.1681ZM158.604 45.9356C155.964 45.9356 153.754 43.7781 153.754 40.8081C153.754 37.8106 155.964 35.6231 158.604 35.6231C161.206 35.6231 163.257 37.8106 163.257 40.8081C163.257 43.7781 161.206 45.9356 158.604 45.9356V45.9356ZM208.546 23.7681H199.384V48.7681H203.204V39.2956H208.546C212.789 39.2956 216.949 36.2981 216.949 31.5306C216.949 26.7656 212.778 23.7681 208.546 23.7681V23.7681ZM208.646 35.8181H203.204V27.2456H208.646C211.498 27.2456 213.127 29.5581 213.127 31.5306C213.127 33.4656 211.498 35.8181 208.646 35.8181ZM232.262 32.2256C229.501 32.2256 226.631 33.4156 225.451 36.0531L228.841 37.4406C229.571 36.0531 230.912 35.6031 232.331 35.6031C234.313 35.6031 236.323 36.7656 236.354 38.8181V39.0806C235.662 38.6906 234.182 38.1131 232.362 38.1131C228.71 38.1131 224.99 40.0756 224.99 43.7381C224.99 47.0881 227.98 49.2456 231.342 49.2456C233.913 49.2456 235.332 48.1131 236.223 46.7956H236.354V48.7281H240.043V39.1381C240.043 34.7056 236.653 32.2256 232.262 32.2256ZM231.801 45.9256C230.551 45.9256 228.81 45.3206 228.81 43.8081C228.81 41.8731 230.981 41.1306 232.861 41.1306C234.543 41.1306 235.332 41.4931 236.354 41.9706C236.054 44.2856 234.013 45.9256 231.801 45.9256V45.9256ZM253.486 32.7731L249.095 43.6106H248.964L244.424 32.7731H240.305L247.126 47.9181L243.234 56.3456H247.226L257.737 32.7731H253.486V32.7731ZM219.049 48.7681H222.88V23.7681H219.049V48.7681Z" fill="white"/>
<path d="M21.3758 14.6401C20.774 15.2551 20.4258 16.2126 20.4258 17.4526V61.6826C20.4258 62.9226 20.774 63.8801 21.3758 64.4951L21.5243 64.6301L46.9098 39.8551V39.2701L21.5243 14.4951L21.3758 14.6401Z" fill="url(#paint1_linear_4133_12504)"/>
<path d="M55.3626 48.1177L46.9102 39.8552V39.2702L55.3729 31.0077L55.5623 31.1152L65.5844 36.6827C68.4446 38.2627 68.4446 40.8627 65.5844 42.4527L55.5623 48.0102L55.3626 48.1177V48.1177Z" fill="url(#paint2_linear_4133_12504)"/>
<path d="M55.5613 48.0102L46.9091 39.5627L21.375 64.4952C22.325 65.4702 23.8741 65.5877 25.6358 64.6127L55.5613 48.0102" fill="url(#paint3_linear_4133_12504)"/>
<path d="M55.5613 31.1152L25.6358 14.5128C23.8741 13.5478 22.325 13.6652 21.375 14.6402L46.9091 39.5627L55.5613 31.1152Z" fill="url(#paint4_linear_4133_12504)"/>
<defs>
<linearGradient id="paint0_linear_4133_12504" x1="-37.6923" y1="40" x2="317.692" y2="40" gradientUnits="userSpaceOnUse">
<stop stop-color="white" stop-opacity="0.4"/>
<stop offset="1" stop-color="white" stop-opacity="0.07"/>
</linearGradient>
<linearGradient id="paint1_linear_4133_12504" x1="44.6559" y1="62.1432" x2="11.1007" y2="27.775" gradientUnits="userSpaceOnUse">
<stop stop-color="#00A0FF"/>
<stop offset="0.0066" stop-color="#00A1FF"/>
<stop offset="0.2601" stop-color="#00BEFF"/>
<stop offset="0.5122" stop-color="#00D2FF"/>
<stop offset="0.7604" stop-color="#00DFFF"/>
<stop offset="1" stop-color="#00E3FF"/>
</linearGradient>
<linearGradient id="paint2_linear_4133_12504" x1="69.3089" y1="39.5599" x2="19.7424" y2="39.5599" gradientUnits="userSpaceOnUse">
<stop stop-color="#FFE000"/>
<stop offset="0.4087" stop-color="#FFBD00"/>
<stop offset="0.7754" stop-color="#FFA500"/>
<stop offset="1" stop-color="#FF9C00"/>
</linearGradient>
<linearGradient id="paint3_linear_4133_12504" x1="50.8565" y1="34.9705" x2="5.35291" y2="-11.6357" gradientUnits="userSpaceOnUse">
<stop stop-color="#FF3A44"/>
<stop offset="1" stop-color="#C31162"/>
</linearGradient>
<linearGradient id="paint4_linear_4133_12504" x1="14.9475" y1="79.2104" x2="35.2669" y2="58.3988" gradientUnits="userSpaceOnUse">
<stop stop-color="#32A071"/>
<stop offset="0.0685" stop-color="#2DA771"/>
<stop offset="0.4762" stop-color="#15CF74"/>
<stop offset="0.8009" stop-color="#06E775"/>
<stop offset="1" stop-color="#00F076"/>
</linearGradient>
</defs>
</svg>
