<svg width="917" height="1575" viewBox="0 0 917 1575" fill="none" xmlns="http://www.w3.org/2000/svg">
<g clip-path="url(#clip0_4186_14200)">
<path d="M36 116C36 69.0558 74.0558 31 121 31H796C842.944 31 881 69.0558 881 116V1655H36V116Z" fill="white" stroke="black" stroke-width="20"/>
<rect x="63" y="587" width="200" height="200" rx="11" fill="#878787" fill-opacity="0.3"/>
<path d="M187.97 687.31C187.97 700.667 176.28 711.62 161.699 711.62C147.118 711.62 135.428 700.667 135.428 687.31C135.428 673.953 147.118 663 161.699 663C176.28 663 187.97 673.953 187.97 687.31Z" fill="#878787" stroke="#878787" stroke-width="2"/>
<path d="M150.793 677.186L172.61 697.434M172.61 677.186L150.793 697.434" stroke="white" stroke-width="1.5" stroke-linecap="round" stroke-linejoin="round"/>
<rect x="61.7139" y="367" width="200" height="200" rx="11" fill="#5B67EC" fill-opacity="0.2"/>
<g opacity="0.5">
<g filter="url(#filter0_d_4186_14200)">
<path d="M246.442 474.718L246.596 464.365L246.611 463.463C246.33 456.627 245.445 449.83 243.965 443.15C241.798 437.354 234.467 434.623 228.413 433.349C227.583 432.412 226.563 431.663 225.42 431.152C224.278 430.642 223.039 430.381 221.788 430.388L205.512 430.115C203.476 430.056 201.479 430.684 199.843 431.898L197.463 431.857L190.226 431.733L187.576 424.938L185.113 424.895L185.998 431.669L142.752 430.945C141.155 429.674 139.178 428.976 137.137 428.962L97.3664 428.302C95.1115 428.229 92.9122 429.01 91.2077 430.488C86.3799 431.124 79.0123 432.878 78.4301 437.769L78.0212 467.293L77.6128 496.828C78.0364 501.724 85.3775 503.729 90.1776 504.524C91.8369 506.061 94.0138 506.917 96.2755 506.923L136.047 507.599C138.083 507.658 140.08 507.03 141.715 505.816L185.242 506.546L184.275 512.71L186.738 512.753L189.316 506.61L196.415 506.729L198.836 506.812C200.428 508.053 202.386 508.734 204.405 508.747L220.681 509.02C222.732 509.068 224.739 508.42 226.375 507.181C232.618 506.2 240.702 503.776 243.147 497.747C244.811 491.118 245.884 484.354 246.352 477.535L246.393 474.72L246.442 474.718Z" fill="white"/>
</g>
<g filter="url(#filter1_d_4186_14200)">
<path d="M246.442 474.718L246.596 464.365L246.611 463.463C246.33 456.627 245.445 449.83 243.965 443.15C241.798 437.354 234.467 434.623 228.413 433.349C227.583 432.412 226.563 431.663 225.42 431.152C224.278 430.642 223.039 430.381 221.788 430.388L205.512 430.115C203.476 430.056 201.479 430.684 199.843 431.898L197.463 431.857L190.226 431.733L187.576 424.938L185.113 424.895L185.998 431.669L142.752 430.945C141.155 429.674 139.178 428.976 137.137 428.962L97.3664 428.302C95.1115 428.229 92.9122 429.01 91.2077 430.488C86.3799 431.124 79.0123 432.878 78.4301 437.769L78.0212 467.293L77.6128 496.828C78.0364 501.724 85.3775 503.729 90.1776 504.524C91.8369 506.061 94.0138 506.917 96.2755 506.923L136.047 507.599C138.083 507.658 140.08 507.03 141.715 505.816L185.242 506.546L184.275 512.71L186.738 512.753L189.316 506.61L196.415 506.729L198.836 506.812C200.428 508.053 202.386 508.734 204.405 508.747L220.681 509.02C222.732 509.068 224.739 508.42 226.375 507.181C232.618 506.2 240.702 503.776 243.147 497.747C244.811 491.118 245.884 484.354 246.352 477.535L246.393 474.72L246.442 474.718Z" fill="white"/>
</g>
<path d="M92.6315 453.765C92.6315 448.541 90.1801 444.307 87.1561 444.307C84.1321 444.307 81.6807 448.541 81.6807 453.765L81.6807 482.138C81.6807 487.362 84.1321 491.596 87.1561 491.596C90.1801 491.596 92.6315 487.362 92.6315 482.138L92.6315 453.765Z" fill="#333333"/>
<path d="M92.6315 442.38C92.6315 439.356 90.1801 436.904 87.1561 436.904C84.1321 436.904 81.6807 439.356 81.6807 442.38L81.6807 453.331C81.6807 456.355 84.1321 458.806 87.1561 458.806C90.1801 458.806 92.6315 456.355 92.6315 453.331L92.6315 442.38Z" fill="#333333"/>
<path d="M245.947 461.538C245.947 460.026 244.721 458.801 243.209 458.801C241.697 458.801 240.472 460.026 240.472 461.538L240.472 483.44C240.472 484.952 241.697 486.178 243.209 486.178C244.721 486.178 245.947 484.952 245.947 483.44L245.947 461.538Z" fill="#333333"/>
<path d="M92.6315 480.708C92.6315 477.684 90.1801 475.232 87.1561 475.232C84.1321 475.232 81.6807 477.684 81.6807 480.708L81.6807 491.659C81.6807 494.683 84.1321 497.134 87.1561 497.134C90.1801 497.134 92.6315 494.683 92.6315 491.659L92.6315 480.708Z" fill="#333333"/>
<path d="M203.853 472.799L203.81 472.799C203.538 480.436 201.916 487.964 199.019 495.035C198.422 496.709 197.48 498.239 196.254 499.524C195.028 500.81 193.544 501.823 191.9 502.498L191.813 502.498C191.446 502.609 191.071 502.688 190.69 502.734C189.882 502.854 189.057 502.793 188.276 502.553L163.812 492.237C167.321 490.014 169.194 474.524 169.791 468.66C169.791 462.774 169.555 447.18 166.297 444.568L191.681 436.996C192.485 436.844 193.312 436.874 194.102 437.083C194.476 437.169 194.842 437.286 195.197 437.434L195.284 437.45C196.85 438.305 198.219 439.476 199.305 440.891C200.391 442.305 201.17 443.931 201.592 445.663C203.73 453.004 204.557 460.665 204.034 468.293L204.078 468.293C204.04 469.054 204.001 469.799 203.957 470.533C203.914 471.266 203.886 472.011 203.842 472.772L203.853 472.799Z" fill="#333333"/>
<path d="M129.294 444.301L127.69 475.045L126.743 493.634L126.683 494.801C121.629 500.824 110.207 500.511 102.673 499.509L105.936 436.553C113.531 436.405 124.92 437.341 129.316 443.89L129.294 444.301Z" fill="#333333"/>
<path d="M126.527 431.426L180.241 431.426C180.241 431.426 157.075 442.377 150.789 442.377C144.503 442.377 120.214 431.426 126.527 431.426Z" fill="#333333"/>
<path d="M126.553 508.082L180.267 508.082C180.267 508.082 156.312 497.131 150.026 497.131C143.741 497.131 120.24 508.082 126.553 508.082Z" fill="#333333"/>
</g>
<rect x="63" y="1247" width="200" height="200" rx="11" fill="#878787" fill-opacity="0.3"/>
<path d="M187.97 1347.31C187.97 1360.67 176.28 1371.62 161.699 1371.62C147.118 1371.62 135.428 1360.67 135.428 1347.31C135.428 1333.95 147.118 1323 161.699 1323C176.28 1323 187.97 1333.95 187.97 1347.31Z" fill="#878787" stroke="#878787" stroke-width="2"/>
<path d="M150.793 1337.18L172.61 1357.43M172.61 1337.18L150.793 1357.43" stroke="white" stroke-width="1.5" stroke-linecap="round" stroke-linejoin="round"/>
<rect x="651" y="1247" width="200" height="200" rx="11" fill="#878787" fill-opacity="0.3"/>
<path d="M775.97 1347.31C775.97 1360.67 764.28 1371.62 749.699 1371.62C735.118 1371.62 723.428 1360.67 723.428 1347.31C723.428 1333.95 735.118 1323 749.699 1323C764.28 1323 775.97 1333.95 775.97 1347.31Z" fill="#878787" stroke="#878787" stroke-width="2"/>
<path d="M738.793 1337.18L760.61 1357.43M760.61 1337.18L738.793 1357.43" stroke="white" stroke-width="1.5" stroke-linecap="round" stroke-linejoin="round"/>
<rect x="651" y="1027" width="200" height="200" rx="11" fill="#878787" fill-opacity="0.3"/>
<path d="M775.97 1127.31C775.97 1140.67 764.28 1151.62 749.699 1151.62C735.118 1151.62 723.428 1140.67 723.428 1127.31C723.428 1113.95 735.118 1103 749.699 1103C764.28 1103 775.97 1113.95 775.97 1127.31Z" fill="#878787" stroke="#878787" stroke-width="2"/>
<path d="M738.793 1117.18L760.61 1137.43M760.61 1117.18L738.793 1137.43" stroke="white" stroke-width="1.5" stroke-linecap="round" stroke-linejoin="round"/>
<rect x="61.7139" y="1027" width="200" height="200" rx="11" fill="#5B67EC" fill-opacity="0.2"/>
<g opacity="0.5">
<g filter="url(#filter2_d_4186_14200)">
<path d="M246.442 1134.72L246.596 1124.36L246.611 1123.46C246.33 1116.63 245.445 1109.83 243.965 1103.15C241.798 1097.35 234.467 1094.62 228.413 1093.35C227.583 1092.41 226.563 1091.66 225.42 1091.15C224.278 1090.64 223.039 1090.38 221.788 1090.39L205.512 1090.11C203.476 1090.06 201.479 1090.68 199.843 1091.9L197.463 1091.86L190.226 1091.73L187.576 1084.94L185.113 1084.89L185.998 1091.67L142.752 1090.94C141.155 1089.67 139.178 1088.97 137.137 1088.96L97.3664 1088.3C95.1115 1088.23 92.9122 1089.01 91.2077 1090.49C86.3799 1091.12 79.0123 1092.88 78.4301 1097.77L78.0212 1127.29L77.6128 1156.83C78.0364 1161.72 85.3775 1163.73 90.1776 1164.52C91.8369 1166.06 94.0138 1166.92 96.2755 1166.92L136.047 1167.6C138.083 1167.66 140.08 1167.03 141.715 1165.81L185.242 1166.55L184.275 1172.71L186.738 1172.75L189.316 1166.61L196.415 1166.73L198.836 1166.81C200.428 1168.05 202.386 1168.73 204.405 1168.75L220.681 1169.02C222.732 1169.07 224.739 1168.42 226.375 1167.18C232.618 1166.2 240.702 1163.77 243.147 1157.75C244.811 1151.12 245.884 1144.35 246.352 1137.53L246.393 1134.72L246.442 1134.72Z" fill="white"/>
</g>
<g filter="url(#filter3_d_4186_14200)">
<path d="M246.442 1134.72L246.596 1124.36L246.611 1123.46C246.33 1116.63 245.445 1109.83 243.965 1103.15C241.798 1097.35 234.467 1094.62 228.413 1093.35C227.583 1092.41 226.563 1091.66 225.42 1091.15C224.278 1090.64 223.039 1090.38 221.788 1090.39L205.512 1090.11C203.476 1090.06 201.479 1090.68 199.843 1091.9L197.463 1091.86L190.226 1091.73L187.576 1084.94L185.113 1084.89L185.998 1091.67L142.752 1090.94C141.155 1089.67 139.178 1088.97 137.137 1088.96L97.3664 1088.3C95.1115 1088.23 92.9122 1089.01 91.2077 1090.49C86.3799 1091.12 79.0123 1092.88 78.4301 1097.77L78.0212 1127.29L77.6128 1156.83C78.0364 1161.72 85.3775 1163.73 90.1776 1164.52C91.8369 1166.06 94.0138 1166.92 96.2755 1166.92L136.047 1167.6C138.083 1167.66 140.08 1167.03 141.715 1165.81L185.242 1166.55L184.275 1172.71L186.738 1172.75L189.316 1166.61L196.415 1166.73L198.836 1166.81C200.428 1168.05 202.386 1168.73 204.405 1168.75L220.681 1169.02C222.732 1169.07 224.739 1168.42 226.375 1167.18C232.618 1166.2 240.702 1163.77 243.147 1157.75C244.811 1151.12 245.884 1144.35 246.352 1137.53L246.393 1134.72L246.442 1134.72Z" fill="white"/>
</g>
<path d="M92.6315 1113.76C92.6315 1108.54 90.1801 1104.31 87.1561 1104.31C84.1321 1104.31 81.6807 1108.54 81.6807 1113.76L81.6807 1142.14C81.6807 1147.36 84.1321 1151.6 87.1561 1151.6C90.1801 1151.6 92.6315 1147.36 92.6315 1142.14L92.6315 1113.76Z" fill="#333333"/>
<path d="M92.6315 1102.38C92.6315 1099.36 90.1801 1096.91 87.1561 1096.91C84.1321 1096.91 81.6807 1099.36 81.6807 1102.38L81.6807 1113.33C81.6807 1116.36 84.1321 1118.81 87.1561 1118.81C90.1801 1118.81 92.6315 1116.36 92.6315 1113.33L92.6315 1102.38Z" fill="#333333"/>
<path d="M245.947 1121.54C245.947 1120.03 244.721 1118.8 243.209 1118.8C241.697 1118.8 240.472 1120.03 240.472 1121.54L240.472 1143.44C240.472 1144.95 241.697 1146.18 243.209 1146.18C244.721 1146.18 245.947 1144.95 245.947 1143.44L245.947 1121.54Z" fill="#333333"/>
<path d="M92.6315 1140.71C92.6315 1137.68 90.1801 1135.23 87.1561 1135.23C84.1321 1135.23 81.6807 1137.68 81.6807 1140.71L81.6807 1151.66C81.6807 1154.68 84.1321 1157.13 87.1561 1157.13C90.1801 1157.13 92.6315 1154.68 92.6315 1151.66L92.6315 1140.71Z" fill="#333333"/>
<path d="M203.853 1132.8L203.81 1132.8C203.538 1140.44 201.916 1147.97 199.019 1155.04C198.422 1156.71 197.48 1158.24 196.254 1159.53C195.028 1160.81 193.544 1161.82 191.9 1162.5L191.813 1162.5C191.446 1162.61 191.071 1162.69 190.69 1162.73C189.882 1162.86 189.057 1162.79 188.276 1162.55L163.812 1152.24C167.321 1150.02 169.194 1134.53 169.791 1128.66C169.791 1122.77 169.555 1107.18 166.297 1104.57L191.681 1097C192.485 1096.84 193.312 1096.87 194.102 1097.08C194.476 1097.17 194.842 1097.29 195.197 1097.43L195.284 1097.45C196.85 1098.31 198.219 1099.48 199.305 1100.89C200.391 1102.31 201.17 1103.93 201.592 1105.66C203.73 1113.01 204.557 1120.67 204.034 1128.29L204.078 1128.29C204.04 1129.06 204.001 1129.8 203.957 1130.53C203.914 1131.27 203.886 1132.01 203.842 1132.77L203.853 1132.8Z" fill="#333333"/>
<path d="M129.294 1104.3L127.69 1135.05L126.743 1153.63L126.683 1154.8C121.629 1160.82 110.207 1160.51 102.673 1159.51L105.936 1096.55C113.531 1096.41 124.92 1097.34 129.316 1103.89L129.294 1104.3Z" fill="#333333"/>
<path d="M126.527 1091.43L180.241 1091.43C180.241 1091.43 157.075 1102.38 150.789 1102.38C144.503 1102.38 120.214 1091.43 126.527 1091.43Z" fill="#333333"/>
<path d="M126.553 1168.08L180.267 1168.08C180.267 1168.08 156.312 1157.13 150.026 1157.13C143.741 1157.13 120.24 1168.08 126.553 1168.08Z" fill="#333333"/>
</g>
<rect x="61.7139" y="807" width="200" height="200" rx="11" fill="#5B67EC" fill-opacity="0.2"/>
<g opacity="0.5">
<g filter="url(#filter4_d_4186_14200)">
<path d="M246.442 914.718L246.596 904.365L246.611 903.463C246.33 896.627 245.445 889.83 243.965 883.15C241.798 877.354 234.467 874.623 228.413 873.349C227.583 872.412 226.563 871.663 225.42 871.152C224.278 870.642 223.039 870.381 221.788 870.388L205.512 870.115C203.476 870.056 201.479 870.684 199.843 871.898L197.463 871.857L190.226 871.733L187.576 864.938L185.113 864.895L185.998 871.669L142.752 870.945C141.155 869.674 139.178 868.976 137.137 868.962L97.3664 868.302C95.1115 868.229 92.9122 869.01 91.2077 870.488C86.3799 871.124 79.0123 872.878 78.4301 877.769L78.0212 907.293L77.6128 936.828C78.0364 941.724 85.3775 943.729 90.1776 944.524C91.8369 946.061 94.0138 946.917 96.2755 946.923L136.047 947.599C138.083 947.658 140.08 947.03 141.715 945.816L185.242 946.546L184.275 952.71L186.738 952.753L189.316 946.61L196.415 946.729L198.836 946.812C200.428 948.053 202.386 948.734 204.405 948.747L220.681 949.02C222.732 949.068 224.739 948.42 226.375 947.181C232.618 946.2 240.702 943.776 243.147 937.747C244.811 931.118 245.884 924.354 246.352 917.535L246.393 914.72L246.442 914.718Z" fill="white"/>
</g>
<g filter="url(#filter5_d_4186_14200)">
<path d="M246.442 914.718L246.596 904.365L246.611 903.463C246.33 896.627 245.445 889.83 243.965 883.15C241.798 877.354 234.467 874.623 228.413 873.349C227.583 872.412 226.563 871.663 225.42 871.152C224.278 870.642 223.039 870.381 221.788 870.388L205.512 870.115C203.476 870.056 201.479 870.684 199.843 871.898L197.463 871.857L190.226 871.733L187.576 864.938L185.113 864.895L185.998 871.669L142.752 870.945C141.155 869.674 139.178 868.976 137.137 868.962L97.3664 868.302C95.1115 868.229 92.9122 869.01 91.2077 870.488C86.3799 871.124 79.0123 872.878 78.4301 877.769L78.0212 907.293L77.6128 936.828C78.0364 941.724 85.3775 943.729 90.1776 944.524C91.8369 946.061 94.0138 946.917 96.2755 946.923L136.047 947.599C138.083 947.658 140.08 947.03 141.715 945.816L185.242 946.546L184.275 952.71L186.738 952.753L189.316 946.61L196.415 946.729L198.836 946.812C200.428 948.053 202.386 948.734 204.405 948.747L220.681 949.02C222.732 949.068 224.739 948.42 226.375 947.181C232.618 946.2 240.702 943.776 243.147 937.747C244.811 931.118 245.884 924.354 246.352 917.535L246.393 914.72L246.442 914.718Z" fill="white"/>
</g>
<path d="M92.6315 893.765C92.6315 888.541 90.1801 884.307 87.1561 884.307C84.1321 884.307 81.6807 888.541 81.6807 893.765L81.6807 922.138C81.6807 927.362 84.1321 931.596 87.1561 931.596C90.1801 931.596 92.6315 927.362 92.6315 922.138L92.6315 893.765Z" fill="#333333"/>
<path d="M92.6315 882.38C92.6315 879.356 90.1801 876.904 87.1561 876.904C84.1321 876.904 81.6807 879.356 81.6807 882.38L81.6807 893.331C81.6807 896.355 84.1321 898.806 87.1561 898.806C90.1801 898.806 92.6315 896.355 92.6315 893.331L92.6315 882.38Z" fill="#333333"/>
<path d="M245.947 901.538C245.947 900.026 244.721 898.801 243.209 898.801C241.697 898.801 240.472 900.026 240.472 901.538L240.472 923.44C240.472 924.952 241.697 926.178 243.209 926.178C244.721 926.178 245.947 924.952 245.947 923.44L245.947 901.538Z" fill="#333333"/>
<path d="M92.6315 920.707C92.6315 917.683 90.1801 915.231 87.1561 915.231C84.1321 915.231 81.6807 917.683 81.6807 920.707L81.6807 931.658C81.6807 934.682 84.1321 937.133 87.1561 937.133C90.1801 937.133 92.6315 934.682 92.6315 931.658L92.6315 920.707Z" fill="#333333"/>
<path d="M203.853 912.799L203.81 912.799C203.538 920.436 201.916 927.964 199.019 935.035C198.422 936.709 197.48 938.239 196.254 939.524C195.028 940.81 193.544 941.823 191.9 942.498L191.813 942.498C191.446 942.609 191.071 942.688 190.69 942.734C189.882 942.854 189.057 942.793 188.276 942.553L163.812 932.237C167.321 930.014 169.194 914.524 169.791 908.66C169.791 902.774 169.555 887.18 166.297 884.568L191.681 876.996C192.485 876.844 193.312 876.874 194.102 877.083C194.476 877.169 194.842 877.286 195.197 877.434L195.284 877.45C196.85 878.305 198.219 879.476 199.305 880.891C200.391 882.305 201.17 883.931 201.592 885.663C203.73 893.004 204.557 900.665 204.034 908.293L204.078 908.293C204.04 909.054 204.001 909.799 203.957 910.533C203.914 911.266 203.886 912.011 203.842 912.772L203.853 912.799Z" fill="#333333"/>
<path d="M129.294 884.301L127.69 915.045L126.743 933.634L126.683 934.801C121.629 940.824 110.207 940.511 102.673 939.509L105.936 876.553C113.531 876.405 124.92 877.341 129.316 883.89L129.294 884.301Z" fill="#333333"/>
<path d="M126.527 871.426L180.241 871.426C180.241 871.426 157.075 882.377 150.789 882.377C144.503 882.377 120.214 871.426 126.527 871.426Z" fill="#333333"/>
<path d="M126.553 948.081L180.267 948.081C180.267 948.081 156.312 937.13 150.026 937.13C143.741 937.13 120.24 948.081 126.553 948.081Z" fill="#333333"/>
</g>
<rect width="200" height="200" rx="11" transform="matrix(-1 0 0 1 850.715 367)" fill="#5B67EC" fill-opacity="0.2"/>
<g opacity="0.5">
<g filter="url(#filter6_d_4186_14200)">
<path d="M665.986 474.718L665.833 464.365L665.818 463.463C666.099 456.627 666.984 449.83 668.464 443.15C670.631 437.354 677.961 434.623 684.016 433.349C684.846 432.412 685.866 431.663 687.008 431.152C688.151 430.642 689.389 430.381 690.641 430.388L706.917 430.115C708.953 430.056 710.949 430.684 712.585 431.898L714.966 431.857L722.202 431.733L724.853 424.938L727.316 424.895L726.43 431.669L769.677 430.945C771.274 429.674 773.251 428.976 775.291 428.962L815.062 428.302C817.317 428.229 819.516 429.01 821.221 430.488C826.049 431.124 833.416 432.878 833.999 437.769L834.407 467.293L834.816 496.828C834.392 501.724 827.051 503.729 822.251 504.524C820.592 506.061 818.415 506.917 816.153 506.923L776.382 507.599C774.346 507.658 772.349 507.03 770.713 505.816L727.187 506.546L728.154 512.71L725.691 512.753L723.112 506.61L716.014 506.729L713.593 506.812C712.001 508.053 710.043 508.734 708.024 508.747L691.748 509.02C689.697 509.068 687.69 508.42 686.054 507.181C679.811 506.2 671.727 503.776 669.281 497.747C667.618 491.118 666.545 484.354 666.076 477.535L666.036 474.72L665.986 474.718Z" fill="white"/>
</g>
<g filter="url(#filter7_d_4186_14200)">
<path d="M665.986 474.718L665.833 464.365L665.818 463.463C666.099 456.627 666.984 449.83 668.464 443.15C670.631 437.354 677.961 434.623 684.016 433.349C684.846 432.412 685.866 431.663 687.008 431.152C688.151 430.642 689.389 430.381 690.641 430.388L706.917 430.115C708.953 430.056 710.949 430.684 712.585 431.898L714.966 431.857L722.202 431.733L724.853 424.938L727.316 424.895L726.43 431.669L769.677 430.945C771.274 429.674 773.251 428.976 775.291 428.962L815.062 428.302C817.317 428.229 819.516 429.01 821.221 430.488C826.049 431.124 833.416 432.878 833.999 437.769L834.407 467.293L834.816 496.828C834.392 501.724 827.051 503.729 822.251 504.524C820.592 506.061 818.415 506.917 816.153 506.923L776.382 507.599C774.346 507.658 772.349 507.03 770.713 505.816L727.187 506.546L728.154 512.71L725.691 512.753L723.112 506.61L716.014 506.729L713.593 506.812C712.001 508.053 710.043 508.734 708.024 508.747L691.748 509.02C689.697 509.068 687.69 508.42 686.054 507.181C679.811 506.2 671.727 503.776 669.281 497.747C667.618 491.118 666.545 484.354 666.076 477.535L666.036 474.72L665.986 474.718Z" fill="white"/>
</g>
<path d="M819.797 453.765C819.797 448.541 822.249 444.307 825.273 444.307C828.297 444.307 830.748 448.541 830.748 453.765L830.748 482.138C830.748 487.362 828.297 491.596 825.273 491.596C822.249 491.596 819.797 487.362 819.797 482.138L819.797 453.765Z" fill="#333333"/>
<path d="M819.797 442.38C819.797 439.356 822.249 436.904 825.273 436.904C828.297 436.904 830.748 439.356 830.748 442.38L830.748 453.331C830.748 456.355 828.297 458.806 825.273 458.806C822.249 458.806 819.797 456.355 819.797 453.331L819.797 442.38Z" fill="#333333"/>
<path d="M666.482 461.538C666.482 460.026 667.707 458.801 669.219 458.801C670.731 458.801 671.957 460.026 671.957 461.538L671.957 483.44C671.957 484.952 670.731 486.178 669.219 486.178C667.707 486.178 666.482 484.952 666.482 483.44L666.482 461.538Z" fill="#333333"/>
<path d="M819.797 480.708C819.797 477.684 822.249 475.232 825.273 475.232C828.297 475.232 830.748 477.684 830.748 480.708L830.748 491.659C830.748 494.683 828.297 497.134 825.273 497.134C822.249 497.134 819.797 494.683 819.797 491.659L819.797 480.708Z" fill="#333333"/>
<path d="M708.575 472.799L708.619 472.799C708.891 480.436 710.513 487.964 713.41 495.035C714.006 496.709 714.948 498.239 716.175 499.524C717.401 500.81 718.884 501.823 720.528 502.498L720.616 502.498C720.982 502.609 721.358 502.688 721.738 502.734C722.547 502.854 723.372 502.793 724.153 502.553L748.617 492.237C745.107 490.014 743.235 474.524 742.638 468.66C742.638 462.774 742.873 447.18 746.131 444.568L720.747 436.996C719.944 436.844 719.117 436.874 718.327 437.083C717.953 437.169 717.587 437.286 717.232 437.434L717.144 437.45C715.579 438.305 714.21 439.476 713.123 440.891C712.037 442.305 711.258 443.931 710.837 445.663C708.698 453.004 707.872 460.665 708.395 468.293L708.351 468.293C708.389 469.054 708.428 469.799 708.471 470.533C708.515 471.266 708.543 472.011 708.586 472.772L708.575 472.799Z" fill="#333333"/>
<path d="M783.134 444.301L784.739 475.045L785.686 493.634L785.746 494.801C790.8 500.824 802.222 500.511 809.756 499.509L806.493 436.553C798.898 436.405 787.509 437.341 783.112 443.89L783.134 444.301Z" fill="#333333"/>
<path d="M785.901 431.426L732.187 431.426C732.187 431.426 755.354 442.377 761.64 442.377C767.926 442.377 792.215 431.426 785.901 431.426Z" fill="#333333"/>
<path d="M785.875 508.082L732.162 508.082C732.162 508.082 756.117 497.131 762.402 497.131C768.688 497.131 792.189 508.082 785.875 508.082Z" fill="#333333"/>
</g>
<rect width="200" height="200" rx="11" transform="matrix(-1 0 0 1 850.715 807)" fill="#5B67EC" fill-opacity="0.2"/>
<g opacity="0.5">
<g filter="url(#filter8_d_4186_14200)">
<path d="M665.986 914.718L665.833 904.365L665.818 903.463C666.099 896.627 666.984 889.83 668.464 883.15C670.631 877.354 677.961 874.623 684.016 873.349C684.846 872.412 685.866 871.663 687.008 871.152C688.151 870.642 689.389 870.381 690.641 870.388L706.917 870.115C708.953 870.056 710.949 870.684 712.585 871.898L714.966 871.857L722.202 871.733L724.853 864.938L727.316 864.895L726.43 871.669L769.677 870.945C771.274 869.674 773.251 868.976 775.291 868.962L815.062 868.302C817.317 868.229 819.516 869.01 821.221 870.488C826.049 871.124 833.416 872.878 833.999 877.769L834.407 907.293L834.816 936.828C834.392 941.724 827.051 943.729 822.251 944.524C820.592 946.061 818.415 946.917 816.153 946.923L776.382 947.599C774.346 947.658 772.349 947.03 770.713 945.816L727.187 946.546L728.154 952.71L725.691 952.753L723.112 946.61L716.014 946.729L713.593 946.812C712.001 948.053 710.043 948.734 708.024 948.747L691.748 949.02C689.697 949.068 687.69 948.42 686.054 947.181C679.811 946.2 671.727 943.776 669.281 937.747C667.618 931.118 666.545 924.354 666.076 917.535L666.036 914.72L665.986 914.718Z" fill="white"/>
</g>
<g filter="url(#filter9_d_4186_14200)">
<path d="M665.986 914.718L665.833 904.365L665.818 903.463C666.099 896.627 666.984 889.83 668.464 883.15C670.631 877.354 677.961 874.623 684.016 873.349C684.846 872.412 685.866 871.663 687.008 871.152C688.151 870.642 689.389 870.381 690.641 870.388L706.917 870.115C708.953 870.056 710.949 870.684 712.585 871.898L714.966 871.857L722.202 871.733L724.853 864.938L727.316 864.895L726.43 871.669L769.677 870.945C771.274 869.674 773.251 868.976 775.291 868.962L815.062 868.302C817.317 868.229 819.516 869.01 821.221 870.488C826.049 871.124 833.416 872.878 833.999 877.769L834.407 907.293L834.816 936.828C834.392 941.724 827.051 943.729 822.251 944.524C820.592 946.061 818.415 946.917 816.153 946.923L776.382 947.599C774.346 947.658 772.349 947.03 770.713 945.816L727.187 946.546L728.154 952.71L725.691 952.753L723.112 946.61L716.014 946.729L713.593 946.812C712.001 948.053 710.043 948.734 708.024 948.747L691.748 949.02C689.697 949.068 687.69 948.42 686.054 947.181C679.811 946.2 671.727 943.776 669.281 937.747C667.618 931.118 666.545 924.354 666.076 917.535L666.036 914.72L665.986 914.718Z" fill="white"/>
</g>
<path d="M819.797 893.765C819.797 888.541 822.249 884.307 825.273 884.307C828.297 884.307 830.748 888.541 830.748 893.765L830.748 922.138C830.748 927.362 828.297 931.596 825.273 931.596C822.249 931.596 819.797 927.362 819.797 922.138L819.797 893.765Z" fill="#333333"/>
<path d="M819.797 882.38C819.797 879.356 822.249 876.904 825.273 876.904C828.297 876.904 830.748 879.356 830.748 882.38L830.748 893.331C830.748 896.355 828.297 898.806 825.273 898.806C822.249 898.806 819.797 896.355 819.797 893.331L819.797 882.38Z" fill="#333333"/>
<path d="M666.482 901.538C666.482 900.026 667.707 898.801 669.219 898.801C670.731 898.801 671.957 900.026 671.957 901.538L671.957 923.44C671.957 924.952 670.731 926.178 669.219 926.178C667.707 926.178 666.482 924.952 666.482 923.44L666.482 901.538Z" fill="#333333"/>
<path d="M819.797 920.707C819.797 917.683 822.249 915.231 825.273 915.231C828.297 915.231 830.748 917.683 830.748 920.707L830.748 931.658C830.748 934.682 828.297 937.133 825.273 937.133C822.249 937.133 819.797 934.682 819.797 931.658L819.797 920.707Z" fill="#333333"/>
<path d="M708.575 912.799L708.619 912.799C708.891 920.436 710.513 927.964 713.41 935.035C714.006 936.709 714.948 938.239 716.175 939.524C717.401 940.81 718.884 941.823 720.528 942.498L720.616 942.498C720.982 942.609 721.358 942.688 721.738 942.734C722.547 942.854 723.372 942.793 724.153 942.553L748.617 932.237C745.107 930.014 743.235 914.524 742.638 908.66C742.638 902.774 742.873 887.18 746.131 884.568L720.747 876.996C719.944 876.844 719.117 876.874 718.327 877.083C717.953 877.169 717.587 877.286 717.232 877.434L717.144 877.45C715.579 878.305 714.21 879.476 713.123 880.891C712.037 882.305 711.258 883.931 710.837 885.663C708.698 893.004 707.872 900.665 708.395 908.293L708.351 908.293C708.389 909.054 708.428 909.799 708.471 910.533C708.515 911.266 708.543 912.011 708.586 912.772L708.575 912.799Z" fill="#333333"/>
<path d="M783.134 884.301L784.739 915.045L785.686 933.634L785.746 934.801C790.8 940.824 802.222 940.511 809.756 939.509L806.493 876.553C798.898 876.405 787.509 877.341 783.112 883.89L783.134 884.301Z" fill="#333333"/>
<path d="M785.901 871.426L732.187 871.426C732.187 871.426 755.354 882.377 761.64 882.377C767.926 882.377 792.215 871.426 785.901 871.426Z" fill="#333333"/>
<path d="M785.875 948.081L732.162 948.081C732.162 948.081 756.117 937.13 762.402 937.13C768.688 937.13 792.189 948.081 785.875 948.081Z" fill="#333333"/>
</g>
<rect x="650.717" y="587" width="200" height="200" rx="11" fill="#5B67EC" fill-opacity="0.2" stroke="#5B67EC" stroke-width="8"/>
<g opacity="0.5">
<g filter="url(#filter10_d_4186_14200)">
<path d="M665.986 691.146L665.833 680.793L665.818 679.891C666.099 673.055 666.984 666.258 668.464 659.578C670.631 653.781 677.961 651.051 684.016 649.777C684.846 648.84 685.866 648.091 687.008 647.58C688.151 647.069 689.389 646.809 690.641 646.816L706.917 646.543C708.953 646.484 710.949 647.112 712.585 648.326L714.966 648.285L722.202 648.161L724.853 641.366L727.316 641.323L726.43 648.097L769.677 647.372C771.274 646.102 773.251 645.404 775.291 645.389L815.062 644.73C817.317 644.657 819.516 645.438 821.221 646.916C826.049 647.551 833.416 649.306 833.999 654.197L834.407 683.721L834.816 713.256C834.392 718.152 827.051 720.157 822.251 720.952C820.592 722.488 818.415 723.345 816.153 723.35L776.382 724.026C774.346 724.086 772.349 723.458 770.713 722.243L727.187 722.974L728.154 729.138L725.691 729.181L723.112 723.038L716.014 723.156L713.593 723.239C712.001 724.481 710.043 725.162 708.024 725.175L691.748 725.448C689.697 725.496 687.69 724.847 686.054 723.609C679.811 722.628 671.727 720.203 669.281 714.175C667.618 707.546 666.545 700.782 666.076 693.963L666.036 691.148L665.986 691.146Z" fill="#5B67EC"/>
</g>
<g filter="url(#filter11_d_4186_14200)">
<path d="M665.986 691.146L665.833 680.793L665.818 679.891C666.099 673.055 666.984 666.258 668.464 659.578C670.631 653.781 677.961 651.051 684.016 649.777C684.846 648.84 685.866 648.091 687.008 647.58C688.151 647.069 689.389 646.809 690.641 646.816L706.917 646.543C708.953 646.484 710.949 647.112 712.585 648.326L714.966 648.285L722.202 648.161L724.853 641.366L727.316 641.323L726.43 648.097L769.677 647.372C771.274 646.102 773.251 645.404 775.291 645.389L815.062 644.73C817.317 644.657 819.516 645.438 821.221 646.916C826.049 647.551 833.416 649.306 833.999 654.197L834.407 683.721L834.816 713.256C834.392 718.152 827.051 720.157 822.251 720.952C820.592 722.488 818.415 723.345 816.153 723.35L776.382 724.026C774.346 724.086 772.349 723.458 770.713 722.243L727.187 722.974L728.154 729.138L725.691 729.181L723.112 723.038L716.014 723.156L713.593 723.239C712.001 724.481 710.043 725.162 708.024 725.175L691.748 725.448C689.697 725.496 687.69 724.847 686.054 723.609C679.811 722.628 671.727 720.203 669.281 714.175C667.618 707.546 666.545 700.782 666.076 693.963L666.036 691.148L665.986 691.146Z" fill="#5B67EC"/>
</g>
<path d="M819.797 670.192C819.797 664.969 822.249 660.734 825.273 660.734C828.297 660.734 830.748 664.969 830.748 670.192L830.748 698.566C830.748 703.789 828.297 708.024 825.273 708.024C822.249 708.024 819.797 703.789 819.797 698.566L819.797 670.192Z" fill="#333333"/>
<path d="M819.797 658.809C819.797 655.785 822.249 653.334 825.273 653.334C828.297 653.334 830.748 655.785 830.748 658.809L830.748 669.76C830.748 672.784 828.297 675.236 825.273 675.236C822.249 675.236 819.797 672.784 819.797 669.76L819.797 658.809Z" fill="#333333"/>
<path d="M666.481 677.966C666.481 676.454 667.706 675.229 669.218 675.229C670.73 675.229 671.956 676.454 671.956 677.966L671.956 699.868C671.956 701.38 670.73 702.606 669.218 702.606C667.706 702.606 666.481 701.38 666.481 699.868L666.481 677.966Z" fill="#333333"/>
<path d="M819.797 697.136C819.797 694.112 822.249 691.66 825.273 691.66C828.297 691.66 830.748 694.112 830.748 697.136L830.748 708.086C830.748 711.11 828.297 713.562 825.273 713.562C822.249 713.562 819.797 711.11 819.797 708.086L819.797 697.136Z" fill="#333333"/>
<path d="M708.574 689.229L708.618 689.229C708.89 696.866 710.512 704.394 713.409 711.465C714.005 713.139 714.947 714.668 716.174 715.954C717.4 717.24 718.883 718.253 720.527 718.928L720.615 718.928C720.981 719.039 721.357 719.118 721.737 719.163C722.546 719.284 723.371 719.222 724.152 718.983L748.616 708.667C745.106 706.444 743.234 690.954 742.637 685.09C742.637 679.204 742.872 663.61 746.13 660.998L720.746 653.425C719.943 653.274 719.116 653.303 718.326 653.513C717.952 653.599 717.586 653.716 717.231 653.863L717.143 653.88C715.578 654.734 714.209 655.906 713.122 657.32C712.036 658.735 711.257 660.36 710.836 662.093C708.697 669.434 707.871 677.095 708.394 684.723L708.35 684.723C708.388 685.484 708.427 686.229 708.47 686.962C708.514 687.696 708.542 688.441 708.585 689.202L708.574 689.229Z" fill="#333333"/>
<path d="M783.134 660.728L784.739 691.473L785.686 710.062L785.746 711.228C790.8 717.251 802.222 716.939 809.756 715.937L806.493 652.981C798.898 652.833 787.509 653.769 783.112 660.318L783.134 660.728Z" fill="#333333"/>
<path d="M785.901 647.854L732.187 647.854C732.187 647.854 755.354 658.804 761.64 658.804C767.926 658.804 792.215 647.854 785.901 647.854Z" fill="#333333"/>
<path d="M785.876 724.509L732.163 724.509C732.163 724.509 756.118 713.559 762.403 713.559C768.689 713.559 792.19 724.509 785.876 724.509Z" fill="#333333"/>
</g>
<circle cx="750.716" cy="686.999" r="34.7143" fill="#5B67EC" stroke="#5B67EC" stroke-width="2"/>
<path d="M734.646 685.214L747.146 695.928L766.788 676.285" stroke="white" stroke-width="8" stroke-linecap="round" stroke-linejoin="round"/>
</g>
<g clip-path="url(#clip1_4186_14200)">
<path d="M121 31H796C842.944 31 881 69.0558 881 116V1655H36V116C36 69.0558 74.0558 31 121 31Z" fill="white" stroke="black" stroke-width="20"/>
<rect x="63" y="587" width="200" height="200" rx="11" fill="#878787" fill-opacity="0.3"/>
<path d="M187.97 687.31C187.97 700.667 176.28 711.62 161.699 711.62C147.118 711.62 135.428 700.667 135.428 687.31C135.428 673.953 147.118 663 161.699 663C176.28 663 187.97 673.953 187.97 687.31Z" fill="#878787" stroke="#878787" stroke-width="2"/>
<path d="M150.793 677.186L172.61 697.434M172.61 677.186L150.793 697.434" stroke="white" stroke-width="1.5" stroke-linecap="round" stroke-linejoin="round"/>
<rect x="61.7139" y="367" width="200" height="200" rx="11" fill="#5B67EC" fill-opacity="0.2"/>
<g opacity="0.5">
<g filter="url(#filter12_d_4186_14200)">
<path d="M246.442 474.718L246.596 464.365L246.611 463.463C246.33 456.627 245.445 449.83 243.965 443.15C241.798 437.354 234.467 434.623 228.413 433.349C227.583 432.412 226.563 431.663 225.42 431.152C224.278 430.642 223.039 430.381 221.788 430.388L205.512 430.115C203.476 430.056 201.479 430.684 199.843 431.898L197.463 431.857L190.226 431.733L187.576 424.938L185.113 424.895L185.998 431.669L142.752 430.945C141.155 429.674 139.178 428.976 137.137 428.962L97.3664 428.302C95.1115 428.229 92.9122 429.01 91.2077 430.488C86.3799 431.124 79.0123 432.878 78.4301 437.769L78.0212 467.293L77.6128 496.828C78.0364 501.724 85.3775 503.729 90.1776 504.524C91.8369 506.061 94.0138 506.917 96.2755 506.923L136.047 507.599C138.083 507.658 140.08 507.03 141.715 505.816L185.242 506.546L184.275 512.71L186.738 512.753L189.316 506.61L196.415 506.729L198.836 506.812C200.428 508.053 202.386 508.734 204.405 508.747L220.681 509.02C222.732 509.068 224.739 508.42 226.375 507.181C232.618 506.2 240.702 503.776 243.147 497.747C244.811 491.118 245.884 484.354 246.352 477.535L246.393 474.72L246.442 474.718Z" fill="white"/>
</g>
<g filter="url(#filter13_d_4186_14200)">
<path d="M246.442 474.718L246.596 464.365L246.611 463.463C246.33 456.627 245.445 449.83 243.965 443.15C241.798 437.354 234.467 434.623 228.413 433.349C227.583 432.412 226.563 431.663 225.42 431.152C224.278 430.642 223.039 430.381 221.788 430.388L205.512 430.115C203.476 430.056 201.479 430.684 199.843 431.898L197.463 431.857L190.226 431.733L187.576 424.938L185.113 424.895L185.998 431.669L142.752 430.945C141.155 429.674 139.178 428.976 137.137 428.962L97.3664 428.302C95.1115 428.229 92.9122 429.01 91.2077 430.488C86.3799 431.124 79.0123 432.878 78.4301 437.769L78.0212 467.293L77.6128 496.828C78.0364 501.724 85.3775 503.729 90.1776 504.524C91.8369 506.061 94.0138 506.917 96.2755 506.923L136.047 507.599C138.083 507.658 140.08 507.03 141.715 505.816L185.242 506.546L184.275 512.71L186.738 512.753L189.316 506.61L196.415 506.729L198.836 506.812C200.428 508.053 202.386 508.734 204.405 508.747L220.681 509.02C222.732 509.068 224.739 508.42 226.375 507.181C232.618 506.2 240.702 503.776 243.147 497.747C244.811 491.118 245.884 484.354 246.352 477.535L246.393 474.72L246.442 474.718Z" fill="white"/>
</g>
<path d="M92.6315 453.765C92.6315 448.541 90.1801 444.307 87.1561 444.307C84.1321 444.307 81.6807 448.541 81.6807 453.765L81.6807 482.138C81.6807 487.362 84.1321 491.596 87.1561 491.596C90.1801 491.596 92.6315 487.362 92.6315 482.138L92.6315 453.765Z" fill="#333333"/>
<path d="M92.6315 442.38C92.6315 439.356 90.1801 436.904 87.1561 436.904C84.1321 436.904 81.6807 439.356 81.6807 442.38L81.6807 453.331C81.6807 456.355 84.1321 458.806 87.1561 458.806C90.1801 458.806 92.6315 456.355 92.6315 453.331L92.6315 442.38Z" fill="#333333"/>
<path d="M245.947 461.538C245.947 460.026 244.721 458.801 243.209 458.801C241.697 458.801 240.472 460.026 240.472 461.538L240.472 483.44C240.472 484.952 241.697 486.178 243.209 486.178C244.721 486.178 245.947 484.952 245.947 483.44L245.947 461.538Z" fill="#333333"/>
<path d="M92.6315 480.708C92.6315 477.684 90.1801 475.232 87.1561 475.232C84.1321 475.232 81.6807 477.684 81.6807 480.708L81.6807 491.659C81.6807 494.683 84.1321 497.134 87.1561 497.134C90.1801 497.134 92.6315 494.683 92.6315 491.659L92.6315 480.708Z" fill="#333333"/>
<path d="M203.853 472.799L203.81 472.799C203.538 480.436 201.916 487.964 199.019 495.035C198.422 496.709 197.48 498.239 196.254 499.524C195.028 500.81 193.544 501.823 191.9 502.498L191.813 502.498C191.446 502.609 191.071 502.688 190.69 502.734C189.882 502.854 189.057 502.793 188.276 502.553L163.812 492.237C167.321 490.014 169.194 474.524 169.791 468.66C169.791 462.774 169.555 447.18 166.297 444.568L191.681 436.996C192.485 436.844 193.312 436.874 194.102 437.083C194.476 437.169 194.842 437.286 195.197 437.434L195.284 437.45C196.85 438.305 198.219 439.476 199.305 440.891C200.391 442.305 201.17 443.931 201.592 445.663C203.73 453.004 204.557 460.665 204.034 468.293L204.078 468.293C204.04 469.054 204.001 469.799 203.957 470.533C203.914 471.266 203.886 472.011 203.842 472.772L203.853 472.799Z" fill="#333333"/>
<path d="M129.294 444.301L127.69 475.045L126.743 493.634L126.683 494.801C121.629 500.824 110.207 500.511 102.673 499.509L105.936 436.553C113.531 436.405 124.92 437.341 129.316 443.89L129.294 444.301Z" fill="#333333"/>
<path d="M126.527 431.426L180.241 431.426C180.241 431.426 157.075 442.377 150.789 442.377C144.503 442.377 120.214 431.426 126.527 431.426Z" fill="#333333"/>
<path d="M126.553 508.082L180.267 508.082C180.267 508.082 156.312 497.131 150.026 497.131C143.741 497.131 120.24 508.082 126.553 508.082Z" fill="#333333"/>
</g>
<rect x="63" y="1247" width="200" height="200" rx="11" fill="#878787" fill-opacity="0.3"/>
<path d="M187.97 1347.31C187.97 1360.67 176.28 1371.62 161.699 1371.62C147.118 1371.62 135.428 1360.67 135.428 1347.31C135.428 1333.95 147.118 1323 161.699 1323C176.28 1323 187.97 1333.95 187.97 1347.31Z" fill="#878787" stroke="#878787" stroke-width="2"/>
<path d="M150.793 1337.18L172.61 1357.43M172.61 1337.18L150.793 1357.43" stroke="white" stroke-width="1.5" stroke-linecap="round" stroke-linejoin="round"/>
<rect x="651" y="1247" width="200" height="200" rx="11" fill="#878787" fill-opacity="0.3"/>
<path d="M775.97 1347.31C775.97 1360.67 764.28 1371.62 749.699 1371.62C735.118 1371.62 723.428 1360.67 723.428 1347.31C723.428 1333.95 735.118 1323 749.699 1323C764.28 1323 775.97 1333.95 775.97 1347.31Z" fill="#878787" stroke="#878787" stroke-width="2"/>
<path d="M738.793 1337.18L760.61 1357.43M760.61 1337.18L738.793 1357.43" stroke="white" stroke-width="1.5" stroke-linecap="round" stroke-linejoin="round"/>
<rect x="651" y="1027" width="200" height="200" rx="11" fill="#878787" fill-opacity="0.3"/>
<path d="M775.97 1127.31C775.97 1140.67 764.28 1151.62 749.699 1151.62C735.118 1151.62 723.428 1140.67 723.428 1127.31C723.428 1113.95 735.118 1103 749.699 1103C764.28 1103 775.97 1113.95 775.97 1127.31Z" fill="#878787" stroke="#878787" stroke-width="2"/>
<path d="M738.793 1117.18L760.61 1137.43M760.61 1117.18L738.793 1137.43" stroke="white" stroke-width="1.5" stroke-linecap="round" stroke-linejoin="round"/>
<rect x="61.7139" y="1027" width="200" height="200" rx="11" fill="#5B67EC" fill-opacity="0.2"/>
<g opacity="0.5">
<g filter="url(#filter14_d_4186_14200)">
<path d="M246.442 1134.72L246.596 1124.36L246.611 1123.46C246.33 1116.63 245.445 1109.83 243.965 1103.15C241.798 1097.35 234.467 1094.62 228.413 1093.35C227.583 1092.41 226.563 1091.66 225.42 1091.15C224.278 1090.64 223.039 1090.38 221.788 1090.39L205.512 1090.11C203.476 1090.06 201.479 1090.68 199.843 1091.9L197.463 1091.86L190.226 1091.73L187.576 1084.94L185.113 1084.89L185.998 1091.67L142.752 1090.94C141.155 1089.67 139.178 1088.97 137.137 1088.96L97.3664 1088.3C95.1115 1088.23 92.9122 1089.01 91.2077 1090.49C86.3799 1091.12 79.0123 1092.88 78.4301 1097.77L78.0212 1127.29L77.6128 1156.83C78.0364 1161.72 85.3775 1163.73 90.1776 1164.52C91.8369 1166.06 94.0138 1166.92 96.2755 1166.92L136.047 1167.6C138.083 1167.66 140.08 1167.03 141.715 1165.81L185.242 1166.55L184.275 1172.71L186.738 1172.75L189.316 1166.61L196.415 1166.73L198.836 1166.81C200.428 1168.05 202.386 1168.73 204.405 1168.75L220.681 1169.02C222.732 1169.07 224.739 1168.42 226.375 1167.18C232.618 1166.2 240.702 1163.77 243.147 1157.75C244.811 1151.12 245.884 1144.35 246.352 1137.53L246.393 1134.72L246.442 1134.72Z" fill="white"/>
</g>
<g filter="url(#filter15_d_4186_14200)">
<path d="M246.442 1134.72L246.596 1124.36L246.611 1123.46C246.33 1116.63 245.445 1109.83 243.965 1103.15C241.798 1097.35 234.467 1094.62 228.413 1093.35C227.583 1092.41 226.563 1091.66 225.42 1091.15C224.278 1090.64 223.039 1090.38 221.788 1090.39L205.512 1090.11C203.476 1090.06 201.479 1090.68 199.843 1091.9L197.463 1091.86L190.226 1091.73L187.576 1084.94L185.113 1084.89L185.998 1091.67L142.752 1090.94C141.155 1089.67 139.178 1088.97 137.137 1088.96L97.3664 1088.3C95.1115 1088.23 92.9122 1089.01 91.2077 1090.49C86.3799 1091.12 79.0123 1092.88 78.4301 1097.77L78.0212 1127.29L77.6128 1156.83C78.0364 1161.72 85.3775 1163.73 90.1776 1164.52C91.8369 1166.06 94.0138 1166.92 96.2755 1166.92L136.047 1167.6C138.083 1167.66 140.08 1167.03 141.715 1165.81L185.242 1166.55L184.275 1172.71L186.738 1172.75L189.316 1166.61L196.415 1166.73L198.836 1166.81C200.428 1168.05 202.386 1168.73 204.405 1168.75L220.681 1169.02C222.732 1169.07 224.739 1168.42 226.375 1167.18C232.618 1166.2 240.702 1163.77 243.147 1157.75C244.811 1151.12 245.884 1144.35 246.352 1137.53L246.393 1134.72L246.442 1134.72Z" fill="white"/>
</g>
<path d="M92.6315 1113.76C92.6315 1108.54 90.1801 1104.31 87.1561 1104.31C84.1321 1104.31 81.6807 1108.54 81.6807 1113.76L81.6807 1142.14C81.6807 1147.36 84.1321 1151.6 87.1561 1151.6C90.1801 1151.6 92.6315 1147.36 92.6315 1142.14L92.6315 1113.76Z" fill="#333333"/>
<path d="M92.6315 1102.38C92.6315 1099.36 90.1801 1096.91 87.1561 1096.91C84.1321 1096.91 81.6807 1099.36 81.6807 1102.38L81.6807 1113.33C81.6807 1116.36 84.1321 1118.81 87.1561 1118.81C90.1801 1118.81 92.6315 1116.36 92.6315 1113.33L92.6315 1102.38Z" fill="#333333"/>
<path d="M245.947 1121.54C245.947 1120.03 244.721 1118.8 243.209 1118.8C241.697 1118.8 240.472 1120.03 240.472 1121.54L240.472 1143.44C240.472 1144.95 241.697 1146.18 243.209 1146.18C244.721 1146.18 245.947 1144.95 245.947 1143.44L245.947 1121.54Z" fill="#333333"/>
<path d="M92.6315 1140.71C92.6315 1137.68 90.1801 1135.23 87.1561 1135.23C84.1321 1135.23 81.6807 1137.68 81.6807 1140.71L81.6807 1151.66C81.6807 1154.68 84.1321 1157.13 87.1561 1157.13C90.1801 1157.13 92.6315 1154.68 92.6315 1151.66L92.6315 1140.71Z" fill="#333333"/>
<path d="M203.853 1132.8L203.81 1132.8C203.538 1140.44 201.916 1147.97 199.019 1155.04C198.422 1156.71 197.48 1158.24 196.254 1159.53C195.028 1160.81 193.544 1161.82 191.9 1162.5L191.813 1162.5C191.446 1162.61 191.071 1162.69 190.69 1162.73C189.882 1162.86 189.057 1162.79 188.276 1162.55L163.812 1152.24C167.321 1150.02 169.194 1134.53 169.791 1128.66C169.791 1122.77 169.555 1107.18 166.297 1104.57L191.681 1097C192.485 1096.84 193.312 1096.87 194.102 1097.08C194.476 1097.17 194.842 1097.29 195.197 1097.43L195.284 1097.45C196.85 1098.31 198.219 1099.48 199.305 1100.89C200.391 1102.31 201.17 1103.93 201.592 1105.66C203.73 1113.01 204.557 1120.67 204.034 1128.29L204.078 1128.29C204.04 1129.06 204.001 1129.8 203.957 1130.53C203.914 1131.27 203.886 1132.01 203.842 1132.77L203.853 1132.8Z" fill="#333333"/>
<path d="M129.294 1104.3L127.69 1135.05L126.743 1153.63L126.683 1154.8C121.629 1160.82 110.207 1160.51 102.673 1159.51L105.936 1096.55C113.531 1096.41 124.92 1097.34 129.316 1103.89L129.294 1104.3Z" fill="#333333"/>
<path d="M126.527 1091.43L180.241 1091.43C180.241 1091.43 157.075 1102.38 150.789 1102.38C144.503 1102.38 120.214 1091.43 126.527 1091.43Z" fill="#333333"/>
<path d="M126.553 1168.08L180.267 1168.08C180.267 1168.08 156.312 1157.13 150.026 1157.13C143.741 1157.13 120.24 1168.08 126.553 1168.08Z" fill="#333333"/>
</g>
<rect x="61.7139" y="807" width="200" height="200" rx="11" fill="#5B67EC" fill-opacity="0.2"/>
<g opacity="0.5">
<g filter="url(#filter16_d_4186_14200)">
<path d="M246.442 914.718L246.596 904.365L246.611 903.463C246.33 896.627 245.445 889.83 243.965 883.15C241.798 877.354 234.467 874.623 228.413 873.349C227.583 872.412 226.563 871.663 225.42 871.152C224.278 870.642 223.039 870.381 221.788 870.388L205.512 870.115C203.476 870.056 201.479 870.684 199.843 871.898L197.463 871.857L190.226 871.733L187.576 864.938L185.113 864.895L185.998 871.669L142.752 870.945C141.155 869.674 139.178 868.976 137.137 868.962L97.3664 868.302C95.1115 868.229 92.9122 869.01 91.2077 870.488C86.3799 871.124 79.0123 872.878 78.4301 877.769L78.0212 907.293L77.6128 936.828C78.0364 941.724 85.3775 943.729 90.1776 944.524C91.8369 946.061 94.0138 946.917 96.2755 946.923L136.047 947.599C138.083 947.658 140.08 947.03 141.715 945.816L185.242 946.546L184.275 952.71L186.738 952.753L189.316 946.61L196.415 946.729L198.836 946.812C200.428 948.053 202.386 948.734 204.405 948.747L220.681 949.02C222.732 949.068 224.739 948.42 226.375 947.181C232.618 946.2 240.702 943.776 243.147 937.747C244.811 931.118 245.884 924.354 246.352 917.535L246.393 914.72L246.442 914.718Z" fill="white"/>
</g>
<g filter="url(#filter17_d_4186_14200)">
<path d="M246.442 914.718L246.596 904.365L246.611 903.463C246.33 896.627 245.445 889.83 243.965 883.15C241.798 877.354 234.467 874.623 228.413 873.349C227.583 872.412 226.563 871.663 225.42 871.152C224.278 870.642 223.039 870.381 221.788 870.388L205.512 870.115C203.476 870.056 201.479 870.684 199.843 871.898L197.463 871.857L190.226 871.733L187.576 864.938L185.113 864.895L185.998 871.669L142.752 870.945C141.155 869.674 139.178 868.976 137.137 868.962L97.3664 868.302C95.1115 868.229 92.9122 869.01 91.2077 870.488C86.3799 871.124 79.0123 872.878 78.4301 877.769L78.0212 907.293L77.6128 936.828C78.0364 941.724 85.3775 943.729 90.1776 944.524C91.8369 946.061 94.0138 946.917 96.2755 946.923L136.047 947.599C138.083 947.658 140.08 947.03 141.715 945.816L185.242 946.546L184.275 952.71L186.738 952.753L189.316 946.61L196.415 946.729L198.836 946.812C200.428 948.053 202.386 948.734 204.405 948.747L220.681 949.02C222.732 949.068 224.739 948.42 226.375 947.181C232.618 946.2 240.702 943.776 243.147 937.747C244.811 931.118 245.884 924.354 246.352 917.535L246.393 914.72L246.442 914.718Z" fill="white"/>
</g>
<path d="M92.6315 893.765C92.6315 888.541 90.1801 884.307 87.1561 884.307C84.1321 884.307 81.6807 888.541 81.6807 893.765L81.6807 922.138C81.6807 927.362 84.1321 931.596 87.1561 931.596C90.1801 931.596 92.6315 927.362 92.6315 922.138L92.6315 893.765Z" fill="#333333"/>
<path d="M92.6315 882.38C92.6315 879.356 90.1801 876.904 87.1561 876.904C84.1321 876.904 81.6807 879.356 81.6807 882.38L81.6807 893.331C81.6807 896.355 84.1321 898.806 87.1561 898.806C90.1801 898.806 92.6315 896.355 92.6315 893.331L92.6315 882.38Z" fill="#333333"/>
<path d="M245.947 901.538C245.947 900.026 244.721 898.801 243.209 898.801C241.697 898.801 240.472 900.026 240.472 901.538L240.472 923.44C240.472 924.952 241.697 926.178 243.209 926.178C244.721 926.178 245.947 924.952 245.947 923.44L245.947 901.538Z" fill="#333333"/>
<path d="M92.6315 920.707C92.6315 917.683 90.1801 915.231 87.1561 915.231C84.1321 915.231 81.6807 917.683 81.6807 920.707L81.6807 931.658C81.6807 934.682 84.1321 937.133 87.1561 937.133C90.1801 937.133 92.6315 934.682 92.6315 931.658L92.6315 920.707Z" fill="#333333"/>
<path d="M203.853 912.799L203.81 912.799C203.538 920.436 201.916 927.964 199.019 935.035C198.422 936.709 197.48 938.239 196.254 939.524C195.028 940.81 193.544 941.823 191.9 942.498L191.813 942.498C191.446 942.609 191.071 942.688 190.69 942.734C189.882 942.854 189.057 942.793 188.276 942.553L163.812 932.237C167.321 930.014 169.194 914.524 169.791 908.66C169.791 902.774 169.555 887.18 166.297 884.568L191.681 876.996C192.485 876.844 193.312 876.874 194.102 877.083C194.476 877.169 194.842 877.286 195.197 877.434L195.284 877.45C196.85 878.305 198.219 879.476 199.305 880.891C200.391 882.305 201.17 883.931 201.592 885.663C203.73 893.004 204.557 900.665 204.034 908.293L204.078 908.293C204.04 909.054 204.001 909.799 203.957 910.533C203.914 911.266 203.886 912.011 203.842 912.772L203.853 912.799Z" fill="#333333"/>
<path d="M129.294 884.301L127.69 915.045L126.743 933.634L126.683 934.801C121.629 940.824 110.207 940.511 102.673 939.509L105.936 876.553C113.531 876.405 124.92 877.341 129.316 883.89L129.294 884.301Z" fill="#333333"/>
<path d="M126.527 871.426L180.241 871.426C180.241 871.426 157.075 882.377 150.789 882.377C144.503 882.377 120.214 871.426 126.527 871.426Z" fill="#333333"/>
<path d="M126.553 948.081L180.267 948.081C180.267 948.081 156.312 937.13 150.026 937.13C143.741 937.13 120.24 948.081 126.553 948.081Z" fill="#333333"/>
</g>
<rect width="200" height="200" rx="11" transform="matrix(-1 0 0 1 850.715 367)" fill="#5B67EC" fill-opacity="0.2"/>
<g opacity="0.5">
<g filter="url(#filter18_d_4186_14200)">
<path d="M665.986 474.718L665.833 464.365L665.818 463.463C666.099 456.627 666.984 449.83 668.464 443.15C670.631 437.354 677.961 434.623 684.016 433.349C684.846 432.412 685.866 431.663 687.008 431.152C688.151 430.642 689.389 430.381 690.641 430.388L706.917 430.115C708.953 430.056 710.949 430.684 712.585 431.898L714.966 431.857L722.202 431.733L724.853 424.938L727.316 424.895L726.43 431.669L769.677 430.945C771.274 429.674 773.251 428.976 775.291 428.962L815.062 428.302C817.317 428.229 819.516 429.01 821.221 430.488C826.049 431.124 833.416 432.878 833.999 437.769L834.407 467.293L834.816 496.828C834.392 501.724 827.051 503.729 822.251 504.524C820.592 506.061 818.415 506.917 816.153 506.923L776.382 507.599C774.346 507.658 772.349 507.03 770.713 505.816L727.187 506.546L728.154 512.71L725.691 512.753L723.112 506.61L716.014 506.729L713.593 506.812C712.001 508.053 710.043 508.734 708.024 508.747L691.748 509.02C689.697 509.068 687.69 508.42 686.054 507.181C679.811 506.2 671.727 503.776 669.281 497.747C667.618 491.118 666.545 484.354 666.076 477.535L666.036 474.72L665.986 474.718Z" fill="white"/>
</g>
<g filter="url(#filter19_d_4186_14200)">
<path d="M665.986 474.718L665.833 464.365L665.818 463.463C666.099 456.627 666.984 449.83 668.464 443.15C670.631 437.354 677.961 434.623 684.016 433.349C684.846 432.412 685.866 431.663 687.008 431.152C688.151 430.642 689.389 430.381 690.641 430.388L706.917 430.115C708.953 430.056 710.949 430.684 712.585 431.898L714.966 431.857L722.202 431.733L724.853 424.938L727.316 424.895L726.43 431.669L769.677 430.945C771.274 429.674 773.251 428.976 775.291 428.962L815.062 428.302C817.317 428.229 819.516 429.01 821.221 430.488C826.049 431.124 833.416 432.878 833.999 437.769L834.407 467.293L834.816 496.828C834.392 501.724 827.051 503.729 822.251 504.524C820.592 506.061 818.415 506.917 816.153 506.923L776.382 507.599C774.346 507.658 772.349 507.03 770.713 505.816L727.187 506.546L728.154 512.71L725.691 512.753L723.112 506.61L716.014 506.729L713.593 506.812C712.001 508.053 710.043 508.734 708.024 508.747L691.748 509.02C689.697 509.068 687.69 508.42 686.054 507.181C679.811 506.2 671.727 503.776 669.281 497.747C667.618 491.118 666.545 484.354 666.076 477.535L666.036 474.72L665.986 474.718Z" fill="white"/>
</g>
<path d="M819.797 453.765C819.797 448.541 822.249 444.307 825.273 444.307C828.297 444.307 830.748 448.541 830.748 453.765L830.748 482.138C830.748 487.362 828.297 491.596 825.273 491.596C822.249 491.596 819.797 487.362 819.797 482.138L819.797 453.765Z" fill="#333333"/>
<path d="M819.797 442.38C819.797 439.356 822.249 436.904 825.273 436.904C828.297 436.904 830.748 439.356 830.748 442.38L830.748 453.331C830.748 456.355 828.297 458.806 825.273 458.806C822.249 458.806 819.797 456.355 819.797 453.331L819.797 442.38Z" fill="#333333"/>
<path d="M666.482 461.538C666.482 460.026 667.707 458.801 669.219 458.801C670.731 458.801 671.957 460.026 671.957 461.538L671.957 483.44C671.957 484.952 670.731 486.178 669.219 486.178C667.707 486.178 666.482 484.952 666.482 483.44L666.482 461.538Z" fill="#333333"/>
<path d="M819.797 480.708C819.797 477.684 822.249 475.232 825.273 475.232C828.297 475.232 830.748 477.684 830.748 480.708L830.748 491.659C830.748 494.683 828.297 497.134 825.273 497.134C822.249 497.134 819.797 494.683 819.797 491.659L819.797 480.708Z" fill="#333333"/>
<path d="M708.575 472.799L708.619 472.799C708.891 480.436 710.513 487.964 713.41 495.035C714.006 496.709 714.948 498.239 716.175 499.524C717.401 500.81 718.884 501.823 720.528 502.498L720.616 502.498C720.982 502.609 721.358 502.688 721.738 502.734C722.547 502.854 723.372 502.793 724.153 502.553L748.617 492.237C745.107 490.014 743.235 474.524 742.638 468.66C742.638 462.774 742.873 447.18 746.131 444.568L720.747 436.996C719.944 436.844 719.117 436.874 718.327 437.083C717.953 437.169 717.587 437.286 717.232 437.434L717.144 437.45C715.579 438.305 714.21 439.476 713.123 440.891C712.037 442.305 711.258 443.931 710.837 445.663C708.698 453.004 707.872 460.665 708.395 468.293L708.351 468.293C708.389 469.054 708.428 469.799 708.471 470.533C708.515 471.266 708.543 472.011 708.586 472.772L708.575 472.799Z" fill="#333333"/>
<path d="M783.134 444.301L784.739 475.045L785.686 493.634L785.746 494.801C790.8 500.824 802.222 500.511 809.756 499.509L806.493 436.553C798.898 436.405 787.509 437.341 783.112 443.89L783.134 444.301Z" fill="#333333"/>
<path d="M785.901 431.426L732.187 431.426C732.187 431.426 755.354 442.377 761.64 442.377C767.926 442.377 792.215 431.426 785.901 431.426Z" fill="#333333"/>
<path d="M785.875 508.082L732.162 508.082C732.162 508.082 756.117 497.131 762.402 497.131C768.688 497.131 792.189 508.082 785.875 508.082Z" fill="#333333"/>
</g>
<rect width="200" height="200" rx="11" transform="matrix(-1 0 0 1 850.715 807)" fill="#5B67EC" fill-opacity="0.2"/>
<g opacity="0.5">
<g filter="url(#filter20_d_4186_14200)">
<path d="M665.986 914.718L665.833 904.365L665.818 903.463C666.099 896.627 666.984 889.83 668.464 883.15C670.631 877.354 677.961 874.623 684.016 873.349C684.846 872.412 685.866 871.663 687.008 871.152C688.151 870.642 689.389 870.381 690.641 870.388L706.917 870.115C708.953 870.056 710.949 870.684 712.585 871.898L714.966 871.857L722.202 871.733L724.853 864.938L727.316 864.895L726.43 871.669L769.677 870.945C771.274 869.674 773.251 868.976 775.291 868.962L815.062 868.302C817.317 868.229 819.516 869.01 821.221 870.488C826.049 871.124 833.416 872.878 833.999 877.769L834.407 907.293L834.816 936.828C834.392 941.724 827.051 943.729 822.251 944.524C820.592 946.061 818.415 946.917 816.153 946.923L776.382 947.599C774.346 947.658 772.349 947.03 770.713 945.816L727.187 946.546L728.154 952.71L725.691 952.753L723.112 946.61L716.014 946.729L713.593 946.812C712.001 948.053 710.043 948.734 708.024 948.747L691.748 949.02C689.697 949.068 687.69 948.42 686.054 947.181C679.811 946.2 671.727 943.776 669.281 937.747C667.618 931.118 666.545 924.354 666.076 917.535L666.036 914.72L665.986 914.718Z" fill="white"/>
</g>
<g filter="url(#filter21_d_4186_14200)">
<path d="M665.986 914.718L665.833 904.365L665.818 903.463C666.099 896.627 666.984 889.83 668.464 883.15C670.631 877.354 677.961 874.623 684.016 873.349C684.846 872.412 685.866 871.663 687.008 871.152C688.151 870.642 689.389 870.381 690.641 870.388L706.917 870.115C708.953 870.056 710.949 870.684 712.585 871.898L714.966 871.857L722.202 871.733L724.853 864.938L727.316 864.895L726.43 871.669L769.677 870.945C771.274 869.674 773.251 868.976 775.291 868.962L815.062 868.302C817.317 868.229 819.516 869.01 821.221 870.488C826.049 871.124 833.416 872.878 833.999 877.769L834.407 907.293L834.816 936.828C834.392 941.724 827.051 943.729 822.251 944.524C820.592 946.061 818.415 946.917 816.153 946.923L776.382 947.599C774.346 947.658 772.349 947.03 770.713 945.816L727.187 946.546L728.154 952.71L725.691 952.753L723.112 946.61L716.014 946.729L713.593 946.812C712.001 948.053 710.043 948.734 708.024 948.747L691.748 949.02C689.697 949.068 687.69 948.42 686.054 947.181C679.811 946.2 671.727 943.776 669.281 937.747C667.618 931.118 666.545 924.354 666.076 917.535L666.036 914.72L665.986 914.718Z" fill="white"/>
</g>
<path d="M819.797 893.765C819.797 888.541 822.249 884.307 825.273 884.307C828.297 884.307 830.748 888.541 830.748 893.765L830.748 922.138C830.748 927.362 828.297 931.596 825.273 931.596C822.249 931.596 819.797 927.362 819.797 922.138L819.797 893.765Z" fill="#333333"/>
<path d="M819.797 882.38C819.797 879.356 822.249 876.904 825.273 876.904C828.297 876.904 830.748 879.356 830.748 882.38L830.748 893.331C830.748 896.355 828.297 898.806 825.273 898.806C822.249 898.806 819.797 896.355 819.797 893.331L819.797 882.38Z" fill="#333333"/>
<path d="M666.482 901.538C666.482 900.026 667.707 898.801 669.219 898.801C670.731 898.801 671.957 900.026 671.957 901.538L671.957 923.44C671.957 924.952 670.731 926.178 669.219 926.178C667.707 926.178 666.482 924.952 666.482 923.44L666.482 901.538Z" fill="#333333"/>
<path d="M819.797 920.707C819.797 917.683 822.249 915.231 825.273 915.231C828.297 915.231 830.748 917.683 830.748 920.707L830.748 931.658C830.748 934.682 828.297 937.133 825.273 937.133C822.249 937.133 819.797 934.682 819.797 931.658L819.797 920.707Z" fill="#333333"/>
<path d="M708.575 912.799L708.619 912.799C708.891 920.436 710.513 927.964 713.41 935.035C714.006 936.709 714.948 938.239 716.175 939.524C717.401 940.81 718.884 941.823 720.528 942.498L720.616 942.498C720.982 942.609 721.358 942.688 721.738 942.734C722.547 942.854 723.372 942.793 724.153 942.553L748.617 932.237C745.107 930.014 743.235 914.524 742.638 908.66C742.638 902.774 742.873 887.18 746.131 884.568L720.747 876.996C719.944 876.844 719.117 876.874 718.327 877.083C717.953 877.169 717.587 877.286 717.232 877.434L717.144 877.45C715.579 878.305 714.21 879.476 713.123 880.891C712.037 882.305 711.258 883.931 710.837 885.663C708.698 893.004 707.872 900.665 708.395 908.293L708.351 908.293C708.389 909.054 708.428 909.799 708.471 910.533C708.515 911.266 708.543 912.011 708.586 912.772L708.575 912.799Z" fill="#333333"/>
<path d="M783.134 884.301L784.739 915.045L785.686 933.634L785.746 934.801C790.8 940.824 802.222 940.511 809.756 939.509L806.493 876.553C798.898 876.405 787.509 877.341 783.112 883.89L783.134 884.301Z" fill="#333333"/>
<path d="M785.901 871.426L732.187 871.426C732.187 871.426 755.354 882.377 761.64 882.377C767.926 882.377 792.215 871.426 785.901 871.426Z" fill="#333333"/>
<path d="M785.875 948.081L732.162 948.081C732.162 948.081 756.117 937.13 762.402 937.13C768.688 937.13 792.189 948.081 785.875 948.081Z" fill="#333333"/>
</g>
<rect x="650.717" y="587" width="200" height="200" rx="11" fill="#5B67EC" fill-opacity="0.2" stroke="#5B67EC" stroke-width="8"/>
<g opacity="0.5">
<g filter="url(#filter22_d_4186_14200)">
<path d="M665.986 691.146L665.833 680.793L665.818 679.891C666.099 673.055 666.984 666.258 668.464 659.578C670.631 653.781 677.961 651.051 684.016 649.777C684.846 648.84 685.866 648.091 687.008 647.58C688.151 647.069 689.389 646.809 690.641 646.816L706.917 646.543C708.953 646.484 710.949 647.112 712.585 648.326L714.966 648.285L722.202 648.161L724.853 641.366L727.316 641.323L726.43 648.097L769.677 647.372C771.274 646.102 773.251 645.404 775.291 645.389L815.062 644.73C817.317 644.657 819.516 645.438 821.221 646.916C826.049 647.551 833.416 649.306 833.999 654.197L834.407 683.721L834.816 713.256C834.392 718.152 827.051 720.157 822.251 720.952C820.592 722.488 818.415 723.345 816.153 723.35L776.382 724.026C774.346 724.086 772.349 723.458 770.713 722.243L727.187 722.974L728.154 729.138L725.691 729.181L723.112 723.038L716.014 723.156L713.593 723.239C712.001 724.481 710.043 725.162 708.024 725.175L691.748 725.448C689.697 725.496 687.69 724.847 686.054 723.609C679.811 722.628 671.727 720.203 669.281 714.175C667.618 707.546 666.545 700.782 666.076 693.963L666.036 691.148L665.986 691.146Z" fill="#5B67EC"/>
</g>
<g filter="url(#filter23_d_4186_14200)">
<path d="M665.986 691.146L665.833 680.793L665.818 679.891C666.099 673.055 666.984 666.258 668.464 659.578C670.631 653.781 677.961 651.051 684.016 649.777C684.846 648.84 685.866 648.091 687.008 647.58C688.151 647.069 689.389 646.809 690.641 646.816L706.917 646.543C708.953 646.484 710.949 647.112 712.585 648.326L714.966 648.285L722.202 648.161L724.853 641.366L727.316 641.323L726.43 648.097L769.677 647.372C771.274 646.102 773.251 645.404 775.291 645.389L815.062 644.73C817.317 644.657 819.516 645.438 821.221 646.916C826.049 647.551 833.416 649.306 833.999 654.197L834.407 683.721L834.816 713.256C834.392 718.152 827.051 720.157 822.251 720.952C820.592 722.488 818.415 723.345 816.153 723.35L776.382 724.026C774.346 724.086 772.349 723.458 770.713 722.243L727.187 722.974L728.154 729.138L725.691 729.181L723.112 723.038L716.014 723.156L713.593 723.239C712.001 724.481 710.043 725.162 708.024 725.175L691.748 725.448C689.697 725.496 687.69 724.847 686.054 723.609C679.811 722.628 671.727 720.203 669.281 714.175C667.618 707.546 666.545 700.782 666.076 693.963L666.036 691.148L665.986 691.146Z" fill="#5B67EC"/>
</g>
<path d="M819.797 670.192C819.797 664.969 822.249 660.734 825.273 660.734C828.297 660.734 830.748 664.969 830.748 670.192L830.748 698.566C830.748 703.789 828.297 708.024 825.273 708.024C822.249 708.024 819.797 703.789 819.797 698.566L819.797 670.192Z" fill="#333333"/>
<path d="M819.797 658.809C819.797 655.785 822.249 653.334 825.273 653.334C828.297 653.334 830.748 655.785 830.748 658.809L830.748 669.76C830.748 672.784 828.297 675.236 825.273 675.236C822.249 675.236 819.797 672.784 819.797 669.76L819.797 658.809Z" fill="#333333"/>
<path d="M666.481 677.966C666.481 676.454 667.706 675.229 669.218 675.229C670.73 675.229 671.956 676.454 671.956 677.966L671.956 699.868C671.956 701.38 670.73 702.606 669.218 702.606C667.706 702.606 666.481 701.38 666.481 699.868L666.481 677.966Z" fill="#333333"/>
<path d="M819.797 697.136C819.797 694.112 822.249 691.66 825.273 691.66C828.297 691.66 830.748 694.112 830.748 697.136L830.748 708.086C830.748 711.11 828.297 713.562 825.273 713.562C822.249 713.562 819.797 711.11 819.797 708.086L819.797 697.136Z" fill="#333333"/>
<path d="M708.574 689.229L708.618 689.229C708.89 696.866 710.512 704.394 713.409 711.465C714.005 713.139 714.947 714.668 716.174 715.954C717.4 717.24 718.883 718.253 720.527 718.928L720.615 718.928C720.981 719.039 721.357 719.118 721.737 719.163C722.546 719.284 723.371 719.222 724.152 718.983L748.616 708.667C745.106 706.444 743.234 690.954 742.637 685.09C742.637 679.204 742.872 663.61 746.13 660.998L720.746 653.425C719.943 653.274 719.116 653.303 718.326 653.513C717.952 653.599 717.586 653.716 717.231 653.863L717.143 653.88C715.578 654.734 714.209 655.906 713.122 657.32C712.036 658.735 711.257 660.36 710.836 662.093C708.697 669.434 707.871 677.095 708.394 684.723L708.35 684.723C708.388 685.484 708.427 686.229 708.47 686.962C708.514 687.696 708.542 688.441 708.585 689.202L708.574 689.229Z" fill="#333333"/>
<path d="M783.134 660.728L784.739 691.473L785.686 710.062L785.746 711.228C790.8 717.251 802.222 716.939 809.756 715.937L806.493 652.981C798.898 652.833 787.509 653.769 783.112 660.318L783.134 660.728Z" fill="#333333"/>
<path d="M785.901 647.854L732.187 647.854C732.187 647.854 755.354 658.804 761.64 658.804C767.926 658.804 792.215 647.854 785.901 647.854Z" fill="#333333"/>
<path d="M785.876 724.509L732.163 724.509C732.163 724.509 756.118 713.559 762.403 713.559C768.689 713.559 792.19 724.509 785.876 724.509Z" fill="#333333"/>
</g>
<circle cx="750.716" cy="686.999" r="34.7143" fill="#5B67EC" stroke="#5B67EC" stroke-width="2"/>
<path d="M734.646 685.214L747.146 695.928L766.788 676.285" stroke="white" stroke-width="8" stroke-linecap="round" stroke-linejoin="round"/>
</g>
<path d="M782.234 149.858H786.284V151.244H782.234V149.858ZM777.878 147.086H779.246V149.03C779.246 152.234 777.536 154.934 774.728 156.05L773.846 154.7C776.348 153.8 777.878 151.496 777.878 149.03V147.086ZM778.202 147.086H779.57V149.084C779.57 151.316 781.046 153.458 783.476 154.34L782.558 155.654C779.876 154.61 778.202 152.054 778.202 149.084V147.086ZM785.672 146.096H787.364V158.3H785.672V146.096ZM776.78 160.73H787.742V162.116H776.78V160.73ZM776.78 156.968H778.472V161.414H776.78V156.968ZM790.639 153.836H791.701C794.221 153.836 795.751 153.764 797.551 153.422L797.713 154.79C795.841 155.15 794.275 155.222 791.701 155.222H790.639V153.836ZM790.639 147.248H796.975V148.634H792.259V154.574H790.639V147.248ZM791.755 150.506H796.795V151.82H791.755V150.506ZM802.177 146.096H803.779V156.032H802.177V146.096ZM799.693 150.29H802.663V151.676H799.693V150.29ZM798.595 146.402H800.179V155.924H798.595V146.402ZM792.745 156.842H803.779V162.458H802.105V158.228H792.745V156.842ZM812.615 153.944H814.289V156.41H812.615V153.944ZM808.007 146.33H809.681V147.77H817.259V146.33H818.933V151.748H808.007V146.33ZM809.681 149.048V150.47H817.259V149.048H809.681ZM806.063 152.99H820.859V154.34H806.063V152.99ZM807.827 155.798H818.987V159.56H809.537V161.468H807.863V158.354H817.313V157.058H807.827V155.798ZM807.863 160.982H819.455V162.296H807.863V160.982ZM833.116 146.078H834.808V162.44H833.116V146.078ZM834.358 152.63H837.346V154.034H834.358V152.63ZM828.904 147.824H830.56C830.56 152.522 828.49 156.734 823.162 159.416L822.226 158.102C826.69 155.834 828.904 152.45 828.904 148.094V147.824ZM823 147.824H829.786V149.21H823V147.824Z" fill="black"/>
<rect x="347.007" y="89" width="126.516" height="126.516" rx="6" fill="#5B67EC" fill-opacity="0.2"/>
<g opacity="0.5">
<g filter="url(#filter24_d_4186_14200)">
<path d="M458.669 154.872L458.757 148.323L458.765 147.752C458.605 143.428 458.099 139.128 457.254 134.903C456.015 131.236 451.827 129.508 448.368 128.703C447.893 128.11 447.311 127.636 446.658 127.313C446.005 126.99 445.297 126.825 444.582 126.829L435.283 126.657C434.12 126.62 432.979 127.017 432.044 127.785L430.684 127.759L426.549 127.68L425.035 123.382L423.627 123.355L424.133 127.64L399.424 127.182C398.512 126.378 397.382 125.936 396.216 125.927L373.493 125.51C372.204 125.464 370.948 125.958 369.974 126.893C367.215 127.295 363.006 128.405 362.673 131.499L362.44 150.175L362.206 168.858C362.448 171.955 366.643 173.224 369.385 173.726C370.333 174.699 371.577 175.24 372.869 175.244L395.593 175.672C396.757 175.709 397.898 175.312 398.832 174.544L423.701 175.006L423.149 178.905L424.556 178.932L426.029 175.046L430.085 175.121L431.468 175.174C432.378 175.959 433.497 176.39 434.65 176.398L443.95 176.571C445.122 176.601 446.268 176.191 447.203 175.407C450.77 174.787 455.389 173.253 456.786 169.44C457.737 165.246 458.35 160.967 458.617 156.654L458.641 154.873L458.669 154.872Z" fill="white"/>
</g>
<g filter="url(#filter25_d_4186_14200)">
<path d="M458.669 154.872L458.757 148.323L458.765 147.752C458.605 143.428 458.099 139.128 457.254 134.903C456.015 131.236 451.827 129.508 448.368 128.703C447.893 128.11 447.311 127.636 446.658 127.313C446.005 126.99 445.297 126.825 444.582 126.829L435.283 126.657C434.12 126.62 432.979 127.017 432.044 127.785L430.684 127.759L426.549 127.68L425.035 123.382L423.627 123.355L424.133 127.64L399.424 127.182C398.512 126.378 397.382 125.936 396.216 125.927L373.493 125.51C372.204 125.464 370.948 125.958 369.974 126.893C367.215 127.295 363.006 128.405 362.673 131.499L362.44 150.175L362.206 168.858C362.448 171.955 366.643 173.224 369.385 173.726C370.333 174.699 371.577 175.24 372.869 175.244L395.593 175.672C396.757 175.709 397.898 175.312 398.832 174.544L423.701 175.006L423.149 178.905L424.556 178.932L426.029 175.046L430.085 175.121L431.468 175.174C432.378 175.959 433.497 176.39 434.65 176.398L443.95 176.571C445.122 176.601 446.268 176.191 447.203 175.407C450.77 174.787 455.389 173.253 456.786 169.44C457.737 165.246 458.35 160.967 458.617 156.654L458.641 154.873L458.669 154.872Z" fill="white"/>
</g>
<path d="M370.787 141.621C370.787 138.317 369.386 135.639 367.659 135.639C365.931 135.639 364.53 138.317 364.53 141.621L364.53 159.57C364.53 162.874 365.931 165.552 367.659 165.552C369.386 165.552 370.787 162.874 370.787 159.57L370.787 141.621Z" fill="#333333"/>
<path d="M370.787 134.421C370.787 132.508 369.386 130.957 367.659 130.957C365.931 130.957 364.53 132.508 364.53 134.421L364.53 141.348C364.53 143.261 365.931 144.811 367.659 144.811C369.386 144.811 370.787 143.261 370.787 141.348L370.787 134.421Z" fill="#333333"/>
<path d="M458.388 146.54C458.388 145.584 457.688 144.809 456.824 144.809C455.96 144.809 455.26 145.584 455.26 146.54L455.26 160.395C455.26 161.351 455.96 162.126 456.824 162.126C457.688 162.126 458.388 161.351 458.388 160.395L458.388 146.54Z" fill="#333333"/>
<path d="M370.787 158.663C370.787 156.75 369.386 155.199 367.659 155.199C365.931 155.199 364.53 156.75 364.53 158.663L364.53 165.59C364.53 167.503 365.931 169.053 367.659 169.053C369.386 169.053 370.787 167.503 370.787 165.59L370.787 158.663Z" fill="#333333"/>
<path d="M434.338 153.666L434.313 153.666C434.158 158.496 433.231 163.258 431.575 167.731C431.235 168.79 430.697 169.757 429.996 170.571C429.295 171.384 428.448 172.025 427.509 172.452L427.459 172.452C427.249 172.522 427.034 172.572 426.817 172.601C426.355 172.677 425.884 172.638 425.438 172.487L411.46 165.961C413.465 164.555 414.535 154.757 414.876 151.047C414.876 147.324 414.742 137.46 412.88 135.807L427.383 131.017C427.842 130.921 428.315 130.94 428.766 131.073C428.98 131.127 429.189 131.201 429.392 131.294L429.442 131.305C430.336 131.845 431.119 132.587 431.739 133.481C432.36 134.376 432.805 135.404 433.046 136.5C434.268 141.144 434.74 145.99 434.441 150.815L434.466 150.815C434.444 151.296 434.422 151.768 434.397 152.232C434.372 152.696 434.357 153.167 434.332 153.648L434.338 153.666Z" fill="#333333"/>
<path d="M391.737 135.636L390.82 155.084L390.279 166.843L390.244 167.581C387.357 171.391 380.831 171.193 376.526 170.559L378.391 130.735C382.73 130.642 389.237 131.234 391.749 135.377L391.737 135.636Z" fill="#333333"/>
<path d="M390.154 127.492L420.843 127.492C420.843 127.492 407.607 134.419 404.015 134.419C400.424 134.419 386.547 127.492 390.154 127.492Z" fill="#333333"/>
<path d="M390.166 175.982L420.856 175.982C420.856 175.982 407.169 169.055 403.578 169.055C399.986 169.055 386.559 175.982 390.166 175.982Z" fill="#333333"/>
</g>
<rect x="628" y="92.1602" width="126.516" height="126.516" rx="6" fill="#878787" fill-opacity="0.3"/>
<path d="M706.672 155.61C706.672 163.831 699.468 170.62 690.422 170.62C681.375 170.62 674.171 163.831 674.171 155.61C674.171 147.389 681.375 140.6 690.422 140.6C699.468 140.6 706.672 147.389 706.672 155.61Z" fill="#878787" stroke="#878787" stroke-width="2"/>
<path d="M683.526 149.207L697.327 162.015M697.327 149.207L683.526 162.015" stroke="white" stroke-width="1.5" stroke-linecap="round" stroke-linejoin="round"/>
<rect x="85.7178" y="95.75" width="112.772" height="112.772" rx="5.25" fill="#5B67EC" fill-opacity="0.2" stroke="#5B67EC" stroke-width="1.5"/>
<g opacity="0.5">
<g filter="url(#filter26_d_4186_14200)">
<path d="M190.55 149.606L190.544 155.522L190.544 156.037C190.322 159.94 189.754 163.815 188.848 167.618C187.558 170.91 183.345 172.403 179.874 173.076C179.392 173.604 178.802 174.022 178.145 174.304C177.488 174.585 176.778 174.723 176.063 174.708L166.762 174.716C165.598 174.731 164.464 174.354 163.54 173.646L162.179 173.648L158.044 173.653L156.469 177.511L155.061 177.513L155.628 173.651L130.916 173.672C129.992 174.384 128.856 174.765 127.69 174.754L104.963 174.77C103.674 174.791 102.425 174.325 101.465 173.465C98.7123 173.059 94.5192 171.989 94.231 169.19L94.2653 152.32L94.2999 135.443C94.5864 132.649 98.7985 131.571 101.548 131.16C102.51 130.297 103.761 129.828 105.053 129.845L127.781 129.82C128.944 129.804 130.079 130.181 131.003 130.89L155.876 130.868L155.379 127.337L156.787 127.335L158.204 130.868L162.26 130.865L163.644 130.839C164.565 130.144 165.69 129.773 166.843 129.784L176.144 129.776C177.316 129.767 178.457 130.156 179.38 130.878C182.938 131.495 187.534 132.954 188.876 136.42C189.767 140.222 190.318 144.096 190.524 147.996L190.522 149.604L190.55 149.606Z" fill="#5B67EC"/>
</g>
<path d="M102.486 160.175C102.439 163.159 101 165.556 99.2725 165.528C97.545 165.501 96.183 163.059 96.2303 160.075L96.4878 143.866C96.5352 140.882 97.9741 138.485 99.7016 138.513C101.429 138.54 102.791 140.982 102.744 143.966L102.486 160.175Z" fill="#333333"/>
<path d="M102.384 166.682C102.356 168.41 100.934 169.788 99.2061 169.761C97.4786 169.733 96.1004 168.31 96.1278 166.583L96.2272 160.327C96.2546 158.599 97.6773 157.221 99.4048 157.249C101.132 157.276 102.511 158.699 102.483 160.426L102.384 166.682Z" fill="#333333"/>
<path d="M190.143 157.126C190.129 157.99 189.418 158.679 188.554 158.665C187.69 158.652 187.001 157.94 187.015 157.077L187.214 144.565C187.228 143.701 187.939 143.012 188.803 143.026C189.666 143.039 190.356 143.751 190.342 144.614L190.143 157.126Z" fill="#333333"/>
<path d="M102.729 144.78C102.702 146.508 101.279 147.886 99.5518 147.858C97.8243 147.831 96.4461 146.408 96.4735 144.681L96.5729 138.425C96.6003 136.697 98.023 135.319 99.7505 135.346C101.478 135.374 102.856 136.796 102.829 138.524L102.729 144.78Z" fill="#333333"/>
<path d="M166.196 150.308L166.171 150.308C166.085 145.943 165.227 141.627 163.636 137.561C163.31 136.6 162.786 135.717 162.097 134.972C161.408 134.226 160.57 133.634 159.637 133.233L159.587 133.233C159.378 133.166 159.165 133.117 158.948 133.088C158.487 133.012 158.015 133.039 157.567 133.169L143.497 138.84C145.482 140.142 146.411 149.008 146.699 152.364C146.646 155.726 146.37 164.633 144.485 166.095L158.917 170.652C159.375 170.746 159.848 170.736 160.301 170.623C160.515 170.578 160.726 170.514 160.93 170.433L160.98 170.425C161.882 169.951 162.675 169.294 163.308 168.496C163.941 167.698 164.401 166.776 164.658 165.79C165.946 161.616 166.488 157.247 166.258 152.884L166.283 152.884C166.268 152.449 166.253 152.024 166.235 151.604C166.216 151.184 166.207 150.759 166.189 150.324L166.196 150.308Z" fill="#333333"/>
<path d="M123.346 165.915L122.709 148.337L122.336 137.709L122.312 137.042C119.48 133.555 112.952 133.63 108.639 134.134L109.932 170.129C114.269 170.282 120.784 169.851 123.355 166.15L123.346 165.915Z" fill="#333333"/>
<path d="M121.644 173.242L152.329 173.729C152.329 173.729 139.194 167.263 135.603 167.206C132.012 167.149 118.037 173.185 121.644 173.242Z" fill="#333333"/>
<path d="M122.354 129.451L153.04 129.938C153.04 129.938 139.256 135.977 135.665 135.92C132.074 135.863 118.748 129.394 122.354 129.451Z" fill="#333333"/>
</g>
<circle cx="146.189" cy="152.138" r="19.4053" fill="#5B67EC" stroke="#5B67EC" stroke-width="2"/>
<path d="M137.005 151.115L144.147 157.237L155.37 146.014" stroke="white" stroke-width="2" stroke-linecap="round" stroke-linejoin="round"/>
<path d="M226.792 146.858H230.842V148.244H226.792V146.858ZM222.436 144.086H223.804V146.03C223.804 149.234 222.094 151.934 219.286 153.05L218.404 151.7C220.906 150.8 222.436 148.496 222.436 146.03V144.086ZM222.76 144.086H224.128V146.084C224.128 148.316 225.604 150.458 228.034 151.34L227.116 152.654C224.434 151.61 222.76 149.054 222.76 146.084V144.086ZM230.23 143.096H231.922V155.3H230.23V143.096ZM221.338 157.73H232.3V159.116H221.338V157.73ZM221.338 153.968H223.03V158.414H221.338V153.968ZM235.196 150.836H236.258C238.778 150.836 240.308 150.764 242.108 150.422L242.27 151.79C240.398 152.15 238.832 152.222 236.258 152.222H235.196V150.836ZM235.196 144.248H241.532V145.634H236.816V151.574H235.196V144.248ZM236.312 147.506H241.352V148.82H236.312V147.506ZM246.734 143.096H248.336V153.032H246.734V143.096ZM244.25 147.29H247.22V148.676H244.25V147.29ZM243.152 143.402H244.736V152.924H243.152V143.402ZM237.302 153.842H248.336V159.458H246.662V155.228H237.302V153.842ZM254.581 145.49H255.931V147.956C255.931 151.43 253.969 154.994 251.323 156.326L250.333 154.976C252.763 153.806 254.581 150.71 254.581 147.956V145.49ZM254.905 145.49H256.255V147.956C256.255 150.53 257.983 153.428 260.413 154.58L259.459 155.912C256.777 154.616 254.905 151.25 254.905 147.956V145.49ZM250.927 144.734H259.783V146.138H250.927V144.734ZM261.565 143.096H263.257V159.458H261.565V143.096ZM262.879 149.612H265.867V151.016H262.879V149.612ZM278.502 143.078H280.194V159.476H278.502V143.078ZM267.666 154.148H269.052C271.824 154.148 274.236 154.058 277.062 153.59L277.242 154.958C274.344 155.444 271.896 155.552 269.052 155.552H267.666V154.148ZM267.63 144.572H275.226V150.53H269.376V154.688H267.666V149.162H273.516V145.958H267.63V144.572Z" fill="black"/>
<path d="M507.292 146.858H511.342V148.244H507.292V146.858ZM502.936 144.086H504.304V146.03C504.304 149.234 502.594 151.934 499.786 153.05L498.904 151.7C501.406 150.8 502.936 148.496 502.936 146.03V144.086ZM503.26 144.086H504.628V146.084C504.628 148.316 506.104 150.458 508.534 151.34L507.616 152.654C504.934 151.61 503.26 149.054 503.26 146.084V144.086ZM510.73 143.096H512.422V155.3H510.73V143.096ZM501.838 157.73H512.8V159.116H501.838V157.73ZM501.838 153.968H503.53V158.414H501.838V153.968ZM515.696 150.836H516.758C519.278 150.836 520.808 150.764 522.608 150.422L522.77 151.79C520.898 152.15 519.332 152.222 516.758 152.222H515.696V150.836ZM515.696 144.248H522.032V145.634H517.316V151.574H515.696V144.248ZM516.812 147.506H521.852V148.82H516.812V147.506ZM527.234 143.096H528.836V153.032H527.234V143.096ZM524.75 147.29H527.72V148.676H524.75V147.29ZM523.652 143.402H525.236V152.924H523.652V143.402ZM517.802 153.842H528.836V159.458H527.162V155.228H517.802V153.842ZM542.065 143.078H543.757V159.44H542.065V143.078ZM543.307 149.63H546.295V151.034H543.307V149.63ZM537.853 144.824H539.509C539.509 149.522 537.439 153.734 532.111 156.416L531.175 155.102C535.639 152.834 537.853 149.45 537.853 145.094V144.824ZM531.949 144.824H538.735V146.21H531.949V144.824ZM549.21 147.524H560.352V148.892H549.21V147.524ZM549.21 143.402H550.902V148.136H549.21V143.402ZM547.248 150.674H562.044V152.042H547.248V150.674ZM554.61 153.41C558.12 153.41 560.226 154.49 560.226 156.416C560.226 158.306 558.12 159.404 554.61 159.404C551.1 159.404 548.994 158.306 548.994 156.416C548.994 154.49 551.1 153.41 554.61 153.41ZM554.61 154.724C552.126 154.724 550.704 155.318 550.704 156.416C550.704 157.478 552.126 158.072 554.61 158.072C557.094 158.072 558.534 157.478 558.534 156.416C558.534 155.318 557.094 154.724 554.61 154.724Z" fill="black"/>
<defs>
<filter id="filter0_d_4186_14200" x="73.6009" y="422.889" width="177.021" height="95.8821" filterUnits="userSpaceOnUse" color-interpolation-filters="sRGB">
<feFlood flood-opacity="0" result="BackgroundImageFix"/>
<feColorMatrix in="SourceAlpha" type="matrix" values="0 0 0 0 0 0 0 0 0 0 0 0 0 0 0 0 0 0 127 0" result="hardAlpha"/>
<feOffset dy="2.00569"/>
<feGaussianBlur stdDeviation="2.00569"/>
<feColorMatrix type="matrix" values="0 0 0 0 0 0 0 0 0 0 0 0 0 0 0 0 0 0 0.2 0"/>
<feBlend mode="normal" in2="BackgroundImageFix" result="effect1_dropShadow_4186_14200"/>
<feBlend mode="normal" in="SourceGraphic" in2="effect1_dropShadow_4186_14200" result="shape"/>
</filter>
<filter id="filter1_d_4186_14200" x="73.6009" y="422.889" width="177.021" height="95.8821" filterUnits="userSpaceOnUse" color-interpolation-filters="sRGB">
<feFlood flood-opacity="0" result="BackgroundImageFix"/>
<feColorMatrix in="SourceAlpha" type="matrix" values="0 0 0 0 0 0 0 0 0 0 0 0 0 0 0 0 0 0 127 0" result="hardAlpha"/>
<feOffset dy="2.00569"/>
<feGaussianBlur stdDeviation="2.00569"/>
<feColorMatrix type="matrix" values="0 0 0 0 0 0 0 0 0 0 0 0 0 0 0 0 0 0 0.2 0"/>
<feBlend mode="normal" in2="BackgroundImageFix" result="effect1_dropShadow_4186_14200"/>
<feBlend mode="normal" in="SourceGraphic" in2="effect1_dropShadow_4186_14200" result="shape"/>
</filter>
<filter id="filter2_d_4186_14200" x="73.6009" y="1082.89" width="177.021" height="95.8812" filterUnits="userSpaceOnUse" color-interpolation-filters="sRGB">
<feFlood flood-opacity="0" result="BackgroundImageFix"/>
<feColorMatrix in="SourceAlpha" type="matrix" values="0 0 0 0 0 0 0 0 0 0 0 0 0 0 0 0 0 0 127 0" result="hardAlpha"/>
<feOffset dy="2.00569"/>
<feGaussianBlur stdDeviation="2.00569"/>
<feColorMatrix type="matrix" values="0 0 0 0 0 0 0 0 0 0 0 0 0 0 0 0 0 0 0.2 0"/>
<feBlend mode="normal" in2="BackgroundImageFix" result="effect1_dropShadow_4186_14200"/>
<feBlend mode="normal" in="SourceGraphic" in2="effect1_dropShadow_4186_14200" result="shape"/>
</filter>
<filter id="filter3_d_4186_14200" x="73.6009" y="1082.89" width="177.021" height="95.8812" filterUnits="userSpaceOnUse" color-interpolation-filters="sRGB">
<feFlood flood-opacity="0" result="BackgroundImageFix"/>
<feColorMatrix in="SourceAlpha" type="matrix" values="0 0 0 0 0 0 0 0 0 0 0 0 0 0 0 0 0 0 127 0" result="hardAlpha"/>
<feOffset dy="2.00569"/>
<feGaussianBlur stdDeviation="2.00569"/>
<feColorMatrix type="matrix" values="0 0 0 0 0 0 0 0 0 0 0 0 0 0 0 0 0 0 0.2 0"/>
<feBlend mode="normal" in2="BackgroundImageFix" result="effect1_dropShadow_4186_14200"/>
<feBlend mode="normal" in="SourceGraphic" in2="effect1_dropShadow_4186_14200" result="shape"/>
</filter>
<filter id="filter4_d_4186_14200" x="73.6009" y="862.889" width="177.021" height="95.8812" filterUnits="userSpaceOnUse" color-interpolation-filters="sRGB">
<feFlood flood-opacity="0" result="BackgroundImageFix"/>
<feColorMatrix in="SourceAlpha" type="matrix" values="0 0 0 0 0 0 0 0 0 0 0 0 0 0 0 0 0 0 127 0" result="hardAlpha"/>
<feOffset dy="2.00569"/>
<feGaussianBlur stdDeviation="2.00569"/>
<feColorMatrix type="matrix" values="0 0 0 0 0 0 0 0 0 0 0 0 0 0 0 0 0 0 0.2 0"/>
<feBlend mode="normal" in2="BackgroundImageFix" result="effect1_dropShadow_4186_14200"/>
<feBlend mode="normal" in="SourceGraphic" in2="effect1_dropShadow_4186_14200" result="shape"/>
</filter>
<filter id="filter5_d_4186_14200" x="73.6009" y="862.889" width="177.021" height="95.8812" filterUnits="userSpaceOnUse" color-interpolation-filters="sRGB">
<feFlood flood-opacity="0" result="BackgroundImageFix"/>
<feColorMatrix in="SourceAlpha" type="matrix" values="0 0 0 0 0 0 0 0 0 0 0 0 0 0 0 0 0 0 127 0" result="hardAlpha"/>
<feOffset dy="2.00569"/>
<feGaussianBlur stdDeviation="2.00569"/>
<feColorMatrix type="matrix" values="0 0 0 0 0 0 0 0 0 0 0 0 0 0 0 0 0 0 0.2 0"/>
<feBlend mode="normal" in2="BackgroundImageFix" result="effect1_dropShadow_4186_14200"/>
<feBlend mode="normal" in="SourceGraphic" in2="effect1_dropShadow_4186_14200" result="shape"/>
</filter>
<filter id="filter6_d_4186_14200" x="661.807" y="422.889" width="177.021" height="95.8821" filterUnits="userSpaceOnUse" color-interpolation-filters="sRGB">
<feFlood flood-opacity="0" result="BackgroundImageFix"/>
<feColorMatrix in="SourceAlpha" type="matrix" values="0 0 0 0 0 0 0 0 0 0 0 0 0 0 0 0 0 0 127 0" result="hardAlpha"/>
<feOffset dy="2.00569"/>
<feGaussianBlur stdDeviation="2.00569"/>
<feColorMatrix type="matrix" values="0 0 0 0 0 0 0 0 0 0 0 0 0 0 0 0 0 0 0.2 0"/>
<feBlend mode="normal" in2="BackgroundImageFix" result="effect1_dropShadow_4186_14200"/>
<feBlend mode="normal" in="SourceGraphic" in2="effect1_dropShadow_4186_14200" result="shape"/>
</filter>
<filter id="filter7_d_4186_14200" x="661.807" y="422.889" width="177.021" height="95.8821" filterUnits="userSpaceOnUse" color-interpolation-filters="sRGB">
<feFlood flood-opacity="0" result="BackgroundImageFix"/>
<feColorMatrix in="SourceAlpha" type="matrix" values="0 0 0 0 0 0 0 0 0 0 0 0 0 0 0 0 0 0 127 0" result="hardAlpha"/>
<feOffset dy="2.00569"/>
<feGaussianBlur stdDeviation="2.00569"/>
<feColorMatrix type="matrix" values="0 0 0 0 0 0 0 0 0 0 0 0 0 0 0 0 0 0 0.2 0"/>
<feBlend mode="normal" in2="BackgroundImageFix" result="effect1_dropShadow_4186_14200"/>
<feBlend mode="normal" in="SourceGraphic" in2="effect1_dropShadow_4186_14200" result="shape"/>
</filter>
<filter id="filter8_d_4186_14200" x="661.807" y="862.889" width="177.021" height="95.8812" filterUnits="userSpaceOnUse" color-interpolation-filters="sRGB">
<feFlood flood-opacity="0" result="BackgroundImageFix"/>
<feColorMatrix in="SourceAlpha" type="matrix" values="0 0 0 0 0 0 0 0 0 0 0 0 0 0 0 0 0 0 127 0" result="hardAlpha"/>
<feOffset dy="2.00569"/>
<feGaussianBlur stdDeviation="2.00569"/>
<feColorMatrix type="matrix" values="0 0 0 0 0 0 0 0 0 0 0 0 0 0 0 0 0 0 0.2 0"/>
<feBlend mode="normal" in2="BackgroundImageFix" result="effect1_dropShadow_4186_14200"/>
<feBlend mode="normal" in="SourceGraphic" in2="effect1_dropShadow_4186_14200" result="shape"/>
</filter>
<filter id="filter9_d_4186_14200" x="661.807" y="862.889" width="177.021" height="95.8812" filterUnits="userSpaceOnUse" color-interpolation-filters="sRGB">
<feFlood flood-opacity="0" result="BackgroundImageFix"/>
<feColorMatrix in="SourceAlpha" type="matrix" values="0 0 0 0 0 0 0 0 0 0 0 0 0 0 0 0 0 0 127 0" result="hardAlpha"/>
<feOffset dy="2.00569"/>
<feGaussianBlur stdDeviation="2.00569"/>
<feColorMatrix type="matrix" values="0 0 0 0 0 0 0 0 0 0 0 0 0 0 0 0 0 0 0.2 0"/>
<feBlend mode="normal" in2="BackgroundImageFix" result="effect1_dropShadow_4186_14200"/>
<feBlend mode="normal" in="SourceGraphic" in2="effect1_dropShadow_4186_14200" result="shape"/>
</filter>
<filter id="filter10_d_4186_14200" x="661.807" y="639.317" width="177.021" height="95.8821" filterUnits="userSpaceOnUse" color-interpolation-filters="sRGB">
<feFlood flood-opacity="0" result="BackgroundImageFix"/>
<feColorMatrix in="SourceAlpha" type="matrix" values="0 0 0 0 0 0 0 0 0 0 0 0 0 0 0 0 0 0 127 0" result="hardAlpha"/>
<feOffset dy="2.00569"/>
<feGaussianBlur stdDeviation="2.00569"/>
<feColorMatrix type="matrix" values="0 0 0 0 0 0 0 0 0 0 0 0 0 0 0 0 0 0 0.2 0"/>
<feBlend mode="normal" in2="BackgroundImageFix" result="effect1_dropShadow_4186_14200"/>
<feBlend mode="normal" in="SourceGraphic" in2="effect1_dropShadow_4186_14200" result="shape"/>
</filter>
<filter id="filter11_d_4186_14200" x="661.807" y="639.317" width="177.021" height="95.8821" filterUnits="userSpaceOnUse" color-interpolation-filters="sRGB">
<feFlood flood-opacity="0" result="BackgroundImageFix"/>
<feColorMatrix in="SourceAlpha" type="matrix" values="0 0 0 0 0 0 0 0 0 0 0 0 0 0 0 0 0 0 127 0" result="hardAlpha"/>
<feOffset dy="2.00569"/>
<feGaussianBlur stdDeviation="2.00569"/>
<feColorMatrix type="matrix" values="0 0 0 0 0 0 0 0 0 0 0 0 0 0 0 0 0 0 0.2 0"/>
<feBlend mode="normal" in2="BackgroundImageFix" result="effect1_dropShadow_4186_14200"/>
<feBlend mode="normal" in="SourceGraphic" in2="effect1_dropShadow_4186_14200" result="shape"/>
</filter>
<filter id="filter12_d_4186_14200" x="73.6009" y="422.889" width="177.021" height="95.8821" filterUnits="userSpaceOnUse" color-interpolation-filters="sRGB">
<feFlood flood-opacity="0" result="BackgroundImageFix"/>
<feColorMatrix in="SourceAlpha" type="matrix" values="0 0 0 0 0 0 0 0 0 0 0 0 0 0 0 0 0 0 127 0" result="hardAlpha"/>
<feOffset dy="2.00569"/>
<feGaussianBlur stdDeviation="2.00569"/>
<feColorMatrix type="matrix" values="0 0 0 0 0 0 0 0 0 0 0 0 0 0 0 0 0 0 0.2 0"/>
<feBlend mode="normal" in2="BackgroundImageFix" result="effect1_dropShadow_4186_14200"/>
<feBlend mode="normal" in="SourceGraphic" in2="effect1_dropShadow_4186_14200" result="shape"/>
</filter>
<filter id="filter13_d_4186_14200" x="73.6009" y="422.889" width="177.021" height="95.8821" filterUnits="userSpaceOnUse" color-interpolation-filters="sRGB">
<feFlood flood-opacity="0" result="BackgroundImageFix"/>
<feColorMatrix in="SourceAlpha" type="matrix" values="0 0 0 0 0 0 0 0 0 0 0 0 0 0 0 0 0 0 127 0" result="hardAlpha"/>
<feOffset dy="2.00569"/>
<feGaussianBlur stdDeviation="2.00569"/>
<feColorMatrix type="matrix" values="0 0 0 0 0 0 0 0 0 0 0 0 0 0 0 0 0 0 0.2 0"/>
<feBlend mode="normal" in2="BackgroundImageFix" result="effect1_dropShadow_4186_14200"/>
<feBlend mode="normal" in="SourceGraphic" in2="effect1_dropShadow_4186_14200" result="shape"/>
</filter>
<filter id="filter14_d_4186_14200" x="73.6009" y="1082.89" width="177.021" height="95.8812" filterUnits="userSpaceOnUse" color-interpolation-filters="sRGB">
<feFlood flood-opacity="0" result="BackgroundImageFix"/>
<feColorMatrix in="SourceAlpha" type="matrix" values="0 0 0 0 0 0 0 0 0 0 0 0 0 0 0 0 0 0 127 0" result="hardAlpha"/>
<feOffset dy="2.00569"/>
<feGaussianBlur stdDeviation="2.00569"/>
<feColorMatrix type="matrix" values="0 0 0 0 0 0 0 0 0 0 0 0 0 0 0 0 0 0 0.2 0"/>
<feBlend mode="normal" in2="BackgroundImageFix" result="effect1_dropShadow_4186_14200"/>
<feBlend mode="normal" in="SourceGraphic" in2="effect1_dropShadow_4186_14200" result="shape"/>
</filter>
<filter id="filter15_d_4186_14200" x="73.6009" y="1082.89" width="177.021" height="95.8812" filterUnits="userSpaceOnUse" color-interpolation-filters="sRGB">
<feFlood flood-opacity="0" result="BackgroundImageFix"/>
<feColorMatrix in="SourceAlpha" type="matrix" values="0 0 0 0 0 0 0 0 0 0 0 0 0 0 0 0 0 0 127 0" result="hardAlpha"/>
<feOffset dy="2.00569"/>
<feGaussianBlur stdDeviation="2.00569"/>
<feColorMatrix type="matrix" values="0 0 0 0 0 0 0 0 0 0 0 0 0 0 0 0 0 0 0.2 0"/>
<feBlend mode="normal" in2="BackgroundImageFix" result="effect1_dropShadow_4186_14200"/>
<feBlend mode="normal" in="SourceGraphic" in2="effect1_dropShadow_4186_14200" result="shape"/>
</filter>
<filter id="filter16_d_4186_14200" x="73.6009" y="862.889" width="177.021" height="95.8812" filterUnits="userSpaceOnUse" color-interpolation-filters="sRGB">
<feFlood flood-opacity="0" result="BackgroundImageFix"/>
<feColorMatrix in="SourceAlpha" type="matrix" values="0 0 0 0 0 0 0 0 0 0 0 0 0 0 0 0 0 0 127 0" result="hardAlpha"/>
<feOffset dy="2.00569"/>
<feGaussianBlur stdDeviation="2.00569"/>
<feColorMatrix type="matrix" values="0 0 0 0 0 0 0 0 0 0 0 0 0 0 0 0 0 0 0.2 0"/>
<feBlend mode="normal" in2="BackgroundImageFix" result="effect1_dropShadow_4186_14200"/>
<feBlend mode="normal" in="SourceGraphic" in2="effect1_dropShadow_4186_14200" result="shape"/>
</filter>
<filter id="filter17_d_4186_14200" x="73.6009" y="862.889" width="177.021" height="95.8812" filterUnits="userSpaceOnUse" color-interpolation-filters="sRGB">
<feFlood flood-opacity="0" result="BackgroundImageFix"/>
<feColorMatrix in="SourceAlpha" type="matrix" values="0 0 0 0 0 0 0 0 0 0 0 0 0 0 0 0 0 0 127 0" result="hardAlpha"/>
<feOffset dy="2.00569"/>
<feGaussianBlur stdDeviation="2.00569"/>
<feColorMatrix type="matrix" values="0 0 0 0 0 0 0 0 0 0 0 0 0 0 0 0 0 0 0.2 0"/>
<feBlend mode="normal" in2="BackgroundImageFix" result="effect1_dropShadow_4186_14200"/>
<feBlend mode="normal" in="SourceGraphic" in2="effect1_dropShadow_4186_14200" result="shape"/>
</filter>
<filter id="filter18_d_4186_14200" x="661.807" y="422.889" width="177.021" height="95.8821" filterUnits="userSpaceOnUse" color-interpolation-filters="sRGB">
<feFlood flood-opacity="0" result="BackgroundImageFix"/>
<feColorMatrix in="SourceAlpha" type="matrix" values="0 0 0 0 0 0 0 0 0 0 0 0 0 0 0 0 0 0 127 0" result="hardAlpha"/>
<feOffset dy="2.00569"/>
<feGaussianBlur stdDeviation="2.00569"/>
<feColorMatrix type="matrix" values="0 0 0 0 0 0 0 0 0 0 0 0 0 0 0 0 0 0 0.2 0"/>
<feBlend mode="normal" in2="BackgroundImageFix" result="effect1_dropShadow_4186_14200"/>
<feBlend mode="normal" in="SourceGraphic" in2="effect1_dropShadow_4186_14200" result="shape"/>
</filter>
<filter id="filter19_d_4186_14200" x="661.807" y="422.889" width="177.021" height="95.8821" filterUnits="userSpaceOnUse" color-interpolation-filters="sRGB">
<feFlood flood-opacity="0" result="BackgroundImageFix"/>
<feColorMatrix in="SourceAlpha" type="matrix" values="0 0 0 0 0 0 0 0 0 0 0 0 0 0 0 0 0 0 127 0" result="hardAlpha"/>
<feOffset dy="2.00569"/>
<feGaussianBlur stdDeviation="2.00569"/>
<feColorMatrix type="matrix" values="0 0 0 0 0 0 0 0 0 0 0 0 0 0 0 0 0 0 0.2 0"/>
<feBlend mode="normal" in2="BackgroundImageFix" result="effect1_dropShadow_4186_14200"/>
<feBlend mode="normal" in="SourceGraphic" in2="effect1_dropShadow_4186_14200" result="shape"/>
</filter>
<filter id="filter20_d_4186_14200" x="661.807" y="862.889" width="177.021" height="95.8812" filterUnits="userSpaceOnUse" color-interpolation-filters="sRGB">
<feFlood flood-opacity="0" result="BackgroundImageFix"/>
<feColorMatrix in="SourceAlpha" type="matrix" values="0 0 0 0 0 0 0 0 0 0 0 0 0 0 0 0 0 0 127 0" result="hardAlpha"/>
<feOffset dy="2.00569"/>
<feGaussianBlur stdDeviation="2.00569"/>
<feColorMatrix type="matrix" values="0 0 0 0 0 0 0 0 0 0 0 0 0 0 0 0 0 0 0.2 0"/>
<feBlend mode="normal" in2="BackgroundImageFix" result="effect1_dropShadow_4186_14200"/>
<feBlend mode="normal" in="SourceGraphic" in2="effect1_dropShadow_4186_14200" result="shape"/>
</filter>
<filter id="filter21_d_4186_14200" x="661.807" y="862.889" width="177.021" height="95.8812" filterUnits="userSpaceOnUse" color-interpolation-filters="sRGB">
<feFlood flood-opacity="0" result="BackgroundImageFix"/>
<feColorMatrix in="SourceAlpha" type="matrix" values="0 0 0 0 0 0 0 0 0 0 0 0 0 0 0 0 0 0 127 0" result="hardAlpha"/>
<feOffset dy="2.00569"/>
<feGaussianBlur stdDeviation="2.00569"/>
<feColorMatrix type="matrix" values="0 0 0 0 0 0 0 0 0 0 0 0 0 0 0 0 0 0 0.2 0"/>
<feBlend mode="normal" in2="BackgroundImageFix" result="effect1_dropShadow_4186_14200"/>
<feBlend mode="normal" in="SourceGraphic" in2="effect1_dropShadow_4186_14200" result="shape"/>
</filter>
<filter id="filter22_d_4186_14200" x="661.807" y="639.317" width="177.021" height="95.8821" filterUnits="userSpaceOnUse" color-interpolation-filters="sRGB">
<feFlood flood-opacity="0" result="BackgroundImageFix"/>
<feColorMatrix in="SourceAlpha" type="matrix" values="0 0 0 0 0 0 0 0 0 0 0 0 0 0 0 0 0 0 127 0" result="hardAlpha"/>
<feOffset dy="2.00569"/>
<feGaussianBlur stdDeviation="2.00569"/>
<feColorMatrix type="matrix" values="0 0 0 0 0 0 0 0 0 0 0 0 0 0 0 0 0 0 0.2 0"/>
<feBlend mode="normal" in2="BackgroundImageFix" result="effect1_dropShadow_4186_14200"/>
<feBlend mode="normal" in="SourceGraphic" in2="effect1_dropShadow_4186_14200" result="shape"/>
</filter>
<filter id="filter23_d_4186_14200" x="661.807" y="639.317" width="177.021" height="95.8821" filterUnits="userSpaceOnUse" color-interpolation-filters="sRGB">
<feFlood flood-opacity="0" result="BackgroundImageFix"/>
<feColorMatrix in="SourceAlpha" type="matrix" values="0 0 0 0 0 0 0 0 0 0 0 0 0 0 0 0 0 0 127 0" result="hardAlpha"/>
<feOffset dy="2.00569"/>
<feGaussianBlur stdDeviation="2.00569"/>
<feColorMatrix type="matrix" values="0 0 0 0 0 0 0 0 0 0 0 0 0 0 0 0 0 0 0.2 0"/>
<feBlend mode="normal" in2="BackgroundImageFix" result="effect1_dropShadow_4186_14200"/>
<feBlend mode="normal" in="SourceGraphic" in2="effect1_dropShadow_4186_14200" result="shape"/>
</filter>
<filter id="filter24_d_4186_14200" x="358.195" y="121.35" width="104.581" height="63.5989" filterUnits="userSpaceOnUse" color-interpolation-filters="sRGB">
<feFlood flood-opacity="0" result="BackgroundImageFix"/>
<feColorMatrix in="SourceAlpha" type="matrix" values="0 0 0 0 0 0 0 0 0 0 0 0 0 0 0 0 0 0 127 0" result="hardAlpha"/>
<feOffset dy="2.00569"/>
<feGaussianBlur stdDeviation="2.00569"/>
<feColorMatrix type="matrix" values="0 0 0 0 0 0 0 0 0 0 0 0 0 0 0 0 0 0 0.2 0"/>
<feBlend mode="normal" in2="BackgroundImageFix" result="effect1_dropShadow_4186_14200"/>
<feBlend mode="normal" in="SourceGraphic" in2="effect1_dropShadow_4186_14200" result="shape"/>
</filter>
<filter id="filter25_d_4186_14200" x="358.195" y="121.35" width="104.581" height="63.5989" filterUnits="userSpaceOnUse" color-interpolation-filters="sRGB">
<feFlood flood-opacity="0" result="BackgroundImageFix"/>
<feColorMatrix in="SourceAlpha" type="matrix" values="0 0 0 0 0 0 0 0 0 0 0 0 0 0 0 0 0 0 127 0" result="hardAlpha"/>
<feOffset dy="2.00569"/>
<feGaussianBlur stdDeviation="2.00569"/>
<feColorMatrix type="matrix" values="0 0 0 0 0 0 0 0 0 0 0 0 0 0 0 0 0 0 0.2 0"/>
<feBlend mode="normal" in2="BackgroundImageFix" result="effect1_dropShadow_4186_14200"/>
<feBlend mode="normal" in="SourceGraphic" in2="effect1_dropShadow_4186_14200" result="shape"/>
</filter>
<filter id="filter26_d_4186_14200" x="90.2201" y="125.33" width="104.341" height="58.2005" filterUnits="userSpaceOnUse" color-interpolation-filters="sRGB">
<feFlood flood-opacity="0" result="BackgroundImageFix"/>
<feColorMatrix in="SourceAlpha" type="matrix" values="0 0 0 0 0 0 0 0 0 0 0 0 0 0 0 0 0 0 127 0" result="hardAlpha"/>
<feOffset dy="2.00569"/>
<feGaussianBlur stdDeviation="2.00569"/>
<feColorMatrix type="matrix" values="0 0 0 0 0 0 0 0 0 0 0 0 0 0 0 0 0 0 0.2 0"/>
<feBlend mode="normal" in2="BackgroundImageFix" result="effect1_dropShadow_4186_14200"/>
<feBlend mode="normal" in="SourceGraphic" in2="effect1_dropShadow_4186_14200" result="shape"/>
</filter>
<clipPath id="clip0_4186_14200">
<rect width="917" height="1575" fill="white"/>
</clipPath>
<clipPath id="clip1_4186_14200">
<rect width="917" height="1575" fill="white"/>
</clipPath>
</defs>
</svg>
