<svg width="303" height="160" viewBox="0 0 303 160" fill="none" xmlns="http://www.w3.org/2000/svg">
<path d="M126.043 120.886C123.542 123.994 119.43 126.857 113.706 129.474C107.983 132.091 103.019 133.427 98.8161 133.482L103.174 120.068C106.981 119.468 110.894 117.396 114.912 113.852C118.948 110.253 122.242 104.528 124.793 96.676L131.357 76.4737H122.671C121.009 76.4737 119.862 76.1193 119.233 75.4104C118.66 74.7016 118.631 73.5565 119.145 71.9752L121.829 63.7143H135.503L138.267 55.2081H156.241L153.477 63.7143H166.463L163.779 71.9752C163.265 73.5565 162.463 74.7016 161.373 75.4104C160.34 76.1193 158.992 76.4737 157.329 76.4737H149.331L142.767 96.676C140.216 104.528 139.732 110.253 141.314 113.852C142.915 117.396 145.309 119.468 148.496 120.068L144.138 133.482C140.142 133.427 136.248 132.091 132.454 129.474C128.661 126.857 126.524 123.994 126.043 120.886ZM178.681 87.5155H190.635L187.712 96.5125C187.11 98.3664 186.045 99.7023 184.518 100.52C183.048 101.338 181.281 101.747 179.217 101.747H174.057L167.095 123.176C166.12 126.175 164.216 128.684 161.382 130.701C158.587 132.773 155.613 133.809 152.46 133.809H146.182L170.605 58.6433H188.063L178.681 87.5155Z" fill="white"/>
<mask id="path-2-outside-1_4134_14100" maskUnits="userSpaceOnUse" x="21.1161" y="31.0154" width="22.4164" height="22.8254" fill="black">
<rect fill="white" x="21.1161" y="31.0154" width="22.4164" height="22.8254"/>
<path d="M39.7201 49.3708C38.0853 48.648 36.5886 47.735 35.2301 46.6317C33.8193 45.4905 32.8652 44.2161 32.3679 42.8085H37.8279L34.3978 32.2518H22.9378L25.7931 41.0395C26.6213 43.5884 28.2753 45.9089 30.7551 48.0013C33.1826 50.0555 35.6752 51.387 38.233 51.9957L39.7201 49.3708Z"/>
</mask>
<path d="M39.7201 49.3708C38.0853 48.648 36.5886 47.735 35.2301 46.6317C33.8193 45.4905 32.8652 44.2161 32.3679 42.8085H37.8279L34.3978 32.2518H22.9378L25.7931 41.0395C26.6213 43.5884 28.2753 45.9089 30.7551 48.0013C33.1826 50.0555 35.6752 51.387 38.233 51.9957L39.7201 49.3708Z" fill="white"/>
<path d="M39.7201 49.3708L39.9256 48.5349L41.1884 49.0932L40.6827 49.9858L39.7201 49.3708ZM35.2301 46.6317L35.7834 46.0089L35.7858 46.0108L35.2301 46.6317ZM32.3679 42.8085L31.3766 42.8342L31.0315 41.8574H32.0589L32.3679 42.8085ZM37.8279 42.8085H38.8279L39.1369 43.7596H38.1369L37.8279 42.8085ZM34.3978 32.2518L34.0888 31.3007H35.0888L35.3978 32.2518H34.3978ZM22.9378 32.2518H21.9378L21.6288 31.3007H22.6288L22.9378 32.2518ZM30.7551 48.0013L31.3334 47.399L31.3352 47.4005L30.7551 48.0013ZM38.233 51.9957L39.1956 52.6107L38.9344 53.0718L38.2695 52.9136L38.233 51.9957ZM39.5146 50.2066C37.7606 49.4312 36.1446 48.4466 34.6745 47.2527L35.7858 46.0108C37.0326 47.0233 38.4099 47.8648 39.9256 48.5349L39.5146 50.2066ZM34.6768 47.2546C33.0765 45.9601 31.9575 44.4782 31.3766 42.8342L33.3592 42.7828C33.773 43.9539 34.5621 45.0209 35.7834 46.0089L34.6768 47.2546ZM32.0589 41.8574H37.5189L38.1369 43.7596H32.6769L32.0589 41.8574ZM36.8279 42.8085L33.3978 32.2518H35.3978L38.8279 42.8085H36.8279ZM34.7068 33.2028H23.2468L22.6288 31.3007H34.0888L34.7068 33.2028ZM23.9378 32.2518L26.7931 41.0395H24.7931L21.9378 32.2518H23.9378ZM26.7931 41.0395C27.5454 43.3549 29.0418 45.4655 31.3334 47.399L30.1768 48.6035C27.5088 46.3524 25.6971 43.8218 24.7931 41.0395H26.7931ZM31.3352 47.4005C33.6069 49.323 35.8872 50.5282 38.1965 51.0778L38.2695 52.9136C35.4633 52.2458 32.7583 50.7881 30.1751 48.602L31.3352 47.4005ZM37.2704 51.3807L38.7575 48.7557L40.6827 49.9858L39.1956 52.6107L37.2704 51.3807Z" fill="white" mask="url(#path-2-outside-1_4134_14100)"/>
<path d="M217.135 90.1459C214.062 93.254 209.807 95.7622 204.371 97.6707C198.952 99.5246 194.141 100.479 189.938 100.533L194.297 87.1197C198.033 86.738 201.901 85.1567 205.9 82.3758C208.924 80.3038 211.52 76.814 213.688 71.9066H204.658C202.995 71.9066 201.849 71.5521 201.219 70.8433C200.647 70.1344 200.618 68.9894 201.131 67.4081L203.762 59.3108H249.6L246.969 67.4081C246.456 68.9894 245.654 70.1344 244.563 70.8433C243.53 71.5521 242.182 71.9066 240.52 71.9066H232.092C231.071 76.814 231.284 80.3038 232.732 82.3758C234.753 85.1567 237.535 86.738 241.081 87.1197L236.722 100.533C232.555 100.479 228.45 99.5246 224.409 97.6707C220.385 95.7622 217.96 93.254 217.135 90.1459ZM265.519 71.9884H276.871L273.842 81.3125C273.292 83.0029 272.349 84.2297 271.012 84.9931C269.732 85.7565 268.146 86.1382 266.254 86.1382H260.922L258.105 94.808C257.555 96.4984 256.511 97.8615 254.97 98.8976C253.447 99.8791 251.682 100.37 249.676 100.37H238.84L252.234 59.1472H269.692L265.519 71.9884ZM234.475 118.037C234.759 117.164 234.731 116.455 234.392 115.91C234.053 115.365 232.967 115.092 231.132 115.092H209.632C207.855 115.092 206.591 115.365 205.84 115.91C205.147 116.455 204.659 117.164 204.375 118.037L204.189 118.609C203.906 119.482 203.933 120.19 204.272 120.736C204.668 121.281 205.755 121.554 207.533 121.554H229.033C230.867 121.554 232.131 121.281 232.824 120.736C233.517 120.19 234.006 119.482 234.289 118.609L234.475 118.037ZM250.478 122.78C249.238 126.597 246.914 129.515 243.506 131.532C240.138 133.604 236.419 134.64 232.348 134.64H195.712C191.699 134.64 188.653 133.604 186.574 131.532C184.478 129.515 184.05 126.597 185.29 122.78L188.107 114.111C189.347 110.294 191.671 107.377 195.078 105.359C198.504 103.287 202.223 102.251 206.236 102.251H242.872C246.943 102.251 249.989 103.287 252.01 105.359C254.107 107.377 254.535 110.294 253.295 114.111L250.478 122.78Z" fill="white"/>
<path d="M142.385 31.7414L144.194 30.5487C145.555 29.6514 147.318 29.6425 148.688 30.526V30.526C149.863 31.2836 150.573 32.586 150.573 33.984V34.1506C150.573 35.4862 149.924 36.7387 148.834 37.5095V37.5095C147.398 38.524 145.476 38.514 144.051 37.4845L142.385 36.2804" stroke="white" stroke-width="3"/>
<path d="M62.668 31.7414L64.4771 30.5487C65.8384 29.6514 67.6011 29.6425 68.9714 30.526V30.526C70.1464 31.2836 70.8562 32.586 70.8562 33.984V34.1506C70.8562 35.4862 70.2077 36.7387 69.1169 37.5095V37.5095C67.6813 38.524 65.7596 38.514 64.3347 37.4845L62.668 36.2804" stroke="white" stroke-width="3"/>
<path d="M124.36 2L147.551 8.31307M124.36 2L121.83 8.31307M124.36 2L111.733 2.27113L97.4486 3.62677L80.0856 11.8203M80.0856 11.8203L70.503 10.7226C67.1324 10.3364 63.719 10.8141 60.5839 12.1105L56.3406 13.8653C55.3641 14.2691 54.4212 14.7496 53.5207 15.3023L49.7277 17.6306C47.3744 19.0751 45.6768 21.432 45.5709 24.1912C45.5021 25.9823 45.5774 28.1251 46.0396 30.1973C47.1439 35.1475 51.5609 35.6697 51.5609 35.6697H56.53M80.0856 11.8203L85.2405 13.3874L120.143 12.5218L121.83 8.31307M147.551 8.31307H121.83M147.551 8.31307L152.339 6.72011C153.357 6.38139 154.423 6.20872 155.496 6.20872H160.203V6.20872C161.526 6.20872 162.769 6.84281 163.546 7.91402L170.268 17.1832V24.0956L170.268 32.3664L170.268 31.4608M80.0856 35.6697H137.012H77.9773" stroke="white" stroke-width="3" stroke-linejoin="round"/>
<path d="M77.558 33.5625C77.558 39.7447 72.6885 44.6875 66.7653 44.6875C60.8422 44.6875 55.9727 39.7447 55.9727 33.5625C55.9727 27.3803 60.8422 22.4375 66.7653 22.4375C72.6885 22.4375 77.558 27.3803 77.558 33.5625Z" stroke="white" stroke-width="3"/>
<path d="M157.283 34.2637C157.283 40.4458 152.413 45.3886 146.49 45.3886C140.567 45.3886 135.697 40.4458 135.697 34.2637C135.697 28.0815 140.567 23.1387 146.49 23.1387C152.413 23.1387 157.283 28.0815 157.283 34.2637Z" stroke="white" stroke-width="3"/>
<path d="M110.637 19.3535H130.212" stroke="white" stroke-width="3" stroke-linecap="round"/>
<path d="M151.205 14.2754L168.126 14.2754" stroke="white" stroke-width="3" stroke-linecap="round"/>
<path d="M157.018 34.5352H165.852" stroke="white" stroke-width="3" stroke-linecap="round"/>
<path d="M85.7598 29.7407L126.616 29.7402" stroke="white" stroke-width="3" stroke-linecap="round"/>
<path d="M64.3271 75.0586L64.0421 74.5374L63.5772 74.9071C61.1279 76.8548 57.0443 78.5617 51.2627 79.9964C45.8635 81.3002 41.0601 81.9823 36.8483 82.0499L40.6312 70.4195C44.4613 70.1584 48.2456 69.3193 51.9825 67.9043L51.9854 67.9031C56.0405 66.3389 58.8654 63.0031 60.4921 58.0017L60.0455 57.8564L60.4921 58.0016L60.9418 56.6191H78.713L78.364 57.6924C77.5472 60.2035 77.2551 62.3238 77.5478 64.0226C77.8456 65.751 78.7484 67.0278 80.2493 67.7954L80.2556 67.7986L80.262 67.8017C82.9541 69.0836 86.0979 69.8583 89.6836 70.1375L85.892 81.7948C81.6299 81.7597 77.223 81.1053 72.6701 79.8282C70.3632 79.1726 68.52 78.4377 67.1272 77.6304C65.7319 76.8217 64.8189 75.958 64.3271 75.0586ZM115.967 56.7055L103.423 95.2734C103.16 96.0795 102.531 97.0814 101.744 98.0329C100.961 98.9779 100.062 99.8258 99.2985 100.339C97.7785 101.317 96.0099 101.812 93.9753 101.812H83.5571L85.8603 96.5799L86.2637 95.6634L85.2888 95.8916C84.3347 96.1149 83.0201 96.3138 81.3362 96.4857L81.3362 96.4857L81.3284 96.4866C79.3951 96.7145 77.3767 96.8287 75.273 96.8287H65.8161H65.5611L65.4113 97.0353C63.8397 99.2031 63.142 100.023 62.2942 100.6C61.2475 101.278 59.8371 101.639 58.0226 101.639H45.8957L47.8101 97.5403L48.1424 96.8287H47.357H36.1725C34.246 96.8287 32.9666 96.3577 32.206 95.5294C31.54 94.7413 31.3821 93.5443 31.9555 91.7814L34.2034 84.8698H80.0335C81.9919 84.8698 83.9275 84.7535 85.8402 84.521C87.4798 84.3473 88.7829 84.143 89.7387 83.9045L90.0075 83.8375L90.0932 83.5741L98.8321 56.7055H115.967ZM34.7685 104.799H52.179L50.0366 111.479L49.8272 112.132H50.5127H79.4014H79.7606L79.8753 111.792L82.2308 104.799H99.6423L91.0882 131.099C90.5557 132.736 89.67 133.965 88.4406 134.817L88.4405 134.817L88.4316 134.823C87.1787 135.733 85.6707 136.197 83.8829 136.197H29.6877C27.8777 136.197 26.7801 135.725 26.2051 134.934C25.6744 134.204 25.5715 133.076 26.1139 131.409L34.7685 104.799ZM75.273 126.263H75.6574L75.7562 125.891L77.7701 118.321L77.9374 117.693H77.2869H48.492H48.1317L48.0177 118.034L45.4918 125.604L45.2722 126.263H45.9661H75.273Z" fill="white" stroke="white"/>
<path d="M142.385 31.7414L144.194 30.5487C145.555 29.6514 147.318 29.6425 148.688 30.526V30.526C149.863 31.2836 150.573 32.586 150.573 33.984V34.1506C150.573 35.4862 149.924 36.7387 148.834 37.5095V37.5095C147.398 38.524 145.476 38.514 144.051 37.4845L142.385 36.2804" stroke="white" stroke-width="4"/>
<path d="M62.668 31.7414L64.4771 30.5487C65.8384 29.6514 67.6011 29.6425 68.9714 30.526V30.526C70.1464 31.2836 70.8562 32.586 70.8562 33.984V34.1506C70.8562 35.4862 70.2077 36.7387 69.1169 37.5095V37.5095C67.6813 38.524 65.7596 38.514 64.3347 37.4845L62.668 36.2804" stroke="white" stroke-width="4"/>
<path d="M124.36 2L147.551 8.31307M124.36 2L121.83 8.31307M124.36 2L111.733 2.27113L97.4486 3.62677L80.0856 11.8203M80.0856 11.8203L70.503 10.7226C67.1324 10.3364 63.719 10.8141 60.5839 12.1105L56.3406 13.8653C55.3641 14.2691 54.4212 14.7496 53.5207 15.3023L49.7277 17.6306C47.3744 19.0751 45.6768 21.432 45.5709 24.1912C45.5021 25.9823 45.5774 28.1251 46.0396 30.1973C47.1439 35.1475 51.5609 35.6697 51.5609 35.6697H56.53M80.0856 11.8203L85.2405 13.3874L120.143 12.5218L121.83 8.31307M147.551 8.31307H121.83M147.551 8.31307L152.339 6.72011C153.357 6.38139 154.423 6.20872 155.496 6.20872H160.203V6.20872C161.526 6.20872 162.769 6.84281 163.546 7.91402L170.268 17.1832V24.0956L170.268 32.3664L170.268 31.4608M80.0856 35.6697H135H77.9773" stroke="white" stroke-width="4" stroke-linejoin="round"/>
<path d="M77.0561 33.5625C77.0561 39.4812 72.3979 44.1875 66.7634 44.1875C61.1288 44.1875 56.4707 39.4812 56.4707 33.5625C56.4707 27.6438 61.1288 22.9375 66.7634 22.9375C72.3979 22.9375 77.0561 27.6438 77.0561 33.5625Z" stroke="white" stroke-width="4"/>
<path d="M156.783 34.2637C156.783 40.1824 152.125 44.8886 146.49 44.8886C140.855 44.8886 136.197 40.1824 136.197 34.2637C136.197 28.345 140.855 23.6387 146.49 23.6387C152.125 23.6387 156.783 28.345 156.783 34.2637Z" stroke="white" stroke-width="4"/>
<path d="M110.637 19.3535H130.212" stroke="white" stroke-width="4" stroke-linecap="round"/>
<path d="M151.205 14.2754L168.126 14.2754" stroke="white" stroke-width="4" stroke-linecap="round"/>
<path d="M157 35.5H166" stroke="white" stroke-width="4" stroke-linecap="round"/>
<path d="M85.7598 29.7407L126.616 29.7402" stroke="white" stroke-width="4" stroke-linecap="round"/>
<path d="M112.846 28.0286L116.711 21.5215H128.305L124.44 28.0286H112.846Z" fill="#5B67EC" stroke="white" stroke-width="4"/>
</svg>
