<svg width="180" height="52" viewBox="0 0 180 52" fill="none" xmlns="http://www.w3.org/2000/svg">
<path d="M173.095 52H6.6575C2.99754 52 0 49.0734 0 45.5V6.5C0 2.92663 2.99754 2.74817e-06 6.6575 2.74817e-06H173.095C176.755 2.74817e-06 179.753 2.92663 179.753 6.5V45.5C179.753 49.0734 176.755 52 173.095 52Z" fill="url(#paint0_linear_4132_14416)"/>
<path d="M173.095 1.04162C176.177 1.04162 178.686 3.4905 178.686 6.5V45.5C178.686 48.5095 176.177 50.9584 173.095 50.9584H6.6575C3.57508 50.9584 1.06686 48.5095 1.06686 45.5V6.5C1.06686 3.4905 3.57508 1.04162 6.6575 1.04162H173.095ZM173.095 2.74817e-06H6.6575C2.99754 2.74817e-06 0 2.92663 0 6.5V45.5C0 49.0734 2.99754 52 6.6575 52H173.095C176.755 52 179.753 49.0734 179.753 45.5V6.5C179.753 2.92663 176.755 2.74817e-06 173.095 2.74817e-06Z" fill="white"/>
<path d="M90.7215 20.9775C87.5942 20.9775 85.0394 23.3013 85.0394 26.5074C85.0394 29.6875 87.5942 32.0356 90.7215 32.0356C93.8555 32.0356 96.4104 29.6875 96.4104 26.5074C96.4104 23.3013 93.8555 20.9775 90.7215 20.9775ZM90.7215 29.8581C89.0056 29.8581 87.5293 28.4753 87.5293 26.5074C87.5293 24.5135 89.0056 23.155 90.7215 23.155C92.4375 23.155 93.9205 24.5135 93.9205 26.5074C93.9205 28.4753 92.4375 29.8581 90.7215 29.8581ZM78.3236 20.9775C75.1896 20.9775 72.6414 23.3013 72.6414 26.5074C72.6414 29.6875 75.1896 32.0356 78.3236 32.0356C81.4559 32.0356 84.0058 29.6875 84.0058 26.5074C84.0058 23.3013 81.4559 20.9775 78.3236 20.9775ZM78.3236 29.8581C76.606 29.8581 75.1247 28.4753 75.1247 26.5074C75.1247 24.5135 76.606 23.155 78.3236 23.155C80.0396 23.155 81.5159 24.5135 81.5159 26.5074C81.5159 28.4753 80.0396 29.8581 78.3236 29.8581ZM63.5706 22.6724V25.0221H69.3177C69.1496 26.3351 68.7002 27.3004 68.0111 27.9731C67.1723 28.7856 65.8657 29.6875 63.5706 29.6875C60.0338 29.6875 57.2643 26.9006 57.2643 23.4475C57.2643 19.9944 60.0338 17.2075 63.5706 17.2075C65.4829 17.2075 66.8744 17.9371 67.9013 18.8829L69.5973 17.227C68.1609 15.888 66.2502 14.8594 63.5706 14.8594C58.7206 14.8594 54.6445 18.7123 54.6445 23.4475C54.6445 28.1828 58.7206 32.0356 63.5706 32.0356C66.192 32.0356 68.1609 31.1971 69.7088 29.6241C71.2949 28.0755 71.7893 25.898 71.7893 24.1398C71.7893 23.5938 71.7427 23.0916 71.6594 22.6724H63.5706ZM123.898 24.494C123.43 23.2574 121.987 20.9775 119.048 20.9775C116.135 20.9775 113.71 23.2184 113.71 26.5074C113.71 29.6046 116.11 32.0356 119.327 32.0356C121.929 32.0356 123.43 30.487 124.047 29.5851L122.117 28.329C121.473 29.2488 120.595 29.8581 119.327 29.8581C118.067 29.8581 117.163 29.2943 116.584 28.1828L124.159 25.1229L123.898 24.494ZM116.175 26.3351C116.11 24.2031 117.871 23.1111 119.132 23.1111C120.121 23.1111 120.96 23.5938 121.24 24.2844L116.175 26.3351ZM110.018 31.6993H112.508V15.4493H110.018V31.6993ZM105.941 22.2093H105.857C105.298 21.5625 104.231 20.9775 102.88 20.9775C100.044 20.9775 97.4506 23.4085 97.4506 26.5253C97.4506 29.6241 100.044 32.0356 102.88 32.0356C104.231 32.0356 105.298 31.4458 105.857 30.7795H105.941V31.5725C105.941 33.6866 104.784 34.8225 102.918 34.8225C101.397 34.8225 100.453 33.75 100.064 32.8481L97.8983 33.7305C98.5225 35.1963 100.175 37 102.918 37C105.837 37 108.301 35.323 108.301 31.2426V21.3139H105.941V22.2093ZM103.093 29.8581C101.377 29.8581 99.9405 28.4558 99.9405 26.5253C99.9405 24.5769 101.377 23.155 103.093 23.155C104.784 23.155 106.117 24.5769 106.117 26.5253C106.117 28.4558 104.784 29.8581 103.093 29.8581ZM135.555 15.4493H129.6V31.6993H132.083V25.5421H135.555C138.313 25.5421 141.017 23.5938 141.017 20.4949C141.017 17.3976 138.306 15.4493 135.555 15.4493ZM135.62 23.2818H132.083V17.7096H135.62C137.474 17.7096 138.532 19.2128 138.532 20.4949C138.532 21.7526 137.474 23.2818 135.62 23.2818ZM150.97 20.9466C149.176 20.9466 147.31 21.7201 146.543 23.4345L148.747 24.3364C149.221 23.4345 150.093 23.142 151.015 23.142C152.303 23.142 153.61 23.8976 153.63 25.2318V25.4024C153.181 25.1489 152.219 24.7735 151.035 24.7735C148.662 24.7735 146.243 26.0491 146.243 28.4298C146.243 30.6073 148.187 32.0096 150.373 32.0096C152.044 32.0096 152.966 31.2735 153.545 30.4171H153.63V31.6732H156.028V25.4398C156.028 22.5586 153.825 20.9466 150.97 20.9466ZM150.671 29.8516C149.858 29.8516 148.727 29.4584 148.727 28.4753C148.727 27.2175 150.138 26.7349 151.36 26.7349C152.453 26.7349 152.966 26.9705 153.63 27.2809C153.435 28.7856 152.109 29.8516 150.671 29.8516ZM164.766 21.3025L161.912 28.3469H161.827L158.876 21.3025H156.198L160.632 31.1468L158.102 36.6246H160.697L167.529 21.3025H164.766ZM142.382 31.6993H144.872V15.4493H142.382V31.6993Z" fill="white"/>
<path d="M13.8948 9.51602C13.5037 9.91577 13.2773 10.5381 13.2773 11.3441V40.0936C13.2773 40.8996 13.5037 41.522 13.8948 41.9218L13.9914 42.0095L30.492 25.9058V25.5255L13.9914 9.42177L13.8948 9.51602Z" fill="url(#paint1_linear_4132_14416)"/>
<path d="M35.9863 31.2764L30.4922 25.9057V25.5255L35.9929 20.1549L36.1161 20.2247L42.6305 23.8436C44.4896 24.8706 44.4896 26.5606 42.6305 27.5941L36.1161 31.2065L35.9863 31.2764Z" fill="url(#paint2_linear_4132_14416)"/>
<path d="M36.1156 31.2065L30.4917 25.7157L13.8945 41.9218C14.512 42.5555 15.519 42.6319 16.6641 41.9982L36.1156 31.2065Z" fill="url(#paint3_linear_4132_14416)"/>
<path d="M36.1156 20.2249L16.6641 9.43333C15.519 8.80608 14.512 8.88245 13.8945 9.5162L30.4917 25.7158L36.1156 20.2249Z" fill="url(#paint4_linear_4132_14416)"/>
<defs>
<linearGradient id="paint0_linear_4132_14416" x1="197" y1="26" x2="-7" y2="26" gradientUnits="userSpaceOnUse">
<stop offset="0.0513822" stop-color="white" stop-opacity="0.4"/>
<stop offset="1" stop-color="white" stop-opacity="0.07"/>
</linearGradient>
<linearGradient id="paint1_linear_4132_14416" x1="29.0269" y1="40.393" x2="7.21605" y2="18.0537" gradientUnits="userSpaceOnUse">
<stop stop-color="#00A0FF"/>
<stop offset="0.0066" stop-color="#00A1FF"/>
<stop offset="0.2601" stop-color="#00BEFF"/>
<stop offset="0.5122" stop-color="#00D2FF"/>
<stop offset="0.7604" stop-color="#00DFFF"/>
<stop offset="1" stop-color="#00E3FF"/>
</linearGradient>
<linearGradient id="paint2_linear_4132_14416" x1="45.0513" y1="25.7138" x2="12.8332" y2="25.7138" gradientUnits="userSpaceOnUse">
<stop stop-color="#FFE000"/>
<stop offset="0.4087" stop-color="#FFBD00"/>
<stop offset="0.7754" stop-color="#FFA500"/>
<stop offset="1" stop-color="#FF9C00"/>
</linearGradient>
<linearGradient id="paint3_linear_4132_14416" x1="33.0575" y1="22.7307" x2="3.48018" y2="-7.56326" gradientUnits="userSpaceOnUse">
<stop stop-color="#FF3A44"/>
<stop offset="1" stop-color="#C31162"/>
</linearGradient>
<linearGradient id="paint4_linear_4132_14416" x1="9.71668" y1="51.4868" x2="22.9243" y2="37.9593" gradientUnits="userSpaceOnUse">
<stop stop-color="#32A071"/>
<stop offset="0.0685" stop-color="#2DA771"/>
<stop offset="0.4762" stop-color="#15CF74"/>
<stop offset="0.8009" stop-color="#06E775"/>
<stop offset="1" stop-color="#00F076"/>
</linearGradient>
</defs>
</svg>
