<svg width="219" height="53" viewBox="0 0 219 53" fill="none" xmlns="http://www.w3.org/2000/svg">
<mask id="mask0_4283_14058" style="mask-type:luminance" maskUnits="userSpaceOnUse" x="0" y="0" width="219" height="43">
<path d="M7.9178 0H209.81C214.886 0 219 4.11445 219 9.18988V33.5C218.058 40.5 208.634 43 208.634 43L10.1507 36.7595V27.5696L0.850271 18.3797C-0.559549 12 -0.0884684 14.2671 1.32872 7.49951C2.38887 2.43636 7.9178 0 7.9178 0Z" fill="white"/>
</mask>
<g mask="url(#mask0_4283_14058)">
<path d="M0.854828 7.66119C2.40284 12.1913 4.61725 17.228 6.44053 21.1249C7.35295 23.075 8.16885 24.7429 8.75685 25.9235C9.05085 26.5138 9.28795 26.9825 9.45165 27.3037C9.53345 27.4644 9.59695 27.5882 9.64005 27.672C9.66165 27.7139 9.67805 27.7457 9.68915 27.7672C9.69475 27.778 9.69895 27.7861 9.70175 27.7916C9.70325 27.7943 9.70425 27.7964 9.70505 27.7978C9.70535 27.7985 9.70565 27.7991 9.70585 27.7994C9.70585 27.7993 9.70595 27.7996 9.70585 27.7994C9.70595 27.7995 9.70615 27.8 10.1499 27.5696C10.5936 27.3392 10.5936 27.3392 10.5936 27.3391C10.5937 27.3393 10.5935 27.3391 10.5936 27.3391C10.5934 27.3388 10.593 27.338 10.5927 27.3374C10.592 27.3361 10.591 27.3342 10.5896 27.3316C10.5869 27.3263 10.5829 27.3185 10.5775 27.308C10.5666 27.2871 10.5505 27.2558 10.5292 27.2144C10.4867 27.1318 10.4238 27.0092 10.3426 26.8498C10.1802 26.531 9.94455 26.0651 9.65195 25.4777C9.06685 24.3028 8.25455 22.6424 7.34625 20.7011C5.52825 16.8154 3.33168 11.8169 1.80111 7.33783L0.854828 7.66119ZM7.91705 0V-1H7.70645L7.51375 -0.915092L7.91705 0ZM208.633 43L208.602 43.9995L208.748 44.0041L208.89 43.9666L208.633 43ZM10.1499 36.7595H9.14995V37.7285L10.1184 37.759L10.1499 36.7595ZM218.999 33.5L219.99 33.6334L219.999 33.567V33.5H218.999ZM0.849518 18.3797L-0.126922 18.5955L-0.0632517 18.8836L0.146648 19.091L0.849518 18.3797ZM10.1499 27.5696H11.1499V27.1519L10.8527 26.8583L10.1499 27.5696ZM7.91705 1H209.809V-1H7.91705V1ZM208.665 42.0005L10.1813 35.76L10.1184 37.759L208.602 43.9995L208.665 42.0005ZM218.008 33.3666C217.597 36.419 215.322 38.578 212.944 40.0199C211.772 40.7307 210.622 41.2372 209.763 41.5661C209.335 41.73 208.982 41.8486 208.739 41.9254C208.617 41.9638 208.523 41.9917 208.462 42.0096C208.431 42.0185 208.408 42.0249 208.394 42.0289C208.386 42.0308 208.381 42.0322 208.379 42.033C208.377 42.0334 208.376 42.0336 208.376 42.0337C208.377 42.0336 208.377 42.0334 208.633 43C208.89 43.9666 208.89 43.9665 208.891 43.9664C208.891 43.9665 208.891 43.9663 208.891 43.9664C208.892 43.9662 208.893 43.9657 208.894 43.9654C208.896 43.9649 208.899 43.9642 208.902 43.9634C208.908 43.9617 208.917 43.9593 208.927 43.9564C208.949 43.9504 208.979 43.942 209.017 43.9309C209.094 43.9087 209.203 43.876 209.342 43.8324C209.617 43.7452 210.008 43.6137 210.478 43.4339C211.415 43.0753 212.68 42.5193 213.981 41.7301C216.551 40.172 219.459 37.581 219.99 33.6334L218.008 33.3666ZM219.999 33.5V9.18988H217.999V33.5H219.999ZM1.82596 18.1639C1.1012 14.8842 0.926798 14.0636 1.0226 13.1946C1.07196 12.7469 1.19542 12.2785 1.42396 11.4127C1.64718 10.5671 1.9473 9.4209 2.30674 7.70448L0.349198 7.29455C3.83556e-05 8.96191 -0.290172 10.0702 -0.509802 10.9022C-0.724122 11.7141 -0.896032 12.3466 -0.965362 12.9755C-1.10694 14.2598 -0.811972 15.4955 -0.126922 18.5955L1.82596 18.1639ZM2.30674 7.70448C2.77137 5.48549 4.22903 3.79282 5.65409 2.62437C6.35963 2.04587 7.03615 1.61353 7.53495 1.32673C7.78375 1.18373 7.98645 1.07798 8.12405 1.00928C8.19275 0.974952 8.24515 0.949954 8.27865 0.93425C8.29545 0.926401 8.30745 0.920881 8.31455 0.917688C8.31805 0.916091 8.32035 0.915077 8.32125 0.914644C8.32145 0.914569 8.32175 0.914428 8.32125 0.914644C8.32095 0.914763 8.32025 0.915092 7.91705 0C7.51375 -0.915092 7.51415 -0.915248 7.51375 -0.915092C7.51365 -0.915028 7.51255 -0.914559 7.51225 -0.91443C7.51165 -0.914171 7.51105 -0.913874 7.51025 -0.913539C7.50875 -0.91287 7.50685 -0.912048 7.50475 -0.911074C7.50035 -0.909126 7.49465 -0.906568 7.48775 -0.903401C7.47375 -0.897065 7.45465 -0.888286 7.43065 -0.877055C7.38265 -0.854597 7.31515 -0.822307 7.23065 -0.780124C7.06185 -0.695811 6.82429 -0.571659 6.53814 -0.407145C5.96719 -0.078901 5.1952 0.414292 4.386 1.07778C2.78158 2.3933 0.944728 4.45039 0.349198 7.29455L2.30674 7.70448ZM11.1499 36.7595V27.5696H9.14995V36.7595H11.1499ZM10.8527 26.8583L1.55239 17.6684L0.146648 19.091L9.44705 28.2809L10.8527 26.8583ZM209.809 1C214.332 1 217.999 4.66674 217.999 9.18988H219.999C219.999 3.56216 215.437 -1 209.809 -1V1Z" fill="black"/>
</g>
<mask id="mask1_4283_14058" style="mask-type:luminance" maskUnits="userSpaceOnUse" x="0" y="3" width="215" height="50">
<path d="M0 13C0 7.47714 4.47715 3 10 3H205C210.523 3 215 7.47715 215 13V31.6139C215 37.1367 210.518 41.6139 204.995 41.6139C147.181 41.6139 97.476 41.6139 45.0655 41.6139C41.9895 41.6139 45.4343 53 42.2489 53C35.7792 53 33.2947 41.6139 26.2882 41.6139H10C4.47715 41.6139 0 37.1367 0 31.6139V13Z" fill="white"/>
</mask>
<g mask="url(#mask1_4283_14058)">
<path d="M0 13C0 7.47714 4.47715 3 10 3H205C210.523 3 215 7.47715 215 13V31.6139C215 37.1367 210.518 41.6139 204.995 41.6139C147.181 41.6139 97.476 41.6139 45.0655 41.6139C41.9895 41.6139 45.4343 53 42.2489 53C35.7792 53 33.2947 41.6139 26.2882 41.6139H10C4.47715 41.6139 0 37.1367 0 31.6139V13Z" fill="white" stroke="black" stroke-width="2"/>
</g>
<path d="M23.368 30.4765C23.1093 30.4765 22.8307 30.457 22.6118 30.418C22.373 30.3985 22.0944 30.3595 21.7959 30.3595C21.5969 30.34 21.398 30.301 21.1791 30.262C20.9403 30.184 20.7811 30.0865 20.6219 29.911C20.4826 29.7745 20.3632 29.6575 20.2836 29.5405C20.204 29.443 20.1642 29.3065 20.1244 29.131C20.0249 28.702 19.9851 28.2535 20.005 27.7855C20.0249 27.3175 20.0249 26.8885 20.0249 26.4594V24.7824C20.0249 24.1779 20.0249 23.6124 20.0249 23.2029C20.0249 22.7153 20.0249 22.2083 20.0249 21.6623C20.005 21.0773 20.005 20.5508 20.005 20.0438C20.005 19.5173 20.005 19.0687 20.005 18.6592C20.005 18.2692 20.005 17.9962 20.0249 17.8597C20.0448 17.5867 20.1045 17.3137 20.204 17.0212C20.3234 16.7287 20.5622 16.4947 20.9204 16.3582C21.0398 16.3192 21.2189 16.2802 21.3781 16.2412C21.5571 16.2022 21.6964 16.2217 21.8556 16.2607C22.0347 16.2997 22.1939 16.3582 22.3531 16.4557C22.4924 16.5532 22.6118 16.7092 22.6516 16.8847C22.7312 17.0797 22.8108 17.2747 22.8108 17.4892C22.8506 17.7037 22.8506 17.8987 22.8506 18.1132C22.8506 18.2692 22.8506 18.4642 22.8506 18.7567C22.8506 19.0687 22.8307 19.2638 22.8307 19.4198C22.8307 19.7123 22.8307 20.0438 22.8307 20.4533C22.8307 20.9018 22.8307 21.3503 22.8307 21.8183C22.8307 22.3448 22.8307 22.8323 22.8307 23.3589C22.8307 23.8464 22.8307 24.3534 22.8307 24.8409C22.8307 25.3284 22.8307 25.7769 22.8307 26.1864C22.8307 26.6154 22.8506 26.9665 22.8506 27.259C22.8506 27.337 22.8705 27.4345 22.8705 27.532C22.9103 27.6295 22.9501 27.688 22.9899 27.7465C23.0894 27.8245 23.1889 27.883 23.2884 27.883C23.7063 27.9025 24.1242 27.922 24.5421 27.9415C24.7212 27.961 24.8804 27.961 24.9998 27.961C26.0943 27.961 27.4673 27.688 27.4673 29.17C27.4673 29.2285 27.4673 29.287 27.4673 29.365C27.4076 30.1645 26.4923 30.3205 25.7958 30.3595C25.2784 30.379 24.7809 30.4765 24.3232 30.4765C24.0844 30.4765 23.9053 30.4765 23.7063 30.4765C23.567 30.4765 23.4476 30.4765 23.368 30.4765ZM34.3526 18.8542V29.3455C34.3526 29.677 34.3327 30.067 34.273 30.4375C34.2332 30.8081 34.074 31.0811 33.7755 31.3151C33.5168 31.4321 33.2979 31.5101 33.079 31.5101C32.8403 31.5101 32.6612 31.4126 32.5219 31.2566C32.3627 31.0811 32.2632 30.9251 32.2035 30.6911C32.1239 30.457 32.0642 30.223 32.0443 29.95C32.0443 29.6965 32.0244 29.5015 32.0244 29.326V24.3924H30.512V29.443C30.5518 29.7355 30.5518 30.0475 30.4921 30.3985C30.4523 30.7105 30.3528 30.9641 30.2334 31.1591C30.0742 31.3931 29.8354 31.5101 29.4971 31.5101C29.3578 31.5101 29.1986 31.4516 29.0394 31.3931C28.92 31.3346 28.8006 31.2566 28.6812 31.1396C28.4623 30.9251 28.3031 30.6715 28.2434 30.3205C28.1837 29.989 28.1837 29.6575 28.1837 29.3845V17.0992C28.1837 16.7092 28.2434 16.3777 28.3628 16.1047C28.5021 15.8122 28.8006 15.6367 29.2384 15.5977C29.5767 15.5782 29.8354 15.6562 29.9946 15.8317C30.1538 16.0267 30.2931 16.2217 30.3727 16.4752C30.4523 16.7677 30.4921 17.0407 30.4921 17.3332C30.512 17.6257 30.512 17.8597 30.512 18.0352V21.9548H32.0244V17.8792C32.0244 17.6842 32.0244 17.4697 32.0244 17.2357C32.0244 16.9627 32.0443 16.7287 32.0841 16.4752C32.1438 16.2607 32.2234 16.0852 32.3627 15.8902C32.5219 15.7147 32.7408 15.6367 33.0393 15.5977C33.1586 15.5977 33.3178 15.5977 33.4571 15.6367C33.5964 15.6952 33.7158 15.7537 33.8153 15.8707C33.9745 16.0462 34.1138 16.2217 34.1536 16.4557C34.2332 16.7287 34.273 16.9822 34.2929 17.2747C34.3327 17.5672 34.3526 17.8207 34.3526 18.0937C34.3526 18.3667 34.3526 18.6202 34.3526 18.8542Z" fill="#5B67EC"/>
<path d="M52.8871 23.5727C53.6632 23.6117 54.3398 23.7872 54.3398 24.6062C54.3398 25.0352 54.1209 25.4252 53.6632 25.5227C52.8871 25.7372 52.0911 25.6397 51.2753 25.6397C49.345 25.6397 47.4545 25.6787 45.5442 25.6787C44.39 25.6787 43.2159 25.6787 41.9821 25.6787C41.2458 25.6787 40.1314 25.7957 39.8529 24.9377C39.634 24.4307 39.9722 23.8847 40.4896 23.7287C40.7483 23.6117 41.0269 23.5727 41.3055 23.5727C42.7582 23.6117 44.1512 23.5727 45.5442 23.5727V22.4026C45.5442 21.4276 46.559 20.9401 47.4545 21.3106C48.0714 21.5836 48.1311 22.3051 48.1311 22.8901C48.1311 23.1047 48.1311 23.3387 48.1311 23.5727C48.5291 23.5727 48.9072 23.5727 49.345 23.5727C50.3201 23.5727 51.2753 23.5142 52.1508 23.5727C52.3896 23.5727 52.6085 23.5727 52.8871 23.5727ZM52.8871 29.0718C53.7826 29.2278 54.1209 30.2808 53.5438 30.9244C53.3846 31.0804 53.2055 31.2169 53.0463 31.2754C52.8871 31.3144 52.7677 31.3144 52.7677 31.3144H42.0418C41.5244 31.3144 41.1463 31.2754 40.808 31.0804C40.5294 30.9244 40.4299 30.6513 40.4299 30.3783C40.4299 29.5008 40.2906 28.5843 40.4299 27.7653C40.4299 27.4923 40.5294 27.2778 40.7085 27.0438C41.0866 26.7707 41.7632 26.7122 42.1612 26.9268C42.7582 27.2778 42.6388 28.0773 42.7582 28.7013C42.7582 28.7988 42.7582 28.9158 42.8179 28.9548C42.8179 29.0133 42.9174 29.0133 43.1562 29.0133C43.5542 29.0718 43.8726 29.0718 44.2109 29.0718C46.7182 29.0718 49.0266 29.0133 51.534 29.0133C51.9319 29.0133 52.4493 29.0328 52.8871 29.0718ZM43.992 21.1546C43.7731 21.3106 43.4945 21.4666 43.2756 21.6811C42.6388 22.1881 41.4647 22.5781 40.9672 21.7396C40.8677 21.5836 40.808 21.4666 40.808 21.3106C40.7483 20.5306 42.1612 19.6726 42.6388 19.1656C43.6537 18.3075 44.7283 17.586 45.7431 16.728C45.7431 16.533 45.7431 16.377 45.7431 16.1625C45.7431 16.0455 45.7829 15.8895 45.8426 15.7335C46.1212 14.8949 47.7331 14.7389 48.1709 15.4605C48.4694 15.8895 48.3699 16.65 48.3699 16.65C48.3699 16.65 50.2604 18.366 51.0962 18.951C51.6533 19.3996 52.5488 19.8286 52.9866 20.4331C53.3846 20.8816 53.3249 21.7981 52.7279 22.0906C52.31 22.1881 51.9319 22.1881 51.5936 22.0321C50.6385 21.5836 49.7032 20.8231 48.8674 20.2186L47.0764 18.951C46.0615 19.7311 45.0467 20.4331 43.992 21.1546Z" fill="#5B67EC"/>
<path d="M62.1075 16.3774C63.6994 17.2159 64.3561 18.6784 64.1969 20.7065C64.0377 23.3001 62.7443 24.5676 59.9981 24.5676C58.5454 24.5676 57.7494 24.6846 56.456 23.8656C55.2023 23.0661 54.8242 21.6425 54.8242 20.2775C54.8242 18.9124 55.3018 17.6449 56.4361 16.7869C57.3714 16.0654 58.5852 15.7144 59.7394 15.8119C60.7941 15.8899 61.1722 15.9679 62.1075 16.3774ZM58.5056 31.5098C57.4311 31.5098 56.6948 30.9638 56.6948 30.3787V27.5707C56.6749 27.2782 56.6749 26.9857 56.6948 26.6931C56.7545 26.1471 57.1724 25.7766 57.7693 25.7766C57.9086 25.7766 58.3464 25.7961 58.4857 25.8351C59.1822 26.0496 59.222 26.7126 59.2618 27.2977C59.2817 27.5122 59.3016 29.0137 59.3414 29.1892C58.8638 29.2672 62.0478 29.3452 67.8983 29.2867H67.9182C67.9381 29.3062 68.7341 29.4817 68.8137 30.0277C68.8734 30.5152 68.7938 30.8468 68.555 31.1198C68.2366 31.4903 67.759 31.5098 67.7391 31.5098H58.5056ZM69.2515 21.779H68.555V24.5481C68.555 24.9966 68.4356 25.5816 67.9381 25.8156C67.7391 25.9521 67.5003 26.0301 67.2615 26.0301C67.0426 26.0301 66.8038 25.9716 66.6247 25.8741C66.0675 25.5621 65.9879 24.8601 65.9879 24.8406V17.3719C65.9879 17.2549 66.0078 16.6504 66.167 16.3384C66.3063 16.0849 66.6048 15.9094 67.0227 15.8704C67.4804 15.8119 67.958 15.9289 68.1968 16.1629C68.4754 16.5139 68.555 16.9819 68.555 17.4499V19.595C68.7938 19.6145 69.8285 19.6535 70.0474 19.712C70.5847 19.8095 70.7837 20.0045 70.8633 20.297C70.923 20.57 70.9429 21.0185 70.7837 21.272C70.4454 21.779 70.0474 21.779 69.2515 21.779ZM61.8289 20.921C61.8289 19.79 61.6896 18.8344 60.5553 18.4249C59.3414 18.0154 57.5107 18.3859 57.252 20.0045C57.0928 21.116 57.5704 22.325 59.222 22.4615C60.3364 22.5785 61.5304 22.2275 61.8289 20.921Z" fill="#5B67EC"/>
<path d="M72.8116 24.0993C72.2743 23.7288 71.8962 23.1828 71.6773 22.5392C71.4186 21.8762 71.339 21.2522 71.339 20.6087C71.339 19.9262 71.4584 19.3607 71.6773 18.7951C71.936 18.2491 72.2345 17.7616 72.6524 17.3911C73.0703 16.9621 73.528 16.6501 74.125 16.4356C74.6623 16.1821 75.2991 16.0651 75.9757 16.0651C76.2344 16.0261 76.4333 16.0261 76.6721 16.0651C76.891 16.0651 77.1497 16.1041 77.3686 16.1431C77.4681 16.1821 77.6074 16.1821 77.7268 16.2211C77.8661 16.2211 77.9855 16.2796 78.0651 16.3186C78.3636 16.3966 78.6024 16.4746 78.8611 16.6111C79.1198 16.7281 79.3387 16.8451 79.5377 16.9621C79.6969 17.0401 79.9158 17.2156 80.0949 17.3911C80.3536 17.6446 80.5128 17.8396 80.672 18.1126C80.8312 18.3661 80.9705 18.6586 81.0103 18.9901C81.0899 19.2827 81.1297 19.5752 81.1894 19.8677C81.2292 20.1407 81.269 20.4332 81.2292 20.7647C81.2292 20.9207 81.1894 21.1352 81.1894 21.2912C81.1297 21.5057 81.1297 21.7202 81.0501 21.8762C80.9705 22.3637 80.7914 22.8707 80.5526 23.2803C80.2541 23.7288 79.9158 24.0408 79.4581 24.3528C79.1198 24.5478 78.7815 24.7233 78.4034 24.8013C78.0651 24.8988 77.687 24.9573 77.3288 25.0353C77.1895 25.0743 77.0701 25.0743 76.9308 25.0743C76.8512 25.0743 76.7119 25.0743 76.5925 25.1133H76.2344C76.1349 25.1133 76.0155 25.1133 75.8762 25.0743C75.717 25.0743 75.5379 25.0743 75.3787 25.0353C75.1797 25.0353 75.0006 24.9963 74.8215 24.9963C74.4434 24.9378 74.125 24.8403 73.7867 24.6843C73.4285 24.5088 73.1101 24.3528 72.8116 24.0993ZM85.6469 18.2686V19.5362C85.6867 20.0432 85.6867 20.6087 85.6867 21.1937V24.3528C85.6867 24.9378 85.6867 25.4643 85.6469 25.9518V28.1749C85.6071 28.5844 85.6469 29.0134 85.6469 29.3644C85.6469 29.6179 85.6469 29.8714 85.6071 30.0664C85.6071 30.2809 85.5673 30.4369 85.4678 30.5734C85.428 30.6904 85.3484 30.7685 85.3086 30.905C85.2091 30.983 85.1295 31.1 84.9106 31.178C84.6718 31.3535 84.3335 31.3925 83.9952 31.3535C83.7763 31.295 83.6171 31.217 83.4977 31.1C83.3783 31.022 83.2788 30.866 83.1992 30.6905C83.1196 30.5149 83.0599 30.3589 83.0599 30.1834C83.0201 30.0664 82.9803 29.9104 82.9803 29.8324V29.6179L82.9405 18.0541C82.9405 17.7226 82.9405 17.3911 83.0201 16.9816C83.0599 16.6111 83.1992 16.3186 83.3783 16.1236C83.5375 16.0066 83.6967 15.9091 83.8161 15.8701C83.9952 15.8311 84.1544 15.8311 84.3733 15.8311C84.5922 15.8311 84.7912 15.8701 85.0101 16.0066C85.1693 16.1236 85.3086 16.2991 85.3882 16.4941C85.5076 16.7866 85.6071 17.0791 85.6071 17.3521C85.6071 17.6446 85.6071 17.9761 85.6469 18.2686ZM81.269 27.2584C81.4481 27.3169 81.6073 27.3949 81.7267 27.4729C81.9854 27.7264 82.1446 27.9799 82.1446 28.2919C82.1446 28.5064 82.065 28.7209 81.9257 28.8769C81.8063 29.0329 81.667 29.1499 81.4879 29.2084C81.3486 29.2474 81.2292 29.2864 81.0899 29.2864C80.9307 29.3254 80.7914 29.3254 80.672 29.3254H78.7815C78.3238 29.3254 77.8661 29.3254 77.3686 29.3644H75.9757C75.4981 29.3254 75.1399 29.3254 74.7817 29.3254H72.6922C72.4335 29.3254 72.1947 29.2864 71.936 29.2474C71.7967 29.2084 71.6773 29.1499 71.5579 29.1109C71.4186 29.0719 71.339 29.0329 71.2196 28.9354C71.0604 28.7599 70.9609 28.5454 70.9609 28.2139C70.9609 27.9409 71.0604 27.7264 71.2196 27.5509C71.2992 27.4339 71.4186 27.3559 71.5977 27.3169C71.7569 27.2584 71.936 27.2194 72.0554 27.1804C72.2345 27.1414 72.334 27.1414 72.4335 27.1414H79.9556C80.2143 27.1414 80.473 27.1414 80.672 27.1804C80.8909 27.1804 81.0501 27.2194 81.269 27.2584ZM73.9857 20.2577C73.9459 20.5112 73.9459 20.7647 73.9857 21.0377C74.0454 21.3302 74.125 21.5837 74.2444 21.7982C74.523 22.2077 74.921 22.5002 75.4185 22.6952C75.7966 22.8317 76.1747 22.8707 76.5527 22.8707C76.7716 22.8317 76.9308 22.8317 77.1497 22.7927C77.3288 22.7927 77.5079 22.6952 77.687 22.6172C77.9457 22.5002 78.1646 22.2857 78.3238 22.0322C78.5029 21.7592 78.5626 21.5057 78.6422 21.2132C78.7417 20.7647 78.7019 20.3942 78.5626 19.9652C78.5029 19.7897 78.4034 19.6142 78.3238 19.4777C78.2442 19.3997 78.2044 19.2827 78.1049 19.2437C78.0651 19.1462 77.9855 19.0681 77.8661 18.9901C77.7666 18.9316 77.6472 18.8731 77.5477 18.8341C77.4482 18.7561 77.3288 18.7171 77.1895 18.6586C76.8512 18.5806 76.5129 18.5416 76.1349 18.5416C75.7966 18.5416 75.4583 18.5806 75.1797 18.7171C74.8812 18.8341 74.6225 18.9901 74.4036 19.2827C74.2046 19.5362 74.0852 19.8677 73.9857 20.2577Z" fill="#5B67EC"/>
<path d="M103.321 21.7788C103.818 22.0323 104.316 22.4028 104.734 22.7928C105.171 23.2024 105.032 24.1774 104.375 24.3139C103.54 24.5089 102.545 24.2164 101.788 23.8459C101.072 23.4949 100.475 23.1829 99.8778 22.8123C99.5198 22.5783 98.5048 22.0128 98.5048 22.0128C98.5048 22.0128 97.2908 22.5978 96.873 22.8318C96.1765 23.2219 95.6591 23.4754 94.9626 23.8264C94.4452 24.0799 93.888 24.4699 93.291 24.4309C92.8134 24.3919 92.2761 24.1774 92.1766 23.6119C92.1567 23.4559 92.1766 23.2609 92.2164 23.1049C92.3159 22.6758 92.5945 22.4028 92.9527 22.1688L94.3258 21.4083C94.7835 21.1548 95.0621 21.0183 95.5397 20.7648C95.9775 20.5113 96.6541 20.1213 97.1718 19.9263V18.3467H95.0621C94.6442 18.3467 94.3855 18.3662 93.9875 18.3272C93.689 18.2882 93.3109 18.3272 93.0323 18.1712C92.8731 18.0932 92.7537 17.9372 92.6741 17.7617C92.5149 17.4692 92.4751 17.0402 92.6144 16.7282C92.8134 16.2602 93.3706 16.0262 93.8681 16.0262H94.3258C94.7437 16.0457 94.8432 16.0262 95.2611 16.0262H102.147C103.022 16.0262 104.515 15.7922 104.793 17.0402C105.112 18.4832 102.962 18.4442 102.127 18.4052C101.311 18.3467 100.077 18.3857 100.077 18.3857V19.9653C100.236 20.0628 100.415 20.1603 100.594 20.2383C100.754 20.3163 100.893 20.4138 101.052 20.5113C101.311 20.6478 101.569 20.7648 101.828 20.9208C102.326 21.1938 102.823 21.5058 103.321 21.7788ZM93.0721 27.9215C92.4552 27.902 91.8781 27.8045 91.5398 27.2975C91.2612 26.8685 91.2612 26.3029 91.6194 25.9324C92.0373 25.5229 93.0124 25.5424 93.0522 25.5424H103.898C104.734 25.5034 106.027 25.5424 106.027 26.6929C106.027 27.98 103.957 27.8825 103.102 27.902H102.326C101.808 27.9215 101.291 27.902 100.773 27.902H100.017C100.037 28.6235 100.097 29.501 99.9968 30.125C99.9378 30.6125 99.7588 31.1196 99.3208 31.3926C98.9228 31.6461 98.3258 31.6656 97.9078 31.4316C97.5698 31.2366 97.4098 30.7686 97.3508 30.4175C97.2908 30.125 97.3308 29.774 97.3308 29.4815C97.3108 29.0135 97.3108 28.4285 97.3108 27.8825H96.8133C95.3407 27.902 94.5447 27.941 93.0721 27.9215Z" fill="#5B67EC"/>
<path d="M109.755 24.8599C109.914 24.7039 110.074 24.4309 110.153 24.3529V19.9458C110.034 19.9848 109.914 19.9458 109.795 19.9458H109.258C108.322 19.9458 107.586 19.9068 107.407 19.8678C106.929 19.7703 106.591 19.5363 106.432 19.0682C106.392 18.8927 106.352 18.7367 106.392 18.5417C106.392 18.3857 106.472 18.2297 106.591 18.0542C106.671 17.9372 106.85 17.8202 107.009 17.7422C107.168 17.6252 107.327 17.5862 107.487 17.5472H110.113C110.113 17.2547 110.153 16.6307 110.153 16.3967C110.213 16.0652 110.332 15.7922 110.452 15.5582C110.611 15.3047 110.85 15.1486 111.148 15.0706C111.427 14.9536 111.745 14.9926 112.044 15.1096C112.243 15.1876 112.442 15.3437 112.521 15.5192C112.66 15.6752 112.78 15.8702 112.82 16.0652C112.859 16.2797 112.899 16.5137 112.899 16.7477V17.5472H114.113C114.65 17.5472 115.228 17.5862 115.606 17.6252C115.964 17.7032 116.302 17.8982 116.501 18.2297C116.621 18.4247 116.66 18.5807 116.66 18.7757C116.7 18.9317 116.66 19.1073 116.581 19.2633C116.422 19.5753 116.103 19.7703 115.645 19.8678C115.367 19.9068 114.989 19.9068 114.591 19.9458C114.173 19.9458 113.556 19.9848 112.899 19.9458C112.899 20.3748 112.859 21.1353 112.899 21.4473V23.5924C112.899 23.7094 112.859 23.8264 112.899 23.9824V24.2944C113.019 24.3919 113.138 24.5869 113.337 24.7819C113.516 24.9379 113.636 25.0939 113.755 25.2304C113.874 25.3864 113.994 25.5424 114.153 25.6984C114.292 25.8154 114.412 26.0299 114.571 26.1859C114.65 26.3029 114.73 26.4199 114.81 26.4979C114.889 26.6149 114.969 26.7514 115.009 26.8294C115.267 27.1415 115.506 27.4535 115.745 27.863C116.043 28.214 116.203 28.6235 116.282 28.9745C116.322 29.15 116.322 29.345 116.282 29.54C116.242 29.735 116.163 29.891 116.004 30.0665C115.825 30.2225 115.586 30.3005 115.267 30.3005C114.969 30.3005 114.73 30.2225 114.451 30.1055C114.193 29.9495 113.994 29.774 113.795 29.618C113.556 29.384 113.337 29.0915 113.138 28.8575C112.939 28.6235 112.74 28.3505 112.521 28.058C112.362 27.902 112.203 27.707 112.044 27.4925C111.884 27.2585 111.666 27.1025 111.506 26.9465C111.347 27.1415 111.188 27.3365 111.029 27.551C110.85 27.746 110.69 27.941 110.531 28.136C110.372 28.3895 110.153 28.6625 109.954 28.8965C109.795 29.15 109.596 29.423 109.337 29.657C108.82 30.1835 108.362 30.3395 107.885 30.3395C107.765 30.3395 107.626 30.3395 107.506 30.3005C107.228 30.2225 107.029 30.0665 106.89 29.774C106.81 29.579 106.77 29.384 106.81 29.15C106.85 28.8965 106.89 28.6625 107.029 28.5065C107.108 28.292 107.228 28.097 107.347 27.902C107.467 27.746 107.586 27.551 107.765 27.3755C107.845 27.2975 107.924 27.1805 108.004 27.1025L108.243 26.7514C108.322 26.5759 108.402 26.4979 108.621 26.2249C108.82 25.9909 109.019 25.7374 109.178 25.5424C109.397 25.3084 109.596 25.0549 109.755 24.8599ZM120.879 21.7398H120.919C121.038 21.7398 121.158 21.7788 121.297 21.7788C121.436 21.7983 121.595 21.8178 121.755 21.8373C122.053 21.8958 122.372 22.0128 122.511 22.3053C122.61 22.4613 122.65 22.6368 122.65 22.8123C122.65 23.0074 122.65 23.1829 122.59 23.3779C122.551 23.5729 122.491 23.8459 122.312 23.9824C122.153 24.0994 121.974 24.1969 121.775 24.2359C121.357 24.2944 120.64 24.2359 120.222 24.2554C120.183 24.2554 120.163 24.2749 120.163 24.2749C120.163 24.2749 120.143 24.2749 120.143 24.3529C120.123 24.9964 120.143 26.1469 120.143 26.8099C120.163 27.473 120.163 28.1555 120.143 28.799V29.072C120.143 29.7545 120.143 30.7491 119.665 31.2171C119.506 31.3926 119.287 31.4901 119.028 31.4901C119.028 31.4901 119.008 31.4706 118.989 31.4706C117.695 31.4316 117.556 29.9105 117.556 29.0915V17.5082C117.556 17.4692 117.536 16.4942 117.974 16.0652C118.153 15.8897 118.571 15.7922 118.869 15.7922C119.168 15.7922 119.426 15.9092 119.605 16.0847C119.964 16.4552 119.984 16.8647 120.023 17.2937C120.043 17.3717 120.043 17.4497 120.043 17.5277C120.103 17.9567 120.103 18.4442 120.123 18.9122C120.123 19.2048 120.143 19.4583 120.143 19.7508C120.123 19.9068 120.143 20.0433 120.143 20.1798V21.2718C120.143 21.4083 120.143 21.5643 120.183 21.7008C120.183 21.7203 120.581 21.7203 120.6 21.7203C120.7 21.7398 120.78 21.7593 120.879 21.7398Z" fill="#5B67EC"/>
<path d="M124.116 28.4285C124.116 26.0689 127.101 25.4254 130.763 25.4254C134.424 25.4254 137.409 25.7959 137.409 28.4285C137.409 31.0221 134.424 31.4316 130.763 31.4316C127.101 31.4316 124.116 31.0221 124.116 28.4285ZM129.051 18.1712C129.031 18.1517 129.031 19.9068 129.051 20.0043C129.191 20.1213 129.609 20.5113 129.847 20.7063C130.106 20.9208 130.385 21.1743 130.683 21.4473C130.862 21.6228 131.021 21.7983 131.161 21.9348C131.658 22.4223 132.255 23.0269 132.434 23.6119C132.514 23.8459 132.474 24.1774 132.196 24.3724C131.997 24.4894 131.758 24.5674 131.479 24.5674C130.902 24.5674 130.325 24.2749 130.007 24.0409C129.509 23.6704 129.091 23.2609 128.673 22.8513C128.375 22.5588 127.997 22.1298 127.619 21.8568L127.081 22.3833C126.902 22.5588 126.703 22.7343 126.544 22.9098C126.206 23.2804 125.848 23.6704 125.37 24.0019C124.833 24.3919 124.315 24.5869 123.838 24.5869C123.718 24.5869 123.619 24.5869 123.499 24.5479C123.221 24.4894 123.022 24.3724 122.922 24.1969C122.743 23.9044 122.843 23.4949 123.002 23.2219C123.201 22.9293 123.499 22.6563 123.758 22.3833C124.236 21.8763 126.047 20.2188 126.265 20.0043V18.1712H124.992C124.335 18.1712 123.201 18.3272 122.863 17.5667C122.743 17.2742 122.683 16.8842 122.763 16.5722C122.863 16.2017 123.32 16.0847 123.659 16.0457C123.778 16.0262 125.43 16.0652 125.609 16.0262H130.265C131.32 16.0262 132.056 16.1042 132.494 16.6112C132.753 16.9232 132.673 17.7617 132.255 17.9567C132.056 18.0347 131.718 18.1517 131.499 18.1712C131.121 18.1907 130.743 18.1712 130.365 18.1712H129.051ZM137.509 21.6228H137.051V23.5924C137.031 23.8654 136.991 24.1774 136.832 24.4699C136.753 24.6259 136.633 24.7624 136.494 24.8599C136.295 24.9964 135.976 25.0549 135.758 25.0549C135.559 25.0549 135.28 25.0159 135.121 24.9184C134.583 24.6064 134.504 23.8849 134.504 23.8654V17.2352C134.484 17.1377 134.524 16.5332 134.683 16.2212C134.802 15.9677 135.18 15.7922 135.559 15.7532C136.016 15.6947 136.514 15.8117 136.733 16.0457C136.892 16.2407 136.932 16.4357 136.991 16.6502C137.071 16.9037 137.071 17.2157 137.051 17.4887V18.8342C137.051 18.8342 137.031 19.0878 137.051 19.4583C137.27 19.4778 138.345 19.4973 138.583 19.5558C139.101 19.6533 139.28 19.8678 139.339 20.1408C139.419 20.4138 139.439 20.8623 139.28 21.1158C138.961 21.6228 138.285 21.6033 137.509 21.6228ZM134.723 28.4285C134.723 27.5315 132.613 27.4535 130.763 27.4535C128.912 27.4535 126.922 27.5315 126.922 28.4285C126.922 29.228 128.912 29.384 130.763 29.384C132.613 29.384 134.723 29.4815 134.723 28.4285Z" fill="#5B67EC"/>
<path d="M140.041 31.5876C139.881 31.5681 139.722 31.4901 139.603 31.2756C139.364 30.8856 139.682 30.008 139.981 29.5595C140.299 29.111 141.215 27.6875 141.812 27.5315C142.488 27.3755 143.344 28.175 143.065 28.76C142.846 29.228 141.652 30.203 141.314 30.593C141.035 30.9441 140.518 31.6461 140.041 31.5876Z" fill="#5B67EC"/>
<path d="M160.503 31.9387C159.807 32.0752 153.16 31.9387 152.524 31.9582C151.986 31.9582 151.37 31.9192 150.912 31.5877C150.315 31.1392 150.295 30.0276 150.275 29.9691C150.275 29.9691 150.295 26.693 150.295 26.615C150.295 26.2445 150.414 25.8155 150.773 25.6595C150.952 25.5815 151.19 25.562 151.409 25.5425C151.867 25.523 152.424 25.718 152.524 26.2445V27.1026C152.563 27.4926 152.683 27.3756 153.001 27.3951H160.842V26.5565C160.862 26.0885 161.021 25.7375 161.498 25.6595C161.877 25.5815 162.474 25.5815 162.772 25.835C163.031 26.069 163.051 26.7515 163.051 27.0636C163.011 28.2531 163.09 29.3646 162.971 30.5541C162.951 30.9052 162.832 31.1197 162.633 31.4122C162.215 32.0167 161.12 31.8997 160.503 31.9387ZM150.036 21.0964C149.857 21.0379 149.698 20.9209 149.618 20.7454C149.181 19.9654 150.414 19.3414 151.031 18.8148C151.489 18.4053 151.986 18.0153 152.444 17.5863C152.762 17.2938 153.379 16.9038 153.419 16.4748C153.459 15.8118 153.419 15.3633 154.593 15.3633C155.011 15.3633 155.469 15.4413 155.668 15.7338C155.867 16.0848 155.668 16.2408 155.827 16.6113C155.966 16.9428 156.344 17.1573 156.563 17.4498C157.121 17.9178 157.698 18.3663 158.255 18.9123C158.673 19.3219 159.11 19.5559 159.25 20.0434C159.508 20.9014 158.016 21.3109 157.26 20.7454C156.245 20.0239 155.529 19.5169 154.653 18.6978L152.086 20.5894C151.787 20.8429 151.37 21.0769 150.932 21.1354C150.613 21.1744 150.295 21.1744 150.036 21.0964ZM150.613 21.8959H157.956C158.474 21.8569 159.091 21.8374 159.489 22.1884C159.727 22.4029 159.807 22.6759 159.807 22.9685C159.807 23.339 159.628 23.573 159.27 23.729C158.792 23.9045 158.295 23.9045 157.777 23.924H157.698C156.404 23.9825 156.404 24.002 155.787 24.002C155.787 24.7235 155.807 25.328 155.19 25.6985C154.573 26.069 153.359 25.835 153.3 25.1915C153.28 24.8795 153.26 24.47 153.24 24.002C152.563 23.9825 152.026 23.9435 151.409 23.924C150.991 23.9045 151.011 23.885 150.633 23.8265H150.414C150.056 23.7875 149.678 23.768 149.36 23.456C149.2 23.3 149.121 23.144 149.121 22.8904C149.121 22.6564 149.2 22.4029 149.36 22.2469C149.718 21.8569 150.574 21.8959 150.613 21.8959ZM163.11 17.8593V22.1884C163.11 22.8514 163.17 23.6705 162.891 24.2945C162.673 24.782 162.076 24.977 161.598 24.86C161.419 24.821 161.26 24.743 161.14 24.626C160.683 24.2165 160.702 23.2025 160.702 23.1635V17.6643C160.702 17.0793 160.702 16.1043 161.041 15.7533C161.319 15.4998 161.618 15.4608 161.936 15.4608C162.374 15.4608 162.732 15.7338 162.891 16.1433C163.11 16.6893 163.11 17.2938 163.11 17.8593ZM153.3 30.2031L160.006 30.1836C160.285 30.2031 160.782 30.3006 160.782 29.8716C160.782 29.6766 160.862 29.5206 160.702 29.3451C160.523 29.1306 160.245 29.1501 159.986 29.1696C159.867 29.1696 153.738 29.1501 153.698 29.1501C153.2 29.1306 152.564 29.0526 152.564 29.5401C152.564 29.6766 152.563 29.7546 152.583 29.8521C152.703 30.2811 152.961 30.2226 153.3 30.2031Z" fill="#5B67EC"/>
<path d="M167.352 24.8599C167.512 24.7039 167.671 24.4309 167.75 24.3529V19.9458C167.631 19.9848 167.512 19.9458 167.392 19.9458H166.855C165.92 19.9458 165.183 19.9068 165.004 19.8678C164.527 19.7703 164.188 19.5363 164.029 19.0682C163.989 18.8927 163.949 18.7367 163.989 18.5417C163.989 18.3857 164.069 18.2297 164.188 18.0542C164.268 17.9372 164.447 17.8202 164.606 17.7422C164.765 17.6252 164.925 17.5862 165.084 17.5472H167.711C167.711 17.2547 167.75 16.6307 167.75 16.3967C167.81 16.0652 167.929 15.7922 168.049 15.5582C168.208 15.3047 168.447 15.1486 168.745 15.0706C169.024 14.9536 169.342 14.9926 169.641 15.1096C169.84 15.1876 170.039 15.3437 170.118 15.5192C170.258 15.6752 170.377 15.8702 170.417 16.0652C170.457 16.2797 170.496 16.5137 170.496 16.7477V17.5472H171.71C172.248 17.5472 172.825 17.5862 173.203 17.6252C173.561 17.7032 173.899 17.8982 174.098 18.2297C174.218 18.4247 174.257 18.5807 174.257 18.7757C174.297 18.9317 174.258 19.1073 174.178 19.2633C174.019 19.5753 173.7 19.7703 173.243 19.8678C172.964 19.9068 172.586 19.9068 172.188 19.9458C171.77 19.9458 171.153 19.9848 170.496 19.9458C170.496 20.3748 170.457 21.1353 170.496 21.4473V23.5924C170.496 23.7094 170.457 23.8264 170.496 23.9824V24.2944C170.616 24.3919 170.735 24.5869 170.934 24.7819C171.113 24.9379 171.233 25.0939 171.352 25.2304C171.472 25.3864 171.591 25.5424 171.75 25.6984C171.889 25.8154 172.009 26.0299 172.168 26.1859C172.248 26.3029 172.327 26.4199 172.407 26.4979C172.486 26.6149 172.566 26.7514 172.606 26.8294C172.865 27.1415 173.103 27.4535 173.342 27.863C173.641 28.214 173.8 28.6235 173.879 28.9745C173.919 29.15 173.919 29.345 173.879 29.54C173.84 29.735 173.76 29.891 173.601 30.0665C173.422 30.2225 173.183 30.3005 172.865 30.3005C172.566 30.3005 172.327 30.2225 172.049 30.1055C171.79 29.9495 171.591 29.774 171.392 29.618C171.153 29.384 170.934 29.0915 170.735 28.8575C170.536 28.6235 170.337 28.3505 170.118 28.058C169.959 27.902 169.8 27.707 169.641 27.4925C169.482 27.2585 169.263 27.1025 169.103 26.9465C168.944 27.1415 168.785 27.3365 168.626 27.551C168.447 27.746 168.288 27.941 168.128 28.136C167.969 28.3895 167.75 28.6625 167.551 28.8965C167.392 29.15 167.193 29.423 166.934 29.657C166.417 30.1835 165.959 30.3395 165.482 30.3395C165.362 30.3395 165.223 30.3395 165.104 30.3005C164.825 30.2225 164.626 30.0665 164.487 29.774C164.407 29.579 164.367 29.384 164.407 29.15C164.447 28.8965 164.487 28.6625 164.626 28.5065C164.706 28.292 164.825 28.097 164.944 27.902C165.064 27.746 165.183 27.551 165.362 27.3755C165.442 27.2975 165.522 27.1805 165.601 27.1025L165.84 26.7514C165.92 26.5759 165.999 26.4979 166.218 26.2249C166.417 25.9909 166.616 25.7374 166.775 25.5424C166.994 25.3084 167.193 25.0549 167.352 24.8599ZM178.476 21.7398H178.516C178.635 21.7398 178.755 21.7788 178.894 21.7788C179.033 21.7983 179.193 21.8178 179.352 21.8373C179.65 21.8958 179.969 22.0128 180.108 22.3053C180.207 22.4613 180.247 22.6368 180.247 22.8123C180.247 23.0074 180.247 23.1829 180.188 23.3779C180.148 23.5729 180.088 23.8459 179.909 23.9824C179.75 24.0994 179.571 24.1969 179.372 24.2359C178.954 24.2944 178.237 24.2359 177.82 24.2554C177.78 24.2554 177.76 24.2749 177.76 24.2749C177.76 24.2749 177.74 24.2749 177.74 24.3529C177.72 24.9964 177.74 26.1469 177.74 26.8099C177.76 27.473 177.76 28.1555 177.74 28.799V29.072C177.74 29.7545 177.74 30.7491 177.262 31.2171C177.103 31.3926 176.884 31.4901 176.626 31.4901C176.626 31.4901 176.606 31.4706 176.586 31.4706C175.292 31.4316 175.153 29.9105 175.153 29.0915V17.5082C175.153 17.4692 175.133 16.4942 175.571 16.0652C175.75 15.8897 176.168 15.7922 176.466 15.7922C176.765 15.7922 177.024 15.9092 177.203 16.0847C177.561 16.4552 177.581 16.8647 177.621 17.2937C177.64 17.3717 177.64 17.4497 177.64 17.5277C177.7 17.9567 177.7 18.4442 177.72 18.9122C177.72 19.2048 177.74 19.4583 177.74 19.7508C177.72 19.9068 177.74 20.0433 177.74 20.1798V21.2718C177.74 21.4083 177.74 21.5643 177.78 21.7008C177.78 21.7203 178.178 21.7203 178.198 21.7203C178.297 21.7398 178.377 21.7593 178.476 21.7398Z" fill="#5B67EC"/>
<path d="M181.717 28.4285C181.717 26.0689 184.702 25.4254 188.364 25.4254C192.025 25.4254 195.01 25.7959 195.01 28.4285C195.01 31.0221 192.025 31.4316 188.364 31.4316C184.702 31.4316 181.717 31.0221 181.717 28.4285ZM186.653 18.1712C186.633 18.1517 186.633 19.9068 186.653 20.0043C186.792 20.1213 187.21 20.5113 187.449 20.7063C187.707 20.9208 187.986 21.1743 188.284 21.4473C188.463 21.6228 188.623 21.7983 188.762 21.9348C189.259 22.4223 189.856 23.0269 190.035 23.6119C190.115 23.8459 190.075 24.1774 189.797 24.3724C189.598 24.4894 189.359 24.5674 189.08 24.5674C188.503 24.5674 187.926 24.2749 187.608 24.0409C187.11 23.6704 186.692 23.2609 186.274 22.8513C185.976 22.5588 185.598 22.1298 185.22 21.8568L184.682 22.3833C184.503 22.5588 184.304 22.7343 184.145 22.9098C183.807 23.2804 183.449 23.6704 182.971 24.0019C182.434 24.3919 181.916 24.5869 181.439 24.5869C181.319 24.5869 181.22 24.5869 181.101 24.5479C180.822 24.4894 180.623 24.3724 180.523 24.1969C180.344 23.9044 180.444 23.4949 180.603 23.2219C180.802 22.9293 181.101 22.6563 181.359 22.3833C181.837 21.8763 183.648 20.2188 183.867 20.0043V18.1712H182.593C181.936 18.1712 180.802 18.3272 180.464 17.5667C180.344 17.2742 180.285 16.8842 180.364 16.5722C180.464 16.2017 180.921 16.0847 181.26 16.0457C181.379 16.0262 183.031 16.0652 183.21 16.0262H187.866C188.921 16.0262 189.657 16.1042 190.095 16.6112C190.354 16.9232 190.274 17.7617 189.856 17.9567C189.657 18.0347 189.319 18.1517 189.1 18.1712C188.722 18.1907 188.344 18.1712 187.966 18.1712H186.653ZM195.11 21.6228H194.652V23.5924C194.632 23.8654 194.593 24.1774 194.433 24.4699C194.354 24.6259 194.234 24.7624 194.095 24.8599C193.896 24.9964 193.578 25.0549 193.359 25.0549C193.16 25.0549 192.881 25.0159 192.722 24.9184C192.185 24.6064 192.105 23.8849 192.105 23.8654V17.2352C192.085 17.1377 192.125 16.5332 192.284 16.2212C192.404 15.9677 192.782 15.7922 193.16 15.7532C193.617 15.6947 194.115 15.8117 194.334 16.0457C194.493 16.2407 194.533 16.4357 194.593 16.6502C194.672 16.9037 194.672 17.2157 194.652 17.4887V18.8342C194.652 18.8342 194.632 19.0878 194.652 19.4583C194.871 19.4778 195.946 19.4973 196.184 19.5558C196.702 19.6533 196.881 19.8678 196.941 20.1408C197.02 20.4138 197.04 20.8623 196.881 21.1158C196.563 21.6228 195.886 21.6033 195.11 21.6228ZM192.324 28.4285C192.324 27.5315 190.215 27.4535 188.364 27.4535C186.513 27.4535 184.523 27.5315 184.523 28.4285C184.523 29.228 186.513 29.384 188.364 29.384C190.215 29.384 192.324 29.4815 192.324 28.4285Z" fill="#5B67EC"/>
</svg>
