<svg width="240" height="243" viewBox="0 0 240 243" fill="none" xmlns="http://www.w3.org/2000/svg">
<path d="M95.465 28.1142L75.5918 36.9045L84.3821 56.7777L104.255 47.9874L95.465 28.1142Z" fill="#5B67EC"/>
<path d="M98.4413 27.0692L72.0897 38.7238C71.0419 39.1871 69.8057 38.7091 69.3423 37.6613L68.3606 35.4417C67.8973 34.3941 68.3753 33.1577 69.4231 32.6944L95.7747 21.0398C96.8224 20.5765 98.0587 21.0546 98.5222 22.1023L99.5039 24.3219C99.9671 25.3695 99.489 26.6059 98.4413 27.0692Z" fill="#403672"/>
<path d="M191.06 191.06C226.233 155.887 226.233 98.8599 191.06 63.6867C155.887 28.5135 98.8599 28.5135 63.6867 63.6867C28.5135 98.86 28.5135 155.887 63.6867 191.06C98.8599 226.233 155.887 226.233 191.06 191.06Z" fill="#5B67EC"/>
<path d="M188.124 188.121C221.674 154.571 221.674 100.176 188.124 66.6257C154.574 33.0757 100.179 33.0757 66.6286 66.6257C33.0785 100.176 33.0785 154.571 66.6286 188.121C100.179 221.671 154.574 221.671 188.124 188.121Z" fill="white"/>
<g opacity="0.2">
<path d="M185.796 185.542C218.061 153.276 218.061 100.964 185.796 68.6988C153.53 36.4336 101.218 36.4336 68.9527 68.6988C36.6874 100.964 36.6874 153.276 68.9527 185.542C101.218 217.807 153.53 217.807 185.796 185.542Z" fill="#5B67EC"/>
</g>
<path d="M101.749 68.7101C101.291 68.9126 100.75 68.7037 100.548 68.2457L95.8723 57.6741C95.6697 57.2162 95.8788 56.6756 96.3367 56.4731C96.7947 56.2705 97.3351 56.4796 97.5377 56.9375L102.213 67.5091C102.416 67.9671 102.207 68.5075 101.749 68.7101Z" fill="#5B67EC"/>
<path d="M159.036 198.001C158.528 198.226 157.93 197.994 157.705 197.487L152.525 185.775C152.301 185.267 152.532 184.668 153.04 184.444C153.547 184.22 154.146 184.451 154.37 184.959L159.55 196.671C159.775 197.178 159.543 197.777 159.036 198.001Z" fill="#5B67EC"/>
<path d="M189.828 99.7524C189.69 99.4407 189.832 99.0729 190.144 98.9351L197.339 95.7529C197.651 95.6151 198.019 95.7573 198.157 96.069C198.294 96.3807 198.152 96.7485 197.841 96.8864L190.645 100.069C190.334 100.206 189.966 100.064 189.828 99.7524Z" fill="#5B67EC"/>
<path d="M56.5898 158.68C56.4519 158.369 56.5941 158.001 56.9059 157.863L64.101 154.681C64.4127 154.543 64.7805 154.685 64.9183 154.997C65.0562 155.309 64.914 155.676 64.6022 155.814L57.4071 158.996C57.0954 159.134 56.7276 158.992 56.5898 158.68Z" fill="#5B67EC"/>
<path d="M195.589 130.605C195.605 130.265 195.896 129.999 196.237 130.015L204.095 130.388C204.436 130.404 204.701 130.695 204.685 131.036C204.669 131.376 204.377 131.642 204.037 131.625L196.178 131.253C195.838 131.237 195.573 130.945 195.589 130.605Z" fill="#5B67EC"/>
<path d="M50.0652 123.714C50.0812 123.373 50.373 123.108 50.7134 123.124L58.572 123.496C58.9125 123.512 59.1778 123.804 59.1617 124.144C59.1456 124.485 58.8539 124.75 58.5134 124.734L50.6548 124.362C50.3144 124.346 50.049 124.054 50.0652 123.714Z" fill="#5B67EC"/>
<path d="M184.803 164.33C184.988 164.043 185.373 163.959 185.66 164.144L192.276 168.401C192.562 168.586 192.646 168.971 192.461 169.258C192.277 169.544 191.892 169.628 191.605 169.444L184.989 165.186C184.702 165.002 184.619 164.616 184.803 164.33Z" fill="#5B67EC"/>
<path d="M62.2894 85.4919C62.4738 85.2053 62.8592 85.1217 63.1459 85.3061L69.7619 89.5635C70.0485 89.7479 70.1321 90.1333 69.9477 90.42C69.7633 90.7066 69.3778 90.7902 69.0912 90.6058L62.4752 86.3484C62.1886 86.1639 62.105 85.7786 62.2894 85.4919Z" fill="#5B67EC"/>
<path d="M113.024 194.167C113.357 194.238 113.571 194.57 113.499 194.903L111.845 202.594C111.773 202.928 111.442 203.142 111.108 203.07C110.775 202.998 110.561 202.667 110.633 202.334L112.288 194.642C112.359 194.309 112.691 194.095 113.024 194.167Z" fill="#5B67EC"/>
<path d="M143.664 51.7364C143.998 51.808 144.212 52.1394 144.14 52.4726L142.485 60.164C142.414 60.4972 142.082 60.7112 141.749 60.6396C141.416 60.568 141.202 60.2366 141.274 59.9034L142.928 52.2119C143 51.8786 143.331 51.6646 143.664 51.7364Z" fill="#5B67EC"/>
<path d="M82.6613 179.025C82.9189 179.248 82.9471 179.641 82.724 179.899L77.5738 185.846C77.3507 186.104 76.9574 186.132 76.6997 185.909C76.4421 185.686 76.4137 185.292 76.6368 185.035L81.787 179.087C82.0103 178.83 82.4036 178.801 82.6613 179.025Z" fill="#5B67EC"/>
<path d="M178.032 68.8897C178.29 69.1128 178.318 69.5061 178.095 69.7639L172.945 75.7113C172.722 75.9689 172.328 75.9972 172.071 75.7741C171.813 75.551 171.785 75.1577 172.008 74.8999L177.158 68.9525C177.381 68.6949 177.775 68.6666 178.032 68.8897Z" fill="#5B67EC"/>
<path d="M94.2746 109.616L128.058 139.663C129.531 140.973 132.148 140.23 133.765 138.043C135.199 136.103 135.149 133.69 133.655 132.781L94.6745 109.076C94.4139 108.917 94.0467 109.414 94.2746 109.616Z" fill="#403672"/>
<path d="M142.486 74.2883L125.97 134.461C125.25 137.084 126.897 139.77 129.562 140.317C131.925 140.802 134.207 139.188 134.537 136.798L143.145 74.4236C143.202 74.0067 142.597 73.8824 142.486 74.2883Z" fill="#FF6A51"/>
<path d="M77.8518 94.9018C77.4751 95.5061 125.635 124.356 125.635 124.356L140.169 67.6911C140.169 67.6911 100.109 59.1921 77.8518 94.9018Z" fill="#B1B8FF"/>
</svg>
