<svg width="478" height="721" viewBox="0 0 478 721" fill="none" xmlns="http://www.w3.org/2000/svg">
<g opacity="0.7">
<rect x="-311.953" y="633.061" width="5.88995" height="1225.49" transform="rotate(-120 -311.953 633.061)" fill="#6C757D"/>
<rect x="-211.822" y="806.49" width="5.88995" height="1225.49" transform="rotate(-120 -211.822 806.49)" fill="#6C757D"/>
<rect x="-261.891" y="719.776" width="5.88995" height="1225.49" transform="rotate(-120 -261.891 719.776)" fill="#6C757D"/>
<rect x="-32.8789" y="468.537" width="5.88995" height="203.203" transform="rotate(-30 -32.8789 468.537)" fill="#6C757D"/>
<rect x="23.2344" y="436.142" width="5.88995" height="203.203" transform="rotate(-30 23.2344 436.142)" fill="#6C757D"/>
<rect x="79.3418" y="403.748" width="5.88995" height="203.203" transform="rotate(-30 79.3418 403.748)" fill="#6C757D"/>
<rect x="135.447" y="371.353" width="5.88995" height="203.203" transform="rotate(-30 135.447 371.353)" fill="#6C757D"/>
<rect x="-88.9902" y="500.931" width="5.88995" height="203.203" transform="rotate(-30 -88.9902 500.931)" fill="#6C757D"/>
<rect x="472.104" y="176.984" width="5.88995" height="203.203" transform="rotate(-30 472.104 176.984)" fill="#6C757D"/>
<rect x="415.996" y="209.379" width="5.88995" height="203.203" transform="rotate(-30 415.996 209.379)" fill="#6C757D"/>
<rect x="359.889" y="241.773" width="5.88995" height="203.203" transform="rotate(-30 359.889 241.773)" fill="#6C757D"/>
<rect x="303.779" y="274.169" width="5.88995" height="203.203" transform="rotate(-30 303.779 274.169)" fill="#6C757D"/>
<rect x="247.672" y="306.563" width="5.88995" height="203.203" transform="rotate(-30 247.672 306.563)" fill="#6C757D"/>
<rect x="191.555" y="338.958" width="5.88995" height="203.203" transform="rotate(-30 191.555 338.958)" fill="#6C757D"/>
<g filter="url(#filter0_d_4199_14063)">
<path d="M3.94929 453.597L-1.16057 456.458L-1.60605 456.707C-4.88248 458.765 -7.9857 461.08 -10.8793 463.625C-13.1652 466.224 -12.6309 470.241 -11.7088 473.281C-11.9558 473.913 -12.0621 474.577 -12.0205 475.227C-11.9789 475.877 -11.7903 476.499 -11.4675 477.051L-7.44528 484.33C-6.95407 485.248 -6.13668 485.954 -5.12458 486.335L-4.53661 487.4L-2.74977 490.637L-5.40101 493.733L-4.79312 494.835L-1.70126 492.526L8.98636 511.87C8.77182 512.936 8.93463 514.008 9.44875 514.915L19.2807 532.702C19.821 533.721 20.765 534.473 21.9242 534.809C23.4681 536.766 26.2087 539.53 28.7528 538.404L43.3175 530.231L57.8874 522.055C60.1774 520.482 59.2849 516.666 58.4483 514.317C58.7775 513.147 58.641 511.942 58.0662 510.939L48.2421 493.147C47.7513 492.229 46.9338 491.524 45.9214 491.143L35.165 471.674L38.4311 470.358L37.8232 469.256L34.156 469.853L32.4014 466.678L31.824 465.583C32.0257 464.527 31.859 463.468 31.35 462.571L27.3278 455.291C26.8274 454.37 25.9975 453.665 24.9732 453.292C22.8987 450.806 19.6469 447.915 16.07 448.539C12.3981 449.678 8.81139 451.117 5.35195 452.839L3.96283 453.618L3.94929 453.597Z" fill="#A5A8AC"/>
</g>
<g filter="url(#filter1_d_4199_14063)">
<path d="M3.94929 453.597L-1.16057 456.458L-1.60605 456.707C-4.88248 458.765 -7.9857 461.08 -10.8793 463.625C-13.1652 466.224 -12.6309 470.241 -11.7088 473.281C-11.9558 473.913 -12.0621 474.577 -12.0205 475.227C-11.9789 475.877 -11.7903 476.499 -11.4675 477.051L-7.44528 484.33C-6.95407 485.248 -6.13668 485.954 -5.12458 486.335L-4.53661 487.4L-2.74977 490.637L-5.40101 493.733L-4.79312 494.835L-1.70126 492.526L8.98636 511.87C8.77182 512.936 8.93463 514.008 9.44875 514.915L19.2807 532.702C19.821 533.721 20.765 534.473 21.9242 534.809C23.4681 536.766 26.2087 539.53 28.7528 538.404L43.3175 530.231L57.8874 522.055C60.1774 520.482 59.2849 516.666 58.4483 514.317C58.7775 513.147 58.641 511.942 58.0662 510.939L48.2421 493.147C47.7513 492.229 46.9338 491.524 45.9214 491.143L35.165 471.674L38.4311 470.358L37.8232 469.256L34.156 469.853L32.4014 466.678L31.824 465.583C32.0257 464.527 31.859 463.468 31.35 462.571L27.3278 455.291C26.8274 454.37 25.9975 453.665 24.9732 453.292C22.8987 450.806 19.6469 447.915 16.07 448.539C12.3981 449.678 8.81139 451.117 5.35195 452.839L3.96283 453.618L3.94929 453.597Z" fill="#A5A8AC"/>
</g>
<path d="M32.9687 527.596C30.4106 529.073 28.9628 531.356 29.7349 532.694C30.5069 534.032 33.2066 533.919 35.7646 532.441L49.6602 524.414C52.2182 522.936 53.6661 520.653 52.894 519.315C52.122 517.977 49.4223 518.09 46.8642 519.568L32.9687 527.596Z" fill="#333333"/>
<path d="M27.3934 530.816C25.9124 531.672 25.3377 533.45 26.1098 534.788C26.8819 536.127 28.7084 536.518 30.1894 535.662L35.5525 532.564C37.0335 531.708 37.6082 529.93 36.8361 528.592C36.064 527.254 34.2375 526.863 32.7565 527.718L27.3934 530.816Z" fill="#333333"/>
<path d="M-3.40486 457.599C-4.14533 458.027 -4.43266 458.916 -4.04663 459.585C-3.6606 460.254 -2.74739 460.45 -2.00692 460.022L8.71902 453.826C9.45949 453.398 9.74682 452.509 9.36078 451.84C8.97475 451.171 8.06154 450.975 7.32107 451.403L-3.40486 457.599Z" fill="#333333"/>
<path d="M46.161 519.974C44.68 520.83 44.1053 522.608 44.8774 523.946C45.6495 525.284 47.476 525.675 48.957 524.82L54.3201 521.721C55.8011 520.866 56.3758 519.088 55.6037 517.749C54.8316 516.411 53.0051 516.02 51.5241 516.876L46.161 519.974Z" fill="#333333"/>
<path d="M13.398 473.18L13.4102 473.199C17.1103 470.966 21.1339 469.346 25.2944 468.414C26.2544 468.154 27.2419 468.088 28.1927 468.218C29.1435 468.349 30.0362 468.673 30.8128 469.171L30.8371 469.208C30.9916 469.331 31.1332 469.468 31.2604 469.617C31.5421 469.927 31.7419 470.299 31.845 470.708L33.7402 484.373C31.7107 483.552 23.8385 487.514 20.8894 489.062C18.0956 490.873 10.7593 495.771 10.424 497.971L-0.217176 489.414C-0.512188 489.117 -0.727546 488.753 -0.84745 488.35C-0.910514 488.163 -0.956568 487.969 -0.985127 487.772L-1.00165 487.729C-1.03064 486.795 -0.854615 485.847 -0.484855 484.947C-0.115094 484.046 0.440254 483.212 1.14563 482.498C4.03636 479.322 7.44301 476.611 11.209 474.489L11.1968 474.47C11.5687 474.253 11.9328 474.04 12.2932 473.833C12.6536 473.626 13.0147 473.409 13.3881 473.193L13.398 473.18Z" fill="#333333"/>
<path d="M19.042 514.896L34.0328 506.046L43.0902 500.685L43.6587 500.349C47.9221 500.641 50.9714 505.619 52.6063 509.149L21.9154 527.281C19.7198 524.081 16.9749 518.924 18.8416 515.014L19.042 514.896Z" fill="#333333"/>
<path d="M13.3683 518.91C7.6863 509.814 4.75761 504.566 -0.347891 495.138C-0.347891 495.138 10.9317 502.292 12.5368 505.074C14.142 507.856 14.9804 521.704 13.3683 518.91Z" fill="#333333"/>
<path d="M49.593 497.137C43.9654 487.151 36.5282 472.079 36.2451 474.004C36.2451 474.004 37.944 487.146 39.5491 489.928C41.1542 492.71 51.2051 499.931 49.593 497.137Z" fill="#333333"/>
<g filter="url(#filter2_d_4199_14063)">
<path d="M59.9493 424.597L54.8394 427.458L54.394 427.707C51.1175 429.765 48.0143 432.08 45.1207 434.625C42.8348 437.224 43.3691 441.241 44.2912 444.281C44.0442 444.913 43.9379 445.577 43.9795 446.227C44.0211 446.877 44.2097 447.499 44.5325 448.051L48.5547 455.33C49.0459 456.248 49.8633 456.954 50.8754 457.335L51.4634 458.4L53.2502 461.637L50.599 464.733L51.2069 465.835L54.2987 463.526L64.9864 482.87C64.7718 483.936 64.9346 485.008 65.4488 485.915L75.2807 503.702C75.821 504.721 76.765 505.473 77.9242 505.809C79.4681 507.766 82.2087 510.53 84.7528 509.404L99.3175 501.231L113.887 493.055C116.177 491.482 115.285 487.666 114.448 485.317C114.777 484.147 114.641 482.942 114.066 481.939L104.242 464.147C103.751 463.229 102.934 462.524 101.921 462.143L91.165 442.674L94.4311 441.358L93.8232 440.256L90.156 440.853L88.4014 437.678L87.824 436.583C88.0257 435.527 87.859 434.468 87.35 433.571L83.3278 426.291C82.8274 425.37 81.9975 424.665 80.9732 424.292C78.8987 421.806 75.6469 418.915 72.07 419.539C68.3981 420.678 64.8114 422.117 61.3519 423.839L59.9628 424.618L59.9493 424.597Z" fill="#C2C5CA"/>
</g>
<g filter="url(#filter3_d_4199_14063)">
<path d="M59.9493 424.597L54.8394 427.458L54.394 427.707C51.1175 429.765 48.0143 432.08 45.1207 434.625C42.8348 437.224 43.3691 441.241 44.2912 444.281C44.0442 444.913 43.9379 445.577 43.9795 446.227C44.0211 446.877 44.2097 447.499 44.5325 448.051L48.5547 455.33C49.0459 456.248 49.8633 456.954 50.8754 457.335L51.4634 458.4L53.2502 461.637L50.599 464.733L51.2069 465.835L54.2987 463.526L64.9864 482.87C64.7718 483.936 64.9346 485.008 65.4488 485.915L75.2807 503.702C75.821 504.721 76.765 505.473 77.9242 505.809C79.4681 507.766 82.2087 510.53 84.7528 509.404L99.3175 501.231L113.887 493.055C116.177 491.482 115.285 487.666 114.448 485.317C114.777 484.147 114.641 482.942 114.066 481.939L104.242 464.147C103.751 463.229 102.934 462.524 101.921 462.143L91.165 442.674L94.4311 441.358L93.8232 440.256L90.156 440.853L88.4014 437.678L87.824 436.583C88.0257 435.527 87.859 434.468 87.35 433.571L83.3278 426.291C82.8274 425.37 81.9975 424.665 80.9732 424.292C78.8987 421.806 75.6469 418.915 72.07 419.539C68.3981 420.678 64.8114 422.117 61.3519 423.839L59.9628 424.618L59.9493 424.597Z" fill="#C2C5CA"/>
</g>
<path d="M88.9707 498.595C86.4126 500.073 84.9647 502.356 85.7368 503.694C86.5089 505.032 89.2085 504.919 91.7666 503.441L105.662 495.413C108.22 493.936 109.668 491.653 108.896 490.315C108.124 488.977 105.424 489.09 102.866 490.568L88.9707 498.595Z" fill="#333333"/>
<path d="M83.3934 501.816C81.9124 502.672 81.3377 504.45 82.1098 505.788C82.8819 507.126 84.7084 507.517 86.1894 506.662L91.5525 503.563C93.0335 502.708 93.6082 500.93 92.8361 499.591C92.064 498.253 90.2375 497.862 88.7565 498.718L83.3934 501.816Z" fill="#333333"/>
<path d="M52.5951 428.599C51.8547 429.027 51.5673 429.916 51.9534 430.585C52.3394 431.254 53.2526 431.45 53.9931 431.022L64.719 424.826C65.4595 424.398 65.7468 423.509 65.3608 422.84C64.9747 422.171 64.0615 421.975 63.3211 422.403L52.5951 428.599Z" fill="#333333"/>
<path d="M102.161 490.974C100.68 491.829 100.105 493.607 100.877 494.946C101.649 496.284 103.476 496.675 104.957 495.819L110.32 492.721C111.801 491.865 112.376 490.087 111.604 488.749C110.832 487.411 109.005 487.02 107.524 487.875L102.161 490.974Z" fill="#333333"/>
<path d="M69.398 444.18L69.4102 444.199C73.1103 441.966 77.1339 440.346 81.2944 439.413C82.2544 439.154 83.2419 439.087 84.1927 439.218C85.1435 439.348 86.0362 439.673 86.8128 440.17L86.8371 440.208C86.9916 440.331 87.1332 440.468 87.2604 440.617C87.5421 440.926 87.7419 441.299 87.845 441.708L89.7402 455.373C87.7107 454.552 79.8385 458.513 76.8894 460.061C74.0956 461.872 66.7593 466.77 66.424 468.971L55.7828 460.414C55.4878 460.116 55.2725 459.752 55.1525 459.349C55.0895 459.162 55.0434 458.969 55.0149 458.772L54.9983 458.729C54.9694 457.795 55.1454 456.847 55.5151 455.946C55.8849 455.045 56.4403 454.211 57.1456 453.497C60.0364 450.322 63.443 447.611 67.209 445.489L67.1968 445.47C67.5687 445.252 67.9328 445.04 68.2932 444.833C68.6536 444.626 69.0147 444.408 69.3881 444.193L69.398 444.18Z" fill="#333333"/>
<path d="M75.042 485.895L90.0328 477.045L99.0902 471.685L99.6587 471.349C103.922 471.64 106.971 476.618 108.606 480.149L77.9154 498.281C75.7198 495.081 72.9749 489.923 74.8416 486.013L75.042 485.895Z" fill="#333333"/>
<path d="M69.3683 489.909C63.6863 480.814 60.7576 475.565 55.6521 466.138C55.6521 466.138 66.9317 473.292 68.5368 476.073C70.142 478.855 70.9804 492.703 69.3683 489.909Z" fill="#333333"/>
<path d="M105.595 468.137C99.9674 458.15 92.5302 443.078 92.247 445.004C92.247 445.004 93.9459 458.146 95.551 460.928C97.1562 463.709 107.207 470.931 105.595 468.137Z" fill="#333333"/>
<g filter="url(#filter4_d_4199_14063)">
<path d="M175.949 356.597L170.839 359.458L170.394 359.707C167.118 361.765 164.014 364.08 161.121 366.625C158.835 369.224 159.369 373.241 160.291 376.281C160.044 376.913 159.938 377.577 159.98 378.227C160.021 378.877 160.21 379.499 160.533 380.051L164.555 387.33C165.046 388.248 165.863 388.954 166.875 389.335L167.463 390.4L169.25 393.637L166.599 396.733L167.207 397.835L170.299 395.526L180.986 414.87C180.772 415.936 180.935 417.008 181.449 417.915L191.281 435.702C191.821 436.721 192.765 437.473 193.924 437.809C195.468 439.766 198.209 442.53 200.753 441.404L215.317 433.231L229.887 425.055C232.177 423.482 231.285 419.666 230.448 417.317C230.777 416.147 230.641 414.942 230.066 413.939L220.242 396.147C219.751 395.229 218.934 394.524 217.921 394.143L207.165 374.674L210.431 373.358L209.823 372.256L206.156 372.853L204.401 369.678L203.824 368.583C204.026 367.527 203.859 366.468 203.35 365.571L199.328 358.291C198.827 357.37 197.997 356.665 196.973 356.292C194.899 353.806 191.647 350.915 188.07 351.539C184.398 352.678 180.811 354.117 177.352 355.839L175.963 356.618L175.949 356.597Z" fill="black"/>
</g>
<g filter="url(#filter5_d_4199_14063)">
<path d="M175.949 356.597L170.839 359.458L170.394 359.707C167.118 361.765 164.014 364.08 161.121 366.625C158.835 369.224 159.369 373.241 160.291 376.281C160.044 376.913 159.938 377.577 159.98 378.227C160.021 378.877 160.21 379.499 160.533 380.051L164.555 387.33C165.046 388.248 165.863 388.954 166.875 389.335L167.463 390.4L169.25 393.637L166.599 396.733L167.207 397.835L170.299 395.526L180.986 414.87C180.772 415.936 180.935 417.008 181.449 417.915L191.281 435.702C191.821 436.721 192.765 437.473 193.924 437.809C195.468 439.766 198.209 442.53 200.753 441.404L215.317 433.231L229.887 425.055C232.177 423.482 231.285 419.666 230.448 417.317C230.777 416.147 230.641 414.942 230.066 413.939L220.242 396.147C219.751 395.229 218.934 394.524 217.921 394.143L207.165 374.674L210.431 373.358L209.823 372.256L206.156 372.853L204.401 369.678L203.824 368.583C204.026 367.527 203.859 366.468 203.35 365.571L199.328 358.291C198.827 357.37 197.997 356.665 196.973 356.292C194.899 353.806 191.647 350.915 188.07 351.539C184.398 352.678 180.811 354.117 177.352 355.839L175.963 356.618L175.949 356.597Z" fill="black"/>
</g>
<path d="M204.969 430.596C202.411 432.073 200.963 434.356 201.735 435.694C202.507 437.032 205.207 436.919 207.765 435.441L221.66 427.414C224.218 425.936 225.666 423.653 224.894 422.315C224.122 420.977 221.422 421.09 218.864 422.568L204.969 430.596Z" fill="#333333"/>
<path d="M199.393 433.816C197.912 434.672 197.338 436.45 198.11 437.788C198.882 439.126 200.708 439.517 202.189 438.662L207.553 435.563C209.033 434.708 209.608 432.929 208.836 431.591C208.064 430.253 206.238 429.862 204.757 430.718L199.393 433.816Z" fill="#333333"/>
<path d="M168.595 360.599C167.855 361.027 167.567 361.916 167.953 362.585C168.339 363.254 169.253 363.45 169.993 363.022L180.719 356.826C181.459 356.398 181.747 355.509 181.361 354.84C180.975 354.171 180.062 353.975 179.321 354.403L168.595 360.599Z" fill="#333333"/>
<path d="M218.161 422.974C216.68 423.829 216.105 425.608 216.877 426.946C217.649 428.284 219.476 428.675 220.957 427.82L226.32 424.721C227.801 423.866 228.376 422.087 227.604 420.749C226.832 419.411 225.005 419.02 223.524 419.876L218.161 422.974Z" fill="#333333"/>
<path d="M185.398 376.18L185.41 376.199C189.11 373.966 193.134 372.346 197.294 371.413C198.254 371.154 199.242 371.087 200.193 371.218C201.143 371.348 202.036 371.673 202.813 372.17L202.837 372.208C202.992 372.331 203.133 372.468 203.26 372.617C203.542 372.926 203.742 373.299 203.845 373.708L205.74 387.373C203.711 386.551 195.839 390.513 192.889 392.061C190.096 393.872 182.759 398.77 182.424 400.971L171.783 392.414C171.488 392.116 171.272 391.752 171.153 391.349C171.089 391.162 171.043 390.969 171.015 390.772L170.998 390.729C170.969 389.795 171.145 388.847 171.515 387.946C171.885 387.045 172.44 386.211 173.146 385.497C176.036 382.322 179.443 379.611 183.209 377.489L183.197 377.47C183.569 377.252 183.933 377.04 184.293 376.833C184.654 376.626 185.015 376.408 185.388 376.193L185.398 376.18Z" fill="#333333"/>
<path d="M191.04 417.896L206.031 409.046L215.088 403.685L215.657 403.349C219.92 403.641 222.969 408.619 224.604 412.149L193.913 430.281C191.718 427.081 188.973 421.924 190.84 418.014L191.04 417.896Z" fill="#333333"/>
<path d="M185.368 421.91C179.686 412.814 176.758 407.565 171.652 398.138C171.652 398.138 182.932 405.292 184.537 408.074C186.142 410.856 186.98 424.703 185.368 421.91Z" fill="#333333"/>
<path d="M221.593 400.137C215.965 390.15 208.528 375.078 208.245 377.004C208.245 377.004 209.944 390.146 211.549 392.928C213.154 395.709 223.205 402.931 221.593 400.137Z" fill="#333333"/>
<g filter="url(#filter6_d_4199_14063)">
<path d="M232.949 324.597L227.839 327.458L227.394 327.707C224.118 329.765 221.014 332.08 218.121 334.625C215.835 337.224 216.369 341.241 217.291 344.281C217.044 344.913 216.938 345.577 216.98 346.227C217.021 346.877 217.21 347.499 217.533 348.051L221.555 355.33C222.046 356.248 222.863 356.954 223.875 357.335L224.463 358.4L226.25 361.637L223.599 364.733L224.207 365.835L227.299 363.526L237.986 382.87C237.772 383.936 237.935 385.008 238.449 385.915L248.281 403.702C248.821 404.721 249.765 405.473 250.924 405.809C252.468 407.766 255.209 410.53 257.753 409.404L272.317 401.231L286.887 393.055C289.177 391.482 288.285 387.666 287.448 385.317C287.777 384.147 287.641 382.942 287.066 381.939L277.242 364.147C276.751 363.229 275.934 362.524 274.921 362.143L264.165 342.674L267.431 341.358L266.823 340.256L263.156 340.853L261.401 337.678L260.824 336.583C261.026 335.527 260.859 334.468 260.35 333.571L256.328 326.291C255.827 325.37 254.997 324.665 253.973 324.292C251.899 321.806 248.647 318.915 245.07 319.539C241.398 320.678 237.811 322.117 234.352 323.839L232.963 324.618L232.949 324.597Z" fill="white"/>
</g>
<g filter="url(#filter7_d_4199_14063)">
<path d="M232.949 324.597L227.839 327.458L227.394 327.707C224.118 329.765 221.014 332.08 218.121 334.625C215.835 337.224 216.369 341.241 217.291 344.281C217.044 344.913 216.938 345.577 216.98 346.227C217.021 346.877 217.21 347.499 217.533 348.051L221.555 355.33C222.046 356.248 222.863 356.954 223.875 357.335L224.463 358.4L226.25 361.637L223.599 364.733L224.207 365.835L227.299 363.526L237.986 382.87C237.772 383.936 237.935 385.008 238.449 385.915L248.281 403.702C248.821 404.721 249.765 405.473 250.924 405.809C252.468 407.766 255.209 410.53 257.753 409.404L272.317 401.231L286.887 393.055C289.177 391.482 288.285 387.666 287.448 385.317C287.777 384.147 287.641 382.942 287.066 381.939L277.242 364.147C276.751 363.229 275.934 362.524 274.921 362.143L264.165 342.674L267.431 341.358L266.823 340.256L263.156 340.853L261.401 337.678L260.824 336.583C261.026 335.527 260.859 334.468 260.35 333.571L256.328 326.291C255.827 325.37 254.997 324.665 253.973 324.292C251.899 321.806 248.647 318.915 245.07 319.539C241.398 320.678 237.811 322.117 234.352 323.839L232.963 324.618L232.949 324.597Z" fill="white"/>
</g>
<path d="M261.969 398.595C259.411 400.073 257.963 402.356 258.735 403.694C259.507 405.032 262.207 404.919 264.765 403.441L278.66 395.414C281.218 393.936 282.666 391.653 281.894 390.315C281.122 388.977 278.422 389.09 275.864 390.568L261.969 398.595Z" fill="#333333"/>
<path d="M256.389 401.816C254.909 402.672 254.334 404.45 255.106 405.788C255.878 407.126 257.704 407.517 259.185 406.662L264.549 403.564C266.03 402.708 266.604 400.93 265.832 399.592C265.06 398.253 263.234 397.862 261.753 398.718L256.389 401.816Z" fill="#333333"/>
<path d="M225.595 328.6C224.855 329.027 224.567 329.917 224.953 330.586C225.339 331.255 226.253 331.45 226.993 331.022L237.719 324.826C238.459 324.398 238.747 323.509 238.361 322.84C237.975 322.171 237.062 321.976 236.321 322.403L225.595 328.6Z" fill="#333333"/>
<path d="M275.161 390.974C273.68 391.829 273.105 393.608 273.877 394.946C274.649 396.284 276.476 396.675 277.957 395.819L283.32 392.721C284.801 391.866 285.376 390.087 284.604 388.749C283.832 387.411 282.005 387.02 280.524 387.875L275.161 390.974Z" fill="#333333"/>
<path d="M242.396 344.18L242.408 344.199C246.108 341.966 250.132 340.346 254.292 339.413C255.252 339.154 256.24 339.088 257.191 339.218C258.141 339.348 259.034 339.673 259.811 340.17L259.835 340.208C259.99 340.331 260.131 340.468 260.258 340.617C260.54 340.926 260.74 341.299 260.843 341.708L262.738 355.373C260.709 354.552 252.837 358.514 249.887 360.062C247.094 361.872 239.757 366.77 239.422 368.971L228.781 360.414C228.486 360.116 228.271 359.753 228.151 359.349C228.088 359.162 228.041 358.969 228.013 358.772L227.996 358.729C227.967 357.795 228.143 356.847 228.513 355.946C228.883 355.045 229.438 354.211 230.144 353.498C233.034 350.322 236.441 347.611 240.207 345.489L240.195 345.47C240.567 345.252 240.931 345.04 241.291 344.833C241.652 344.626 242.013 344.409 242.386 344.193L242.396 344.18Z" fill="#333333"/>
<path d="M248.038 385.895L263.029 377.045L272.086 371.685L272.655 371.349C276.918 371.641 279.968 376.618 281.602 380.149L250.912 398.281C248.716 395.081 245.971 389.924 247.838 386.013L248.038 385.895Z" fill="#333333"/>
<path d="M242.366 389.909C236.684 380.814 233.756 375.565 228.65 366.138C228.65 366.138 239.93 373.292 241.535 376.074C243.14 378.855 243.978 392.703 242.366 389.909Z" fill="#333333"/>
<path d="M278.593 368.137C272.965 358.151 265.528 343.078 265.245 345.004C265.245 345.004 266.944 358.146 268.549 360.928C270.154 363.71 280.205 370.931 278.593 368.137Z" fill="#333333"/>
<g filter="url(#filter8_d_4199_14063)">
<path d="M399.949 228.596L394.839 231.458L394.394 231.707C391.118 233.765 388.014 236.08 385.121 238.625C382.835 241.224 383.369 245.241 384.291 248.281C384.044 248.913 383.938 249.576 383.98 250.227C384.021 250.877 384.21 251.498 384.533 252.05L388.555 259.33C389.046 260.248 389.863 260.954 390.875 261.334L391.463 262.4L393.25 265.637L390.599 268.733L391.207 269.835L394.299 267.526L404.986 286.869C404.772 287.936 404.935 289.008 405.449 289.915L415.281 307.702C415.821 308.721 416.765 309.473 417.924 309.809C419.468 311.766 422.209 314.53 424.753 313.404L439.317 305.231L453.887 297.054C456.177 295.482 455.285 291.665 454.448 289.316C454.777 288.147 454.641 286.942 454.066 285.939L444.242 268.147C443.751 267.229 442.934 266.523 441.921 266.143L431.165 246.674L434.431 245.358L433.823 244.256L430.156 244.853L428.401 241.678L427.824 240.583C428.026 239.527 427.859 238.468 427.35 237.571L423.328 230.291C422.827 229.37 421.997 228.665 420.973 228.292C418.899 225.806 415.647 222.915 412.07 223.538C408.398 224.678 404.811 226.117 401.352 227.839L399.963 228.618L399.949 228.596Z" fill="white"/>
</g>
<g filter="url(#filter9_d_4199_14063)">
<path d="M399.949 228.596L394.839 231.458L394.394 231.707C391.118 233.765 388.014 236.08 385.121 238.625C382.835 241.224 383.369 245.241 384.291 248.281C384.044 248.913 383.938 249.576 383.98 250.227C384.021 250.877 384.21 251.498 384.533 252.05L388.555 259.33C389.046 260.248 389.863 260.954 390.875 261.334L391.463 262.4L393.25 265.637L390.599 268.733L391.207 269.835L394.299 267.526L404.986 286.869C404.772 287.936 404.935 289.008 405.449 289.915L415.281 307.702C415.821 308.721 416.765 309.473 417.924 309.809C419.468 311.766 422.209 314.53 424.753 313.404L439.317 305.231L453.887 297.054C456.177 295.482 455.285 291.665 454.448 289.316C454.777 288.147 454.641 286.942 454.066 285.939L444.242 268.147C443.751 267.229 442.934 266.523 441.921 266.143L431.165 246.674L434.431 245.358L433.823 244.256L430.156 244.853L428.401 241.678L427.824 240.583C428.026 239.527 427.859 238.468 427.35 237.571L423.328 230.291C422.827 229.37 421.997 228.665 420.973 228.292C418.899 225.806 415.647 222.915 412.07 223.538C408.398 224.678 404.811 226.117 401.352 227.839L399.963 228.618L399.949 228.596Z" fill="white"/>
</g>
<path d="M428.969 302.595C426.411 304.073 424.963 306.356 425.735 307.694C426.507 309.032 429.207 308.919 431.765 307.441L445.66 299.413C448.218 297.936 449.666 295.653 448.894 294.315C448.122 292.977 445.422 293.09 442.864 294.568L428.969 302.595Z" fill="#333333"/>
<path d="M423.389 305.816C421.909 306.672 421.334 308.45 422.106 309.788C422.878 311.126 424.704 311.517 426.185 310.662L431.549 307.563C433.03 306.708 433.604 304.93 432.832 303.591C432.06 302.253 430.234 301.862 428.753 302.718L423.389 305.816Z" fill="#333333"/>
<path d="M392.595 232.6C391.855 233.027 391.567 233.916 391.953 234.585C392.339 235.254 393.253 235.45 393.993 235.022L404.719 228.826C405.459 228.398 405.747 227.509 405.361 226.84C404.975 226.171 404.062 225.975 403.321 226.403L392.595 232.6Z" fill="#333333"/>
<path d="M442.161 294.974C440.68 295.829 440.105 297.607 440.877 298.946C441.649 300.284 443.476 300.675 444.957 299.819L450.32 296.721C451.801 295.865 452.376 294.087 451.604 292.749C450.832 291.411 449.005 291.02 447.524 291.875L442.161 294.974Z" fill="#333333"/>
<path d="M409.396 248.18L409.408 248.199C413.108 245.966 417.132 244.346 421.292 243.413C422.252 243.154 423.24 243.087 424.191 243.218C425.141 243.348 426.034 243.673 426.811 244.17L426.835 244.208C426.99 244.331 427.131 244.468 427.258 244.617C427.54 244.926 427.74 245.299 427.843 245.708L429.738 259.373C427.709 258.552 419.837 262.513 416.887 264.061C414.094 265.872 406.757 270.77 406.422 272.971L395.781 264.414C395.486 264.116 395.271 263.752 395.151 263.349C395.088 263.162 395.041 262.969 395.013 262.772L394.996 262.729C394.967 261.795 395.143 260.847 395.513 259.946C395.883 259.045 396.438 258.211 397.144 257.497C400.034 254.322 403.441 251.611 407.207 249.489L407.195 249.47C407.567 249.252 407.931 249.04 408.291 248.833C408.652 248.626 409.013 248.408 409.386 248.193L409.396 248.18Z" fill="#333333"/>
<path d="M415.038 289.895L430.029 281.045L439.086 275.685L439.655 275.349C443.918 275.64 446.968 280.618 448.602 284.149L417.912 302.281C415.716 299.081 412.971 293.923 414.838 290.013L415.038 289.895Z" fill="#333333"/>
<path d="M409.366 293.909C403.684 284.814 400.756 279.565 395.65 270.138C395.65 270.138 406.93 277.292 408.535 280.073C410.14 282.855 410.978 296.703 409.366 293.909Z" fill="#333333"/>
<path d="M445.593 272.137C439.965 262.15 432.528 247.078 432.245 249.004C432.245 249.004 433.944 262.146 435.549 264.928C437.154 267.71 447.205 274.931 445.593 272.137Z" fill="#333333"/>
<g filter="url(#filter10_d_4199_14063)">
<path d="M-10.7838 681.588L-15.8154 684.585L-16.2532 684.847C-19.6729 686.657 -23.2282 688.188 -26.8777 689.423C-30.2702 690.104 -33.4795 687.633 -35.6495 685.314C-36.3202 685.212 -36.9475 684.972 -37.4894 684.611C-38.0313 684.25 -38.4752 683.776 -38.7914 683.22L-43.081 676.095C-43.6296 675.21 -43.8318 674.149 -43.6552 673.082L-44.2831 672.04L-46.1917 668.872L-50.1965 669.622L-50.8466 668.544L-47.3024 667.019L-58.7 648.086C-59.7301 647.739 -60.577 647.062 -61.105 646.163L-71.5834 628.749C-72.1947 627.772 -72.3738 626.578 -72.0851 625.405C-73.0067 623.089 -74.0286 619.332 -71.7818 617.69L-57.4258 609.156L-43.0643 600.618C-40.558 599.42 -37.7014 602.102 -36.0867 604.001C-34.9102 604.3 -33.9349 605.021 -33.3547 606.021L-22.8681 623.43C-22.3191 624.314 -22.1168 625.376 -22.2939 626.443L-10.822 645.498L-8.04998 643.326L-7.39984 644.404L-9.75031 647.283L-7.87966 650.391L-7.22072 651.439C-6.20602 651.792 -5.37278 652.466 -4.85072 653.356L-0.561132 660.481C-0.0139638 661.376 0.181041 662.447 -0.00789287 663.521C1.10595 666.562 1.98243 670.825 -0.345672 673.613C-3.1678 676.225 -6.20684 678.614 -9.42707 680.751L-10.7954 681.565L-10.7838 681.588Z" fill="white"/>
</g>
<g filter="url(#filter11_d_4199_14063)">
<path d="M-10.7838 681.588L-15.8154 684.585L-16.2532 684.847C-19.6729 686.657 -23.2282 688.188 -26.8777 689.423C-30.2702 690.104 -33.4795 687.633 -35.6495 685.314C-36.3202 685.212 -36.9475 684.972 -37.4894 684.611C-38.0313 684.25 -38.4752 683.776 -38.7914 683.22L-43.081 676.095C-43.6296 675.21 -43.8318 674.149 -43.6552 673.082L-44.2831 672.04L-46.1917 668.872L-50.1965 669.622L-50.8466 668.544L-47.3024 667.019L-58.7 648.086C-59.7301 647.739 -60.577 647.062 -61.105 646.163L-71.5834 628.749C-72.1947 627.772 -72.3738 626.578 -72.0851 625.405C-73.0067 623.089 -74.0286 619.332 -71.7818 617.69L-57.4258 609.156L-43.0643 600.618C-40.558 599.42 -37.7014 602.102 -36.0867 604.001C-34.9102 604.3 -33.9349 605.021 -33.3547 606.021L-22.8681 623.43C-22.3191 624.314 -22.1168 625.376 -22.2939 626.443L-10.822 645.498L-8.04998 643.326L-7.39984 644.404L-9.75031 647.283L-7.87966 650.391L-7.22072 651.439C-6.20602 651.792 -5.37278 652.466 -4.85072 653.356L-0.561132 660.481C-0.0139638 661.376 0.181041 662.447 -0.00789287 663.521C1.10595 666.562 1.98243 670.825 -0.345672 673.613C-3.1678 676.225 -6.20684 678.614 -9.42707 680.751L-10.7954 681.565L-10.7838 681.588Z" fill="white"/>
</g>
<g filter="url(#filter12_d_4199_14063)">
<path d="M154.216 585.588L149.185 588.585L148.747 588.847C145.327 590.657 141.772 592.188 138.122 593.423C134.73 594.105 131.521 591.633 129.351 589.314C128.68 589.212 128.052 588.973 127.511 588.612C126.969 588.25 126.525 587.776 126.209 587.22L121.919 580.095C121.37 579.211 121.168 578.149 121.345 577.082L120.717 576.04L118.808 572.873L114.804 573.622L114.153 572.544L117.698 571.02L106.3 552.087C105.27 551.739 104.423 551.062 103.895 550.163L93.4166 532.749C92.8053 531.772 92.6262 530.578 92.9149 529.405C91.9933 527.089 90.9714 523.332 93.2182 521.691L107.574 513.156L121.936 504.618C124.442 503.42 127.299 506.102 128.913 508.001C130.09 508.301 131.065 509.022 131.645 510.021L142.132 527.43C142.681 528.314 142.883 529.376 142.706 530.443L154.178 549.499L156.95 547.326L157.6 548.404L155.25 551.284L157.12 554.391L157.779 555.439C158.794 555.792 159.627 556.466 160.149 557.356L164.439 564.482C164.986 565.376 165.181 566.447 164.992 567.522C166.106 570.562 166.982 574.826 164.654 577.613C161.832 580.226 158.793 582.614 155.573 584.751L154.205 585.565L154.216 585.588Z" fill="white"/>
</g>
<g filter="url(#filter13_d_4199_14063)">
<path d="M154.216 585.588L149.185 588.585L148.747 588.847C145.327 590.657 141.772 592.188 138.122 593.423C134.73 594.105 131.521 591.633 129.351 589.314C128.68 589.212 128.052 588.973 127.511 588.612C126.969 588.25 126.525 587.776 126.209 587.22L121.919 580.095C121.37 579.211 121.168 578.149 121.345 577.082L120.717 576.04L118.808 572.873L114.804 573.622L114.153 572.544L117.698 571.02L106.3 552.087C105.27 551.739 104.423 551.062 103.895 550.163L93.4166 532.749C92.8053 531.772 92.6262 530.578 92.9149 529.405C91.9933 527.089 90.9714 523.332 93.2182 521.691L107.574 513.156L121.936 504.618C124.442 503.42 127.299 506.102 128.913 508.001C130.09 508.301 131.065 509.022 131.645 510.021L142.132 527.43C142.681 528.314 142.883 529.376 142.706 530.443L154.178 549.499L156.95 547.326L157.6 548.404L155.25 551.284L157.12 554.391L157.779 555.439C158.794 555.792 159.627 556.466 160.149 557.356L164.439 564.482C164.986 565.376 165.181 566.447 164.992 567.522C166.106 570.562 166.982 574.826 164.654 577.613C161.832 580.226 158.793 582.614 155.573 584.751L154.205 585.565L154.216 585.588Z" fill="white"/>
</g>
<path d="M104.678 523.442C102.12 524.92 99.42 525.033 98.648 523.695C97.8759 522.357 99.3237 520.075 101.882 518.597L115.777 510.57C118.335 509.092 121.035 508.978 121.807 510.317C122.579 511.655 121.131 513.937 118.573 515.415L104.678 523.442Z" fill="#333333"/>
<path d="M99.1045 526.663C97.6235 527.519 95.797 527.128 95.0249 525.79C94.2529 524.452 94.8275 522.673 96.3085 521.818L101.672 518.719C103.153 517.864 104.979 518.255 105.751 519.593C106.523 520.931 105.949 522.71 104.468 523.565L99.1045 526.663Z" fill="#333333"/>
<path d="M147.077 589.957C146.336 590.384 145.423 590.189 145.037 589.52C144.651 588.851 144.938 587.962 145.679 587.534L156.405 581.338C157.145 580.91 158.058 581.106 158.444 581.775C158.83 582.444 158.543 583.333 157.803 583.76L147.077 589.957Z" fill="#333333"/>
<path d="M117.872 515.821C116.391 516.677 114.565 516.285 113.793 514.947C113.02 513.609 113.595 511.831 115.076 510.975L120.439 507.877C121.92 507.021 123.747 507.413 124.519 508.751C125.291 510.089 124.716 511.867 123.235 512.723L117.872 515.821Z" fill="#333333"/>
<path d="M141.991 567.609L141.981 567.589C145.764 565.499 149.178 562.822 152.065 559.683C152.77 558.981 153.321 558.158 153.683 557.269C154.046 556.38 154.212 555.444 154.169 554.522L154.149 554.483C154.12 554.287 154.072 554.096 154.007 553.911C153.88 553.512 153.657 553.153 153.355 552.859L142.475 544.384C142.171 546.554 134.806 551.395 131.992 553.176C129.028 554.692 121.12 558.6 119.048 557.79L121.133 571.29C121.244 571.695 121.451 572.063 121.74 572.369C121.87 572.517 122.014 572.653 122.171 572.777L122.199 572.812C122.993 573.304 123.902 573.626 124.866 573.756C125.831 573.886 126.831 573.822 127.801 573.567C131.995 572.65 136.044 571.053 139.764 568.851L139.774 568.871C140.149 568.658 140.515 568.448 140.874 568.24C141.233 568.031 141.602 567.826 141.975 567.611L141.991 567.609Z" fill="#333333"/>
<path d="M108.71 541.86L123.865 533.295L133.033 528.126L133.608 527.802C135.488 523.962 132.704 518.83 130.466 515.648L99.4273 533.178C101.099 536.68 104.19 541.638 108.508 541.975L108.71 541.86Z" fill="#333333"/>
<path d="M102.4 544.768C107.431 554.239 110.51 559.401 116.117 568.539C116.117 568.539 115.565 555.188 113.96 552.406C112.355 549.624 100.788 541.974 102.4 544.768Z" fill="#333333"/>
<path d="M139.356 524.266C145.186 534.136 154.512 548.117 152.704 547.399C152.704 547.399 142.179 539.356 140.574 536.574C138.969 533.793 137.744 521.472 139.356 524.266Z" fill="#333333"/>
<g filter="url(#filter14_d_4199_14063)">
<path d="M225.155 673.224L219.358 672.407L218.852 672.337C215.054 671.605 211.325 670.571 207.707 669.246C204.637 667.651 203.682 663.713 203.443 660.545C202.984 660.045 202.645 659.465 202.448 658.844C202.252 658.223 202.203 657.575 202.304 656.943L203.421 648.7C203.547 647.667 204.054 646.713 204.859 645.991L205.022 644.785L205.517 641.12L201.927 639.194L202.095 637.947L205.811 638.979L208.779 617.075C208.193 616.159 207.957 615.1 208.108 614.068L210.841 593.925C210.976 592.78 211.584 591.737 212.543 591.004C213.274 588.62 214.829 585.051 217.608 585.179L234.139 587.523L250.676 589.868C253.379 590.505 253.927 594.386 253.997 596.878C254.726 597.849 255.035 599.023 254.862 600.165L252.138 620.31C252.013 621.343 251.506 622.298 250.7 623.019L247.714 645.065L251.234 645.108L251.066 646.356L247.432 647.128L246.945 650.723L246.802 651.953C247.372 652.864 247.6 653.912 247.45 654.933L246.333 663.176C246.2 664.216 245.681 665.174 244.861 665.893C243.827 668.962 241.841 672.835 238.282 673.549C234.447 673.817 230.584 673.774 226.736 673.422L225.16 673.199L225.155 673.224Z" fill="white"/>
</g>
<g filter="url(#filter15_d_4199_14063)">
<path d="M225.155 673.224L219.358 672.407L218.852 672.337C215.054 671.605 211.325 670.571 207.707 669.246C204.637 667.651 203.682 663.713 203.443 660.545C202.984 660.045 202.645 659.465 202.448 658.844C202.252 658.223 202.203 657.575 202.304 656.943L203.421 648.7C203.547 647.667 204.054 646.713 204.859 645.991L205.022 644.785L205.517 641.12L201.927 639.194L202.095 637.947L205.811 638.979L208.779 617.075C208.193 616.159 207.957 615.1 208.108 614.068L210.841 593.925C210.976 592.78 211.584 591.737 212.543 591.004C213.274 588.62 214.829 585.051 217.608 585.179L234.139 587.523L250.676 589.868C253.379 590.505 253.927 594.386 253.997 596.878C254.726 597.849 255.035 599.023 254.862 600.165L252.138 620.31C252.013 621.343 251.506 622.298 250.7 623.019L247.714 645.065L251.234 645.108L251.066 646.356L247.432 647.128L246.945 650.723L246.802 651.953C247.372 652.864 247.6 653.912 247.45 654.933L246.333 663.176C246.2 664.216 245.681 665.174 244.861 665.893C243.827 668.962 241.841 672.835 238.282 673.549C234.447 673.817 230.584 673.774 226.736 673.422L225.16 673.199L225.155 673.224Z" fill="white"/>
</g>
<path d="M225.44 593.729C222.521 593.278 220.345 591.674 220.581 590.147C220.817 588.62 223.374 587.748 226.293 588.2L242.15 590.651C245.069 591.102 247.245 592.706 247.009 594.233C246.774 595.76 244.216 596.632 241.297 596.181L225.44 593.729Z" fill="#333333"/>
<path d="M219.08 592.748C217.39 592.487 216.211 591.037 216.446 589.51C216.682 587.983 218.243 586.957 219.933 587.218L226.053 588.165C227.743 588.426 228.922 589.876 228.687 591.403C228.451 592.93 226.89 593.956 225.2 593.695L219.08 592.748Z" fill="#333333"/>
<path d="M216.855 672.152C216.01 672.021 215.421 671.296 215.539 670.533C215.656 669.77 216.437 669.257 217.282 669.387L229.522 671.279C230.367 671.41 230.956 672.135 230.839 672.898C230.721 673.662 229.94 674.175 229.095 674.044L216.855 672.152Z" fill="#333333"/>
<path d="M240.498 596.058C238.808 595.796 237.629 594.347 237.864 592.82C238.1 591.293 239.661 590.267 241.351 590.528L247.471 591.474C249.161 591.735 250.34 593.185 250.105 594.712C249.869 596.239 248.308 597.265 246.618 597.004L240.498 596.058Z" fill="#333333"/>
<path d="M226.882 651.545L226.887 651.523C231.144 652.265 235.48 652.318 239.696 651.681C240.685 651.575 241.629 651.279 242.468 650.813C243.307 650.347 244.022 649.721 244.566 648.976L244.575 648.933C244.675 648.762 244.757 648.583 244.822 648.398C244.973 648.008 245.024 647.588 244.972 647.169L241.796 633.744C240.201 635.244 231.43 634.402 228.121 634.027C224.861 633.35 216.251 631.441 215.143 629.511L208.318 641.342C208.151 641.726 208.082 642.143 208.116 642.562C208.125 642.76 208.152 642.956 208.197 643.151L208.197 643.196C208.508 644.078 209.015 644.898 209.685 645.604C210.356 646.309 211.175 646.886 212.091 647.296C215.934 649.209 220.09 650.503 224.368 651.118L224.364 651.14C224.789 651.208 225.206 651.274 225.616 651.337C226.027 651.399 226.442 651.471 226.868 651.536L226.882 651.545Z" fill="#333333"/>
<path d="M217.054 610.614L234.229 613.435L244.612 615.153L245.263 615.26C249.132 613.444 250.174 607.699 250.42 603.816L215.253 598.027C214.363 601.805 213.67 607.607 216.825 610.576L217.054 610.614Z" fill="#333333"/>
<path d="M210.314 608.927C208.307 619.463 207.476 625.417 206.127 636.054C206.127 636.054 214.054 625.3 214.544 622.126C215.034 618.951 210.806 605.738 210.314 608.927Z" fill="#333333"/>
<path d="M251.956 616.105C250.323 627.452 248.843 644.196 247.882 642.504C247.882 642.504 244.712 629.637 245.202 626.463C245.691 623.288 252.448 612.916 251.956 616.105Z" fill="#333333"/>
<g filter="url(#filter16_d_4199_14063)">
<path d="M297.333 210.119L302.885 211.981L303.369 212.143C306.971 213.556 310.45 215.255 313.766 217.218C316.494 219.347 316.715 223.393 316.373 226.552C316.734 227.127 316.961 227.759 317.041 228.406C317.121 229.052 317.051 229.698 316.836 230.301L314.236 238.201C313.923 239.194 313.251 240.04 312.328 240.602L311.948 241.758L310.793 245.271L313.973 247.82L313.58 249.016L310.113 247.322L303.203 268.315C303.612 269.323 303.651 270.407 303.314 271.394L296.956 290.698C296.614 291.799 295.826 292.714 294.75 293.26C293.596 295.469 291.416 298.695 288.707 298.061L272.879 292.736L257.044 287.409C254.502 286.289 254.671 282.373 255.056 279.909C254.516 278.822 254.426 277.612 254.805 276.52L261.154 257.212C261.466 256.219 262.139 255.373 263.063 254.811L270.017 233.682L266.564 232.996L266.956 231.8L270.67 231.705L271.805 228.259L272.169 227.076C271.775 226.076 271.742 225.005 272.075 224.028L274.676 216.128C274.997 215.129 275.681 214.283 276.618 213.725C278.195 210.898 280.854 207.452 284.484 207.401C288.304 207.838 292.095 208.586 295.814 209.635L297.324 210.142L297.333 210.119Z" fill="white"/>
</g>
<g filter="url(#filter17_d_4199_14063)">
<path d="M297.333 210.119L302.885 211.981L303.369 212.143C306.971 213.556 310.45 215.255 313.766 217.218C316.494 219.347 316.715 223.393 316.373 226.552C316.734 227.127 316.961 227.759 317.041 228.406C317.121 229.052 317.051 229.698 316.836 230.301L314.236 238.201C313.923 239.194 313.251 240.04 312.328 240.602L311.948 241.758L310.793 245.271L313.973 247.82L313.58 249.016L310.113 247.322L303.203 268.315C303.612 269.323 303.651 270.407 303.314 271.394L296.956 290.698C296.614 291.799 295.826 292.714 294.75 293.26C293.596 295.469 291.416 298.695 288.707 298.061L272.879 292.736L257.044 287.409C254.502 286.289 254.671 282.373 255.056 279.909C254.516 278.822 254.426 277.612 254.805 276.52L261.154 257.212C261.466 256.219 262.139 255.373 263.063 254.811L270.017 233.682L266.564 232.996L266.956 231.8L270.67 231.705L271.805 228.259L272.169 227.076C271.775 226.076 271.742 225.005 272.075 224.028L274.676 216.128C274.997 215.129 275.681 214.283 276.618 213.725C278.195 210.898 280.854 207.452 284.484 207.401C288.304 207.838 292.095 208.586 295.814 209.635L297.324 210.142L297.333 210.119Z" fill="white"/>
</g>
<path d="M282.559 288.224C285.347 289.201 287.194 291.175 286.684 292.633C286.173 294.091 283.5 294.482 280.712 293.505L265.568 288.199C262.78 287.223 260.934 285.249 261.444 283.79C261.954 282.332 264.628 281.942 267.416 282.919L282.559 288.224Z" fill="#333333"/>
<path d="M288.634 290.35C290.248 290.916 291.143 292.556 290.633 294.015C290.123 295.473 288.401 296.197 286.787 295.631L280.942 293.583C279.328 293.018 278.433 291.377 278.943 289.919C279.453 288.461 281.175 287.737 282.789 288.302L288.634 290.35Z" fill="#333333"/>
<path d="M305.304 212.686C306.111 212.969 306.559 213.789 306.304 214.518C306.049 215.247 305.188 215.609 304.381 215.327L292.691 211.231C291.884 210.948 291.437 210.128 291.692 209.399C291.947 208.67 292.808 208.308 293.615 208.591L305.304 212.686Z" fill="#333333"/>
<path d="M268.179 283.186C269.793 283.751 270.688 285.392 270.178 286.85C269.667 288.308 267.945 289.032 266.331 288.467L260.486 286.419C258.872 285.853 257.978 284.213 258.488 282.754C258.998 281.296 260.72 280.572 262.334 281.138L268.179 283.186Z" fill="#333333"/>
<path d="M291.687 231.117L291.679 231.138C287.629 229.631 283.374 228.787 279.113 228.643C278.122 228.567 277.139 228.685 276.229 228.99C275.319 229.295 274.502 229.779 273.831 230.413L273.815 230.454C273.686 230.604 273.572 230.764 273.474 230.934C273.255 231.291 273.128 231.694 273.103 232.115L273.778 245.895C275.619 244.711 284.09 247.141 287.275 248.114C290.356 249.374 298.474 252.824 299.212 254.924L308.079 244.539C308.314 244.191 308.458 243.794 308.501 243.375C308.528 243.18 308.538 242.981 308.529 242.782L308.537 242.737C308.392 241.814 308.043 240.915 307.513 240.099C306.982 239.282 306.282 238.566 305.456 237.996C302.026 235.413 298.176 233.382 294.081 231.996L294.09 231.975C293.684 231.831 293.287 231.689 292.894 231.553C292.501 231.417 292.106 231.27 291.699 231.128L291.687 231.117Z" fill="#333333"/>
<path d="M293.884 273.155L277.511 267.245L267.616 263.66L266.995 263.436C262.86 264.514 260.788 269.972 259.837 273.745L293.36 285.859C294.923 282.307 296.663 276.729 294.102 273.234L293.884 273.155Z" fill="#333333"/>
<path d="M300.202 276.044C304.096 266.051 306 260.349 309.266 250.137C309.266 250.137 299.511 259.262 298.45 262.294C297.389 265.326 299.137 279.089 300.202 276.044Z" fill="#333333"/>
<path d="M260.567 261.382C264.243 250.524 268.752 234.331 269.388 236.171C269.388 236.171 270.159 249.4 269.098 252.432C268.037 255.464 259.502 264.427 260.567 261.382Z" fill="#333333"/>
<g filter="url(#filter18_d_4199_14063)">
<path d="M101.216 618.588L96.1846 621.585L95.7468 621.847C92.3271 623.657 88.7718 625.188 85.1223 626.423C81.7298 627.105 78.5205 624.633 76.3505 622.314C75.6798 622.212 75.0525 621.973 74.5106 621.612C73.9687 621.25 73.5248 620.776 73.2086 620.22L68.919 613.095C68.3704 612.211 68.1682 611.149 68.3448 610.082L67.7169 609.04L65.8083 605.873L61.8035 606.622L61.1534 605.544L64.6976 604.02L53.3 585.087C52.2699 584.739 51.423 584.062 50.895 583.163L40.4166 565.749C39.8053 564.772 39.6262 563.578 39.9149 562.405C38.9933 560.089 37.9714 556.332 40.2182 554.691L54.5742 546.156L68.9357 537.618C71.442 536.42 74.2986 539.102 75.9133 541.001C77.0898 541.301 78.0651 542.022 78.6453 543.021L89.1319 560.43C89.6809 561.314 89.8832 562.376 89.7061 563.443L101.178 582.499L103.95 580.326L104.6 581.404L102.25 584.284L104.12 587.391L104.779 588.439C105.794 588.792 106.627 589.466 107.149 590.356L111.439 597.482C111.986 598.376 112.181 599.447 111.992 600.522C113.106 603.562 113.982 607.826 111.654 610.613C108.832 613.226 105.793 615.614 102.573 617.751L101.205 618.565L101.216 618.588Z" fill="white"/>
</g>
<g filter="url(#filter19_d_4199_14063)">
<path d="M101.216 618.588L96.1846 621.585L95.7468 621.847C92.3271 623.657 88.7718 625.188 85.1223 626.423C81.7298 627.105 78.5205 624.633 76.3505 622.314C75.6798 622.212 75.0525 621.973 74.5106 621.612C73.9687 621.25 73.5248 620.776 73.2086 620.22L68.919 613.095C68.3704 612.211 68.1682 611.149 68.3448 610.082L67.7169 609.04L65.8083 605.873L61.8035 606.622L61.1534 605.544L64.6976 604.02L53.3 585.087C52.2699 584.739 51.423 584.062 50.895 583.163L40.4166 565.749C39.8053 564.772 39.6262 563.578 39.9149 562.405C38.9933 560.089 37.9714 556.332 40.2182 554.691L54.5742 546.156L68.9357 537.618C71.442 536.42 74.2986 539.102 75.9133 541.001C77.0898 541.301 78.0651 542.022 78.6453 543.021L89.1319 560.43C89.6809 561.314 89.8832 562.376 89.7061 563.443L101.178 582.499L103.95 580.326L104.6 581.404L102.25 584.284L104.12 587.391L104.779 588.439C105.794 588.792 106.627 589.466 107.149 590.356L111.439 597.482C111.986 598.376 112.181 599.447 111.992 600.522C113.106 603.562 113.982 607.826 111.654 610.613C108.832 613.226 105.793 615.614 102.573 617.751L101.205 618.565L101.216 618.588Z" fill="white"/>
</g>
<path d="M51.6777 556.442C49.1197 557.92 46.42 558.034 45.648 556.695C44.8759 555.357 46.3237 553.075 48.8818 551.597L62.7773 543.57C65.3354 542.092 68.0351 541.979 68.8071 543.317C69.5792 544.655 68.1313 546.937 65.5732 548.415L51.6777 556.442Z" fill="#333333"/>
<path d="M46.1045 559.663C44.6235 560.519 42.797 560.128 42.0249 558.79C41.2529 557.452 41.8275 555.673 43.3085 554.818L48.6717 551.719C50.1526 550.864 51.9791 551.255 52.7512 552.593C53.5233 553.931 52.9486 555.71 51.4676 556.565L46.1045 559.663Z" fill="#333333"/>
<path d="M94.0766 622.957C93.3361 623.385 92.4229 623.189 92.0369 622.52C91.6508 621.851 91.9382 620.962 92.6786 620.534L103.405 614.338C104.145 613.91 105.058 614.106 105.444 614.775C105.83 615.444 105.543 616.333 104.803 616.76L94.0766 622.957Z" fill="#333333"/>
<path d="M64.8721 548.821C63.3911 549.677 61.5646 549.285 60.7925 547.947C60.0204 546.609 60.5951 544.831 62.0761 543.975L67.4392 540.877C68.9202 540.021 70.7467 540.413 71.5188 541.751C72.2909 543.089 71.7162 544.867 70.2352 545.723L64.8721 548.821Z" fill="#333333"/>
<path d="M88.9915 600.609L88.9813 600.589C92.7637 598.499 96.1778 595.822 99.0652 592.683C99.7696 591.981 100.321 591.158 100.683 590.269C101.046 589.38 101.212 588.444 101.169 587.523L101.149 587.483C101.12 587.287 101.072 587.096 101.007 586.911C100.88 586.512 100.657 586.153 100.355 585.859L89.4753 577.384C89.1714 579.554 81.8063 584.395 78.9919 586.176C76.0279 587.692 68.1205 591.6 66.0483 590.79L68.1334 604.29C68.2436 604.695 68.4508 605.063 68.7399 605.369C68.8701 605.517 69.0143 605.653 69.1708 605.777L69.1994 605.812C69.9934 606.304 70.9018 606.626 71.8664 606.756C72.831 606.886 73.8305 606.822 74.801 606.567C78.9947 605.65 83.0444 604.053 86.7642 601.851L86.7744 601.871C87.1488 601.658 87.5148 601.448 87.8741 601.24C88.2334 601.031 88.6021 600.827 88.9751 600.611L88.9915 600.609Z" fill="#333333"/>
<path d="M55.7099 574.86L70.865 566.295L80.0334 561.126L80.6085 560.802C82.4877 556.962 79.704 551.83 77.4658 548.648L46.4273 566.178C48.0987 569.68 51.19 574.638 55.5076 574.975L55.7099 574.86Z" fill="#333333"/>
<path d="M49.4004 577.768C54.4313 587.239 57.51 592.401 63.1166 601.539C63.1166 601.539 62.5648 588.188 60.9597 585.406C59.3546 582.624 47.7883 574.974 49.4004 577.768Z" fill="#333333"/>
<path d="M86.3561 557.266C92.1859 567.136 101.512 581.117 99.7041 580.399C99.7041 580.399 89.1791 572.356 87.574 569.574C85.9688 566.793 84.744 554.472 86.3561 557.266Z" fill="#333333"/>
<g filter="url(#filter20_d_4199_14063)">
<path d="M322.216 492.588L317.185 495.585L316.747 495.847C313.327 497.657 309.772 499.188 306.122 500.423C302.73 501.105 299.521 498.633 297.351 496.314C296.68 496.212 296.052 495.973 295.511 495.612C294.969 495.25 294.525 494.776 294.209 494.22L289.919 487.095C289.37 486.211 289.168 485.149 289.345 484.082L288.717 483.04L286.808 479.873L282.804 480.622L282.153 479.544L285.698 478.02L274.3 459.087C273.27 458.739 272.423 458.062 271.895 457.163L261.417 439.749C260.805 438.772 260.626 437.578 260.915 436.405C259.993 434.089 258.971 430.332 261.218 428.691L275.574 420.156L289.936 411.618C292.442 410.42 295.299 413.102 296.913 415.001C298.09 415.301 299.065 416.022 299.645 417.021L310.132 434.43C310.681 435.314 310.883 436.376 310.706 437.443L322.178 456.499L324.95 454.326L325.6 455.404L323.25 458.284L325.12 461.391L325.779 462.439C326.794 462.792 327.627 463.466 328.149 464.356L332.439 471.482C332.986 472.376 333.181 473.447 332.992 474.522C334.106 477.562 334.982 481.826 332.654 484.613C329.832 487.226 326.793 489.614 323.573 491.751L322.205 492.565L322.216 492.588Z" fill="black"/>
</g>
<g filter="url(#filter21_d_4199_14063)">
<path d="M322.216 492.588L317.185 495.585L316.747 495.847C313.327 497.657 309.772 499.188 306.122 500.423C302.73 501.105 299.521 498.633 297.351 496.314C296.68 496.212 296.052 495.973 295.511 495.612C294.969 495.25 294.525 494.776 294.209 494.22L289.919 487.095C289.37 486.211 289.168 485.149 289.345 484.082L288.717 483.04L286.808 479.873L282.804 480.622L282.153 479.544L285.698 478.02L274.3 459.087C273.27 458.739 272.423 458.062 271.895 457.163L261.417 439.749C260.805 438.772 260.626 437.578 260.915 436.405C259.993 434.089 258.971 430.332 261.218 428.691L275.574 420.156L289.936 411.618C292.442 410.42 295.299 413.102 296.913 415.001C298.09 415.301 299.065 416.022 299.645 417.021L310.132 434.43C310.681 435.314 310.883 436.376 310.706 437.443L322.178 456.499L324.95 454.326L325.6 455.404L323.25 458.284L325.12 461.391L325.779 462.439C326.794 462.792 327.627 463.466 328.149 464.356L332.439 471.482C332.986 472.376 333.181 473.447 332.992 474.522C334.106 477.562 334.982 481.826 332.654 484.613C329.832 487.226 326.793 489.614 323.573 491.751L322.205 492.565L322.216 492.588Z" fill="black"/>
</g>
<path d="M272.678 430.442C270.12 431.92 267.42 432.033 266.648 430.695C265.876 429.357 267.324 427.075 269.882 425.597L283.777 417.57C286.335 416.092 289.035 415.978 289.807 417.317C290.579 418.655 289.131 420.937 286.573 422.415L272.678 430.442Z" fill="#333333"/>
<path d="M267.105 433.663C265.624 434.519 263.797 434.128 263.025 432.79C262.253 431.452 262.828 429.673 264.309 428.818L269.672 425.719C271.153 424.864 272.979 425.255 273.751 426.593C274.523 427.931 273.949 429.71 272.468 430.565L267.105 433.663Z" fill="#333333"/>
<path d="M315.077 496.957C314.336 497.384 313.423 497.189 313.037 496.52C312.651 495.851 312.938 494.962 313.679 494.534L324.405 488.338C325.145 487.91 326.058 488.106 326.444 488.775C326.83 489.444 326.543 490.333 325.803 490.76L315.077 496.957Z" fill="#333333"/>
<path d="M285.872 422.821C284.391 423.677 282.565 423.285 281.793 421.947C281.02 420.609 281.595 418.831 283.076 417.975L288.439 414.877C289.92 414.021 291.747 414.413 292.519 415.751C293.291 417.089 292.716 418.867 291.235 419.723L285.872 422.821Z" fill="#333333"/>
<path d="M309.993 474.609L309.983 474.589C313.766 472.498 317.18 469.822 320.067 466.683C320.772 465.981 321.323 465.158 321.685 464.269C322.048 463.38 322.214 462.444 322.171 461.522L322.151 461.483C322.122 461.287 322.074 461.096 322.009 460.911C321.882 460.512 321.659 460.153 321.357 459.859L310.477 451.384C310.173 453.554 302.808 458.395 299.994 460.176C297.03 461.692 289.122 465.6 287.05 464.79L289.135 478.29C289.246 478.695 289.453 479.063 289.742 479.369C289.872 479.517 290.016 479.653 290.173 479.777L290.201 479.812C290.995 480.304 291.904 480.626 292.868 480.756C293.833 480.886 294.832 480.822 295.803 480.567C299.997 479.65 304.046 478.053 307.766 475.851L307.776 475.871C308.151 475.658 308.517 475.448 308.876 475.24C309.235 475.031 309.604 474.826 309.977 474.611L309.993 474.609Z" fill="#333333"/>
<path d="M276.71 448.86L291.865 440.295L301.033 435.126L301.608 434.802C303.488 430.962 300.704 425.83 298.466 422.648L267.427 440.178C269.099 443.68 272.19 448.638 276.508 448.975L276.71 448.86Z" fill="#333333"/>
<path d="M270.4 451.768C275.431 461.239 278.51 466.401 284.117 475.539C284.117 475.539 283.565 462.188 281.96 459.406C280.355 456.624 268.788 448.974 270.4 451.768Z" fill="#333333"/>
<path d="M307.356 431.266C313.186 441.136 322.512 455.117 320.704 454.399C320.704 454.399 310.179 446.356 308.574 443.574C306.969 440.793 305.744 428.472 307.356 431.266Z" fill="#333333"/>
<g filter="url(#filter22_d_4199_14063)">
<path d="M380.216 452.588L375.185 455.585L374.747 455.847C371.327 457.657 367.772 459.188 364.122 460.423C360.73 461.105 357.521 458.633 355.351 456.314C354.68 456.212 354.052 455.973 353.511 455.612C352.969 455.25 352.525 454.776 352.209 454.22L347.919 447.095C347.37 446.211 347.168 445.149 347.345 444.082L346.717 443.04L344.808 439.873L340.804 440.622L340.153 439.544L343.698 438.02L332.3 419.086C331.27 418.739 330.423 418.062 329.895 417.163L319.417 399.749C318.805 398.772 318.626 397.578 318.915 396.405C317.993 394.089 316.971 390.332 319.218 388.691L333.574 380.156L347.936 371.618C350.442 370.42 353.299 373.102 354.913 375.001C356.09 375.301 357.065 376.022 357.645 377.021L368.132 394.43C368.681 395.314 368.883 396.376 368.706 397.443L380.178 416.499L382.95 414.326L383.6 415.404L381.25 418.284L383.12 421.391L383.779 422.439C384.794 422.792 385.627 423.466 386.149 424.356L390.439 431.482C390.986 432.376 391.181 433.447 390.992 434.522C392.106 437.562 392.982 441.826 390.654 444.613C387.832 447.226 384.793 449.614 381.573 451.751L380.205 452.565L380.216 452.588Z" fill="#C2C5CA"/>
</g>
<g filter="url(#filter23_d_4199_14063)">
<path d="M380.216 452.588L375.185 455.585L374.747 455.847C371.327 457.657 367.772 459.188 364.122 460.423C360.73 461.105 357.521 458.633 355.351 456.314C354.68 456.212 354.052 455.973 353.511 455.612C352.969 455.25 352.525 454.776 352.209 454.22L347.919 447.095C347.37 446.211 347.168 445.149 347.345 444.082L346.717 443.04L344.808 439.873L340.804 440.622L340.153 439.544L343.698 438.02L332.3 419.086C331.27 418.739 330.423 418.062 329.895 417.163L319.417 399.749C318.805 398.772 318.626 397.578 318.915 396.405C317.993 394.089 316.971 390.332 319.218 388.691L333.574 380.156L347.936 371.618C350.442 370.42 353.299 373.102 354.913 375.001C356.09 375.301 357.065 376.022 357.645 377.021L368.132 394.43C368.681 395.314 368.883 396.376 368.706 397.443L380.178 416.499L382.95 414.326L383.6 415.404L381.25 418.284L383.12 421.391L383.779 422.439C384.794 422.792 385.627 423.466 386.149 424.356L390.439 431.482C390.986 432.376 391.181 433.447 390.992 434.522C392.106 437.562 392.982 441.826 390.654 444.613C387.832 447.226 384.793 449.614 381.573 451.751L380.205 452.565L380.216 452.588Z" fill="#C2C5CA"/>
</g>
<path d="M330.682 390.443C328.124 391.921 325.424 392.034 324.652 390.696C323.88 389.358 325.328 387.075 327.886 385.597L341.781 377.57C344.339 376.092 347.039 375.979 347.811 377.317C348.583 378.655 347.135 380.938 344.577 382.416L330.682 390.443Z" fill="#333333"/>
<path d="M325.106 393.664C323.625 394.519 321.799 394.128 321.027 392.79C320.255 391.452 320.829 389.673 322.31 388.818L327.674 385.719C329.155 384.864 330.981 385.255 331.753 386.593C332.525 387.931 331.951 389.71 330.47 390.565L325.106 393.664Z" fill="#333333"/>
<path d="M373.08 456.957C372.34 457.385 371.427 457.189 371.041 456.52C370.655 455.851 370.942 454.962 371.683 454.534L382.408 448.338C383.149 447.91 384.062 448.106 384.448 448.775C384.834 449.444 384.547 450.333 383.806 450.761L373.08 456.957Z" fill="#333333"/>
<path d="M343.878 382.821C342.397 383.677 340.57 383.286 339.798 381.948C339.026 380.61 339.601 378.831 341.082 377.976L346.445 374.877C347.926 374.022 349.753 374.413 350.525 375.751C351.297 377.089 350.722 378.868 349.241 379.723L343.878 382.821Z" fill="#333333"/>
<path d="M367.993 434.609L367.983 434.589C371.766 432.499 375.18 429.822 378.067 426.683C378.772 425.981 379.323 425.158 379.685 424.269C380.048 423.38 380.214 422.444 380.171 421.523L380.151 421.483C380.122 421.287 380.074 421.096 380.009 420.911C379.882 420.512 379.659 420.153 379.357 419.859L368.477 411.384C368.173 413.554 360.808 418.395 357.994 420.176C355.03 421.692 347.122 425.6 345.05 424.791L347.135 438.29C347.246 438.695 347.453 439.063 347.742 439.369C347.872 439.517 348.016 439.653 348.173 439.777L348.201 439.812C348.995 440.304 349.904 440.626 350.868 440.756C351.833 440.886 352.832 440.822 353.803 440.567C357.997 439.65 362.046 438.053 365.766 435.851L365.776 435.871C366.151 435.658 366.517 435.448 366.876 435.24C367.235 435.031 367.604 434.827 367.977 434.611L367.993 434.609Z" fill="#333333"/>
<path d="M334.71 408.861L349.865 400.295L359.033 395.127L359.608 394.802C361.488 390.962 358.704 385.831 356.466 382.649L325.427 400.178C327.099 403.681 330.19 408.638 334.508 408.975L334.71 408.861Z" fill="#333333"/>
<path d="M328.402 411.768C333.433 421.24 336.512 426.402 342.119 435.54C342.119 435.54 341.567 422.189 339.962 419.407C338.357 416.625 326.79 408.974 328.402 411.768Z" fill="#333333"/>
<path d="M365.358 391.266C371.188 401.136 380.514 415.117 378.706 414.399C378.706 414.399 368.181 406.356 366.576 403.574C364.971 400.793 363.746 388.472 365.358 391.266Z" fill="#333333"/>
<g filter="url(#filter24_d_4199_14063)">
<path d="M436.216 420.588L431.185 423.585L430.747 423.847C427.327 425.657 423.772 427.188 420.122 428.423C416.73 429.105 413.521 426.633 411.351 424.314C410.68 424.212 410.052 423.972 409.511 423.611C408.969 423.25 408.525 422.776 408.209 422.22L403.919 415.095C403.37 414.21 403.168 413.149 403.345 412.082L402.717 411.04L400.808 407.873L396.804 408.622L396.153 407.544L399.698 406.019L388.3 387.086C387.27 386.739 386.423 386.062 385.895 385.163L375.417 367.749C374.805 366.772 374.626 365.578 374.915 364.405C373.993 362.089 372.971 358.332 375.218 356.691L389.574 348.156L403.936 339.618C406.442 338.42 409.299 341.102 410.913 343.001C412.09 343.3 413.065 344.021 413.645 345.021L424.132 362.43C424.681 363.314 424.883 364.376 424.706 365.443L436.178 384.498L438.95 382.326L439.6 383.404L437.25 386.283L439.12 389.391L439.779 390.439C440.794 390.792 441.627 391.466 442.149 392.356L446.439 399.481C446.986 400.376 447.181 401.447 446.992 402.521C448.106 405.562 448.982 409.825 446.654 412.613C443.832 415.225 440.793 417.614 437.573 419.751L436.205 420.565L436.216 420.588Z" fill="#C2C5CA"/>
</g>
<g filter="url(#filter25_d_4199_14063)">
<path d="M436.216 420.588L431.185 423.585L430.747 423.847C427.327 425.657 423.772 427.188 420.122 428.423C416.73 429.105 413.521 426.633 411.351 424.314C410.68 424.212 410.052 423.972 409.511 423.611C408.969 423.25 408.525 422.776 408.209 422.22L403.919 415.095C403.37 414.21 403.168 413.149 403.345 412.082L402.717 411.04L400.808 407.873L396.804 408.622L396.153 407.544L399.698 406.019L388.3 387.086C387.27 386.739 386.423 386.062 385.895 385.163L375.417 367.749C374.805 366.772 374.626 365.578 374.915 364.405C373.993 362.089 372.971 358.332 375.218 356.691L389.574 348.156L403.936 339.618C406.442 338.42 409.299 341.102 410.913 343.001C412.09 343.3 413.065 344.021 413.645 345.021L424.132 362.43C424.681 363.314 424.883 364.376 424.706 365.443L436.178 384.498L438.95 382.326L439.6 383.404L437.25 386.283L439.12 389.391L439.779 390.439C440.794 390.792 441.627 391.466 442.149 392.356L446.439 399.481C446.986 400.376 447.181 401.447 446.992 402.521C448.106 405.562 448.982 409.825 446.654 412.613C443.832 415.225 440.793 417.614 437.573 419.751L436.205 420.565L436.216 420.588Z" fill="#C2C5CA"/>
</g>
<path d="M386.682 358.443C384.124 359.921 381.424 360.034 380.652 358.696C379.88 357.358 381.328 355.075 383.886 353.597L397.781 345.57C400.339 344.092 403.039 343.979 403.811 345.317C404.583 346.655 403.135 348.938 400.577 350.415L386.682 358.443Z" fill="#333333"/>
<path d="M381.106 361.663C379.625 362.519 377.799 362.128 377.027 360.79C376.255 359.451 376.829 357.673 378.31 356.818L383.674 353.719C385.155 352.864 386.981 353.255 387.753 354.593C388.525 355.931 387.951 357.709 386.47 358.565L381.106 361.663Z" fill="#333333"/>
<path d="M429.08 424.957C428.34 425.385 427.427 425.189 427.041 424.52C426.655 423.851 426.942 422.962 427.683 422.534L438.408 416.338C439.149 415.91 440.062 416.106 440.448 416.775C440.834 417.444 440.547 418.333 439.806 418.761L429.08 424.957Z" fill="#333333"/>
<path d="M399.878 350.821C398.397 351.677 396.57 351.286 395.798 349.948C395.026 348.609 395.601 346.831 397.082 345.976L402.445 342.877C403.926 342.022 405.753 342.413 406.525 343.751C407.297 345.089 406.722 346.867 405.241 347.723L399.878 350.821Z" fill="#333333"/>
<path d="M423.993 402.608L423.983 402.588C427.766 400.498 431.18 397.822 434.067 394.683C434.772 393.981 435.323 393.158 435.685 392.269C436.048 391.38 436.214 390.444 436.171 389.522L436.151 389.483C436.122 389.287 436.074 389.096 436.009 388.911C435.882 388.512 435.659 388.153 435.357 387.859L424.477 379.384C424.173 381.554 416.808 386.394 413.994 388.176C411.03 389.692 403.122 393.6 401.05 392.79L403.135 406.29C403.246 406.694 403.453 407.063 403.742 407.369C403.872 407.517 404.016 407.653 404.173 407.777L404.201 407.812C404.995 408.304 405.904 408.626 406.868 408.756C407.833 408.886 408.832 408.822 409.803 408.567C413.997 407.65 418.046 406.053 421.766 403.851L421.776 403.871C422.151 403.658 422.517 403.448 422.876 403.239C423.235 403.031 423.604 402.826 423.977 402.61L423.993 402.608Z" fill="#333333"/>
<path d="M390.71 376.861L405.865 368.295L415.033 363.127L415.608 362.802C417.488 358.962 414.704 353.831 412.466 350.649L381.427 368.178C383.099 371.681 386.19 376.638 390.508 376.975L390.71 376.861Z" fill="#333333"/>
<path d="M384.402 379.768C389.433 389.239 392.512 394.402 398.119 403.54C398.119 403.54 397.567 390.188 395.962 387.407C394.357 384.625 382.79 376.974 384.402 379.768Z" fill="#333333"/>
<path d="M421.358 359.266C427.188 369.136 436.514 383.117 434.706 382.399C434.706 382.399 424.181 374.356 422.576 371.574C420.971 368.792 419.746 356.472 421.358 359.266Z" fill="#333333"/>
</g>
<defs>
<filter id="filter0_d_4199_14063" x="-16.5114" y="446.447" width="79.8665" height="98.2349" filterUnits="userSpaceOnUse" color-interpolation-filters="sRGB">
<feFlood flood-opacity="0" result="BackgroundImageFix"/>
<feColorMatrix in="SourceAlpha" type="matrix" values="0 0 0 0 0 0 0 0 0 0 0 0 0 0 0 0 0 0 127 0" result="hardAlpha"/>
<feOffset dy="2.00569"/>
<feGaussianBlur stdDeviation="2.00569"/>
<feColorMatrix type="matrix" values="0 0 0 0 0 0 0 0 0 0 0 0 0 0 0 0 0 0 0.2 0"/>
<feBlend mode="normal" in2="BackgroundImageFix" result="effect1_dropShadow_4199_14063"/>
<feBlend mode="normal" in="SourceGraphic" in2="effect1_dropShadow_4199_14063" result="shape"/>
</filter>
<filter id="filter1_d_4199_14063" x="-16.5114" y="446.447" width="79.8665" height="98.2349" filterUnits="userSpaceOnUse" color-interpolation-filters="sRGB">
<feFlood flood-opacity="0" result="BackgroundImageFix"/>
<feColorMatrix in="SourceAlpha" type="matrix" values="0 0 0 0 0 0 0 0 0 0 0 0 0 0 0 0 0 0 127 0" result="hardAlpha"/>
<feOffset dy="2.00569"/>
<feGaussianBlur stdDeviation="2.00569"/>
<feColorMatrix type="matrix" values="0 0 0 0 0 0 0 0 0 0 0 0 0 0 0 0 0 0 0.2 0"/>
<feBlend mode="normal" in2="BackgroundImageFix" result="effect1_dropShadow_4199_14063"/>
<feBlend mode="normal" in="SourceGraphic" in2="effect1_dropShadow_4199_14063" result="shape"/>
</filter>
<filter id="filter2_d_4199_14063" x="39.4886" y="417.447" width="79.8665" height="98.2349" filterUnits="userSpaceOnUse" color-interpolation-filters="sRGB">
<feFlood flood-opacity="0" result="BackgroundImageFix"/>
<feColorMatrix in="SourceAlpha" type="matrix" values="0 0 0 0 0 0 0 0 0 0 0 0 0 0 0 0 0 0 127 0" result="hardAlpha"/>
<feOffset dy="2.00569"/>
<feGaussianBlur stdDeviation="2.00569"/>
<feColorMatrix type="matrix" values="0 0 0 0 0 0 0 0 0 0 0 0 0 0 0 0 0 0 0.2 0"/>
<feBlend mode="normal" in2="BackgroundImageFix" result="effect1_dropShadow_4199_14063"/>
<feBlend mode="normal" in="SourceGraphic" in2="effect1_dropShadow_4199_14063" result="shape"/>
</filter>
<filter id="filter3_d_4199_14063" x="39.4886" y="417.447" width="79.8665" height="98.2349" filterUnits="userSpaceOnUse" color-interpolation-filters="sRGB">
<feFlood flood-opacity="0" result="BackgroundImageFix"/>
<feColorMatrix in="SourceAlpha" type="matrix" values="0 0 0 0 0 0 0 0 0 0 0 0 0 0 0 0 0 0 127 0" result="hardAlpha"/>
<feOffset dy="2.00569"/>
<feGaussianBlur stdDeviation="2.00569"/>
<feColorMatrix type="matrix" values="0 0 0 0 0 0 0 0 0 0 0 0 0 0 0 0 0 0 0.2 0"/>
<feBlend mode="normal" in2="BackgroundImageFix" result="effect1_dropShadow_4199_14063"/>
<feBlend mode="normal" in="SourceGraphic" in2="effect1_dropShadow_4199_14063" result="shape"/>
</filter>
<filter id="filter4_d_4199_14063" x="155.489" y="349.447" width="79.8665" height="98.2349" filterUnits="userSpaceOnUse" color-interpolation-filters="sRGB">
<feFlood flood-opacity="0" result="BackgroundImageFix"/>
<feColorMatrix in="SourceAlpha" type="matrix" values="0 0 0 0 0 0 0 0 0 0 0 0 0 0 0 0 0 0 127 0" result="hardAlpha"/>
<feOffset dy="2.00569"/>
<feGaussianBlur stdDeviation="2.00569"/>
<feColorMatrix type="matrix" values="0 0 0 0 0 0 0 0 0 0 0 0 0 0 0 0 0 0 0.2 0"/>
<feBlend mode="normal" in2="BackgroundImageFix" result="effect1_dropShadow_4199_14063"/>
<feBlend mode="normal" in="SourceGraphic" in2="effect1_dropShadow_4199_14063" result="shape"/>
</filter>
<filter id="filter5_d_4199_14063" x="155.489" y="349.447" width="79.8665" height="98.2349" filterUnits="userSpaceOnUse" color-interpolation-filters="sRGB">
<feFlood flood-opacity="0" result="BackgroundImageFix"/>
<feColorMatrix in="SourceAlpha" type="matrix" values="0 0 0 0 0 0 0 0 0 0 0 0 0 0 0 0 0 0 127 0" result="hardAlpha"/>
<feOffset dy="2.00569"/>
<feGaussianBlur stdDeviation="2.00569"/>
<feColorMatrix type="matrix" values="0 0 0 0 0 0 0 0 0 0 0 0 0 0 0 0 0 0 0.2 0"/>
<feBlend mode="normal" in2="BackgroundImageFix" result="effect1_dropShadow_4199_14063"/>
<feBlend mode="normal" in="SourceGraphic" in2="effect1_dropShadow_4199_14063" result="shape"/>
</filter>
<filter id="filter6_d_4199_14063" x="212.489" y="317.447" width="79.8665" height="98.2349" filterUnits="userSpaceOnUse" color-interpolation-filters="sRGB">
<feFlood flood-opacity="0" result="BackgroundImageFix"/>
<feColorMatrix in="SourceAlpha" type="matrix" values="0 0 0 0 0 0 0 0 0 0 0 0 0 0 0 0 0 0 127 0" result="hardAlpha"/>
<feOffset dy="2.00569"/>
<feGaussianBlur stdDeviation="2.00569"/>
<feColorMatrix type="matrix" values="0 0 0 0 0 0 0 0 0 0 0 0 0 0 0 0 0 0 0.2 0"/>
<feBlend mode="normal" in2="BackgroundImageFix" result="effect1_dropShadow_4199_14063"/>
<feBlend mode="normal" in="SourceGraphic" in2="effect1_dropShadow_4199_14063" result="shape"/>
</filter>
<filter id="filter7_d_4199_14063" x="212.489" y="317.447" width="79.8665" height="98.2349" filterUnits="userSpaceOnUse" color-interpolation-filters="sRGB">
<feFlood flood-opacity="0" result="BackgroundImageFix"/>
<feColorMatrix in="SourceAlpha" type="matrix" values="0 0 0 0 0 0 0 0 0 0 0 0 0 0 0 0 0 0 127 0" result="hardAlpha"/>
<feOffset dy="2.00569"/>
<feGaussianBlur stdDeviation="2.00569"/>
<feColorMatrix type="matrix" values="0 0 0 0 0 0 0 0 0 0 0 0 0 0 0 0 0 0 0.2 0"/>
<feBlend mode="normal" in2="BackgroundImageFix" result="effect1_dropShadow_4199_14063"/>
<feBlend mode="normal" in="SourceGraphic" in2="effect1_dropShadow_4199_14063" result="shape"/>
</filter>
<filter id="filter8_d_4199_14063" x="379.489" y="221.447" width="79.8665" height="98.2349" filterUnits="userSpaceOnUse" color-interpolation-filters="sRGB">
<feFlood flood-opacity="0" result="BackgroundImageFix"/>
<feColorMatrix in="SourceAlpha" type="matrix" values="0 0 0 0 0 0 0 0 0 0 0 0 0 0 0 0 0 0 127 0" result="hardAlpha"/>
<feOffset dy="2.00569"/>
<feGaussianBlur stdDeviation="2.00569"/>
<feColorMatrix type="matrix" values="0 0 0 0 0 0 0 0 0 0 0 0 0 0 0 0 0 0 0.2 0"/>
<feBlend mode="normal" in2="BackgroundImageFix" result="effect1_dropShadow_4199_14063"/>
<feBlend mode="normal" in="SourceGraphic" in2="effect1_dropShadow_4199_14063" result="shape"/>
</filter>
<filter id="filter9_d_4199_14063" x="379.489" y="221.447" width="79.8665" height="98.2349" filterUnits="userSpaceOnUse" color-interpolation-filters="sRGB">
<feFlood flood-opacity="0" result="BackgroundImageFix"/>
<feColorMatrix in="SourceAlpha" type="matrix" values="0 0 0 0 0 0 0 0 0 0 0 0 0 0 0 0 0 0 127 0" result="hardAlpha"/>
<feOffset dy="2.00569"/>
<feGaussianBlur stdDeviation="2.00569"/>
<feColorMatrix type="matrix" values="0 0 0 0 0 0 0 0 0 0 0 0 0 0 0 0 0 0 0.2 0"/>
<feBlend mode="normal" in2="BackgroundImageFix" result="effect1_dropShadow_4199_14063"/>
<feBlend mode="normal" in="SourceGraphic" in2="effect1_dropShadow_4199_14063" result="shape"/>
</filter>
<filter id="filter10_d_4199_14063" x="-77.1481" y="598.315" width="82.2806" height="97.2405" filterUnits="userSpaceOnUse" color-interpolation-filters="sRGB">
<feFlood flood-opacity="0" result="BackgroundImageFix"/>
<feColorMatrix in="SourceAlpha" type="matrix" values="0 0 0 0 0 0 0 0 0 0 0 0 0 0 0 0 0 0 127 0" result="hardAlpha"/>
<feOffset dy="2.00569"/>
<feGaussianBlur stdDeviation="2.00569"/>
<feColorMatrix type="matrix" values="0 0 0 0 0 0 0 0 0 0 0 0 0 0 0 0 0 0 0.2 0"/>
<feBlend mode="normal" in2="BackgroundImageFix" result="effect1_dropShadow_4199_14063"/>
<feBlend mode="normal" in="SourceGraphic" in2="effect1_dropShadow_4199_14063" result="shape"/>
</filter>
<filter id="filter11_d_4199_14063" x="-77.1481" y="598.315" width="82.2806" height="97.2405" filterUnits="userSpaceOnUse" color-interpolation-filters="sRGB">
<feFlood flood-opacity="0" result="BackgroundImageFix"/>
<feColorMatrix in="SourceAlpha" type="matrix" values="0 0 0 0 0 0 0 0 0 0 0 0 0 0 0 0 0 0 127 0" result="hardAlpha"/>
<feOffset dy="2.00569"/>
<feGaussianBlur stdDeviation="2.00569"/>
<feColorMatrix type="matrix" values="0 0 0 0 0 0 0 0 0 0 0 0 0 0 0 0 0 0 0.2 0"/>
<feBlend mode="normal" in2="BackgroundImageFix" result="effect1_dropShadow_4199_14063"/>
<feBlend mode="normal" in="SourceGraphic" in2="effect1_dropShadow_4199_14063" result="shape"/>
</filter>
<filter id="filter12_d_4199_14063" x="87.8519" y="502.315" width="82.2806" height="97.2405" filterUnits="userSpaceOnUse" color-interpolation-filters="sRGB">
<feFlood flood-opacity="0" result="BackgroundImageFix"/>
<feColorMatrix in="SourceAlpha" type="matrix" values="0 0 0 0 0 0 0 0 0 0 0 0 0 0 0 0 0 0 127 0" result="hardAlpha"/>
<feOffset dy="2.00569"/>
<feGaussianBlur stdDeviation="2.00569"/>
<feColorMatrix type="matrix" values="0 0 0 0 0 0 0 0 0 0 0 0 0 0 0 0 0 0 0.2 0"/>
<feBlend mode="normal" in2="BackgroundImageFix" result="effect1_dropShadow_4199_14063"/>
<feBlend mode="normal" in="SourceGraphic" in2="effect1_dropShadow_4199_14063" result="shape"/>
</filter>
<filter id="filter13_d_4199_14063" x="87.8519" y="502.315" width="82.2806" height="97.2405" filterUnits="userSpaceOnUse" color-interpolation-filters="sRGB">
<feFlood flood-opacity="0" result="BackgroundImageFix"/>
<feColorMatrix in="SourceAlpha" type="matrix" values="0 0 0 0 0 0 0 0 0 0 0 0 0 0 0 0 0 0 127 0" result="hardAlpha"/>
<feOffset dy="2.00569"/>
<feGaussianBlur stdDeviation="2.00569"/>
<feColorMatrix type="matrix" values="0 0 0 0 0 0 0 0 0 0 0 0 0 0 0 0 0 0 0.2 0"/>
<feBlend mode="normal" in2="BackgroundImageFix" result="effect1_dropShadow_4199_14063"/>
<feBlend mode="normal" in="SourceGraphic" in2="effect1_dropShadow_4199_14063" result="shape"/>
</filter>
<filter id="filter14_d_4199_14063" x="197.914" y="583.17" width="61.0052" height="96.5692" filterUnits="userSpaceOnUse" color-interpolation-filters="sRGB">
<feFlood flood-opacity="0" result="BackgroundImageFix"/>
<feColorMatrix in="SourceAlpha" type="matrix" values="0 0 0 0 0 0 0 0 0 0 0 0 0 0 0 0 0 0 127 0" result="hardAlpha"/>
<feOffset dy="2.00569"/>
<feGaussianBlur stdDeviation="2.00569"/>
<feColorMatrix type="matrix" values="0 0 0 0 0 0 0 0 0 0 0 0 0 0 0 0 0 0 0.2 0"/>
<feBlend mode="normal" in2="BackgroundImageFix" result="effect1_dropShadow_4199_14063"/>
<feBlend mode="normal" in="SourceGraphic" in2="effect1_dropShadow_4199_14063" result="shape"/>
</filter>
<filter id="filter15_d_4199_14063" x="197.914" y="583.17" width="61.0052" height="96.5692" filterUnits="userSpaceOnUse" color-interpolation-filters="sRGB">
<feFlood flood-opacity="0" result="BackgroundImageFix"/>
<feColorMatrix in="SourceAlpha" type="matrix" values="0 0 0 0 0 0 0 0 0 0 0 0 0 0 0 0 0 0 127 0" result="hardAlpha"/>
<feOffset dy="2.00569"/>
<feGaussianBlur stdDeviation="2.00569"/>
<feColorMatrix type="matrix" values="0 0 0 0 0 0 0 0 0 0 0 0 0 0 0 0 0 0 0.2 0"/>
<feBlend mode="normal" in2="BackgroundImageFix" result="effect1_dropShadow_4199_14063"/>
<feBlend mode="normal" in="SourceGraphic" in2="effect1_dropShadow_4199_14063" result="shape"/>
</filter>
<filter id="filter16_d_4199_14063" x="250.563" y="205.395" width="70.5208" height="98.7638" filterUnits="userSpaceOnUse" color-interpolation-filters="sRGB">
<feFlood flood-opacity="0" result="BackgroundImageFix"/>
<feColorMatrix in="SourceAlpha" type="matrix" values="0 0 0 0 0 0 0 0 0 0 0 0 0 0 0 0 0 0 127 0" result="hardAlpha"/>
<feOffset dy="2.00569"/>
<feGaussianBlur stdDeviation="2.00569"/>
<feColorMatrix type="matrix" values="0 0 0 0 0 0 0 0 0 0 0 0 0 0 0 0 0 0 0.2 0"/>
<feBlend mode="normal" in2="BackgroundImageFix" result="effect1_dropShadow_4199_14063"/>
<feBlend mode="normal" in="SourceGraphic" in2="effect1_dropShadow_4199_14063" result="shape"/>
</filter>
<filter id="filter17_d_4199_14063" x="250.563" y="205.395" width="70.5208" height="98.7638" filterUnits="userSpaceOnUse" color-interpolation-filters="sRGB">
<feFlood flood-opacity="0" result="BackgroundImageFix"/>
<feColorMatrix in="SourceAlpha" type="matrix" values="0 0 0 0 0 0 0 0 0 0 0 0 0 0 0 0 0 0 127 0" result="hardAlpha"/>
<feOffset dy="2.00569"/>
<feGaussianBlur stdDeviation="2.00569"/>
<feColorMatrix type="matrix" values="0 0 0 0 0 0 0 0 0 0 0 0 0 0 0 0 0 0 0.2 0"/>
<feBlend mode="normal" in2="BackgroundImageFix" result="effect1_dropShadow_4199_14063"/>
<feBlend mode="normal" in="SourceGraphic" in2="effect1_dropShadow_4199_14063" result="shape"/>
</filter>
<filter id="filter18_d_4199_14063" x="34.8519" y="535.315" width="82.2806" height="97.2405" filterUnits="userSpaceOnUse" color-interpolation-filters="sRGB">
<feFlood flood-opacity="0" result="BackgroundImageFix"/>
<feColorMatrix in="SourceAlpha" type="matrix" values="0 0 0 0 0 0 0 0 0 0 0 0 0 0 0 0 0 0 127 0" result="hardAlpha"/>
<feOffset dy="2.00569"/>
<feGaussianBlur stdDeviation="2.00569"/>
<feColorMatrix type="matrix" values="0 0 0 0 0 0 0 0 0 0 0 0 0 0 0 0 0 0 0.2 0"/>
<feBlend mode="normal" in2="BackgroundImageFix" result="effect1_dropShadow_4199_14063"/>
<feBlend mode="normal" in="SourceGraphic" in2="effect1_dropShadow_4199_14063" result="shape"/>
</filter>
<filter id="filter19_d_4199_14063" x="34.8519" y="535.315" width="82.2806" height="97.2405" filterUnits="userSpaceOnUse" color-interpolation-filters="sRGB">
<feFlood flood-opacity="0" result="BackgroundImageFix"/>
<feColorMatrix in="SourceAlpha" type="matrix" values="0 0 0 0 0 0 0 0 0 0 0 0 0 0 0 0 0 0 127 0" result="hardAlpha"/>
<feOffset dy="2.00569"/>
<feGaussianBlur stdDeviation="2.00569"/>
<feColorMatrix type="matrix" values="0 0 0 0 0 0 0 0 0 0 0 0 0 0 0 0 0 0 0.2 0"/>
<feBlend mode="normal" in2="BackgroundImageFix" result="effect1_dropShadow_4199_14063"/>
<feBlend mode="normal" in="SourceGraphic" in2="effect1_dropShadow_4199_14063" result="shape"/>
</filter>
<filter id="filter20_d_4199_14063" x="255.852" y="409.315" width="82.2806" height="97.2405" filterUnits="userSpaceOnUse" color-interpolation-filters="sRGB">
<feFlood flood-opacity="0" result="BackgroundImageFix"/>
<feColorMatrix in="SourceAlpha" type="matrix" values="0 0 0 0 0 0 0 0 0 0 0 0 0 0 0 0 0 0 127 0" result="hardAlpha"/>
<feOffset dy="2.00569"/>
<feGaussianBlur stdDeviation="2.00569"/>
<feColorMatrix type="matrix" values="0 0 0 0 0 0 0 0 0 0 0 0 0 0 0 0 0 0 0.2 0"/>
<feBlend mode="normal" in2="BackgroundImageFix" result="effect1_dropShadow_4199_14063"/>
<feBlend mode="normal" in="SourceGraphic" in2="effect1_dropShadow_4199_14063" result="shape"/>
</filter>
<filter id="filter21_d_4199_14063" x="255.852" y="409.315" width="82.2806" height="97.2405" filterUnits="userSpaceOnUse" color-interpolation-filters="sRGB">
<feFlood flood-opacity="0" result="BackgroundImageFix"/>
<feColorMatrix in="SourceAlpha" type="matrix" values="0 0 0 0 0 0 0 0 0 0 0 0 0 0 0 0 0 0 127 0" result="hardAlpha"/>
<feOffset dy="2.00569"/>
<feGaussianBlur stdDeviation="2.00569"/>
<feColorMatrix type="matrix" values="0 0 0 0 0 0 0 0 0 0 0 0 0 0 0 0 0 0 0.2 0"/>
<feBlend mode="normal" in2="BackgroundImageFix" result="effect1_dropShadow_4199_14063"/>
<feBlend mode="normal" in="SourceGraphic" in2="effect1_dropShadow_4199_14063" result="shape"/>
</filter>
<filter id="filter22_d_4199_14063" x="313.852" y="369.315" width="82.2806" height="97.2405" filterUnits="userSpaceOnUse" color-interpolation-filters="sRGB">
<feFlood flood-opacity="0" result="BackgroundImageFix"/>
<feColorMatrix in="SourceAlpha" type="matrix" values="0 0 0 0 0 0 0 0 0 0 0 0 0 0 0 0 0 0 127 0" result="hardAlpha"/>
<feOffset dy="2.00569"/>
<feGaussianBlur stdDeviation="2.00569"/>
<feColorMatrix type="matrix" values="0 0 0 0 0 0 0 0 0 0 0 0 0 0 0 0 0 0 0.2 0"/>
<feBlend mode="normal" in2="BackgroundImageFix" result="effect1_dropShadow_4199_14063"/>
<feBlend mode="normal" in="SourceGraphic" in2="effect1_dropShadow_4199_14063" result="shape"/>
</filter>
<filter id="filter23_d_4199_14063" x="313.852" y="369.315" width="82.2806" height="97.2405" filterUnits="userSpaceOnUse" color-interpolation-filters="sRGB">
<feFlood flood-opacity="0" result="BackgroundImageFix"/>
<feColorMatrix in="SourceAlpha" type="matrix" values="0 0 0 0 0 0 0 0 0 0 0 0 0 0 0 0 0 0 127 0" result="hardAlpha"/>
<feOffset dy="2.00569"/>
<feGaussianBlur stdDeviation="2.00569"/>
<feColorMatrix type="matrix" values="0 0 0 0 0 0 0 0 0 0 0 0 0 0 0 0 0 0 0.2 0"/>
<feBlend mode="normal" in2="BackgroundImageFix" result="effect1_dropShadow_4199_14063"/>
<feBlend mode="normal" in="SourceGraphic" in2="effect1_dropShadow_4199_14063" result="shape"/>
</filter>
<filter id="filter24_d_4199_14063" x="369.852" y="337.315" width="82.2806" height="97.2405" filterUnits="userSpaceOnUse" color-interpolation-filters="sRGB">
<feFlood flood-opacity="0" result="BackgroundImageFix"/>
<feColorMatrix in="SourceAlpha" type="matrix" values="0 0 0 0 0 0 0 0 0 0 0 0 0 0 0 0 0 0 127 0" result="hardAlpha"/>
<feOffset dy="2.00569"/>
<feGaussianBlur stdDeviation="2.00569"/>
<feColorMatrix type="matrix" values="0 0 0 0 0 0 0 0 0 0 0 0 0 0 0 0 0 0 0.2 0"/>
<feBlend mode="normal" in2="BackgroundImageFix" result="effect1_dropShadow_4199_14063"/>
<feBlend mode="normal" in="SourceGraphic" in2="effect1_dropShadow_4199_14063" result="shape"/>
</filter>
<filter id="filter25_d_4199_14063" x="369.852" y="337.315" width="82.2806" height="97.2405" filterUnits="userSpaceOnUse" color-interpolation-filters="sRGB">
<feFlood flood-opacity="0" result="BackgroundImageFix"/>
<feColorMatrix in="SourceAlpha" type="matrix" values="0 0 0 0 0 0 0 0 0 0 0 0 0 0 0 0 0 0 127 0" result="hardAlpha"/>
<feOffset dy="2.00569"/>
<feGaussianBlur stdDeviation="2.00569"/>
<feColorMatrix type="matrix" values="0 0 0 0 0 0 0 0 0 0 0 0 0 0 0 0 0 0 0.2 0"/>
<feBlend mode="normal" in2="BackgroundImageFix" result="effect1_dropShadow_4199_14063"/>
<feBlend mode="normal" in="SourceGraphic" in2="effect1_dropShadow_4199_14063" result="shape"/>
</filter>
</defs>
</svg>
