<svg width="572" height="431" viewBox="0 0 572 431" fill="none" xmlns="http://www.w3.org/2000/svg">
<path d="M353.021 42.9438C354.639 42.9438 355.951 41.6317 355.951 40.013C355.951 38.3944 354.639 37.0822 353.021 37.0822C351.402 37.0822 350.09 38.3944 350.09 40.013C350.09 41.6317 351.402 42.9438 353.021 42.9438Z" stroke="#6BAA77" stroke-miterlimit="10"/>
<path d="M553.609 154.635C555.227 154.635 556.539 153.323 556.539 151.704C556.539 150.085 555.227 148.773 553.609 148.773C551.99 148.773 550.678 150.085 550.678 151.704C550.678 153.323 551.99 154.635 553.609 154.635Z" stroke="#6BAA77" stroke-miterlimit="10"/>
<path d="M61.2531 161.148C62.8717 161.148 64.1839 159.836 64.1839 158.217C64.1839 156.598 62.8717 155.286 61.2531 155.286C59.6344 155.286 58.3223 156.598 58.3223 158.217C58.3223 159.836 59.6344 161.148 61.2531 161.148Z" stroke="#6BAA77" stroke-miterlimit="10"/>
<path d="M527.558 299.541C529.176 299.541 530.489 298.229 530.489 296.61C530.489 294.991 529.176 293.679 527.558 293.679C525.939 293.679 524.627 294.991 524.627 296.61C524.627 298.229 525.939 299.541 527.558 299.541Z" stroke="#6BAA77" stroke-miterlimit="10"/>
<path d="M190.202 334.384C191.821 334.384 193.133 333.071 193.133 331.453C193.133 329.834 191.821 328.522 190.202 328.522C188.584 328.522 187.271 329.834 187.271 331.453C187.271 333.071 188.584 334.384 190.202 334.384Z" stroke="#6BAA77" stroke-miterlimit="10"/>
<path d="M215.927 59.551C217.546 59.551 218.858 58.2388 218.858 56.6202C218.858 55.0015 217.546 53.6893 215.927 53.6893C214.308 53.6893 212.996 55.0015 212.996 56.6202C212.996 58.2388 214.308 59.551 215.927 59.551Z" stroke="#6BAA77" stroke-miterlimit="10"/>
<path d="M483.931 73.8617C485.549 73.8617 486.862 72.5495 486.862 70.9308C486.862 69.3122 485.549 68 483.931 68C482.312 68 481 69.3122 481 70.9308C481 72.5495 482.312 73.8617 483.931 73.8617Z" stroke="#6BAA77" stroke-miterlimit="10"/>
<path d="M79.4875 253.952C81.1061 253.952 82.4183 252.64 82.4183 251.021C82.4183 249.403 81.1061 248.09 79.4875 248.09C77.8688 248.09 76.5566 249.403 76.5566 251.021C76.5566 252.64 77.8688 253.952 79.4875 253.952Z" stroke="#6BAA77" stroke-miterlimit="10"/>
<path d="M36.1808 285.018C43.6429 286.366 42.8431 295.973 35.9958 298.072C29.1494 300.171 26.3219 287.709 29.8815 289.262C33.441 290.815 29.8797 297.523 22.4411 296.609C15.0016 295.695 15.1865 282.642 21.2792 282.757C27.3727 282.872 23.4684 291.338 15.368 286.11C7.26764 280.883 14.5265 270.067 22.4906 272.693C29.3535 274.956 26.3688 280.316 22.3299 277.919C18.291 275.522 26.394 264.227 34.061 269.477C41.7281 274.728 35.5651 281.572 32.3937 279.13C29.2224 276.687 43.2122 269.867 46.2238 277.535C49.2353 285.203 42.8674 288.146 37.71 289.286C32.5509 290.426 33.6894 284.568 36.1808 285.018Z" stroke="#F2674A" stroke-miterlimit="10" stroke-linecap="round" stroke-linejoin="round"/>
<path d="M483.963 42.8397C478.555 48.1543 471.172 41.9548 473.411 35.1527C475.651 28.3506 487.458 33.2362 484.135 35.2465C480.813 37.2568 477.39 30.4764 482.432 24.9291C487.473 19.3827 498.025 27.0697 494.414 31.9779C490.802 36.8869 486.143 28.8117 495.087 25.2148C504.032 21.6188 508.673 33.7894 501.931 38.7765C496.122 43.0742 493.468 37.5425 497.757 35.6286C502.046 33.7147 506.59 46.8517 497.877 50.0813C489.163 53.3108 487.132 44.3264 490.957 43.1472C494.783 41.967 492.276 57.3289 484.276 55.3602C476.276 53.3916 477.549 46.4939 479.596 41.624C481.643 36.754 485.769 41.0656 483.963 42.8397Z" stroke="#F2674A" stroke-miterlimit="10" stroke-linecap="round" stroke-linejoin="round"/>
<path d="M260.71 333.213C253.222 332.017 253.827 322.395 260.63 320.158C267.432 317.921 270.513 330.322 266.922 328.842C263.331 327.363 266.755 320.583 274.212 321.345C281.669 322.108 281.75 335.162 275.655 335.171C269.561 335.18 273.292 326.637 281.497 331.698C289.703 336.759 282.665 347.72 274.649 345.258C267.742 343.135 270.616 337.716 274.704 340.03C278.79 342.344 270.918 353.802 263.146 348.709C255.374 343.615 261.396 336.647 264.617 339.023C267.838 341.401 253.989 348.504 250.823 340.899C247.657 333.294 253.963 330.222 259.096 328.977C264.229 327.732 263.21 333.612 260.71 333.213Z" stroke="#F2674A" stroke-miterlimit="10" stroke-linecap="round" stroke-linejoin="round"/>
<path d="M10.8474 145.247C17.7885 145.537 17.7946 155.668 13.1634 151.615C8.5323 147.563 13.1634 141.195 21.8474 141.195C30.5313 141.195 30.2352 160.621 24.1634 156.826C19.5322 153.931 24.7426 149.299 31.1105 152.773C37.4784 156.247 28.7945 168.404 19.5322 168.983C10.2691 169.562 10.2691 159.142 14.9011 157.405C19.5331 155.668 13.7435 165.51 6.79638 164.352C-0.151633 163.194 -3.04685 144.668 10.8474 145.247Z" stroke="#D98B7C" stroke-miterlimit="10"/>
<path d="M394.1 83.6862C387.158 83.9294 386.375 73.8282 391.304 77.5137C396.232 81.1992 392.102 87.904 383.444 88.5692C374.786 89.2344 373.593 69.8423 379.938 73.1613C384.777 75.6927 379.937 80.7094 373.322 77.7343C366.706 74.7583 374.433 61.9721 383.624 60.6851C392.815 59.3982 393.613 69.7885 389.129 71.8752C384.645 73.962 389.663 63.7054 396.678 64.328C403.694 64.9498 407.998 83.1991 394.1 83.6862Z" stroke="#D98B7C" stroke-miterlimit="10"/>
<path d="M561.287 219.579C554.346 219.869 554.34 230 558.971 225.947C563.602 221.894 558.971 215.527 550.287 215.527C541.603 215.527 541.899 234.953 547.971 231.158C552.602 228.263 547.392 223.631 541.024 227.105C534.656 230.578 543.34 242.736 552.602 243.315C561.865 243.894 561.865 233.474 557.233 231.737C552.602 230 558.391 239.842 565.338 238.684C572.287 237.526 575.181 219.001 561.287 219.579Z" stroke="#D98B7C" stroke-miterlimit="10"/>
<path d="M80.9308 66.8617C82.5495 66.8617 83.8617 65.5495 83.8617 63.9308C83.8617 62.3122 82.5495 61 80.9308 61C79.3122 61 78 62.3122 78 63.9308C78 65.5495 79.3122 66.8617 80.9308 66.8617Z" stroke="#6BAA77" stroke-miterlimit="10"/>
<path d="M80.9633 35.8397C75.5549 41.1543 68.1719 34.9548 70.4115 28.1527C72.651 21.3506 84.4577 26.2362 81.1352 28.2465C77.8128 30.2568 74.3904 23.4764 79.4323 17.9291C84.4733 12.3827 95.0252 20.0697 91.4135 24.9779C87.8019 29.8869 83.143 21.8117 92.0874 18.2148C101.032 14.6188 105.673 26.7894 98.9312 31.7765C93.1217 36.0742 90.4678 30.5425 94.7568 28.6286C99.0458 26.7147 103.59 39.8517 94.8767 43.0813C86.1632 46.3108 84.1321 37.3264 87.9573 36.1472C91.7826 34.967 89.2755 50.3289 81.2759 48.3602C73.2763 46.3916 74.5493 39.4939 76.5961 34.624C78.6429 29.754 82.7687 34.0656 80.9633 35.8397Z" stroke="#F2674A" stroke-miterlimit="10" stroke-linecap="round" stroke-linejoin="round"/>
<path d="M260.64 131.291C260.64 132.91 261.952 134.222 263.571 134.222C265.19 134.222 266.502 132.91 266.502 131.291C266.502 129.673 265.19 128.36 263.571 128.36C261.952 128.36 260.64 129.673 260.64 131.291Z" stroke="#6BAA77" stroke-miterlimit="10"/>
<path d="M291.662 131.324C286.348 125.915 292.547 118.532 299.349 120.772C306.151 123.011 301.266 134.818 299.255 131.496C297.245 128.173 304.026 124.751 309.573 129.793C315.119 134.834 307.432 145.386 302.524 141.774C297.615 138.162 305.69 133.503 309.287 142.448C312.883 151.392 300.713 156.033 295.725 149.292C291.428 143.482 296.959 140.828 298.873 145.117C300.787 149.406 287.65 153.95 284.421 145.237C281.191 136.524 290.176 134.492 291.355 138.318C292.535 142.143 277.173 139.636 279.142 131.636C281.11 123.637 288.008 124.91 292.878 126.956C297.748 129.003 293.436 133.129 291.662 131.324Z" stroke="#F2674A" stroke-miterlimit="10" stroke-linecap="round" stroke-linejoin="round"/>
<path fill-rule="evenodd" clip-rule="evenodd" d="M417.735 320.376C417.735 320.376 422.397 314.164 429.125 315.983C435.854 317.8 440.774 333.348 444.088 338.421C447.402 343.491 454.398 357.185 446.775 360.034C439.152 362.885 429.902 340.65 421.778 337.744C413.653 334.838 415.467 324.674 417.735 320.376Z" fill="#353164"/>
<path fill-rule="evenodd" clip-rule="evenodd" d="M416.644 320.87C418.999 317.15 429.702 325.045 433.21 330.63C436.866 336.447 444.089 345.901 431.983 347.995C428.378 343.615 424.041 338.954 418.483 336.072C412.928 333.19 414.51 324.913 416.644 320.87Z" fill="#E3AB84"/>
<path fill-rule="evenodd" clip-rule="evenodd" d="M402.148 276.414C402.148 276.414 403.182 268.716 409.94 267.016C416.7 265.317 428.588 276.479 433.956 279.287C439.325 282.093 452.12 290.625 446.86 296.836C441.598 303.046 422.667 288.161 414.159 289.596C405.65 291.027 402.269 281.272 402.148 276.414Z" fill="#353164"/>
<path fill-rule="evenodd" clip-rule="evenodd" d="M401.436 277.376C401.674 272.98 414.87 274.642 420.661 277.802C426.692 281.092 437.612 285.812 428.072 293.552C422.787 291.493 416.726 289.544 410.469 289.743C404.213 289.943 401.55 281.949 401.436 277.376Z" fill="#E3AB84"/>
<path fill-rule="evenodd" clip-rule="evenodd" d="M361.194 224.439C361.194 224.439 347.075 226.703 342.147 244.551C337.218 262.4 317.772 336.99 322.833 350.574C327.895 364.16 339.349 362.828 352.402 360.032C365.456 357.233 408.344 344.048 416.337 342.848C430.009 340.797 422.596 314.371 407.28 314.744C396.357 315.01 359.595 327.131 359.595 327.131C359.595 327.131 414.474 226.437 361.194 224.439Z" fill="#5C65A7"/>
<path fill-rule="evenodd" clip-rule="evenodd" d="M343.345 359.099C343.345 359.099 351.47 362.03 362.259 351.374C373.048 340.718 420.599 294.366 420.599 294.366C420.599 294.366 416.737 279.449 400.487 275.452C384.236 271.458 324.965 343.383 343.345 359.099Z" fill="#5C65A7"/>
<path fill-rule="evenodd" clip-rule="evenodd" d="M390.628 231.366C390.628 231.366 402.083 239.89 403.947 256.94C405.812 273.989 397.021 287.308 379.971 311.816C362.922 336.325 347.338 359.233 347.338 359.233C347.338 359.233 338.547 360.832 332.821 350.443C327.092 340.053 343.21 300.361 343.21 300.361C343.21 300.361 359.727 258.803 357.329 242.022C354.932 225.239 390.628 231.366 390.628 231.366Z" fill="#5C65A7"/>
<path fill-rule="evenodd" clip-rule="evenodd" d="M390.484 231.555C390.379 231.476 390.358 231.326 390.438 231.221C390.518 231.115 390.669 231.095 390.773 231.174C390.806 231.2 402.31 239.76 404.186 256.913C405.124 265.486 403.384 273.117 399.269 281.681C395.164 290.228 388.7 299.691 380.169 311.952C378.827 313.883 377.657 315.566 376.654 317.01C375.493 318.684 374.343 320.343 373.21 321.983C373.135 322.091 372.986 322.118 372.877 322.044C372.769 321.968 372.741 321.819 372.816 321.71C373.949 320.073 375.098 318.414 376.26 316.739C377.58 314.835 378.757 313.14 379.775 311.678C388.294 299.432 394.751 289.98 398.836 281.476C402.913 272.994 404.636 265.44 403.709 256.964C401.856 240.019 390.517 231.581 390.484 231.555Z" fill="#3F467B"/>
<path fill-rule="evenodd" clip-rule="evenodd" d="M357.092 242.055C357.073 241.923 357.164 241.802 357.295 241.784C357.427 241.765 357.548 241.856 357.566 241.987C359.973 258.835 343.481 300.33 343.433 300.449L343.427 300.466C343.157 301.131 327.4 340.111 333.031 350.326C334.065 352.205 335.208 353.747 336.43 354.986C339.11 357.699 342.183 358.957 345.375 359.099C348.58 359.243 351.914 358.265 355.1 356.509C357.561 355.153 359.933 353.332 362.088 351.202C364.712 348.612 369.314 344.099 374.811 338.724L374.824 338.71C381.939 331.75 390.586 323.308 398.427 315.656C398.522 315.563 398.674 315.565 398.766 315.66C398.858 315.755 398.856 315.907 398.761 315.998C390.911 323.66 382.26 332.107 375.159 339.054L375.147 339.068C369.534 344.558 364.908 349.091 362.424 351.545C360.237 353.703 357.83 355.552 355.331 356.931C352.072 358.726 348.652 359.726 345.354 359.578C342.043 359.43 338.861 358.127 336.088 355.322C334.835 354.05 333.666 352.473 332.61 350.557C326.863 340.132 342.738 300.887 342.981 300.284L342.986 300.271C343.034 300.153 359.48 258.774 357.092 242.055Z" fill="#3F467B"/>
<path fill-rule="evenodd" clip-rule="evenodd" d="M371.061 330.129C371.027 330.256 370.895 330.332 370.766 330.298C370.638 330.265 370.563 330.133 370.597 330.005L372.265 323.776C371.515 325.076 370.579 326.522 369.43 328.011C368.113 329.719 366.514 331.489 364.593 333.177C364.493 333.264 364.342 333.255 364.255 333.155C364.167 333.056 364.178 332.904 364.276 332.817C366.172 331.152 367.75 329.405 369.051 327.718C370.741 325.526 371.963 323.439 372.804 321.767C372.849 321.658 372.97 321.596 373.088 321.627C373.216 321.66 373.292 321.792 373.258 321.921L371.061 330.129Z" fill="#3F467B"/>
<path fill-rule="evenodd" clip-rule="evenodd" d="M353.294 245.577C353.313 245.444 353.437 245.355 353.567 245.374C353.698 245.395 353.788 245.518 353.768 245.647C353.763 245.682 351.857 257.906 355.506 260.198C355.618 260.267 355.652 260.416 355.581 260.528C355.511 260.64 355.363 260.674 355.252 260.604C351.332 258.142 353.289 245.612 353.294 245.577Z" fill="#3F467B"/>
<path fill-rule="evenodd" clip-rule="evenodd" d="M407.507 91.782C407.507 91.782 392.856 85.388 384.065 93.247C375.274 101.106 370.08 111.628 368.749 124.814C367.417 138 362.959 153.887 374.146 166.142C385.335 178.396 381.557 184.643 379.96 198.496C378.361 212.349 410.834 211.919 414.567 199.272C419.362 183.023 423.625 190.214 432.149 179.825C440.673 169.436 445.203 150.788 435.612 137.203C426.022 123.617 422.559 118.156 422.16 112.562C421.759 106.966 415.499 91.782 407.507 91.782Z" fill="#593720"/>
<path fill-rule="evenodd" clip-rule="evenodd" d="M356.146 15.4211L347.653 15.827C347.653 15.827 342.639 59.909 346.772 71.3631C350.906 82.8181 365.371 73.8941 365.371 73.8941C366.523 68.542 361.4 35.2681 356.146 15.4211Z" fill="#E3AB84"/>
<path fill-rule="evenodd" clip-rule="evenodd" d="M346.033 69C346.033 69 351.053 131.203 349.872 143.723C348.69 156.243 371.424 145.854 370.98 144.522C370.98 144.522 365.518 80.721 365.518 70.731C365.519 60.742 346.033 69 346.033 69Z" fill="#E3AB84"/>
<path fill-rule="evenodd" clip-rule="evenodd" d="M403.748 149.584C424.658 149.842 437.766 151.633 459.558 148.252C459.558 148.252 468.216 147.453 466.884 156.111C464.566 171.175 424.277 170.033 407.077 177.289C398.553 180.884 388.031 156.376 403.748 149.584Z" fill="#E3AB84"/>
<path fill-rule="evenodd" clip-rule="evenodd" d="M457.959 148.651C457.959 148.651 466.549 145.587 485.996 144.255C505.441 142.923 526.221 136.796 526.221 136.796L529.151 147.548C529.151 147.548 498.516 158.773 481.202 160.904C463.886 163.035 455.229 166.232 455.229 166.232C455.229 166.232 444.438 151.315 457.959 148.651Z" fill="#E3AB84"/>
<path fill-rule="evenodd" clip-rule="evenodd" d="M375.177 140.394C375.177 140.394 359.861 135.066 349.205 145.722C338.549 156.378 331.149 166.307 334.081 180.16C337.011 194.012 336.817 223.508 333.354 239.225C333.354 239.225 341.346 249.881 368.784 246.684C396.223 243.488 398.753 238.693 398.753 238.693C398.753 238.693 385.652 213.202 385.88 206.145C386.043 201.082 392.037 188.421 396.661 182.635C403.354 174.263 409.409 173.427 409.409 173.427C430.119 138.15 396.849 152.424 375.177 140.394Z" fill="#EBC5B8"/>
<path fill-rule="evenodd" clip-rule="evenodd" d="M344.328 128.577C346.702 121.118 368.74 106.907 369.599 112.913C370.457 118.919 370.591 135.999 374.254 141.793C375.347 143.522 344.746 159.016 344.667 158.642C343.869 154.913 350.419 147.079 344.328 128.577Z" fill="#EBC5B8"/>
<path fill-rule="evenodd" clip-rule="evenodd" d="M396.759 133.507L392.776 148.237C391.27 159.101 370.129 150.52 372.905 140.326L378.479 125.372L396.759 133.507Z" fill="#E3AB84"/>
<path fill-rule="evenodd" clip-rule="evenodd" d="M396.759 133.507L393.824 144.356C389.228 149.893 374.353 143.181 374.974 134.772L381.53 115.877L396.759 133.507Z" fill="#D67F54"/>
<path fill-rule="evenodd" clip-rule="evenodd" d="M381.422 124.43C376.974 102.193 379.965 82.48 407.136 91.492C430.779 99.334 413.693 141.076 400.16 142.475C386.629 143.875 381.821 126.427 381.422 124.43Z" fill="#E3AB84"/>
<path fill-rule="evenodd" clip-rule="evenodd" d="M376.243 106.944C371.851 106.754 370.719 120.991 377.505 122.772C384.465 124.598 386.247 107.378 376.243 106.944Z" fill="#E3AB84"/>
<path fill-rule="evenodd" clip-rule="evenodd" d="M392.574 186.553C392.574 186.553 395.89 181.418 402.151 178.839C406.365 177.104 415.349 179.193 421.404 177.49C425.131 176.442 434.487 149.876 432.631 149.337C427.957 147.981 413.547 148.586 401.226 146.988C388.905 145.39 388.444 173.367 392.574 186.553Z" fill="#EBC5B8"/>
<path fill-rule="evenodd" clip-rule="evenodd" d="M385.204 117.044C402.667 103.853 408.593 111.603 411.103 100.04C413.875 87.274 398.688 77.098 387.261 86.721C382.611 90.637 381.266 95.149 373.813 98.792C363.906 103.634 367.417 128.563 373.499 138.904C375.137 141.688 378.207 122.33 385.204 117.044Z" fill="#593720"/>
<path fill-rule="evenodd" clip-rule="evenodd" d="M344.954 150.151C344.852 150.236 344.702 150.222 344.617 150.12C344.533 150.018 344.547 149.868 344.648 149.783C345.611 148.983 348.449 146.782 352.605 144.913C355.076 143.802 358.015 142.807 361.306 142.292C361.436 142.272 361.559 142.361 361.579 142.492C361.599 142.622 361.509 142.744 361.379 142.765C358.136 143.272 355.237 144.254 352.8 145.35C348.698 147.195 345.902 149.363 344.954 150.151Z" fill="#D57C62"/>
<path fill-rule="evenodd" clip-rule="evenodd" d="M349.555 183.882C349.493 183.765 349.538 183.62 349.656 183.558C349.773 183.497 349.918 183.541 349.979 183.659C351.735 186.974 354.907 190.834 359.375 193.871C362.906 196.27 367.246 198.156 372.335 198.85C372.466 198.868 372.558 198.988 372.54 199.12C372.522 199.251 372.401 199.343 372.271 199.326C367.103 198.621 362.694 196.706 359.108 194.268C354.566 191.181 351.341 187.255 349.555 183.882Z" fill="#D57C62"/>
<path fill-rule="evenodd" clip-rule="evenodd" d="M352.06 73.751C351.944 73.814 351.798 73.77 351.736 73.653C351.672 73.536 351.716 73.391 351.834 73.328C351.844 73.323 355.439 71.345 359.934 72.604C360.061 72.64 360.136 72.772 360.1 72.9C360.064 73.028 359.932 73.102 359.804 73.066C355.497 71.86 352.069 73.745 352.06 73.751Z" fill="#B58460"/>
<path fill-rule="evenodd" clip-rule="evenodd" d="M466.547 151.679C466.465 151.574 466.484 151.424 466.588 151.342C466.693 151.261 466.844 151.279 466.926 151.384C466.93 151.389 468.379 153.201 468.736 158.381C468.744 158.513 468.644 158.628 468.511 158.637C468.38 158.646 468.265 158.545 468.257 158.413C467.91 153.383 466.551 151.685 466.547 151.679Z" fill="#B58460"/>
<path fill-rule="evenodd" clip-rule="evenodd" d="M385.853 204.58C385.93 204.474 386.081 204.449 386.188 204.526C386.294 204.604 386.32 204.753 386.243 204.861L379.904 213.664C379.827 213.77 379.677 213.795 379.571 213.718C379.463 213.641 379.438 213.491 379.515 213.383L385.853 204.58Z" fill="#D57C62"/>
<path fill-rule="evenodd" clip-rule="evenodd" d="M396.135 115.739C396.035 116.054 395.699 116.228 395.385 116.128C395.07 116.029 394.895 115.692 394.995 115.378C395.091 115.077 395.239 114.794 395.435 114.548C395.627 114.307 395.865 114.096 396.145 113.931C396.763 113.564 397.471 113.483 398.117 113.648C398.763 113.813 399.346 114.225 399.714 114.844C399.947 115.236 400.066 115.666 400.077 116.096C400.091 116.538 399.99 116.977 399.788 117.368C399.637 117.662 399.275 117.778 398.98 117.626C398.686 117.475 398.57 117.113 398.722 116.819C398.833 116.606 398.888 116.367 398.88 116.128C398.874 115.9 398.81 115.668 398.682 115.454C398.485 115.122 398.169 114.901 397.821 114.812C397.471 114.723 397.089 114.766 396.756 114.963C396.606 115.052 396.477 115.165 396.375 115.294C396.266 115.43 396.185 115.581 396.135 115.739Z" fill="#39271F"/>
<path fill-rule="evenodd" clip-rule="evenodd" d="M394.297 120.247C394.994 121.505 394.529 122.702 393.258 122.921C391.987 123.14 390.389 122.297 389.691 121.04C388.994 119.782 389.458 118.585 390.729 118.366C392 118.147 393.598 118.989 394.297 120.247Z" fill="#DA9077"/>
<path fill-rule="evenodd" clip-rule="evenodd" d="M410.935 127.535C409.54 127.885 408.983 129.042 409.693 130.12C410.403 131.198 412.11 131.788 413.505 131.438C414.901 131.088 415.457 129.931 414.747 128.853C414.037 127.775 412.331 127.186 410.935 127.535Z" fill="#DA9077"/>
<path fill-rule="evenodd" clip-rule="evenodd" d="M402.421 109.919C402.366 109.859 402.309 109.802 402.251 109.745C401.575 109.109 400.929 108.735 400.036 108.423C399.148 108.145 398.432 108.062 397.546 108.16C397.121 108.229 395.371 108.717 395.571 109.262C395.703 109.369 397.278 109.269 397.712 109.31C398.377 109.392 398.883 109.533 399.502 109.816C400.073 110.095 400.475 110.37 400.917 110.804C400.93 110.813 401.007 110.898 401.023 110.916C401.876 111.911 401.632 112.207 402.589 112.02C403.988 111.908 403.1 110.754 402.421 109.919Z" fill="#3F2716"/>
<path fill-rule="evenodd" clip-rule="evenodd" d="M412.808 114.497C412.889 114.496 412.969 114.498 413.051 114.502C413.978 114.56 414.692 114.776 415.53 115.215C416.339 115.673 416.889 116.138 417.424 116.852C417.663 117.21 418.503 118.82 417.969 119.047C417.801 119.023 416.797 117.805 416.472 117.517C415.958 117.087 415.508 116.813 414.878 116.556C414.284 116.33 413.809 116.225 413.19 116.199C413.174 116.196 413.06 116.197 413.036 116.197C411.725 116.254 411.677 116.635 411.158 115.809C410.285 114.712 411.735 114.572 412.808 114.497Z" fill="#3F2716"/>
<path fill-rule="evenodd" clip-rule="evenodd" d="M394.481 125.5C396.382 126.296 398.27 127.102 400.154 127.918C402.038 128.734 403.916 129.563 405.797 130.406C404.511 133.372 401.125 133.163 398.403 131.983L398.395 131.978L398.383 131.974C395.662 130.794 393.195 128.466 394.481 125.5Z" fill="white"/>
<path fill-rule="evenodd" clip-rule="evenodd" d="M396.329 133.181C396.251 133.074 396.274 132.924 396.381 132.846C396.488 132.768 396.638 132.791 396.716 132.898C396.946 133.212 397.296 133.471 397.685 133.639C398.074 133.807 398.496 133.884 398.869 133.833C399 133.815 399.121 133.907 399.138 134.039C399.156 134.17 399.064 134.291 398.932 134.309C398.473 134.372 397.96 134.281 397.495 134.079C397.03 133.877 396.608 133.563 396.329 133.181Z" fill="#D67F54"/>
<path fill-rule="evenodd" clip-rule="evenodd" d="M402.425 125.13C402.304 125.078 402.248 124.937 402.301 124.816C402.353 124.695 402.494 124.639 402.615 124.691C403.147 124.921 403.784 125.192 404.318 125.323C404.755 125.43 405.102 125.45 405.182 125.264C405.455 124.632 406.534 120.367 406.538 120.354C406.57 120.225 406.7 120.148 406.829 120.179C406.958 120.211 407.036 120.342 407.003 120.471C407.001 120.483 405.914 124.779 405.622 125.453C405.419 125.921 404.866 125.951 404.204 125.788C403.638 125.65 402.975 125.369 402.425 125.13Z" fill="#D67F54"/>
<path fill-rule="evenodd" clip-rule="evenodd" d="M410.399 121.997C410.299 122.312 409.963 122.486 409.648 122.387C409.333 122.287 409.159 121.951 409.258 121.636C409.354 121.335 409.502 121.053 409.699 120.806C409.891 120.565 410.128 120.355 410.409 120.189C411.026 119.823 411.735 119.742 412.38 119.906C413.025 120.071 413.607 120.482 413.976 121.102L413.977 121.103L413.979 121.102C414.21 121.493 414.329 121.924 414.341 122.353C414.355 122.796 414.254 123.235 414.052 123.626C413.901 123.92 413.539 124.036 413.244 123.884C412.949 123.733 412.834 123.371 412.986 123.076C413.096 122.863 413.151 122.625 413.144 122.386C413.138 122.158 413.073 121.926 412.945 121.711L412.947 121.71C412.75 121.379 412.434 121.158 412.085 121.069C411.734 120.98 411.352 121.023 411.019 121.22C410.869 121.309 410.741 121.422 410.639 121.551C410.53 121.688 410.45 121.839 410.399 121.997Z" fill="#39271F"/>
<path fill-rule="evenodd" clip-rule="evenodd" d="M410.266 102.556C413.73 104.287 416.8 114.179 414.966 125.08C413.77 132.192 425.719 125.859 423.224 116.955C420.092 105.778 422.087 78.8191 401.246 91.7811C391.586 97.7911 410.266 102.556 410.266 102.556Z" fill="#593720"/>
<path fill-rule="evenodd" clip-rule="evenodd" d="M358.717 39.301L358.817 22.261L345.65 17.67L346.132 42.578C346.132 42.578 358.466 50.626 358.717 39.301Z" fill="#E3AB84"/>
<path fill-rule="evenodd" clip-rule="evenodd" d="M353.677 23.162C353.677 23.162 347.66 22.918 345.697 20.235C343.937 17.831 342.605 7.81402 344.666 5.43002C345.26 4.09902 346.112 2.87802 346.966 2.94602C348.163 3.04202 348.595 4.43202 348.595 4.43202C348.595 4.43202 349.266 1.36502 351.086 1.55702C352.449 1.70002 353.061 2.62102 353.281 3.07602C353.322 3.06802 353.363 3.06102 353.403 3.05502C353.468 2.31302 353.79 0.320024 355.351 0.359024C357.267 0.407024 358.225 2.32302 358.129 3.04202C358.033 3.76102 359.135 0.886024 360.525 1.07802C361.915 1.27002 362.633 2.32403 362.681 3.66503C362.693 3.98303 362.704 4.33702 362.714 4.69502C365.579 9.54702 359.188 23.954 353.677 23.162Z" fill="#E4AE7C"/>
<path fill-rule="evenodd" clip-rule="evenodd" d="M358.116 23.516C359.917 20.741 366.297 14.051 364.473 10.197C362.702 6.45403 351.681 6.56303 354.272 9.73503C355.72 11.507 359.069 11.961 359.069 11.961C353.023 12.743 347.816 20.477 358.116 23.516Z" fill="#E3AB84"/>
<path fill-rule="evenodd" clip-rule="evenodd" d="M362.97 8.91204C363.062 9.00704 363.058 9.15904 362.963 9.25005C362.867 9.34205 362.716 9.33904 362.624 9.24404C361.092 7.65304 358.301 7.27204 356.317 7.61904C355.779 7.71304 355.303 7.86205 354.934 8.05405C354.589 8.23305 354.345 8.44505 354.239 8.68005C354.124 8.93405 354.179 9.23905 354.459 9.58305C355.847 11.281 359.094 11.722 359.103 11.723C359.235 11.741 359.326 11.862 359.308 11.994C359.292 12.108 359.199 12.192 359.088 12.2C357.284 12.436 355.559 13.309 354.321 14.491C353.132 15.627 352.402 17.043 352.507 18.442C352.516 18.574 352.416 18.689 352.284 18.699C352.152 18.709 352.037 18.61 352.027 18.477C351.912 16.927 352.701 15.374 353.991 14.144C355.031 13.15 356.401 12.363 357.881 11.958C356.741 11.661 355.034 11.046 354.087 9.88705C353.675 9.38305 353.61 8.90805 353.801 8.48405C353.954 8.14505 354.275 7.85705 354.712 7.63005C355.124 7.41605 355.648 7.25104 356.233 7.14904C358.34 6.77704 361.317 7.19504 362.97 8.91204Z" fill="#B58460"/>
<path fill-rule="evenodd" clip-rule="evenodd" d="M345.095 8.56305C345.089 8.43105 345.192 8.31905 345.324 8.31305C345.456 8.30704 345.568 8.40905 345.575 8.54105C345.693 10.905 345.938 12.388 346.346 13.339C346.733 14.239 347.272 14.648 347.997 14.889C348.052 14.907 348.103 14.917 348.153 14.92C348.39 14.933 348.589 14.738 348.752 14.392C348.947 13.979 349.083 13.375 349.171 12.652C349.345 11.218 349.327 9.34204 349.216 7.55904C349.12 6.03004 348.794 4.89805 348.359 4.14505C348.133 3.75305 347.879 3.46704 347.616 3.28604C347.371 3.11704 347.118 3.04105 346.876 3.05605C346.718 3.06605 346.561 3.11505 346.412 3.20105C345.276 3.85605 345.143 5.45305 345.142 5.45805C345.13 5.59005 345.014 5.68804 344.881 5.67604C344.749 5.66504 344.652 5.54805 344.663 5.41605C344.663 5.41105 344.817 3.56804 346.173 2.78604C346.387 2.66204 346.614 2.59204 346.845 2.57804H346.846C347.196 2.55604 347.55 2.66004 347.888 2.89204C348.206 3.11204 348.509 3.45004 348.773 3.90704C349.243 4.71904 349.593 5.92304 349.694 7.53104C349.807 9.34004 349.825 11.246 349.647 12.708C349.553 13.479 349.405 14.134 349.186 14.597C348.935 15.127 348.589 15.424 348.125 15.399C348.036 15.394 347.942 15.376 347.846 15.343C346.991 15.058 346.356 14.579 345.905 13.528C345.474 12.526 345.217 10.991 345.095 8.56305Z" fill="#C09162"/>
<path fill-rule="evenodd" clip-rule="evenodd" d="M349.184 12.806C349.137 12.682 349.2 12.544 349.324 12.496C349.448 12.449 349.587 12.511 349.633 12.635C349.86 13.233 350.169 13.673 350.517 13.95C350.738 14.127 350.976 14.238 351.218 14.281C351.457 14.323 351.701 14.3 351.941 14.208C352.248 14.092 352.548 13.866 352.816 13.529C353.38 12.825 353.712 10.66 353.731 8.36204C353.751 6.21504 353.49 3.97204 352.883 2.71404C352.678 2.28704 352.441 2.00104 352.187 1.82804C351.868 1.60904 351.512 1.57104 351.159 1.65204C350.782 1.73904 350.404 1.95704 350.064 2.24104C349.526 2.69004 349.094 3.29204 348.918 3.79204C348.873 3.91704 348.736 3.98204 348.611 3.93804C348.487 3.89404 348.421 3.75704 348.465 3.63204C348.668 3.05904 349.154 2.37504 349.756 1.87304C350.148 1.54404 350.596 1.28904 351.052 1.18504C351.53 1.07504 352.015 1.13004 352.458 1.43304C352.777 1.65104 353.069 1.99804 353.314 2.50604C353.954 3.83304 354.228 6.15604 354.209 8.36704C354.188 10.758 353.818 13.042 353.189 13.828C352.862 14.236 352.493 14.512 352.111 14.658C351.789 14.781 351.459 14.812 351.135 14.755C350.815 14.698 350.504 14.554 350.218 14.324C349.804 13.994 349.442 13.485 349.184 12.806Z" fill="#C09162"/>
<path fill-rule="evenodd" clip-rule="evenodd" d="M353.327 13.0421C353.256 12.9311 353.289 12.7821 353.4 12.7111C353.511 12.6401 353.659 12.6721 353.73 12.7841C354.003 13.2141 354.424 13.3111 354.887 13.2501C355.403 13.1831 355.984 12.9271 356.495 12.6931C357.418 12.2741 357.457 11.6021 357.457 11.6001C357.467 11.4681 357.583 11.3691 357.715 11.3791C357.848 11.3891 357.946 11.5051 357.936 11.6371C357.936 11.6401 357.879 12.5921 356.693 13.1311C356.151 13.3771 355.536 13.6481 354.95 13.7251C354.311 13.8091 353.725 13.6661 353.327 13.0421Z" fill="#C09162"/>
<path fill-rule="evenodd" clip-rule="evenodd" d="M358.364 7.10104C358.345 7.23204 358.225 7.32304 358.094 7.30504C357.962 7.28604 357.87 7.16504 357.889 7.03404C358.15 5.23904 358.186 4.00504 358.011 3.06804C357.841 2.15504 357.466 1.51904 356.897 0.905038C356.7 0.691038 356.468 0.565038 356.224 0.512038C355.922 0.446038 355.597 0.487039 355.281 0.604039C354.95 0.727039 354.632 0.931038 354.358 1.18304C353.968 1.54404 353.673 2.00404 353.571 2.47004C353.543 2.60004 353.415 2.68204 353.286 2.65404C353.156 2.62604 353.074 2.49804 353.101 2.36804C353.224 1.80604 353.575 1.25704 354.034 0.832038C354.354 0.535038 354.727 0.297039 355.114 0.154039L355.115 0.155038C355.515 0.00603813 355.932 -0.0439608 356.325 0.0420392C356.662 0.116039 356.977 0.287039 357.249 0.580039C357.878 1.26004 358.294 1.96504 358.482 2.98104C358.668 3.97304 358.632 5.25404 358.364 7.10104Z" fill="#C09162"/>
<path fill-rule="evenodd" clip-rule="evenodd" d="M358.481 2.67805C358.418 2.79505 358.271 2.83705 358.155 2.77305C358.039 2.71005 357.998 2.56405 358.06 2.44705C358.333 1.94905 358.732 1.53105 359.187 1.24805C359.537 1.03105 359.922 0.892052 360.313 0.857052C360.711 0.822052 361.112 0.894051 361.486 1.09805C361.826 1.28505 362.14 1.58105 362.404 2.00405C363.548 3.84305 363.208 8.83905 363.207 8.85405C363.198 8.98605 363.084 9.08605 362.952 9.07805C362.82 9.07005 362.72 8.95605 362.728 8.82405C362.729 8.81005 363.057 3.96405 361.997 2.25805C361.778 1.90805 361.525 1.66705 361.255 1.51905C360.97 1.36205 360.661 1.30705 360.356 1.33405C360.043 1.36205 359.73 1.47605 359.442 1.65505C359.054 1.89705 358.715 2.25305 358.481 2.67805Z" fill="#C09162"/>
<path fill-rule="evenodd" clip-rule="evenodd" d="M515.101 144.3C515.101 144.3 517.316 149.9 520.498 150.868C523.348 151.736 533.244 149.69 534.812 146.958C535.875 145.959 536.746 144.751 536.398 143.967C535.914 142.868 534.459 142.919 534.459 142.919C534.459 142.919 537.133 141.274 536.351 139.619C535.765 138.381 534.695 138.107 534.193 138.048C534.187 138.007 534.179 137.966 534.172 137.926C534.852 137.62 536.627 136.658 536.076 135.197C535.398 133.404 533.271 133.132 532.625 133.459C531.978 133.786 534.33 131.798 533.689 130.549C533.05 129.301 531.818 128.969 530.535 129.367C530.232 129.461 529.892 129.568 529.553 129.675C524.027 128.572 512.535 139.358 515.101 144.3Z" fill="#E4AE7C"/>
<path fill-rule="evenodd" clip-rule="evenodd" d="M513.303 140.225C515.328 137.61 519.539 129.381 523.778 129.83C527.897 130.267 531.43 140.707 527.581 139.307C525.431 138.525 523.898 135.512 523.898 135.512C525.152 141.479 519.57 148.946 513.303 140.225Z" fill="#E3AB84"/>
<path fill-rule="evenodd" clip-rule="evenodd" d="M525.288 131.262C525.167 131.207 525.114 131.065 525.169 130.945C525.224 130.825 525.366 130.772 525.485 130.827C527.653 131.821 529.03 134.493 529.374 136.602C529.472 137.19 529.489 137.737 529.423 138.197C529.353 138.686 529.185 139.083 528.917 139.339C528.581 139.66 528.11 139.755 527.499 139.532C526.091 139.02 524.948 137.613 524.292 136.634C524.398 138.163 524.107 139.717 523.511 141.027C522.775 142.65 521.57 143.908 520.068 144.31C519.941 144.344 519.808 144.268 519.775 144.141C519.742 144.013 519.816 143.881 519.945 143.847C521.299 143.485 522.394 142.327 523.074 140.83C523.783 139.27 524.037 137.349 523.662 135.566C523.639 135.462 523.687 135.351 523.785 135.299C523.904 135.238 524.049 135.284 524.109 135.403C524.113 135.411 525.601 138.332 527.662 139.081C528.08 139.233 528.385 139.183 528.588 138.992C528.774 138.813 528.895 138.512 528.949 138.129C529.008 137.716 528.992 137.219 528.902 136.679C528.575 134.692 527.294 132.183 525.288 131.262Z" fill="#B58460"/>
<path fill-rule="evenodd" clip-rule="evenodd" d="M531.577 147.125C531.702 147.088 531.837 147.16 531.874 147.288C531.911 147.414 531.839 147.548 531.712 147.585C529.382 148.271 527.847 148.534 526.759 148.458C525.616 148.378 524.954 147.938 524.404 147.224C524.341 147.144 524.295 147.062 524.259 146.978C524.083 146.549 524.249 146.125 524.665 145.713C525.03 145.355 525.599 144.998 526.298 144.655C527.622 144.003 529.427 143.391 531.169 142.902C532.722 142.466 533.972 142.4 534.894 142.575C535.412 142.673 535.832 142.848 536.144 143.077C536.474 143.319 536.691 143.62 536.785 143.957C536.848 144.18 536.857 144.417 536.81 144.66C536.519 146.197 534.83 146.95 534.826 146.952C534.705 147.007 534.562 146.953 534.508 146.832C534.453 146.711 534.508 146.569 534.629 146.515C534.633 146.513 536.096 145.86 536.34 144.571C536.373 144.401 536.365 144.238 536.322 144.086C536.258 143.852 536.103 143.639 535.861 143.464C535.605 143.275 535.252 143.131 534.806 143.046C533.95 142.884 532.775 142.949 531.3 143.363C529.577 143.846 527.8 144.448 526.507 145.085C525.855 145.406 525.329 145.733 525.003 146.055C524.73 146.323 524.61 146.574 524.702 146.795C524.72 146.84 524.747 146.885 524.782 146.931C525.251 147.536 525.813 147.911 526.79 147.979C527.823 148.051 529.304 147.794 531.577 147.125Z" fill="#C09162"/>
<path fill-rule="evenodd" clip-rule="evenodd" d="M526.371 144.646C526.502 144.649 526.605 144.759 526.603 144.892C526.599 145.024 526.49 145.128 526.357 145.125C525.63 145.105 525.031 144.932 524.584 144.651C524.271 144.457 524.033 144.21 523.875 143.927C523.713 143.641 523.635 143.319 523.645 142.973C523.657 142.563 523.793 142.124 524.071 141.682C524.606 140.828 526.641 139.726 528.891 138.917C530.971 138.17 533.254 137.662 534.717 137.829C535.278 137.892 535.701 138.054 536.012 138.284C536.446 138.602 536.658 139.042 536.711 139.53C536.764 139.994 536.67 140.5 536.488 140.98C536.213 141.714 535.728 142.398 535.254 142.78C535.151 142.863 535 142.846 534.918 142.743C534.834 142.64 534.852 142.489 534.955 142.406C535.367 142.074 535.793 141.467 536.041 140.811C536.195 140.397 536.277 139.967 536.234 139.583C536.195 139.223 536.041 138.9 535.728 138.67C535.482 138.488 535.134 138.359 534.664 138.306C533.275 138.148 531.072 138.642 529.051 139.369C526.889 140.146 524.955 141.174 524.477 141.937C524.247 142.304 524.131 142.661 524.124 142.988C524.116 143.243 524.175 143.483 524.294 143.694C524.415 143.908 524.599 144.096 524.837 144.247C525.213 144.482 525.732 144.628 526.371 144.646Z" fill="#C09162"/>
<path fill-rule="evenodd" clip-rule="evenodd" d="M524.878 140.824C525.007 140.854 525.089 140.984 525.058 141.113C525.029 141.242 524.9 141.322 524.771 141.292C524.05 141.123 523.722 140.616 523.589 139.985C523.468 139.409 523.521 138.736 523.575 138.142C523.69 136.846 524.575 136.477 524.577 136.476C524.7 136.425 524.839 136.482 524.89 136.604C524.943 136.726 524.886 136.866 524.763 136.917C524.761 136.918 524.144 137.176 524.052 138.185C524.001 138.744 523.95 139.376 524.058 139.888C524.153 140.344 524.384 140.709 524.878 140.824Z" fill="#C09162"/>
<path fill-rule="evenodd" clip-rule="evenodd" d="M528.937 135C528.82 135.062 528.673 135.016 528.613 134.898C528.552 134.78 528.597 134.635 528.715 134.574C530.371 133.712 531.57 133.255 532.568 133.102C533.588 132.946 534.39 133.105 535.24 133.476C535.605 133.635 535.873 133.877 536.053 134.17C536.264 134.513 536.354 134.923 536.346 135.35C536.338 135.765 536.237 136.197 536.063 136.595C535.813 137.169 535.411 137.68 534.92 137.982C534.807 138.051 534.658 138.016 534.59 137.903C534.522 137.79 534.557 137.642 534.668 137.572C535.076 137.323 535.41 136.891 535.623 136.403C535.773 136.061 535.859 135.693 535.867 135.343C535.873 135.005 535.804 134.684 535.642 134.422C535.511 134.209 535.316 134.032 535.048 133.915C534.28 133.581 533.556 133.437 532.638 133.578C531.697 133.722 530.545 134.164 528.937 135Z" fill="#C09162"/>
<path fill-rule="evenodd" clip-rule="evenodd" d="M533.207 133.327C533.117 133.425 532.967 133.433 532.867 133.345C532.769 133.256 532.761 133.105 532.849 133.006C533.175 132.645 533.4 132.208 533.499 131.764C533.571 131.433 533.575 131.099 533.499 130.793C533.423 130.496 533.271 130.223 533.028 130.005C532.8 129.799 532.487 129.638 532.087 129.549C530.126 129.11 525.659 131.02 525.648 131.025C525.525 131.077 525.384 131.021 525.334 130.899C525.281 130.777 525.338 130.636 525.461 130.585C525.475 130.58 530.078 128.61 532.191 129.083C532.679 129.192 533.062 129.391 533.349 129.65C533.665 129.935 533.867 130.29 533.964 130.678C534.06 131.056 534.056 131.466 533.966 131.868C533.849 132.391 533.586 132.905 533.207 133.327Z" fill="#C09162"/>
<path fill-rule="evenodd" clip-rule="evenodd" d="M373.933 130.484C373.933 130.617 373.826 130.724 373.693 130.724C373.56 130.724 373.453 130.617 373.453 130.484C373.453 125.391 374.719 120.816 377.074 117.179C379.39 113.601 382.76 110.933 387.013 109.573L387.425 109.441C395.671 106.803 401.932 104.799 404.73 102.332C407.547 99.846 408.21 95.703 408.211 95.691C408.232 95.561 408.355 95.472 408.486 95.493C408.617 95.514 408.706 95.638 408.683 95.768C408.681 95.781 407.992 100.09 405.045 102.69C402.172 105.225 395.87 107.242 387.569 109.898L387.158 110.03C383.014 111.356 379.73 113.955 377.475 117.441C375.171 120.998 373.933 125.482 373.933 130.484Z" fill="#3F2716"/>
<path fill-rule="evenodd" clip-rule="evenodd" d="M406.301 92.369C406.378 92.261 406.528 92.236 406.636 92.312C406.743 92.389 406.769 92.539 406.693 92.646C404.557 95.635 402.89 97.771 400.42 99.415C397.956 101.054 394.708 102.188 389.417 103.17C384.203 104.137 380.57 105.794 378.055 107.744C375.555 109.682 374.159 111.911 373.409 114.034C371.901 118.307 372.402 123.157 372.403 123.171C372.417 123.303 372.32 123.419 372.188 123.432C372.056 123.445 371.939 123.348 371.926 123.217C371.925 123.202 371.412 118.248 372.955 113.874C373.732 111.675 375.176 109.368 377.761 107.364C380.332 105.372 384.032 103.681 389.33 102.698C394.55 101.73 397.745 100.617 400.154 99.015C402.559 97.416 404.197 95.314 406.301 92.369Z" fill="#3F2716"/>
<path fill-rule="evenodd" clip-rule="evenodd" d="M371.785 109.571C371.725 109.688 371.58 109.735 371.463 109.674C371.345 109.613 371.298 109.468 371.359 109.351C372.64 106.874 373.9 104.525 375.845 102.644C377.797 100.757 380.424 99.356 384.423 98.796C389.73 98.054 393.146 94.603 395.791 91.929C397.042 90.664 398.126 89.571 399.176 88.99C402.54 87.131 405.962 90.025 405.971 90.034C406.073 90.118 406.086 90.27 406.002 90.371C405.917 90.473 405.767 90.487 405.665 90.402C405.656 90.394 402.483 87.71 399.406 89.411C398.416 89.958 397.356 91.029 396.131 92.267C393.436 94.991 389.956 98.507 384.489 99.271C380.604 99.814 378.061 101.167 376.176 102.989C374.288 104.818 373.048 107.131 371.785 109.571Z" fill="#3F2716"/>
<path fill-rule="evenodd" clip-rule="evenodd" d="M416.452 102.951C416.396 102.831 416.447 102.688 416.567 102.633C416.687 102.577 416.829 102.629 416.885 102.748C418.734 106.687 418.885 110.756 419.038 114.833C419.208 119.394 419.379 123.966 421.96 128.328C423.916 131.632 426.165 134.718 428.163 137.461C431.216 141.651 433.692 145.05 433.692 147.269C433.692 147.401 433.584 147.509 433.453 147.509C433.319 147.509 433.212 147.401 433.212 147.269C433.212 145.203 430.777 141.861 427.776 137.743C425.766 134.986 423.507 131.885 421.548 128.572C418.905 124.108 418.732 119.473 418.559 114.85C418.409 110.821 418.259 106.801 416.452 102.951Z" fill="#3F2716"/>
<path fill-rule="evenodd" clip-rule="evenodd" d="M126.232 390.587C125.141 400.427 142.325 438.472 151.803 428.821C158.221 422.286 147.878 406.339 150.396 389.227C153.659 367.054 127.312 380.847 126.232 390.587Z" fill="#160831"/>
<path fill-rule="evenodd" clip-rule="evenodd" d="M78.3147 305.828C68.4127 305.828 32.4937 327.099 43.1297 335.457C50.3317 341.115 65.0427 329.078 82.3267 329.695C104.726 330.496 88.1137 305.828 78.3147 305.828Z" fill="#160831"/>
<path fill-rule="evenodd" clip-rule="evenodd" d="M210.492 352.591L152.287 395.105C140.378 392.068 137.878 384.72 144.132 377.267L186.64 326.624C186.64 326.624 219.762 337.584 210.492 352.591Z" fill="#7B8FC6"/>
<path fill-rule="evenodd" clip-rule="evenodd" d="M147.7 312.558L87.3985 312.994C82.6015 314.06 79.9335 318.885 79.8255 323.185C79.7395 326.656 80.9235 329.683 87.0415 331.076L144.293 344.121L151.69 344.76C151.69 344.76 178.28 328.187 147.7 312.558Z" fill="#7B8FC6"/>
<path fill-rule="evenodd" clip-rule="evenodd" d="M164.667 220.573C164.667 220.573 149.476 259.926 143.679 297.574C137.883 335.224 143.947 345.265 152.864 344.73C179.455 343.132 207.614 244.148 206.017 224.822C204.663 208.445 164.667 220.573 164.667 220.573Z" fill="#7B8FC6"/>
<path fill-rule="evenodd" clip-rule="evenodd" d="M188.401 272.138C188.401 272.138 182.429 314.499 185.644 334.259C187.901 348.132 204.45 361.411 211.879 351.601C221.585 338.785 224.399 276.567 225.475 237.067C225.762 226.555 214.345 206.82 214.482 200.886L195.064 224.838L188.401 272.138Z" fill="#7B8FC6"/>
<path fill-rule="evenodd" clip-rule="evenodd" d="M142.196 310.902C142.211 310.757 142.105 310.627 141.96 310.613C141.815 310.597 141.685 310.703 141.67 310.847C141.515 312.322 141.381 313.732 141.269 315.075C141.155 316.44 141.059 317.766 140.982 319.059C140.974 319.204 141.085 319.329 141.23 319.338C141.376 319.346 141.501 319.234 141.509 319.09C141.585 317.826 141.68 316.502 141.796 315.119C141.912 313.746 142.045 312.339 142.196 310.902ZM183.427 306.398C183.369 306.531 183.431 306.687 183.565 306.744C183.698 306.803 183.854 306.74 183.911 306.607C190.692 290.964 194.089 277.808 195.394 265.519C196.699 253.23 195.913 241.812 194.326 229.644C194.308 229.499 194.175 229.398 194.031 229.417C193.886 229.436 193.784 229.568 193.803 229.713C195.385 241.843 196.169 253.223 194.869 265.463C193.569 277.703 190.184 290.81 183.427 306.398Z" fill="#3F467B"/>
<path fill-rule="evenodd" clip-rule="evenodd" d="M135.436 317.187C135.358 317.31 135.394 317.472 135.517 317.55C135.64 317.628 135.803 317.593 135.881 317.47C136.6 316.345 137.471 315.199 138.486 314.242C139.49 313.295 140.634 312.533 141.907 312.166C142.047 312.125 142.128 311.978 142.087 311.84C142.046 311.699 141.9 311.619 141.76 311.66C140.398 312.053 139.184 312.857 138.124 313.857C137.076 314.847 136.177 316.027 135.436 317.187Z" fill="#3F467B"/>
<path fill-rule="evenodd" clip-rule="evenodd" d="M184.987 328.931C184.976 328.786 184.85 328.677 184.704 328.687C184.558 328.699 184.45 328.826 184.46 328.97C184.525 329.829 184.604 330.663 184.697 331.47C184.787 332.249 184.891 333.009 185.01 333.742C185.326 335.683 185.92 337.59 186.733 339.408C187.586 341.318 188.68 343.133 189.946 344.793C190.034 344.908 190.2 344.932 190.316 344.844C190.432 344.754 190.454 344.588 190.366 344.473C189.124 342.844 188.051 341.065 187.215 339.194C186.42 337.417 185.839 335.553 185.531 333.657C185.415 332.942 185.312 332.192 185.222 331.411C185.13 330.611 185.052 329.785 184.987 328.931Z" fill="#3F467B"/>
<path fill-rule="evenodd" clip-rule="evenodd" d="M185.556 329.623C185.647 329.51 185.628 329.344 185.515 329.252C185.402 329.162 185.236 329.18 185.145 329.295C183.804 330.971 182.661 333.566 182.104 336.408C181.615 338.908 181.577 341.607 182.253 344.051C182.292 344.192 182.437 344.274 182.578 344.235C182.719 344.196 182.801 344.051 182.762 343.911C182.109 341.554 182.148 338.938 182.623 336.511C183.164 333.748 184.267 331.234 185.556 329.623Z" fill="#3F467B"/>
<path fill-rule="evenodd" clip-rule="evenodd" d="M204.039 247.276C204.04 247.13 203.923 247.011 203.777 247.01C203.631 247.009 203.512 247.126 203.511 247.272C203.51 247.353 203.276 275.433 193.86 275.251C193.714 275.248 193.594 275.364 193.592 275.511C193.59 275.656 193.706 275.776 193.852 275.779C203.803 275.97 204.038 247.359 204.039 247.276Z" fill="#3F467B"/>
<path fill-rule="evenodd" clip-rule="evenodd" d="M250.088 30.0448L257.115 36.2978C257.115 36.2978 244.967 67.3998 234.963 82.5078C224.959 97.6168 217.907 79.6988 217.907 79.6988C224.856 64.9498 232.427 54.7948 250.088 30.0448Z" fill="#E3AB84"/>
<path fill-rule="evenodd" clip-rule="evenodd" d="M219.347 76.8408C206.737 101.332 201.056 103.035 186.356 120.735C192.009 125.208 197.432 133.275 201.056 145.439C212.338 124.839 224.859 102.969 234.891 82.4148L219.347 76.8408Z" fill="#E3AB84"/>
<path fill-rule="evenodd" clip-rule="evenodd" d="M248.164 32.7328L250.738 9.57681C255.222 9.93281 254.131 15.8388 254.394 19.1358C260.442 27.5098 252.461 36.9208 248.164 32.7328Z" fill="#E3AB84"/>
<path fill-rule="evenodd" clip-rule="evenodd" d="M248.803 31.8488C249.345 29.2498 253.851 16.6728 258.631 15.9988C261.971 15.5278 267.644 26.5988 265.255 30.8878C257.238 45.2738 250.563 39.8158 248.803 31.8488Z" fill="#E3AB84"/>
<path fill-rule="evenodd" clip-rule="evenodd" d="M261.573 24.3158L274.613 11.9778C274.613 11.9778 273.66 9.65881 269.714 12.3108C265.767 14.9638 259.434 20.2018 259.434 20.2018L261.573 24.3158Z" fill="#E3AB84"/>
<path fill-rule="evenodd" clip-rule="evenodd" d="M257.449 22.9938C257.546 22.8628 268.371 8.56381 266.736 7.12181C265.101 5.68081 256.072 17.4648 254.559 19.2448L257.449 22.9938Z" fill="#E3AB84"/>
<path fill-rule="evenodd" clip-rule="evenodd" d="M262.504 28.6528L277.008 17.6598C277.008 17.6598 276.342 15.2678 272.085 17.5228C267.828 19.7768 260.876 24.3688 260.876 24.3688L262.504 28.6528Z" fill="#E3AB84"/>
<path fill-rule="evenodd" clip-rule="evenodd" d="M260.824 33.0698L277.314 24.4928C277.314 24.4928 277.123 22.0448 272.473 23.6088C267.823 25.1728 260.051 28.6188 260.051 28.6188L260.824 33.0698Z" fill="#E3AB84"/>
<path fill-rule="evenodd" clip-rule="evenodd" d="M254.609 18.9818C254.524 18.8638 254.359 18.8368 254.241 18.9218C254.123 19.0068 254.096 19.1718 254.181 19.2898C255.568 21.2108 256.2 23.1848 256.3 25.0268C256.418 27.1978 255.8 29.1898 254.811 30.6988C254.731 30.8218 254.765 30.9848 254.887 31.0648C255.009 31.1448 255.173 31.1098 255.253 30.9878C256.298 29.3928 256.952 27.2898 256.827 24.9988C256.723 23.0628 256.061 20.9918 254.609 18.9818Z" fill="#B58460"/>
<path fill-rule="evenodd" clip-rule="evenodd" d="M220.294 82.2968C220.222 82.1698 220.061 82.1258 219.934 82.1978C219.808 82.2698 219.763 82.4308 219.835 82.5578C219.839 82.5648 221.213 85.0648 225.568 84.8748C225.714 84.8688 225.826 84.7458 225.82 84.5998C225.814 84.4538 225.691 84.3408 225.545 84.3478C221.515 84.5228 220.298 82.3028 220.294 82.2968Z" fill="#B58460"/>
<path fill-rule="evenodd" clip-rule="evenodd" d="M48.1253 201.387L54.6253 209.418C54.6253 209.418 89.3753 197.683 106.466 187.481C123.557 177.279 104.258 168.622 104.258 168.622C87.7203 175.491 76.1893 183.277 48.1253 201.387Z" fill="#E3AB84"/>
<path fill-rule="evenodd" clip-rule="evenodd" d="M101.05 170.057C128.57 157.476 130.731 151.33 150.906 136.107C155.524 142.54 164.098 148.904 177.26 153.504C154.077 164.827 129.437 177.444 106.369 187.398L101.05 170.057Z" fill="#E3AB84"/>
<path fill-rule="evenodd" clip-rule="evenodd" d="M51.173 199.415L25.633 201.052C25.793 205.991 32.329 205.096 35.934 205.554C44.811 212.619 55.547 204.344 51.173 199.415Z" fill="#E3AB84"/>
<path fill-rule="evenodd" clip-rule="evenodd" d="M50.1713 200.069C47.2923 200.53 33.2603 204.83 32.2753 210.04C31.5873 213.68 43.4433 220.473 48.2723 218.071C64.4693 210.013 58.8223 202.41 50.1713 200.069Z" fill="#E3AB84"/>
<path fill-rule="evenodd" clip-rule="evenodd" d="M41.25 213.695L27.043 227.37C27.043 227.37 24.547 226.206 27.66 222.012C30.773 217.818 36.847 211.137 36.847 211.137L41.25 213.695Z" fill="#E3AB84"/>
<path fill-rule="evenodd" clip-rule="evenodd" d="M40.0098 209.102C39.8608 209.202 23.6148 220.347 22.1168 218.479C20.6188 216.611 34.0128 207.309 36.0438 205.739L40.0098 209.102Z" fill="#E3AB84"/>
<path fill-rule="evenodd" clip-rule="evenodd" d="M45.9609 214.94L33.1549 230.291C33.1549 230.291 30.5649 229.437 33.2579 224.882C35.9499 220.326 41.3449 212.934 41.3449 212.934L45.9609 214.94Z" fill="#E3AB84"/>
<path fill-rule="evenodd" clip-rule="evenodd" d="M50.8926 213.323L40.6366 230.977C40.6366 230.977 37.9596 230.642 39.9136 225.62C41.8686 220.598 46.0476 212.247 46.0476 212.247L50.8926 213.323Z" fill="#E3AB84"/>
<path fill-rule="evenodd" clip-rule="evenodd" d="M36.0989 205.347C35.9849 205.257 35.8189 205.276 35.7279 205.389C35.6369 205.503 35.6569 205.67 35.7699 205.761C37.8969 207.453 40.1309 208.284 42.2479 208.498C44.7489 208.751 47.0849 208.144 48.8839 207.081C49.0099 207.007 49.0509 206.845 48.9769 206.719C48.9029 206.593 48.7409 206.552 48.6149 206.626C46.9039 207.636 44.6809 208.214 42.2989 207.972C40.2769 207.768 38.1389 206.971 36.0989 205.347Z" fill="#B58460"/>
<path fill-rule="evenodd" clip-rule="evenodd" d="M107.283 170.907C107.159 170.829 106.996 170.867 106.919 170.99C106.841 171.113 106.879 171.277 107.002 171.354C107.009 171.358 109.396 172.816 108.994 177.245C108.981 177.39 109.088 177.518 109.233 177.532C109.378 177.545 109.506 177.438 109.519 177.293C109.95 172.538 107.29 170.912 107.283 170.907Z" fill="#B58460"/>
<path fill-rule="evenodd" clip-rule="evenodd" d="M211.493 88.9688C210.694 88.4268 201.923 101.393 191.942 112.006C187.732 116.482 178.825 121.846 174.692 124.295C165.135 129.957 207.163 165.95 206.945 148.122C206.809 137.009 224.195 119.856 229.867 115.143C232.452 112.995 222.354 96.3348 211.493 88.9688Z" fill="#EBEBEB"/>
<path fill-rule="evenodd" clip-rule="evenodd" d="M193.432 111.24C199.805 106.219 224.151 183.62 229.301 244.388C203.905 280.03 179.852 253.38 144.674 249.809C149.932 234.46 164.026 218.436 161.03 208.791C158.558 200.833 139.494 142.796 139.696 142.583C167.259 113.452 180.104 121.741 193.432 111.24Z" fill="#EBEBEB"/>
<path fill-rule="evenodd" clip-rule="evenodd" d="M166.728 159.165C160.942 164.248 159.328 174.526 152.987 178.43C152.144 178.95 149.116 175.094 145.774 175.948C138.49 177.809 130.128 183.597 124.644 186.417C120.626 176.393 117.831 167.934 110.656 165.242C114.352 162.458 128.317 149.078 140.508 139.368C145.663 135.262 152.341 132.292 154.811 129.816C164.937 123.852 173.592 138.43 166.728 159.165Z" fill="#EBEBEB"/>
<path fill-rule="evenodd" clip-rule="evenodd" d="M169.999 106.28C172.636 109.973 176.941 115.751 179.745 121.524C191.33 145.374 163.808 137.131 159.706 128.89C157.591 124.641 155.133 119.773 151.145 115.314L169.999 106.28Z" fill="#E3AB84"/>
<path fill-rule="evenodd" clip-rule="evenodd" d="M179.674 121.381C175.556 129.225 164.327 128.344 157.565 124.717C155.888 121.61 153.876 118.366 151.146 115.313C165.982 108.205 171.365 104.422 179.674 121.381Z" fill="#D67F54"/>
<path fill-rule="evenodd" clip-rule="evenodd" d="M144.813 113.735C130.586 95.7208 122.048 79.6718 147.494 69.1858C171.461 59.3098 187.301 106.498 177.701 117.124C169.278 126.448 152.576 123.565 144.813 113.735Z" fill="#E3AB84"/>
<path fill-rule="evenodd" clip-rule="evenodd" d="M153.671 98.4248C154.832 98.5618 155.679 99.6358 155.564 100.824C155.448 102.012 154.413 102.865 153.252 102.728C152.091 102.591 151.244 101.518 151.36 100.33C151.476 99.1408 152.51 98.2888 153.671 98.4248Z" fill="#20201E"/>
<path fill-rule="evenodd" clip-rule="evenodd" d="M167.463 90.4188C166.989 91.5038 167.469 92.7918 168.535 93.2928C169.601 93.7958 170.849 93.3218 171.323 92.2368C171.797 91.1518 171.317 89.8638 170.251 89.3618C169.185 88.8608 167.936 89.3338 167.463 90.4188Z" fill="#20201E"/>
<path fill-rule="evenodd" clip-rule="evenodd" d="M155.277 106.589C156.781 106.813 157.506 107.997 156.899 109.234C156.291 110.471 154.578 111.293 153.075 111.069C151.571 110.845 150.845 109.661 151.453 108.424C152.061 107.187 153.773 106.365 155.277 106.589Z" fill="#DA9077"/>
<path fill-rule="evenodd" clip-rule="evenodd" d="M173.567 95.9728C172.993 97.4028 173.628 98.6398 174.985 98.7358C176.343 98.8318 177.909 97.7508 178.484 96.3208C179.058 94.8908 178.423 93.6538 177.066 93.5578C175.708 93.4618 174.141 94.5438 173.567 95.9728Z" fill="#DA9077"/>
<path fill-rule="evenodd" clip-rule="evenodd" d="M151.583 92.8318C151.498 92.8408 151.414 92.8508 151.329 92.8638C150.366 93.0278 149.646 93.3388 148.823 93.9018C148.033 94.4828 147.516 95.0448 147.045 95.8708C146.839 96.2818 146.16 98.1058 146.748 98.2918C146.921 98.2478 147.82 96.8268 148.125 96.4818C148.609 95.9628 149.046 95.6198 149.673 95.2728C150.266 94.9648 150.75 94.7998 151.395 94.7048C151.411 94.6988 151.531 94.6878 151.556 94.6858C152.934 94.6028 153.033 95.0078 153.472 94.0618C154.249 92.7868 152.715 92.7948 151.583 92.8318Z" fill="#3F2716"/>
<path fill-rule="evenodd" clip-rule="evenodd" d="M163.668 85.8168C163.719 85.7468 163.771 85.6788 163.824 85.6108C164.452 84.8518 165.082 84.3798 165.977 83.9448C166.871 83.5488 167.61 83.3808 168.55 83.3888C169.003 83.4178 170.894 83.7498 170.754 84.3588C170.629 84.4878 168.968 84.5528 168.521 84.6448C167.835 84.8058 167.322 85.0128 166.71 85.3858C166.147 85.7478 165.762 86.0878 165.353 86.6038C165.34 86.6148 165.27 86.7138 165.255 86.7348C164.485 87.8988 164.777 88.1908 163.753 88.0948C162.275 88.1278 163.062 86.7898 163.668 85.8168Z" fill="#3F2716"/>
<path fill-rule="evenodd" clip-rule="evenodd" d="M169.827 112.835C169.681 112.832 169.561 112.948 169.558 113.093C169.555 113.239 169.671 113.359 169.817 113.362C170.321 113.372 170.854 113.214 171.316 112.946C171.78 112.677 172.179 112.293 172.414 111.853C172.483 111.725 172.434 111.564 172.306 111.496C172.178 111.428 172.018 111.476 171.949 111.605C171.761 111.955 171.435 112.266 171.052 112.489C170.668 112.712 170.232 112.844 169.827 112.835Z" fill="#D67F54"/>
<path fill-rule="evenodd" clip-rule="evenodd" d="M165.116 103.048C164.99 103.121 164.947 103.282 165.02 103.409C165.093 103.535 165.255 103.578 165.381 103.505C165.928 103.188 166.58 102.802 167.053 102.405C167.608 101.94 167.929 101.443 167.659 100.963C167.271 100.274 164.299 96.5188 164.291 96.5078C164.2 96.3938 164.034 96.3748 163.92 96.4648C163.806 96.5558 163.787 96.7218 163.878 96.8358C163.886 96.8468 166.831 100.565 167.198 101.22C167.306 101.411 167.075 101.696 166.714 101.998C166.27 102.371 165.643 102.742 165.116 103.048Z" fill="#D67F54"/>
<path fill-rule="evenodd" clip-rule="evenodd" d="M158.352 97.6228C158.347 97.8408 158.52 98.0218 158.738 98.0278C158.956 98.0328 159.138 97.8598 159.143 97.6418C159.143 97.6388 159.146 96.4058 161.005 95.3268C162.858 94.2508 163.898 94.8698 163.901 94.8708C164.091 94.9798 164.333 94.9138 164.442 94.7238C164.551 94.5338 164.485 94.2908 164.295 94.1818C164.291 94.1798 162.861 93.3328 160.608 94.6398C158.361 95.9448 158.352 97.6178 158.352 97.6228Z" fill="#2E1E11"/>
<path fill-rule="evenodd" clip-rule="evenodd" d="M174.249 102.686C172.077 105.361 163.641 110.229 160.511 110.831C165.023 115.447 175.934 109 174.249 102.686Z" fill="white"/>
<path fill-rule="evenodd" clip-rule="evenodd" d="M150.403 96.1958L150.476 96.1548C151.912 95.3478 153.543 95.2068 155.029 95.6338C156.52 96.0628 157.864 97.0648 158.721 98.5408L158.765 98.6208C159.623 100.146 159.803 101.872 159.402 103.426C159.002 104.975 158.025 106.357 156.567 107.203L156.494 107.244C155.058 108.052 153.427 108.193 151.941 107.765C150.45 107.336 149.105 106.334 148.248 104.859L148.204 104.779C147.347 103.254 147.166 101.529 147.568 99.9728C147.968 98.4238 148.944 97.0418 150.403 96.1958ZM149.7 94.7718L149.609 94.8248C147.769 95.8928 146.538 97.6308 146.035 99.5758C145.534 101.515 145.757 103.661 146.821 105.554L146.878 105.652C147.95 107.498 149.636 108.752 151.507 109.291C153.384 109.831 155.449 109.651 157.27 108.628L157.361 108.575C159.201 107.507 160.432 105.77 160.934 103.824C161.435 101.885 161.213 99.7388 160.149 97.8458L160.092 97.7468C159.02 95.9008 157.334 94.6468 155.463 94.1088C153.585 93.5678 151.521 93.7478 149.7 94.7718Z" fill="#2E1E11"/>
<path fill-rule="evenodd" clip-rule="evenodd" d="M167.137 86.4828L167.21 86.4418C168.646 85.6348 170.277 85.4938 171.762 85.9208C173.253 86.3498 174.598 87.3518 175.454 88.8268L175.499 88.9068C176.356 90.4318 176.537 92.1568 176.135 93.7118C175.735 95.2608 174.759 96.6428 173.3 97.4888L173.228 97.5288C171.791 98.3368 170.161 98.4778 168.675 98.0498C167.184 97.6208 165.839 96.6188 164.983 95.1428L164.938 95.0628C164.081 93.5378 163.9 91.8128 164.302 90.2578C164.702 88.7108 165.679 87.3298 167.137 86.4828ZM166.434 85.0588L166.343 85.1118C164.503 86.1788 163.272 87.9168 162.77 89.8618C162.269 91.8008 162.491 93.9468 163.555 95.8398L163.612 95.9378C164.683 97.7838 166.369 99.0378 168.241 99.5768C170.118 100.117 172.183 99.9368 174.004 98.9128L174.095 98.8598C175.935 97.7918 177.166 96.0548 177.669 94.1088C178.169 92.1698 177.947 90.0238 176.883 88.1308L176.826 88.0318C175.755 86.1858 174.069 84.9318 172.197 84.3938C170.32 83.8558 168.256 84.0348 166.434 85.0588Z" fill="#2E1E11"/>
<path fill-rule="evenodd" clip-rule="evenodd" d="M142.893 108.905C142.38 107.887 137.571 108.344 137.495 112.365C137.418 116.386 141.939 120.257 146.983 118.71C152.027 117.163 150.248 116.868 150.248 116.868L142.893 108.905Z" fill="#E4AE7C"/>
<path fill-rule="evenodd" clip-rule="evenodd" d="M139.974 114.291C140.027 114.427 140.18 114.494 140.316 114.441C140.452 114.388 140.519 114.235 140.466 114.099C140.126 113.236 140.062 112.63 140.187 112.235C140.264 111.991 140.421 111.831 140.629 111.743C140.863 111.644 141.168 111.626 141.509 111.674C142.421 111.802 143.544 112.392 144.354 113.198C144.777 113.619 145.174 114.07 145.417 114.406C144.837 114.243 144.281 114.306 143.877 114.514C143.663 114.624 143.489 114.776 143.371 114.959C143.248 115.151 143.187 115.373 143.208 115.615C143.244 116.036 143.533 116.51 144.182 116.958C144.302 117.041 144.466 117.011 144.549 116.891C144.632 116.771 144.602 116.607 144.482 116.524C143.98 116.177 143.759 115.845 143.735 115.569C143.724 115.449 143.754 115.339 143.815 115.244C143.882 115.14 143.986 115.051 144.118 114.983C144.474 114.799 145.007 114.776 145.55 115.013C145.686 115.073 145.796 115.092 145.884 115.077C146.11 115.039 146.191 114.898 146.15 114.673C146.134 114.585 146.088 114.478 146.018 114.36C145.798 113.988 145.28 113.377 144.724 112.824C143.837 111.942 142.595 111.294 141.579 111.151C141.147 111.09 140.748 111.119 140.422 111.257C140.07 111.405 139.807 111.672 139.679 112.076C139.523 112.581 139.586 113.305 139.974 114.291Z" fill="#D67F54"/>
<path fill-rule="evenodd" clip-rule="evenodd" d="M127.299 82.4108C132.85 69.3118 139.585 55.6708 152.69 66.6858C165.453 57.3438 174.26 77.2578 175.203 82.2588C176.418 88.7038 173.253 82.0528 169.476 78.9328C165.72 75.8288 161.348 74.8218 158.493 75.8878C162.854 87.1258 145.268 93.4078 142.823 98.0728C139.909 103.635 148.748 113.343 147.524 112.225C144.805 109.742 119.11 101.733 127.299 82.4108Z" fill="#434174"/>
<path fill-rule="evenodd" clip-rule="evenodd" d="M146.625 104.705C146.8 104.574 146.835 104.326 146.704 104.151C146.573 103.976 146.325 103.941 146.15 104.072L141.432 107.62C141.257 107.751 141.222 107.999 141.353 108.174C141.484 108.349 141.732 108.384 141.907 108.253L146.625 104.705Z" fill="#2E1E11"/>
<path fill-rule="evenodd" clip-rule="evenodd" d="M172.956 210.241C173.099 210.215 173.194 210.077 173.168 209.934C173.142 209.791 173.004 209.696 172.861 209.723C170.215 210.208 168.108 210.526 166.488 210.769C164.378 211.086 163.089 211.28 162.396 211.588C161.645 211.921 161.514 212.354 161.835 213.076C162.629 214.861 172.416 218.436 172.444 218.447C172.581 218.497 172.733 218.427 172.783 218.29C172.833 218.153 172.762 218.001 172.626 217.951C172.598 217.94 163.018 214.439 162.317 212.863C162.145 212.475 162.213 212.245 162.609 212.069C163.23 211.793 164.496 211.602 166.566 211.291C168.172 211.05 170.261 210.736 172.956 210.241Z" fill="#C4C4C4"/>
<path fill-rule="evenodd" clip-rule="evenodd" d="M217.789 187.97C217.48 176.184 211.31 145.048 209.91 141.986C208.51 138.924 188.869 116.497 188.869 116.497C188.869 116.497 196.006 191.801 204.372 209.802C212.739 227.802 217.789 187.97 217.789 187.97Z" fill="#EBEBEB"/>
<path fill-rule="evenodd" clip-rule="evenodd" d="M206.352 181.109C206.498 181.102 206.61 180.978 206.603 180.832C206.595 180.686 206.471 180.575 206.326 180.582C184.58 181.706 168.874 193.674 168.828 193.708C168.711 193.795 168.688 193.96 168.775 194.077C168.862 194.193 169.027 194.217 169.144 194.13C169.189 194.096 184.768 182.226 206.352 181.109Z" fill="#C4C4C4"/>
<path fill-rule="evenodd" clip-rule="evenodd" d="M209.626 143.535C209.65 143.679 209.786 143.776 209.93 143.752C210.074 143.728 210.171 143.592 210.147 143.448C209.667 140.563 209.289 137.085 209.014 133.762C208.652 129.372 208.47 125.256 208.47 123.135C208.47 122.989 208.351 122.87 208.205 122.87C208.059 122.87 207.94 122.988 207.94 123.135C207.94 125.266 208.122 129.399 208.486 133.806C208.762 137.136 209.142 140.628 209.626 143.535Z" fill="#C4C4C4"/>
<path fill-rule="evenodd" clip-rule="evenodd" d="M151.222 178.393C151.312 178.508 151.477 178.528 151.592 178.438C151.707 178.348 151.727 178.183 151.637 178.068C149.821 175.737 147.694 173.745 145.67 172.131C142.134 169.313 138.897 167.641 138.176 167.34C138.042 167.284 137.887 167.348 137.831 167.483C137.775 167.618 137.839 167.773 137.974 167.828C138.678 168.122 141.852 169.763 145.341 172.544C147.339 174.137 149.435 176.101 151.222 178.393Z" fill="#C4C4C4"/>
<path fill-rule="evenodd" clip-rule="evenodd" d="M150.051 176.236C150.084 176.379 150.226 176.467 150.368 176.434C150.51 176.401 150.598 176.259 150.565 176.117C149.532 171.702 144.399 160.69 144.384 160.658C144.323 160.525 144.166 160.468 144.033 160.529C143.901 160.59 143.843 160.747 143.904 160.88C143.919 160.91 149.029 171.873 150.051 176.236Z" fill="#C4C4C4"/>
<path fill-rule="evenodd" clip-rule="evenodd" d="M148.346 66.6628C148.265 66.5408 148.1 66.5078 147.979 66.5888C147.857 66.6698 147.825 66.8348 147.906 66.9558C150.675 71.1098 152.199 74.9308 151.856 78.5038C151.514 82.0668 149.307 85.4098 144.616 88.6298C143.93 89.1008 143.303 89.5758 142.729 90.0528C139.234 92.9658 137.875 95.8918 137.601 98.3998C137.324 100.922 138.145 103.02 138.996 104.259C139.106 104.42 139.219 104.569 139.333 104.705C139.426 104.817 139.592 104.832 139.704 104.739C139.816 104.646 139.831 104.48 139.738 104.368C139.639 104.25 139.537 104.114 139.432 103.961C138.635 102.799 137.865 100.83 138.125 98.4558C138.387 96.0668 139.695 93.2678 143.066 90.4588C143.621 89.9968 144.235 89.5318 144.913 89.0658C149.746 85.7488 152.023 82.2758 152.381 78.5538C152.737 74.8438 151.18 70.9138 148.346 66.6628Z" fill="#787498"/>
<path fill-rule="evenodd" clip-rule="evenodd" d="M143.509 69.1268C143.448 68.9948 143.291 68.9358 143.158 68.9978C143.026 69.0588 142.968 69.2158 143.029 69.3478C144.213 71.9128 144.652 75.0098 143.804 78.4698C143.074 81.4498 141.388 84.7008 138.401 88.1148C131.738 95.7298 135.186 101.478 135.196 101.495C135.269 101.621 135.431 101.664 135.557 101.591C135.683 101.518 135.726 101.356 135.653 101.23C135.644 101.214 132.387 95.7888 138.798 88.4618C141.845 84.9798 143.568 81.6518 144.317 78.5928C145.197 75.0068 144.739 71.7918 143.509 69.1268Z" fill="#787498"/>
<path fill-rule="evenodd" clip-rule="evenodd" d="M130.678 97.4398C130.678 97.5858 130.797 97.7048 130.943 97.7048C131.089 97.7048 131.208 97.5858 131.208 97.4398C131.208 92.4068 132.729 89.7618 135.036 85.7488C135.53 84.8898 136.059 83.9688 136.591 82.9998C139.817 77.1178 138.486 72.1748 138.483 72.1608C138.446 72.0198 138.302 71.9348 138.161 71.9718C138.02 72.0088 137.935 72.1528 137.972 72.2928C137.975 72.3068 139.252 77.0478 136.128 82.7458C135.565 83.7718 135.055 84.6588 134.579 85.4868C132.227 89.5748 130.678 92.2698 130.678 97.4398Z" fill="#787498"/>
<path fill-rule="evenodd" clip-rule="evenodd" d="M158.771 70.2798C158.625 70.2798 158.506 70.3988 158.506 70.5448C158.506 70.6908 158.625 70.8098 158.771 70.8098C161.42 70.8098 163.334 71.4468 164.925 72.5378C166.529 73.6378 167.82 75.2058 169.205 77.0538C169.292 77.1708 169.457 77.1938 169.574 77.1068C169.69 77.0198 169.714 76.8538 169.627 76.7378C168.211 74.8498 166.887 73.2438 165.223 72.1018C163.547 70.9508 161.538 70.2798 158.771 70.2798Z" fill="#787498"/>
</svg>
