<svg width="343" height="181" viewBox="0 0 343 181" fill="none" xmlns="http://www.w3.org/2000/svg">
<path d="M29.6063 48.9159C32.3333 28.7819 44.7339 16.5579 69.2763 16.5579C87.7721 16.5579 99.3017 32.3865 103.753 46.6578C104.218 48.1498 104.42 49.697 104.468 51.2592C104.639 56.8198 105.169 71.0777 106.35 80.86C109.549 107.364 132.619 144.354 132.619 144.354L8.15625 146.021C8.15625 146.021 20.1424 122.453 24.2697 106.015C29.6049 84.7678 26.8794 69.0498 29.6063 48.9159Z" fill="black"/>
<path d="M58.4343 104.019L92.7158 101.681C93.2373 107.634 93.7268 111.166 94.521 114.14C95.202 116.69 97.1988 118.637 99.6266 119.672C110.705 124.394 115.981 126.36 124.374 130.481C129.434 132.966 133.678 136.939 136.137 142.011C141.9 153.895 143.359 163.381 145.307 180.373H0C1.31612 166.669 3.07155 158.182 7.44295 146.247C8.87877 142.327 11.6138 139.006 15.1756 136.828C23.6214 131.665 30.5143 128.275 40.4825 124.781C45.2311 123.117 49.3082 119.905 51.8146 115.542L58.4343 104.019Z" fill="#273B4A"/>
<path d="M58.4343 104.019L92.7158 101.681C93.2373 107.634 93.7268 111.166 94.521 114.14C95.202 116.69 97.1988 118.637 99.6266 119.672C110.705 124.394 115.981 126.36 124.374 130.481C129.434 132.966 133.678 136.939 136.137 142.011C141.9 153.895 143.359 163.381 145.307 180.373H0C1.31612 166.669 3.07155 158.182 7.44295 146.247C8.87877 142.327 11.6138 139.006 15.1756 136.828C23.6214 131.665 30.5143 128.275 40.4825 124.781C45.2311 123.117 49.3082 119.905 51.8146 115.542L58.4343 104.019Z" fill="#FACCC2"/>
<path d="M89.111 54.7007C72.2238 56.7296 63.1316 53.1936 49.1398 42.2932L41.7381 51.2531C39.4318 59.5326 38.9496 64.7176 39.7904 73.8478C35.0807 73.8711 33.1127 75.172 32.7775 79.5283C32.6109 81.6934 33.1318 83.8654 34.0996 85.8093C35.8882 89.4019 37.7398 91.0293 41.7381 93.3259C51.4417 107.655 58.9009 112.259 75.9389 114.188C77.023 114.31 78.1286 114.26 79.1568 113.895C84.6707 111.938 94.1902 105.404 99.0038 89.4302L98.2247 69.5626C97.9744 63.8543 96.4358 59.9177 93.3027 56.2108C92.2845 55.0062 90.6771 54.5125 89.111 54.7007Z" fill="white"/>
<path d="M49.6007 41.7012L49.0258 41.2533L48.5616 41.8152L41.1599 50.7751L41.0584 50.898L41.0156 51.0516C38.7526 59.1759 38.2249 64.3858 38.9723 73.1151C36.968 73.1953 35.3579 73.5575 34.1832 74.4707C32.8174 75.5324 32.2042 77.2024 32.0297 79.4704C31.851 81.7925 32.4106 84.0994 33.4282 86.1432C34.351 87.9968 35.3079 89.3774 36.5698 90.5934C37.7913 91.7703 39.2721 92.7667 41.2142 93.8893C46.0523 101.012 50.3924 105.804 55.6969 109.046C61.0383 112.312 67.2868 113.963 75.8545 114.933C77.0135 115.064 78.2408 115.016 79.4077 114.602C85.1495 112.564 94.8403 105.846 99.7219 89.6463L99.7581 89.526L99.7532 89.4005L98.9741 69.5328L98.9739 69.5294C98.7171 63.6716 97.1259 59.5719 93.8755 55.7263C92.6648 54.2939 90.7889 53.7433 89.0216 53.9557C80.6482 54.9617 74.2698 54.581 68.2714 52.6318C62.2615 50.6788 56.5718 47.132 49.6007 41.7012Z" fill="#FACCC2" stroke="black" stroke-width="1.5"/>
<circle cx="58.0455" cy="69.9518" r="1.94781" fill="black"/>
<circle cx="81.4185" cy="66.0566" r="1.94781" fill="black"/>
<path d="M102.845 127.218L74.7969 146.696" stroke="black" stroke-width="2" stroke-linecap="round"/>
<path d="M16.4546 137.116C26.349 130.544 32.7702 126.044 47.0514 121.573C72.3407 131.821 88.6679 129.342 97.1761 118.433C110.826 124.333 116.323 126.271 125.471 130.75C130.688 133.304 135.017 137.447 137.522 142.688C142.991 154.127 145.169 163.851 146.65 180.373L1.34375 180.763C2.65987 167.059 4.4153 158.571 8.7867 146.637C10.2225 142.717 12.9771 139.426 16.4546 137.116Z" fill="#3C48C9" stroke="black" stroke-width="2" stroke-linecap="round"/>
<path d="M251.801 92.2357H250.801V93.2357V112.636L240.055 116.75L238.615 117.301L239.705 118.391C241.458 120.144 245.672 123.407 251.342 126.431C257.021 129.46 264.231 132.288 271.979 133.102L272.045 133.109L272.112 133.107C279.407 132.896 285.335 132.072 290.488 129.982C295.662 127.883 299.986 124.535 304.122 119.386C304.746 118.609 304.451 117.445 303.526 117.064L295.299 113.676L294.989 93.2206L294.974 92.2357H293.989H251.801Z" fill="#FACCC2" stroke="black" stroke-width="2" stroke-linecap="round"/>
<path d="M244.644 50.0848C253.345 40.1196 257.749 31.2122 266.913 25.3404C268.269 24.4715 269.965 25.5014 269.965 27.1119C269.965 38.1728 278.327 47.4437 289.329 48.5818L303.857 50.0848L303.184 59.5063C303.15 59.9846 303.744 60.232 304.059 59.8712L305.158 58.6159C305.585 58.1273 306.094 57.6971 306.709 57.4912C307.797 57.1276 308.691 57.2517 310.09 57.876C311.536 58.7195 312.196 59.5067 312.82 60.8606C313.094 61.4538 313.206 62.1079 313.186 62.7608C313.038 67.6333 312.218 70.4438 310.09 75.0167C307.167 77.0234 305.464 77.4942 302.299 77.3541C300.576 83.844 298.922 87.4008 295.155 92.7994C294.729 93.4097 294.228 93.9676 293.668 94.4581C286.791 100.488 281.62 103.717 272.642 107.392C270.244 108.374 267.505 108.065 265.384 106.577C258.558 101.787 254.082 97.745 249.638 91.958C246.152 87.4181 244.644 81.7144 244.644 75.9907V71.5107C240.044 69.3125 238.191 66.6544 235.146 62.1304C234.986 61.893 234.86 61.6324 234.777 61.3584C233.931 58.5502 233.919 56.9163 234.832 54.1927C234.88 54.0516 234.939 53.9138 235.009 53.7821C236.018 51.8589 236.632 50.8578 238.339 49.7941C238.88 49.4569 239.53 49.3542 240.161 49.4444L244.644 50.0848Z" fill="#FACCC2" stroke="black" stroke-width="2" stroke-linecap="round"/>
<path d="M242.699 49.6953C248.932 54.7596 257.502 27.4902 268.799 25.1529C269.243 38.0265 279.275 48.5187 292.115 49.5402L303.86 50.4744L303.223 58.7492C303.162 59.5437 304.01 60.0871 304.706 59.7001L308.656 57.5055C309.59 56.9871 310.333 56.1841 310.775 55.2121C312.879 50.58 314.1 47.6026 315.157 41.904C315.55 37.8647 315.588 35.4904 315.219 31.6202C315.18 31.2065 315.086 30.7979 314.939 30.4093C309.546 16.1668 298.597 4.81594 287.989 1.69189C285.896 1.07565 283.66 1.146 281.569 1.76777C278.174 2.77742 276.132 4.19577 273.474 6.84343C271.204 5.03523 269.704 4.35367 267.623 4.17098C266.599 4.08101 265.569 4.27328 264.598 4.61374C254.006 8.32859 249.049 13.3444 243.444 25.1156C242.944 26.1647 242.647 27.3044 242.561 28.4632C241.968 36.4534 242.095 41.3839 242.699 49.6953Z" fill="black" stroke="black" stroke-linecap="round"/>
<circle cx="1.94781" cy="1.94781" r="1.94781" transform="matrix(-1 0 0 1 286.717 58.2654)" fill="black"/>
<circle cx="1.94781" cy="1.94781" r="1.94781" transform="matrix(-1 0 0 1 263.344 54.3699)" fill="black"/>
<path d="M276.199 130.988C267.51 130.141 241.876 120.136 239.58 116.699C224.669 122.003 215.056 126.064 203.247 132.051C195.94 135.757 191.038 142.984 190.359 151.149C189.598 160.297 189.348 168.237 189.326 179.809H355.28L352.769 154.995C351.89 146.305 347.337 138.313 339.94 133.671C328.551 126.523 318.928 122.113 303.857 116.699C297.338 125.187 291.185 128.249 276.199 130.988Z" fill="#52A7BE"/>
<path d="M354.5 179.809L351.99 154.995C351.11 146.305 346.564 138.304 339.15 133.687C327.975 126.729 318.717 122.644 303.691 117.247C297.172 125.734 284.863 129.908 274.797 130.014C258.671 128.67 241.042 120.565 238.745 117.128C223.848 122.427 214.27 126.234 202.491 132.095C195.156 135.745 190.258 142.984 189.58 151.149C188.819 160.297 188.569 168.237 188.547 179.809" stroke="black" stroke-width="2" stroke-linecap="round"/>
<path d="M72.6113 75.4554L74.8339 79.0507L76.3364 81.4812C76.7704 82.1833 76.7285 83.0799 76.2309 83.7385L74.093 86.5681" stroke="black" stroke-linecap="round" stroke-linejoin="round"/>
<path d="M271.529 65.4539L269.307 69.0492L267.804 71.4797C267.37 72.1818 267.412 73.0785 267.91 73.737L270.048 76.5666" stroke="black" stroke-linecap="round" stroke-linejoin="round"/>
<path d="M57.6532 63.8457L56.1672 63.8763C55.902 63.8818 55.6499 63.9923 55.4663 64.1837L53.892 65.8241" stroke="black" stroke-linecap="round"/>
<path d="M79.2016 61.0796L80.4332 60.2475C80.653 60.099 80.9227 60.044 81.1831 60.0944L83.4152 60.5265" stroke="black" stroke-linecap="round"/>
<path d="M262.265 51.9603L260.886 51.4056C260.64 51.3066 260.365 51.3094 260.121 51.4134L258.029 52.3049" stroke="black" stroke-linecap="round"/>
<path d="M284.908 55.8692L286.367 55.5868C286.627 55.5365 286.897 55.5916 287.117 55.7401L289.001 57.0131" stroke="black" stroke-linecap="round"/>
<path d="M67.0547 94.7174L81.5012 92.1245C81.3696 95.9263 78.2248 98.2832 76.4691 99.3071C75.7302 99.738 74.861 99.8578 74.0291 99.6591C72.055 99.1873 68.3602 97.9008 67.0547 94.7174Z" fill="#C33837" stroke="black" stroke-linecap="round" stroke-linejoin="round"/>
<path d="M263.61 84.717L277.797 86.9721C276.361 90.5833 272.728 91.8564 270.735 92.2916C269.852 92.4844 268.944 92.2993 268.199 91.7882C266.536 90.6482 263.69 88.1943 263.61 84.717Z" fill="#C33837" stroke="black" stroke-linecap="round" stroke-linejoin="round"/>
</svg>
