<svg width="600" height="81" viewBox="0 0 600 81" fill="none" xmlns="http://www.w3.org/2000/svg">
<path fill-rule="evenodd" clip-rule="evenodd" d="M10 0C4.47715 0 0 4.47715 0 10V50C0 55.5228 4.47714 60 9.99999 60H285.337C285.412 60.2108 285.514 60.4185 285.643 60.6199L297.475 79.0638C298.655 80.904 301.345 80.904 302.525 79.0638L314.357 60.6198C314.486 60.4185 314.588 60.2108 314.663 60H590C595.523 60 600 55.5228 600 50V10C600 4.47715 595.523 0 590 0H10Z" fill="#5B67EC"/>
<path d="M105.468 19.124H109.284V22.868C109.284 30.572 106.152 38.096 99.888 40.94L97.188 37.16C102.768 34.676 105.468 28.52 105.468 22.868V19.124ZM106.548 19.124H110.328V22.868C110.328 28.268 112.992 34.028 118.572 36.332L115.98 40.112C109.644 37.376 106.548 30.284 106.548 22.868V19.124ZM98.52 17.072H117.204V20.996H98.52V17.072ZM120.3 13.868H125.124V47.204H120.3V13.868ZM132.825 15.344H153.957V19.16H132.825V15.344ZM129.153 27.332H159.321V31.148H129.153V27.332ZM151.077 15.344H155.793V18.008C155.793 20.888 155.793 23.984 154.785 28.304L150.033 28.232C151.077 23.912 151.077 20.852 151.077 18.008V15.344ZM132.681 34.64H155.649V46.844H132.681V34.64ZM150.933 38.348H137.361V43.064H150.933V38.348ZM190.018 13.868H194.842V47.204H190.018V13.868ZM193.762 26.288H199.666V30.248H193.762V26.288ZM169.714 16.496H174.466V24.596H181.162V16.496H185.914V39.5H169.714V16.496ZM174.466 28.304V35.648H181.162V28.304H174.466ZM200.419 39.644H230.587V43.532H200.419V39.644ZM213.055 33.344H217.843V41.228H213.055V33.344ZM203.803 16.028H227.203V27.116H208.627V32.732H203.875V23.372H222.451V19.808H203.803V16.028ZM203.875 30.824H227.959V34.676H203.875V30.824ZM261.284 13.832H266.108V47.276H261.284V13.832ZM265.028 26.18H270.932V30.104H265.028V26.18ZM241.268 35.288H244.076C249.692 35.288 254.12 35.108 259.016 34.244L259.484 38.204C254.444 39.104 249.872 39.248 244.076 39.248H241.268V35.288ZM241.268 16.928H256.82V20.78H246.02V37.196H241.268V16.928ZM271.649 30.068H301.853V33.848H271.649V30.068ZM284.573 32.552H289.433V39.572H284.573V32.552ZM275.177 42.776H298.541V46.628H275.177V42.776ZM275.177 36.656H280.001V43.748H275.177V36.656ZM286.733 14.48C293.897 14.48 298.721 17.18 298.721 21.392C298.721 25.64 293.897 28.304 286.733 28.304C279.533 28.304 274.745 25.64 274.745 21.392C274.745 17.18 279.533 14.48 286.733 14.48ZM286.733 18.26C282.521 18.26 279.893 19.34 279.893 21.392C279.893 23.444 282.521 24.488 286.733 24.488C290.945 24.488 293.573 23.444 293.573 21.392C293.573 19.34 290.945 18.26 286.733 18.26ZM303.362 39.644H333.53V43.532H303.362V39.644ZM315.998 33.344H320.786V41.228H315.998V33.344ZM306.746 16.028H330.146V27.116H311.57V32.732H306.818V23.372H325.394V19.808H306.746V16.028ZM306.818 30.824H330.902V34.676H306.818V30.824ZM338.531 29.24H361.967V33.056H338.531V29.24ZM335.039 39.284H365.207V43.208H335.039V39.284ZM338.531 16.604H361.715V20.492H343.283V30.824H338.531V16.604ZM366.645 18.872H382.593V22.688H366.645V18.872ZM374.673 24.164C378.921 24.164 381.981 27.44 381.981 32.12C381.981 36.764 378.921 40.04 374.673 40.04C370.461 40.04 367.365 36.764 367.365 32.12C367.365 27.44 370.461 24.164 374.673 24.164ZM374.673 28.16C372.873 28.16 371.613 29.6 371.613 32.12C371.613 34.64 372.873 36.044 374.673 36.044C376.473 36.044 377.769 34.64 377.769 32.12C377.769 29.6 376.473 28.16 374.673 28.16ZM390.765 13.868H395.337V47.204H390.765V13.868ZM386.769 27.404H392.277V31.256H386.769V27.404ZM383.781 14.48H388.245V45.8H383.781V14.48ZM372.333 14.768H377.049V21.284H372.333V14.768ZM398.394 39.464H428.562V43.352H398.394V39.464ZM411.03 32.336H415.818V40.4H411.03V32.336ZM401.562 15.992H406.314V21.104H420.534V15.992H425.286V33.344H401.562V15.992ZM406.314 24.848V29.528H420.534V24.848H406.314ZM443.175 25.064H448.683V28.952H443.175V25.064ZM436.047 16.748H439.719V22.364C439.719 29.924 437.631 37.304 432.303 40.58L429.423 36.98C434.319 33.956 436.047 28.016 436.047 22.364V16.748ZM437.091 16.748H440.691V22.148C440.691 27.584 442.095 33.128 446.631 36.08L444.039 39.824C438.747 36.548 437.091 29.348 437.091 22.148V16.748ZM454.119 13.868H458.691V47.204H454.119V13.868ZM447.351 14.372H451.815V45.692H447.351V14.372ZM468.372 30.788H473.124V40.148H468.372V30.788ZM480.468 30.788H485.256V40.148H480.468V30.788ZM461.748 39.464H491.916V43.352H461.748V39.464ZM476.796 15.488C483.96 15.488 489.252 19.016 489.252 24.452C489.252 29.888 483.96 33.38 476.796 33.38C469.596 33.38 464.34 29.888 464.34 24.452C464.34 19.016 469.596 15.488 476.796 15.488ZM476.796 19.232C472.152 19.232 469.056 21.14 469.056 24.452C469.056 27.728 472.152 29.672 476.796 29.672C481.44 29.672 484.536 27.728 484.536 24.452C484.536 21.14 481.44 19.232 476.796 19.232ZM499.257 35.468H494.973L494.073 18.296H500.157L499.257 35.468ZM494.001 41.48C494.001 40.376 494.301 39.608 494.901 39.176C495.501 38.72 496.233 38.492 497.097 38.492C497.937 38.492 498.657 38.72 499.257 39.176C499.857 39.608 500.157 40.376 500.157 41.48C500.157 42.536 499.857 43.304 499.257 43.784C498.657 44.24 497.937 44.468 497.097 44.468C496.233 44.468 495.501 44.24 494.901 43.784C494.301 43.304 494.001 42.536 494.001 41.48Z" fill="white"/>
</svg>
