<svg width="121" height="103" viewBox="0 0 121 103" fill="none" xmlns="http://www.w3.org/2000/svg">
<path d="M59.2068 27.7809C61.5713 31.7028 61.0962 36.9309 58.2451 42.2862C55.3996 47.631 50.2248 53.0145 43.3803 57.141C36.5359 61.2674 29.3592 63.3305 23.3042 63.3518C17.2373 63.3732 12.3921 61.3526 10.0276 57.4307C7.66316 53.5089 8.13817 48.2808 10.9893 42.9255C13.8348 37.5807 19.0096 32.1972 25.8541 28.0707C32.6985 23.9443 39.8752 21.8811 45.9302 21.8598C51.9971 21.8385 56.8424 23.8591 59.2068 27.7809Z" stroke="black"/>
<path d="M108.04 32.7303C109.631 37.0244 108.189 42.0721 104.388 46.8013C100.595 51.5212 94.5069 55.8444 87.0126 58.6212C79.5184 61.3979 72.0828 62.0855 66.1301 60.9765C60.1658 59.8654 55.7828 56.9761 54.1917 52.6819C52.6006 48.3877 54.0429 43.3401 57.8433 38.6109C61.6363 33.891 67.7248 29.5677 75.2191 26.791C82.7133 24.0143 90.1489 23.3266 96.1015 24.4356C102.066 25.5468 106.449 28.4361 108.04 32.7303Z" stroke="black"/>
<path d="M81.5207 50.2418C82.4377 54.7285 80.2419 59.4969 75.7643 63.5906C71.2954 67.6763 64.6183 71.0197 56.7881 72.6201C48.9578 74.2204 41.5044 73.7652 35.7908 71.7606C30.0659 69.7521 26.1752 66.2277 25.2582 61.741C24.3412 57.2543 26.5369 52.4859 31.0146 48.3922C35.4835 44.3065 42.1605 40.9632 49.9908 39.3628C57.8211 37.7624 65.2745 38.2177 70.9881 40.2222C76.713 42.2307 80.6037 45.7551 81.5207 50.2418Z" stroke="black"/>
<path d="M88.4371 65.6198C88.3061 70.1974 85.0801 74.3389 79.7864 77.3028C74.503 80.2609 67.2392 81.9924 59.2504 81.7637C51.2615 81.535 44.1087 79.3908 39.0032 76.1353C33.8877 72.8735 30.9039 68.5542 31.035 63.9766C31.166 59.399 34.392 55.2575 39.6857 52.2936C44.969 49.3355 52.2328 47.6041 60.2217 47.8328C68.2106 48.0615 75.3634 50.2056 80.4689 53.4611C85.5844 56.723 88.5682 61.0423 88.4371 65.6198Z" stroke="black"/>
<path d="M71.0302 39.0149C70.9317 42.4541 68.5518 45.5837 64.6108 47.8344C60.6787 50.0801 55.2657 51.4 49.3067 51.2294C43.3477 51.0588 38.0191 49.4314 34.2219 46.9645C30.4161 44.492 28.2191 41.2314 28.3175 37.7922C28.416 34.3529 30.796 31.2233 34.737 28.9726C38.6691 26.7269 44.0821 25.407 50.041 25.5776C56 25.7482 61.3286 27.3756 65.1258 29.8425C68.9316 32.315 71.1286 35.5757 71.0302 39.0149Z" stroke="black"/>
<path d="M89.1369 30.3332C89.0306 34.0474 86.5117 37.4173 82.3639 39.8368C78.2237 42.252 72.5275 43.6724 66.2595 43.493C59.9915 43.3136 54.3859 41.5696 50.3906 38.9215C46.3881 36.2687 44.0661 32.7602 44.1724 29.046C44.2787 25.3318 46.7976 21.962 50.9453 19.5424C55.0856 17.1272 60.7818 15.7068 67.0498 15.8862C73.3178 16.0656 78.9234 17.8096 82.9187 20.4577C86.9212 23.1106 89.2432 26.619 89.1369 30.3332Z" stroke="black"/>
<path d="M102.977 53.927C101.215 57.1986 97.4523 59.0799 92.6598 59.381C87.876 59.6816 82.1482 58.3951 76.6271 55.4221C71.1061 52.4492 66.8791 48.3754 64.4968 44.2161C62.1102 40.0493 61.6094 35.8719 63.3711 32.6004C65.1327 29.3288 68.8959 27.4475 73.6883 27.1464C78.4721 26.8458 84.2 28.1324 89.721 31.1053C95.2421 34.0782 99.4691 38.152 101.851 42.3113C104.238 46.4781 104.739 50.6555 102.977 53.927Z" stroke="black"/>
<path d="M96.5044 70.262C94.7428 73.5336 90.9796 75.4149 86.1872 75.716C81.4034 76.0166 75.6755 74.73 70.1545 71.7571C64.6334 68.7842 60.4064 64.7103 58.0241 60.551C55.6376 56.3842 55.1368 52.2069 56.8984 48.9353C58.6601 45.6638 62.4233 43.7825 67.2157 43.4813C71.9995 43.1807 77.7273 44.4673 83.2484 47.4402C88.7694 50.4132 92.9964 54.487 95.3787 58.6463C97.7653 62.8131 98.2661 66.9904 96.5044 70.262Z" stroke="black"/>
<path d="M87.5513 87.8792C85.7897 91.1507 82.0265 93.032 77.2341 93.3332C72.4503 93.6338 66.7224 92.3472 61.2013 89.3743C55.6803 86.4013 51.4533 82.3275 49.071 78.1682C46.6845 74.0014 46.1837 69.8241 47.9453 66.5525C49.7069 63.281 53.4701 61.3997 58.2625 61.0985C63.0463 60.7979 68.7742 62.0845 74.2953 65.0574C79.8163 68.0303 84.0433 72.1042 86.4256 76.2635C88.8121 80.4303 89.3129 84.6076 87.5513 87.8792Z" stroke="black"/>
<path d="M113.543 56.3997C111.782 59.6713 108.019 61.5525 103.226 61.8537C98.4424 62.1543 92.7146 60.8677 87.1935 57.8948C81.6725 54.9219 77.4455 50.848 75.0632 46.6887C72.6766 42.5219 72.1758 38.3446 73.9375 35.073C75.6991 31.8015 79.4623 29.9202 84.2547 29.619C89.0385 29.3184 94.7664 30.605 100.287 33.5779C105.808 36.5509 110.035 40.6247 112.418 44.784C114.804 48.9508 115.305 53.1281 113.543 56.3997Z" stroke="black"/>
<path d="M47.4068 79.7933C45.6451 83.0648 41.8819 84.9461 37.0895 85.2472C32.3057 85.5478 26.5779 84.2613 21.0568 81.2883C15.5358 78.3154 11.3088 74.2416 8.92649 70.0823C6.53993 65.9155 6.03912 61.7381 7.80076 58.4666C9.5624 55.195 13.3256 53.3137 18.118 53.0126C22.9018 52.712 28.6297 53.9986 34.1507 56.9715C39.6718 59.9444 43.8988 64.0182 46.281 68.1776C48.6676 72.3444 49.1684 76.5217 47.4068 79.7933Z" stroke="black"/>
<path d="M15.4328 84.0878C12.4003 81.9405 10.9917 77.9761 11.2769 73.1827C11.5616 68.3979 13.5367 62.8696 17.1604 57.752C20.7841 52.6345 25.3427 48.9355 29.7614 47.078C34.188 45.2171 38.3953 45.2291 41.4277 47.3764C44.4602 49.5236 45.8688 53.4881 45.5835 58.2815C45.2988 63.0662 43.3237 68.5946 39.7001 73.7121C36.0764 78.8297 31.5177 82.5286 27.0991 84.3862C22.6724 86.2471 18.4652 86.235 15.4328 84.0878Z" stroke="black"/>
<path d="M5.25253 52.0804C4.01066 48.5784 5.14294 44.5264 8.1373 40.7725C11.1263 37.0253 15.9253 33.6441 21.8353 31.5483C27.7453 29.4526 33.6024 29.055 38.2844 30.0819C42.9747 31.1107 46.4068 33.5441 47.6487 37.0461C48.8906 40.5482 47.7583 44.6002 44.7639 48.3541C41.775 52.1012 36.9759 55.4825 31.0659 57.5782C25.1559 59.674 19.2988 60.0716 14.6169 59.0447C9.92652 58.0159 6.4944 55.5825 5.25253 52.0804Z" stroke="black"/>
<path d="M21.1393 54.1019C19.8974 50.5999 21.0297 46.5479 24.024 42.794C27.013 39.0468 31.812 35.6656 37.722 33.5698C43.632 31.474 49.4891 31.0764 54.1711 32.1034C58.8614 33.1322 62.2935 35.5656 63.5354 39.0676C64.7773 42.5697 63.645 46.6217 60.6507 50.3756C57.6617 54.1227 52.8626 57.504 46.9526 59.5997C41.0426 61.6955 35.1855 62.0931 30.5036 61.0662C25.8132 60.0374 22.3811 57.6039 21.1393 54.1019Z" stroke="black"/>
<path d="M7.27597 42.2611C6.0341 38.7591 7.16638 34.707 10.1607 30.9531C13.1497 27.206 17.9488 23.8248 23.8588 21.729C29.7688 19.6332 35.6259 19.2356 40.3078 20.2626C44.9981 21.2914 48.4303 23.7248 49.6721 27.2268C50.914 30.7288 49.7817 34.7809 46.7874 38.5348C43.7984 42.2819 38.9993 45.6631 33.0893 47.7589C27.1793 49.8547 21.3222 50.2523 16.6403 49.2253C11.95 48.1965 8.51784 45.7631 7.27597 42.2611Z" stroke="black"/>
<path d="M68.7877 57.8558C67.5458 54.3538 68.6781 50.3018 71.6725 46.5479C74.6614 42.8007 79.4605 39.4195 85.3705 37.3237C91.2805 35.228 97.1376 34.8304 101.82 35.8573C106.51 36.8861 109.942 39.3195 111.184 42.8215C112.426 46.3236 111.293 50.3756 108.299 54.1295C105.31 57.8766 100.511 61.2579 94.6011 63.3536C88.6911 65.4494 82.834 65.847 78.152 64.8201C73.4617 63.7913 70.0296 61.3579 68.7877 57.8558Z" stroke="black"/>
<path d="M60.1275 74.3177C58.8857 70.8157 60.0179 66.7637 63.0123 63.0098C66.0013 59.2626 70.8003 55.8814 76.7103 53.7856C82.6203 51.6899 88.4774 51.2923 93.1594 52.3192C97.8497 53.348 101.282 55.7814 102.524 59.2834C103.766 62.7855 102.633 66.8375 99.6389 70.5914C96.65 74.3386 91.8509 77.7198 85.9409 79.8155C80.0309 81.9113 74.1738 82.3089 69.4919 81.282C64.8015 80.2532 61.3694 77.8198 60.1275 74.3177Z" stroke="black"/>
<path d="M23.0548 73.5966C22.9824 72.4655 23.464 71.306 24.4943 70.1639C25.526 69.0201 27.081 67.927 29.0674 66.9547C33.0379 65.0113 38.6392 63.5962 44.9262 63.1936C51.2133 62.7911 56.9493 63.4803 61.1352 64.9015C63.2294 65.6125 64.9111 66.4985 66.0803 67.5013C67.2478 68.5026 67.8734 69.5912 67.9458 70.7224C68.0182 71.8535 67.5366 73.013 66.5063 74.1551C65.4746 75.2989 63.9196 76.392 61.9332 77.3643C57.9626 79.3077 52.3614 80.7228 46.0743 81.1254C39.7873 81.5279 34.0513 80.8387 29.8653 79.4175C27.7712 78.7065 26.0895 77.8205 24.9203 76.8177C23.7528 75.8164 23.1272 74.7278 23.0548 73.5966Z" stroke="black"/>
<path d="M34.634 74.1052C34.7251 72.9754 35.3686 71.8973 36.5525 70.9154C37.7382 69.9321 39.4343 69.0741 41.5399 68.3978C45.7489 67.0461 51.4954 66.452 57.775 66.9585C64.0545 67.4651 69.6316 68.9727 73.5694 70.9816C75.5394 71.9866 77.0761 73.1054 78.0888 74.266C79.1 75.425 79.5624 76.5923 79.4712 77.7221C79.3801 78.8519 78.7366 79.93 77.5527 80.9119C76.367 81.8952 74.6709 82.7532 72.5653 83.4294C68.3563 84.7812 62.6098 85.3753 56.3302 84.8688C50.0507 84.3622 44.4736 82.8546 40.5358 80.8457C38.5658 79.8407 37.0291 78.7219 36.0164 77.5613C35.0052 76.4023 34.5428 75.235 34.634 74.1052Z" stroke="black"/>
<path d="M60.5107 21.1501C60.9217 20.0937 61.847 19.2451 63.2626 18.6435C64.6802 18.041 66.551 17.7048 68.7621 17.66C73.1819 17.5705 78.8579 18.6472 84.7292 20.9312C90.6006 23.2152 95.5121 26.2571 98.7095 29.3097C100.309 30.8369 101.461 32.3489 102.099 33.751C102.736 35.151 102.844 36.4019 102.433 37.4583C102.022 38.5146 101.097 39.3632 99.6815 39.9649C98.2639 40.5674 96.3931 40.9036 94.182 40.9484C89.7622 41.0379 84.0863 39.9612 78.2149 37.6772C72.3436 35.3932 67.432 32.3513 64.2346 29.2986C62.635 27.7714 61.4832 26.2594 60.8453 24.8573C60.2085 23.4573 60.0998 22.2064 60.5107 21.1501Z" stroke="black"/>
<path d="M74.8406 32.8855C75.7786 32.2492 77.0221 32.0759 78.529 32.3842C80.0381 32.6929 81.7691 33.4782 83.6148 34.6966C87.3041 37.1319 91.3656 41.2405 94.9025 46.4539C98.4395 51.6673 100.756 56.9597 101.655 61.288C102.105 63.4533 102.195 65.3519 101.924 66.8683C101.654 68.3824 101.033 69.4738 100.095 70.1102C99.1571 70.7466 97.9136 70.9198 96.4067 70.6115C94.8976 70.3028 93.1666 69.5176 91.3209 68.2992C87.6316 65.8638 83.5701 61.7552 80.0331 56.5418C76.4962 51.3284 74.1797 46.036 73.2804 41.7078C72.8305 39.5424 72.7406 37.6438 73.0115 36.1275C73.282 34.6134 73.9026 33.5219 74.8406 32.8855Z" stroke="black"/>
<path d="M64.7351 48.1922C65.6731 47.5558 66.9167 47.3825 68.4235 47.6908C69.9326 47.9996 71.6636 48.7848 73.5093 50.0032C77.1987 52.4386 81.2601 56.5472 84.7971 61.7606C88.334 66.9739 90.6505 72.2664 91.5498 76.5946C91.9997 78.7599 92.0896 80.6586 91.8187 82.1749C91.5482 83.689 90.9276 84.7805 89.9896 85.4168C89.0516 86.0532 87.8081 86.2265 86.3012 85.9182C84.7921 85.6094 83.0612 84.8242 81.2154 83.6058C77.5261 81.1705 73.4646 77.0619 69.9277 71.8485C66.3907 66.6351 64.0742 61.3427 63.1749 57.0144C62.725 54.8491 62.6351 52.9505 62.906 51.4341C63.1765 49.92 63.7971 48.8285 64.7351 48.1922Z" stroke="black"/>
<path d="M72.6601 46.9189C73.4585 46.1143 74.6456 45.7055 76.1837 45.7188C77.724 45.7321 79.5735 46.1704 81.6188 47.0118C85.707 48.6936 90.4817 51.9461 94.9537 56.3835C99.4257 60.821 102.715 65.5703 104.429 69.6453C105.286 71.684 105.738 73.5301 105.764 75.0702C105.789 76.6081 105.389 77.7984 104.591 78.603C103.793 79.4076 102.605 79.8164 101.067 79.8031C99.5271 79.7898 97.6776 79.3514 95.6323 78.5101C91.5441 76.8283 86.7694 73.5758 82.2974 69.1383C77.8255 64.7009 74.536 59.9516 72.8226 55.8765C71.9653 53.8378 71.5126 51.9918 71.4874 50.4516C71.4622 48.9138 71.8617 47.7235 72.6601 46.9189Z" stroke="black"/>
<path d="M27.8281 14.5937C28.6265 13.7891 29.8136 13.3803 31.3517 13.3936C32.8919 13.4069 34.7415 13.8452 36.7867 14.6866C40.875 16.3684 45.6497 19.6209 50.1216 24.0584C54.5936 28.4958 57.8831 33.2451 59.5965 37.3201C60.4538 39.3588 60.9064 41.2049 60.9317 42.745C60.9569 44.2829 60.5573 45.4732 59.759 46.2778C58.9606 47.0824 57.7734 47.4912 56.2354 47.4779C54.6951 47.4646 52.8456 47.0263 50.8003 46.1849C46.7121 44.5031 41.9374 41.2506 37.4654 36.8131C32.9934 32.3757 29.704 27.6264 27.9905 23.5513C27.1333 21.5126 26.6806 19.6666 26.6554 18.1265C26.6302 16.5886 27.0297 15.3983 27.8281 14.5937Z" stroke="black"/>
<path d="M73.7773 78.9421C72.3666 83.2989 68.1078 86.3683 62.195 87.7271C56.2937 89.0833 48.8359 88.7062 41.2324 86.2443C33.629 83.7823 27.3655 79.7166 23.3791 75.1589C19.3849 70.5923 17.7335 65.6091 19.1442 61.2523C20.5548 56.8956 24.8137 53.8261 30.7265 52.4673C36.6277 51.1111 44.0855 51.4882 51.689 53.9502C59.2925 56.4121 65.5559 60.4778 69.5423 65.0355C73.5365 69.6022 75.188 74.5853 73.7773 78.9421Z" stroke="black"/>
<path d="M54.4088 10.7033C58.9544 11.2591 62.7782 14.8559 65.2374 20.4021C67.6918 25.9374 68.7408 33.3307 67.7708 41.2637C66.8008 49.1968 64.0014 56.1195 60.2856 60.9004C56.5625 65.6906 51.9847 68.2602 47.4391 67.7044C42.8935 67.1486 39.0696 63.5517 36.6104 58.0055C34.156 52.4702 33.107 45.077 34.077 37.1439C35.047 29.2108 37.8465 22.2882 41.5623 17.5073C45.2853 12.717 49.8632 10.1475 54.4088 10.7033Z" stroke="black"/>
<path d="M100.504 21.8639C102.868 25.7858 102.393 31.0139 99.542 36.3692C96.6965 41.714 91.5217 47.0975 84.6772 51.224C77.8328 55.3504 70.6561 57.4136 64.6011 57.4349C58.5342 57.4562 53.6889 55.4356 51.3245 51.5138C48.96 47.5919 49.435 42.3638 52.2862 37.0085C55.1317 31.6637 60.3065 26.2802 67.151 22.1537C73.9954 18.0273 81.172 15.9641 87.2271 15.9428C93.294 15.9215 98.1392 17.9421 100.504 21.8639Z" stroke="black"/>
<path d="M77.4021 57.9636C79.7666 61.8854 79.2916 67.1135 76.4404 72.4688C73.5949 77.8136 68.4201 83.1971 61.5756 87.3236C54.7312 91.4501 47.5546 93.5132 41.4995 93.5345C35.4326 93.5558 30.5874 91.5352 28.2229 87.6134C25.8585 83.6915 26.3335 78.4634 29.1846 73.1081C32.0301 67.7633 37.2049 62.3798 44.0494 58.2533C50.8938 54.1269 58.0705 52.0638 64.1255 52.0425C70.1924 52.0211 75.0377 54.0417 77.4021 57.9636Z" stroke="black"/>
<path d="M80.4148 12.0959C83.8101 15.1689 84.8635 20.3118 83.6784 26.2619C82.4957 32.2003 79.094 38.8478 73.7309 44.7733C68.3678 50.6988 62.0915 54.7445 56.3 56.5117C50.4972 58.2823 45.275 57.7454 41.8797 54.6724C38.4844 51.5994 37.431 46.4565 38.6161 40.5063C39.7988 34.5679 43.2005 27.9205 48.5636 21.9949C53.9266 16.0694 60.203 12.0237 65.9945 10.2565C71.7973 8.48592 77.0195 9.02288 80.4148 12.0959Z" stroke="black"/>
</svg>
