<svg width="250" height="328" viewBox="0 0 250 328" fill="none" xmlns="http://www.w3.org/2000/svg">
<rect x="170" y="85.584" width="79.1755" height="79.1755" rx="11" fill="#878787" fill-opacity="0.3"/>
<path d="M218.865 125.293C218.865 130.206 214.551 134.313 209.069 134.313C203.588 134.313 199.273 130.206 199.273 125.293C199.273 120.381 203.588 116.273 209.069 116.273C214.551 116.273 218.865 120.381 218.865 125.293Z" fill="#878787" stroke="#878787" stroke-width="2"/>
<path d="M204.754 121.285L213.391 129.301M213.391 121.285L204.754 129.301" stroke="white" stroke-width="1.5" stroke-linecap="round" stroke-linejoin="round"/>
<rect x="170" width="79.2342" height="79.2342" rx="11" fill="#878787" fill-opacity="0.3"/>
<path d="M218.287 39.5197C218.287 44.4322 213.973 48.5394 208.491 48.5394C203.01 48.5394 198.695 44.4322 198.695 39.5197C198.695 34.6072 203.01 30.5 208.491 30.5C213.973 30.5 218.287 34.6072 218.287 39.5197Z" fill="#878787" stroke="#878787" stroke-width="2"/>
<path d="M204.176 35.5117L212.813 43.5275M212.813 35.5117L204.176 43.5275" stroke="white" stroke-width="1.5" stroke-linecap="round" stroke-linejoin="round"/>
<g filter="url(#filter0_d_4026_811)">
<path d="M63.6707 40.411L63.6382 37.2981L63.6358 37.0269C63.5107 34.9741 63.2217 32.9366 62.772 30.9384C62.1422 29.2101 60.1325 28.4367 58.4795 28.0929C58.2475 27.8167 57.9652 27.5982 57.6513 27.4521C57.3375 27.306 56.9994 27.2356 56.6597 27.2458L52.239 27.269C51.6858 27.2646 51.1483 27.4663 50.7128 27.8416L50.0661 27.8448L48.1007 27.8543L47.3324 25.829L46.6633 25.832L46.9523 27.8625L35.2061 27.9246C34.7635 27.553 34.2217 27.3559 33.6675 27.3648L22.8654 27.4238C22.2527 27.4166 21.6612 27.6656 21.209 28.1209C19.9029 28.3431 17.9152 28.9181 17.7922 30.392L17.8926 39.269L17.9933 48.1492C18.1434 49.6182 20.1508 50.1734 21.4597 50.3811C21.9212 50.8324 22.5183 51.0757 23.1324 51.0627L33.9349 51.0086C34.4881 51.0133 35.0257 50.8116 35.4611 50.436L47.2834 50.3739L47.0649 52.2329L47.734 52.2299L48.39 50.3667L50.3181 50.3564L50.9759 50.3658C51.4171 50.7287 51.9535 50.9206 52.5018 50.9115L56.9224 50.8882C57.4797 50.8893 58.0199 50.6815 58.4551 50.2986C60.1431 49.9635 62.3204 49.1823 62.9411 47.3545C63.3454 45.351 63.5881 43.311 63.6665 41.2583L63.6573 40.4119L63.6707 40.411Z" fill="white"/>
</g>
<g filter="url(#filter1_d_4026_811)">
<path d="M63.6707 40.411L63.6382 37.2981L63.6358 37.0269C63.5107 34.9741 63.2217 32.9366 62.7721 30.9384C62.1422 29.2101 60.1325 28.4367 58.4795 28.0929C58.2476 27.8167 57.9652 27.5982 57.6513 27.4521C57.3375 27.306 56.9994 27.2356 56.6597 27.2458L52.239 27.269C51.6858 27.2646 51.1483 27.4663 50.7128 27.8416L50.0661 27.8448L48.1007 27.8543L47.3324 25.829L46.6633 25.832L46.9523 27.8625L35.2061 27.9246C34.7635 27.553 34.2217 27.3559 33.6675 27.3648L22.8654 27.4238C22.2527 27.4166 21.6612 27.6656 21.209 28.1209C19.9029 28.3431 17.9152 28.9181 17.7922 30.392L17.8926 39.269L17.9933 48.1492C18.1434 49.6182 20.1508 50.1734 21.4597 50.3811C21.9212 50.8324 22.5183 51.0757 23.1324 51.0627L33.9349 51.0086C34.4881 51.0133 35.0257 50.8116 35.4611 50.436L47.2834 50.3739L47.0649 52.2329L47.734 52.2299L48.39 50.3667L50.3181 50.3564L50.9759 50.3658C51.4171 50.7287 51.9535 50.9206 52.5018 50.9115L56.9224 50.8882C57.4797 50.8893 58.0199 50.6815 58.4551 50.2986C60.1431 49.9635 62.0599 49.5594 62.6806 47.7316C63.3014 45.9038 63.6045 42.7688 63.6829 40.7161L63.6574 40.4119L63.6707 40.411Z" fill="white"/>
</g>
<path d="M63.1819 36.4926C63.1711 36.0381 62.8295 35.6776 62.419 35.6874C62.0086 35.6971 61.6846 36.0735 61.6954 36.528L61.8523 43.1112C61.8631 43.5657 62.2047 43.9262 62.6152 43.9164C63.0257 43.9066 63.3497 43.5302 63.3388 43.0758L63.1819 36.4926Z" fill="#333333"/>
<path d="M21.8567 35.7646C21.8567 34.1941 21.191 32.9209 20.3698 32.9209C19.5485 32.9209 18.8828 34.194 18.8828 35.7646L18.8828 44.2956C18.8828 45.8661 19.5485 47.1392 20.3698 47.1392C21.191 47.1392 21.8567 45.8661 21.8567 44.2956L21.8567 35.7646Z" fill="#333333"/>
<path d="M21.8567 32.3406C21.8567 31.4314 21.191 30.6943 20.3698 30.6943C19.5485 30.6943 18.8828 31.4314 18.8828 32.3406L18.8828 35.6332C18.8828 36.5424 19.5485 37.2794 20.3698 37.2794C21.191 37.2794 21.8567 36.5424 21.8567 35.6332L21.8567 32.3406Z" fill="#333333"/>
<path d="M21.8567 43.8631C21.8567 42.9539 21.191 42.2168 20.3698 42.2168C19.5485 42.2168 18.8828 42.9539 18.8828 43.8631L18.8828 47.1556C18.8828 48.0648 19.5485 48.8019 20.3698 48.8019C21.191 48.8019 21.8567 48.0648 21.8567 47.1556L21.8567 43.8631Z" fill="#333333"/>
<path d="M52.0891 40.2229L52.0772 40.2232C52.0582 42.5203 51.6717 44.7936 50.9358 46.9378C50.7859 47.4448 50.5412 47.9106 50.2174 48.305C49.8937 48.6995 49.4982 49.0136 49.0568 49.2271L49.033 49.2276C48.9343 49.2634 48.8329 49.2895 48.7299 49.3057C48.5114 49.3472 48.2869 49.334 48.0731 49.267L41.3574 46.3246C42.2943 45.6337 42.6917 40.9656 42.8117 39.199C42.7696 37.4298 42.594 32.7441 41.6908 31.9801L48.5281 29.5397C48.745 29.4889 48.9698 29.4925 49.1858 29.5504C49.288 29.5738 49.3882 29.6067 49.4856 29.6486L49.5095 29.653C49.9405 29.8997 50.3208 30.2431 50.6258 30.6612C50.9308 31.0792 51.1539 31.5628 51.2808 32.0809C51.914 34.2736 52.1933 36.5709 52.1059 38.8672L52.1178 38.8669C52.1128 39.0959 52.1078 39.32 52.1011 39.5408C52.0945 39.7617 52.0924 39.9857 52.086 40.2147L52.0891 40.2229Z" fill="#333333"/>
<path d="M30.9629 31.6726L30.9749 40.9267L30.9883 46.5217L30.989 46.8727C29.7057 48.7479 26.603 48.8042 24.5448 48.6023L24.5143 29.6527C26.5721 29.5086 29.675 29.6401 30.9629 31.549L30.9629 31.6726Z" fill="#333333"/>
<path d="M30.8288 27.9135L45.4156 27.8351C45.4156 27.8351 39.1424 31.2184 37.4354 31.2275C35.7284 31.2367 29.1143 27.9227 30.8288 27.9135Z" fill="#333333"/>
<path d="M30.9367 50.4554L45.5238 50.4444C45.5238 50.4444 39.0159 47.1568 37.3088 47.1581C35.6018 47.1594 29.2223 50.4567 30.9367 50.4554Z" fill="#333333"/>
<rect x="0.707031" width="79.1776" height="79.1776" rx="11" fill="#5B67EC" fill-opacity="0.2"/>
<g opacity="0.5">
<g filter="url(#filter2_d_4026_811)">
<path d="M63.6707 124.411L63.6382 121.298L63.6358 121.027C63.5107 118.974 63.2217 116.937 62.772 114.938C62.1422 113.21 60.1325 112.437 58.4795 112.093C58.2475 111.817 57.9652 111.598 57.6513 111.452C57.3375 111.306 56.9994 111.236 56.6597 111.246L52.239 111.269C51.6858 111.265 51.1483 111.466 50.7128 111.842L50.0661 111.845L48.1007 111.854L47.3324 109.829L46.6633 109.832L46.9523 111.863L35.2061 111.925C34.7635 111.553 34.2217 111.356 33.6675 111.365L22.8654 111.424C22.2527 111.417 21.6612 111.666 21.209 112.121C19.9029 112.343 17.9152 112.918 17.7922 114.392L17.8926 123.269L17.9933 132.149C18.1434 133.618 20.1508 134.173 21.4597 134.381C21.9212 134.832 22.5183 135.076 23.1324 135.063L33.9349 135.009C34.4881 135.013 35.0257 134.812 35.4611 134.436L47.2834 134.374L47.0649 136.233L47.734 136.23L48.39 134.367L50.3181 134.356L50.9759 134.366C51.4171 134.729 51.9535 134.921 52.5018 134.911L56.9224 134.888C57.4797 134.889 58.0199 134.682 58.4551 134.299C60.1431 133.963 62.3204 133.182 62.9411 131.354C63.3454 129.351 63.5881 127.311 63.6665 125.258L63.6573 124.412L63.6707 124.411Z" fill="#5B67EC"/>
</g>
<g filter="url(#filter3_d_4026_811)">
<path d="M63.9178 124.581L63.916 124.407L63.8834 121.295L63.8834 121.294L63.881 121.024L63.8814 121.024L63.8806 121.01C63.7546 118.943 63.4636 116.892 63.0109 114.88L63.0072 114.864L63.0015 114.848C62.6593 113.909 61.9472 113.244 61.1289 112.774C60.3366 112.319 59.4276 112.037 58.6084 111.861C58.3649 111.588 58.0742 111.37 57.7525 111.22C57.4063 111.059 57.0326 110.981 56.6565 110.992L52.2417 111.015C52.2412 111.015 52.2407 111.015 52.2401 111.015C51.6577 111.011 51.0924 111.213 50.6266 111.588L50.0658 111.591L48.2678 111.599L47.5607 109.735L47.4996 109.574L47.3322 109.575L46.6631 109.578L46.3793 109.579L46.4207 109.87L46.6683 111.61L35.2909 111.67C34.8186 111.299 34.2496 111.102 33.6659 111.111C33.6654 111.111 33.665 111.111 33.6646 111.111L22.8669 111.17C22.2138 111.163 21.5848 111.418 21.0955 111.883C20.4449 111.998 19.6291 112.201 18.9464 112.561C18.242 112.932 17.6203 113.503 17.5478 114.371L17.5468 114.383L17.5469 114.396L17.6474 123.273L17.8926 123.269L17.6474 123.273L17.7481 132.153L17.7482 132.165L17.7495 132.177C17.8378 133.041 18.4713 133.604 19.1832 133.966C19.8742 134.318 20.6956 134.512 21.348 134.62C21.8457 135.08 22.4798 135.33 23.1345 135.317L33.932 135.263C33.9326 135.263 33.9332 135.263 33.9337 135.263C34.5163 135.267 35.0816 135.065 35.5474 134.69L47.0064 134.629L46.8215 136.203L46.7879 136.488L47.0651 136.487L47.7342 136.484L47.9056 136.483L47.9644 136.316L48.5616 134.62L50.3139 134.611L50.3185 134.611L50.8904 134.619C51.361 134.982 51.9252 135.175 52.5035 135.166C52.5039 135.166 52.5044 135.166 52.5048 135.166L56.9212 135.142C56.9215 135.142 56.9218 135.142 56.9221 135.142C57.5171 135.143 58.093 134.929 58.5625 134.536C59.3852 134.372 60.2908 134.183 61.0712 133.805C61.8799 133.414 62.5735 132.812 62.9119 131.815C63.5459 129.949 63.8495 126.78 63.9279 124.725L63.9285 124.709L63.9272 124.693L63.9178 124.581Z" fill="#5B67EC" stroke="black" stroke-width="0.5"/>
</g>
<path d="M63.1819 120.493C63.1711 120.038 62.8295 119.678 62.419 119.687C62.0086 119.697 61.6846 120.074 61.6954 120.528L61.8523 127.111C61.8631 127.566 62.2047 127.926 62.6152 127.916C63.0257 127.907 63.3497 127.53 63.3388 127.076L63.1819 120.493Z" fill="#333333"/>
<path d="M21.8567 119.765C21.8567 118.194 21.191 116.921 20.3698 116.921C19.5485 116.921 18.8828 118.194 18.8828 119.765L18.8828 128.296C18.8828 129.866 19.5485 131.139 20.3698 131.139C21.191 131.139 21.8567 129.866 21.8567 128.296L21.8567 119.765Z" fill="#333333"/>
<path d="M21.8567 116.341C21.8567 115.431 21.191 114.694 20.3698 114.694C19.5485 114.694 18.8828 115.431 18.8828 116.341L18.8828 119.633C18.8828 120.542 19.5485 121.279 20.3698 121.279C21.191 121.279 21.8567 120.542 21.8567 119.633L21.8567 116.341Z" fill="#333333"/>
<path d="M21.8567 127.863C21.8567 126.954 21.191 126.217 20.3698 126.217C19.5485 126.217 18.8828 126.954 18.8828 127.863L18.8828 131.156C18.8828 132.065 19.5485 132.802 20.3698 132.802C21.191 132.802 21.8567 132.065 21.8567 131.156L21.8567 127.863Z" fill="#333333"/>
<path d="M52.0891 124.223L52.0772 124.223C52.0582 126.52 51.6717 128.794 50.9358 130.938C50.7859 131.445 50.5412 131.911 50.2174 132.305C49.8937 132.699 49.4982 133.014 49.0568 133.227L49.033 133.228C48.9343 133.263 48.8329 133.289 48.7299 133.306C48.5114 133.347 48.2869 133.334 48.0731 133.267L41.3574 130.325C42.2943 129.634 42.6917 124.966 42.8117 123.199C42.7696 121.43 42.594 116.744 41.6908 115.98L48.5281 113.54C48.745 113.489 48.9698 113.493 49.1858 113.55C49.288 113.574 49.3882 113.607 49.4856 113.649L49.5095 113.653C49.9405 113.9 50.3208 114.243 50.6258 114.661C50.9308 115.079 51.1539 115.563 51.2808 116.081C51.914 118.274 52.1933 120.571 52.1059 122.867L52.1178 122.867C52.1128 123.096 52.1078 123.32 52.1011 123.541C52.0945 123.762 52.0924 123.986 52.086 124.215L52.0891 124.223Z" fill="#333333"/>
<path d="M30.9629 115.673L30.9749 124.927L30.9883 130.522L30.989 130.873C29.7057 132.748 26.603 132.804 24.5448 132.602L24.5143 113.653C26.5721 113.509 29.675 113.64 30.9629 115.549L30.9629 115.673Z" fill="#333333"/>
<path d="M30.8288 111.914L45.4156 111.835C45.4156 111.835 39.1424 115.218 37.4354 115.228C35.7284 115.237 29.1143 111.923 30.8288 111.914Z" fill="#333333"/>
<path d="M30.9367 134.455L45.5238 134.444C45.5238 134.444 39.0159 131.157 37.3088 131.158C35.6018 131.159 29.2223 134.457 30.9367 134.455Z" fill="#333333"/>
</g>
<rect x="2.20703" y="85.5" width="76.1776" height="76.1776" rx="9.5" fill="#5B67EC" fill-opacity="0.2" stroke="#5B67EC" stroke-width="3"/>
<path d="M52.8446 123.302C52.8446 130.39 47.0985 136.137 40.0102 136.137C32.922 136.137 27.1758 130.39 27.1758 123.302C27.1758 116.214 32.922 110.468 40.0102 110.468C47.0985 110.468 52.8446 116.214 52.8446 123.302Z" fill="#5B67EC" stroke="#5B67EC" stroke-width="2"/>
<path d="M33.7852 122.611L38.6272 126.761L46.2361 119.152" stroke="white" stroke-width="2" stroke-linecap="round" stroke-linejoin="round"/>
<g filter="url(#filter4_d_4026_811)">
<path d="M63.6707 210.198L63.6382 207.085L63.6358 206.814C63.5107 204.761 63.2217 202.724 62.772 200.726C62.1422 198.997 60.1325 198.224 58.4795 197.88C58.2475 197.604 57.9652 197.385 57.6513 197.239C57.3375 197.093 56.9994 197.023 56.6597 197.033L52.239 197.056C51.6858 197.052 51.1483 197.253 50.7128 197.629L50.0661 197.632L48.1007 197.641L47.3324 195.616L46.6633 195.619L46.9523 197.65L35.2061 197.712C34.7635 197.34 34.2217 197.143 33.6675 197.152L22.8654 197.211C22.2527 197.204 21.6612 197.453 21.209 197.908C19.9029 198.13 17.9152 198.705 17.7922 200.179L17.8926 209.056L17.9933 217.936C18.1434 219.405 20.1508 219.961 21.4597 220.168C21.9212 220.619 22.5183 220.863 23.1324 220.85L33.9349 220.796C34.4881 220.8 35.0257 220.599 35.4611 220.223L47.2834 220.161L47.0649 222.02L47.734 222.017L48.39 220.154L50.3181 220.144L50.9759 220.153C51.4171 220.516 51.9535 220.708 52.5018 220.699L56.9224 220.675C57.4797 220.676 58.0199 220.469 58.4551 220.086C60.1431 219.751 62.3204 218.969 62.9411 217.142C63.3454 215.138 63.5881 213.098 63.6665 211.045L63.6573 210.199L63.6707 210.198Z" fill="white"/>
</g>
<g filter="url(#filter5_d_4026_811)">
<path d="M63.6707 210.198L63.6382 207.085L63.6358 206.814C63.5107 204.761 63.2217 202.724 62.7721 200.726C62.1422 198.997 60.1325 198.224 58.4795 197.88C58.2476 197.604 57.9652 197.385 57.6513 197.239C57.3375 197.093 56.9994 197.023 56.6597 197.033L52.239 197.056C51.6858 197.052 51.1483 197.253 50.7128 197.629L50.0661 197.632L48.1007 197.641L47.3324 195.616L46.6633 195.619L46.9523 197.65L35.2061 197.712C34.7635 197.34 34.2217 197.143 33.6675 197.152L22.8654 197.211C22.2527 197.204 21.6612 197.453 21.209 197.908C19.9029 198.13 17.9152 198.705 17.7922 200.179L17.8926 209.056L17.9933 217.936C18.1434 219.405 20.1508 219.961 21.4597 220.168C21.9212 220.619 22.5183 220.863 23.1324 220.85L33.9349 220.796C34.4881 220.8 35.0257 220.599 35.4611 220.223L47.2834 220.161L47.0649 222.02L47.734 222.017L48.39 220.154L50.3181 220.144L50.9759 220.153C51.4171 220.516 51.9535 220.708 52.5018 220.699L56.9224 220.675C57.4797 220.676 58.0199 220.469 58.4551 220.086C60.1431 219.751 62.0599 219.346 62.6806 217.519C63.3014 215.691 63.6045 212.556 63.6829 210.503L63.6574 210.199L63.6707 210.198Z" fill="white"/>
</g>
<path d="M63.1819 206.28C63.1711 205.825 62.8295 205.465 62.419 205.474C62.0086 205.484 61.6846 205.861 61.6954 206.315L61.8523 212.898C61.8631 213.353 62.2047 213.713 62.6152 213.703C63.0257 213.694 63.3497 213.317 63.3388 212.863L63.1819 206.28Z" fill="#333333"/>
<path d="M21.8567 205.552C21.8567 203.981 21.191 202.708 20.3698 202.708C19.5485 202.708 18.8828 203.981 18.8828 205.552L18.8828 214.083C18.8828 215.653 19.5485 216.926 20.3698 216.926C21.191 216.926 21.8567 215.653 21.8567 214.083L21.8567 205.552Z" fill="#333333"/>
<path d="M21.8567 202.128C21.8567 201.219 21.191 200.481 20.3698 200.481C19.5485 200.481 18.8828 201.219 18.8828 202.128L18.8828 205.42C18.8828 206.329 19.5485 207.067 20.3698 207.067C21.191 207.067 21.8567 206.329 21.8567 205.42L21.8567 202.128Z" fill="#333333"/>
<path d="M21.8567 213.65C21.8567 212.741 21.191 212.004 20.3698 212.004C19.5485 212.004 18.8828 212.741 18.8828 213.65L18.8828 216.943C18.8828 217.852 19.5485 218.589 20.3698 218.589C21.191 218.589 21.8567 217.852 21.8567 216.943L21.8567 213.65Z" fill="#333333"/>
<path d="M52.0891 210.01L52.0772 210.01C52.0582 212.307 51.6717 214.581 50.9358 216.725C50.7859 217.232 50.5412 217.698 50.2174 218.092C49.8937 218.487 49.4982 218.801 49.0568 219.014L49.033 219.015C48.9343 219.05 48.8329 219.077 48.7299 219.093C48.5114 219.134 48.2869 219.121 48.0731 219.054L41.3574 216.112C42.2943 215.421 42.6917 210.753 42.8117 208.986C42.7696 207.217 42.594 202.531 41.6908 201.767L48.5281 199.327C48.745 199.276 48.9698 199.28 49.1858 199.337C49.288 199.361 49.3882 199.394 49.4856 199.436L49.5095 199.44C49.9405 199.687 50.3208 200.03 50.6258 200.448C50.9308 200.866 51.1539 201.35 51.2808 201.868C51.914 204.061 52.1933 206.358 52.1059 208.654L52.1178 208.654C52.1128 208.883 52.1078 209.107 52.1011 209.328C52.0945 209.549 52.0924 209.773 52.086 210.002L52.0891 210.01Z" fill="#333333"/>
<path d="M30.9629 201.46L30.9749 210.714L30.9883 216.309L30.989 216.66C29.7057 218.535 26.603 218.591 24.5448 218.389L24.5143 199.44C26.5721 199.296 29.675 199.427 30.9629 201.336L30.9629 201.46Z" fill="#333333"/>
<path d="M30.8288 197.701L45.4156 197.622C45.4156 197.622 39.1424 201.005 37.4354 201.015C35.7284 201.024 29.1143 197.71 30.8288 197.701Z" fill="#333333"/>
<path d="M30.9367 220.243L45.5238 220.232C45.5238 220.232 39.0159 216.944 37.3088 216.945C35.6018 216.946 29.2223 220.244 30.9367 220.243Z" fill="#333333"/>
<rect x="0.707031" y="169.787" width="79.1776" height="79.1776" rx="11" fill="#5B67EC" fill-opacity="0.2"/>
<g filter="url(#filter6_d_4026_811)">
<path d="M186.329 210.198L186.362 207.085L186.364 206.814C186.489 204.761 186.778 202.724 187.228 200.726C187.858 198.997 189.868 198.224 191.52 197.88C191.752 197.604 192.035 197.385 192.349 197.239C192.663 197.093 193.001 197.023 193.34 197.033L197.761 197.056C198.314 197.052 198.852 197.253 199.287 197.629L199.934 197.632L201.899 197.641L202.668 195.616L203.337 195.619L203.048 197.65L214.794 197.712C215.237 197.34 215.778 197.143 216.332 197.152L227.135 197.211C227.747 197.204 228.339 197.453 228.791 197.908C230.097 198.13 232.085 198.705 232.208 200.179L232.107 209.056L232.007 217.936C231.857 219.405 229.849 219.961 228.54 220.168C228.079 220.619 227.482 220.863 226.868 220.85L216.065 220.796C215.512 220.8 214.974 220.599 214.539 220.223L202.717 220.161L202.935 222.02L202.266 222.017L201.61 220.154L199.682 220.144L199.024 220.153C198.583 220.516 198.046 220.708 197.498 220.699L193.078 220.675C192.52 220.676 191.98 220.469 191.545 220.086C189.857 219.751 187.68 218.969 187.059 217.142C186.655 215.138 186.412 213.098 186.334 211.045L186.343 210.199L186.329 210.198Z" fill="white"/>
</g>
<g filter="url(#filter7_d_4026_811)">
<path d="M186.329 210.198L186.362 207.085L186.364 206.814C186.489 204.761 186.778 202.724 187.228 200.726C187.858 198.997 189.868 198.224 191.52 197.88C191.752 197.604 192.035 197.385 192.349 197.239C192.662 197.093 193.001 197.023 193.34 197.033L197.761 197.056C198.314 197.052 198.852 197.253 199.287 197.629L199.934 197.632L201.899 197.641L202.668 195.616L203.337 195.619L203.048 197.65L214.794 197.712C215.237 197.34 215.778 197.143 216.332 197.152L227.135 197.211C227.747 197.204 228.339 197.453 228.791 197.908C230.097 198.13 232.085 198.705 232.208 200.179L232.107 209.056L232.007 217.936C231.857 219.405 229.849 219.961 228.54 220.168C228.079 220.619 227.482 220.863 226.868 220.85L216.065 220.796C215.512 220.8 214.974 220.599 214.539 220.223L202.717 220.161L202.935 222.02L202.266 222.017L201.61 220.154L199.682 220.144L199.024 220.153C198.583 220.516 198.046 220.708 197.498 220.699L193.078 220.675C192.52 220.676 191.98 220.469 191.545 220.086C189.857 219.751 187.94 219.346 187.319 217.519C186.699 215.691 186.395 212.556 186.317 210.503L186.343 210.199L186.329 210.198Z" fill="white"/>
</g>
<path d="M186.818 206.28C186.829 205.825 187.17 205.465 187.581 205.474C187.991 205.484 188.315 205.861 188.305 206.315L188.148 212.898C188.137 213.353 187.795 213.713 187.385 213.703C186.974 213.694 186.65 213.317 186.661 212.863L186.818 206.28Z" fill="#333333"/>
<path d="M228.143 205.552C228.143 203.981 228.809 202.708 229.63 202.708C230.451 202.708 231.117 203.981 231.117 205.552L231.117 214.083C231.117 215.653 230.451 216.926 229.63 216.926C228.809 216.926 228.143 215.653 228.143 214.083L228.143 205.552Z" fill="#333333"/>
<path d="M228.143 202.128C228.143 201.219 228.809 200.481 229.63 200.481C230.451 200.481 231.117 201.219 231.117 202.128L231.117 205.42C231.117 206.329 230.451 207.067 229.63 207.067C228.809 207.067 228.143 206.329 228.143 205.42L228.143 202.128Z" fill="#333333"/>
<path d="M228.143 213.65C228.143 212.741 228.809 212.004 229.63 212.004C230.451 212.004 231.117 212.741 231.117 213.65L231.117 216.943C231.117 217.852 230.451 218.589 229.63 218.589C228.809 218.589 228.143 217.852 228.143 216.943L228.143 213.65Z" fill="#333333"/>
<path d="M197.911 210.01L197.923 210.01C197.942 212.307 198.328 214.581 199.064 216.725C199.214 217.232 199.459 217.698 199.783 218.092C200.106 218.487 200.502 218.801 200.943 219.014L200.967 219.015C201.066 219.05 201.167 219.077 201.27 219.093C201.489 219.134 201.713 219.121 201.927 219.054L208.643 216.112C207.706 215.421 207.308 210.753 207.188 208.986C207.23 207.217 207.406 202.531 208.309 201.767L201.472 199.327C201.255 199.276 201.03 199.28 200.814 199.337C200.712 199.361 200.612 199.394 200.514 199.436L200.491 199.44C200.059 199.687 199.679 200.03 199.374 200.448C199.069 200.866 198.846 201.35 198.719 201.868C198.086 204.061 197.807 206.358 197.894 208.654L197.882 208.654C197.887 208.883 197.892 209.107 197.899 209.328C197.905 209.549 197.908 209.773 197.914 210.002L197.911 210.01Z" fill="#333333"/>
<path d="M219.037 201.46L219.025 210.714L219.012 216.309L219.011 216.66C220.294 218.535 223.397 218.591 225.455 218.389L225.486 199.44C223.428 199.296 220.325 199.427 219.037 201.336L219.037 201.46Z" fill="#333333"/>
<path d="M219.171 197.701L204.584 197.622C204.584 197.622 210.858 201.005 212.565 201.015C214.272 201.024 220.886 197.71 219.171 197.701Z" fill="#333333"/>
<path d="M219.063 220.243L204.476 220.232C204.476 220.232 210.984 216.944 212.691 216.945C214.398 216.946 220.778 220.244 219.063 220.243Z" fill="#333333"/>
<rect width="79.1776" height="79.1776" rx="11" transform="matrix(-1 0 0 1 249.293 169.787)" fill="#5B67EC" fill-opacity="0.2"/>
<path fill-rule="evenodd" clip-rule="evenodd" d="M49.0018 142C46.2404 142 44.0018 144.239 44.0018 147V246H43.4017V221C43.4017 219.343 42.0585 218 40.4017 218H30.9375C25.4007 218 20.9178 222.499 20.9376 228.036L21.0018 246L47.8924 286.062C48.4455 286.886 48.7409 287.857 48.7409 288.849V327H126.074V287.327L136.106 272.91C136.689 272.072 137.002 271.075 137.002 270.054V246H137.002V207C137.002 202.582 133.42 199 129.002 199H122.002C119.241 199 117.002 201.239 117.002 204V246H116.591V197C116.591 193.686 113.905 191 110.591 191H100.002C97.2405 191 95.002 193.239 95.002 196V246H94.5912V195C94.5912 192.239 92.3527 190 89.5912 190H78.002C75.2405 190 73.002 192.239 73.002 195V246H72.2339V147C72.2339 144.239 69.9953 142 67.2339 142H49.0018Z" fill="#FCCACB"/>
<path d="M44.0018 246V246.5H44.5018V246H44.0018ZM43.4017 246H42.9017V246.5H43.4017V246ZM20.9376 228.036L21.4376 228.034L20.9376 228.036ZM21.0018 246L20.5018 246.002L20.5023 246.153L20.5866 246.279L21.0018 246ZM47.8924 286.062L48.3076 285.784L47.8924 286.062ZM48.7409 327H48.2409V327.5H48.7409V327ZM126.074 327V327.5H126.574V327H126.074ZM126.074 287.327L125.664 287.041L125.574 287.17V287.327H126.074ZM136.106 272.91L136.516 273.195L136.106 272.91ZM137.002 246V245.5H136.502V246H137.002ZM137.002 246V246.5H137.502V246H137.002ZM117.002 246V246.5H117.502V246H117.002ZM116.591 246H116.091V246.5H116.591V246ZM95.002 246V246.5H95.502V246H95.002ZM94.5912 246H94.0912V246.5H94.5912V246ZM73.002 246V246.5H73.502V246H73.002ZM72.2339 246H71.7339V246.5H72.2339V246ZM44.5018 147C44.5018 144.515 46.5165 142.5 49.0018 142.5V141.5C45.9642 141.5 43.5018 143.962 43.5018 147H44.5018ZM44.5018 246V147H43.5018V246H44.5018ZM43.4017 246.5H44.0018V245.5H43.4017V246.5ZM43.9017 246V221H42.9017V246H43.9017ZM43.9017 221C43.9017 219.067 42.3347 217.5 40.4017 217.5V218.5C41.7824 218.5 42.9017 219.619 42.9017 221H43.9017ZM40.4017 217.5H30.9375V218.5H40.4017V217.5ZM30.9375 217.5C25.1238 217.5 20.4168 222.224 20.4376 228.038L21.4376 228.034C21.4188 222.774 25.6775 218.5 30.9375 218.5V217.5ZM20.4376 228.038L20.5018 246.002L21.5018 245.998L21.4376 228.034L20.4376 228.038ZM48.3076 285.784L21.4169 245.721L20.5866 246.279L47.4773 286.341L48.3076 285.784ZM49.2409 288.849C49.2409 287.757 48.916 286.69 48.3076 285.784L47.4773 286.341C47.9751 287.083 48.2409 287.956 48.2409 288.849H49.2409ZM49.2409 327V288.849H48.2409V327H49.2409ZM126.074 326.5H48.7409V327.5H126.074V326.5ZM125.574 287.327V327H126.574V287.327H125.574ZM135.696 272.624L125.664 287.041L126.485 287.612L136.516 273.195L135.696 272.624ZM136.502 270.054C136.502 270.973 136.22 271.87 135.696 272.624L136.516 273.195C137.158 272.273 137.502 271.177 137.502 270.054H136.502ZM136.502 246V270.054H137.502V246H136.502ZM137.002 245.5H137.002V246.5H137.002V245.5ZM136.502 207V246H137.502V207H136.502ZM129.002 199.5C133.144 199.5 136.502 202.858 136.502 207H137.502C137.502 202.306 133.696 198.5 129.002 198.5V199.5ZM122.002 199.5H129.002V198.5H122.002V199.5ZM117.502 204C117.502 201.515 119.517 199.5 122.002 199.5V198.5C118.964 198.5 116.502 200.962 116.502 204H117.502ZM117.502 246V204H116.502V246H117.502ZM116.591 246.5H117.002V245.5H116.591V246.5ZM117.091 246V197H116.091V246H117.091ZM117.091 197C117.091 193.41 114.181 190.5 110.591 190.5V191.5C113.629 191.5 116.091 193.962 116.091 197H117.091ZM110.591 190.5H100.002V191.5H110.591V190.5ZM100.002 190.5C96.9644 190.5 94.502 192.962 94.502 196H95.502C95.502 193.515 97.5167 191.5 100.002 191.5V190.5ZM94.502 196V246H95.502V196H94.502ZM94.5912 246.5H95.002V245.5H94.5912V246.5ZM94.0912 195V246H95.0912V195H94.0912ZM89.5912 190.5C92.0765 190.5 94.0912 192.515 94.0912 195H95.0912C95.0912 191.962 92.6288 189.5 89.5912 189.5V190.5ZM78.002 190.5H89.5912V189.5H78.002V190.5ZM73.502 195C73.502 192.515 75.5167 190.5 78.002 190.5V189.5C74.9644 189.5 72.502 191.962 72.502 195H73.502ZM73.502 246V195H72.502V246H73.502ZM72.2339 246.5H73.002V245.5H72.2339V246.5ZM71.7339 147V246H72.7339V147H71.7339ZM67.2339 142.5C69.7192 142.5 71.7339 144.515 71.7339 147H72.7339C72.7339 143.962 70.2715 141.5 67.2339 141.5V142.5ZM49.0018 142.5H67.2339V141.5H49.0018V142.5Z" fill="#FF9BA7"/>
<defs>
<filter id="filter0_d_4026_811" x="13.7816" y="23.8234" width="53.9017" height="34.4271" filterUnits="userSpaceOnUse" color-interpolation-filters="sRGB">
<feFlood flood-opacity="0" result="BackgroundImageFix"/>
<feColorMatrix in="SourceAlpha" type="matrix" values="0 0 0 0 0 0 0 0 0 0 0 0 0 0 0 0 0 0 127 0" result="hardAlpha"/>
<feOffset dy="2.00569"/>
<feGaussianBlur stdDeviation="2.00569"/>
<feColorMatrix type="matrix" values="0 0 0 0 0 0 0 0 0 0 0 0 0 0 0 0 0 0 0.2 0"/>
<feBlend mode="normal" in2="BackgroundImageFix" result="effect1_dropShadow_4026_811"/>
<feBlend mode="normal" in="SourceGraphic" in2="effect1_dropShadow_4026_811" result="shape"/>
</filter>
<filter id="filter1_d_4026_811" x="13.7816" y="23.8234" width="53.9134" height="34.4271" filterUnits="userSpaceOnUse" color-interpolation-filters="sRGB">
<feFlood flood-opacity="0" result="BackgroundImageFix"/>
<feColorMatrix in="SourceAlpha" type="matrix" values="0 0 0 0 0 0 0 0 0 0 0 0 0 0 0 0 0 0 127 0" result="hardAlpha"/>
<feOffset dy="2.00569"/>
<feGaussianBlur stdDeviation="2.00569"/>
<feColorMatrix type="matrix" values="0 0 0 0 0 0 0 0 0 0 0 0 0 0 0 0 0 0 0.2 0"/>
<feBlend mode="normal" in2="BackgroundImageFix" result="effect1_dropShadow_4026_811"/>
<feBlend mode="normal" in="SourceGraphic" in2="effect1_dropShadow_4026_811" result="shape"/>
</filter>
<filter id="filter2_d_4026_811" x="13.7816" y="107.823" width="53.9017" height="34.4271" filterUnits="userSpaceOnUse" color-interpolation-filters="sRGB">
<feFlood flood-opacity="0" result="BackgroundImageFix"/>
<feColorMatrix in="SourceAlpha" type="matrix" values="0 0 0 0 0 0 0 0 0 0 0 0 0 0 0 0 0 0 127 0" result="hardAlpha"/>
<feOffset dy="2.00569"/>
<feGaussianBlur stdDeviation="2.00569"/>
<feColorMatrix type="matrix" values="0 0 0 0 0 0 0 0 0 0 0 0 0 0 0 0 0 0 0.2 0"/>
<feBlend mode="normal" in2="BackgroundImageFix" result="effect1_dropShadow_4026_811"/>
<feBlend mode="normal" in="SourceGraphic" in2="effect1_dropShadow_4026_811" result="shape"/>
</filter>
<filter id="filter3_d_4026_811" x="13.2894" y="107.314" width="54.8978" height="35.4466" filterUnits="userSpaceOnUse" color-interpolation-filters="sRGB">
<feFlood flood-opacity="0" result="BackgroundImageFix"/>
<feColorMatrix in="SourceAlpha" type="matrix" values="0 0 0 0 0 0 0 0 0 0 0 0 0 0 0 0 0 0 127 0" result="hardAlpha"/>
<feOffset dy="2.00569"/>
<feGaussianBlur stdDeviation="2.00569"/>
<feColorMatrix type="matrix" values="0 0 0 0 0 0 0 0 0 0 0 0 0 0 0 0 0 0 0.2 0"/>
<feBlend mode="normal" in2="BackgroundImageFix" result="effect1_dropShadow_4026_811"/>
<feBlend mode="normal" in="SourceGraphic" in2="effect1_dropShadow_4026_811" result="shape"/>
</filter>
<filter id="filter4_d_4026_811" x="13.7816" y="193.611" width="53.9017" height="34.4271" filterUnits="userSpaceOnUse" color-interpolation-filters="sRGB">
<feFlood flood-opacity="0" result="BackgroundImageFix"/>
<feColorMatrix in="SourceAlpha" type="matrix" values="0 0 0 0 0 0 0 0 0 0 0 0 0 0 0 0 0 0 127 0" result="hardAlpha"/>
<feOffset dy="2.00569"/>
<feGaussianBlur stdDeviation="2.00569"/>
<feColorMatrix type="matrix" values="0 0 0 0 0 0 0 0 0 0 0 0 0 0 0 0 0 0 0.2 0"/>
<feBlend mode="normal" in2="BackgroundImageFix" result="effect1_dropShadow_4026_811"/>
<feBlend mode="normal" in="SourceGraphic" in2="effect1_dropShadow_4026_811" result="shape"/>
</filter>
<filter id="filter5_d_4026_811" x="13.7816" y="193.611" width="53.9134" height="34.4271" filterUnits="userSpaceOnUse" color-interpolation-filters="sRGB">
<feFlood flood-opacity="0" result="BackgroundImageFix"/>
<feColorMatrix in="SourceAlpha" type="matrix" values="0 0 0 0 0 0 0 0 0 0 0 0 0 0 0 0 0 0 127 0" result="hardAlpha"/>
<feOffset dy="2.00569"/>
<feGaussianBlur stdDeviation="2.00569"/>
<feColorMatrix type="matrix" values="0 0 0 0 0 0 0 0 0 0 0 0 0 0 0 0 0 0 0.2 0"/>
<feBlend mode="normal" in2="BackgroundImageFix" result="effect1_dropShadow_4026_811"/>
<feBlend mode="normal" in="SourceGraphic" in2="effect1_dropShadow_4026_811" result="shape"/>
</filter>
<filter id="filter6_d_4026_811" x="182.317" y="193.611" width="53.9017" height="34.4271" filterUnits="userSpaceOnUse" color-interpolation-filters="sRGB">
<feFlood flood-opacity="0" result="BackgroundImageFix"/>
<feColorMatrix in="SourceAlpha" type="matrix" values="0 0 0 0 0 0 0 0 0 0 0 0 0 0 0 0 0 0 127 0" result="hardAlpha"/>
<feOffset dy="2.00569"/>
<feGaussianBlur stdDeviation="2.00569"/>
<feColorMatrix type="matrix" values="0 0 0 0 0 0 0 0 0 0 0 0 0 0 0 0 0 0 0.2 0"/>
<feBlend mode="normal" in2="BackgroundImageFix" result="effect1_dropShadow_4026_811"/>
<feBlend mode="normal" in="SourceGraphic" in2="effect1_dropShadow_4026_811" result="shape"/>
</filter>
<filter id="filter7_d_4026_811" x="182.305" y="193.611" width="53.9134" height="34.4271" filterUnits="userSpaceOnUse" color-interpolation-filters="sRGB">
<feFlood flood-opacity="0" result="BackgroundImageFix"/>
<feColorMatrix in="SourceAlpha" type="matrix" values="0 0 0 0 0 0 0 0 0 0 0 0 0 0 0 0 0 0 127 0" result="hardAlpha"/>
<feOffset dy="2.00569"/>
<feGaussianBlur stdDeviation="2.00569"/>
<feColorMatrix type="matrix" values="0 0 0 0 0 0 0 0 0 0 0 0 0 0 0 0 0 0 0.2 0"/>
<feBlend mode="normal" in2="BackgroundImageFix" result="effect1_dropShadow_4026_811"/>
<feBlend mode="normal" in="SourceGraphic" in2="effect1_dropShadow_4026_811" result="shape"/>
</filter>
</defs>
</svg>
