<svg width="415" height="500" viewBox="0 0 415 500" fill="none" xmlns="http://www.w3.org/2000/svg">
<g clip-path="url(#clip0_4295_13959)">
<path d="M41.1445 90.9443C46.7695 77.9441 51.5489 71.5808 62.9005 61.8403C98.5906 50.1948 122.205 46.2051 165.838 47.1278C172.833 47.2757 179.739 48.8467 186.134 51.6832C208.24 61.4882 222.431 68.7021 244.585 81.1469C274.865 81.2796 293.122 84.3435 311.262 95.1526C318.346 99.3736 324.252 105.927 325.682 114.049C326.729 120.001 325.969 125.531 323.829 133.016C320.447 137.173 318.126 138.835 313.023 140.22H72.485C58.7892 140.22 46.8321 130.944 43.427 117.678L42.2972 113.277L41.1445 90.9443Z" fill="white" stroke="black" stroke-width="1.5"/>
<path d="M237.784 132.739C239.042 113.045 238.296 100.78 233.75 81.0146L266.312 81.735C292.397 84.0893 311.417 93.4867 318.787 101.423C326.241 110.475 327.54 118.799 324.931 130.08C324.626 131.399 323.436 132.312 322.082 132.318L237.784 132.739Z" fill="#AFC7FC" stroke="black" stroke-width="1.5"/>
<path d="M293.844 95.9589C296.962 93.4075 299.206 92.9203 304.217 94.0858C310.026 95.1139 312.845 96.4223 317.087 100.289C319.397 102.064 319.892 103.238 320.21 105.612C309.837 106.188 303.128 103.294 293.844 95.9589Z" fill="#C6ECFB" stroke="black" stroke-width="1.5"/>
<path d="M42.5862 113.133L41.4336 90.8007L49.5021 75.8164L243.721 81.1474C272.818 81.3985 288.834 82.8251 308.744 93.3462C316.643 97.5202 323.321 104.321 325.227 113.049C326.516 118.948 326.45 125.068 324.457 132.037C321.076 136.194 318.415 138.692 313.312 140.076H72.7741C59.0782 140.076 47.1212 130.8 43.7161 117.535L42.5862 113.133Z" stroke="black" stroke-width="1.5"/>
<path d="M102.347 73.615L108.175 59.6033C108.475 58.8808 107.867 58.1086 107.094 58.2318L82.9602 62.0773C82.7519 62.1104 82.5595 62.2086 82.4104 62.3577L72.2442 72.5239C71.6143 73.1539 72.0604 74.231 72.9513 74.231H101.423C101.827 74.231 102.192 73.988 102.347 73.615Z" fill="#4F67FF"/>
<path d="M105.791 72.8681L111.371 58.5367C111.511 58.1781 111.844 57.9315 112.228 57.9024L163.689 53.9974C164.27 53.9534 164.765 54.4124 164.765 54.9945V73.231C164.765 73.7833 164.317 74.231 163.765 74.231H106.723C106.019 74.231 105.536 73.5237 105.791 72.8681Z" fill="#4F67FF"/>
<path d="M167.215 73.2606V54.9738C167.215 54.3994 167.697 53.943 168.271 53.9754L184.884 54.9133C185.014 54.9206 185.141 54.953 185.258 55.0087L225.301 74.0586C226.279 74.5236 225.924 75.9936 224.842 75.9611L168.185 74.2601C167.644 74.2439 167.215 73.8012 167.215 73.2606Z" fill="#4F67FF"/>
<path d="M102.347 73.615L108.175 59.6033C108.475 58.8808 107.867 58.1086 107.094 58.2318L82.9602 62.0773C82.7519 62.1104 82.5595 62.2086 82.4104 62.3577L72.2442 72.5239C71.6143 73.1539 72.0604 74.231 72.9513 74.231H101.423C101.827 74.231 102.192 73.988 102.347 73.615Z" stroke="black" stroke-width="1.5"/>
<path d="M105.791 72.8681L111.371 58.5367C111.511 58.1781 111.844 57.9315 112.228 57.9024L163.689 53.9974C164.27 53.9534 164.765 54.4124 164.765 54.9945V73.231C164.765 73.7833 164.317 74.231 163.765 74.231H106.723C106.019 74.231 105.536 73.5237 105.791 72.8681Z" stroke="black" stroke-width="1.5"/>
<path d="M167.215 73.2606V54.9738C167.215 54.3994 167.697 53.943 168.271 53.9754L184.884 54.9133C185.014 54.9206 185.141 54.953 185.258 55.0087L225.301 74.0586C226.279 74.5236 225.924 75.9936 224.842 75.9611L168.185 74.2601C167.644 74.2439 167.215 73.8012 167.215 73.2606Z" stroke="black" stroke-width="1.5"/>
<path d="M220.406 69.1885H220.824C221.289 69.1885 221.748 69.2969 222.165 69.5052L225.66 71.2526C226.163 71.5043 226.59 71.8911 226.871 72.3782C227.681 73.7781 228.097 74.7701 228.591 76.3925L227.871 77.2569H220.4C219.031 77.2569 217.794 76.3357 217.597 74.9809C217.421 73.7741 217.42 72.703 217.599 71.4711C217.797 70.1137 219.034 69.1885 220.406 69.1885Z" fill="white" stroke="black" stroke-width="1.5"/>
<path d="M95.1739 90.8007L101.369 77.4013L50.3652 75.8164C46.233 80.0675 44.2299 83.5059 41 90.8007L42.4408 112.989C43.9402 121.389 45.5831 125.658 50.3652 132.205L95.1739 134.313V90.8007Z" fill="#AFC7FC" stroke="black" stroke-width="1.5"/>
<path d="M167.79 79.4175L101.513 77.4004L95.1738 90.6557V134.168L169.519 133.591C171.968 115.87 171.479 100.538 167.79 79.4175Z" fill="#AFC7FC" stroke="black" stroke-width="1.5"/>
<path d="M233.489 81.1463L167.789 79.1292C171.1 100.611 171.427 113.384 169.662 133.591L237.235 133.015C238.964 114.717 238.207 100.68 233.489 81.1463Z" fill="#AFC7FC" stroke="black" stroke-width="1.5"/>
<circle cx="93.0123" cy="138.49" r="28.3541" fill="#303030" stroke="black" stroke-width="1.5"/>
<circle cx="92.7251" cy="138.778" r="17.2895" fill="#565357"/>
<mask id="path-12-inside-1_4295_13959" fill="white">
<path fill-rule="evenodd" clip-rule="evenodd" d="M94.7404 120.914H90.418V133.416L81.6619 124.66L78.6055 127.716L87.3632 136.474H74.5703V140.796H87.938L78.6046 150.13L81.6609 153.186L90.418 144.429V156.933H94.7404V143.851L104.075 153.186L107.132 150.13L97.7983 140.796H110.59V136.474H98.3732L107.131 127.716L104.074 124.66L94.7404 133.994V120.914Z"/>
</mask>
<path fill-rule="evenodd" clip-rule="evenodd" d="M94.7404 120.914H90.418V133.416L81.6619 124.66L78.6055 127.716L87.3632 136.474H74.5703V140.796H87.938L78.6046 150.13L81.6609 153.186L90.418 144.429V156.933H94.7404V143.851L104.075 153.186L107.132 150.13L97.7983 140.796H110.59V136.474H98.3732L107.131 127.716L104.074 124.66L94.7404 133.994V120.914Z" fill="#D9D9D9"/>
<path d="M90.418 120.914V119.414H88.918V120.914H90.418ZM94.7404 120.914H96.2404V119.414H94.7404V120.914ZM90.418 133.416L89.3573 134.476L91.918 137.037V133.416H90.418ZM81.6619 124.66L82.7225 123.599L81.6619 122.538L80.6012 123.599L81.6619 124.66ZM78.6055 127.716L77.5448 126.655L76.4841 127.716L77.5448 128.777L78.6055 127.716ZM87.3632 136.474V137.974H90.9845L88.4238 135.413L87.3632 136.474ZM74.5703 136.474V134.974H73.0703V136.474H74.5703ZM74.5703 140.796H73.0703V142.296H74.5703V140.796ZM87.938 140.796L88.9987 141.857L91.5593 139.296H87.938V140.796ZM78.6046 150.13L77.5439 149.069L76.4832 150.13L77.5439 151.19L78.6046 150.13ZM81.6609 153.186L80.6003 154.247L81.6609 155.307L82.7216 154.247L81.6609 153.186ZM90.418 144.429H91.918V140.808L89.3573 143.368L90.418 144.429ZM90.418 156.933H88.918V158.433H90.418V156.933ZM94.7404 156.933V158.433H96.2404V156.933H94.7404ZM94.7404 143.851L95.801 142.79L93.2404 140.23V143.851H94.7404ZM104.075 153.186L103.015 154.247L104.075 155.307L105.136 154.247L104.075 153.186ZM107.132 150.13L108.192 151.19L109.253 150.13L108.192 149.069L107.132 150.13ZM97.7983 140.796V139.296H94.177L96.7377 141.857L97.7983 140.796ZM110.59 140.796V142.296H112.09V140.796H110.59ZM110.59 136.474H112.09V134.974H110.59V136.474ZM98.3732 136.474L97.3125 135.413L94.7518 137.974H98.3732V136.474ZM107.131 127.716L108.192 128.777L109.252 127.716L108.192 126.655L107.131 127.716ZM104.074 124.66L105.135 123.599L104.074 122.538L103.014 123.599L104.074 124.66ZM94.7404 133.994H93.2404V137.615L95.801 135.054L94.7404 133.994ZM90.418 122.414H94.7404V119.414H90.418V122.414ZM91.918 133.416V120.914H88.918V133.416H91.918ZM80.6012 125.72L89.3573 134.476L91.4786 132.355L82.7225 123.599L80.6012 125.72ZM79.6661 128.777L82.7225 125.72L80.6012 123.599L77.5448 126.655L79.6661 128.777ZM88.4238 135.413L79.6661 126.655L77.5448 128.777L86.3025 137.534L88.4238 135.413ZM74.5703 137.974H87.3632V134.974H74.5703V137.974ZM76.0703 140.796V136.474H73.0703V140.796H76.0703ZM87.938 139.296H74.5703V142.296H87.938V139.296ZM86.8773 139.735L77.5439 149.069L79.6652 151.19L88.9987 141.857L86.8773 139.735ZM77.5439 151.19L80.6003 154.247L82.7216 152.125L79.6652 149.069L77.5439 151.19ZM82.7216 154.247L91.4786 145.49L89.3573 143.368L80.6003 152.125L82.7216 154.247ZM91.918 156.933V144.429H88.918V156.933H91.918ZM94.7404 155.433H90.418V158.433H94.7404V155.433ZM93.2404 143.851V156.933H96.2404V143.851H93.2404ZM105.136 152.125L95.801 142.79L93.6797 144.912L103.015 154.247L105.136 152.125ZM106.071 149.069L103.015 152.125L105.136 154.247L108.192 151.19L106.071 149.069ZM96.7377 141.857L106.071 151.19L108.192 149.069L98.859 139.735L96.7377 141.857ZM110.59 139.296H97.7983V142.296H110.59V139.296ZM109.09 136.474V140.796H112.09V136.474H109.09ZM98.3732 137.974H110.59V134.974H98.3732V137.974ZM99.4338 137.534L108.192 128.777L106.07 126.655L97.3125 135.413L99.4338 137.534ZM108.192 126.655L105.135 123.599L103.014 125.72L106.07 128.777L108.192 126.655ZM103.014 123.599L93.6797 132.933L95.801 135.054L105.135 125.72L103.014 123.599ZM93.2404 120.914V133.994H96.2404V120.914H93.2404Z" fill="black" mask="url(#path-12-inside-1_4295_13959)"/>
<path fill-rule="evenodd" clip-rule="evenodd" d="M92.7253 164.713C107.048 164.713 118.66 153.102 118.66 138.779C118.66 124.456 107.048 112.845 92.7253 112.845C78.4022 112.845 66.791 124.456 66.791 138.779C66.791 153.102 78.4022 164.713 92.7253 164.713ZM92.7249 156.069C102.274 156.069 110.014 148.328 110.014 138.78C110.014 129.231 102.274 121.49 92.7249 121.49C83.1762 121.49 75.4354 129.231 75.4354 138.78C75.4354 148.328 83.1762 156.069 92.7249 156.069Z" fill="black"/>
<circle cx="92.5811" cy="138.635" r="2.16119" fill="black"/>
<circle cx="280.317" cy="138.779" r="28.3541" fill="#303030" stroke="black" stroke-width="1.5"/>
<circle cx="280.317" cy="138.778" r="17.2895" fill="#565357"/>
<mask id="path-18-inside-2_4295_13959" fill="white">
<path fill-rule="evenodd" clip-rule="evenodd" d="M282.332 120.914H278.01V133.418L269.252 124.66L266.195 127.716L274.953 136.474H262.162V140.796H275.243L266.196 149.842L269.253 152.899L278.01 144.142V156.933H282.332V143.853L291.665 153.186L294.722 150.13L285.388 140.796H298.182V136.474H285.678L294.723 127.429L291.666 124.373L282.332 133.707V120.914Z"/>
</mask>
<path fill-rule="evenodd" clip-rule="evenodd" d="M282.332 120.914H278.01V133.418L269.252 124.66L266.195 127.716L274.953 136.474H262.162V140.796H275.243L266.196 149.842L269.253 152.899L278.01 144.142V156.933H282.332V143.853L291.665 153.186L294.722 150.13L285.388 140.796H298.182V136.474H285.678L294.723 127.429L291.666 124.373L282.332 133.707V120.914Z" fill="#D9D9D9"/>
<path d="M278.01 120.914V119.414H276.51V120.914H278.01ZM282.332 120.914H283.832V119.414H282.332V120.914ZM278.01 133.418L276.949 134.478L279.51 137.039V133.418H278.01ZM269.252 124.66L270.312 123.599L269.252 122.538L268.191 123.599L269.252 124.66ZM266.195 127.716L265.135 126.655L264.074 127.716L265.135 128.777L266.195 127.716ZM274.953 136.474V137.974H278.574L276.014 135.413L274.953 136.474ZM262.162 136.474V134.974H260.662V136.474H262.162ZM262.162 140.796H260.662V142.296H262.162V140.796ZM275.243 140.796L276.303 141.857L278.864 139.296H275.243V140.796ZM266.196 149.842L265.136 148.782L264.075 149.842L265.136 150.903L266.196 149.842ZM269.253 152.899L268.192 153.96L269.253 155.02L270.313 153.96L269.253 152.899ZM278.01 144.142H279.51V140.521L276.949 143.081L278.01 144.142ZM278.01 156.933H276.51V158.433H278.01V156.933ZM282.332 156.933V158.433H283.832V156.933H282.332ZM282.332 143.853L283.393 142.792L280.832 140.232V143.853H282.332ZM291.665 153.186L290.605 154.247L291.665 155.307L292.726 154.247L291.665 153.186ZM294.722 150.13L295.782 151.19L296.843 150.13L295.782 149.069L294.722 150.13ZM285.388 140.796V139.296H281.767L284.328 141.857L285.388 140.796ZM298.182 140.796V142.296H299.682V140.796H298.182ZM298.182 136.474H299.682V134.974H298.182V136.474ZM285.678 136.474L284.617 135.413L282.057 137.974H285.678V136.474ZM294.723 127.429L295.783 128.49L296.844 127.429L295.783 126.368L294.723 127.429ZM291.666 124.373L292.727 123.312L291.666 122.251L290.606 123.312L291.666 124.373ZM282.332 133.707H280.832V137.328L283.393 134.767L282.332 133.707ZM278.01 122.414H282.332V119.414H278.01V122.414ZM279.51 133.418V120.914H276.51V133.418H279.51ZM268.191 125.72L276.949 134.478L279.07 132.357L270.312 123.599L268.191 125.72ZM267.256 128.777L270.312 125.72L268.191 123.599L265.135 126.655L267.256 128.777ZM276.014 135.413L267.256 126.655L265.135 128.777L273.892 137.534L276.014 135.413ZM262.162 137.974H274.953V134.974H262.162V137.974ZM263.662 140.796V136.474H260.662V140.796H263.662ZM275.243 139.296H262.162V142.296H275.243V139.296ZM274.182 139.735L265.136 148.782L267.257 150.903L276.303 141.857L274.182 139.735ZM265.136 150.903L268.192 153.96L270.313 151.838L267.257 148.782L265.136 150.903ZM270.313 153.96L279.07 145.203L276.949 143.081L268.192 151.838L270.313 153.96ZM279.51 156.933V144.142H276.51V156.933H279.51ZM282.332 155.433H278.01V158.433H282.332V155.433ZM280.832 143.853V156.933H283.832V143.853H280.832ZM292.726 152.125L283.393 142.792L281.271 144.914L290.605 154.247L292.726 152.125ZM293.661 149.069L290.605 152.125L292.726 154.247L295.782 151.19L293.661 149.069ZM284.328 141.857L293.661 151.19L295.782 149.069L286.449 139.735L284.328 141.857ZM298.182 139.296H285.388V142.296H298.182V139.296ZM296.682 136.474V140.796H299.682V136.474H296.682ZM285.678 137.974H298.182V134.974H285.678V137.974ZM286.739 137.534L295.783 128.49L293.662 126.368L284.617 135.413L286.739 137.534ZM295.783 126.368L292.727 123.312L290.606 125.433L293.662 128.49L295.783 126.368ZM290.606 123.312L281.271 132.646L283.393 134.767L292.727 125.433L290.606 123.312ZM280.832 120.914V133.707H283.832V120.914H280.832Z" fill="black" mask="url(#path-18-inside-2_4295_13959)"/>
<path fill-rule="evenodd" clip-rule="evenodd" d="M280.317 164.713C294.64 164.713 306.251 153.102 306.251 138.779C306.251 124.456 294.64 112.845 280.317 112.845C265.994 112.845 254.383 124.456 254.383 138.779C254.383 153.102 265.994 164.713 280.317 164.713ZM280.317 156.069C289.865 156.069 297.606 148.328 297.606 138.78C297.606 129.231 289.865 121.49 280.317 121.49C270.768 121.49 263.027 129.231 263.027 138.78C263.027 148.328 270.768 156.069 280.317 156.069Z" fill="black"/>
<circle cx="280.171" cy="138.635" r="2.16119" fill="black"/>
<path d="M62.7933 103.082L55.6926 95.9811C55.5108 95.7993 55.2659 95.6945 55.0088 95.6885L49.2139 95.5537H44.0392C43.5662 95.5537 43.1085 95.7214 42.7474 96.0269L41.4336 97.1386L41.7218 104.343C45.5498 107.487 51.7868 107.183 62.3154 104.753C63.0763 104.578 63.3455 103.634 62.7933 103.082Z" fill="#C6ECFB" stroke="black" stroke-width="1.5"/>
<path d="M294.113 394H201.113L217.675 429C246.466 414.811 263.538 408.167 294.113 394Z" fill="#FBA5A4"/>
<rect x="171.613" y="123.5" width="139" height="269" rx="17.5" fill="white" stroke="black" stroke-width="3"/>
<rect x="219.113" y="134" width="46" height="13" rx="6.5" fill="black"/>
<rect x="181.113" y="341" width="121.36" height="28.4893" rx="5" fill="#5B67EC"/>
<mask id="path-27-inside-3_4295_13959" fill="white">
<path fill-rule="evenodd" clip-rule="evenodd" d="M222.237 301.412C218.816 297.076 212.528 296.334 208.192 299.755L190.253 313.908L142.394 346.32C137.821 349.417 136.624 355.635 139.721 360.207L142.243 363.931L154.614 453H164.114H219.114H264.114L317.614 389C282.354 391.966 250.982 405.026 217.815 422.679C214.676 401.804 206.458 385.338 192.119 366.617L208.015 355.852C218.605 366.624 235.833 367.916 247.965 358.344L251.941 355.207C256.277 351.787 257.019 345.499 253.598 341.163L222.237 301.412Z"/>
</mask>
<path fill-rule="evenodd" clip-rule="evenodd" d="M222.237 301.412C218.816 297.076 212.528 296.334 208.192 299.755L190.253 313.908L142.394 346.32C137.821 349.417 136.624 355.635 139.721 360.207L142.243 363.931L154.614 453H164.114H219.114H264.114L317.614 389C282.354 391.966 250.982 405.026 217.815 422.679C214.676 401.804 206.458 385.338 192.119 366.617L208.015 355.852C218.605 366.624 235.833 367.916 247.965 358.344L251.941 355.207C256.277 351.787 257.019 345.499 253.598 341.163L222.237 301.412Z" fill="#FCCACB"/>
<path d="M208.192 299.755L208.812 300.54V300.54L208.192 299.755ZM222.237 301.412L223.022 300.792V300.792L222.237 301.412ZM190.253 313.908L190.814 314.736L190.844 314.715L190.872 314.693L190.253 313.908ZM142.394 346.32L142.954 347.148H142.954L142.394 346.32ZM139.721 360.207L140.549 359.647L140.549 359.647L139.721 360.207ZM142.243 363.931L143.233 363.794L143.201 363.563L143.071 363.37L142.243 363.931ZM154.614 453L153.623 453.137L153.743 454H154.614V453ZM264.114 453V454H264.581L264.881 453.641L264.114 453ZM317.614 389L318.381 389.641L319.918 387.803L317.53 388.003L317.614 389ZM217.815 422.679L216.827 422.827L217.037 424.226L218.285 423.561L217.815 422.679ZM192.119 366.617L191.558 365.789L190.681 366.383L191.325 367.225L192.119 366.617ZM208.015 355.852L208.728 355.15L208.144 354.556L207.454 355.024L208.015 355.852ZM247.965 358.344L247.346 357.559L247.965 358.344ZM251.941 355.207L251.322 354.422L251.941 355.207ZM253.598 341.163L252.813 341.782L253.598 341.163ZM208.812 300.54C212.714 297.461 218.373 298.129 221.452 302.031L223.022 300.792C219.259 296.023 212.343 295.207 207.573 298.969L208.812 300.54ZM190.872 314.693L208.812 300.54L207.573 298.969L189.634 313.122L190.872 314.693ZM142.954 347.148L190.814 314.736L189.692 313.08L141.833 345.492L142.954 347.148ZM140.549 359.647C137.762 355.531 138.839 349.935 142.954 347.148L141.833 345.492C136.803 348.899 135.487 355.738 138.893 360.768L140.549 359.647ZM143.071 363.37L140.549 359.647L138.893 360.768L141.415 364.492L143.071 363.37ZM155.604 452.862L143.233 363.794L141.253 364.069L153.623 453.137L155.604 452.862ZM164.114 452H154.614V454H164.114V452ZM164.114 454H219.114V452H164.114V454ZM219.114 454H264.114V452H219.114V454ZM264.881 453.641L318.381 389.641L316.846 388.359L263.346 452.359L264.881 453.641ZM317.53 388.003C282.07 390.986 250.556 404.12 217.346 421.796L218.285 423.561C251.408 405.932 282.639 392.945 317.697 389.996L317.53 388.003ZM191.325 367.225C205.593 385.854 213.719 402.165 216.827 422.827L218.804 422.53C215.633 401.442 207.322 384.822 192.913 366.009L191.325 367.225ZM207.454 355.024L191.558 365.789L192.68 367.445L208.576 356.68L207.454 355.024ZM247.346 357.559C235.618 366.812 218.965 365.563 208.728 355.15L207.302 356.553C218.246 367.685 236.047 369.021 248.585 359.129L247.346 357.559ZM251.322 354.422L247.346 357.559L248.585 359.129L252.561 355.992L251.322 354.422ZM252.813 341.782C255.892 345.684 255.224 351.344 251.322 354.422L252.561 355.992C257.33 352.23 258.146 345.313 254.383 340.543L252.813 341.782ZM221.452 302.031L252.813 341.782L254.383 340.543L223.022 300.792L221.452 302.031Z" fill="#FF9BA7" mask="url(#path-27-inside-3_4295_13959)"/>
<path d="M292.613 291C292.613 281.335 300.448 273.5 310.113 273.5H322.113C327.36 273.5 331.613 277.753 331.613 283V299C331.613 304.247 327.36 308.5 322.113 308.5H310.113C300.448 308.5 292.613 300.665 292.613 291Z" fill="#FCCACB" stroke="#FF9BA7"/>
<path d="M292.613 327C292.613 317.335 300.448 309.5 310.113 309.5H322.113C327.36 309.5 331.613 313.753 331.613 319V335C331.613 340.247 327.36 344.5 322.113 344.5H310.113C300.448 344.5 292.613 336.665 292.613 327Z" fill="#FCCACB" stroke="#FF9BA7"/>
<path d="M292.613 363C292.613 353.335 300.448 345.5 310.113 345.5H322.113C327.36 345.5 331.613 349.753 331.613 355V371C331.613 376.247 327.36 380.5 322.113 380.5H310.113C300.448 380.5 292.613 372.665 292.613 363Z" fill="#FCCACB" stroke="#FF9BA7"/>
<path d="M292.613 399C292.613 389.335 300.448 381.5 310.113 381.5H322.113C327.36 381.5 331.613 385.753 331.613 391V407C331.613 412.247 327.36 416.5 322.113 416.5H310.113C300.448 416.5 292.613 408.665 292.613 399Z" fill="#FCCACB" stroke="#FF9BA7"/>
<path d="M203.648 226.376H204.386V226.7C204.386 228.149 202.919 229.256 201.173 229.526L200.849 228.86C202.37 228.653 203.648 227.717 203.648 226.7V226.376ZM203.873 226.376H204.602V226.7C204.602 227.717 205.889 228.653 207.41 228.86L207.095 229.526C205.34 229.256 203.873 228.149 203.873 226.7V226.376ZM203.693 230.633H204.53V233.72H203.693V230.633ZM200.435 230.165H207.824V230.858H200.435V230.165ZM201.119 226.034H207.122V226.709H201.119V226.034ZM210.433 227.528H211.099V228.167C211.099 229.895 210.199 231.515 208.858 232.163L208.39 231.515C209.623 230.93 210.433 229.535 210.433 228.167V227.528ZM210.604 227.528H211.261V228.167C211.261 229.445 212.026 230.777 213.223 231.362L212.755 232.01C211.45 231.371 210.604 229.796 210.604 228.167V227.528ZM208.624 226.943H213.034V227.618H208.624V226.943ZM210.424 225.701H211.261V227.312H210.424V225.701ZM213.952 225.548H214.798V233.729H213.952V225.548ZM214.609 228.86H216.103V229.562H214.609V228.86ZM222.016 225.548H222.862V233.729H222.016V225.548ZM222.664 228.869H224.158V229.571H222.664V228.869ZM216.499 226.826H221.305V227.51H216.499V226.826ZM218.938 228.14C220.099 228.14 220.945 228.923 220.945 230.039C220.945 231.155 220.099 231.938 218.938 231.938C217.777 231.938 216.922 231.155 216.922 230.039C216.922 228.923 217.777 228.14 218.938 228.14ZM218.938 228.842C218.236 228.842 217.723 229.328 217.723 230.039C217.723 230.75 218.236 231.236 218.938 231.236C219.631 231.236 220.135 230.75 220.135 230.039C220.135 229.328 219.631 228.842 218.938 228.842ZM218.497 225.647H219.343V227.123H218.497V225.647ZM230.484 225.539H231.33V233.72H230.484V225.539ZM228.081 226.412H228.918C228.918 228.815 227.901 230.885 225.129 232.235L224.679 231.551C227.037 230.417 228.081 228.743 228.081 226.556V226.412ZM225.066 226.412H228.45V227.096H225.066V226.412ZM240.687 225.539H241.524V233.738H240.687V225.539ZM238.59 228.536H240.93V229.229H238.59V228.536ZM235.08 226.187H235.926V228.275H238.05V226.187H238.878V231.704H235.08V226.187ZM235.926 228.941V231.02H238.05V228.941H235.926ZM242.811 230.048H250.2V230.723H242.811V230.048ZM243.747 232.865H249.435V233.558H243.747V232.865ZM243.747 231.281H244.593V233.126H243.747V231.281ZM243.774 228.698H249.354V229.346H243.774V228.698ZM243.774 225.836H249.309V226.493H244.611V228.959H243.774V225.836ZM244.368 227.258H249.102V227.897H244.368V227.258ZM254.564 225.674C256.382 225.674 257.462 226.178 257.462 227.087C257.462 228.005 256.382 228.509 254.564 228.509C252.746 228.509 251.666 228.005 251.666 227.087C251.666 226.178 252.746 225.674 254.564 225.674ZM254.564 226.313C253.268 226.313 252.539 226.592 252.539 227.087C252.539 227.6 253.268 227.87 254.564 227.87C255.86 227.87 256.589 227.6 256.589 227.087C256.589 226.592 255.86 226.313 254.564 226.313ZM250.865 229.013H258.263V229.688H250.865V229.013ZM251.747 230.336H257.327V232.235H252.602V233.171H251.765V231.632H256.49V230.975H251.747V230.336ZM251.765 232.991H257.561V233.648H251.765V232.991ZM261.986 228.248H267.611V228.932H261.986V228.248ZM261.041 230.093H268.448V230.786H261.041V230.093ZM264.29 230.471H265.127V233.729H264.29V230.471ZM261.986 225.944H262.823V228.581H261.986V225.944ZM269.095 232.019H276.502V232.721H269.095V232.019ZM269.977 226.151H275.602V228.689H270.832V230.264H269.995V228.014H274.774V226.835H269.977V226.151ZM269.995 229.922H275.791V230.606H269.995V229.922ZM281.074 226.952H283.315V227.636H281.074V226.952ZM281.074 228.698H283.333V229.391H281.074V228.698ZM277.51 226.241H281.272V230.111H277.51V226.241ZM280.444 226.916H278.338V229.436H280.444V226.916ZM283.054 225.548H283.9V231.515H283.054V225.548ZM278.608 232.865H284.089V233.558H278.608V232.865ZM278.608 230.975H279.454V233.189H278.608V230.975ZM215.544 241.43H216.237V242.06C216.237 243.572 215.364 244.859 213.942 245.363L213.519 244.697C214.779 244.256 215.544 243.194 215.544 242.06V241.43ZM215.697 241.43H216.39V242.051C216.39 243.095 217.119 244.049 218.343 244.445L217.938 245.102C216.525 244.643 215.697 243.455 215.697 242.051V241.43ZM213.762 241.133H218.145V241.826H213.762V241.133ZM219.09 240.548H219.936V245.453H219.09V240.548ZM219.702 242.573H221.115V243.275H219.702V242.573ZM217.317 245.66C218.991 245.66 220.017 246.227 220.017 247.181C220.017 248.153 218.991 248.711 217.317 248.711C215.643 248.711 214.608 248.153 214.608 247.181C214.608 246.227 215.643 245.66 217.317 245.66ZM217.317 246.335C216.138 246.335 215.445 246.632 215.445 247.181C215.445 247.739 216.138 248.054 217.317 248.054C218.487 248.054 219.189 247.739 219.189 247.181C219.189 246.632 218.487 246.335 217.317 246.335ZM227.495 240.539H228.341V248.72H227.495V240.539ZM223.832 242.528H224.516V243.167C224.516 244.913 223.571 246.524 222.212 247.163L221.744 246.515C222.986 245.939 223.832 244.553 223.832 243.167V242.528ZM224.003 242.528H224.669V243.167C224.669 244.49 225.542 245.822 226.784 246.362L226.325 247.019C224.957 246.416 224.003 244.859 224.003 243.167V242.528ZM221.987 241.943H226.496V242.618H221.987V241.943ZM223.832 240.701H224.678V242.312H223.832V240.701ZM235.145 240.539H235.991V248.72H235.145V240.539ZM235.766 243.815H237.26V244.517H235.766V243.815ZM233.039 241.412H233.867C233.867 243.761 232.832 245.867 230.168 247.208L229.7 246.551C231.932 245.417 233.039 243.725 233.039 241.547V241.412ZM230.087 241.412H233.48V242.105H230.087V241.412ZM245.978 240.539H246.788V248.72H245.978V240.539ZM244.673 243.833H246.203V244.526H244.673V243.833ZM244.133 240.71H244.925V248.315H244.133V240.71ZM240.227 241.511H241.064V246.236H240.227V241.511ZM240.227 245.903H240.758C241.586 245.903 242.513 245.858 243.575 245.651L243.665 246.38C242.558 246.587 241.622 246.632 240.758 246.632H240.227V245.903ZM253.807 240.539H254.653V248.738H253.807V240.539ZM252.259 242.375H254.005V243.068H252.259V242.375ZM248.2 246.146H248.812C250.072 246.146 251.098 246.11 252.331 245.912L252.403 246.614C251.143 246.812 250.09 246.848 248.812 246.848H248.2V246.146ZM248.182 241.268H251.764V244.247H249.037V246.308H248.2V243.572H250.936V241.961H248.182V241.268ZM252.205 244.607H253.96V245.3H252.205V244.607ZM261.42 240.539H262.266V248.72H261.42V240.539ZM262.041 243.815H263.535V244.517H262.041V243.815ZM259.314 241.412H260.142C260.142 243.761 259.107 245.867 256.443 247.208L255.975 246.551C258.207 245.417 259.314 243.725 259.314 241.547V241.412ZM256.362 241.412H259.755V242.105H256.362V241.412ZM265.785 244.742H266.622V247.154H265.785V244.742ZM268.791 244.742H269.637V247.154H268.791V244.742ZM264.012 247.001H271.419V247.703H264.012V247.001ZM267.702 241.034C269.439 241.034 270.69 241.871 270.69 243.158C270.69 244.445 269.439 245.282 267.702 245.282C265.965 245.282 264.714 244.445 264.714 243.158C264.714 241.871 265.965 241.034 267.702 241.034ZM267.702 241.7C266.424 241.7 265.533 242.267 265.533 243.158C265.533 244.04 266.424 244.616 267.702 244.616C268.971 244.616 269.871 244.04 269.871 243.158C269.871 242.267 268.971 241.7 267.702 241.7Z" fill="black"/>
<path d="M321.206 160.572C324.685 154.064 331.465 150 338.845 150H375.143V166.571H323.005C320.739 166.571 319.291 164.156 320.359 162.157L321.206 160.572Z" fill="#333333"/>
<path d="M375 150H425C426.657 150 428 151.343 428 153V161C428 162.657 426.657 164 425 164H375V150Z" fill="#5B67EC"/>
<path d="M175.5 92.2676V91.2676C175.5 90.7153 175.948 90.2676 176.5 90.2676H185C185.552 90.2676 186 90.7153 186 91.2676V92.2676C186 92.8199 185.552 93.2676 185 93.2676H176.5C175.948 93.2676 175.5 92.8199 175.5 92.2676Z" stroke="black"/>
<path d="M106 92.2676V91.2676C106 90.7153 106.448 90.2676 107 90.2676H115.5C116.052 90.2676 116.5 90.7153 116.5 91.2676V92.2676C116.5 92.8199 116.052 93.2676 115.5 93.2676H107C106.448 93.2676 106 92.8199 106 92.2676Z" stroke="black"/>
<path fill-rule="evenodd" clip-rule="evenodd" d="M231.16 201.292C231.296 200.539 233.586 195.03 233.918 194.586C233.974 194.511 234.031 194.417 234.095 194.309C234.413 193.782 234.924 192.934 236.514 192.421C238.426 191.804 244.593 191.918 246.31 192.421C247.622 192.805 248.314 193.71 248.849 194.41C248.895 194.47 248.94 194.529 248.984 194.586C249.539 195.301 251.651 200.5 251.827 201.292C252.003 202.085 251.827 208.282 251.514 208.695C251.202 209.107 247.455 209.096 247.104 208.695C246.753 208.293 246.792 207.226 246.792 207.226H236.253C236.253 207.226 236.253 208.366 235.922 208.695C235.59 209.023 231.84 209.057 231.511 208.695C231.16 208.308 231.023 202.046 231.16 201.292ZM233.501 199.611C233.033 199.089 234.559 195.22 235 194.797C235 194.797 235.471 193.831 237.115 193.348C238.758 192.866 244.613 192.962 245.751 193.348C246.89 193.735 247.362 194.161 247.891 194.797C248.42 195.432 249.895 199.185 249.641 199.611C249.387 200.036 233.97 200.133 233.501 199.611ZM246.226 204.828C245.796 204.713 245.152 204.249 245.152 203.514C245.152 202.78 245.601 202.161 246.284 201.968C246.585 201.883 248.783 201.829 249.27 202.026C250.324 202.451 249.677 203.759 248.821 204.249C248.274 204.562 246.967 205.099 246.226 204.828ZM237.896 203.554C237.896 204.288 237.252 204.752 236.823 204.868C236.081 205.138 234.775 204.602 234.227 204.288C233.372 203.798 232.724 202.49 233.778 202.065C234.265 201.869 236.463 201.922 236.764 202.007C237.447 202.201 237.896 202.819 237.896 203.554ZM230.265 200.906C230.539 200.828 231.534 198.026 231.436 197.852C231.339 197.678 230.304 197.797 230.031 197.949C229.758 198.1 229.299 198.44 229.133 198.934C228.982 199.386 228.931 199.702 229.133 200.133C229.401 200.7 229.992 200.983 230.265 200.906ZM251.564 197.841C251.466 198.015 252.461 200.818 252.735 200.895C253.008 200.973 253.599 200.69 253.867 200.122C254.069 199.691 254.018 199.375 253.867 198.924C253.701 198.429 253.242 198.089 252.969 197.938C252.696 197.787 251.661 197.667 251.564 197.841Z" fill="#5B67EC"/>
</g>
<defs>
<clipPath id="clip0_4295_13959">
<rect width="415" height="500" fill="white"/>
</clipPath>
</defs>
</svg>
