<svg width="402" height="500" viewBox="0 0 402 500" fill="none" xmlns="http://www.w3.org/2000/svg">
<path d="M310.02 90.9443C304.395 77.9441 299.615 71.5808 288.264 61.8403C252.573 50.1948 228.959 46.2051 185.326 47.1278C178.331 47.2757 171.425 48.8467 165.03 51.6832C142.924 61.4882 128.733 68.7021 106.579 81.1469C76.299 81.2796 58.0421 84.3435 39.9017 95.1526C32.8176 99.3736 26.9119 105.927 25.4825 114.049C24.4349 120.001 25.1947 125.531 27.3354 133.016C30.7167 137.173 33.0377 138.835 38.1414 140.22H278.679C292.375 140.22 304.332 130.944 307.737 117.678L308.867 113.277L310.02 90.9443Z" fill="white" stroke="black" stroke-width="1.5"/>
<path d="M113.38 132.739C112.122 113.045 112.868 100.78 117.414 81.0146L84.8521 81.735C58.7673 84.0893 39.7472 93.4867 32.3773 101.423C24.9227 110.475 23.6236 118.799 26.2332 130.08C26.5384 131.399 27.7282 132.312 29.0825 132.318L113.38 132.739Z" fill="#AFC7FC" stroke="black" stroke-width="1.5"/>
<path d="M57.3203 95.9589C54.2024 93.4075 51.9584 92.9203 46.9466 94.0858C41.1385 95.1139 38.3194 96.4223 34.0769 100.289C31.7674 102.064 31.2718 103.238 30.9538 105.612C41.3275 106.188 48.0357 103.294 57.3203 95.9589Z" fill="#C6ECFB" stroke="black" stroke-width="1.5"/>
<path d="M308.578 113.133L309.73 90.8007L301.662 75.8164L107.443 81.1474C78.3463 81.3985 62.3305 82.8251 42.4198 93.3462C34.5208 97.5202 27.8433 104.321 25.9368 113.049C24.6484 118.948 24.7138 125.068 26.707 132.037C30.0883 136.194 32.7486 138.692 37.8523 140.076H278.39C292.086 140.076 304.043 130.8 307.448 117.535L308.578 113.133Z" stroke="black" stroke-width="1.5"/>
<path d="M248.817 73.615L242.989 59.6033C242.689 58.8808 243.297 58.1086 244.07 58.2318L268.204 62.0773C268.412 62.1104 268.605 62.2086 268.754 62.3577L278.92 72.5239C279.55 73.1539 279.104 74.231 278.213 74.231H249.741C249.337 74.231 248.972 73.988 248.817 73.615Z" fill="#4F67FF"/>
<path d="M245.373 72.8681L239.793 58.5367C239.653 58.1781 239.32 57.9315 238.937 57.9024L187.475 53.9974C186.894 53.9534 186.399 54.4124 186.399 54.9945V73.231C186.399 73.7833 186.847 74.231 187.399 74.231H244.441C245.145 74.231 245.628 73.5237 245.373 72.8681Z" fill="#4F67FF"/>
<path d="M183.95 73.2606V54.9738C183.95 54.3994 183.467 53.943 182.893 53.9754L166.28 54.9133C166.15 54.9206 166.023 54.953 165.906 55.0087L125.863 74.0586C124.885 74.5236 125.24 75.9936 126.322 75.9611L182.98 74.2601C183.52 74.2439 183.95 73.8012 183.95 73.2606Z" fill="#4F67FF"/>
<path d="M248.817 73.615L242.989 59.6033C242.689 58.8808 243.297 58.1086 244.07 58.2318L268.204 62.0773C268.412 62.1104 268.605 62.2086 268.754 62.3577L278.92 72.5239C279.55 73.1539 279.104 74.231 278.213 74.231H249.741C249.337 74.231 248.972 73.988 248.817 73.615Z" stroke="black" stroke-width="1.5"/>
<path d="M245.373 72.8681L239.793 58.5367C239.653 58.1781 239.32 57.9315 238.937 57.9024L187.475 53.9974C186.894 53.9534 186.399 54.4124 186.399 54.9945V73.231C186.399 73.7833 186.847 74.231 187.399 74.231H244.441C245.145 74.231 245.628 73.5237 245.373 72.8681Z" stroke="black" stroke-width="1.5"/>
<path d="M183.95 73.2606V54.9738C183.95 54.3994 183.467 53.943 182.893 53.9754L166.28 54.9133C166.15 54.9206 166.023 54.953 165.906 55.0087L125.863 74.0586C124.885 74.5236 125.24 75.9936 126.322 75.9611L182.98 74.2601C183.52 74.2439 183.95 73.8012 183.95 73.2606Z" stroke="black" stroke-width="1.5"/>
<path d="M130.758 69.1885H130.34C129.875 69.1885 129.416 69.2969 128.999 69.5052L125.504 71.2526C125.001 71.5043 124.575 71.8911 124.293 72.3782C123.483 73.7781 123.067 74.7701 122.573 76.3925L123.293 77.2569H130.764C132.133 77.2569 133.37 76.3357 133.567 74.9809C133.743 73.7741 133.744 72.703 133.565 71.4711C133.367 70.1137 132.13 69.1885 130.758 69.1885Z" fill="white" stroke="black" stroke-width="1.5"/>
<path d="M255.99 90.8007L249.795 77.4013L300.799 75.8164C304.931 80.0675 306.934 83.5059 310.164 90.8007L308.723 112.989C307.224 121.389 305.581 125.658 300.799 132.205L255.99 134.313V90.8007Z" fill="#AFC7FC" stroke="black" stroke-width="1.5"/>
<path d="M183.374 79.4175L249.651 77.4004L255.99 90.6557V134.168L181.645 133.591C179.196 115.87 179.685 100.538 183.374 79.4175Z" fill="#AFC7FC" stroke="black" stroke-width="1.5"/>
<path d="M117.675 81.1463L183.375 79.1292C180.064 100.611 179.737 113.384 181.502 133.591L113.929 133.015C112.2 114.717 112.957 100.68 117.675 81.1463Z" fill="#AFC7FC" stroke="black" stroke-width="1.5"/>
<circle cx="29.1041" cy="29.1041" r="28.3541" transform="matrix(-1 0 0 1 287.256 109.386)" fill="#303030" stroke="black" stroke-width="1.5"/>
<circle cx="17.2895" cy="17.2895" r="17.2895" transform="matrix(-1 0 0 1 275.729 121.488)" fill="#565357"/>
<mask id="path-12-inside-1_4295_13899" fill="white">
<path fill-rule="evenodd" clip-rule="evenodd" d="M256.424 120.914H260.746V133.416L269.502 124.66L272.559 127.716L263.801 136.474H276.594V140.796H263.226L272.56 150.13L269.503 153.186L260.746 144.429V156.933H256.424V143.851L247.089 153.186L244.032 150.13L253.366 140.796H240.574V136.474H252.791L244.033 127.716L247.09 124.66L256.424 133.994V120.914Z"/>
</mask>
<path fill-rule="evenodd" clip-rule="evenodd" d="M256.424 120.914H260.746V133.416L269.502 124.66L272.559 127.716L263.801 136.474H276.594V140.796H263.226L272.56 150.13L269.503 153.186L260.746 144.429V156.933H256.424V143.851L247.089 153.186L244.032 150.13L253.366 140.796H240.574V136.474H252.791L244.033 127.716L247.09 124.66L256.424 133.994V120.914Z" fill="#D9D9D9"/>
<path d="M260.746 120.914V119.414H262.246V120.914H260.746ZM256.424 120.914H254.924V119.414H256.424V120.914ZM260.746 133.416L261.807 134.476L259.246 137.037V133.416H260.746ZM269.502 124.66L268.442 123.599L269.502 122.538L270.563 123.599L269.502 124.66ZM272.559 127.716L273.619 126.655L274.68 127.716L273.619 128.777L272.559 127.716ZM263.801 136.474V137.974H260.18L262.74 135.413L263.801 136.474ZM276.594 136.474V134.974H278.094V136.474H276.594ZM276.594 140.796H278.094V142.296H276.594V140.796ZM263.226 140.796L262.165 141.857L259.605 139.296H263.226V140.796ZM272.56 150.13L273.62 149.069L274.681 150.13L273.62 151.19L272.56 150.13ZM269.503 153.186L270.564 154.247L269.503 155.307L268.442 154.247L269.503 153.186ZM260.746 144.429H259.246V140.808L261.807 143.368L260.746 144.429ZM260.746 156.933H262.246V158.433H260.746V156.933ZM256.424 156.933V158.433H254.924V156.933H256.424ZM256.424 143.851L255.363 142.79L257.924 140.23V143.851H256.424ZM247.089 153.186L248.149 154.247L247.089 155.307L246.028 154.247L247.089 153.186ZM244.032 150.13L242.972 151.19L241.911 150.13L242.972 149.069L244.032 150.13ZM253.366 140.796V139.296H256.987L254.426 141.857L253.366 140.796ZM240.574 140.796V142.296H239.074V140.796H240.574ZM240.574 136.474H239.074V134.974H240.574V136.474ZM252.791 136.474L253.852 135.413L256.412 137.974H252.791V136.474ZM244.033 127.716L242.973 128.777L241.912 127.716L242.973 126.655L244.033 127.716ZM247.09 124.66L246.029 123.599L247.09 122.538L248.15 123.599L247.09 124.66ZM256.424 133.994H257.924V137.615L255.363 135.054L256.424 133.994ZM260.746 122.414H256.424V119.414H260.746V122.414ZM259.246 133.416V120.914H262.246V133.416H259.246ZM270.563 125.72L261.807 134.476L259.685 132.355L268.442 123.599L270.563 125.72ZM271.498 128.777L268.442 125.72L270.563 123.599L273.619 126.655L271.498 128.777ZM262.74 135.413L271.498 126.655L273.619 128.777L264.862 137.534L262.74 135.413ZM276.594 137.974H263.801V134.974H276.594V137.974ZM275.094 140.796V136.474H278.094V140.796H275.094ZM263.226 139.296H276.594V142.296H263.226V139.296ZM264.287 139.735L273.62 149.069L271.499 151.19L262.165 141.857L264.287 139.735ZM273.62 151.19L270.564 154.247L268.442 152.125L271.499 149.069L273.62 151.19ZM268.442 154.247L259.685 145.49L261.807 143.368L270.564 152.125L268.442 154.247ZM259.246 156.933V144.429H262.246V156.933H259.246ZM256.424 155.433H260.746V158.433H256.424V155.433ZM257.924 143.851V156.933H254.924V143.851H257.924ZM246.028 152.125L255.363 142.79L257.484 144.912L248.149 154.247L246.028 152.125ZM245.093 149.069L248.149 152.125L246.028 154.247L242.972 151.19L245.093 149.069ZM254.426 141.857L245.093 151.19L242.972 149.069L252.305 139.735L254.426 141.857ZM240.574 139.296H253.366V142.296H240.574V139.296ZM242.074 136.474V140.796H239.074V136.474H242.074ZM252.791 137.974H240.574V134.974H252.791V137.974ZM251.73 137.534L242.973 128.777L245.094 126.655L253.852 135.413L251.73 137.534ZM242.973 126.655L246.029 123.599L248.15 125.72L245.094 128.777L242.973 126.655ZM248.15 123.599L257.484 132.933L255.363 135.054L246.029 125.72L248.15 123.599ZM257.924 120.914V133.994H254.924V120.914H257.924Z" fill="black" mask="url(#path-12-inside-1_4295_13899)"/>
<path fill-rule="evenodd" clip-rule="evenodd" d="M258.439 164.713C244.116 164.713 232.504 153.102 232.504 138.779C232.504 124.456 244.116 112.845 258.439 112.845C272.762 112.845 284.373 124.456 284.373 138.779C284.373 153.102 272.762 164.713 258.439 164.713ZM258.439 156.069C248.89 156.069 241.15 148.328 241.15 138.78C241.15 129.231 248.89 121.49 258.439 121.49C267.988 121.49 275.729 129.231 275.729 138.78C275.729 148.328 267.988 156.069 258.439 156.069Z" fill="black"/>
<circle cx="2.16119" cy="2.16119" r="2.16119" transform="matrix(-1 0 0 1 260.744 136.473)" fill="black"/>
<circle cx="29.1041" cy="29.1041" r="28.3541" transform="matrix(-1 0 0 1 99.9512 109.675)" fill="#303030" stroke="black" stroke-width="1.5"/>
<circle cx="17.2895" cy="17.2895" r="17.2895" transform="matrix(-1 0 0 1 88.1367 121.488)" fill="#565357"/>
<mask id="path-18-inside-2_4295_13899" fill="white">
<path fill-rule="evenodd" clip-rule="evenodd" d="M68.8319 120.914H73.1543V133.418L81.9124 124.66L84.9688 127.716L76.2111 136.474H89.002V140.796H75.9214L84.9677 149.842L81.9113 152.899L73.1543 144.142V156.933H68.8319V143.853L59.4988 153.186L56.4425 150.13L65.7759 140.796H52.9821V136.474H65.4862L56.4414 127.429L59.4978 124.373L68.8319 133.707V120.914Z"/>
</mask>
<path fill-rule="evenodd" clip-rule="evenodd" d="M68.8319 120.914H73.1543V133.418L81.9124 124.66L84.9688 127.716L76.2111 136.474H89.002V140.796H75.9214L84.9677 149.842L81.9113 152.899L73.1543 144.142V156.933H68.8319V143.853L59.4988 153.186L56.4425 150.13L65.7759 140.796H52.9821V136.474H65.4862L56.4414 127.429L59.4978 124.373L68.8319 133.707V120.914Z" fill="#D9D9D9"/>
<path d="M73.1543 120.914V119.414H74.6543V120.914H73.1543ZM68.8319 120.914H67.3319V119.414H68.8319V120.914ZM73.1543 133.418L74.215 134.478L71.6543 137.039V133.418H73.1543ZM81.9124 124.66L80.8517 123.599L81.9124 122.538L82.973 123.599L81.9124 124.66ZM84.9688 127.716L86.0294 126.655L87.0901 127.716L86.0294 128.777L84.9688 127.716ZM76.2111 136.474V137.974H72.5897L75.1504 135.413L76.2111 136.474ZM89.002 136.474V134.974H90.502V136.474H89.002ZM89.002 140.796H90.502V142.296H89.002V140.796ZM75.9214 140.796L74.8607 141.857L72.3001 139.296H75.9214V140.796ZM84.9677 149.842L86.0284 148.782L87.089 149.842L86.0284 150.903L84.9677 149.842ZM81.9113 152.899L82.972 153.96L81.9113 155.02L80.8507 153.96L81.9113 152.899ZM73.1543 144.142H71.6543V140.521L74.215 143.081L73.1543 144.142ZM73.1543 156.933H74.6543V158.433H73.1543V156.933ZM68.8319 156.933V158.433H67.3319V156.933H68.8319ZM68.8319 143.853L67.7712 142.792L70.3319 140.232V143.853H68.8319ZM59.4988 153.186L60.5595 154.247L59.4988 155.307L58.4382 154.247L59.4988 153.186ZM56.4425 150.13L55.3818 151.19L54.3211 150.13L55.3818 149.069L56.4425 150.13ZM65.7759 140.796V139.296H69.3972L66.8366 141.857L65.7759 140.796ZM52.9821 140.796V142.296H51.4821V140.796H52.9821ZM52.9821 136.474H51.4821V134.974H52.9821V136.474ZM65.4862 136.474L66.5469 135.413L69.1075 137.974H65.4862V136.474ZM56.4414 127.429L55.3807 128.49L54.3201 127.429L55.3807 126.368L56.4414 127.429ZM59.4978 124.373L58.4371 123.312L59.4978 122.251L60.5585 123.312L59.4978 124.373ZM68.8319 133.707H70.3319V137.328L67.7712 134.767L68.8319 133.707ZM73.1543 122.414H68.8319V119.414H73.1543V122.414ZM71.6543 133.418V120.914H74.6543V133.418H71.6543ZM82.973 125.72L74.215 134.478L72.0936 132.357L80.8517 123.599L82.973 125.72ZM83.9081 128.777L80.8517 125.72L82.973 123.599L86.0294 126.655L83.9081 128.777ZM75.1504 135.413L83.9081 126.655L86.0294 128.777L77.2717 137.534L75.1504 135.413ZM89.002 137.974H76.2111V134.974H89.002V137.974ZM87.502 140.796V136.474H90.502V140.796H87.502ZM75.9214 139.296H89.002V142.296H75.9214V139.296ZM76.982 139.735L86.0284 148.782L83.907 150.903L74.8607 141.857L76.982 139.735ZM86.0284 150.903L82.972 153.96L80.8507 151.838L83.907 148.782L86.0284 150.903ZM80.8507 153.96L72.0936 145.203L74.215 143.081L82.972 151.838L80.8507 153.96ZM71.6543 156.933V144.142H74.6543V156.933H71.6543ZM68.8319 155.433H73.1543V158.433H68.8319V155.433ZM70.3319 143.853V156.933H67.3319V143.853H70.3319ZM58.4382 152.125L67.7712 142.792L69.8926 144.914L60.5595 154.247L58.4382 152.125ZM57.5031 149.069L60.5595 152.125L58.4382 154.247L55.3818 151.19L57.5031 149.069ZM66.8366 141.857L57.5031 151.19L55.3818 149.069L64.7152 139.735L66.8366 141.857ZM52.9821 139.296H65.7759V142.296H52.9821V139.296ZM54.4821 136.474V140.796H51.4821V136.474H54.4821ZM65.4862 137.974H52.9821V134.974H65.4862V137.974ZM64.4255 137.534L55.3807 128.49L57.5021 126.368L66.5469 135.413L64.4255 137.534ZM55.3807 126.368L58.4371 123.312L60.5585 125.433L57.5021 128.49L55.3807 126.368ZM60.5585 123.312L69.8926 132.646L67.7712 134.767L58.4371 125.433L60.5585 123.312ZM70.3319 120.914V133.707H67.3319V120.914H70.3319Z" fill="black" mask="url(#path-18-inside-2_4295_13899)"/>
<path fill-rule="evenodd" clip-rule="evenodd" d="M70.8469 164.713C56.5238 164.713 44.9126 153.102 44.9126 138.779C44.9126 124.456 56.5238 112.845 70.8469 112.845C85.1701 112.845 96.7812 124.456 96.7812 138.779C96.7812 153.102 85.1701 164.713 70.8469 164.713ZM70.8474 156.069C61.2986 156.069 53.5578 148.328 53.5578 138.78C53.5578 129.231 61.2986 121.49 70.8474 121.49C80.3961 121.49 88.1369 129.231 88.1369 138.78C88.1369 148.328 80.3961 156.069 70.8474 156.069Z" fill="black"/>
<circle cx="2.16119" cy="2.16119" r="2.16119" transform="matrix(-1 0 0 1 73.1543 136.473)" fill="black"/>
<path d="M288.371 103.082L295.471 95.9811C295.653 95.7993 295.898 95.6945 296.155 95.6885L301.95 95.5537H307.125C307.598 95.5537 308.056 95.7214 308.417 96.0269L309.73 97.1386L309.442 104.343C305.614 107.487 299.377 107.183 288.849 104.753C288.088 104.578 287.819 103.634 288.371 103.082Z" fill="#C6ECFB" stroke="black" stroke-width="1.5"/>
<path d="M308.206 160.572C311.685 154.064 318.465 150 325.845 150H362.143V166.571H310.005C307.739 166.571 306.291 164.156 307.359 162.157L308.206 160.572Z" fill="#333333"/>
<path d="M334 150V92C334 90.3431 335.343 89 337 89H345C346.657 89 348 90.3431 348 92V150H334Z" fill="#5B67EC"/>
<path d="M281.113 394H188.113L204.675 429C233.466 414.811 250.538 408.167 281.113 394Z" fill="#FBA5A4"/>
<rect x="158.613" y="123.5" width="139" height="269" rx="17.5" fill="white" stroke="black" stroke-width="3"/>
<rect x="206" y="134" width="46" height="13" rx="6.5" fill="black"/>
<rect x="168.113" y="341" width="121.36" height="28.4893" rx="5" fill="#5B67EC"/>
<mask id="path-29-inside-3_4295_13899" fill="white">
<path fill-rule="evenodd" clip-rule="evenodd" d="M209.237 301.412C205.816 297.076 199.528 296.334 195.192 299.755L177.253 313.908L129.394 346.32C124.821 349.417 123.624 355.635 126.721 360.208L129.243 363.931L141.614 453H151.114H206.114H251.114L304.614 389C269.354 391.966 237.982 405.027 204.815 422.679C201.676 401.804 193.458 385.338 179.119 366.617L195.015 355.852C205.605 366.624 222.833 367.916 234.965 358.344L238.941 355.208C243.277 351.787 244.019 345.499 240.598 341.163L209.237 301.412Z"/>
</mask>
<path fill-rule="evenodd" clip-rule="evenodd" d="M209.237 301.412C205.816 297.076 199.528 296.334 195.192 299.755L177.253 313.908L129.394 346.32C124.821 349.417 123.624 355.635 126.721 360.208L129.243 363.931L141.614 453H151.114H206.114H251.114L304.614 389C269.354 391.966 237.982 405.027 204.815 422.679C201.676 401.804 193.458 385.338 179.119 366.617L195.015 355.852C205.605 366.624 222.833 367.916 234.965 358.344L238.941 355.208C243.277 351.787 244.019 345.499 240.598 341.163L209.237 301.412Z" fill="#FCCACB"/>
<path d="M195.192 299.755L195.812 300.54V300.54L195.192 299.755ZM209.237 301.412L210.022 300.792V300.792L209.237 301.412ZM177.253 313.908L177.814 314.736L177.844 314.715L177.872 314.693L177.253 313.908ZM129.394 346.32L129.954 347.148H129.954L129.394 346.32ZM126.721 360.208L127.549 359.647L127.549 359.647L126.721 360.208ZM129.243 363.931L130.233 363.794L130.201 363.563L130.071 363.371L129.243 363.931ZM141.614 453L140.623 453.138L140.743 454H141.614V453ZM251.114 453V454H251.581L251.881 453.641L251.114 453ZM304.614 389L305.381 389.641L306.918 387.803L304.53 388.004L304.614 389ZM204.815 422.679L203.827 422.828L204.037 424.226L205.285 423.562L204.815 422.679ZM179.119 366.617L178.558 365.789L177.681 366.384L178.325 367.225L179.119 366.617ZM195.015 355.852L195.728 355.151L195.144 354.557L194.454 355.024L195.015 355.852ZM234.965 358.344L234.346 357.559L234.965 358.344ZM238.941 355.208L238.322 354.423L238.941 355.208ZM240.598 341.163L239.813 341.782L240.598 341.163ZM195.812 300.54C199.714 297.461 205.373 298.129 208.452 302.031L210.022 300.792C206.259 296.023 199.343 295.207 194.573 298.97L195.812 300.54ZM177.872 314.693L195.812 300.54L194.573 298.97L176.634 313.123L177.872 314.693ZM129.954 347.148L177.814 314.736L176.692 313.08L128.833 345.492L129.954 347.148ZM127.549 359.647C124.762 355.531 125.839 349.936 129.954 347.148L128.833 345.492C123.803 348.899 122.487 355.738 125.893 360.768L127.549 359.647ZM130.071 363.371L127.549 359.647L125.893 360.768L128.415 364.492L130.071 363.371ZM142.604 452.863L130.233 363.794L128.253 364.069L140.623 453.138L142.604 452.863ZM151.114 452H141.614V454H151.114V452ZM151.114 454H206.114V452H151.114V454ZM206.114 454H251.114V452H206.114V454ZM251.881 453.641L305.381 389.641L303.846 388.359L250.346 452.359L251.881 453.641ZM304.53 388.004C269.07 390.986 237.556 404.121 204.346 421.796L205.285 423.562C238.408 405.932 269.639 392.945 304.697 389.997L304.53 388.004ZM178.325 367.225C192.593 385.854 200.719 402.165 203.827 422.828L205.804 422.53C202.633 401.443 194.322 384.822 179.913 366.009L178.325 367.225ZM194.454 355.024L178.558 365.789L179.68 367.445L195.576 356.68L194.454 355.024ZM234.346 357.559C222.618 366.812 205.965 365.563 195.728 355.151L194.302 356.553C205.246 367.685 223.047 369.021 235.585 359.13L234.346 357.559ZM238.322 354.423L234.346 357.559L235.585 359.13L239.561 355.993L238.322 354.423ZM239.813 341.782C242.892 345.685 242.224 351.344 238.322 354.423L239.561 355.993C244.33 352.23 245.146 345.313 241.383 340.544L239.813 341.782ZM208.452 302.031L239.813 341.782L241.383 340.544L210.022 300.792L208.452 302.031Z" fill="#FF9BA7" mask="url(#path-29-inside-3_4295_13899)"/>
<path d="M279.613 291C279.613 281.335 287.448 273.5 297.113 273.5H309.113C314.36 273.5 318.613 277.753 318.613 283V299C318.613 304.247 314.36 308.5 309.113 308.5H297.113C287.448 308.5 279.613 300.665 279.613 291Z" fill="#FCCACB" stroke="#FF9BA7"/>
<path d="M279.613 327C279.613 317.335 287.448 309.5 297.113 309.5H309.113C314.36 309.5 318.613 313.753 318.613 319V335C318.613 340.247 314.36 344.5 309.113 344.5H297.113C287.448 344.5 279.613 336.665 279.613 327Z" fill="#FCCACB" stroke="#FF9BA7"/>
<path d="M279.613 363C279.613 353.335 287.448 345.5 297.113 345.5H309.113C314.36 345.5 318.613 349.753 318.613 355V371C318.613 376.247 314.36 380.5 309.113 380.5H297.113C287.448 380.5 279.613 372.665 279.613 363Z" fill="#FCCACB" stroke="#FF9BA7"/>
<path d="M279.613 399C279.613 389.335 287.448 381.5 297.113 381.5H309.113C314.36 381.5 318.613 385.753 318.613 391V407C318.613 412.247 314.36 416.5 309.113 416.5H297.113C287.448 416.5 279.613 408.665 279.613 399Z" fill="#FCCACB" stroke="#FF9BA7"/>
<path d="M180.358 225.539H181.204V230.966H180.358V225.539ZM180.97 227.735H182.383V228.428H180.97V227.735ZM178.279 230.579H179.008V230.813C179.008 232.334 177.649 233.378 175.921 233.693L175.597 233.027C177.118 232.784 178.279 231.911 178.279 230.813V230.579ZM178.405 230.579H179.125V230.813C179.125 231.911 180.295 232.784 181.807 233.027L181.483 233.693C179.755 233.378 178.405 232.334 178.405 230.813V230.579ZM177.118 226.097C178.36 226.097 179.269 226.898 179.269 228.059C179.269 229.211 178.36 230.012 177.118 230.012C175.876 230.012 174.967 229.211 174.967 228.059C174.967 226.898 175.876 226.097 177.118 226.097ZM177.118 226.817C176.353 226.817 175.786 227.312 175.786 228.059C175.786 228.797 176.353 229.301 177.118 229.301C177.892 229.301 178.45 228.797 178.45 228.059C178.45 227.312 177.892 226.817 177.118 226.817ZM183.985 231.146H183.391L183.166 226.574H184.21L183.985 231.146ZM183.094 232.496C183.094 232.262 183.151 232.1 183.265 232.01C183.379 231.914 183.517 231.866 183.679 231.866C183.841 231.866 183.979 231.914 184.093 232.01C184.213 232.1 184.273 232.262 184.273 232.496C184.273 232.718 184.213 232.88 184.093 232.982C183.979 233.078 183.841 233.126 183.679 233.126C183.517 233.126 183.379 233.078 183.265 232.982C183.151 232.88 183.094 232.718 183.094 232.496ZM189.18 227.528H189.846V228.167C189.846 229.895 188.946 231.515 187.605 232.163L187.137 231.515C188.37 230.93 189.18 229.535 189.18 228.167V227.528ZM189.351 227.528H190.008V228.167C190.008 229.445 190.773 230.777 191.97 231.362L191.502 232.01C190.197 231.371 189.351 229.796 189.351 228.167V227.528ZM187.371 226.943H191.781V227.618H187.371V226.943ZM189.171 225.701H190.008V227.312H189.171V225.701ZM192.699 225.548H193.545V233.729H192.699V225.548ZM193.356 228.86H194.85V229.562H193.356V228.86ZM195.281 229.31H202.697V229.949H195.281V229.31ZM196.154 230.552H201.779V232.343H197.009V233.243H196.172V231.776H200.951V231.146H196.154V230.552ZM196.172 233.027H202.031V233.63H196.172V233.027ZM196.217 225.755H201.752V227.51H197.063V228.347H196.235V226.952H200.924V226.349H196.217V225.755ZM196.235 228.158H201.905V228.752H196.235V228.158ZM207.509 228.923H208.355V230.165H207.509V228.923ZM207.914 225.908C209.102 225.908 209.939 226.565 209.939 227.537C209.939 228.509 209.102 229.157 207.914 229.157C206.735 229.157 205.889 228.509 205.889 227.537C205.889 226.565 206.735 225.908 207.914 225.908ZM207.914 226.556C207.194 226.556 206.69 226.943 206.69 227.537C206.69 228.131 207.194 228.518 207.914 228.518C208.643 228.518 209.147 228.131 209.147 227.537C209.147 226.943 208.643 226.556 207.914 226.556ZM210.983 225.548H211.82V231.803H210.983V225.548ZM211.487 228.266H212.981V228.968H211.487V228.266ZM206.591 232.856H212.108V233.549H206.591V232.856ZM206.591 231.272H207.437V233.162H206.591V231.272ZM205.538 230.624L205.439 229.94C206.861 229.94 208.841 229.922 210.488 229.67L210.542 230.282C208.85 230.597 206.933 230.624 205.538 230.624ZM217.858 227.771H219.883V228.455H217.858V227.771ZM219.415 225.548H220.261V231.533H219.415V225.548ZM214.996 232.865H220.477V233.558H214.996V232.865ZM214.996 231.011H215.842V233.234H214.996V231.011ZM215.545 226.574H216.238V227.204C216.238 228.707 215.356 230.021 213.952 230.534L213.52 229.859C214.762 229.418 215.545 228.338 215.545 227.204V226.574ZM215.716 226.574H216.4V227.204C216.4 228.239 217.138 229.265 218.353 229.679L217.93 230.345C216.553 229.859 215.716 228.599 215.716 227.204V226.574ZM213.772 226.187H218.146V226.871H213.772V226.187ZM227.434 225.539H228.271V233.72H227.434V225.539ZM221.746 226.844H226.633V227.528H221.746V226.844ZM224.203 228.14C225.382 228.14 226.237 228.923 226.237 230.039C226.237 231.155 225.382 231.938 224.203 231.938C223.015 231.938 222.16 231.155 222.16 230.039C222.16 228.923 223.015 228.14 224.203 228.14ZM224.203 228.842C223.492 228.842 222.97 229.328 222.97 230.039C222.97 230.75 223.492 231.236 224.203 231.236C224.914 231.236 225.427 230.75 225.427 230.039C225.427 229.328 224.914 228.842 224.203 228.842ZM223.762 225.629H224.608V227.267H223.762V225.629ZM235 229.634H235.837V230.858H235V229.634ZM231.742 229.139H239.113V229.778H231.742V229.139ZM235 225.503H235.837V226.493H235V225.503ZM234.955 226.556H235.702V226.7C235.702 227.96 234.253 228.662 232.345 228.806L232.102 228.167C233.794 228.077 234.955 227.51 234.955 226.7V226.556ZM235.144 226.556H235.882V226.7C235.882 227.51 237.052 228.077 238.744 228.167L238.501 228.806C236.593 228.662 235.144 227.96 235.144 226.7V226.556ZM232.471 226.241H238.375V226.871H232.471V226.241ZM232.606 230.471H238.186V232.316H233.461V233.252H232.624V231.722H237.349V231.092H232.606V230.471ZM232.624 233.009H238.42V233.648H232.624V233.009ZM241.731 227.528H242.397V228.167C242.397 229.895 241.497 231.515 240.156 232.163L239.688 231.515C240.921 230.93 241.731 229.535 241.731 228.167V227.528ZM241.902 227.528H242.559V228.167C242.559 229.445 243.324 230.777 244.521 231.362L244.053 232.01C242.748 231.371 241.902 229.796 241.902 228.167V227.528ZM239.922 226.943H244.332V227.618H239.922V226.943ZM241.722 225.701H242.559V227.312H241.722V225.701ZM245.25 225.548H246.096V233.729H245.25V225.548ZM245.907 228.86H247.401V229.562H245.907V228.86ZM253.314 225.548H254.16V233.729H253.314V225.548ZM253.962 228.869H255.456V229.571H253.962V228.869ZM247.797 226.826H252.603V227.51H247.797V226.826ZM250.236 228.14C251.397 228.14 252.243 228.923 252.243 230.039C252.243 231.155 251.397 231.938 250.236 231.938C249.075 231.938 248.22 231.155 248.22 230.039C248.22 228.923 249.075 228.14 250.236 228.14ZM250.236 228.842C249.534 228.842 249.021 229.328 249.021 230.039C249.021 230.75 249.534 231.236 250.236 231.236C250.929 231.236 251.433 230.75 251.433 230.039C251.433 229.328 250.929 228.842 250.236 228.842ZM249.795 225.647H250.641V227.123H249.795V225.647ZM260.252 226.484H262.052V227.168H260.252V226.484ZM260.252 228.077H262.052V228.761H260.252V228.077ZM261.8 225.548H262.646V230.318H261.8V225.548ZM257.894 225.836H258.587V226.664C258.587 228.284 257.759 229.652 256.346 230.201L255.887 229.535C257.156 229.058 257.894 227.924 257.894 226.664V225.836ZM258.038 225.836H258.731V226.664C258.731 227.834 259.469 228.941 260.675 229.409L260.207 230.075C258.866 229.526 258.038 228.194 258.038 226.664V225.836ZM257.948 230.615H258.596V230.948C258.596 232.064 257.957 233.162 256.751 233.621L256.337 233C257.372 232.622 257.948 231.74 257.948 230.948V230.615ZM258.137 230.615H258.767V230.948C258.767 231.776 259.226 232.658 260.216 233.063L259.865 233.693C258.659 233.225 258.137 232.073 258.137 230.948V230.615ZM260.963 230.615H261.584V230.948C261.584 231.956 261.062 233.189 259.865 233.693L259.505 233.063C260.495 232.613 260.963 231.668 260.963 230.948V230.615ZM261.143 230.615H261.791V230.948C261.791 231.803 262.349 232.649 263.411 233L262.979 233.621C261.773 233.189 261.143 232.127 261.143 230.948V230.615ZM270.034 228.761H271.528V229.472H270.034V228.761ZM269.413 225.539H270.259V233.72H269.413V225.539ZM264.256 226.34H265.093V231.407H264.256V226.34ZM264.256 230.957H264.913C266.11 230.957 267.361 230.876 268.702 230.597L268.801 231.299C267.415 231.587 266.146 231.668 264.913 231.668H264.256V230.957ZM273.777 229.742H274.614V232.154H273.777V229.742ZM276.783 229.742H277.629V232.154H276.783V229.742ZM272.004 232.001H279.411V232.703H272.004V232.001ZM275.694 226.034C277.431 226.034 278.682 226.871 278.682 228.158C278.682 229.445 277.431 230.282 275.694 230.282C273.957 230.282 272.706 229.445 272.706 228.158C272.706 226.871 273.957 226.034 275.694 226.034ZM275.694 226.7C274.416 226.7 273.525 227.267 273.525 228.158C273.525 229.04 274.416 229.616 275.694 229.616C276.963 229.616 277.863 229.04 277.863 228.158C277.863 227.267 276.963 226.7 275.694 226.7ZM280.878 230.885C280.878 230.663 280.902 230.471 280.95 230.309C280.998 230.147 281.076 229.991 281.184 229.841C281.298 229.691 281.454 229.538 281.652 229.382C281.874 229.19 282.048 229.031 282.174 228.905C282.3 228.779 282.39 228.656 282.444 228.536C282.498 228.41 282.525 228.26 282.525 228.086C282.525 227.816 282.435 227.606 282.255 227.456C282.075 227.306 281.817 227.231 281.481 227.231C281.193 227.231 280.932 227.27 280.698 227.348C280.47 227.42 280.248 227.51 280.032 227.618L279.726 226.943C279.972 226.811 280.245 226.703 280.545 226.619C280.845 226.529 281.178 226.484 281.544 226.484C282.12 226.484 282.567 226.628 282.885 226.916C283.203 227.198 283.362 227.579 283.362 228.059C283.362 228.329 283.317 228.557 283.227 228.743C283.143 228.929 283.02 229.103 282.858 229.265C282.702 229.421 282.516 229.589 282.3 229.769C282.102 229.931 281.952 230.072 281.85 230.192C281.748 230.312 281.679 230.432 281.643 230.552C281.607 230.666 281.589 230.807 281.589 230.975V231.146H280.878V230.885ZM280.68 232.496C280.68 232.262 280.737 232.1 280.851 232.01C280.965 231.914 281.106 231.866 281.274 231.866C281.43 231.866 281.565 231.914 281.679 232.01C281.793 232.1 281.85 232.262 281.85 232.496C281.85 232.718 281.793 232.88 281.679 232.982C281.565 233.078 281.43 233.126 281.274 233.126C281.106 233.126 280.965 233.078 280.851 232.982C280.737 232.88 280.68 232.718 280.68 232.496Z" fill="black"/>
<path d="M228.134 191.5C228.519 190.833 229.481 190.833 229.866 191.5L238.526 206.5C238.911 207.167 238.43 208 237.66 208H220.34C219.57 208 219.089 207.167 219.474 206.5L228.134 191.5Z" stroke="#FF0000" stroke-linejoin="round"/>
<path d="M228 205V203.151H230V205H228ZM228.467 201.696L228.12 196H229.88L229.533 201.696H228.467Z" fill="#FF0000"/>
<path d="M249.5 92.2676V91.2676C249.5 90.7153 249.948 90.2676 250.5 90.2676H259C259.552 90.2676 260 90.7153 260 91.2676V92.2676C260 92.8199 259.552 93.2676 259 93.2676H250.5C249.948 93.2676 249.5 92.8199 249.5 92.2676Z" stroke="black"/>
<path d="M180 92.2676V91.2676C180 90.7153 180.448 90.2676 181 90.2676H189.5C190.052 90.2676 190.5 90.7153 190.5 91.2676V92.2676C190.5 92.8199 190.052 93.2676 189.5 93.2676H181C180.448 93.2676 180 92.8199 180 92.2676Z" stroke="black"/>
</svg>
