<svg width="360" height="500" viewBox="0 0 360 500" fill="none" xmlns="http://www.w3.org/2000/svg">
<g clip-path="url(#clip0_4026_1141)">
<path d="M-13.8555 90.9443C-8.2305 77.9441 -3.45108 71.5808 7.90055 61.8403C43.5906 50.1948 67.2052 46.2051 110.838 47.1278C117.833 47.2757 124.739 48.8467 131.134 51.6832C153.24 61.4882 167.431 68.7021 189.585 81.1469C219.865 81.2796 238.122 84.3435 256.262 95.1526C263.346 99.3736 269.252 105.927 270.682 114.049C271.729 120.001 270.969 125.531 268.829 133.016C265.447 137.173 263.126 138.835 258.023 140.22H17.485C3.78918 140.22 -8.16789 130.944 -11.573 117.678L-12.7028 113.277L-13.8555 90.9443Z" fill="white" stroke="black" stroke-width="1.5"/>
<path d="M182.784 132.739C184.042 113.045 183.296 100.78 178.75 81.0146L211.312 81.735C237.397 84.0893 256.417 93.4867 263.787 101.423C271.241 110.475 272.54 118.799 269.931 130.08C269.626 131.399 268.436 132.312 267.082 132.318L182.784 132.739Z" fill="#AFC7FC" stroke="black" stroke-width="1.5"/>
<path d="M238.844 95.9589C241.962 93.4075 244.206 92.9203 249.217 94.0858C255.026 95.1139 257.845 96.4223 262.087 100.289C264.397 102.064 264.892 103.238 265.21 105.612C254.837 106.188 248.128 103.294 238.844 95.9589Z" fill="#C6ECFB" stroke="black" stroke-width="1.5"/>
<path d="M-12.4138 113.133L-13.5664 90.8007L-5.49795 75.8164L188.721 81.1474C217.818 81.3985 233.834 82.8251 253.744 93.3462C261.643 97.5202 268.321 104.321 270.227 113.049C271.516 118.948 271.45 125.068 269.457 132.037C266.076 136.194 263.415 138.692 258.312 140.076H17.7741C4.07824 140.076 -7.87882 130.8 -11.2839 117.535L-12.4138 113.133Z" stroke="black" stroke-width="1.5"/>
<path d="M47.3448 73.6153L53.1727 59.6036C53.4732 58.881 52.8648 58.1089 52.092 58.232L27.9582 62.0775C27.75 62.1107 27.5576 62.2088 27.4085 62.3579L17.2423 72.5241C16.6123 73.1541 17.0585 74.2312 17.9494 74.2312H46.4215C46.8254 74.2312 47.1897 73.9882 47.3448 73.6153Z" fill="#4F67FF"/>
<path d="M50.789 72.8684L56.3694 58.5369C56.509 58.1784 56.8419 57.9317 57.2256 57.9026L108.688 53.9976C109.268 53.9536 109.763 54.4127 109.763 54.9948V73.2312C109.763 73.7835 109.315 74.2312 108.763 74.2312H51.7209C51.0173 74.2312 50.5337 73.524 50.789 72.8684Z" fill="#4F67FF"/>
<path d="M112.213 73.2608V54.9741C112.213 54.3996 112.695 53.9433 113.269 53.9756L129.882 54.9135C130.012 54.9208 130.139 54.9532 130.256 55.0089L170.299 74.0588C171.277 74.5238 170.922 75.9939 169.84 75.9614L113.183 74.2604C112.642 74.2441 112.213 73.8014 112.213 73.2608Z" fill="#4F67FF"/>
<path d="M47.3448 73.6153L53.1727 59.6036C53.4732 58.881 52.8648 58.1089 52.092 58.232L27.9582 62.0775C27.75 62.1107 27.5576 62.2088 27.4085 62.3579L17.2423 72.5241C16.6123 73.1541 17.0585 74.2312 17.9494 74.2312H46.4215C46.8254 74.2312 47.1897 73.9882 47.3448 73.6153Z" stroke="black" stroke-width="1.5"/>
<path d="M50.789 72.8684L56.3694 58.5369C56.509 58.1784 56.8419 57.9317 57.2256 57.9026L108.688 53.9976C109.268 53.9536 109.763 54.4127 109.763 54.9948V73.2312C109.763 73.7835 109.315 74.2312 108.763 74.2312H51.7209C51.0173 74.2312 50.5337 73.524 50.789 72.8684Z" stroke="black" stroke-width="1.5"/>
<path d="M112.213 73.2608V54.9741C112.213 54.3996 112.695 53.9433 113.269 53.9756L129.882 54.9135C130.012 54.9208 130.139 54.9532 130.256 55.0089L170.299 74.0588C171.277 74.5238 170.922 75.9939 169.84 75.9614L113.183 74.2604C112.642 74.2441 112.213 73.8014 112.213 73.2608Z" stroke="black" stroke-width="1.5"/>
<path d="M165.406 69.1885H165.824C166.289 69.1885 166.748 69.2969 167.165 69.5052L170.66 71.2526C171.163 71.5043 171.59 71.8911 171.871 72.3782C172.681 73.7781 173.097 74.7701 173.591 76.3925L172.871 77.2569H165.4C164.031 77.2569 162.794 76.3357 162.597 74.9809C162.421 73.7741 162.42 72.703 162.599 71.4711C162.797 70.1137 164.034 69.1885 165.406 69.1885Z" fill="white" stroke="black" stroke-width="1.5"/>
<path d="M40.1739 90.8007L46.3693 77.4013L-4.63483 75.8164C-8.76697 80.0675 -10.7701 83.5059 -14 90.8007L-12.5592 112.989C-11.0598 121.389 -9.41691 125.658 -4.63483 132.205L40.1739 134.313V90.8007Z" fill="#AFC7FC" stroke="black" stroke-width="1.5"/>
<path d="M112.788 79.4175L46.5114 77.4004L40.1719 90.6557V134.168L114.517 133.591C116.966 115.87 116.477 100.538 112.788 79.4175Z" fill="#AFC7FC" stroke="black" stroke-width="1.5"/>
<path d="M178.489 81.146L112.789 79.1289C116.1 100.611 116.427 113.383 114.662 133.591L182.235 133.015C183.964 114.717 183.207 100.68 178.489 81.146Z" fill="#AFC7FC" stroke="black" stroke-width="1.5"/>
<circle cx="38.0142" cy="138.49" r="28.3541" fill="#303030" stroke="black" stroke-width="1.5"/>
<circle cx="37.7231" cy="138.778" r="17.2895" fill="#565357"/>
<mask id="path-12-inside-1_4026_1141" fill="white">
<path fill-rule="evenodd" clip-rule="evenodd" d="M39.7412 120.913H35.4188V133.417L26.6609 124.659L23.6045 127.716L32.3622 136.473H19.5703V140.796H32.9375L23.6041 150.129L26.6605 153.185L35.4188 144.427V156.933H39.7412V143.852L49.0744 153.185L52.1308 150.129L42.7973 140.796H55.5902V136.473H43.3727L52.1304 127.716L49.074 124.659L39.7412 133.992V120.913Z"/>
</mask>
<path fill-rule="evenodd" clip-rule="evenodd" d="M39.7412 120.913H35.4188V133.417L26.6609 124.659L23.6045 127.716L32.3622 136.473H19.5703V140.796H32.9375L23.6041 150.129L26.6605 153.185L35.4188 144.427V156.933H39.7412V143.852L49.0744 153.185L52.1308 150.129L42.7973 140.796H55.5902V136.473H43.3727L52.1304 127.716L49.074 124.659L39.7412 133.992V120.913Z" fill="#D9D9D9"/>
<path d="M35.4188 120.913V119.413H33.9188V120.913H35.4188ZM39.7412 120.913H41.2412V119.413H39.7412V120.913ZM35.4188 133.417L34.3582 134.478L36.9188 137.038V133.417H35.4188ZM26.6609 124.659L27.7215 123.599L26.6609 122.538L25.6002 123.599L26.6609 124.659ZM23.6045 127.716L22.5438 126.655L21.4832 127.716L22.5438 128.776L23.6045 127.716ZM32.3622 136.473V137.973H35.9835L33.4228 135.413L32.3622 136.473ZM19.5703 136.473V134.973H18.0703V136.473H19.5703ZM19.5703 140.796H18.0703V142.296H19.5703V140.796ZM32.9375 140.796L33.9982 141.856L36.5588 139.296H32.9375V140.796ZM23.6041 150.129L22.5434 149.068L21.4828 150.129L22.5434 151.19L23.6041 150.129ZM26.6605 153.185L25.5998 154.246L26.6605 155.307L27.7211 154.246L26.6605 153.185ZM35.4188 144.427H36.9188V140.806L34.3582 143.366L35.4188 144.427ZM35.4188 156.933H33.9188V158.433H35.4188V156.933ZM39.7412 156.933V158.433H41.2412V156.933H39.7412ZM39.7412 143.852L40.8019 142.792L38.2412 140.231V143.852H39.7412ZM49.0744 153.185L48.0137 154.246L49.0744 155.307L50.1351 154.246L49.0744 153.185ZM52.1308 150.129L53.1915 151.19L54.2521 150.129L53.1915 149.068L52.1308 150.129ZM42.7973 140.796V139.296H39.176L41.7367 141.856L42.7973 140.796ZM55.5902 140.796V142.296H57.0902V140.796H55.5902ZM55.5902 136.473H57.0902V134.973H55.5902V136.473ZM43.3727 136.473L42.312 135.413L39.7514 137.973H43.3727V136.473ZM52.1304 127.716L53.191 128.776L54.2517 127.716L53.191 126.655L52.1304 127.716ZM49.074 124.659L50.1346 123.599L49.074 122.538L48.0133 123.599L49.074 124.659ZM39.7412 133.992H38.2412V137.613L40.8019 135.053L39.7412 133.992ZM35.4188 122.413H39.7412V119.413H35.4188V122.413ZM36.9188 133.417V120.913H33.9188V133.417H36.9188ZM25.6002 125.72L34.3582 134.478L36.4795 132.356L27.7215 123.599L25.6002 125.72ZM24.6652 128.776L27.7215 125.72L25.6002 123.599L22.5438 126.655L24.6652 128.776ZM33.4228 135.413L24.6652 126.655L22.5438 128.776L31.3015 137.534L33.4228 135.413ZM19.5703 137.973H32.3622V134.973H19.5703V137.973ZM21.0703 140.796V136.473H18.0703V140.796H21.0703ZM32.9375 139.296H19.5703V142.296H32.9375V139.296ZM31.8769 139.735L22.5434 149.068L24.6647 151.19L33.9982 141.856L31.8769 139.735ZM22.5434 151.19L25.5998 154.246L27.7211 152.125L24.6647 149.068L22.5434 151.19ZM27.7211 154.246L36.4795 145.488L34.3582 143.366L25.5998 152.125L27.7211 154.246ZM36.9188 156.933V144.427H33.9188V156.933H36.9188ZM39.7412 155.433H35.4188V158.433H39.7412V155.433ZM38.2412 143.852V156.933H41.2412V143.852H38.2412ZM50.1351 152.125L40.8019 142.792L38.6805 144.913L48.0137 154.246L50.1351 152.125ZM51.0701 149.068L48.0137 152.125L50.1351 154.246L53.1915 151.19L51.0701 149.068ZM41.7367 141.856L51.0701 151.19L53.1915 149.068L43.858 139.735L41.7367 141.856ZM55.5902 139.296H42.7973V142.296H55.5902V139.296ZM54.0902 136.473V140.796H57.0902V136.473H54.0902ZM43.3727 137.973H55.5902V134.973H43.3727V137.973ZM44.4333 137.534L53.191 128.776L51.0697 126.655L42.312 135.413L44.4333 137.534ZM53.191 126.655L50.1346 123.599L48.0133 125.72L51.0697 128.776L53.191 126.655ZM48.0133 123.599L38.6805 132.931L40.8019 135.053L50.1346 125.72L48.0133 123.599ZM38.2412 120.913V133.992H41.2412V120.913H38.2412Z" fill="black" mask="url(#path-12-inside-1_4026_1141)"/>
<path fill-rule="evenodd" clip-rule="evenodd" d="M37.7234 164.713C52.0465 164.713 63.6577 153.102 63.6577 138.779C63.6577 124.456 52.0465 112.845 37.7234 112.845C23.4003 112.845 11.7891 124.456 11.7891 138.779C11.7891 153.102 23.4003 164.713 37.7234 164.713ZM37.723 156.069C47.2717 156.069 55.0125 148.328 55.0125 138.78C55.0125 129.231 47.2717 121.49 37.723 121.49C28.1742 121.49 20.4334 129.231 20.4334 138.78C20.4334 148.328 28.1742 156.069 37.723 156.069Z" fill="black"/>
<circle cx="37.5792" cy="138.635" r="2.16119" fill="black"/>
<circle cx="225.315" cy="138.779" r="28.3541" fill="#303030" stroke="black" stroke-width="1.5"/>
<circle cx="225.317" cy="138.778" r="17.2895" fill="#565357"/>
<mask id="path-18-inside-2_4026_1141" fill="white">
<path fill-rule="evenodd" clip-rule="evenodd" d="M227.331 120.913H223.009V133.418L214.25 124.659L211.194 127.716L219.952 136.473H207.16V140.796H220.24L211.194 149.842L214.25 152.898L223.009 144.14V156.933H227.331V143.853L236.664 153.185L239.72 150.129L230.387 140.796H243.18V136.473H230.675L239.72 127.428L236.664 124.372L227.331 133.705V120.913Z"/>
</mask>
<path fill-rule="evenodd" clip-rule="evenodd" d="M227.331 120.913H223.009V133.418L214.25 124.659L211.194 127.716L219.952 136.473H207.16V140.796H220.24L211.194 149.842L214.25 152.898L223.009 144.14V156.933H227.331V143.853L236.664 153.185L239.72 150.129L230.387 140.796H243.18V136.473H230.675L239.72 127.428L236.664 124.372L227.331 133.705V120.913Z" fill="#D9D9D9"/>
<path d="M223.009 120.913V119.413H221.509V120.913H223.009ZM227.331 120.913H228.831V119.413H227.331V120.913ZM223.009 133.418L221.948 134.478L224.509 137.039V133.418H223.009ZM214.25 124.659L215.311 123.599L214.25 122.538L213.19 123.599L214.25 124.659ZM211.194 127.716L210.133 126.655L209.073 127.716L210.133 128.776L211.194 127.716ZM219.952 136.473V137.973H223.573L221.012 135.413L219.952 136.473ZM207.16 136.473V134.973H205.66V136.473H207.16ZM207.16 140.796H205.66V142.296H207.16V140.796ZM220.24 140.796L221.301 141.856L223.862 139.296H220.24V140.796ZM211.194 149.842L210.133 148.781L209.073 149.842L210.133 150.903L211.194 149.842ZM214.25 152.898L213.19 153.959L214.25 155.02L215.311 153.959L214.25 152.898ZM223.009 144.14H224.509V140.519L221.948 143.079L223.009 144.14ZM223.009 156.933H221.509V158.433H223.009V156.933ZM227.331 156.933V158.433H228.831V156.933H227.331ZM227.331 143.853L228.392 142.792L225.831 140.231V143.853H227.331ZM236.664 153.185L235.603 154.246L236.664 155.307L237.724 154.246L236.664 153.185ZM239.72 150.129L240.781 151.19L241.841 150.129L240.781 149.068L239.72 150.129ZM230.387 140.796V139.296H226.765L229.326 141.856L230.387 140.796ZM243.18 140.796V142.296H244.68V140.796H243.18ZM243.18 136.473H244.68V134.973H243.18V136.473ZM230.675 136.473L229.615 135.413L227.054 137.973H230.675V136.473ZM239.72 127.428L240.781 128.489L241.842 127.428L240.781 126.368L239.72 127.428ZM236.664 124.372L237.724 123.311L236.664 122.251L235.603 123.311L236.664 124.372ZM227.331 133.705H225.831V137.326L228.392 134.766L227.331 133.705ZM223.009 122.413H227.331V119.413H223.009V122.413ZM224.509 133.418V120.913H221.509V133.418H224.509ZM213.19 125.72L221.948 134.478L224.069 132.357L215.311 123.599L213.19 125.72ZM212.255 128.776L215.311 125.72L213.19 123.599L210.133 126.655L212.255 128.776ZM221.012 135.413L212.255 126.655L210.133 128.776L218.891 137.534L221.012 135.413ZM207.16 137.973H219.952V134.973H207.16V137.973ZM208.66 140.796V136.473H205.66V140.796H208.66ZM220.24 139.296H207.16V142.296H220.24V139.296ZM219.18 139.735L210.133 148.781L212.255 150.903L221.301 141.856L219.18 139.735ZM210.133 150.903L213.19 153.959L215.311 151.838L212.255 148.781L210.133 150.903ZM215.311 153.959L224.069 145.201L221.948 143.079L213.19 151.838L215.311 153.959ZM224.509 156.933V144.14H221.509V156.933H224.509ZM227.331 155.433H223.009V158.433H227.331V155.433ZM225.831 143.853V156.933H228.831V143.853H225.831ZM237.724 152.125L228.392 142.792L226.27 144.913L235.603 154.246L237.724 152.125ZM238.659 149.068L235.603 152.125L237.724 154.246L240.781 151.19L238.659 149.068ZM229.326 141.856L238.659 151.19L240.781 149.068L231.447 139.735L229.326 141.856ZM243.18 139.296H230.387V142.296H243.18V139.296ZM241.68 136.473V140.796H244.68V136.473H241.68ZM230.675 137.973H243.18V134.973H230.675V137.973ZM231.736 137.534L240.781 128.489L238.66 126.368L229.615 135.413L231.736 137.534ZM240.781 126.368L237.724 123.311L235.603 125.433L238.66 128.489L240.781 126.368ZM235.603 123.311L226.27 132.644L228.392 134.766L237.724 125.433L235.603 123.311ZM225.831 120.913V133.705H228.831V120.913H225.831Z" fill="black" mask="url(#path-18-inside-2_4026_1141)"/>
<path fill-rule="evenodd" clip-rule="evenodd" d="M225.317 164.713C239.64 164.713 251.251 153.102 251.251 138.779C251.251 124.456 239.64 112.845 225.317 112.845C210.994 112.845 199.383 124.456 199.383 138.779C199.383 153.102 210.994 164.713 225.317 164.713ZM225.317 156.069C234.865 156.069 242.606 148.328 242.606 138.78C242.606 129.231 234.865 121.49 225.317 121.49C215.768 121.49 208.027 129.231 208.027 138.78C208.027 148.328 215.768 156.069 225.317 156.069Z" fill="black"/>
<circle cx="225.173" cy="138.635" r="2.16119" fill="black"/>
<path d="M7.79328 103.082L0.692621 95.9811C0.510776 95.7993 0.265862 95.6945 0.00876331 95.6885L-5.78611 95.5537H-10.9608C-11.4338 95.5537 -11.8915 95.7214 -12.2526 96.0269L-13.5664 97.1386L-13.2782 104.343C-9.45018 107.487 -3.21322 107.183 7.31539 104.753C8.07633 104.578 8.34548 103.634 7.79328 103.082Z" fill="#C6ECFB" stroke="black" stroke-width="1.5"/>
<path d="M239.113 394H146.113L162.675 429C191.466 414.811 208.538 408.167 239.113 394Z" fill="#FBA5A4"/>
<rect x="116.613" y="123.5" width="139" height="269" rx="17.5" fill="white" stroke="black" stroke-width="3"/>
<rect x="164.113" y="134" width="46" height="13" rx="6.5" fill="black"/>
<rect x="126.113" y="341" width="121.36" height="28.4893" rx="5" fill="#5B67EC"/>
<mask id="path-27-inside-3_4026_1141" fill="white">
<path fill-rule="evenodd" clip-rule="evenodd" d="M167.237 301.411C163.816 297.075 157.528 296.333 153.192 299.754L135.251 313.909L87.3935 346.32C82.8207 349.417 81.6242 355.634 84.7211 360.207L87.243 363.931L99.6137 453H109.114H164.114H209.114L262.614 389C227.354 391.965 195.982 405.026 162.815 422.678C159.676 401.804 151.458 385.338 137.119 366.617L153.015 355.851C163.605 366.623 180.833 367.916 192.965 358.344L196.941 355.207C201.277 351.786 202.019 345.498 198.598 341.162L167.237 301.411Z"/>
</mask>
<path fill-rule="evenodd" clip-rule="evenodd" d="M167.237 301.411C163.816 297.075 157.528 296.333 153.192 299.754L135.251 313.909L87.3935 346.32C82.8207 349.417 81.6242 355.634 84.7211 360.207L87.243 363.931L99.6137 453H109.114H164.114H209.114L262.614 389C227.354 391.965 195.982 405.026 162.815 422.678C159.676 401.804 151.458 385.338 137.119 366.617L153.015 355.851C163.605 366.623 180.833 367.916 192.965 358.344L196.941 355.207C201.277 351.786 202.019 345.498 198.598 341.162L167.237 301.411Z" fill="#FCCACB"/>
<path d="M153.192 299.754L153.812 300.539L153.192 299.754ZM167.237 301.411L168.022 300.792V300.792L167.237 301.411ZM135.251 313.909L135.812 314.737L135.842 314.716L135.87 314.694L135.251 313.909ZM87.3935 346.32L87.9543 347.148L87.3935 346.32ZM84.7211 360.207L85.5491 359.646L85.5491 359.646L84.7211 360.207ZM87.243 363.931L88.2335 363.793L88.2015 363.563L88.071 363.37L87.243 363.931ZM99.6137 453L98.6232 453.137L98.7429 454H99.6137V453ZM209.114 453V454H209.581L209.881 453.641L209.114 453ZM262.614 389L263.381 389.641L264.918 387.802L262.53 388.003L262.614 389ZM162.815 422.678L161.827 422.827L162.037 424.226L163.285 423.561L162.815 422.678ZM137.119 366.617L136.558 365.789L135.681 366.383L136.325 367.225L137.119 366.617ZM153.015 355.851L153.728 355.15L153.144 354.556L152.454 355.023L153.015 355.851ZM192.965 358.344L192.346 357.559L192.965 358.344ZM196.941 355.207L196.322 354.422L196.941 355.207ZM198.598 341.162L199.383 340.543L198.598 341.162ZM153.812 300.539C157.714 297.46 163.373 298.128 166.452 302.03L168.022 300.792C164.259 296.022 157.343 295.206 152.573 298.969L153.812 300.539ZM135.87 314.694L153.812 300.539L152.573 298.969L134.632 313.124L135.87 314.694ZM87.9543 347.148L135.812 314.737L134.69 313.081L86.8328 345.492L87.9543 347.148ZM85.5491 359.646C82.7619 355.531 83.8387 349.935 87.9543 347.148L86.8328 345.492C81.8026 348.899 80.4865 355.738 83.8931 360.768L85.5491 359.646ZM88.071 363.37L85.5491 359.646L83.8931 360.768L86.415 364.492L88.071 363.37ZM100.604 452.862L88.2335 363.793L86.2525 364.069L98.6232 453.137L100.604 452.862ZM109.114 452H99.6137V454H109.114V452ZM109.114 454H164.114V452H109.114V454ZM164.114 454H209.114V452H164.114V454ZM209.881 453.641L263.381 389.641L261.846 388.358L208.346 452.358L209.881 453.641ZM262.53 388.003C227.07 390.986 195.556 404.12 162.346 421.796L163.285 423.561C196.408 405.932 227.639 392.945 262.697 389.996L262.53 388.003ZM136.325 367.225C150.593 385.854 158.719 402.165 161.827 422.827L163.804 422.53C160.633 401.442 152.322 384.822 137.913 366.009L136.325 367.225ZM152.454 355.023L136.558 365.789L137.68 367.445L153.576 356.679L152.454 355.023ZM192.346 357.559C180.618 366.811 163.965 365.562 153.728 355.15L152.302 356.552C163.246 367.684 181.047 369.02 193.585 359.129L192.346 357.559ZM196.322 354.422L192.346 357.559L193.585 359.129L197.561 355.992L196.322 354.422ZM197.813 341.782C200.892 345.684 200.224 351.343 196.322 354.422L197.561 355.992C202.33 352.229 203.146 345.312 199.383 340.543L197.813 341.782ZM166.452 302.03L197.813 341.782L199.383 340.543L168.022 300.792L166.452 302.03Z" fill="#FF9BA7" mask="url(#path-27-inside-3_4026_1141)"/>
<path d="M237.613 291C237.613 281.335 245.448 273.5 255.113 273.5H267.113C272.36 273.5 276.613 277.753 276.613 283V299C276.613 304.247 272.36 308.5 267.113 308.5H255.113C245.448 308.5 237.613 300.665 237.613 291Z" fill="#FCCACB" stroke="#FF9BA7"/>
<path d="M237.613 327C237.613 317.335 245.448 309.5 255.113 309.5H267.113C272.36 309.5 276.613 313.753 276.613 319V335C276.613 340.247 272.36 344.5 267.113 344.5H255.113C245.448 344.5 237.613 336.665 237.613 327Z" fill="#FCCACB" stroke="#FF9BA7"/>
<path d="M237.613 363C237.613 353.335 245.448 345.5 255.113 345.5H267.113C272.36 345.5 276.613 349.753 276.613 355V371C276.613 376.247 272.36 380.5 267.113 380.5H255.113C245.448 380.5 237.613 372.665 237.613 363Z" fill="#FCCACB" stroke="#FF9BA7"/>
<path d="M237.613 399C237.613 389.335 245.448 381.5 255.113 381.5H267.113C272.36 381.5 276.613 385.753 276.613 391V407C276.613 412.247 272.36 416.5 267.113 416.5H255.113C245.448 416.5 237.613 408.665 237.613 399Z" fill="#FCCACB" stroke="#FF9BA7"/>
<path d="M148.648 226.376H149.386V226.7C149.386 228.149 147.919 229.256 146.173 229.526L145.849 228.86C147.37 228.653 148.648 227.717 148.648 226.7V226.376ZM148.873 226.376H149.602V226.7C149.602 227.717 150.889 228.653 152.41 228.86L152.095 229.526C150.34 229.256 148.873 228.149 148.873 226.7V226.376ZM148.693 230.633H149.53V233.72H148.693V230.633ZM145.435 230.165H152.824V230.858H145.435V230.165ZM146.119 226.034H152.122V226.709H146.119V226.034ZM155.433 227.528H156.099V228.167C156.099 229.895 155.199 231.515 153.858 232.163L153.39 231.515C154.623 230.93 155.433 229.535 155.433 228.167V227.528ZM155.604 227.528H156.261V228.167C156.261 229.445 157.026 230.777 158.223 231.362L157.755 232.01C156.45 231.371 155.604 229.796 155.604 228.167V227.528ZM153.624 226.943H158.034V227.618H153.624V226.943ZM155.424 225.701H156.261V227.312H155.424V225.701ZM158.952 225.548H159.798V233.729H158.952V225.548ZM159.609 228.86H161.103V229.562H159.609V228.86ZM167.016 225.548H167.862V233.729H167.016V225.548ZM167.664 228.869H169.158V229.571H167.664V228.869ZM161.499 226.826H166.305V227.51H161.499V226.826ZM163.938 228.14C165.099 228.14 165.945 228.923 165.945 230.039C165.945 231.155 165.099 231.938 163.938 231.938C162.777 231.938 161.922 231.155 161.922 230.039C161.922 228.923 162.777 228.14 163.938 228.14ZM163.938 228.842C163.236 228.842 162.723 229.328 162.723 230.039C162.723 230.75 163.236 231.236 163.938 231.236C164.631 231.236 165.135 230.75 165.135 230.039C165.135 229.328 164.631 228.842 163.938 228.842ZM163.497 225.647H164.343V227.123H163.497V225.647ZM175.484 225.539H176.33V233.72H175.484V225.539ZM173.081 226.412H173.918C173.918 228.815 172.901 230.885 170.129 232.235L169.679 231.551C172.037 230.417 173.081 228.743 173.081 226.556V226.412ZM170.066 226.412H173.45V227.096H170.066V226.412ZM185.687 225.539H186.524V233.738H185.687V225.539ZM183.59 228.536H185.93V229.229H183.59V228.536ZM180.08 226.187H180.926V228.275H183.05V226.187H183.878V231.704H180.08V226.187ZM180.926 228.941V231.02H183.05V228.941H180.926ZM187.811 230.048H195.2V230.723H187.811V230.048ZM188.747 232.865H194.435V233.558H188.747V232.865ZM188.747 231.281H189.593V233.126H188.747V231.281ZM188.774 228.698H194.354V229.346H188.774V228.698ZM188.774 225.836H194.309V226.493H189.611V228.959H188.774V225.836ZM189.368 227.258H194.102V227.897H189.368V227.258ZM199.564 225.674C201.382 225.674 202.462 226.178 202.462 227.087C202.462 228.005 201.382 228.509 199.564 228.509C197.746 228.509 196.666 228.005 196.666 227.087C196.666 226.178 197.746 225.674 199.564 225.674ZM199.564 226.313C198.268 226.313 197.539 226.592 197.539 227.087C197.539 227.6 198.268 227.87 199.564 227.87C200.86 227.87 201.589 227.6 201.589 227.087C201.589 226.592 200.86 226.313 199.564 226.313ZM195.865 229.013H203.263V229.688H195.865V229.013ZM196.747 230.336H202.327V232.235H197.602V233.171H196.765V231.632H201.49V230.975H196.747V230.336ZM196.765 232.991H202.561V233.648H196.765V232.991ZM206.986 228.248H212.611V228.932H206.986V228.248ZM206.041 230.093H213.448V230.786H206.041V230.093ZM209.29 230.471H210.127V233.729H209.29V230.471ZM206.986 225.944H207.823V228.581H206.986V225.944ZM214.095 232.019H221.502V232.721H214.095V232.019ZM214.977 226.151H220.602V228.689H215.832V230.264H214.995V228.014H219.774V226.835H214.977V226.151ZM214.995 229.922H220.791V230.606H214.995V229.922ZM226.074 226.952H228.315V227.636H226.074V226.952ZM226.074 228.698H228.333V229.391H226.074V228.698ZM222.51 226.241H226.272V230.111H222.51V226.241ZM225.444 226.916H223.338V229.436H225.444V226.916ZM228.054 225.548H228.9V231.515H228.054V225.548ZM223.608 232.865H229.089V233.558H223.608V232.865ZM223.608 230.975H224.454V233.189H223.608V230.975ZM160.544 241.43H161.237V242.06C161.237 243.572 160.364 244.859 158.942 245.363L158.519 244.697C159.779 244.256 160.544 243.194 160.544 242.06V241.43ZM160.697 241.43H161.39V242.051C161.39 243.095 162.119 244.049 163.343 244.445L162.938 245.102C161.525 244.643 160.697 243.455 160.697 242.051V241.43ZM158.762 241.133H163.145V241.826H158.762V241.133ZM164.09 240.548H164.936V245.453H164.09V240.548ZM164.702 242.573H166.115V243.275H164.702V242.573ZM162.317 245.66C163.991 245.66 165.017 246.227 165.017 247.181C165.017 248.153 163.991 248.711 162.317 248.711C160.643 248.711 159.608 248.153 159.608 247.181C159.608 246.227 160.643 245.66 162.317 245.66ZM162.317 246.335C161.138 246.335 160.445 246.632 160.445 247.181C160.445 247.739 161.138 248.054 162.317 248.054C163.487 248.054 164.189 247.739 164.189 247.181C164.189 246.632 163.487 246.335 162.317 246.335ZM172.495 240.539H173.341V248.72H172.495V240.539ZM168.832 242.528H169.516V243.167C169.516 244.913 168.571 246.524 167.212 247.163L166.744 246.515C167.986 245.939 168.832 244.553 168.832 243.167V242.528ZM169.003 242.528H169.669V243.167C169.669 244.49 170.542 245.822 171.784 246.362L171.325 247.019C169.957 246.416 169.003 244.859 169.003 243.167V242.528ZM166.987 241.943H171.496V242.618H166.987V241.943ZM168.832 240.701H169.678V242.312H168.832V240.701ZM180.145 240.539H180.991V248.72H180.145V240.539ZM180.766 243.815H182.26V244.517H180.766V243.815ZM178.039 241.412H178.867C178.867 243.761 177.832 245.867 175.168 247.208L174.7 246.551C176.932 245.417 178.039 243.725 178.039 241.547V241.412ZM175.087 241.412H178.48V242.105H175.087V241.412ZM190.978 240.539H191.788V248.72H190.978V240.539ZM189.673 243.833H191.203V244.526H189.673V243.833ZM189.133 240.71H189.925V248.315H189.133V240.71ZM185.227 241.511H186.064V246.236H185.227V241.511ZM185.227 245.903H185.758C186.586 245.903 187.513 245.858 188.575 245.651L188.665 246.38C187.558 246.587 186.622 246.632 185.758 246.632H185.227V245.903ZM198.807 240.539H199.653V248.738H198.807V240.539ZM197.259 242.375H199.005V243.068H197.259V242.375ZM193.2 246.146H193.812C195.072 246.146 196.098 246.11 197.331 245.912L197.403 246.614C196.143 246.812 195.09 246.848 193.812 246.848H193.2V246.146ZM193.182 241.268H196.764V244.247H194.037V246.308H193.2V243.572H195.936V241.961H193.182V241.268ZM197.205 244.607H198.96V245.3H197.205V244.607ZM206.42 240.539H207.266V248.72H206.42V240.539ZM207.041 243.815H208.535V244.517H207.041V243.815ZM204.314 241.412H205.142C205.142 243.761 204.107 245.867 201.443 247.208L200.975 246.551C203.207 245.417 204.314 243.725 204.314 241.547V241.412ZM201.362 241.412H204.755V242.105H201.362V241.412ZM210.785 244.742H211.622V247.154H210.785V244.742ZM213.791 244.742H214.637V247.154H213.791V244.742ZM209.012 247.001H216.419V247.703H209.012V247.001ZM212.702 241.034C214.439 241.034 215.69 241.871 215.69 243.158C215.69 244.445 214.439 245.282 212.702 245.282C210.965 245.282 209.714 244.445 209.714 243.158C209.714 241.871 210.965 241.034 212.702 241.034ZM212.702 241.7C211.424 241.7 210.533 242.267 210.533 243.158C210.533 244.04 211.424 244.616 212.702 244.616C213.971 244.616 214.871 244.04 214.871 243.158C214.871 242.267 213.971 241.7 212.702 241.7Z" fill="black"/>
<path d="M266.206 160.572C269.685 154.064 276.465 150 283.845 150H320.143V166.571H268.005C265.739 166.571 264.291 164.156 265.359 162.157L266.206 160.572Z" fill="#333333"/>
<path d="M320 150H370C371.657 150 373 151.343 373 153V161C373 162.657 371.657 164 370 164H320V150Z" fill="#5B67EC"/>
<path d="M120.5 92.2676V91.2676C120.5 90.7153 120.948 90.2676 121.5 90.2676H130C130.552 90.2676 131 90.7153 131 91.2676V92.2676C131 92.8199 130.552 93.2676 130 93.2676H121.5C120.948 93.2676 120.5 92.8199 120.5 92.2676Z" stroke="black"/>
<path d="M51 92.2676V91.2676C51 90.7153 51.4477 90.2676 52 90.2676H60.5C61.0523 90.2676 61.5 90.7153 61.5 91.2676V92.2676C61.5 92.8199 61.0523 93.2676 60.5 93.2676H52C51.4477 93.2676 51 92.8199 51 92.2676Z" stroke="black"/>
<path fill-rule="evenodd" clip-rule="evenodd" d="M176.16 201.292C176.296 200.539 178.586 195.03 178.918 194.586C178.974 194.511 179.031 194.417 179.095 194.309C179.413 193.782 179.924 192.934 181.514 192.421C183.426 191.804 189.593 191.918 191.31 192.421C192.622 192.805 193.314 193.71 193.849 194.41C193.895 194.47 193.94 194.529 193.984 194.586C194.539 195.301 196.651 200.5 196.827 201.292C197.003 202.085 196.827 208.282 196.514 208.695C196.202 209.107 192.455 209.096 192.104 208.695C191.753 208.293 191.792 207.226 191.792 207.226H181.253C181.253 207.226 181.253 208.366 180.922 208.695C180.59 209.023 176.84 209.057 176.511 208.695C176.16 208.308 176.023 202.046 176.16 201.292ZM178.501 199.611C178.033 199.089 179.559 195.22 180 194.797C180 194.797 180.471 193.831 182.115 193.348C183.758 192.866 189.613 192.962 190.751 193.348C191.89 193.735 192.362 194.161 192.891 194.797C193.42 195.432 194.895 199.185 194.641 199.611C194.387 200.036 178.97 200.133 178.501 199.611ZM191.226 204.828C190.796 204.713 190.152 204.249 190.152 203.514C190.152 202.78 190.601 202.161 191.284 201.968C191.585 201.883 193.783 201.829 194.27 202.026C195.324 202.451 194.677 203.759 193.821 204.249C193.274 204.562 191.967 205.099 191.226 204.828ZM182.896 203.554C182.896 204.288 182.252 204.752 181.823 204.868C181.081 205.138 179.775 204.602 179.227 204.288C178.372 203.798 177.724 202.49 178.778 202.065C179.265 201.869 181.463 201.922 181.764 202.007C182.447 202.201 182.896 202.819 182.896 203.554ZM175.265 200.906C175.539 200.828 176.534 198.026 176.436 197.852C176.339 197.678 175.304 197.797 175.031 197.949C174.758 198.1 174.299 198.44 174.133 198.934C173.982 199.386 173.931 199.702 174.133 200.133C174.401 200.7 174.992 200.983 175.265 200.906ZM196.564 197.841C196.466 198.015 197.461 200.818 197.735 200.895C198.008 200.973 198.599 200.69 198.867 200.122C199.069 199.691 199.018 199.375 198.867 198.924C198.701 198.429 198.242 198.089 197.969 197.938C197.696 197.787 196.661 197.667 196.564 197.841Z" fill="#5B67EC"/>
</g>
<defs>
<clipPath id="clip0_4026_1141">
<rect width="360" height="500" fill="white"/>
</clipPath>
</defs>
</svg>
