<svg width="360" height="500" viewBox="0 0 360 500" fill="none" xmlns="http://www.w3.org/2000/svg">
<g clip-path="url(#clip0_4026_1200)">
<path d="M268.02 90.9443C262.395 77.9441 257.615 71.5808 246.264 61.8403C210.573 50.1948 186.959 46.2051 143.326 47.1278C136.331 47.2757 129.425 48.8467 123.03 51.6832C100.924 61.4882 86.733 68.7021 64.5792 81.1469C34.299 81.2796 16.0421 84.3435 -2.09833 95.1526C-9.18237 99.3736 -15.0881 105.927 -16.5175 114.049C-17.5651 120.001 -16.8053 125.531 -14.6646 133.016C-11.2833 137.173 -8.96234 138.835 -3.85861 140.22H236.679C250.375 140.22 262.332 130.944 265.737 117.678L266.867 113.277L268.02 90.9443Z" fill="white" stroke="black" stroke-width="1.5"/>
<path d="M71.3798 132.739C70.1224 113.045 70.8681 100.78 75.4141 81.0146L42.8521 81.735C16.7673 84.0893 -2.25283 93.4867 -9.62268 101.423C-17.0773 110.475 -18.3764 118.799 -15.7668 130.08C-15.4616 131.399 -14.2718 132.312 -12.9175 132.318L71.3798 132.739Z" fill="#AFC7FC" stroke="black" stroke-width="1.5"/>
<path d="M15.3203 95.9589C12.2024 93.4075 9.95845 92.9203 4.94658 94.0858C-0.861526 95.1139 -3.68061 96.4223 -7.92307 100.289C-10.2326 102.064 -10.7282 103.238 -11.0462 105.612C-0.67252 106.188 6.03567 103.294 15.3203 95.9589Z" fill="#C6ECFB" stroke="black" stroke-width="1.5"/>
<path d="M266.578 113.133L267.73 90.8007L259.662 75.8164L65.4427 81.1474C36.3463 81.3985 20.3305 82.8251 0.41983 93.3462C-7.47919 97.5202 -14.1567 104.321 -16.0632 113.049C-17.3516 118.948 -17.2862 125.068 -15.293 132.037C-11.9117 136.194 -9.25143 138.692 -4.14771 140.076H236.39C250.086 140.076 262.043 130.8 265.448 117.535L266.578 113.133Z" stroke="black" stroke-width="1.5"/>
<path d="M206.819 73.6153L200.991 59.6036C200.691 58.881 201.299 58.1089 202.072 58.232L226.206 62.0775C226.414 62.1107 226.607 62.2088 226.756 62.3579L236.922 72.5241C237.552 73.1541 237.106 74.2312 236.215 74.2312H207.743C207.339 74.2312 206.974 73.9882 206.819 73.6153Z" fill="#4F67FF"/>
<path d="M203.375 72.8684L197.795 58.5369C197.655 58.1784 197.322 57.9317 196.938 57.9026L145.477 53.9976C144.896 53.9536 144.401 54.4127 144.401 54.9948V73.2312C144.401 73.7835 144.849 74.2312 145.401 74.2312H202.443C203.147 74.2312 203.63 73.524 203.375 72.8684Z" fill="#4F67FF"/>
<path d="M141.951 73.2608V54.9741C141.951 54.3996 141.469 53.9433 140.895 53.9756L124.282 54.9135C124.152 54.9208 124.025 54.9532 123.908 55.0089L83.8647 74.0588C82.8873 74.5238 83.2424 75.9939 84.3243 75.9614L140.982 74.2604C141.522 74.2441 141.951 73.8014 141.951 73.2608Z" fill="#4F67FF"/>
<path d="M206.819 73.6153L200.991 59.6036C200.691 58.881 201.299 58.1089 202.072 58.232L226.206 62.0775C226.414 62.1107 226.607 62.2088 226.756 62.3579L236.922 72.5241C237.552 73.1541 237.106 74.2312 236.215 74.2312H207.743C207.339 74.2312 206.974 73.9882 206.819 73.6153Z" stroke="black" stroke-width="1.5"/>
<path d="M203.375 72.8684L197.795 58.5369C197.655 58.1784 197.322 57.9317 196.938 57.9026L145.477 53.9976C144.896 53.9536 144.401 54.4127 144.401 54.9948V73.2312C144.401 73.7835 144.849 74.2312 145.401 74.2312H202.443C203.147 74.2312 203.63 73.524 203.375 72.8684Z" stroke="black" stroke-width="1.5"/>
<path d="M141.951 73.2608V54.9741C141.951 54.3996 141.469 53.9433 140.895 53.9756L124.282 54.9135C124.152 54.9208 124.025 54.9532 123.908 55.0089L83.8647 74.0588C82.8873 74.5238 83.2424 75.9939 84.3243 75.9614L140.982 74.2604C141.522 74.2441 141.951 73.8014 141.951 73.2608Z" stroke="black" stroke-width="1.5"/>
<path d="M88.7582 69.1885H88.3403C87.8746 69.1885 87.4156 69.2969 86.999 69.5052L83.5042 71.2526C83.0007 71.5043 82.5745 71.8911 82.2926 72.3782C81.4826 73.7781 81.0673 74.7701 80.5726 76.3925L81.293 77.2569H88.7643C90.1334 77.2569 91.3699 76.3357 91.5674 74.9809C91.7432 73.7741 91.744 72.703 91.5646 71.4711C91.367 70.1137 90.1299 69.1885 88.7582 69.1885Z" fill="white" stroke="black" stroke-width="1.5"/>
<path d="M213.99 90.8007L207.795 77.4013L258.799 75.8164C262.931 80.0675 264.934 83.5059 268.164 90.8007L266.723 112.989C265.224 121.389 263.581 125.658 258.799 132.205L213.99 134.313V90.8007Z" fill="#AFC7FC" stroke="black" stroke-width="1.5"/>
<path d="M141.376 79.4175L207.653 77.4004L213.992 90.6557V134.168L139.647 133.591C137.198 115.87 137.687 100.538 141.376 79.4175Z" fill="#AFC7FC" stroke="black" stroke-width="1.5"/>
<path d="M75.6747 81.146L141.375 79.1289C138.064 100.611 137.737 113.383 139.502 133.591L71.9286 133.015C70.1997 114.717 70.9568 100.68 75.6747 81.146Z" fill="#AFC7FC" stroke="black" stroke-width="1.5"/>
<circle cx="29.1041" cy="29.1041" r="28.3541" transform="matrix(-1 0 0 1 245.254 109.386)" fill="#303030" stroke="black" stroke-width="1.5"/>
<circle cx="17.2895" cy="17.2895" r="17.2895" transform="matrix(-1 0 0 1 233.73 121.488)" fill="#565357"/>
<mask id="path-12-inside-1_4026_1200" fill="white">
<path fill-rule="evenodd" clip-rule="evenodd" d="M214.423 120.913H218.745V133.417L227.503 124.659L230.56 127.716L221.802 136.473H234.594V140.796H221.227L230.56 150.129L227.504 153.185L218.745 144.427V156.933H214.423V143.852L205.09 153.185L202.033 150.129L211.367 140.796H198.574V136.473H210.791L202.034 127.716L205.09 124.659L214.423 133.992V120.913Z"/>
</mask>
<path fill-rule="evenodd" clip-rule="evenodd" d="M214.423 120.913H218.745V133.417L227.503 124.659L230.56 127.716L221.802 136.473H234.594V140.796H221.227L230.56 150.129L227.504 153.185L218.745 144.427V156.933H214.423V143.852L205.09 153.185L202.033 150.129L211.367 140.796H198.574V136.473H210.791L202.034 127.716L205.09 124.659L214.423 133.992V120.913Z" fill="#D9D9D9"/>
<path d="M218.745 120.913V119.413H220.245V120.913H218.745ZM214.423 120.913H212.923V119.413H214.423V120.913ZM218.745 133.417L219.806 134.478L217.245 137.038V133.417H218.745ZM227.503 124.659L226.443 123.599L227.503 122.538L228.564 123.599L227.503 124.659ZM230.56 127.716L231.62 126.655L232.681 127.716L231.62 128.776L230.56 127.716ZM221.802 136.473V137.973H218.181L220.741 135.413L221.802 136.473ZM234.594 136.473V134.973H236.094V136.473H234.594ZM234.594 140.796H236.094V142.296H234.594V140.796ZM221.227 140.796L220.166 141.856L217.605 139.296H221.227V140.796ZM230.56 150.129L231.621 149.068L232.681 150.129L231.621 151.19L230.56 150.129ZM227.504 153.185L228.564 154.246L227.504 155.307L226.443 154.246L227.504 153.185ZM218.745 144.427H217.245V140.806L219.806 143.366L218.745 144.427ZM218.745 156.933H220.245V158.433H218.745V156.933ZM214.423 156.933V158.433H212.923V156.933H214.423ZM214.423 143.852L213.362 142.792L215.923 140.231V143.852H214.423ZM205.09 153.185L206.15 154.246L205.09 155.307L204.029 154.246L205.09 153.185ZM202.033 150.129L200.973 151.19L199.912 150.129L200.973 149.068L202.033 150.129ZM211.367 140.796V139.296H214.988L212.427 141.856L211.367 140.796ZM198.574 140.796V142.296H197.074V140.796H198.574ZM198.574 136.473H197.074V134.973H198.574V136.473ZM210.791 136.473L211.852 135.413L214.413 137.973H210.791V136.473ZM202.034 127.716L200.973 128.776L199.912 127.716L200.973 126.655L202.034 127.716ZM205.09 124.659L204.029 123.599L205.09 122.538L206.151 123.599L205.09 124.659ZM214.423 133.992H215.923V137.613L213.362 135.053L214.423 133.992ZM218.745 122.413H214.423V119.413H218.745V122.413ZM217.245 133.417V120.913H220.245V133.417H217.245ZM228.564 125.72L219.806 134.478L217.685 132.356L226.443 123.599L228.564 125.72ZM229.499 128.776L226.443 125.72L228.564 123.599L231.62 126.655L229.499 128.776ZM220.741 135.413L229.499 126.655L231.62 128.776L222.863 137.534L220.741 135.413ZM234.594 137.973H221.802V134.973H234.594V137.973ZM233.094 140.796V136.473H236.094V140.796H233.094ZM221.227 139.296H234.594V142.296H221.227V139.296ZM222.287 139.735L231.621 149.068L229.499 151.19L220.166 141.856L222.287 139.735ZM231.621 151.19L228.564 154.246L226.443 152.125L229.499 149.068L231.621 151.19ZM226.443 154.246L217.685 145.488L219.806 143.366L228.564 152.125L226.443 154.246ZM217.245 156.933V144.427H220.245V156.933H217.245ZM214.423 155.433H218.745V158.433H214.423V155.433ZM215.923 143.852V156.933H212.923V143.852H215.923ZM204.029 152.125L213.362 142.792L215.484 144.913L206.15 154.246L204.029 152.125ZM203.094 149.068L206.15 152.125L204.029 154.246L200.973 151.19L203.094 149.068ZM212.427 141.856L203.094 151.19L200.973 149.068L210.306 139.735L212.427 141.856ZM198.574 139.296H211.367V142.296H198.574V139.296ZM200.074 136.473V140.796H197.074V136.473H200.074ZM210.791 137.973H198.574V134.973H210.791V137.973ZM209.731 137.534L200.973 128.776L203.094 126.655L211.852 135.413L209.731 137.534ZM200.973 126.655L204.029 123.599L206.151 125.72L203.094 128.776L200.973 126.655ZM206.151 123.599L215.484 132.931L213.362 135.053L204.029 125.72L206.151 123.599ZM215.923 120.913V133.992H212.923V120.913H215.923Z" fill="black" mask="url(#path-12-inside-1_4026_1200)"/>
<path fill-rule="evenodd" clip-rule="evenodd" d="M216.441 164.713C202.118 164.713 190.506 153.102 190.506 138.779C190.506 124.456 202.118 112.845 216.441 112.845C230.764 112.845 242.375 124.456 242.375 138.779C242.375 153.102 230.764 164.713 216.441 164.713ZM216.441 156.069C206.892 156.069 199.152 148.328 199.152 138.78C199.152 129.231 206.892 121.49 216.441 121.49C225.99 121.49 233.731 129.231 233.731 138.78C233.731 148.328 225.99 156.069 216.441 156.069Z" fill="black"/>
<circle cx="2.16119" cy="2.16119" r="2.16119" transform="matrix(-1 0 0 1 218.746 136.474)" fill="black"/>
<circle cx="29.1041" cy="29.1041" r="28.3541" transform="matrix(-1 0 0 1 57.9531 109.675)" fill="#303030" stroke="black" stroke-width="1.5"/>
<circle cx="17.2895" cy="17.2895" r="17.2895" transform="matrix(-1 0 0 1 46.1367 121.488)" fill="#565357"/>
<mask id="path-18-inside-2_4026_1200" fill="white">
<path fill-rule="evenodd" clip-rule="evenodd" d="M26.833 120.913H31.1554V133.418L39.9138 124.659L42.9702 127.716L34.2125 136.473H47.0039V140.796H33.9238L42.9701 149.842L39.9138 152.898L31.1554 144.14V156.933H26.833V143.853L17.5003 153.185L14.4439 150.129L23.7774 140.796H10.984V136.473H23.4886L14.4438 127.428L17.5002 124.372L26.833 133.705V120.913Z"/>
</mask>
<path fill-rule="evenodd" clip-rule="evenodd" d="M26.833 120.913H31.1554V133.418L39.9138 124.659L42.9702 127.716L34.2125 136.473H47.0039V140.796H33.9238L42.9701 149.842L39.9138 152.898L31.1554 144.14V156.933H26.833V143.853L17.5003 153.185L14.4439 150.129L23.7774 140.796H10.984V136.473H23.4886L14.4438 127.428L17.5002 124.372L26.833 133.705V120.913Z" fill="#D9D9D9"/>
<path d="M31.1554 120.913V119.413H32.6554V120.913H31.1554ZM26.833 120.913H25.333V119.413H26.833V120.913ZM31.1554 133.418L32.2161 134.478L29.6554 137.039V133.418H31.1554ZM39.9138 124.659L38.8532 123.599L39.9138 122.538L40.9745 123.599L39.9138 124.659ZM42.9702 127.716L44.0309 126.655L45.0915 127.716L44.0309 128.776L42.9702 127.716ZM34.2125 136.473V137.973H30.5912L33.1519 135.413L34.2125 136.473ZM47.0039 136.473V134.973H48.5039V136.473H47.0039ZM47.0039 140.796H48.5039V142.296H47.0039V140.796ZM33.9238 140.796L32.8632 141.856L30.3025 139.296H33.9238V140.796ZM42.9701 149.842L44.0308 148.781L45.0915 149.842L44.0308 150.903L42.9701 149.842ZM39.9138 152.898L40.9744 153.959L39.9138 155.02L38.8531 153.959L39.9138 152.898ZM31.1554 144.14H29.6554V140.519L32.2161 143.079L31.1554 144.14ZM31.1554 156.933H32.6554V158.433H31.1554V156.933ZM26.833 156.933V158.433H25.333V156.933H26.833ZM26.833 143.853L25.7724 142.792L28.333 140.231V143.853H26.833ZM17.5003 153.185L18.561 154.246L17.5003 155.307L16.4396 154.246L17.5003 153.185ZM14.4439 150.129L13.3833 151.19L12.3226 150.129L13.3833 149.068L14.4439 150.129ZM23.7774 140.796V139.296H27.3987L24.838 141.856L23.7774 140.796ZM10.984 140.796V142.296H9.48401V140.796H10.984ZM10.984 136.473H9.48401V134.973H10.984V136.473ZM23.4886 136.473L24.5493 135.413L27.11 137.973H23.4886V136.473ZM14.4438 127.428L13.3832 128.489L12.3225 127.428L13.3832 126.368L14.4438 127.428ZM17.5002 124.372L16.4396 123.311L17.5002 122.251L18.5609 123.311L17.5002 124.372ZM26.833 133.705H28.333V137.326L25.7724 134.766L26.833 133.705ZM31.1554 122.413H26.833V119.413H31.1554V122.413ZM29.6554 133.418V120.913H32.6554V133.418H29.6554ZM40.9745 125.72L32.2161 134.478L30.0948 132.357L38.8532 123.599L40.9745 125.72ZM41.9096 128.776L38.8532 125.72L40.9745 123.599L44.0309 126.655L41.9096 128.776ZM33.1519 135.413L41.9096 126.655L44.0309 128.776L35.2732 137.534L33.1519 135.413ZM47.0039 137.973H34.2125V134.973H47.0039V137.973ZM45.5039 140.796V136.473H48.5039V140.796H45.5039ZM33.9238 139.296H47.0039V142.296H33.9238V139.296ZM34.9845 139.735L44.0308 148.781L41.9095 150.903L32.8632 141.856L34.9845 139.735ZM44.0308 150.903L40.9744 153.959L38.8531 151.838L41.9095 148.781L44.0308 150.903ZM38.8531 153.959L30.0948 145.201L32.2161 143.079L40.9744 151.838L38.8531 153.959ZM29.6554 156.933V144.14H32.6554V156.933H29.6554ZM26.833 155.433H31.1554V158.433H26.833V155.433ZM28.333 143.853V156.933H25.333V143.853H28.333ZM16.4396 152.125L25.7724 142.792L27.8937 144.913L18.561 154.246L16.4396 152.125ZM15.5046 149.068L18.561 152.125L16.4396 154.246L13.3833 151.19L15.5046 149.068ZM24.838 141.856L15.5046 151.19L13.3833 149.068L22.7167 139.735L24.838 141.856ZM10.984 139.296H23.7774V142.296H10.984V139.296ZM12.484 136.473V140.796H9.48401V136.473H12.484ZM23.4886 137.973H10.984V134.973H23.4886V137.973ZM22.428 137.534L13.3832 128.489L15.5045 126.368L24.5493 135.413L22.428 137.534ZM13.3832 126.368L16.4396 123.311L18.5609 125.433L15.5045 128.489L13.3832 126.368ZM18.5609 123.311L27.8937 132.644L25.7724 134.766L16.4396 125.433L18.5609 123.311ZM28.333 120.913V133.705H25.333V120.913H28.333Z" fill="black" mask="url(#path-18-inside-2_4026_1200)"/>
<path fill-rule="evenodd" clip-rule="evenodd" d="M28.8469 164.713C14.5238 164.713 2.9126 153.102 2.9126 138.779C2.9126 124.456 14.5238 112.845 28.8469 112.845C43.1701 112.845 54.7812 124.456 54.7812 138.779C54.7812 153.102 43.1701 164.713 28.8469 164.713ZM28.8474 156.069C19.2986 156.069 11.5578 148.328 11.5578 138.78C11.5578 129.231 19.2986 121.49 28.8474 121.49C38.3961 121.49 46.1369 129.231 46.1369 138.78C46.1369 148.328 38.3961 156.069 28.8474 156.069Z" fill="black"/>
<circle cx="2.16119" cy="2.16119" r="2.16119" transform="matrix(-1 0 0 1 31.1523 136.474)" fill="black"/>
<path d="M246.371 103.082L253.471 95.9811C253.653 95.7993 253.898 95.6945 254.155 95.6885L259.95 95.5537H265.125C265.598 95.5537 266.056 95.7214 266.417 96.0269L267.73 97.1386L267.442 104.343C263.614 107.487 257.377 107.183 246.849 104.753C246.088 104.578 245.819 103.634 246.371 103.082Z" fill="#C6ECFB" stroke="black" stroke-width="1.5"/>
<path d="M266.206 160.572C269.685 154.064 276.465 150 283.845 150H320.143V166.571H268.005C265.739 166.571 264.291 164.156 265.359 162.157L266.206 160.572Z" fill="#333333"/>
<path d="M292 150V92C292 90.3431 293.343 89 295 89H303C304.657 89 306 90.3431 306 92V150H292Z" fill="#5B67EC"/>
<path d="M239.113 394H146.113L162.675 429C191.466 414.811 208.538 408.167 239.113 394Z" fill="#FBA5A4"/>
<rect x="116.613" y="123.5" width="139" height="269" rx="17.5" fill="white" stroke="black" stroke-width="3"/>
<rect x="164" y="134" width="46" height="13" rx="6.5" fill="black"/>
<rect x="126.113" y="341" width="121.36" height="28.4893" rx="5" fill="#5B67EC"/>
<mask id="path-29-inside-3_4026_1200" fill="white">
<path fill-rule="evenodd" clip-rule="evenodd" d="M167.237 301.411C163.816 297.075 157.528 296.333 153.192 299.754L135.251 313.909L87.3935 346.32C82.8207 349.417 81.6242 355.634 84.7211 360.207L87.243 363.931L99.6137 453H109.114H164.114H209.114L262.614 389C227.354 391.965 195.982 405.026 162.815 422.678C159.676 401.804 151.458 385.338 137.119 366.617L153.015 355.851C163.605 366.623 180.833 367.916 192.965 358.344L196.941 355.207C201.277 351.786 202.019 345.498 198.598 341.162L167.237 301.411Z"/>
</mask>
<path fill-rule="evenodd" clip-rule="evenodd" d="M167.237 301.411C163.816 297.075 157.528 296.333 153.192 299.754L135.251 313.909L87.3935 346.32C82.8207 349.417 81.6242 355.634 84.7211 360.207L87.243 363.931L99.6137 453H109.114H164.114H209.114L262.614 389C227.354 391.965 195.982 405.026 162.815 422.678C159.676 401.804 151.458 385.338 137.119 366.617L153.015 355.851C163.605 366.623 180.833 367.916 192.965 358.344L196.941 355.207C201.277 351.786 202.019 345.498 198.598 341.162L167.237 301.411Z" fill="#FCCACB"/>
<path d="M153.192 299.754L153.812 300.539L153.192 299.754ZM167.237 301.411L168.022 300.792V300.792L167.237 301.411ZM135.251 313.909L135.812 314.737L135.842 314.716L135.87 314.694L135.251 313.909ZM87.3935 346.32L87.9543 347.148L87.3935 346.32ZM84.7211 360.207L85.5491 359.646L85.5491 359.646L84.7211 360.207ZM87.243 363.931L88.2335 363.793L88.2015 363.563L88.071 363.37L87.243 363.931ZM99.6137 453L98.6232 453.137L98.7429 454H99.6137V453ZM209.114 453V454H209.581L209.881 453.641L209.114 453ZM262.614 389L263.381 389.641L264.918 387.802L262.53 388.003L262.614 389ZM162.815 422.678L161.827 422.827L162.037 424.226L163.285 423.561L162.815 422.678ZM137.119 366.617L136.558 365.789L135.681 366.383L136.325 367.225L137.119 366.617ZM153.015 355.851L153.728 355.15L153.144 354.556L152.454 355.023L153.015 355.851ZM192.965 358.344L192.346 357.559L192.965 358.344ZM196.941 355.207L196.322 354.422L196.941 355.207ZM198.598 341.162L199.383 340.543L198.598 341.162ZM153.812 300.539C157.714 297.46 163.373 298.128 166.452 302.03L168.022 300.792C164.259 296.022 157.343 295.206 152.573 298.969L153.812 300.539ZM135.87 314.694L153.812 300.539L152.573 298.969L134.632 313.124L135.87 314.694ZM87.9543 347.148L135.812 314.737L134.69 313.081L86.8328 345.492L87.9543 347.148ZM85.5491 359.646C82.7619 355.531 83.8387 349.935 87.9543 347.148L86.8328 345.492C81.8026 348.899 80.4865 355.738 83.8931 360.768L85.5491 359.646ZM88.071 363.37L85.5491 359.646L83.8931 360.768L86.415 364.492L88.071 363.37ZM100.604 452.862L88.2335 363.793L86.2525 364.069L98.6232 453.137L100.604 452.862ZM109.114 452H99.6137V454H109.114V452ZM109.114 454H164.114V452H109.114V454ZM164.114 454H209.114V452H164.114V454ZM209.881 453.641L263.381 389.641L261.846 388.358L208.346 452.358L209.881 453.641ZM262.53 388.003C227.07 390.986 195.556 404.12 162.346 421.796L163.285 423.561C196.408 405.932 227.639 392.945 262.697 389.996L262.53 388.003ZM136.325 367.225C150.593 385.854 158.719 402.165 161.827 422.827L163.804 422.53C160.633 401.442 152.322 384.822 137.913 366.009L136.325 367.225ZM152.454 355.023L136.558 365.789L137.68 367.445L153.576 356.679L152.454 355.023ZM192.346 357.559C180.618 366.811 163.965 365.562 153.728 355.15L152.302 356.552C163.246 367.684 181.047 369.02 193.585 359.129L192.346 357.559ZM196.322 354.422L192.346 357.559L193.585 359.129L197.561 355.992L196.322 354.422ZM197.813 341.782C200.892 345.684 200.224 351.343 196.322 354.422L197.561 355.992C202.33 352.229 203.146 345.312 199.383 340.543L197.813 341.782ZM166.452 302.03L197.813 341.782L199.383 340.543L168.022 300.792L166.452 302.03Z" fill="#FF9BA7" mask="url(#path-29-inside-3_4026_1200)"/>
<path d="M237.613 291C237.613 281.335 245.448 273.5 255.113 273.5H267.113C272.36 273.5 276.613 277.753 276.613 283V299C276.613 304.247 272.36 308.5 267.113 308.5H255.113C245.448 308.5 237.613 300.665 237.613 291Z" fill="#FCCACB" stroke="#FF9BA7"/>
<path d="M237.613 327C237.613 317.335 245.448 309.5 255.113 309.5H267.113C272.36 309.5 276.613 313.753 276.613 319V335C276.613 340.247 272.36 344.5 267.113 344.5H255.113C245.448 344.5 237.613 336.665 237.613 327Z" fill="#FCCACB" stroke="#FF9BA7"/>
<path d="M237.613 363C237.613 353.335 245.448 345.5 255.113 345.5H267.113C272.36 345.5 276.613 349.753 276.613 355V371C276.613 376.247 272.36 380.5 267.113 380.5H255.113C245.448 380.5 237.613 372.665 237.613 363Z" fill="#FCCACB" stroke="#FF9BA7"/>
<path d="M237.613 399C237.613 389.335 245.448 381.5 255.113 381.5H267.113C272.36 381.5 276.613 385.753 276.613 391V407C276.613 412.247 272.36 416.5 267.113 416.5H255.113C245.448 416.5 237.613 408.665 237.613 399Z" fill="#FCCACB" stroke="#FF9BA7"/>
<path d="M138.358 225.539H139.204V230.966H138.358V225.539ZM138.97 227.735H140.383V228.428H138.97V227.735ZM136.279 230.579H137.008V230.813C137.008 232.334 135.649 233.378 133.921 233.693L133.597 233.027C135.118 232.784 136.279 231.911 136.279 230.813V230.579ZM136.405 230.579H137.125V230.813C137.125 231.911 138.295 232.784 139.807 233.027L139.483 233.693C137.755 233.378 136.405 232.334 136.405 230.813V230.579ZM135.118 226.097C136.36 226.097 137.269 226.898 137.269 228.059C137.269 229.211 136.36 230.012 135.118 230.012C133.876 230.012 132.967 229.211 132.967 228.059C132.967 226.898 133.876 226.097 135.118 226.097ZM135.118 226.817C134.353 226.817 133.786 227.312 133.786 228.059C133.786 228.797 134.353 229.301 135.118 229.301C135.892 229.301 136.45 228.797 136.45 228.059C136.45 227.312 135.892 226.817 135.118 226.817ZM141.985 231.146H141.391L141.166 226.574H142.21L141.985 231.146ZM141.094 232.496C141.094 232.262 141.151 232.1 141.265 232.01C141.379 231.914 141.517 231.866 141.679 231.866C141.841 231.866 141.979 231.914 142.093 232.01C142.213 232.1 142.273 232.262 142.273 232.496C142.273 232.718 142.213 232.88 142.093 232.982C141.979 233.078 141.841 233.126 141.679 233.126C141.517 233.126 141.379 233.078 141.265 232.982C141.151 232.88 141.094 232.718 141.094 232.496ZM147.18 227.528H147.846V228.167C147.846 229.895 146.946 231.515 145.605 232.163L145.137 231.515C146.37 230.93 147.18 229.535 147.18 228.167V227.528ZM147.351 227.528H148.008V228.167C148.008 229.445 148.773 230.777 149.97 231.362L149.502 232.01C148.197 231.371 147.351 229.796 147.351 228.167V227.528ZM145.371 226.943H149.781V227.618H145.371V226.943ZM147.171 225.701H148.008V227.312H147.171V225.701ZM150.699 225.548H151.545V233.729H150.699V225.548ZM151.356 228.86H152.85V229.562H151.356V228.86ZM153.281 229.31H160.697V229.949H153.281V229.31ZM154.154 230.552H159.779V232.343H155.009V233.243H154.172V231.776H158.951V231.146H154.154V230.552ZM154.172 233.027H160.031V233.63H154.172V233.027ZM154.217 225.755H159.752V227.51H155.063V228.347H154.235V226.952H158.924V226.349H154.217V225.755ZM154.235 228.158H159.905V228.752H154.235V228.158ZM165.509 228.923H166.355V230.165H165.509V228.923ZM165.914 225.908C167.102 225.908 167.939 226.565 167.939 227.537C167.939 228.509 167.102 229.157 165.914 229.157C164.735 229.157 163.889 228.509 163.889 227.537C163.889 226.565 164.735 225.908 165.914 225.908ZM165.914 226.556C165.194 226.556 164.69 226.943 164.69 227.537C164.69 228.131 165.194 228.518 165.914 228.518C166.643 228.518 167.147 228.131 167.147 227.537C167.147 226.943 166.643 226.556 165.914 226.556ZM168.983 225.548H169.82V231.803H168.983V225.548ZM169.487 228.266H170.981V228.968H169.487V228.266ZM164.591 232.856H170.108V233.549H164.591V232.856ZM164.591 231.272H165.437V233.162H164.591V231.272ZM163.538 230.624L163.439 229.94C164.861 229.94 166.841 229.922 168.488 229.67L168.542 230.282C166.85 230.597 164.933 230.624 163.538 230.624ZM175.858 227.771H177.883V228.455H175.858V227.771ZM177.415 225.548H178.261V231.533H177.415V225.548ZM172.996 232.865H178.477V233.558H172.996V232.865ZM172.996 231.011H173.842V233.234H172.996V231.011ZM173.545 226.574H174.238V227.204C174.238 228.707 173.356 230.021 171.952 230.534L171.52 229.859C172.762 229.418 173.545 228.338 173.545 227.204V226.574ZM173.716 226.574H174.4V227.204C174.4 228.239 175.138 229.265 176.353 229.679L175.93 230.345C174.553 229.859 173.716 228.599 173.716 227.204V226.574ZM171.772 226.187H176.146V226.871H171.772V226.187ZM185.434 225.539H186.271V233.72H185.434V225.539ZM179.746 226.844H184.633V227.528H179.746V226.844ZM182.203 228.14C183.382 228.14 184.237 228.923 184.237 230.039C184.237 231.155 183.382 231.938 182.203 231.938C181.015 231.938 180.16 231.155 180.16 230.039C180.16 228.923 181.015 228.14 182.203 228.14ZM182.203 228.842C181.492 228.842 180.97 229.328 180.97 230.039C180.97 230.75 181.492 231.236 182.203 231.236C182.914 231.236 183.427 230.75 183.427 230.039C183.427 229.328 182.914 228.842 182.203 228.842ZM181.762 225.629H182.608V227.267H181.762V225.629ZM193 229.634H193.837V230.858H193V229.634ZM189.742 229.139H197.113V229.778H189.742V229.139ZM193 225.503H193.837V226.493H193V225.503ZM192.955 226.556H193.702V226.7C193.702 227.96 192.253 228.662 190.345 228.806L190.102 228.167C191.794 228.077 192.955 227.51 192.955 226.7V226.556ZM193.144 226.556H193.882V226.7C193.882 227.51 195.052 228.077 196.744 228.167L196.501 228.806C194.593 228.662 193.144 227.96 193.144 226.7V226.556ZM190.471 226.241H196.375V226.871H190.471V226.241ZM190.606 230.471H196.186V232.316H191.461V233.252H190.624V231.722H195.349V231.092H190.606V230.471ZM190.624 233.009H196.42V233.648H190.624V233.009ZM199.731 227.528H200.397V228.167C200.397 229.895 199.497 231.515 198.156 232.163L197.688 231.515C198.921 230.93 199.731 229.535 199.731 228.167V227.528ZM199.902 227.528H200.559V228.167C200.559 229.445 201.324 230.777 202.521 231.362L202.053 232.01C200.748 231.371 199.902 229.796 199.902 228.167V227.528ZM197.922 226.943H202.332V227.618H197.922V226.943ZM199.722 225.701H200.559V227.312H199.722V225.701ZM203.25 225.548H204.096V233.729H203.25V225.548ZM203.907 228.86H205.401V229.562H203.907V228.86ZM211.314 225.548H212.16V233.729H211.314V225.548ZM211.962 228.869H213.456V229.571H211.962V228.869ZM205.797 226.826H210.603V227.51H205.797V226.826ZM208.236 228.14C209.397 228.14 210.243 228.923 210.243 230.039C210.243 231.155 209.397 231.938 208.236 231.938C207.075 231.938 206.22 231.155 206.22 230.039C206.22 228.923 207.075 228.14 208.236 228.14ZM208.236 228.842C207.534 228.842 207.021 229.328 207.021 230.039C207.021 230.75 207.534 231.236 208.236 231.236C208.929 231.236 209.433 230.75 209.433 230.039C209.433 229.328 208.929 228.842 208.236 228.842ZM207.795 225.647H208.641V227.123H207.795V225.647ZM218.252 226.484H220.052V227.168H218.252V226.484ZM218.252 228.077H220.052V228.761H218.252V228.077ZM219.8 225.548H220.646V230.318H219.8V225.548ZM215.894 225.836H216.587V226.664C216.587 228.284 215.759 229.652 214.346 230.201L213.887 229.535C215.156 229.058 215.894 227.924 215.894 226.664V225.836ZM216.038 225.836H216.731V226.664C216.731 227.834 217.469 228.941 218.675 229.409L218.207 230.075C216.866 229.526 216.038 228.194 216.038 226.664V225.836ZM215.948 230.615H216.596V230.948C216.596 232.064 215.957 233.162 214.751 233.621L214.337 233C215.372 232.622 215.948 231.74 215.948 230.948V230.615ZM216.137 230.615H216.767V230.948C216.767 231.776 217.226 232.658 218.216 233.063L217.865 233.693C216.659 233.225 216.137 232.073 216.137 230.948V230.615ZM218.963 230.615H219.584V230.948C219.584 231.956 219.062 233.189 217.865 233.693L217.505 233.063C218.495 232.613 218.963 231.668 218.963 230.948V230.615ZM219.143 230.615H219.791V230.948C219.791 231.803 220.349 232.649 221.411 233L220.979 233.621C219.773 233.189 219.143 232.127 219.143 230.948V230.615ZM228.034 228.761H229.528V229.472H228.034V228.761ZM227.413 225.539H228.259V233.72H227.413V225.539ZM222.256 226.34H223.093V231.407H222.256V226.34ZM222.256 230.957H222.913C224.11 230.957 225.361 230.876 226.702 230.597L226.801 231.299C225.415 231.587 224.146 231.668 222.913 231.668H222.256V230.957ZM231.777 229.742H232.614V232.154H231.777V229.742ZM234.783 229.742H235.629V232.154H234.783V229.742ZM230.004 232.001H237.411V232.703H230.004V232.001ZM233.694 226.034C235.431 226.034 236.682 226.871 236.682 228.158C236.682 229.445 235.431 230.282 233.694 230.282C231.957 230.282 230.706 229.445 230.706 228.158C230.706 226.871 231.957 226.034 233.694 226.034ZM233.694 226.7C232.416 226.7 231.525 227.267 231.525 228.158C231.525 229.04 232.416 229.616 233.694 229.616C234.963 229.616 235.863 229.04 235.863 228.158C235.863 227.267 234.963 226.7 233.694 226.7ZM238.878 230.885C238.878 230.663 238.902 230.471 238.95 230.309C238.998 230.147 239.076 229.991 239.184 229.841C239.298 229.691 239.454 229.538 239.652 229.382C239.874 229.19 240.048 229.031 240.174 228.905C240.3 228.779 240.39 228.656 240.444 228.536C240.498 228.41 240.525 228.26 240.525 228.086C240.525 227.816 240.435 227.606 240.255 227.456C240.075 227.306 239.817 227.231 239.481 227.231C239.193 227.231 238.932 227.27 238.698 227.348C238.47 227.42 238.248 227.51 238.032 227.618L237.726 226.943C237.972 226.811 238.245 226.703 238.545 226.619C238.845 226.529 239.178 226.484 239.544 226.484C240.12 226.484 240.567 226.628 240.885 226.916C241.203 227.198 241.362 227.579 241.362 228.059C241.362 228.329 241.317 228.557 241.227 228.743C241.143 228.929 241.02 229.103 240.858 229.265C240.702 229.421 240.516 229.589 240.3 229.769C240.102 229.931 239.952 230.072 239.85 230.192C239.748 230.312 239.679 230.432 239.643 230.552C239.607 230.666 239.589 230.807 239.589 230.975V231.146H238.878V230.885ZM238.68 232.496C238.68 232.262 238.737 232.1 238.851 232.01C238.965 231.914 239.106 231.866 239.274 231.866C239.43 231.866 239.565 231.914 239.679 232.01C239.793 232.1 239.85 232.262 239.85 232.496C239.85 232.718 239.793 232.88 239.679 232.982C239.565 233.078 239.43 233.126 239.274 233.126C239.106 233.126 238.965 233.078 238.851 232.982C238.737 232.88 238.68 232.718 238.68 232.496Z" fill="black"/>
<path d="M186.134 191.5C186.519 190.833 187.481 190.833 187.866 191.5L196.526 206.5C196.911 207.167 196.43 208 195.66 208H178.34C177.57 208 177.089 207.167 177.474 206.5L186.134 191.5Z" stroke="#FF0000" stroke-linejoin="round"/>
<path d="M186 205V203.151H188V205H186ZM186.467 201.696L186.12 196H187.88L187.533 201.696H186.467Z" fill="#FF0000"/>
<path d="M207.5 92.2676V91.2676C207.5 90.7153 207.948 90.2676 208.5 90.2676H217C217.552 90.2676 218 90.7153 218 91.2676V92.2676C218 92.8199 217.552 93.2676 217 93.2676H208.5C207.948 93.2676 207.5 92.8199 207.5 92.2676Z" stroke="black"/>
<path d="M138 92.2676V91.2676C138 90.7153 138.448 90.2676 139 90.2676H147.5C148.052 90.2676 148.5 90.7153 148.5 91.2676V92.2676C148.5 92.8199 148.052 93.2676 147.5 93.2676H139C138.448 93.2676 138 92.8199 138 92.2676Z" stroke="black"/>
</g>
<defs>
<clipPath id="clip0_4026_1200">
<rect width="360" height="500" fill="white"/>
</clipPath>
</defs>
</svg>
