<svg width="295" height="295" viewBox="0 0 295 295" fill="none" xmlns="http://www.w3.org/2000/svg">
<g clip-path="url(#clip0_4026_775)">
<rect width="295" height="295" rx="20" fill="white"/>
<rect x="-2.5" y="-0.5" width="53" height="52" fill="#DFDFDD" stroke="#D8D8D8"/>
<path d="M-2.5 63.5H50.5V63.5001V63.5121V63.5243V63.5367V63.5492V63.5618V63.5746V63.5875V63.6005V63.6137V63.6271V63.6405V63.6542V63.6679V63.6818V63.6959V63.71V63.7244V63.7388V63.7534V63.7682V63.7831V63.7981V63.8133V63.8286V63.844V63.8596V63.8754V63.8913V63.9073V63.9234V63.9397V63.9562V63.9727V63.9895V64.0063V64.0233V64.0405V64.0577V64.0752V64.0927V64.1104V64.1282V64.1462V64.1643V64.1826V64.201V64.2195V64.2382V64.257V64.276V64.2951V64.3143V64.3337V64.3532V64.3729V64.3927V64.4126V64.4327V64.4529V64.4732V64.4937V64.5143V64.5351V64.556V64.577V64.5982V64.6195V64.641V64.6626V64.6843V64.7062V64.7282V64.7503V64.7726V64.7951V64.8176V64.8403V64.8632V64.8861V64.9092V64.9325V64.9559V64.9794V65.0031V65.0269V65.0508V65.0749V65.0991V65.1235V65.148V65.1726V65.1973V65.2222V65.2473V65.2725V65.2978V65.3232V65.3488V65.3745V65.4004V65.4264V65.4525V65.4788V65.5052V65.5317V65.5584V65.5852V65.6122V65.6393V65.6665V65.6938V65.7213V65.749V65.7767V65.8046V65.8327V65.8609V65.8892V65.9176V65.9462V65.9749V66.0038V66.0327V66.0619V66.0911V66.1205V66.15V66.1797V66.2095V66.2394V66.2695V66.2997V66.3301V66.3605V66.3911V66.4219V66.4528V66.4838V66.5149V66.5462V66.5776V66.6092V66.6409V66.6727V66.7046V66.7367V66.7689V66.8013V66.8338V66.8664V66.8992V66.9321V66.9651V66.9982V67.0315V67.065V67.0985V67.1322V67.166V67.2V67.2341V67.2683V67.3027V67.3372V67.3718V67.4066V67.4415V67.4765V67.5117V67.5469V67.5824V67.6179V67.6536V67.6894V67.7254V67.7615V67.7977V67.8341V67.8705V67.9072V67.9439V67.9808V68.0178V68.0549V68.0922V68.1296V68.1672V68.2049V68.2427V68.2806V68.3187V68.3569V68.3952V68.4337V68.4723V68.511V68.5498V68.5888V68.628V68.6672V68.7066V68.7461V68.7857V68.8255V68.8654V68.9055V68.9456V68.9859V69.0264V69.0669V69.1076V69.1484V69.1894V69.2305V69.2717V69.313V69.3545V69.3961V69.4378V69.4797V69.5217V69.5638V69.6061V69.6485V69.691V69.7336V69.7764V69.8193V69.8623V69.9055V69.9488V69.9922V70.0358V70.0794V70.1233V70.1672V70.2113V70.2555V70.2998V70.3442V70.3888V70.4335V70.4784V70.5234V70.5685V70.6137V70.659V70.7045V70.7501V70.7959V70.8418V70.8878V70.9339V70.9801V71.0265V71.073V71.1197V71.1664V71.2133V71.2604V71.3075V71.3548V71.4022V71.4497V71.4974V71.5452V71.5931V71.6412V71.6893V71.7376V71.7861V71.8346V71.8833V71.9321V71.981V72.0301V72.0793V72.1286V72.1781V72.2276V72.2773V72.3271V72.3771V72.4272V72.4774V72.5277V72.5782V72.6288V72.6795V72.7303V72.7813V72.8324V72.8836V72.9349V72.9864V73.038V73.0897V73.1415V73.1935V73.2456V73.2978V73.3502V73.4026V73.4552V73.508V73.5608V73.6138V73.6669V73.7201V73.7735V73.8269V73.8805V73.9343V73.9881V74.0421V74.0962V74.1504V74.2048V74.2592V74.3138V74.3686V74.4234V74.4784V74.5335V74.5887V74.644V74.6995V74.7551V74.8108V74.8667V74.9226V74.9787V75.0349V75.0913V75.1477V75.2043V75.261V75.3179V75.3748V75.4319V75.4891V75.5464V75.6039V75.6614V75.7191V75.777V75.8349V75.893V75.9512V76.0095V76.0679V76.1265V76.1851V76.2439V76.3029V76.3619V76.4211V76.4804V76.5398V76.5993V76.659V76.7188V76.7787V76.8387V76.8989V76.9591V77.0195V77.08V77.1407V77.2014V77.2623V77.3233V77.3844V77.4457V77.5071V77.5686V77.6302V77.6919V77.7538V77.8157V77.8778V77.94V78.0024V78.0648V78.1274V78.1901V78.2529V78.3159V78.379V78.4421V78.5054V78.5689V78.6324V78.6961V78.7599V78.8238V78.8878V78.952V79.0162V79.0806V79.1451V79.2098V79.2745V79.3394V79.4044V79.4695V79.5347V79.6001V79.6655V79.7311V79.7968V79.8627V79.9286V79.9947V80.0609V80.1272V80.1936V80.2602V80.3268V80.3936V80.4605V80.5275V80.5947V80.6619V80.7293V80.7968V80.8644V80.9321V81C50.5 88.459 47.1878 95.9097 42.1563 102.917C37.128 109.921 30.413 116.439 23.6808 122.023C16.951 127.605 10.2187 132.241 5.16748 135.482C2.64238 137.102 0.5386 138.373 -0.93312 139.239C-1.586 139.623 -2.11443 139.927 -2.5 140.146V63.5Z" fill="#DFDFDD" stroke="#D8D8D8"/>
<path d="M67.5 -5.5H121.418L106.571 91.5H67.5V-5.5Z" fill="#BDD877" stroke="#D8D8D8"/>
<path d="M238.435 -6.06724C249.792 -18.9226 263.795 -18.9387 275.04 -15.7067C280.665 -14.0898 285.583 -11.6622 289.096 -9.63599C290.852 -8.62347 292.255 -7.71265 293.217 -7.05592C293.699 -6.7276 294.07 -6.4629 294.32 -6.28089C294.389 -6.23017 294.449 -6.18588 294.5 -6.14842V93.5H215.503C215.503 93.402 215.504 93.29 215.506 93.1644C215.511 92.6157 215.522 91.8067 215.545 90.7675C215.59 88.689 215.68 85.6895 215.86 82.008C216.22 74.6445 216.939 64.5562 218.378 53.6553C219.817 42.7524 221.975 31.0477 225.207 20.4473C228.442 9.83827 232.74 0.380033 238.435 -6.06724Z" fill="#BBD677" stroke="#D8D8D8"/>
<path d="M170.871 -19.5777L233.972 -20.4254C224.447 -11.8282 217.915 -4.32743 213.178 4.17324C208.441 12.6724 205.515 22.1412 203.158 34.6507L170.871 -19.5777Z" fill="#DFDFDD" stroke="#D8D8D8"/>
<path d="M80.8238 295.5C63.8242 258.5 70.324 241 89.3246 218L166.825 295.5H80.8238Z" fill="#BAD874"/>
<path d="M8 153C3 156.5 1.96375 160.225 0 166V295.5H49.5C37.197 256.12 40.0034 237.281 62.8807 211.202C63.225 210.81 63.2202 210.21 62.8575 209.834L8 153Z" fill="#DFDFDD" stroke="#D8D8D8"/>
<path d="M104.114 99H69C56.3661 122.864 47.5476 133.827 23.7737 147.235C22.6299 147.88 22.3885 149.432 23.2948 150.382L71.5541 200.984C72.3416 201.81 73.6591 201.81 74.4474 200.985L94.5 180L106.093 101.291C106.271 100.084 105.335 99 104.114 99Z" fill="#DFDFDD" stroke="#D8D8D8"/>
<path d="M119.896 165.099C133.566 151.281 159.146 125.505 165.571 119.322C166.161 118.755 167.014 119.152 167.023 119.971L168 203L175 287.5L100.224 210.264C99.5239 209.541 99.4716 208.411 100.093 207.62C110.354 194.554 115.029 185.351 119.373 166.068C119.455 165.701 119.632 165.367 119.896 165.099Z" fill="#DEDEDC"/>
<path d="M165.571 119.322L165.918 119.683V119.683L165.571 119.322ZM119.896 165.099L120.252 165.451V165.451L119.896 165.099ZM119.373 166.068L118.885 165.959L119.373 166.068ZM100.093 207.62L100.486 207.929H100.486L100.093 207.62ZM100.224 210.264L100.583 209.916H100.583L100.224 210.264ZM175 287.5L174.641 287.848C174.788 288 175.014 288.043 175.207 287.955C175.399 287.868 175.516 287.669 175.498 287.459L175 287.5ZM168 203L167.5 203.006L167.5 203.024L167.502 203.041L168 203ZM167.023 119.971L166.523 119.977V119.977L167.023 119.971ZM165.225 118.962C158.794 125.15 133.207 150.933 119.541 164.748L120.252 165.451C133.924 151.63 159.499 125.86 165.918 119.683L165.225 118.962ZM118.885 165.959C116.717 175.579 114.473 182.663 111.499 188.962C108.527 195.26 104.817 200.795 99.6997 207.311L100.486 207.929C105.629 201.38 109.388 195.78 112.404 189.389C115.419 183 117.684 175.84 119.86 166.178L118.885 165.959ZM99.8644 210.612L174.641 287.848L175.359 287.152L100.583 209.916L99.8644 210.612ZM175.498 287.459L168.498 202.959L167.502 203.041L174.502 287.541L175.498 287.459ZM168.5 202.994L167.523 119.965L166.523 119.977L167.5 203.006L168.5 202.994ZM99.6997 207.311C98.9258 208.296 98.9888 209.707 99.8644 210.612L100.583 209.916C100.059 209.375 100.017 208.526 100.486 207.929L99.6997 207.311ZM119.541 164.748C119.206 165.086 118.987 165.505 118.885 165.959L119.86 166.178C119.924 165.897 120.057 165.648 120.252 165.451L119.541 164.748ZM165.918 119.683C166.072 119.535 166.214 119.539 166.308 119.582C166.408 119.627 166.521 119.749 166.523 119.977L167.523 119.965C167.516 119.374 167.197 118.887 166.722 118.671C166.239 118.452 165.661 118.542 165.225 118.962L165.918 119.683Z" fill="#D8D8D8"/>
<path d="M114.887 145.232L124 86H160.5V107L118.239 146.989C116.855 148.299 114.598 147.115 114.887 145.232Z" fill="#DCDCDA" stroke="#D8D8D8"/>
<path d="M125.225 70.7921C128.163 42.1243 130.509 25.8061 137.158 -1H167C161.443 27.5809 161.474 43.8027 160 73H127.213C126.029 73 125.104 71.9702 125.225 70.7921Z" fill="#D9D9D9" stroke="#D8D8D8"/>
<path d="M251.357 213.165L303 162V295.5H254.5C253 275.5 259 264 257 244.5C255.21 227.044 253.722 226.346 250.289 218.563C249.478 216.723 249.928 214.58 251.357 213.165Z" fill="#D9D9D9" stroke="#D8D8D8"/>
<path d="M187.253 295L184.136 223.13C184.062 221.424 185.425 220 187.133 220H234.563C236.739 220 238.673 221.406 239.3 223.49C241.551 230.978 242.634 236.331 243.919 244.952C243.973 245.314 243.987 245.684 243.96 246.05L240.386 295H187.253Z" fill="#D9D9D9"/>
<path d="M215.408 115H295.001V146.5L242.531 201.377C241.556 202.396 239.857 202.108 239.263 200.829C223.87 167.697 213.506 148.787 215.408 115Z" fill="#D9D9D9" stroke="#D8D8D8"/>
<path d="M184 208V115H205.395C205.283 151.266 212.5 172 230.5 208H184Z" fill="#D9D9D9" stroke="#D8D8D8"/>
<path d="M182.856 94L179 12.5C187.59 28.6432 186.675 25.0886 195.713 39.2988C195.857 39.5256 195.99 39.7763 196.095 40.0237C204.018 58.6909 205.369 73.0147 204.99 94H182.856Z" fill="#DFDFDD" stroke="#D8D8D8"/>
<path d="M46 183.424C46 193.837 37.7969 206.455 26.4243 213.364C14.7666 206.455 7.9996 193.788 8 183.424C8.00221 173.061 16.7647 165 27.5761 165C38.3875 165 46 173.061 46 183.424Z" fill="#5B67EC"/>
<path d="M17.512 199L22.344 176.152H28.168C30.1947 176.152 31.816 176.461 33.032 177.08C34.2693 177.677 35.1653 178.499 35.72 179.544C36.2747 180.568 36.552 181.72 36.552 183C36.552 184.365 36.3067 185.571 35.816 186.616C35.3467 187.661 34.664 188.547 33.768 189.272C32.872 189.976 31.8053 190.509 30.568 190.872C29.352 191.235 28.008 191.416 26.536 191.416H25.192L23.624 199H17.512ZM27.272 186.424C27.912 186.424 28.4667 186.285 28.936 186.008C29.4267 185.731 29.8 185.347 30.056 184.856C30.312 184.365 30.44 183.811 30.44 183.192C30.44 182.659 30.2693 182.189 29.928 181.784C29.608 181.357 29.0747 181.144 28.328 181.144H27.4L26.28 186.424H27.272Z" fill="white"/>
<path d="M274 104.424C274 114.837 265.797 127.455 254.424 134.364C242.767 127.455 236 114.788 236 104.424C236.002 94.0606 244.765 86 255.576 86C266.388 86 274 94.0606 274 104.424Z" fill="#5B67EC"/>
<path d="M245.512 120L250.344 97.152H256.168C258.195 97.152 259.816 97.4613 261.032 98.08C262.269 98.6773 263.165 99.4987 263.72 100.544C264.275 101.568 264.552 102.72 264.552 104C264.552 105.365 264.307 106.571 263.816 107.616C263.347 108.661 262.664 109.547 261.768 110.272C260.872 110.976 259.805 111.509 258.568 111.872C257.352 112.235 256.008 112.416 254.536 112.416H253.192L251.624 120H245.512ZM255.272 107.424C255.912 107.424 256.467 107.285 256.936 107.008C257.427 106.731 257.8 106.347 258.056 105.856C258.312 105.365 258.44 104.811 258.44 104.192C258.44 103.659 258.269 103.189 257.928 102.784C257.608 102.357 257.075 102.144 256.328 102.144H255.4L254.28 107.424H255.272Z" fill="white"/>
<path d="M148 96.4242C148 106.837 139.797 119.455 128.424 126.364C116.767 119.455 110 106.788 110 96.4242C110.002 86.0606 118.765 78 129.576 78C140.388 78 148 86.0606 148 96.4242Z" fill="#5B67EC"/>
<path d="M119.512 112L124.344 89.152H130.168C132.195 89.152 133.816 89.4613 135.032 90.08C136.269 90.6773 137.165 91.4987 137.72 92.544C138.275 93.568 138.552 94.72 138.552 96C138.552 97.3653 138.307 98.5707 137.816 99.616C137.347 100.661 136.664 101.547 135.768 102.272C134.872 102.976 133.805 103.509 132.568 103.872C131.352 104.235 130.008 104.416 128.536 104.416H127.192L125.624 112H119.512ZM129.272 99.424C129.912 99.424 130.467 99.2853 130.936 99.008C131.427 98.7307 131.8 98.3467 132.056 97.856C132.312 97.3653 132.44 96.8107 132.44 96.192C132.44 95.6587 132.269 95.1893 131.928 94.784C131.608 94.3573 131.075 94.144 130.328 94.144H129.4L128.28 99.424H129.272Z" fill="white"/>
<path d="M250 242.424C250 252.837 241.797 265.455 230.424 272.364C218.767 265.455 212 252.788 212 242.424C212.002 232.061 220.765 224 231.576 224C242.388 224 250 232.061 250 242.424Z" fill="#5B67EC"/>
<path d="M221.512 258L226.344 235.152H232.168C234.195 235.152 235.816 235.461 237.032 236.08C238.269 236.677 239.165 237.499 239.72 238.544C240.275 239.568 240.552 240.72 240.552 242C240.552 243.365 240.307 244.571 239.816 245.616C239.347 246.661 238.664 247.547 237.768 248.272C236.872 248.976 235.805 249.509 234.568 249.872C233.352 250.235 232.008 250.416 230.536 250.416H229.192L227.624 258H221.512ZM231.272 245.424C231.912 245.424 232.467 245.285 232.936 245.008C233.427 244.731 233.8 244.347 234.056 243.856C234.312 243.365 234.44 242.811 234.44 242.192C234.44 241.659 234.269 241.189 233.928 240.784C233.608 240.357 233.075 240.144 232.328 240.144H231.4L230.28 245.424H231.272Z" fill="white"/>
<path d="M62 47.4242C62 57.8366 53.7969 70.4545 42.4243 77.3636C30.7666 70.4545 23.9996 57.7879 24 47.4242C24.0022 37.0606 32.7647 29 43.5761 29C54.3875 29 62 37.0606 62 47.4242Z" fill="#5B67EC"/>
<path d="M33.512 63L38.344 40.152H44.168C46.1947 40.152 47.816 40.4613 49.032 41.08C50.2693 41.6773 51.1653 42.4987 51.72 43.544C52.2747 44.568 52.552 45.72 52.552 47C52.552 48.3653 52.3067 49.5707 51.816 50.616C51.3467 51.6613 50.664 52.5467 49.768 53.272C48.872 53.976 47.8053 54.5093 46.568 54.872C45.352 55.2347 44.008 55.416 42.536 55.416H41.192L39.624 63H33.512ZM43.272 50.424C43.912 50.424 44.4667 50.2853 44.936 50.008C45.4267 49.7307 45.8 49.3467 46.056 48.856C46.312 48.3653 46.44 47.8107 46.44 47.192C46.44 46.6587 46.2693 46.1893 45.928 45.784C45.608 45.3573 45.0747 45.144 44.328 45.144H43.4L42.28 50.424H43.272Z" fill="white"/>
<path d="M217 43.4242C217 53.8366 208.797 66.4545 197.424 73.3636C185.767 66.4545 179 53.7879 179 43.4242C179.002 33.0606 187.765 25 198.576 25C209.388 25 217 33.0606 217 43.4242Z" fill="#5B67EC"/>
<path d="M188.512 59L193.344 36.152H199.168C201.195 36.152 202.816 36.4613 204.032 37.08C205.269 37.6773 206.165 38.4987 206.72 39.544C207.275 40.568 207.552 41.72 207.552 43C207.552 44.3653 207.307 45.5707 206.816 46.616C206.347 47.6613 205.664 48.5467 204.768 49.272C203.872 49.976 202.805 50.5093 201.568 50.872C200.352 51.2347 199.008 51.416 197.536 51.416H196.192L194.624 59H188.512ZM198.272 46.424C198.912 46.424 199.467 46.2853 199.936 46.008C200.427 45.7307 200.8 45.3467 201.056 44.856C201.312 44.3653 201.44 43.8107 201.44 43.192C201.44 42.6587 201.269 42.1893 200.928 41.784C200.608 41.3573 200.075 41.144 199.328 41.144H198.4L197.28 46.424H198.272Z" fill="white"/>
</g>
<defs>
<clipPath id="clip0_4026_775">
<rect width="295" height="295" rx="20" fill="white"/>
</clipPath>
</defs>
</svg>
