<svg width="125" height="71" viewBox="0 0 125 71" fill="none" xmlns="http://www.w3.org/2000/svg">
<path d="M48.0618 63.7117C46.8263 65.2476 44.7949 66.6615 41.9676 67.9544C39.1398 69.2477 36.6877 69.9077 34.6113 69.9344L36.7644 63.3081C38.6451 63.0117 40.5779 61.9881 42.5629 60.2368C44.5568 58.4593 46.1841 55.6305 47.4443 51.7515L50.6871 41.7712H46.396C45.5749 41.7712 45.0088 41.5964 44.6976 41.2461C44.415 40.8958 44.4002 40.3302 44.6541 39.5491L45.98 35.468H52.7353L54.1008 31.2654H62.9803L61.6148 35.468H68.0302L66.7042 39.5491C66.4503 40.3302 66.0541 40.8958 65.5156 41.2461C65.0053 41.5964 64.3394 41.7712 63.5178 41.7712H59.5666L56.3239 51.7515C55.0636 55.6305 54.8245 58.4593 55.606 60.2368C56.397 61.9881 57.5797 63.0117 59.1546 63.3081L57.0012 69.9344C55.0275 69.9077 53.1033 69.2477 51.2295 67.9544C49.3552 66.6615 48.2995 65.2476 48.0618 63.7117ZM74.0666 47.2262H79.9722L78.5276 51.6709C78.2302 52.5868 77.7041 53.2469 76.9497 53.651C76.224 54.0546 75.3511 54.2566 74.3314 54.2566H71.7823L68.3424 64.8435C67.8607 66.3251 66.9201 67.5641 65.5201 68.5605C64.1393 69.5841 62.6701 70.0959 61.1124 70.0959H58.0109L70.5 31.5H79L74.0666 47.2262Z" fill="#5B67EC"/>
<path d="M9.82011 29.2184C9.01248 28.8612 8.27308 28.4102 7.602 27.8648C6.90499 27.3011 6.43369 26.6717 6.18797 25.9761H8.88532L7.19078 20.7607H1.5293L2.93988 25.1022C3.34902 26.3615 4.16613 27.5081 5.39121 28.5416C6.59044 29.5563 7.82184 30.2143 9.08545 30.5147L9.82011 29.2184Z" fill="#5B67EC"/>
<path d="M93.9258 47.0909C92.3267 48.6839 90.1132 49.9697 87.2854 50.9484C84.4669 51.8987 81.9642 52.3876 79.778 52.4155L82.0452 45.5396C83.9887 45.3437 86.0004 44.533 88.0812 43.1075C89.6539 42.0456 91.0045 40.2566 92.1323 37.7408H87.435C86.5701 37.7408 85.9736 37.5591 85.646 37.1956C85.3483 36.8327 85.3333 36.2453 85.6003 35.4346L86.9692 31.2837H110.814L109.445 35.4346C109.178 36.2453 108.761 36.8327 108.193 37.1956C107.656 37.5591 106.955 37.7408 106.09 37.7408H101.706C101.175 40.2566 101.285 42.0456 102.039 43.1075C103.09 44.533 104.538 45.3437 106.382 45.5396L104.115 52.4155C101.947 52.3876 99.8117 51.8987 97.709 50.9484C95.6159 49.9697 94.3548 48.6839 93.9258 47.0909ZM119.095 37.7829H125L123.424 42.5628C123.138 43.4289 122.647 44.0578 121.952 44.4492C121.286 44.8406 120.461 45.0365 119.477 45.0365H116.703L115.238 49.4809C114.952 50.3474 114.408 51.0459 113.607 51.5769C112.815 52.0805 111.897 52.3318 110.853 52.3318H105.216L112.183 31.2H121.265L119.095 37.7829ZM102.946 61.3884C103.093 60.9412 103.079 60.5778 102.902 60.2981C102.727 60.0188 102.161 59.8788 101.206 59.8788H90.0223C89.0977 59.8788 88.4406 60.0188 88.0499 60.2981C87.6895 60.5778 87.4355 60.9412 87.2878 61.3884L87.1909 61.6819C87.0438 62.1291 87.0582 62.4926 87.2342 62.7718C87.4404 63.0515 88.0056 63.1911 88.9302 63.1911H100.114C101.069 63.1911 101.726 63.0515 102.087 62.7718C102.448 62.4926 102.702 62.1291 102.849 61.6819L102.946 61.3884ZM111.27 63.82C110.625 65.7769 109.416 67.2724 107.644 68.3065C105.892 69.3685 103.957 69.9 101.839 69.9H82.7814C80.6936 69.9 79.1095 69.3685 78.0278 68.3065C76.9372 67.2724 76.7145 65.7769 77.3597 63.82L78.8251 59.3757C79.4703 57.4193 80.6792 55.9238 82.4518 54.8892C84.2333 53.8272 86.1684 53.2962 88.2561 53.2962H107.314C109.432 53.2962 111.016 53.8272 112.068 54.8892C113.158 55.9238 113.381 57.4193 112.736 59.3757L111.27 63.82Z" fill="#5B67EC"/>
<path d="M18.8907 40.9482C17.6512 41.9347 15.6128 42.7805 12.7754 43.4855C9.97676 44.1618 7.49553 44.5002 5.33172 44.5002L7.33769 38.3264C9.2417 38.2138 11.1234 37.8052 12.9826 37.1002C14.8807 36.3671 16.219 34.8026 16.9976 32.4066L17.2724 31.5608H26.476L26.2012 32.4066C25.4135 34.8307 25.6804 36.3814 27.0019 37.0578C28.3622 37.7064 29.9726 38.0868 31.8329 38.1994L29.827 44.3732C27.6632 44.3732 25.4268 44.0492 23.118 43.401C20.8388 42.7523 19.4297 41.9347 18.8907 40.9482ZM38.4539 50.8009C38.17 51.6749 37.1357 52.8734 36.3392 53.4094C35.5519 53.9167 34.6395 54.1702 33.602 54.1702H28.1332L29.4104 51.2658C28.9291 51.3789 28.2746 51.4773 27.4468 51.5617C26.4913 51.6749 25.4948 51.7312 24.4574 51.7312H19.8333C19.0672 52.7889 18.7029 53.2261 18.2465 53.5358C17.6827 53.9024 16.9415 54.0857 16.0226 54.0857H9.70899L10.8076 51.7312H5.33874C4.36057 51.7312 3.65294 51.4916 3.21583 51.0124C2.80836 50.5332 2.7512 49.8425 3.0443 48.9405L4.19839 45.3884H26.785C27.7336 45.3884 28.6708 45.3316 29.5967 45.219C30.3948 45.1345 31.0197 45.0357 31.4713 44.9231L35.7992 31.6033H44.6916L38.4539 50.8009ZM4.47469 55.1429H13.5005L12.1035 58.732H26.4301L27.6838 55.1429H36.7096L32.4229 68.3362C32.1481 69.1815 31.6854 69.8301 31.035 70.2812C30.3754 70.7604 29.5861 71 28.6673 71H2.16796C1.24908 71 0.615547 70.7604 0.267361 70.2812C-0.0603235 69.8301 -0.086803 69.1815 0.187972 68.3362L4.47469 55.1429ZM23.96 65.6483L25.4421 61.2021H11.3625L9.63341 65.6483H23.96Z" fill="#5B67EC"/>
<path d="M60.4141 14.5481L61.2381 14.0047C61.8586 13.5956 62.6614 13.5917 63.2858 13.9943C63.8208 14.3391 64.1439 14.9324 64.1439 15.5692V15.6453C64.1439 16.2539 63.8485 16.824 63.352 17.1753C62.6979 17.6377 61.8225 17.6328 61.1734 17.1639L60.4141 16.6156" stroke="#5B67EC" stroke-width="2" stroke-linecap="round"/>
<path d="M24.1016 14.5481L24.9257 14.0047C25.5458 13.5956 26.3488 13.5917 26.973 13.9943C27.5082 14.3391 27.8315 14.9324 27.8315 15.5692V15.6453C27.8315 16.2539 27.5361 16.824 27.0392 17.1753C26.3853 17.6377 25.5099 17.6328 24.8608 17.1639L24.1016 16.6156" stroke="#5B67EC" stroke-width="2" stroke-linecap="round"/>
<path d="M52.2033 1L62.7674 3.87575M52.2033 1L51.0507 3.87575M52.2033 1L46.4509 1.12351L39.9443 1.74103L32.035 5.47341M62.7674 3.87575H51.0507M62.7674 3.87575L64.8892 3.16979C65.3921 3.00246 65.9188 2.91715 66.4488 2.91715H68.5307C69.1334 2.91715 69.6995 3.206 70.0532 3.694L73.1152 7.9163V11.065V14.8326V14.4201M51.0507 3.87575L50.2825 5.79294L34.3832 6.18722L32.035 5.47341M32.035 5.47341L27.8678 4.99599C26.2027 4.80525 24.5164 5.04119 22.9675 5.68169L21.2751 6.38157C20.7927 6.58106 20.3269 6.81843 19.882 7.09148L18.3483 8.03298C17.1857 8.7466 16.3432 9.9115 16.3074 11.2751C16.2869 12.0555 16.3299 12.9642 16.5263 13.8446C17.0293 16.0993 19.0413 16.3374 19.0413 16.3374H21.3049M32.035 16.3374H57.4725H31.0747" stroke="#5B67EC" stroke-width="2" stroke-linejoin="round"/>
<path d="M30.8246 15.3771C30.8246 18.1629 28.6308 20.387 25.966 20.387C23.3012 20.387 21.1074 18.1629 21.1074 15.3771C21.1074 12.5915 23.3012 10.3672 25.966 10.3672C28.6308 10.3672 30.8246 12.5915 30.8246 15.3771Z" stroke="#5B67EC" stroke-width="2"/>
<path d="M67.1427 15.6972C67.1427 18.4825 64.9487 20.707 62.284 20.707C59.6192 20.707 57.4258 18.4825 57.4258 15.6972C57.4258 12.9114 59.6192 10.687 62.284 10.687C64.9487 10.687 67.1427 12.9114 67.1427 15.6972Z" stroke="#5B67EC" stroke-width="2"/>
<path d="M45.9531 8.9043H54.8702" stroke="#5B67EC" stroke-width="2" stroke-linecap="round"/>
<path d="M64.4316 6.59155H72.1394" stroke="#5B67EC" stroke-width="2" stroke-linecap="round"/>
<path d="M67.0781 15.8206H71.1019" stroke="#5B67EC" stroke-width="2" stroke-linecap="round"/>
<path d="M34.6191 13.6362H53.2303" stroke="#5B67EC" stroke-width="2" stroke-linecap="round"/>
<path d="M46.959 12.8565L48.7192 9.89233H54.0008L52.2406 12.8565H46.959Z" fill="#5B67EC" stroke="#5B67EC" stroke-width="2"/>
</svg>
