<svg width="254" height="102" viewBox="0 0 254 102" fill="none" xmlns="http://www.w3.org/2000/svg">
<path d="M97.2852 86.9417C94.7842 90.0507 90.6722 92.9127 84.9492 95.5297C79.2252 98.1477 74.2616 99.4837 70.0586 99.5377L74.4169 86.1247C78.2238 85.5247 82.1362 83.4527 86.1542 79.9077C90.1902 76.3097 93.4842 70.5837 96.0352 62.7317L102.599 42.5297H93.9132C92.2512 42.5297 91.1052 42.1757 90.4752 41.4667C89.9032 40.7577 89.8732 39.6127 90.3872 38.0317L93.0712 29.7707H106.745L109.509 21.2637H127.483L124.719 29.7707H137.705L135.021 38.0317C134.507 39.6127 133.705 40.7577 132.615 41.4667C131.582 42.1757 130.234 42.5297 128.571 42.5297H120.573L114.009 62.7317C111.458 70.5837 110.974 76.3097 112.556 79.9077C114.157 83.4527 116.551 85.5247 119.739 86.1247L115.38 99.5377C111.385 99.4837 107.49 98.1477 103.697 95.5297C99.9032 92.9127 97.7662 90.0507 97.2852 86.9417ZM149.924 53.5717H161.878L158.954 62.5687C158.352 64.4227 157.287 65.7587 155.76 66.5767C154.291 67.3937 152.524 67.8027 150.46 67.8027H145.3L138.337 89.2327C137.362 92.2317 135.458 94.7397 132.624 96.7567C129.829 98.8287 126.855 99.8647 123.702 99.8647H117.424L141.847 24.6997H159.305L149.924 53.5717Z" fill="#5B67EC"/>
<path d="M19.8761 17.12C18.2413 16.397 16.7445 15.484 15.3861 14.38C13.9752 13.239 13.0212 11.965 12.5238 10.557H17.9839L14.5537 0H3.09375L5.94905 8.788C6.77725 11.337 8.43125 13.658 10.911 15.75C13.3385 17.804 15.8311 19.136 18.3889 19.744L19.8761 17.12Z" fill="#5B67EC"/>
<path d="M191.051 54.0797C187.834 57.3317 183.381 59.9567 177.692 61.9547C172.022 63.8947 166.987 64.8927 162.589 64.9497L167.15 50.9127C171.06 50.5127 175.107 48.8577 179.293 45.9477C182.457 43.7797 185.174 40.1277 187.443 34.9917H177.993C176.253 34.9917 175.053 34.6207 174.394 33.8787C173.795 33.1377 173.765 31.9387 174.302 30.2837L177.056 21.8097H225.026L222.272 30.2837C221.735 31.9387 220.895 33.1377 219.754 33.8787C218.673 34.6207 217.263 34.9917 215.523 34.9917H206.703C205.634 40.1277 205.857 43.7797 207.373 45.9477C209.487 48.8577 212.4 50.5127 216.11 50.9127L211.549 64.9497C207.187 64.8927 202.892 63.8947 198.662 61.9547C194.451 59.9567 191.914 57.3317 191.051 54.0797ZM241.685 35.0777H253.565L250.394 44.8357C249.82 46.6037 248.832 47.8877 247.433 48.6867C246.093 49.4857 244.434 49.8857 242.454 49.8857H236.874L233.926 58.9587C233.351 60.7277 232.257 62.1537 230.645 63.2377C229.051 64.2657 227.204 64.7787 225.104 64.7787H213.764L227.781 21.6387H246.051L241.685 35.0777ZM209.197 83.2677C209.494 82.3547 209.465 81.6127 209.11 81.0417C208.756 80.4717 207.618 80.1857 205.698 80.1857H183.198C181.338 80.1857 180.016 80.4717 179.23 81.0417C178.505 81.6127 177.994 82.3547 177.697 83.2677L177.502 83.8667C177.206 84.7797 177.235 85.5217 177.589 86.0917C178.004 86.6627 179.141 86.9477 181.001 86.9477H203.501C205.421 86.9477 206.744 86.6627 207.469 86.0917C208.195 85.5217 208.706 84.7797 209.002 83.8667L209.197 83.2677ZM225.944 88.2317C224.646 92.2267 222.214 95.2797 218.648 97.3907C215.124 99.5587 211.231 100.644 206.971 100.644H168.631C164.431 100.644 161.244 99.5587 159.068 97.3907C156.874 95.2797 156.426 92.2267 157.724 88.2317L160.672 79.1587C161.97 75.1647 164.402 72.1117 167.968 69.9997C171.552 67.8317 175.445 66.7477 179.645 66.7477H217.985C222.245 66.7477 225.432 67.8317 227.548 69.9997C229.742 72.1117 230.19 75.1647 228.892 79.1587L225.944 88.2317Z" fill="#5B67EC"/>
<path d="M38.2387 40.8633C35.7297 42.8603 31.6035 44.5723 25.86 45.9993C20.195 47.3683 15.1725 48.0533 10.7925 48.0533L14.853 35.5563C18.7071 35.3283 22.516 34.5013 26.2795 33.0743C30.1216 31.5903 32.8306 28.4233 34.4066 23.5733L34.9628 21.8613H53.5928L53.0366 23.5733C51.4421 28.4803 51.9823 31.6193 54.6573 32.9883C57.4109 34.3013 60.6706 35.0713 64.4364 35.2993L60.3759 47.7963C55.9959 47.7963 51.4691 47.1403 46.7956 45.8283C42.182 44.5153 39.3297 42.8603 38.2387 40.8633ZM77.8386 60.8073C77.2638 62.5763 75.1703 65.0023 73.558 66.0873C71.9643 67.1143 70.1174 67.6273 68.0174 67.6273H56.9474L59.5326 61.7483C58.5585 61.9773 57.2336 62.1763 55.558 62.3473C53.6238 62.5763 51.6067 62.6903 49.5067 62.6903H40.1467C38.5959 64.8313 37.8585 65.7163 36.9346 66.3433C35.7935 67.0853 34.293 67.4563 32.433 67.4563H19.653L21.8767 62.6903H10.8067C8.82669 62.6903 7.39429 62.2053 6.50949 61.2353C5.68469 60.2653 5.56899 58.8673 6.16229 57.0413L8.49839 49.8513H54.2184C56.1384 49.8513 58.0355 49.7363 59.9097 49.5083C61.5253 49.3373 62.7902 49.1373 63.7044 48.9093L72.465 21.9473H90.465L77.8386 60.8073ZM9.05769 69.5963H27.3277L24.5 76.8613H53.5L56.0377 69.5963H74.3077L65.6305 96.3023C65.0743 98.0133 64.1378 99.3263 62.8212 100.239C61.486 101.209 59.8884 101.694 58.0284 101.694H4.38839C2.52839 101.694 1.24599 101.209 0.541193 100.239C-0.122107 99.3263 -0.175707 98.0133 0.380493 96.3023L9.05769 69.5963ZM48.5 90.8613L51.5 81.8613H23L19.5 90.8613H48.5Z" fill="#5B67EC"/>
</svg>
