<svg width="252" height="127" viewBox="0 0 252 127" fill="none" xmlns="http://www.w3.org/2000/svg">
<path d="M97.2266 111.678C94.7256 114.787 90.6136 117.649 84.8906 120.266C79.1666 122.884 74.203 124.22 70 124.274L74.3583 110.861C78.1652 110.261 82.0776 108.189 86.0956 104.644C90.1316 101.046 93.4256 95.32 95.9766 87.468L102.541 67.266H93.8546C92.1926 67.266 91.0466 66.912 90.4166 66.203C89.8446 65.494 89.8146 64.349 90.3286 62.768L93.0126 54.507H106.687L109.451 46H127.425L124.661 54.507H137.647L134.963 62.768C134.449 64.349 133.647 65.494 132.557 66.203C131.524 66.912 130.176 67.266 128.513 67.266H120.515L113.951 87.468C111.4 95.32 110.916 101.046 112.498 104.644C114.099 108.189 116.493 110.261 119.681 110.861L115.322 124.274C111.327 124.22 107.432 122.884 103.639 120.266C99.8446 117.649 97.7076 114.787 97.2266 111.678ZM149.866 78.308H161.82L158.896 87.305C158.294 89.159 157.229 90.495 155.702 91.313C154.233 92.13 152.466 92.539 150.402 92.539H145.242L138.279 113.969C137.304 116.968 135.4 119.476 132.566 121.493C129.771 123.565 126.797 124.601 123.644 124.601H117.366L141.789 49.436H159.247L149.866 78.308Z" fill="white"/>
<path d="M22.8761 47.2587C21.2413 46.5357 19.7445 45.6227 18.3861 44.5187C16.9752 43.3777 16.0212 42.1037 15.5238 40.6957H20.9839L17.5537 30.1387H6.09375L8.94905 38.9267C9.77725 41.4757 11.4312 43.7967 13.911 45.8887C16.3385 47.9427 18.8311 49.2747 21.3889 49.8827L22.8761 47.2587Z" fill="white"/>
<path d="M189.051 80.441C185.834 83.693 181.381 86.318 175.692 88.316C170.022 90.256 164.987 91.254 160.589 91.311L165.15 77.274C169.06 76.874 173.107 75.219 177.293 72.309C180.457 70.141 183.174 66.489 185.443 61.353H175.993C174.253 61.353 173.053 60.982 172.394 60.24C171.795 59.499 171.765 58.3 172.302 56.645L175.056 48.171H223.026L220.272 56.645C219.735 58.3 218.895 59.499 217.754 60.24C216.673 60.982 215.263 61.353 213.523 61.353H204.703C203.634 66.489 203.857 70.141 205.373 72.309C207.487 75.219 210.4 76.874 214.11 77.274L209.549 91.311C205.187 91.254 200.892 90.256 196.662 88.316C192.451 86.318 189.914 83.693 189.051 80.441ZM239.685 61.439H251.565L248.394 71.197C247.82 72.965 246.832 74.249 245.433 75.048C244.093 75.847 242.434 76.247 240.454 76.247H234.874L231.926 85.32C231.351 87.089 230.257 88.515 228.645 89.599C227.051 90.627 225.204 91.14 223.104 91.14H211.764L225.781 48H244.051L239.685 61.439ZM207.197 109.629C207.494 108.716 207.465 107.974 207.11 107.403C206.756 106.833 205.618 106.547 203.698 106.547H181.198C179.338 106.547 178.016 106.833 177.23 107.403C176.505 107.974 175.994 108.716 175.697 109.629L175.502 110.228C175.206 111.141 175.235 111.883 175.589 112.453C176.004 113.024 177.141 113.309 179.001 113.309H201.501C203.421 113.309 204.744 113.024 205.469 112.453C206.195 111.883 206.706 111.141 207.002 110.228L207.197 109.629ZM223.944 114.593C222.646 118.588 220.214 121.641 216.648 123.752C213.124 125.92 209.231 127.005 204.971 127.005H166.631C162.431 127.005 159.244 125.92 157.068 123.752C154.874 121.641 154.426 118.588 155.724 114.593L158.672 105.52C159.97 101.526 162.402 98.473 165.968 96.361C169.552 94.193 173.445 93.109 177.645 93.109H215.985C220.245 93.109 223.432 94.193 225.548 96.361C227.742 98.473 228.19 101.526 226.892 105.52L223.944 114.593Z" fill="white"/>
<path d="M38.2387 66.002C35.7297 67.999 31.6035 69.711 25.86 71.138C20.195 72.507 15.1725 73.192 10.7925 73.192L14.853 60.695C18.7071 60.467 22.516 59.64 26.2795 58.213C30.1216 56.729 32.8306 53.562 34.4066 48.712L34.9628 47H53.5928L53.0366 48.712C51.4421 53.619 51.9823 56.758 54.6573 58.127C57.4109 59.44 60.6706 60.21 64.4364 60.438L60.3759 72.935C55.9959 72.935 51.4691 72.279 46.7956 70.967C42.182 69.654 39.3297 67.999 38.2387 66.002ZM77.8386 85.946C77.2638 87.715 75.1703 90.141 73.558 91.226C71.9643 92.253 70.1174 92.766 68.0174 92.766H56.9474L59.5326 86.887C58.5585 87.116 57.2336 87.315 55.558 87.486C53.6238 87.715 51.6067 87.829 49.5067 87.829H40.1467C38.5959 89.97 37.8585 90.855 36.9346 91.482C35.7935 92.224 34.293 92.595 32.433 92.595H19.653L21.8767 87.829H10.8067C8.82669 87.829 7.39429 87.344 6.50949 86.374C5.68469 85.404 5.56899 84.006 6.16229 82.18L8.49839 74.99H54.2184C56.1384 74.99 58.0355 74.875 59.9097 74.647C61.5253 74.476 62.7902 74.276 63.7044 74.048L72.465 47.086H90.465L77.8386 85.946ZM9.05769 94.735H27.3277L24.5 102H53.5L56.0377 94.735H74.3077L65.6305 121.441C65.0743 123.152 64.1378 124.465 62.8212 125.378C61.486 126.348 59.8884 126.833 58.0284 126.833H4.38839C2.52839 126.833 1.24599 126.348 0.541193 125.378C-0.122107 124.465 -0.175707 123.152 0.380493 121.441L9.05769 94.735ZM48.5 116L51.5 107H23L19.5 116H48.5Z" fill="white"/>
<path d="M117.289 29.4239L118.957 28.3239C120.213 27.4959 121.838 27.4879 123.102 28.3029C124.185 29.0009 124.839 30.2019 124.839 31.4909V31.6449C124.839 32.8769 124.241 34.0309 123.236 34.7419C121.912 35.6779 120.14 35.6679 118.826 34.7189L117.289 33.6089" stroke="white" stroke-width="3" stroke-linecap="round"/>
<path d="M43.7852 29.4239L45.4534 28.3239C46.7086 27.4959 48.334 27.4879 49.5975 28.3029C50.6809 29.0009 51.3354 30.2019 51.3354 31.4909V31.6449C51.3354 32.8769 50.7374 34.0309 49.7316 34.7419C48.4079 35.6779 46.6359 35.6679 45.322 34.7189L43.7852 33.6089" stroke="white" stroke-width="3" stroke-linecap="round"/>
<path d="M100.67 2L122.054 7.8211M100.67 2L98.337 7.8211M100.67 2L89.026 2.25L75.8554 3.5L59.8454 11.0551M122.054 7.8211H98.337M122.054 7.8211L126.349 6.3921C127.367 6.0534 128.433 5.8807 129.506 5.8807H133.72C134.94 5.8807 136.086 6.4654 136.802 7.4532L143 16V22.3737V30V29.165M98.337 7.8211L96.782 11.7019L64.5986 12.5L59.8454 11.0551M59.8454 11.0551L51.4101 10.0887C48.0395 9.7026 44.6261 10.1802 41.4909 11.4767L38.0651 12.8934C37.0887 13.2972 36.1458 13.7777 35.2452 14.3304L32.1406 16.2362C29.7873 17.6807 28.082 20.0387 28.0094 22.799C27.9679 24.3786 28.0549 26.218 28.4525 28C29.4708 32.564 33.5435 33.046 33.5435 33.046H38.1254M59.8454 33.046H111.336H57.9014" stroke="white" stroke-width="3" stroke-linejoin="round"/>
<path d="M57.3962 31.102C57.3962 36.741 52.9555 41.243 47.5614 41.243C42.1673 41.243 37.7266 36.741 37.7266 31.102C37.7266 25.4633 42.1673 20.9609 47.5614 20.9609C52.9555 20.9609 57.3962 25.4633 57.3962 31.102Z" stroke="white" stroke-width="3"/>
<path d="M130.909 31.75C130.909 37.388 126.468 41.891 121.074 41.891C115.68 41.891 111.24 37.388 111.24 31.75C111.24 26.111 115.68 21.6084 121.074 21.6084C126.468 21.6084 130.909 26.111 130.909 31.75Z" stroke="white" stroke-width="3"/>
<path d="M88.0176 18H106.068" stroke="white" stroke-width="3" stroke-linecap="round"/>
<path d="M125.424 13.3184H141.026" stroke="white" stroke-width="3" stroke-linecap="round"/>
<path d="M130.781 32H138.926" stroke="white" stroke-width="3" stroke-linecap="round"/>
<path d="M65.0781 27.5781H102.751" stroke="white" stroke-width="3" stroke-linecap="round"/>
<path d="M90.0547 26L93.6177 20H104.309L100.746 26H90.0547Z" fill="white" stroke="white" stroke-width="3"/>
</svg>
