<svg width="480" height="800" viewBox="0 0 480 800" fill="none" xmlns="http://www.w3.org/2000/svg">
<g clip-path="url(#clip0_4319_14547)">
<rect width="480" height="800" fill="#F2F3F7"/>
<g filter="url(#filter0_f_4319_14547)">
<path d="M773.186 280.569C1024.59 408.639 979.223 527.902 1205.5 480C1471.11 344.072 1259.31 259.907 1242.53 155.514C1221.56 25.0231 1340.38 -181.588 1172.63 -284.893C1004.88 -388.199 993.798 -653.146 798.086 -500.906C602.374 -348.666 46.651 -326.345 -245.879 -45.5508C-325.485 30.8611 -1174.7 98.9216 -1062.87 204.557C-965.012 296.989 -110.774 251.902 69.9901 226.204L70.1523 226.181C298.645 193.698 536.326 159.908 773.186 280.569Z" fill="url(#paint0_angular_4319_14547)" fill-opacity="0.8"/>
</g>
<path d="M32.364 38.044C32.364 43.4387 30.46 47.7907 26.652 51.1C22.844 54.4547 17.744 56.132 11.352 56.132C5.73067 56.132 1.016 54.5907 -2.792 51.508C-6.6 48.4707 -8.504 44.2547 -8.504 38.86H5.776C6.00267 41.2173 6.63733 42.94 7.68 44.028C8.768 45.0707 10.2187 45.592 12.032 45.592C14.1173 45.592 15.772 44.912 16.996 43.552C18.22 42.192 18.832 40.4467 18.832 38.316C18.832 36.0947 18.356 34.4173 17.404 33.284C16.452 32.1507 15.2507 31.4253 13.8 31.108L7.34 29.68C2.53467 28.592 -1.25067 26.5747 -4.016 23.628C-6.78133 20.636 -8.164 17.1227 -8.164 13.088C-8.164 7.96533 -6.396 3.68133 -2.86 0.235997C0.721334 -3.20933 5.708 -4.932 12.1 -4.932C17.0413 -4.932 21.3707 -3.41333 25.088 -0.376003C28.8507 2.616 30.8453 6.424 31.072 11.048H17.472C17.064 9.09866 16.316 7.67066 15.228 6.764C14.14 5.85733 12.8933 5.404 11.488 5.404C9.53867 5.404 7.99733 6.03867 6.864 7.308C5.776 8.57733 5.232 10.3 5.232 12.476C5.232 14.2893 5.73067 15.7627 6.728 16.896C7.77067 18.0293 8.99467 18.7773 10.4 19.14L16.724 20.636C21.6653 21.86 25.496 23.7867 28.216 26.416C30.9813 29.0453 32.364 32.9213 32.364 38.044ZM67.273 55.044V30.02H52.653V50.284C52.653 51.6893 52.109 52.8227 51.021 53.684C49.933 54.5907 48.6636 55.044 47.213 55.044H38.849V-3.844H52.653V19.48H67.273V-3.844H81.077V50.284C81.077 51.6893 80.533 52.8227 79.445 53.684C78.357 54.5907 77.0876 55.044 75.637 55.044H67.273ZM90.113 -3.844H103.917V50.284C103.917 51.6893 103.373 52.8227 102.285 53.684C101.197 54.5907 99.9277 55.044 98.477 55.044H90.113V-3.844ZM140.837 14.584C140.837 12.0907 140.247 10.164 139.069 8.804C137.89 7.444 136.485 6.764 134.853 6.764H126.829V22.336H134.853C136.53 22.336 137.935 21.6787 139.069 20.364C140.247 19.004 140.837 17.0773 140.837 14.584ZM113.025 55.044V-3.844H135.397C142.423 -3.844 147.387 -1.78134 150.289 2.344C153.235 6.424 154.709 10.504 154.709 14.584C154.709 19.1173 153.213 23.3333 150.221 27.232C147.229 31.0853 142.287 33.012 135.397 33.012H126.829V50.284C126.829 51.6893 126.285 52.8227 125.197 53.684C124.109 54.5907 122.839 55.044 121.389 55.044H113.025ZM200.975 37.024C200.476 42.2373 198.323 46.68 194.515 50.352C190.707 54.0693 185.743 55.928 179.623 55.928C174.953 55.928 170.715 54.5453 166.907 51.78C163.099 49.0147 160.605 44.6853 159.427 38.792C158.611 34.4853 158.18 30.0427 158.135 25.464C158.135 20.84 158.565 16.4427 159.427 12.272C160.651 6.19733 163.325 1.84533 167.451 -0.784002C171.576 -3.45867 175.633 -4.796 179.623 -4.796C185.425 -4.796 190.208 -3.14134 193.971 0.167998C197.733 3.47733 200.068 8.124 200.975 14.108H186.899C186.717 11.5693 185.901 9.552 184.451 8.056C183.045 6.56 181.549 5.812 179.963 5.812C177.333 5.812 175.361 7.42133 174.047 10.64C172.732 13.8587 172.075 18.8453 172.075 25.6C172.075 32.944 172.709 38.0667 173.979 40.968C175.248 43.8693 177.265 45.32 180.031 45.32C181.391 45.32 182.796 44.6173 184.247 43.212C185.697 41.7613 186.581 39.6987 186.899 37.024H200.975ZM234.949 55.044V30.02H220.329V50.284C220.329 51.6893 219.785 52.8227 218.697 53.684C217.609 54.5907 216.339 55.044 214.889 55.044H206.525V-3.844H220.329V19.48H234.949V-3.844H248.753V50.284C248.753 51.6893 248.209 52.8227 247.121 53.684C246.033 54.5907 244.763 55.044 243.313 55.044H234.949ZM288.185 55.044L284.989 44.436H269.417L266.153 55.044H251.941L271.457 -3.844H282.881L302.465 55.044H288.185ZM277.509 16.964C277.418 17.2813 277.282 17.78 277.101 18.46C276.965 19.14 276.851 19.6613 276.761 20.024L272.477 34.44H282.201L278.121 20.024C278.03 19.6613 277.917 19.14 277.781 18.46C277.69 17.78 277.599 17.2813 277.509 16.964ZM335.589 35.596C335.589 42.2147 333.799 47.1787 330.217 50.488C326.681 53.8427 322.171 55.52 316.685 55.52C312.061 55.52 308.095 53.956 304.785 50.828C301.521 47.7453 299.821 43.5747 299.685 38.316H312.741C312.923 40.5373 313.399 42.2147 314.169 43.348C314.985 44.436 315.96 44.98 317.093 44.98C318.272 44.98 319.337 44.232 320.289 42.736C321.241 41.24 321.717 38.7013 321.717 35.12V-3.844H335.589V35.596ZM374.314 55.044L371.118 44.436H355.546L352.282 55.044H338.07L357.586 -3.844H369.01L388.594 55.044H374.314ZM363.638 16.964C363.547 17.2813 363.411 17.78 363.23 18.46C363.094 19.14 362.98 19.6613 362.89 20.024L358.606 34.44H368.33L364.25 20.024C364.159 19.6613 364.046 19.14 363.91 18.46C363.819 17.78 363.728 17.2813 363.638 16.964ZM423.554 55.044L406.282 24.376C406.192 24.1493 406.033 23.628 405.806 22.812C405.58 21.9507 405.398 21.4067 405.262 21.18C405.308 21.4973 405.376 22.132 405.466 23.084C405.557 23.9907 405.602 24.58 405.602 24.852V50.284C405.602 51.6893 405.058 52.8227 403.97 53.684C402.882 54.5907 401.613 55.044 400.162 55.044H391.798V-3.844H404.242L421.174 26.144C421.356 26.416 421.56 26.96 421.786 27.776C422.013 28.5467 422.217 29.1133 422.398 29.476C422.398 29.1133 422.353 28.524 422.262 27.708C422.172 26.892 422.126 26.3253 422.126 26.008V-3.844H435.998V50.284C435.998 51.6893 435.454 52.8227 434.366 53.684C433.278 54.5907 432.009 55.044 430.558 55.044H423.554ZM462.872 22.336H486.4V31.448C486.4 40.0613 484.587 46.2947 480.96 50.148C477.333 54.0013 471.871 55.928 464.572 55.928C459.313 55.928 454.825 54.2733 451.108 50.964C447.436 47.7 445.124 43.28 444.172 37.704C443.628 34.4853 443.288 30.5413 443.152 25.872C443.016 21.2027 443.243 17.032 443.832 13.36C444.784 7.512 447.255 3.04666 451.244 -0.0360031C455.279 -3.164 459.767 -4.728 464.708 -4.728C470.42 -4.728 475.361 -2.86934 479.532 0.847998C483.748 4.52 486.015 9.05333 486.332 14.448H472.46C472.007 11.728 471.032 9.62 469.536 8.124C468.085 6.628 466.521 5.88 464.844 5.88C463.167 5.88 461.557 6.74133 460.016 8.464C458.475 10.1867 457.523 12.9067 457.16 16.624C456.933 18.936 456.843 21.996 456.888 25.804C456.979 29.5667 457.137 32.468 457.364 34.508C457.727 37.6813 458.52 40.288 459.744 42.328C461.013 44.3227 462.668 45.32 464.708 45.32C467.247 45.32 469.196 44.4133 470.556 42.6C471.961 40.7867 472.664 38.1347 472.664 34.644V32.264H466.816C465.501 32.264 464.504 31.9693 463.824 31.38C463.189 30.7907 462.872 29.8387 462.872 28.524V22.336Z" fill="url(#paint1_linear_4319_14547)"/>
<g opacity="0.3">
<rect x="-194" y="131.975" width="4.1873" height="883.516" transform="rotate(-90 -194 131.975)" fill="url(#paint2_linear_4319_14547)"/>
<rect x="-194" y="61.4894" width="3.48942" height="883.516" transform="rotate(-90 -194 61.4894)" fill="url(#paint3_linear_4319_14547)"/>
<rect x="60.7266" y="58" width="4.18728" height="73.9753" fill="url(#paint4_linear_4319_14547)"/>
<rect x="106.089" y="58" width="4.18728" height="73.9753" fill="url(#paint5_linear_4319_14547)"/>
<rect x="150.753" y="58" width="4.18728" height="73.9753" fill="url(#paint6_linear_4319_14547)"/>
<rect x="196.115" y="58" width="4.18728" height="73.9753" fill="url(#paint7_linear_4319_14547)"/>
<rect x="15.3643" y="58" width="4.18728" height="73.9753" fill="url(#paint8_linear_4319_14547)"/>
<rect x="467.591" y="58" width="4.18728" height="73.9753" fill="url(#paint9_linear_4319_14547)"/>
<rect x="422.229" y="58" width="4.18728" height="73.9753" fill="url(#paint10_linear_4319_14547)"/>
<rect x="376.867" y="58" width="4.18728" height="73.9753" fill="url(#paint11_linear_4319_14547)"/>
<rect x="332.202" y="58" width="4.18728" height="73.9753" fill="url(#paint12_linear_4319_14547)"/>
<rect x="286.84" y="58" width="4.18728" height="73.9753" fill="url(#paint13_linear_4319_14547)"/>
<rect x="241.478" y="58" width="4.18728" height="73.9753" fill="url(#paint14_linear_4319_14547)"/>
<g filter="url(#filter1_d_4319_14547)">
<path d="M-4.13502 118.132L-7.53689 118.178L-7.8332 118.182C-10.0793 118.099 -12.3129 117.836 -14.5077 117.397C-16.4125 116.754 -17.3098 114.578 -17.7284 112.781C-18.0362 112.535 -18.2823 112.232 -18.4501 111.893C-18.6179 111.554 -18.7036 111.186 -18.7014 110.815L-18.791 105.985C-18.8103 105.38 -18.6039 104.788 -18.2052 104.302L-18.2186 103.596L-18.2594 101.448L-20.4921 100.661L-20.5063 99.9302L-18.2803 100.193L-18.5183 87.3581C-18.9359 86.8841 -19.1653 86.2974 -19.17 85.6917L-19.3868 73.8882C-19.4106 73.2189 -19.154 72.5662 -18.6683 72.0603C-18.4596 70.6275 -17.8831 68.4409 -16.276 68.2681L-6.57477 68.1467L3.13004 68.0255C4.73892 68.1512 5.39775 70.33 5.6588 71.7546C6.16383 72.2471 6.44521 72.8931 6.44701 73.5644L6.66919 85.3681C6.68872 85.9724 6.48234 86.5651 6.08333 87.0505L6.3233 99.9687L8.34871 99.6815L8.36288 100.413L6.3443 101.178L6.38324 103.285L6.41058 104.003C6.81859 104.476 7.04218 105.057 7.04655 105.656L7.13623 110.486C7.15193 111.095 6.93895 111.691 6.53198 112.176C6.20973 114.029 5.41294 116.428 3.43214 117.154C1.25379 117.648 -0.968778 117.966 -3.20942 118.105L-4.1344 118.118L-4.13502 118.132Z" fill="#C2C5CA"/>
</g>
<g filter="url(#filter2_d_4319_14547)">
<path d="M-4.13502 118.132L-7.53689 118.178L-7.8332 118.182C-10.0793 118.099 -12.3129 117.836 -14.5077 117.397C-16.4125 116.754 -17.3098 114.578 -17.7284 112.781C-18.0362 112.535 -18.2823 112.232 -18.4501 111.893C-18.6179 111.554 -18.7036 111.186 -18.7014 110.815L-18.791 105.985C-18.8103 105.38 -18.6039 104.788 -18.2052 104.302L-18.2186 103.596L-18.2594 101.448L-20.4921 100.661L-20.5063 99.9302L-18.2803 100.193L-18.5183 87.3581C-18.9359 86.8841 -19.1653 86.2974 -19.17 85.6917L-19.3868 73.8882C-19.4106 73.2189 -19.154 72.5662 -18.6683 72.0603C-18.4596 70.6275 -17.8831 68.4409 -16.276 68.2681L-6.57477 68.1467L3.13004 68.0255C4.73892 68.1512 5.39775 70.33 5.6588 71.7546C6.16383 72.2471 6.44521 72.8931 6.44701 73.5644L6.66919 85.3681C6.68872 85.9724 6.48234 86.5651 6.08333 87.0505L6.3233 99.9687L8.34871 99.6815L8.36288 100.413L6.3443 101.178L6.38324 103.285L6.41058 104.003C6.81859 104.476 7.04218 105.057 7.04655 105.656L7.13623 110.486C7.15193 111.095 6.93895 111.691 6.53198 112.176C6.20973 114.029 5.41294 116.428 3.43214 117.154C1.25379 117.648 -0.968778 117.966 -3.20942 118.105L-4.1344 118.118L-4.13502 118.132Z" fill="#C2C5CA"/>
</g>
<path d="M-11.0212 72.4813C-12.7375 72.4813 -14.1289 71.7538 -14.1289 70.8563C-14.1289 69.9588 -12.7375 69.2312 -11.0212 69.2312L-1.69792 69.2312C0.0184404 69.2312 1.40983 69.9588 1.40983 70.8563C1.40983 71.7538 0.0184404 72.4813 -1.69792 72.4813L-11.0212 72.4813Z" fill="#333333"/>
<path d="M-2.16666 72.482C-3.16031 72.482 -3.96582 71.7545 -3.96582 70.857C-3.96582 69.9595 -3.16031 69.2319 -2.16666 69.2319L1.43165 69.2319C2.4253 69.2319 3.23081 69.9595 3.23081 70.857C3.23081 71.7545 2.4253 72.482 1.43165 72.482L-2.16666 72.482Z" fill="#333333"/>
<path d="M-5.06648 105.536L-5.06582 105.523C-2.55567 105.571 -0.0606294 105.217 2.30372 104.477C2.86206 104.328 3.3783 104.075 3.81886 103.733C4.25942 103.391 4.61443 102.968 4.8608 102.492L4.86213 102.467C4.90414 102.36 4.93569 102.25 4.95643 102.138C5.00832 101.9 5.00059 101.655 4.93379 101.419L1.91995 93.9945C1.13717 94.9974 -3.97441 95.2921 -5.90784 95.3705C-7.83941 95.2716 -12.9531 94.9397 -13.7608 93.9302L-16.631 101.327C-16.693 101.562 -16.6958 101.808 -16.639 102.046C-16.6165 102.158 -16.5836 102.269 -16.5406 102.376L-16.5366 102.402C-16.28 102.881 -15.9162 103.306 -15.4686 103.652C-15.0209 103.998 -14.4993 104.256 -13.9371 104.41C-11.5606 105.167 -9.0592 105.541 -6.548 105.514L-6.54866 105.527C-6.29832 105.528 -6.05338 105.53 -5.81194 105.529C-5.5705 105.528 -5.32572 105.533 -5.0753 105.533L-5.06648 105.536Z" fill="#333333"/>
<path d="M-14.3405 82.9155L-4.22749 83.0109L1.88678 83.0754L2.2704 83.0792C4.33105 81.6935 4.42019 78.3032 4.21781 76.0521L-16.4906 75.8503C-16.6664 78.0979 -16.5502 81.49 -14.4756 82.9144L-14.3405 82.9155Z" fill="#333333"/>
<path d="M6.19187 82.9709C6.25968 89.6291 6.89343 99.3709 6.19187 98.4845C6.19187 98.4845 3.23145 91.3809 3.23145 89.5154C3.23145 87.6498 6.19187 81.0972 6.19187 82.9709Z" fill="#333333"/>
<g filter="url(#filter3_d_4319_14547)">
<path d="M41.8396 118.134L38.4377 118.179L38.1414 118.184C35.8953 118.1 33.6617 117.838 31.4669 117.398C29.5621 116.755 28.6648 114.58 28.2462 112.783C27.9384 112.536 27.6923 112.234 27.5245 111.895C27.3567 111.555 27.271 111.188 27.2732 110.816L27.1836 105.986C27.1643 105.382 27.3707 104.789 27.7694 104.304L27.756 103.597L27.7152 101.449L25.4825 100.663L25.4683 99.9317L27.6943 100.195L27.4563 87.3596C27.0387 86.8856 26.8093 86.2988 26.8046 85.6932L26.5878 73.8896C26.564 73.2204 26.8206 72.5677 27.3063 72.0618C27.515 70.629 28.0916 68.4423 29.6986 68.2696L39.3998 68.1482L49.1047 68.027C50.7135 68.1527 51.3724 70.3315 51.6334 71.7561C52.1384 72.2485 52.4198 72.8946 52.4216 73.5659L52.6438 85.3696C52.6633 85.9739 52.4569 86.5665 52.0579 87.0519L52.2979 99.9701L54.3233 99.683L54.3375 100.414L52.3189 101.179L52.3579 103.286L52.3852 104.005C52.7932 104.477 53.0168 105.058 53.0212 105.657L53.1108 110.488C53.1265 111.097 52.9136 111.692 52.5066 112.178C52.1843 114.031 51.3875 116.43 49.4068 117.156C47.2284 117.65 45.0058 117.968 42.7652 118.107L41.8402 118.119L41.8396 118.134Z" fill="white"/>
</g>
<g filter="url(#filter4_d_4319_14547)">
<path d="M41.8396 118.134L38.4377 118.179L38.1414 118.184C35.8953 118.1 33.6617 117.838 31.4669 117.398C29.5621 116.755 28.6648 114.58 28.2462 112.783C27.9384 112.536 27.6923 112.234 27.5245 111.895C27.3567 111.555 27.271 111.188 27.2732 110.816L27.1836 105.986C27.1643 105.382 27.3707 104.789 27.7694 104.304L27.756 103.597L27.7152 101.449L25.4825 100.663L25.4683 99.9317L27.6943 100.195L27.4563 87.3596C27.0387 86.8856 26.8093 86.2988 26.8046 85.6932L26.5878 73.8896C26.564 73.2204 26.8206 72.5677 27.3063 72.0618C27.515 70.629 28.0916 68.4423 29.6986 68.2696L39.3998 68.1482L49.1047 68.027C50.7135 68.1527 51.3724 70.3315 51.6334 71.7561C52.1384 72.2485 52.4198 72.8946 52.4216 73.5659L52.6438 85.3696C52.6633 85.9739 52.4569 86.5665 52.0579 87.0519L52.2979 99.9701L54.3233 99.683L54.3375 100.414L52.3189 101.179L52.3579 103.286L52.3852 104.005C52.7932 104.477 53.0168 105.058 53.0212 105.657L53.1108 110.488C53.1265 111.097 52.9136 111.692 52.5066 112.178C52.1843 114.031 51.3875 116.43 49.4068 117.156C47.2284 117.65 45.0058 117.968 42.7652 118.107L41.8402 118.119L41.8396 118.134Z" fill="white"/>
</g>
<path d="M34.9525 72.4826C33.2361 72.4826 31.8447 71.755 31.8447 70.8575C31.8447 69.96 33.2361 69.2325 34.9525 69.2325L44.2757 69.2325C45.9921 69.2325 47.3835 69.96 47.3835 70.8575C47.3835 71.755 45.9921 72.4826 44.2757 72.4826L34.9525 72.4826Z" fill="#333333"/>
<path d="M31.2142 72.4834C30.2205 72.4834 29.415 71.7558 29.415 70.8583C29.415 69.9608 30.2205 69.2333 31.2142 69.2333L34.8125 69.2333C35.8062 69.2333 36.6117 69.9608 36.6117 70.8583C36.6117 71.7558 35.8062 72.4834 34.8125 72.4834L31.2142 72.4834Z" fill="#333333"/>
<path d="M36.9758 118.255C36.4789 118.255 36.0762 117.891 36.0762 117.442C36.0762 116.994 36.4789 116.63 36.9758 116.63L44.1724 116.63C44.6692 116.63 45.072 116.994 45.072 117.442C45.072 117.891 44.6692 118.255 44.1724 118.255L36.9758 118.255Z" fill="#333333"/>
<path d="M43.804 72.4831C42.8104 72.4831 42.0049 71.7556 42.0049 70.8581C42.0049 69.9606 42.8104 69.233 43.804 69.233L47.4024 69.233C48.396 69.233 49.2015 69.9606 49.2015 70.8581C49.2015 71.7556 48.396 72.4831 47.4024 72.4831L43.804 72.4831Z" fill="#333333"/>
<path d="M40.9042 105.537L40.9049 105.524C43.415 105.572 45.9101 105.218 48.2744 104.478C48.8328 104.329 49.349 104.076 49.7896 103.734C50.2301 103.392 50.5851 102.969 50.8315 102.493L50.8328 102.467C50.8748 102.361 50.9064 102.251 50.9271 102.139C50.979 101.901 50.9713 101.656 50.9045 101.42L47.8907 93.9954C47.1079 94.9983 41.9963 95.2931 40.0629 95.3714C38.1313 95.2725 33.0176 94.9406 32.21 93.9311L29.3397 101.328C29.2777 101.563 29.2749 101.809 29.3317 102.047C29.3542 102.159 29.3871 102.269 29.4301 102.377L29.4341 102.403C29.6907 102.882 30.0545 103.307 30.5021 103.653C30.9498 103.999 31.4714 104.257 32.0336 104.411C34.4101 105.168 36.9115 105.542 39.4227 105.515L39.422 105.528C39.6724 105.529 39.9173 105.531 40.1588 105.53C40.4002 105.529 40.645 105.534 40.8954 105.533L40.9042 105.537Z" fill="#333333"/>
<path d="M31.6302 82.9167L41.7432 83.0121L47.8575 83.0765L48.2411 83.0803C50.3018 81.6946 50.3909 78.3044 50.1885 76.0533L29.4801 75.8515C29.3043 78.099 29.4205 81.4911 31.4951 82.9155L31.6302 82.9167Z" fill="#333333"/>
<path d="M27.6126 82.5452C27.3942 88.7707 27.4445 92.2617 27.6126 98.4869C27.6126 98.4869 31.2109 91.6113 31.2109 89.7457C31.2109 87.8802 27.6126 80.6715 27.6126 82.5452Z" fill="#333333"/>
<path d="M52.1655 82.9718C52.2333 89.63 52.8671 99.3718 52.1655 98.4854C52.1655 98.4854 49.2051 91.3819 49.2051 89.5163C49.2051 87.6508 52.1655 81.0982 52.1655 82.9718Z" fill="#333333"/>
<g filter="url(#filter5_d_4319_14547)">
<path d="M87.8015 118.132L84.3996 118.178L84.1033 118.182C81.8572 118.099 79.6236 117.836 77.4288 117.397C75.524 116.754 74.6267 114.578 74.2081 112.781C73.9003 112.535 73.6542 112.232 73.4864 111.893C73.3186 111.554 73.2329 111.186 73.2352 110.815L73.1455 105.985C73.1262 105.38 73.3326 104.788 73.7314 104.302L73.718 103.596L73.6771 101.448L71.4444 100.661L71.4303 99.9302L73.6563 100.193L73.4182 87.3581C73.0007 86.8841 72.7712 86.2974 72.7665 85.6917L72.5498 73.8882C72.526 73.2189 72.7825 72.5662 73.2682 72.0603C73.4769 70.6275 74.0535 68.4409 75.6606 68.2681L85.3618 68.1467L95.0666 68.0255C96.6754 68.1512 97.3343 70.33 97.5953 71.7546C98.1004 72.2471 98.3817 72.8931 98.3835 73.5644L98.6057 85.3681C98.6252 85.9724 98.4189 86.5651 98.0199 87.0505L98.2598 99.9687L100.285 99.6815L100.299 100.413L98.2808 101.178L98.3198 103.285L98.3471 104.003C98.7551 104.476 98.9787 105.057 98.9831 105.656L99.0728 110.486C99.0885 111.095 98.8755 111.691 98.4685 112.176C98.1463 114.029 97.3495 116.428 95.3687 117.154C93.1903 117.648 90.9677 117.966 88.7271 118.105L87.8021 118.118L87.8015 118.132Z" fill="white"/>
</g>
<g filter="url(#filter6_d_4319_14547)">
<path d="M87.8015 118.132L84.3996 118.178L84.1033 118.182C81.8572 118.099 79.6236 117.836 77.4288 117.397C75.524 116.754 74.6267 114.578 74.2081 112.781C73.9003 112.535 73.6542 112.232 73.4864 111.893C73.3186 111.554 73.2329 111.186 73.2352 110.815L73.1455 105.985C73.1262 105.38 73.3326 104.788 73.7314 104.302L73.718 103.596L73.6771 101.448L71.4444 100.661L71.4303 99.9302L73.6563 100.193L73.4182 87.3581C73.0007 86.8841 72.7712 86.2974 72.7665 85.6917L72.5498 73.8882C72.526 73.2189 72.7825 72.5662 73.2682 72.0603C73.4769 70.6275 74.0535 68.4409 75.6606 68.2681L85.3618 68.1467L95.0666 68.0255C96.6754 68.1512 97.3343 70.33 97.5953 71.7546C98.1004 72.2471 98.3817 72.8931 98.3835 73.5644L98.6057 85.3681C98.6252 85.9724 98.4189 86.5651 98.0199 87.0505L98.2598 99.9687L100.285 99.6815L100.299 100.413L98.2808 101.178L98.3198 103.285L98.3471 104.003C98.7551 104.476 98.9787 105.057 98.9831 105.656L99.0728 110.486C99.0885 111.095 98.8755 111.691 98.4685 112.176C98.1463 114.029 97.3495 116.428 95.3687 117.154C93.1903 117.648 90.9677 117.966 88.7271 118.105L87.8021 118.118L87.8015 118.132Z" fill="white"/>
</g>
<path d="M80.9154 72.4812C79.199 72.4812 77.8076 71.7537 77.8076 70.8562C77.8076 69.9587 79.199 69.2311 80.9154 69.2311L90.2386 69.2311C91.955 69.2311 93.3463 69.9587 93.3463 70.8562C93.3463 71.7537 91.955 72.4812 90.2386 72.4812L80.9154 72.4812Z" fill="#333333"/>
<path d="M77.1761 72.4822C76.1825 72.4822 75.377 71.7547 75.377 70.8572C75.377 69.9597 76.1825 69.2321 77.1761 69.2321L80.7744 69.2321C81.7681 69.2321 82.5736 69.9597 82.5736 70.8572C82.5736 71.7547 81.7681 72.4822 80.7744 72.4822L77.1761 72.4822Z" fill="#333333"/>
<path d="M82.9386 118.253C82.4418 118.253 82.0391 117.89 82.0391 117.441C82.0391 116.992 82.4418 116.628 82.9386 116.628L90.1353 116.628C90.6321 116.628 91.0348 116.992 91.0348 117.441C91.0348 117.89 90.6321 118.253 90.1353 118.253L82.9386 118.253Z" fill="#333333"/>
<path d="M89.7699 72.4819C88.7762 72.4819 87.9707 71.7543 87.9707 70.8568C87.9707 69.9594 88.7762 69.2318 89.7699 69.2318L93.3682 69.2318C94.3618 69.2318 95.1673 69.9594 95.1673 70.8568C95.1673 71.7543 94.3618 72.4819 93.3682 72.4819L89.7699 72.4819Z" fill="#333333"/>
<path d="M86.87 105.537L86.8707 105.524C89.3808 105.572 91.8759 105.218 94.2402 104.478C94.7986 104.329 95.3148 104.076 95.7554 103.734C96.1959 103.392 96.551 102.969 96.7973 102.493L96.7987 102.467C96.8407 102.36 96.8722 102.25 96.893 102.139C96.9448 101.901 96.9371 101.655 96.8703 101.42L93.8565 93.9952C93.0737 94.9982 87.9621 95.2929 86.0287 95.3713C84.0971 95.2723 78.9834 94.9405 78.1758 93.931L75.3055 101.328C75.2435 101.563 75.2408 101.809 75.2975 102.046C75.32 102.159 75.353 102.269 75.3959 102.377L75.3999 102.403C75.6566 102.881 76.0203 103.307 76.468 103.653C76.9156 103.998 77.4372 104.257 77.9994 104.411C80.376 105.168 82.8773 105.542 85.3885 105.515L85.3879 105.528C85.6382 105.529 85.8831 105.53 86.1246 105.53C86.366 105.529 86.6108 105.533 86.8612 105.533L86.87 105.537Z" fill="#333333"/>
<path d="M77.5989 82.9163L87.712 83.0117L93.8262 83.0761L94.2098 83.0799C96.2705 81.6942 96.3596 78.304 96.1573 76.0529L75.4489 75.8511C75.273 78.0987 75.3892 81.4908 77.4638 82.9152L77.5989 82.9163Z" fill="#333333"/>
<path d="M73.5784 82.5448C73.36 88.7703 73.4103 92.2614 73.5784 98.4865C73.5784 98.4865 77.1768 91.6109 77.1768 89.7454C77.1768 87.8798 73.5784 80.6711 73.5784 82.5448Z" fill="#333333"/>
<path d="M98.1284 82.9707C98.1962 89.6288 98.8299 99.3706 98.1284 98.4843C98.1284 98.4843 95.168 91.3807 95.168 89.5152C95.168 87.6496 98.1284 81.097 98.1284 82.9707Z" fill="#333333"/>
<g filter="url(#filter7_d_4319_14547)">
<path d="M223.399 117.914L219.997 117.959L219.701 117.964C217.455 117.88 215.221 117.618 213.026 117.178C211.122 116.535 210.224 114.36 209.806 112.563C209.498 112.316 209.252 112.014 209.084 111.674C208.916 111.335 208.831 110.968 208.833 110.596L208.743 105.766C208.724 105.162 208.93 104.569 209.329 104.084L209.316 103.377L209.275 101.229L207.042 100.443L207.028 99.7116L209.254 99.9745L209.016 87.1395C208.598 86.6655 208.369 86.0788 208.364 85.4731L208.147 73.6696C208.124 73.0003 208.38 72.3476 208.866 71.8417C209.075 70.4089 209.651 68.2223 211.258 68.0495L220.959 67.9281L230.664 67.8069C232.273 67.9326 232.932 70.1114 233.193 71.536C233.698 72.0285 233.979 72.6745 233.981 73.3458L234.203 85.1495C234.223 85.7538 234.017 86.3465 233.618 86.8319L233.857 99.7501L235.883 99.4629L235.897 100.194L233.878 100.959L233.917 103.066L233.945 103.785C234.353 104.257 234.576 104.838 234.581 105.437L234.67 110.268C234.686 110.877 234.473 111.472 234.066 111.958C233.744 113.811 232.947 116.21 230.966 116.936C228.788 117.429 226.565 117.748 224.325 117.887L223.4 117.899L223.399 117.914Z" fill="white"/>
</g>
<g filter="url(#filter8_d_4319_14547)">
<path d="M223.399 117.914L219.997 117.959L219.701 117.964C217.455 117.88 215.221 117.618 213.026 117.178C211.122 116.535 210.224 114.36 209.806 112.563C209.498 112.316 209.252 112.014 209.084 111.674C208.916 111.335 208.831 110.968 208.833 110.596L208.743 105.766C208.724 105.162 208.93 104.569 209.329 104.084L209.316 103.377L209.275 101.229L207.042 100.443L207.028 99.7116L209.254 99.9745L209.016 87.1395C208.598 86.6655 208.369 86.0788 208.364 85.4731L208.147 73.6696C208.124 73.0003 208.38 72.3476 208.866 71.8417C209.075 70.4089 209.651 68.2223 211.258 68.0495L220.959 67.9281L230.664 67.8069C232.273 67.9326 232.932 70.1114 233.193 71.536C233.698 72.0285 233.979 72.6745 233.981 73.3458L234.203 85.1495C234.223 85.7538 234.017 86.3465 233.618 86.8319L233.857 99.7501L235.883 99.4629L235.897 100.194L233.878 100.959L233.917 103.066L233.945 103.785C234.353 104.257 234.576 104.838 234.581 105.437L234.67 110.268C234.686 110.877 234.473 111.472 234.066 111.958C233.744 113.811 232.947 116.21 230.966 116.936C228.788 117.429 226.565 117.748 224.325 117.887L223.4 117.899L223.399 117.914Z" fill="white"/>
</g>
<path d="M216.513 72.2624C214.797 72.2624 213.405 71.5348 213.405 70.6373C213.405 69.7398 214.797 69.0123 216.513 69.0123L225.836 69.0123C227.553 69.0123 228.944 69.7398 228.944 70.6373C228.944 71.5348 227.553 72.2624 225.836 72.2624L216.513 72.2624Z" fill="#333333"/>
<path d="M212.774 72.2634C211.78 72.2634 210.975 71.5358 210.975 70.6383C210.975 69.7408 211.78 69.0133 212.774 69.0133L216.372 69.0133C217.366 69.0133 218.171 69.7408 218.171 70.6383C218.171 71.5358 217.366 72.2634 216.372 72.2634L212.774 72.2634Z" fill="#333333"/>
<path d="M218.536 118.035C218.039 118.035 217.637 117.671 217.637 117.222C217.637 116.773 218.039 116.41 218.536 116.41L225.733 116.41C226.23 116.41 226.633 116.773 226.633 117.222C226.633 117.671 226.23 118.035 225.733 118.035L218.536 118.035Z" fill="#333333"/>
<path d="M225.368 72.2629C224.374 72.2629 223.568 71.5354 223.568 70.6379C223.568 69.7404 224.374 69.0128 225.368 69.0128L228.966 69.0128C229.959 69.0128 230.765 69.7404 230.765 70.6379C230.765 71.5354 229.959 72.2629 228.966 72.2629L225.368 72.2629Z" fill="#333333"/>
<path d="M222.468 105.318L222.468 105.305C224.979 105.353 227.474 104.999 229.838 104.259C230.396 104.11 230.912 103.857 231.353 103.515C231.794 103.173 232.149 102.75 232.395 102.274L232.396 102.248C232.438 102.142 232.47 102.032 232.491 101.92C232.543 101.682 232.535 101.437 232.468 101.201L229.454 93.7764C228.671 94.7794 223.56 95.0741 221.626 95.1524C219.695 95.0535 214.581 94.7217 213.773 93.7122L210.903 101.109C210.841 101.344 210.838 101.59 210.895 101.828C210.918 101.94 210.951 102.05 210.994 102.158L210.998 102.184C211.254 102.663 211.618 103.088 212.066 103.434C212.513 103.78 213.035 104.038 213.597 104.192C215.974 104.949 218.475 105.323 220.986 105.296L220.986 105.309C221.236 105.31 221.481 105.312 221.722 105.311C221.964 105.31 222.208 105.315 222.459 105.314L222.468 105.318Z" fill="#333333"/>
<path d="M213.197 82.6975L223.31 82.7929L229.424 82.8573L229.808 82.8611C231.868 81.4754 231.957 78.0852 231.755 75.8341L211.047 75.6323C210.871 77.8799 210.987 81.2719 213.062 82.6963L213.197 82.6975Z" fill="#333333"/>
<path d="M209.176 82.326C208.958 88.5515 209.008 92.0425 209.176 98.2677C209.176 98.2677 212.774 91.3921 212.774 89.5265C212.774 87.661 209.176 80.4523 209.176 82.326Z" fill="#333333"/>
<path d="M233.726 82.7519C233.794 89.41 234.428 99.1518 233.726 98.2655C233.726 98.2655 230.766 91.1619 230.766 89.2963C230.766 87.4308 233.726 80.8782 233.726 82.7519Z" fill="#333333"/>
<g filter="url(#filter9_d_4319_14547)">
<path d="M221.149 201.732L218.468 199.637L218.234 199.455C216.536 197.983 214.959 196.379 213.523 194.662C212.441 192.968 213.104 190.71 213.903 189.047C213.818 188.662 213.816 188.272 213.897 187.902C213.979 187.533 214.142 187.193 214.376 186.904L217.332 183.083C217.696 182.6 218.228 182.267 218.843 182.138L219.275 181.579L220.588 179.879L219.34 177.868L219.787 177.289L221.358 178.888L229.211 168.733C229.183 168.102 229.371 167.501 229.747 167.026L236.971 157.689C237.372 157.152 237.98 156.804 238.676 156.714C239.736 155.728 241.555 154.384 242.916 155.256L250.555 161.238L258.196 167.222C259.371 168.328 258.52 170.439 257.832 171.713C257.917 172.413 257.732 173.093 257.312 173.617L250.093 182.958C249.729 183.441 249.197 183.774 248.582 183.902L240.678 194.123L242.437 195.168L241.99 195.747L239.937 195.079L238.648 196.746L238.219 197.323C238.241 197.947 238.051 198.54 237.68 199.01L234.724 202.831C234.355 203.316 233.816 203.647 233.194 203.77C231.783 205.013 229.659 206.384 227.66 205.709C225.653 204.73 223.721 203.586 221.887 202.291L221.158 201.721L221.149 201.732Z" fill="white"/>
</g>
<g filter="url(#filter10_d_4319_14547)">
<path d="M221.149 201.732L218.468 199.637L218.234 199.455C216.536 197.983 214.959 196.379 213.523 194.662C212.441 192.968 213.104 190.71 213.903 189.047C213.818 188.662 213.816 188.272 213.897 187.902C213.979 187.533 214.142 187.193 214.376 186.904L217.332 183.083C217.696 182.6 218.228 182.267 218.843 182.138L219.275 181.579L220.588 179.879L219.34 177.868L219.787 177.289L221.358 178.888L229.211 168.733C229.183 168.102 229.371 167.501 229.747 167.026L236.971 157.689C237.372 157.152 237.98 156.804 238.676 156.714C239.736 155.728 241.555 154.384 242.916 155.256L250.555 161.238L258.196 167.222C259.371 168.328 258.52 170.439 257.832 171.713C257.917 172.413 257.732 173.093 257.312 173.617L250.093 182.958C249.729 183.441 249.197 183.774 248.582 183.902L240.678 194.123L242.437 195.168L241.99 195.747L239.937 195.079L238.648 196.746L238.219 197.323C238.241 197.947 238.051 198.54 237.68 199.01L234.724 202.831C234.355 203.316 233.816 203.647 233.194 203.77C231.783 205.013 229.659 206.384 227.66 205.709C225.653 204.73 223.721 203.586 221.887 202.291L221.158 201.721L221.149 201.732Z" fill="white"/>
</g>
<path d="M244.371 161.833C243.033 160.758 242.404 159.319 242.967 158.619C243.529 157.92 245.069 158.224 246.407 159.299L253.675 165.139C255.013 166.214 255.642 167.652 255.08 168.352C254.518 169.052 252.977 168.747 251.639 167.672L244.371 161.833Z" fill="#333333"/>
<path d="M241.457 159.491C240.682 158.869 240.51 157.797 241.072 157.098C241.634 156.398 242.718 156.335 243.492 156.958L246.297 159.212C247.072 159.834 247.244 160.906 246.682 161.605C246.12 162.305 245.036 162.367 244.262 161.745L241.457 159.491Z" fill="#333333"/>
<path d="M217.28 198.781C216.893 198.47 216.807 197.934 217.088 197.584C217.369 197.234 217.911 197.203 218.298 197.514L223.908 202.022C224.295 202.333 224.381 202.869 224.1 203.219C223.819 203.569 223.278 203.6 222.89 203.289L217.28 198.781Z" fill="#333333"/>
<path d="M251.274 167.379C250.499 166.756 250.327 165.684 250.889 164.985C251.452 164.285 252.535 164.223 253.31 164.845L256.115 167.099C256.889 167.721 257.062 168.793 256.5 169.492C255.937 170.192 254.854 170.255 254.079 169.632L251.274 167.379Z" fill="#333333"/>
<path d="M228.309 191.33L228.318 191.32C230.245 192.93 232.412 194.216 234.718 195.12C235.247 195.354 235.808 195.48 236.365 195.489C236.923 195.499 237.464 195.392 237.955 195.175L237.972 195.156C238.071 195.099 238.165 195.033 238.251 194.959C238.441 194.806 238.588 194.61 238.684 194.384L240.985 186.709C239.746 187 235.577 184.028 234.021 182.878C232.577 181.591 228.798 178.13 228.801 176.837L221.931 180.805C221.735 180.95 221.579 181.14 221.474 181.361C221.421 181.462 221.378 181.569 221.344 181.68L221.331 181.703C221.231 182.236 221.248 182.796 221.381 183.346C221.513 183.896 221.758 184.424 222.1 184.896C223.478 186.975 225.194 188.833 227.168 190.385L227.16 190.395C227.354 190.552 227.544 190.707 227.733 190.857C227.921 191.008 228.109 191.165 228.305 191.322L228.309 191.33Z" fill="#333333"/>
<path d="M235.251 167.889L243.075 174.297L247.801 178.177L248.098 178.42C250.572 178.631 252.765 176.044 254.017 174.162L238.001 161.034C236.456 162.676 234.422 165.393 235.147 167.803L235.251 167.889Z" fill="#333333"/>
<path d="M232.35 165.082C228.281 169.798 226.133 172.551 222.365 177.509C222.365 177.509 229.477 174.403 230.645 172.949C231.814 171.494 233.524 163.621 232.35 165.082Z" fill="#333333"/>
<path d="M251.22 180.79C247.103 186.023 241.495 194.014 241.503 192.884C241.503 192.884 243.645 185.492 244.813 184.038C245.982 182.584 252.394 179.33 251.22 180.79Z" fill="#333333"/>
<g filter="url(#filter11_d_4319_14547)">
<path d="M177.434 117.913L174.032 117.959L173.736 117.963C171.49 117.88 169.256 117.617 167.062 117.178C165.157 116.535 164.26 114.359 163.841 112.562C163.533 112.316 163.287 112.013 163.119 111.674C162.951 111.335 162.866 110.968 162.868 110.596L162.778 105.766C162.759 105.162 162.965 104.569 163.364 104.083L163.351 103.377L163.31 101.229L161.077 100.443L161.063 99.7115L163.289 99.9743L163.051 87.1394C162.633 86.6654 162.404 86.0786 162.399 85.4729L162.183 73.6694C162.159 73.0002 162.415 72.3475 162.901 71.8416C163.11 70.4087 163.686 68.2221 165.293 68.0493L174.995 67.928L184.699 67.8067C186.308 67.9325 186.967 70.1113 187.228 71.5359C187.733 72.0283 188.015 72.6744 188.016 73.3456L188.239 85.1493C188.258 85.7537 188.052 86.3463 187.653 86.8317L187.893 99.7499L189.918 99.4627L189.932 100.194L187.914 100.959L187.953 103.066L187.98 103.784C188.388 104.257 188.612 104.838 188.616 105.437L188.706 110.268C188.721 110.876 188.508 111.472 188.101 111.958C187.779 113.811 186.982 116.21 185.001 116.935C182.823 117.429 180.601 117.748 178.36 117.887L177.435 117.899L177.434 117.913Z" fill="white"/>
</g>
<g filter="url(#filter12_d_4319_14547)">
<path d="M177.434 117.913L174.032 117.959L173.736 117.963C171.49 117.88 169.256 117.617 167.062 117.178C165.157 116.535 164.26 114.359 163.841 112.562C163.533 112.316 163.287 112.013 163.119 111.674C162.951 111.335 162.866 110.968 162.868 110.596L162.778 105.766C162.759 105.162 162.965 104.569 163.364 104.083L163.351 103.377L163.31 101.229L161.077 100.443L161.063 99.7115L163.289 99.9743L163.051 87.1394C162.633 86.6654 162.404 86.0786 162.399 85.4729L162.183 73.6694C162.159 73.0002 162.415 72.3475 162.901 71.8416C163.11 70.4087 163.686 68.2221 165.293 68.0493L174.995 67.928L184.699 67.8067C186.308 67.9325 186.967 70.1113 187.228 71.5359C187.733 72.0283 188.015 72.6744 188.016 73.3456L188.239 85.1493C188.258 85.7537 188.052 86.3463 187.653 86.8317L187.893 99.7499L189.918 99.4627L189.932 100.194L187.914 100.959L187.953 103.066L187.98 103.784C188.388 104.257 188.612 104.838 188.616 105.437L188.706 110.268C188.721 110.876 188.508 111.472 188.101 111.958C187.779 113.811 186.982 116.21 185.001 116.935C182.823 117.429 180.601 117.748 178.36 117.887L177.435 117.899L177.434 117.913Z" fill="white"/>
</g>
<path d="M170.547 72.2623C168.831 72.2623 167.439 71.5347 167.439 70.6372C167.439 69.7397 168.831 69.0122 170.547 69.0122L179.87 69.0122C181.587 69.0122 182.978 69.7397 182.978 70.6372C182.978 71.5347 181.587 72.2623 179.87 72.2623L170.547 72.2623Z" fill="#333333"/>
<path d="M166.809 72.2632C165.815 72.2632 165.01 71.5356 165.01 70.6381C165.01 69.7406 165.815 69.0131 166.809 69.0131L170.407 69.0131C171.401 69.0131 172.206 69.7406 172.206 70.6381C172.206 71.5356 171.401 72.2632 170.407 72.2632L166.809 72.2632Z" fill="#333333"/>
<path d="M172.57 118.035C172.074 118.035 171.671 117.671 171.671 117.222C171.671 116.773 172.074 116.409 172.57 116.409L179.767 116.409C180.264 116.409 180.667 116.773 180.667 117.222C180.667 117.671 180.264 118.035 179.767 118.035L172.57 118.035Z" fill="#333333"/>
<path d="M179.402 72.2628C178.408 72.2628 177.603 71.5353 177.603 70.6378C177.603 69.7403 178.408 69.0127 179.402 69.0127L183 69.0127C183.994 69.0127 184.799 69.7403 184.799 70.6378C184.799 71.5353 183.994 72.2628 183 72.2628L179.402 72.2628Z" fill="#333333"/>
<path d="M176.502 105.318L176.503 105.305C179.013 105.353 181.508 104.999 183.872 104.259C184.43 104.11 184.947 103.857 185.387 103.515C185.828 103.173 186.183 102.75 186.429 102.274L186.43 102.248C186.473 102.141 186.504 102.031 186.525 101.92C186.577 101.682 186.569 101.436 186.502 101.201L183.488 93.7762C182.706 94.7791 177.594 95.0739 175.661 95.1522C173.729 95.0533 168.615 94.7215 167.808 93.7119L164.937 101.109C164.875 101.344 164.873 101.59 164.929 101.827C164.952 101.94 164.985 102.05 165.028 102.158L165.032 102.184C165.288 102.662 165.652 103.088 166.1 103.434C166.547 103.779 167.069 104.038 167.631 104.192C170.008 104.949 172.509 105.323 175.02 105.296L175.02 105.309C175.27 105.31 175.515 105.311 175.756 105.311C175.998 105.31 176.243 105.314 176.493 105.314L176.502 105.318Z" fill="#333333"/>
<path d="M167.228 82.6973L177.341 82.7927L183.455 82.8571L183.839 82.8609C185.899 81.4752 185.989 78.085 185.786 75.8339L165.078 75.632C164.902 77.8796 165.018 81.2717 167.093 82.6961L167.228 82.6973Z" fill="#333333"/>
<path d="M163.21 82.3257C162.992 88.5513 163.042 92.0423 163.21 98.2674C163.21 98.2674 166.809 91.3919 166.809 89.5263C166.809 87.6608 163.21 80.4521 163.21 82.3257Z" fill="#333333"/>
<path d="M187.76 82.7516C187.828 89.4098 188.462 99.1516 187.76 98.2652C187.76 98.2652 184.8 91.1617 184.8 89.2961C184.8 87.4306 187.76 80.878 187.76 82.7516Z" fill="#333333"/>
<g filter="url(#filter13_d_4319_14547)">
<path d="M314.188 118.132L310.786 118.178L310.49 118.182C308.244 118.099 306.01 117.836 303.816 117.397C301.911 116.754 301.013 114.578 300.595 112.781C300.287 112.535 300.041 112.232 299.873 111.893C299.705 111.554 299.62 111.187 299.622 110.815L299.532 105.985C299.513 105.38 299.719 104.788 300.118 104.302L300.105 103.596L300.064 101.448L297.831 100.661L297.817 99.9303L300.043 100.193L299.805 87.3582C299.387 86.8842 299.158 86.2975 299.153 85.6918L298.936 73.8883C298.913 73.219 299.169 72.5663 299.655 72.0604C299.864 70.6276 300.44 68.441 302.047 68.2682L311.748 68.1468L321.453 68.0256C323.062 68.1513 323.721 70.3301 323.982 71.7547C324.487 72.2472 324.768 72.8932 324.77 73.5645L324.992 85.3682C325.012 85.9725 324.806 86.5652 324.407 87.0506L324.647 99.9688L326.672 99.6816L326.686 100.413L324.668 101.178L324.706 103.285L324.734 104.003C325.142 104.476 325.365 105.057 325.37 105.656L325.459 110.487C325.475 111.095 325.262 111.691 324.855 112.176C324.533 114.029 323.736 116.429 321.755 117.154C319.577 117.648 317.354 117.967 315.114 118.106L314.189 118.118L314.188 118.132Z" fill="black"/>
</g>
<g filter="url(#filter14_d_4319_14547)">
<path d="M314.188 118.132L310.786 118.178L310.49 118.182C308.244 118.099 306.01 117.836 303.816 117.397C301.911 116.754 301.013 114.578 300.595 112.781C300.287 112.535 300.041 112.232 299.873 111.893C299.705 111.554 299.62 111.187 299.622 110.815L299.532 105.985C299.513 105.38 299.719 104.788 300.118 104.302L300.105 103.596L300.064 101.448L297.831 100.661L297.817 99.9303L300.043 100.193L299.805 87.3582C299.387 86.8842 299.158 86.2975 299.153 85.6918L298.936 73.8883C298.913 73.219 299.169 72.5663 299.655 72.0604C299.864 70.6276 300.44 68.441 302.047 68.2682L311.748 68.1468L321.453 68.0256C323.062 68.1513 323.721 70.3301 323.982 71.7547C324.487 72.2472 324.768 72.8932 324.77 73.5645L324.992 85.3682C325.012 85.9725 324.806 86.5652 324.407 87.0506L324.647 99.9688L326.672 99.6816L326.686 100.413L324.668 101.178L324.706 103.285L324.734 104.003C325.142 104.476 325.365 105.057 325.37 105.656L325.459 110.487C325.475 111.095 325.262 111.691 324.855 112.176C324.533 114.029 323.736 116.429 321.755 117.154C319.577 117.648 317.354 117.967 315.114 118.106L314.189 118.118L314.188 118.132Z" fill="black"/>
</g>
<path d="M307.302 72.4812C305.586 72.4812 304.194 71.7536 304.194 70.8562C304.194 69.9587 305.586 69.2311 307.302 69.2311L316.625 69.2311C318.342 69.2311 319.733 69.9587 319.733 70.8562C319.733 71.7536 318.342 72.4812 316.625 72.4812L307.302 72.4812Z" fill="#333333"/>
<path d="M303.563 72.4822C302.569 72.4822 301.764 71.7547 301.764 70.8572C301.764 69.9597 302.569 69.2321 303.563 69.2321L307.161 69.2321C308.155 69.2321 308.96 69.9597 308.96 70.8572C308.96 71.7547 308.155 72.4822 307.161 72.4822L303.563 72.4822Z" fill="#333333"/>
<path d="M309.321 118.253C308.825 118.253 308.422 117.89 308.422 117.441C308.422 116.992 308.825 116.628 309.321 116.628L316.518 116.628C317.015 116.628 317.418 116.992 317.418 117.441C317.418 117.89 317.015 118.253 316.518 118.253L309.321 118.253Z" fill="#333333"/>
<path d="M316.157 72.4818C315.163 72.4818 314.357 71.7542 314.357 70.8567C314.357 69.9592 315.163 69.2317 316.157 69.2317L319.755 69.2317C320.749 69.2317 321.554 69.9592 321.554 70.8567C321.554 71.7542 320.749 72.4818 319.755 72.4818L316.157 72.4818Z" fill="#333333"/>
<path d="M313.253 105.537L313.254 105.524C315.764 105.572 318.259 105.218 320.623 104.478C321.181 104.329 321.698 104.076 322.138 103.734C322.579 103.392 322.934 102.969 323.18 102.493L323.181 102.467C323.223 102.36 323.255 102.25 323.276 102.139C323.328 101.901 323.32 101.655 323.253 101.42L320.239 93.9952C319.457 94.9982 314.345 95.2929 312.411 95.3713C310.48 95.2723 305.366 94.9405 304.559 93.931L301.688 101.328C301.626 101.563 301.624 101.809 301.68 102.046C301.703 102.159 301.736 102.269 301.779 102.377L301.783 102.403C302.039 102.881 302.403 103.307 302.851 103.653C303.298 103.998 303.82 104.257 304.382 104.411C306.759 105.168 309.26 105.542 311.771 105.515L311.771 105.528C312.021 105.529 312.266 105.53 312.507 105.53C312.749 105.529 312.994 105.533 313.244 105.533L313.253 105.537Z" fill="#333333"/>
<path d="M303.983 82.9163L314.096 83.0117L320.21 83.0761L320.594 83.0799C322.654 81.6942 322.743 78.304 322.541 76.0529L301.833 75.8511C301.657 78.0987 301.773 81.4908 303.848 82.9152L303.983 82.9163Z" fill="#333333"/>
<path d="M299.961 82.5448C299.743 88.7703 299.793 92.2614 299.961 98.4865C299.961 98.4865 303.56 91.6109 303.56 89.7454C303.56 87.8798 299.961 80.6711 299.961 82.5448Z" fill="#333333"/>
<path d="M324.511 82.9707C324.579 89.6288 325.213 99.3706 324.511 98.4843C324.511 98.4843 321.551 91.3807 321.551 89.5152C321.551 87.6496 324.511 81.097 324.511 82.9707Z" fill="#333333"/>
<g filter="url(#filter15_d_4319_14547)">
<path d="M403.821 118.132L400.419 118.178L400.123 118.182C397.877 118.099 395.643 117.836 393.448 117.397C391.544 116.754 390.646 114.578 390.228 112.781C389.92 112.535 389.674 112.232 389.506 111.893C389.338 111.554 389.252 111.186 389.255 110.815L389.165 105.985C389.146 105.38 389.352 104.788 389.751 104.302L389.737 103.596L389.697 101.448L387.464 100.661L387.45 99.9302L389.676 100.193L389.438 87.3581C389.02 86.8841 388.791 86.2974 388.786 85.6917L388.569 73.8882C388.545 73.2189 388.802 72.5662 389.288 72.0603C389.496 70.6275 390.073 68.4409 391.68 68.2681L401.381 68.1467L411.086 68.0255C412.695 68.1512 413.354 70.33 413.615 71.7546C414.12 72.2471 414.401 72.8931 414.403 73.5644L414.625 85.3681C414.645 85.9724 414.438 86.5651 414.039 87.0505L414.279 99.9687L416.305 99.6815L416.319 100.413L414.3 101.178L414.339 103.285L414.367 104.003C414.775 104.476 414.998 105.057 415.003 105.656L415.092 110.486C415.108 111.095 414.895 111.691 414.488 112.176C414.166 114.029 413.369 116.428 411.388 117.154C409.21 117.648 406.987 117.966 404.747 118.105L403.822 118.118L403.821 118.132Z" fill="#C2C5CA"/>
</g>
<g filter="url(#filter16_d_4319_14547)">
<path d="M403.821 118.132L400.419 118.178L400.123 118.182C397.877 118.099 395.643 117.836 393.448 117.397C391.544 116.754 390.646 114.578 390.228 112.781C389.92 112.535 389.674 112.232 389.506 111.893C389.338 111.554 389.252 111.186 389.255 110.815L389.165 105.985C389.146 105.38 389.352 104.788 389.751 104.302L389.737 103.596L389.697 101.448L387.464 100.661L387.45 99.9302L389.676 100.193L389.438 87.3581C389.02 86.8841 388.791 86.2974 388.786 85.6917L388.569 73.8882C388.545 73.2189 388.802 72.5662 389.288 72.0603C389.496 70.6275 390.073 68.4409 391.68 68.2681L401.381 68.1467L411.086 68.0255C412.695 68.1512 413.354 70.33 413.615 71.7546C414.12 72.2471 414.401 72.8931 414.403 73.5644L414.625 85.3681C414.645 85.9724 414.438 86.5651 414.039 87.0505L414.279 99.9687L416.305 99.6815L416.319 100.413L414.3 101.178L414.339 103.285L414.367 104.003C414.775 104.476 414.998 105.057 415.003 105.656L415.092 110.486C415.108 111.095 414.895 111.691 414.488 112.176C414.166 114.029 413.369 116.428 411.388 117.154C409.21 117.648 406.987 117.966 404.747 118.105L403.822 118.118L403.821 118.132Z" fill="#C2C5CA"/>
</g>
<path d="M396.938 72.4826C395.221 72.4826 393.83 71.755 393.83 70.8575C393.83 69.96 395.221 69.2325 396.938 69.2325L406.261 69.2325C407.977 69.2325 409.369 69.96 409.369 70.8575C409.369 71.755 407.977 72.4826 406.261 72.4826L396.938 72.4826Z" fill="#333333"/>
<path d="M393.196 72.4825C392.202 72.4825 391.396 71.7549 391.396 70.8574C391.396 69.9599 392.202 69.2324 393.196 69.2324L396.794 69.2324C397.788 69.2324 398.593 69.9599 398.593 70.8574C398.593 71.7549 397.788 72.4825 396.794 72.4825L393.196 72.4825Z" fill="#333333"/>
<path d="M398.957 118.255C398.46 118.255 398.058 117.891 398.058 117.442C398.058 116.994 398.46 116.63 398.957 116.63L406.154 116.63C406.651 116.63 407.053 116.994 407.053 117.442C407.053 117.891 406.651 118.255 406.154 118.255L398.957 118.255Z" fill="#333333"/>
<path d="M405.788 72.4831C404.795 72.4831 403.989 71.7556 403.989 70.8581C403.989 69.9606 404.795 69.233 405.788 69.233L409.387 69.233C410.38 69.233 411.186 69.9606 411.186 70.8581C411.186 71.7556 410.38 72.4831 409.387 72.4831L405.788 72.4831Z" fill="#333333"/>
<path d="M402.889 105.537L402.889 105.524C405.399 105.572 407.894 105.218 410.259 104.478C410.817 104.329 411.333 104.076 411.774 103.734C412.214 103.392 412.57 102.969 412.816 102.493L412.817 102.468C412.859 102.361 412.891 102.251 412.912 102.139C412.963 101.901 412.956 101.656 412.889 101.42L409.875 93.9955C409.092 94.9984 403.981 95.2931 402.047 95.3715C400.116 95.2726 395.002 94.9407 394.194 93.9312L391.324 101.328C391.262 101.563 391.259 101.809 391.316 102.047C391.339 102.159 391.372 102.27 391.414 102.377L391.419 102.403C391.675 102.882 392.039 103.307 392.487 103.653C392.934 103.999 393.456 104.257 394.018 104.411C396.395 105.168 398.896 105.542 401.407 105.515L401.406 105.528C401.657 105.529 401.902 105.531 402.143 105.53C402.385 105.529 402.629 105.534 402.88 105.534L402.889 105.537Z" fill="#333333"/>
<path d="M393.615 82.9168L403.728 83.0122L409.842 83.0766L410.225 83.0804C412.286 81.6947 412.375 78.3045 412.173 76.0534L391.464 75.8516C391.289 78.0992 391.405 81.4912 393.479 82.9156L393.615 82.9168Z" fill="#333333"/>
<path d="M389.597 82.5453C389.379 88.7708 389.429 92.2618 389.597 98.487C389.597 98.487 393.195 91.6114 393.195 89.7458C393.195 87.8803 389.597 80.6716 389.597 82.5453Z" fill="#333333"/>
<path d="M414.147 82.9709C414.215 89.6291 414.849 99.3709 414.147 98.4845C414.147 98.4845 411.187 91.3809 411.187 89.5154C411.187 87.6498 414.147 81.0972 414.147 82.9709Z" fill="#333333"/>
<g filter="url(#filter17_d_4319_14547)">
<path d="M448.638 118.132L445.237 118.178L444.94 118.182C442.694 118.099 440.461 117.836 438.266 117.397C436.361 116.754 435.464 114.578 435.045 112.781C434.737 112.535 434.491 112.232 434.323 111.893C434.156 111.554 434.07 111.186 434.072 110.815L433.982 105.985C433.963 105.38 434.17 104.788 434.568 104.302L434.555 103.596L434.514 101.448L432.281 100.661L432.267 99.9302L434.493 100.193L434.255 87.3581C433.838 86.8841 433.608 86.2974 433.603 85.6917L433.387 73.8882C433.363 73.2189 433.619 72.5662 434.105 72.0603C434.314 70.6275 434.89 68.4409 436.497 68.2681L446.199 68.1467L455.903 68.0255C457.512 68.1512 458.171 70.33 458.432 71.7546C458.937 72.2471 459.219 72.8931 459.22 73.5644L459.443 85.3681C459.462 85.9724 459.256 86.5651 458.857 87.0505L459.097 99.9687L461.122 99.6815L461.136 100.413L459.118 101.178L459.157 103.285L459.184 104.003C459.592 104.476 459.816 105.057 459.82 105.656L459.91 110.486C459.925 111.095 459.712 111.691 459.305 112.176C458.983 114.029 458.186 116.428 456.206 117.154C454.027 117.648 451.805 117.966 449.564 118.105L448.639 118.118L448.638 118.132Z" fill="white"/>
</g>
<g filter="url(#filter18_d_4319_14547)">
<path d="M448.638 118.132L445.237 118.178L444.94 118.182C442.694 118.099 440.461 117.836 438.266 117.397C436.361 116.754 435.464 114.578 435.045 112.781C434.737 112.535 434.491 112.232 434.323 111.893C434.156 111.554 434.07 111.186 434.072 110.815L433.982 105.985C433.963 105.38 434.17 104.788 434.568 104.302L434.555 103.596L434.514 101.448L432.281 100.661L432.267 99.9302L434.493 100.193L434.255 87.3581C433.838 86.8841 433.608 86.2974 433.603 85.6917L433.387 73.8882C433.363 73.2189 433.619 72.5662 434.105 72.0603C434.314 70.6275 434.89 68.4409 436.497 68.2681L446.199 68.1467L455.903 68.0255C457.512 68.1512 458.171 70.33 458.432 71.7546C458.937 72.2471 459.219 72.8931 459.22 73.5644L459.443 85.3681C459.462 85.9724 459.256 86.5651 458.857 87.0505L459.097 99.9687L461.122 99.6815L461.136 100.413L459.118 101.178L459.157 103.285L459.184 104.003C459.592 104.476 459.816 105.057 459.82 105.656L459.91 110.486C459.925 111.095 459.712 111.691 459.305 112.176C458.983 114.029 458.186 116.428 456.206 117.154C454.027 117.648 451.805 117.966 449.564 118.105L448.639 118.118L448.638 118.132Z" fill="white"/>
</g>
<path d="M441.752 72.4811C440.036 72.4811 438.645 71.7536 438.645 70.8561C438.645 69.9586 440.036 69.231 441.752 69.231L451.076 69.231C452.792 69.231 454.183 69.9586 454.183 70.8561C454.183 71.7536 452.792 72.4811 451.076 72.4811L441.752 72.4811Z" fill="#333333"/>
<path d="M438.014 72.4821C437.02 72.4821 436.215 71.7546 436.215 70.8571C436.215 69.9596 437.02 69.232 438.014 69.232L441.612 69.232C442.606 69.232 443.411 69.9596 443.411 70.8571C443.411 71.7546 442.606 72.4821 441.612 72.4821L438.014 72.4821Z" fill="#333333"/>
<path d="M443.776 118.253C443.279 118.253 442.876 117.89 442.876 117.441C442.876 116.992 443.279 116.628 443.776 116.628L450.972 116.628C451.469 116.628 451.872 116.992 451.872 117.441C451.872 117.89 451.469 118.253 450.972 118.253L443.776 118.253Z" fill="#333333"/>
<path d="M450.604 72.4817C449.61 72.4817 448.805 71.7541 448.805 70.8566C448.805 69.9591 449.61 69.2316 450.604 69.2316L454.202 69.2316C455.196 69.2316 456.001 69.9591 456.001 70.8566C456.001 71.7541 455.196 72.4817 454.202 72.4817L450.604 72.4817Z" fill="#333333"/>
<path d="M447.707 105.537L447.708 105.524C450.218 105.572 452.713 105.217 455.077 104.478C455.635 104.329 456.152 104.075 456.592 103.734C457.033 103.392 457.388 102.969 457.634 102.493L457.636 102.467C457.678 102.36 457.709 102.25 457.73 102.138C457.782 101.901 457.774 101.655 457.707 101.42L454.693 93.9951C453.911 94.9981 448.799 95.2928 446.866 95.3712C444.934 95.2722 439.82 94.9404 439.013 93.9309L436.142 101.327C436.08 101.563 436.078 101.809 436.134 102.046C436.157 102.159 436.19 102.269 436.233 102.377L436.237 102.403C436.493 102.881 436.857 103.307 437.305 103.653C437.753 103.998 438.274 104.257 438.836 104.411C441.213 105.168 443.714 105.542 446.225 105.515L446.225 105.528C446.475 105.529 446.72 105.53 446.961 105.53C447.203 105.529 447.448 105.533 447.698 105.533L447.707 105.537Z" fill="#333333"/>
<path d="M438.433 82.9162L448.546 83.0116L454.66 83.076L455.044 83.0798C457.104 81.6941 457.194 78.3039 456.991 76.0528L436.283 75.851C436.107 78.0986 436.223 81.4907 438.298 82.9151L438.433 82.9162Z" fill="#333333"/>
<path d="M434.411 82.5447C434.193 88.7702 434.243 92.2613 434.411 98.4864C434.411 98.4864 438.01 91.6108 438.01 89.7453C438.01 87.8797 434.411 80.671 434.411 82.5447Z" fill="#333333"/>
<path d="M458.962 82.9706C459.03 89.6287 459.664 99.3705 458.962 98.4842C458.962 98.4842 456.002 91.3806 456.002 89.5151C456.002 87.6495 458.962 81.0969 458.962 82.9706Z" fill="#333333"/>
</g>
</g>
<defs>
<filter id="filter0_f_4319_14547" x="-1299.73" y="-773.73" width="2864.84" height="1491.28" filterUnits="userSpaceOnUse" color-interpolation-filters="sRGB">
<feFlood flood-opacity="0" result="BackgroundImageFix"/>
<feBlend mode="normal" in="SourceGraphic" in2="BackgroundImageFix" result="shape"/>
<feGaussianBlur stdDeviation="113.365" result="effect1_foregroundBlur_4319_14547"/>
</filter>
<filter id="filter1_d_4319_14547" x="-24.5172" y="66.0198" width="36.8919" height="58.1794" filterUnits="userSpaceOnUse" color-interpolation-filters="sRGB">
<feFlood flood-opacity="0" result="BackgroundImageFix"/>
<feColorMatrix in="SourceAlpha" type="matrix" values="0 0 0 0 0 0 0 0 0 0 0 0 0 0 0 0 0 0 127 0" result="hardAlpha"/>
<feOffset dy="2.00569"/>
<feGaussianBlur stdDeviation="2.00569"/>
<feColorMatrix type="matrix" values="0 0 0 0 0 0 0 0 0 0 0 0 0 0 0 0 0 0 0.2 0"/>
<feBlend mode="normal" in2="BackgroundImageFix" result="effect1_dropShadow_4319_14547"/>
<feBlend mode="normal" in="SourceGraphic" in2="effect1_dropShadow_4319_14547" result="shape"/>
</filter>
<filter id="filter2_d_4319_14547" x="-24.5172" y="66.0198" width="36.8919" height="58.1794" filterUnits="userSpaceOnUse" color-interpolation-filters="sRGB">
<feFlood flood-opacity="0" result="BackgroundImageFix"/>
<feColorMatrix in="SourceAlpha" type="matrix" values="0 0 0 0 0 0 0 0 0 0 0 0 0 0 0 0 0 0 127 0" result="hardAlpha"/>
<feOffset dy="2.00569"/>
<feGaussianBlur stdDeviation="2.00569"/>
<feColorMatrix type="matrix" values="0 0 0 0 0 0 0 0 0 0 0 0 0 0 0 0 0 0 0.2 0"/>
<feBlend mode="normal" in2="BackgroundImageFix" result="effect1_dropShadow_4319_14547"/>
<feBlend mode="normal" in="SourceGraphic" in2="effect1_dropShadow_4319_14547" result="shape"/>
</filter>
<filter id="filter3_d_4319_14547" x="21.4574" y="66.0213" width="36.8919" height="58.1794" filterUnits="userSpaceOnUse" color-interpolation-filters="sRGB">
<feFlood flood-opacity="0" result="BackgroundImageFix"/>
<feColorMatrix in="SourceAlpha" type="matrix" values="0 0 0 0 0 0 0 0 0 0 0 0 0 0 0 0 0 0 127 0" result="hardAlpha"/>
<feOffset dy="2.00569"/>
<feGaussianBlur stdDeviation="2.00569"/>
<feColorMatrix type="matrix" values="0 0 0 0 0 0 0 0 0 0 0 0 0 0 0 0 0 0 0.2 0"/>
<feBlend mode="normal" in2="BackgroundImageFix" result="effect1_dropShadow_4319_14547"/>
<feBlend mode="normal" in="SourceGraphic" in2="effect1_dropShadow_4319_14547" result="shape"/>
</filter>
<filter id="filter4_d_4319_14547" x="21.4574" y="66.0213" width="36.8919" height="58.1794" filterUnits="userSpaceOnUse" color-interpolation-filters="sRGB">
<feFlood flood-opacity="0" result="BackgroundImageFix"/>
<feColorMatrix in="SourceAlpha" type="matrix" values="0 0 0 0 0 0 0 0 0 0 0 0 0 0 0 0 0 0 127 0" result="hardAlpha"/>
<feOffset dy="2.00569"/>
<feGaussianBlur stdDeviation="2.00569"/>
<feColorMatrix type="matrix" values="0 0 0 0 0 0 0 0 0 0 0 0 0 0 0 0 0 0 0.2 0"/>
<feBlend mode="normal" in2="BackgroundImageFix" result="effect1_dropShadow_4319_14547"/>
<feBlend mode="normal" in="SourceGraphic" in2="effect1_dropShadow_4319_14547" result="shape"/>
</filter>
<filter id="filter5_d_4319_14547" x="67.4193" y="66.0198" width="36.8919" height="58.1794" filterUnits="userSpaceOnUse" color-interpolation-filters="sRGB">
<feFlood flood-opacity="0" result="BackgroundImageFix"/>
<feColorMatrix in="SourceAlpha" type="matrix" values="0 0 0 0 0 0 0 0 0 0 0 0 0 0 0 0 0 0 127 0" result="hardAlpha"/>
<feOffset dy="2.00569"/>
<feGaussianBlur stdDeviation="2.00569"/>
<feColorMatrix type="matrix" values="0 0 0 0 0 0 0 0 0 0 0 0 0 0 0 0 0 0 0.2 0"/>
<feBlend mode="normal" in2="BackgroundImageFix" result="effect1_dropShadow_4319_14547"/>
<feBlend mode="normal" in="SourceGraphic" in2="effect1_dropShadow_4319_14547" result="shape"/>
</filter>
<filter id="filter6_d_4319_14547" x="67.4193" y="66.0198" width="36.8919" height="58.1794" filterUnits="userSpaceOnUse" color-interpolation-filters="sRGB">
<feFlood flood-opacity="0" result="BackgroundImageFix"/>
<feColorMatrix in="SourceAlpha" type="matrix" values="0 0 0 0 0 0 0 0 0 0 0 0 0 0 0 0 0 0 127 0" result="hardAlpha"/>
<feOffset dy="2.00569"/>
<feGaussianBlur stdDeviation="2.00569"/>
<feColorMatrix type="matrix" values="0 0 0 0 0 0 0 0 0 0 0 0 0 0 0 0 0 0 0.2 0"/>
<feBlend mode="normal" in2="BackgroundImageFix" result="effect1_dropShadow_4319_14547"/>
<feBlend mode="normal" in="SourceGraphic" in2="effect1_dropShadow_4319_14547" result="shape"/>
</filter>
<filter id="filter7_d_4319_14547" x="203.017" y="65.8012" width="36.8919" height="58.1794" filterUnits="userSpaceOnUse" color-interpolation-filters="sRGB">
<feFlood flood-opacity="0" result="BackgroundImageFix"/>
<feColorMatrix in="SourceAlpha" type="matrix" values="0 0 0 0 0 0 0 0 0 0 0 0 0 0 0 0 0 0 127 0" result="hardAlpha"/>
<feOffset dy="2.00569"/>
<feGaussianBlur stdDeviation="2.00569"/>
<feColorMatrix type="matrix" values="0 0 0 0 0 0 0 0 0 0 0 0 0 0 0 0 0 0 0.2 0"/>
<feBlend mode="normal" in2="BackgroundImageFix" result="effect1_dropShadow_4319_14547"/>
<feBlend mode="normal" in="SourceGraphic" in2="effect1_dropShadow_4319_14547" result="shape"/>
</filter>
<filter id="filter8_d_4319_14547" x="203.017" y="65.8012" width="36.8919" height="58.1794" filterUnits="userSpaceOnUse" color-interpolation-filters="sRGB">
<feFlood flood-opacity="0" result="BackgroundImageFix"/>
<feColorMatrix in="SourceAlpha" type="matrix" values="0 0 0 0 0 0 0 0 0 0 0 0 0 0 0 0 0 0 127 0" result="hardAlpha"/>
<feOffset dy="2.00569"/>
<feGaussianBlur stdDeviation="2.00569"/>
<feColorMatrix type="matrix" values="0 0 0 0 0 0 0 0 0 0 0 0 0 0 0 0 0 0 0.2 0"/>
<feBlend mode="normal" in2="BackgroundImageFix" result="effect1_dropShadow_4319_14547"/>
<feBlend mode="normal" in="SourceGraphic" in2="effect1_dropShadow_4319_14547" result="shape"/>
</filter>
<filter id="filter9_d_4319_14547" x="208.946" y="152.969" width="53.845" height="58.9356" filterUnits="userSpaceOnUse" color-interpolation-filters="sRGB">
<feFlood flood-opacity="0" result="BackgroundImageFix"/>
<feColorMatrix in="SourceAlpha" type="matrix" values="0 0 0 0 0 0 0 0 0 0 0 0 0 0 0 0 0 0 127 0" result="hardAlpha"/>
<feOffset dy="2.00569"/>
<feGaussianBlur stdDeviation="2.00569"/>
<feColorMatrix type="matrix" values="0 0 0 0 0 0 0 0 0 0 0 0 0 0 0 0 0 0 0.2 0"/>
<feBlend mode="normal" in2="BackgroundImageFix" result="effect1_dropShadow_4319_14547"/>
<feBlend mode="normal" in="SourceGraphic" in2="effect1_dropShadow_4319_14547" result="shape"/>
</filter>
<filter id="filter10_d_4319_14547" x="208.946" y="152.969" width="53.845" height="58.9356" filterUnits="userSpaceOnUse" color-interpolation-filters="sRGB">
<feFlood flood-opacity="0" result="BackgroundImageFix"/>
<feColorMatrix in="SourceAlpha" type="matrix" values="0 0 0 0 0 0 0 0 0 0 0 0 0 0 0 0 0 0 127 0" result="hardAlpha"/>
<feOffset dy="2.00569"/>
<feGaussianBlur stdDeviation="2.00569"/>
<feColorMatrix type="matrix" values="0 0 0 0 0 0 0 0 0 0 0 0 0 0 0 0 0 0 0.2 0"/>
<feBlend mode="normal" in2="BackgroundImageFix" result="effect1_dropShadow_4319_14547"/>
<feBlend mode="normal" in="SourceGraphic" in2="effect1_dropShadow_4319_14547" result="shape"/>
</filter>
<filter id="filter11_d_4319_14547" x="157.052" y="65.8011" width="36.8919" height="58.1794" filterUnits="userSpaceOnUse" color-interpolation-filters="sRGB">
<feFlood flood-opacity="0" result="BackgroundImageFix"/>
<feColorMatrix in="SourceAlpha" type="matrix" values="0 0 0 0 0 0 0 0 0 0 0 0 0 0 0 0 0 0 127 0" result="hardAlpha"/>
<feOffset dy="2.00569"/>
<feGaussianBlur stdDeviation="2.00569"/>
<feColorMatrix type="matrix" values="0 0 0 0 0 0 0 0 0 0 0 0 0 0 0 0 0 0 0.2 0"/>
<feBlend mode="normal" in2="BackgroundImageFix" result="effect1_dropShadow_4319_14547"/>
<feBlend mode="normal" in="SourceGraphic" in2="effect1_dropShadow_4319_14547" result="shape"/>
</filter>
<filter id="filter12_d_4319_14547" x="157.052" y="65.8011" width="36.8919" height="58.1794" filterUnits="userSpaceOnUse" color-interpolation-filters="sRGB">
<feFlood flood-opacity="0" result="BackgroundImageFix"/>
<feColorMatrix in="SourceAlpha" type="matrix" values="0 0 0 0 0 0 0 0 0 0 0 0 0 0 0 0 0 0 127 0" result="hardAlpha"/>
<feOffset dy="2.00569"/>
<feGaussianBlur stdDeviation="2.00569"/>
<feColorMatrix type="matrix" values="0 0 0 0 0 0 0 0 0 0 0 0 0 0 0 0 0 0 0.2 0"/>
<feBlend mode="normal" in2="BackgroundImageFix" result="effect1_dropShadow_4319_14547"/>
<feBlend mode="normal" in="SourceGraphic" in2="effect1_dropShadow_4319_14547" result="shape"/>
</filter>
<filter id="filter13_d_4319_14547" x="293.806" y="66.0199" width="36.8919" height="58.1794" filterUnits="userSpaceOnUse" color-interpolation-filters="sRGB">
<feFlood flood-opacity="0" result="BackgroundImageFix"/>
<feColorMatrix in="SourceAlpha" type="matrix" values="0 0 0 0 0 0 0 0 0 0 0 0 0 0 0 0 0 0 127 0" result="hardAlpha"/>
<feOffset dy="2.00569"/>
<feGaussianBlur stdDeviation="2.00569"/>
<feColorMatrix type="matrix" values="0 0 0 0 0 0 0 0 0 0 0 0 0 0 0 0 0 0 0.2 0"/>
<feBlend mode="normal" in2="BackgroundImageFix" result="effect1_dropShadow_4319_14547"/>
<feBlend mode="normal" in="SourceGraphic" in2="effect1_dropShadow_4319_14547" result="shape"/>
</filter>
<filter id="filter14_d_4319_14547" x="293.806" y="66.0199" width="36.8919" height="58.1794" filterUnits="userSpaceOnUse" color-interpolation-filters="sRGB">
<feFlood flood-opacity="0" result="BackgroundImageFix"/>
<feColorMatrix in="SourceAlpha" type="matrix" values="0 0 0 0 0 0 0 0 0 0 0 0 0 0 0 0 0 0 127 0" result="hardAlpha"/>
<feOffset dy="2.00569"/>
<feGaussianBlur stdDeviation="2.00569"/>
<feColorMatrix type="matrix" values="0 0 0 0 0 0 0 0 0 0 0 0 0 0 0 0 0 0 0.2 0"/>
<feBlend mode="normal" in2="BackgroundImageFix" result="effect1_dropShadow_4319_14547"/>
<feBlend mode="normal" in="SourceGraphic" in2="effect1_dropShadow_4319_14547" result="shape"/>
</filter>
<filter id="filter15_d_4319_14547" x="383.439" y="66.0198" width="36.8919" height="58.1794" filterUnits="userSpaceOnUse" color-interpolation-filters="sRGB">
<feFlood flood-opacity="0" result="BackgroundImageFix"/>
<feColorMatrix in="SourceAlpha" type="matrix" values="0 0 0 0 0 0 0 0 0 0 0 0 0 0 0 0 0 0 127 0" result="hardAlpha"/>
<feOffset dy="2.00569"/>
<feGaussianBlur stdDeviation="2.00569"/>
<feColorMatrix type="matrix" values="0 0 0 0 0 0 0 0 0 0 0 0 0 0 0 0 0 0 0.2 0"/>
<feBlend mode="normal" in2="BackgroundImageFix" result="effect1_dropShadow_4319_14547"/>
<feBlend mode="normal" in="SourceGraphic" in2="effect1_dropShadow_4319_14547" result="shape"/>
</filter>
<filter id="filter16_d_4319_14547" x="383.439" y="66.0198" width="36.8919" height="58.1794" filterUnits="userSpaceOnUse" color-interpolation-filters="sRGB">
<feFlood flood-opacity="0" result="BackgroundImageFix"/>
<feColorMatrix in="SourceAlpha" type="matrix" values="0 0 0 0 0 0 0 0 0 0 0 0 0 0 0 0 0 0 127 0" result="hardAlpha"/>
<feOffset dy="2.00569"/>
<feGaussianBlur stdDeviation="2.00569"/>
<feColorMatrix type="matrix" values="0 0 0 0 0 0 0 0 0 0 0 0 0 0 0 0 0 0 0.2 0"/>
<feBlend mode="normal" in2="BackgroundImageFix" result="effect1_dropShadow_4319_14547"/>
<feBlend mode="normal" in="SourceGraphic" in2="effect1_dropShadow_4319_14547" result="shape"/>
</filter>
<filter id="filter17_d_4319_14547" x="428.256" y="66.0198" width="36.8919" height="58.1794" filterUnits="userSpaceOnUse" color-interpolation-filters="sRGB">
<feFlood flood-opacity="0" result="BackgroundImageFix"/>
<feColorMatrix in="SourceAlpha" type="matrix" values="0 0 0 0 0 0 0 0 0 0 0 0 0 0 0 0 0 0 127 0" result="hardAlpha"/>
<feOffset dy="2.00569"/>
<feGaussianBlur stdDeviation="2.00569"/>
<feColorMatrix type="matrix" values="0 0 0 0 0 0 0 0 0 0 0 0 0 0 0 0 0 0 0.2 0"/>
<feBlend mode="normal" in2="BackgroundImageFix" result="effect1_dropShadow_4319_14547"/>
<feBlend mode="normal" in="SourceGraphic" in2="effect1_dropShadow_4319_14547" result="shape"/>
</filter>
<filter id="filter18_d_4319_14547" x="428.256" y="66.0198" width="36.8919" height="58.1794" filterUnits="userSpaceOnUse" color-interpolation-filters="sRGB">
<feFlood flood-opacity="0" result="BackgroundImageFix"/>
<feColorMatrix in="SourceAlpha" type="matrix" values="0 0 0 0 0 0 0 0 0 0 0 0 0 0 0 0 0 0 127 0" result="hardAlpha"/>
<feOffset dy="2.00569"/>
<feGaussianBlur stdDeviation="2.00569"/>
<feColorMatrix type="matrix" values="0 0 0 0 0 0 0 0 0 0 0 0 0 0 0 0 0 0 0.2 0"/>
<feBlend mode="normal" in2="BackgroundImageFix" result="effect1_dropShadow_4319_14547"/>
<feBlend mode="normal" in="SourceGraphic" in2="effect1_dropShadow_4319_14547" result="shape"/>
</filter>
<radialGradient id="paint0_angular_4319_14547" cx="0" cy="0" r="1" gradientUnits="userSpaceOnUse" gradientTransform="translate(562.457 194.198) rotate(-67.3249) scale(553.057 953.93)">
<stop offset="0.0944448" stop-color="#5B67EC"/>
<stop offset="0.438386" stop-color="#70E6FB"/>
<stop offset="0.64588" stop-color="#5B67EC"/>
<stop offset="0.855691" stop-color="#70E6FB"/>
</radialGradient>
<linearGradient id="paint1_linear_4319_14547" x1="239.875" y1="-86.881" x2="235.785" y2="163.464" gradientUnits="userSpaceOnUse">
<stop stop-color="white"/>
<stop offset="1" stop-color="white" stop-opacity="0"/>
</linearGradient>
<linearGradient id="paint2_linear_4319_14547" x1="-191.911" y1="-493.389" x2="-245.975" y2="-491.988" gradientUnits="userSpaceOnUse">
<stop stop-color="#DADADA"/>
<stop offset="1" stop-color="white"/>
</linearGradient>
<linearGradient id="paint3_linear_4319_14547" x1="-192.259" y1="-563.875" x2="-237.322" y2="-562.902" gradientUnits="userSpaceOnUse">
<stop stop-color="#DADADA"/>
<stop offset="1" stop-color="white"/>
</linearGradient>
<linearGradient id="paint4_linear_4319_14547" x1="62.8153" y1="5.6393" x2="13.448" y2="20.9249" gradientUnits="userSpaceOnUse">
<stop stop-color="#DADADA"/>
<stop offset="1" stop-color="white"/>
</linearGradient>
<linearGradient id="paint5_linear_4319_14547" x1="108.178" y1="5.6393" x2="58.8103" y2="20.9249" gradientUnits="userSpaceOnUse">
<stop stop-color="#DADADA"/>
<stop offset="1" stop-color="white"/>
</linearGradient>
<linearGradient id="paint6_linear_4319_14547" x1="152.842" y1="5.6393" x2="103.474" y2="20.9249" gradientUnits="userSpaceOnUse">
<stop stop-color="#DADADA"/>
<stop offset="1" stop-color="white"/>
</linearGradient>
<linearGradient id="paint7_linear_4319_14547" x1="198.204" y1="5.6393" x2="148.837" y2="20.9249" gradientUnits="userSpaceOnUse">
<stop stop-color="#DADADA"/>
<stop offset="1" stop-color="white"/>
</linearGradient>
<linearGradient id="paint8_linear_4319_14547" x1="17.453" y1="5.6393" x2="-31.9143" y2="20.9249" gradientUnits="userSpaceOnUse">
<stop stop-color="#DADADA"/>
<stop offset="1" stop-color="white"/>
</linearGradient>
<linearGradient id="paint9_linear_4319_14547" x1="469.68" y1="5.6393" x2="420.312" y2="20.9249" gradientUnits="userSpaceOnUse">
<stop stop-color="#DADADA"/>
<stop offset="1" stop-color="white"/>
</linearGradient>
<linearGradient id="paint10_linear_4319_14547" x1="424.317" y1="5.6393" x2="374.95" y2="20.9249" gradientUnits="userSpaceOnUse">
<stop stop-color="#DADADA"/>
<stop offset="1" stop-color="white"/>
</linearGradient>
<linearGradient id="paint11_linear_4319_14547" x1="378.956" y1="5.6393" x2="329.589" y2="20.9249" gradientUnits="userSpaceOnUse">
<stop stop-color="#DADADA"/>
<stop offset="1" stop-color="white"/>
</linearGradient>
<linearGradient id="paint12_linear_4319_14547" x1="334.291" y1="5.6393" x2="284.924" y2="20.9249" gradientUnits="userSpaceOnUse">
<stop stop-color="#DADADA"/>
<stop offset="1" stop-color="white"/>
</linearGradient>
<linearGradient id="paint13_linear_4319_14547" x1="288.929" y1="5.6393" x2="239.561" y2="20.9249" gradientUnits="userSpaceOnUse">
<stop stop-color="#DADADA"/>
<stop offset="1" stop-color="white"/>
</linearGradient>
<linearGradient id="paint14_linear_4319_14547" x1="243.566" y1="5.6393" x2="194.199" y2="20.9249" gradientUnits="userSpaceOnUse">
<stop stop-color="#DADADA"/>
<stop offset="1" stop-color="white"/>
</linearGradient>
<clipPath id="clip0_4319_14547">
<rect width="480" height="800" fill="white"/>
</clipPath>
</defs>
</svg>
