<svg width="1024" height="1084" viewBox="0 0 1024 1084" fill="none" xmlns="http://www.w3.org/2000/svg">
<g clip-path="url(#clip0_4317_14192)">
<rect width="1024" height="1084" fill="#F2F3F7"/>
<g filter="url(#filter0_f_4317_14192)">
<path d="M1045.19 280.569C1296.59 408.639 1251.22 527.902 1477.5 480C1743.11 344.072 1531.31 259.907 1514.53 155.514C1493.56 25.0231 1612.38 -181.588 1444.63 -284.893C1276.88 -388.199 1265.8 -653.146 1070.09 -500.906C874.374 -348.666 318.651 -326.345 26.1208 -45.5508C-53.4846 30.8611 -902.704 98.9216 -790.868 204.557C-693.012 296.989 161.226 251.902 341.99 226.204L342.152 226.181C570.645 193.698 808.326 159.908 1045.19 280.569Z" fill="url(#paint0_angular_4317_14192)" fill-opacity="0.8"/>
</g>
<path d="M54.45 82.45C54.45 94.35 50.25 103.95 41.85 111.25C33.45 118.65 22.2 122.35 8.1 122.35C-4.3 122.35 -14.7 118.95 -23.1 112.15C-31.5 105.45 -35.7 96.15 -35.7 84.25H-4.2C-3.7 89.45 -2.3 93.25 3.03984e-06 95.65C2.4 97.95 5.6 99.1 9.6 99.1C14.2 99.1 17.85 97.6 20.55 94.6C23.25 91.6 24.6 87.75 24.6 83.05C24.6 78.15 23.55 74.45 21.45 71.95C19.35 69.45 16.7 67.85 13.5 67.15L-0.749996 64C-11.35 61.6 -19.7 57.15 -25.8 50.65C-31.9 44.05 -34.95 36.3 -34.95 27.4C-34.95 16.1 -31.05 6.65 -23.25 -0.950006C-15.35 -8.55 -4.35 -12.35 9.75 -12.35C20.65 -12.35 30.2 -9 38.4 -2.30001C46.7 4.29999 51.1 12.7 51.6 22.9H21.6C20.7 18.6 19.05 15.45 16.65 13.45C14.25 11.45 11.5 10.45 8.4 10.45C4.1 10.45 0.700001 11.85 -1.8 14.65C-4.2 17.45 -5.4 21.25 -5.4 26.05C-5.4 30.05 -4.3 33.3 -2.1 35.8C0.200003 38.3 2.9 39.95 6 40.75L19.95 44.05C30.85 46.75 39.3 51 45.3 56.8C51.4 62.6 54.45 71.15 54.45 82.45ZM131.455 119.95V64.75H99.2051V109.45C99.2051 112.55 98.0051 115.05 95.6051 116.95C93.2051 118.95 90.4051 119.95 87.2051 119.95H68.7551V-9.95001H99.2051V41.5H131.455V-9.95001H161.905V109.45C161.905 112.55 160.705 115.05 158.305 116.95C155.905 118.95 153.105 119.95 149.905 119.95H131.455ZM181.837 -9.95001H212.288V109.45C212.288 112.55 211.088 115.05 208.688 116.95C206.288 118.95 203.488 119.95 200.288 119.95H181.837V-9.95001ZM293.728 30.7C293.728 25.2 292.428 20.95 289.828 17.95C287.228 14.95 284.128 13.45 280.528 13.45H262.828V47.8H280.528C284.228 47.8 287.328 46.35 289.828 43.45C292.428 40.45 293.728 36.2 293.728 30.7ZM232.378 119.95V-9.95001H281.728C297.228 -9.95001 308.178 -5.4 314.578 3.7C321.078 12.7 324.328 21.7 324.328 30.7C324.328 40.7 321.028 50 314.428 58.6C307.828 67.1 296.928 71.35 281.728 71.35H262.828V109.45C262.828 112.55 261.628 115.05 259.228 116.95C256.828 118.95 254.028 119.95 250.828 119.95H232.378ZM426.386 80.2C425.286 91.7 420.536 101.5 412.136 109.6C403.736 117.8 392.786 121.9 379.286 121.9C368.986 121.9 359.636 118.85 351.236 112.75C342.836 106.65 337.336 97.1 334.736 84.1C332.936 74.6 331.986 64.8 331.886 54.7C331.886 44.5 332.836 34.8 334.736 25.6C337.436 12.2 343.336 2.59999 352.436 -3.2C361.536 -9.10001 370.486 -12.05 379.286 -12.05C392.086 -12.05 402.636 -8.40001 410.936 -1.1C419.236 6.2 424.386 16.45 426.386 29.65H395.336C394.936 24.05 393.136 19.6 389.936 16.3C386.836 13 383.536 11.35 380.036 11.35C374.236 11.35 369.886 14.9 366.986 22C364.086 29.1 362.636 40.1 362.636 55C362.636 71.2 364.036 82.5 366.836 88.9C369.636 95.3 374.086 98.5 380.186 98.5C383.186 98.5 386.286 96.95 389.486 93.85C392.686 90.65 394.636 86.1 395.336 80.2H426.386ZM501.328 119.95V64.75H469.078V109.45C469.078 112.55 467.878 115.05 465.478 116.95C463.078 118.95 460.278 119.95 457.078 119.95H438.628V-9.95001H469.078V41.5H501.328V-9.95001H531.778V109.45C531.778 112.55 530.578 115.05 528.178 116.95C525.778 118.95 522.978 119.95 519.778 119.95H501.328ZM618.761 119.95L611.711 96.55H577.361L570.161 119.95H538.811L581.861 -9.95001H607.061L650.261 119.95H618.761ZM595.211 35.95C595.011 36.65 594.711 37.75 594.311 39.25C594.011 40.75 593.761 41.9 593.561 42.7L584.111 74.5H605.561L596.561 42.7C596.361 41.9 596.111 40.75 595.811 39.25C595.611 37.75 595.411 36.65 595.211 35.95ZM723.329 77.05C723.329 91.65 719.379 102.6 711.479 109.9C703.679 117.3 693.729 121 681.629 121C671.429 121 662.679 117.55 655.379 110.65C648.179 103.85 644.429 94.65 644.129 83.05H672.929C673.329 87.95 674.379 91.65 676.079 94.15C677.879 96.55 680.029 97.75 682.529 97.75C685.129 97.75 687.479 96.1 689.579 92.8C691.679 89.5 692.729 83.9 692.729 76V-9.95001H723.329V77.05ZM808.751 119.95L801.701 96.55H767.351L760.151 119.95H728.801L771.851 -9.95001H797.051L840.251 119.95H808.751ZM785.201 35.95C785.001 36.65 784.701 37.75 784.301 39.25C784.001 40.75 783.751 41.9 783.551 42.7L774.101 74.5H795.551L786.551 42.7C786.351 41.9 786.101 40.75 785.801 39.25C785.601 37.75 785.401 36.65 785.201 35.95ZM917.37 119.95L879.27 52.3C879.07 51.8 878.72 50.65 878.22 48.85C877.72 46.95 877.32 45.75 877.02 45.25C877.12 45.95 877.27 47.35 877.47 49.45C877.67 51.45 877.77 52.75 877.77 53.35V109.45C877.77 112.55 876.57 115.05 874.17 116.95C871.77 118.95 868.97 119.95 865.77 119.95H847.32V-9.95001H874.77L912.12 56.2C912.52 56.8 912.97 58 913.47 59.8C913.97 61.5 914.42 62.75 914.82 63.55C914.82 62.75 914.72 61.45 914.52 59.65C914.32 57.85 914.22 56.6 914.22 55.9V-9.95001H944.82V109.45C944.82 112.55 943.62 115.05 941.22 116.95C938.82 118.95 936.02 119.95 932.82 119.95H917.37ZM1004.1 47.8H1056V67.9C1056 86.9 1052 100.65 1044 109.15C1036 117.65 1023.95 121.9 1007.85 121.9C996.25 121.9 986.35 118.25 978.15 110.95C970.05 103.75 964.95 94 962.85 81.7C961.65 74.6 960.9 65.9 960.6 55.6C960.3 45.3 960.8 36.1 962.1 28C964.2 15.1 969.65 5.24999 978.45 -1.55001C987.35 -8.45001 997.25 -11.9 1008.15 -11.9C1020.75 -11.9 1031.65 -7.80001 1040.85 0.399995C1050.15 8.5 1055.15 18.5 1055.85 30.4H1025.25C1024.25 24.4 1022.1 19.75 1018.8 16.45C1015.6 13.15 1012.15 11.5 1008.45 11.5C1004.75 11.5 1001.2 13.4 997.8 17.2C994.4 21 992.3 27 991.5 35.2C991 40.3 990.8 47.05 990.9 55.45C991.1 63.75 991.45 70.15 991.95 74.65C992.75 81.65 994.5 87.4 997.2 91.9C1000 96.3 1003.65 98.5 1008.15 98.5C1013.75 98.5 1018.05 96.5 1021.05 92.5C1024.15 88.5 1025.7 82.65 1025.7 74.95V69.7H1012.8C1009.9 69.7 1007.7 69.05 1006.2 67.75C1004.8 66.45 1004.1 64.35 1004.1 61.45V47.8Z" fill="url(#paint1_linear_4317_14192)"/>
<g opacity="0.3">
<rect x="-700" y="307.004" width="9.3965" height="1982.65" transform="rotate(-90 -700 307.004)" fill="url(#paint2_linear_4317_14192)"/>
<rect x="-700" y="148.83" width="7.83042" height="1982.65" transform="rotate(-90 -700 148.83)" fill="url(#paint3_linear_4317_14192)"/>
<rect x="73.6406" y="141" width="9.39646" height="166.004" fill="url(#paint4_linear_4317_14192)"/>
<rect x="175.438" y="141" width="9.39646" height="166.004" fill="url(#paint5_linear_4317_14192)"/>
<rect x="784.641" y="141" width="9.39646" height="166.004" fill="url(#paint6_linear_4317_14192)"/>
<rect x="886.436" y="141" width="9.39646" height="166.004" fill="url(#paint7_linear_4317_14192)"/>
<rect x="988.23" y="141" width="7.83039" height="166.004" fill="url(#paint8_linear_4317_14192)"/>
<rect x="682.846" y="141" width="9.39646" height="166.004" fill="url(#paint9_linear_4317_14192)"/>
<rect x="581.051" y="141" width="9.39646" height="166.004" fill="url(#paint10_linear_4317_14192)"/>
<rect x="480.822" y="141" width="9.39646" height="166.004" fill="url(#paint11_linear_4317_14192)"/>
<rect x="379.027" y="141" width="9.39646" height="166.004" fill="url(#paint12_linear_4317_14192)"/>
<rect x="277.232" y="141" width="9.39646" height="166.004" fill="url(#paint13_linear_4317_14192)"/>
<g filter="url(#filter1_d_4317_14192)">
<path d="M236.665 275.449L229.031 275.551L228.366 275.561C223.326 275.374 218.313 274.785 213.388 273.799C209.114 272.356 207.1 267.474 206.161 263.441C205.47 262.888 204.918 262.209 204.541 261.448C204.165 260.687 203.972 259.862 203.977 259.029L203.776 248.189C203.733 246.833 204.196 245.503 205.091 244.414L205.061 242.828L204.969 238.009L199.959 236.243L199.927 234.603L204.922 235.193L204.388 206.39C203.451 205.327 202.936 204.01 202.926 202.651L202.439 176.163C202.386 174.661 202.962 173.197 204.051 172.061C204.52 168.846 205.814 163.939 209.42 163.551L231.19 163.279L252.968 163.007C256.578 163.289 258.057 168.178 258.643 171.375C259.776 172.48 260.407 173.93 260.411 175.437L260.91 201.925C260.954 203.281 260.491 204.611 259.595 205.7L260.134 234.689L264.679 234.045L264.711 235.685L260.181 237.403L260.268 242.13L260.33 243.743C261.245 244.803 261.747 246.107 261.757 247.452L261.958 258.291C261.993 259.658 261.515 260.994 260.602 262.084C259.879 266.242 258.091 271.626 253.646 273.254C248.758 274.362 243.77 275.077 238.742 275.389L236.666 275.416L236.665 275.449Z" fill="white"/>
</g>
<g filter="url(#filter2_d_4317_14192)">
<path d="M236.665 275.449L229.031 275.551L228.366 275.561C223.326 275.374 218.313 274.785 213.388 273.799C209.114 272.356 207.1 267.474 206.161 263.441C205.47 262.888 204.918 262.209 204.541 261.448C204.165 260.687 203.972 259.862 203.977 259.029L203.776 248.189C203.733 246.833 204.196 245.503 205.091 244.414L205.061 242.828L204.969 238.009L199.959 236.243L199.927 234.603L204.922 235.193L204.388 206.39C203.451 205.327 202.936 204.01 202.926 202.651L202.439 176.163C202.386 174.661 202.962 173.197 204.051 172.061C204.52 168.846 205.814 163.939 209.42 163.551L231.19 163.279L252.968 163.007C256.578 163.289 258.057 168.178 258.643 171.375C259.776 172.48 260.407 173.93 260.411 175.437L260.91 201.925C260.954 203.281 260.491 204.611 259.595 205.7L260.134 234.689L264.679 234.045L264.711 235.685L260.181 237.403L260.268 242.13L260.33 243.743C261.245 244.803 261.747 246.107 261.757 247.452L261.958 258.291C261.993 259.658 261.515 260.994 260.602 262.084C259.879 266.242 258.091 271.626 253.646 273.254C248.758 274.362 243.77 275.077 238.742 275.389L236.666 275.416L236.665 275.449Z" fill="white"/>
</g>
<path d="M221.214 173.005C217.363 173.005 214.24 171.373 214.24 169.359C214.24 167.345 217.363 165.712 221.214 165.712L242.136 165.712C245.988 165.712 249.11 167.345 249.11 169.359C249.11 171.373 245.988 173.005 242.136 173.005L221.214 173.005Z" fill="#333333"/>
<path d="M212.825 173.007C210.595 173.007 208.787 171.375 208.787 169.361C208.787 167.347 210.595 165.714 212.825 165.714L220.899 165.714C223.129 165.714 224.937 167.347 224.937 169.361C224.937 171.375 223.129 173.007 220.899 173.007L212.825 173.007Z" fill="#333333"/>
<path d="M225.753 275.72C224.638 275.72 223.734 274.904 223.734 273.897C223.734 272.89 224.638 272.074 225.753 272.074L241.903 272.074C243.018 272.074 243.921 272.89 243.921 273.897C243.921 274.904 243.018 275.72 241.903 275.72L225.753 275.72Z" fill="#333333"/>
<path d="M241.084 173.007C238.854 173.007 237.047 171.374 237.047 169.36C237.047 167.346 238.854 165.713 241.084 165.713L249.159 165.713C251.389 165.713 253.196 167.346 253.196 169.36C253.196 171.374 251.389 173.007 249.159 173.007L241.084 173.007Z" fill="#333333"/>
<path d="M234.574 247.184L234.576 247.155C240.209 247.262 245.808 246.467 251.113 244.807C252.366 244.473 253.525 243.904 254.513 243.137C255.502 242.37 256.299 241.422 256.851 240.354L256.854 240.295C256.949 240.056 257.02 239.809 257.066 239.558C257.183 239.025 257.165 238.474 257.015 237.945L250.252 221.284C248.495 223.534 237.025 224.196 232.686 224.372C228.352 224.15 216.876 223.405 215.064 221.14L208.623 237.738C208.484 238.266 208.478 238.818 208.605 239.351C208.655 239.603 208.729 239.851 208.826 240.093L208.835 240.151C209.411 241.225 210.227 242.18 211.231 242.956C212.236 243.731 213.406 244.311 214.668 244.657C220.001 246.356 225.614 247.195 231.25 247.134L231.248 247.163C231.81 247.167 232.36 247.169 232.901 247.168C233.443 247.166 233.992 247.176 234.554 247.176L234.574 247.184Z" fill="#333333"/>
<path d="M213.769 196.422L236.463 196.636L250.184 196.781L251.045 196.789C255.669 193.68 255.869 186.072 255.415 181.02L208.944 180.568C208.549 185.611 208.81 193.223 213.466 196.42L213.769 196.422Z" fill="#333333"/>
<path d="M204.749 195.588C204.259 209.559 204.372 217.393 204.749 231.362C204.749 231.362 212.824 215.933 212.824 211.747C212.824 207.56 204.749 191.384 204.749 195.588Z" fill="#333333"/>
<path d="M259.841 196.544C259.993 211.485 261.415 233.346 259.841 231.357C259.841 231.357 253.197 215.417 253.197 211.23C253.197 207.044 259.841 192.34 259.841 196.544Z" fill="#333333"/>
<g filter="url(#filter3_d_4317_14192)">
<path d="M231.61 463.541L225.595 458.839L225.07 458.431C221.258 455.128 217.72 451.529 214.498 447.676C212.07 443.873 213.558 438.806 215.352 435.074C215.159 434.211 215.154 433.335 215.337 432.506C215.52 431.677 215.887 430.914 216.413 430.267L223.046 421.691C223.861 420.607 225.055 419.86 226.435 419.572L227.405 418.317L230.352 414.502L227.552 409.988L228.555 408.689L232.079 412.278L249.703 389.49C249.639 388.074 250.062 386.725 250.905 385.659L267.116 364.706C268.015 363.502 269.381 362.721 270.942 362.518C273.321 360.305 277.403 357.291 280.457 359.247L297.599 372.67L314.746 386.099C317.384 388.58 315.474 393.317 313.928 396.176C314.12 397.748 313.704 399.273 312.763 400.45L296.562 421.411C295.746 422.496 294.552 423.242 293.172 423.531L275.435 446.466L279.382 448.811L278.379 450.11L273.772 448.611L270.879 452.352L269.917 453.647C269.966 455.047 269.541 456.378 268.706 457.432L262.074 466.008C261.246 467.095 260.036 467.838 258.641 468.115C255.473 470.904 250.707 473.981 246.222 472.466C241.717 470.268 237.382 467.701 233.267 464.795L231.632 463.516L231.61 463.541Z" fill="white"/>
</g>
<g filter="url(#filter4_d_4317_14192)">
<path d="M231.61 463.541L225.595 458.839L225.07 458.431C221.258 455.128 217.72 451.529 214.498 447.676C212.07 443.873 213.558 438.806 215.352 435.074C215.159 434.211 215.154 433.335 215.337 432.506C215.52 431.677 215.887 430.914 216.413 430.267L223.046 421.691C223.861 420.607 225.055 419.86 226.435 419.572L227.405 418.317L230.352 414.502L227.552 409.988L228.555 408.689L232.079 412.278L249.703 389.49C249.639 388.074 250.062 386.725 250.905 385.659L267.116 364.706C268.015 363.502 269.381 362.721 270.942 362.518C273.321 360.305 277.403 357.291 280.457 359.247L297.599 372.67L314.746 386.099C317.384 388.58 315.474 393.317 313.928 396.176C314.12 397.748 313.704 399.273 312.763 400.45L296.562 421.411C295.746 422.496 294.552 423.242 293.172 423.531L275.435 446.466L279.382 448.811L278.379 450.11L273.772 448.611L270.879 452.352L269.917 453.647C269.966 455.047 269.541 456.378 268.706 457.432L262.074 466.008C261.246 467.095 260.036 467.838 258.641 468.115C255.473 470.904 250.707 473.981 246.222 472.466C241.717 470.268 237.382 467.701 233.267 464.795L231.632 463.516L231.61 463.541Z" fill="white"/>
</g>
<path d="M283.734 374.006C280.731 371.593 279.32 368.365 280.581 366.795C281.843 365.225 285.299 365.908 288.302 368.32L304.611 381.424C307.614 383.837 309.025 387.065 307.764 388.635C306.502 390.205 303.046 389.522 300.043 387.11L283.734 374.006Z" fill="#333333"/>
<path d="M277.191 368.751C275.452 367.355 275.066 364.95 276.327 363.38C277.589 361.81 280.02 361.669 281.759 363.066L288.053 368.123C289.792 369.52 290.178 371.925 288.917 373.495C287.655 375.065 285.223 375.205 283.485 373.809L277.191 368.751Z" fill="#333333"/>
<path d="M222.938 456.92C222.069 456.221 221.876 455.019 222.506 454.234C223.137 453.449 224.353 453.378 225.222 454.077L237.811 464.192C238.681 464.89 238.874 466.093 238.243 466.878C237.612 467.663 236.397 467.733 235.527 467.035L222.938 456.92Z" fill="#333333"/>
<path d="M299.22 386.45C297.482 385.054 297.095 382.649 298.357 381.079C299.618 379.509 302.05 379.368 303.788 380.765L310.083 385.822C311.821 387.219 312.207 389.624 310.946 391.194C309.684 392.764 307.253 392.905 305.515 391.508L299.22 386.45Z" fill="#333333"/>
<path d="M247.687 440.199L247.707 440.177C252.031 443.789 256.893 446.676 262.069 448.705C263.255 449.23 264.514 449.512 265.766 449.533C267.017 449.554 268.232 449.314 269.332 448.827L269.371 448.784C269.594 448.656 269.804 448.508 269.998 448.341C270.422 447.999 270.754 447.558 270.968 447.052L276.132 429.828C273.353 430.482 263.996 423.813 260.504 421.233C257.264 418.345 248.785 410.577 248.791 407.676L233.374 416.581C232.934 416.905 232.584 417.331 232.349 417.827C232.231 418.055 232.133 418.295 232.057 418.543L232.027 418.595C231.804 419.792 231.842 421.048 232.139 422.282C232.436 423.516 232.986 424.701 233.753 425.761C236.846 430.425 240.696 434.595 245.127 438.078L245.108 438.099C245.543 438.454 245.97 438.8 246.394 439.138C246.817 439.477 247.239 439.828 247.677 440.18L247.687 440.199Z" fill="#333333"/>
<path d="M263.262 387.596L280.82 401.977L291.425 410.683L292.091 411.229C297.643 411.701 302.564 405.896 305.374 401.674L269.432 372.214C265.965 375.899 261.401 381.996 263.028 387.404L263.262 387.596Z" fill="#333333"/>
<path d="M256.752 381.296C247.619 391.88 242.801 398.058 234.345 409.184C234.345 409.184 250.304 402.214 252.926 398.95C255.548 395.687 259.385 378.018 256.752 381.296Z" fill="#333333"/>
<path d="M299.099 416.547C289.859 428.29 277.275 446.222 277.294 443.686C277.294 443.686 282.1 427.098 284.722 423.835C287.344 420.571 301.732 413.269 299.099 416.547Z" fill="#333333"/>
<g filter="url(#filter5_d_4317_14192)">
<path d="M133.514 275.449L125.881 275.551L125.216 275.561C120.175 275.374 115.163 274.784 110.238 273.799C105.963 272.355 103.95 267.473 103.01 263.441C102.319 262.888 101.767 262.209 101.391 261.448C101.014 260.687 100.822 259.862 100.827 259.028L100.626 248.189C100.582 246.833 101.046 245.503 101.94 244.413L101.91 242.828L101.819 238.008L96.8084 236.243L96.7766 234.603L101.772 235.192L101.238 206.39C100.301 205.326 99.7858 204.01 99.7753 202.651L99.2888 176.163C99.2354 174.661 99.8111 173.196 100.901 172.061C101.369 168.846 102.663 163.939 106.27 163.551L128.04 163.279L149.818 163.007C153.428 163.289 154.906 168.178 155.492 171.375C156.626 172.48 157.257 173.93 157.261 175.436L157.76 201.924C157.803 203.281 157.34 204.61 156.445 205.7L156.983 234.689L161.529 234.044L161.56 235.685L157.031 237.402L157.118 242.13L157.179 243.742C158.095 244.803 158.597 246.107 158.606 247.451L158.808 258.291C158.843 259.657 158.365 260.994 157.452 262.083C156.729 266.241 154.941 271.625 150.496 273.254C145.607 274.362 140.62 275.077 135.592 275.389L133.516 275.416L133.514 275.449Z" fill="white"/>
</g>
<g filter="url(#filter6_d_4317_14192)">
<path d="M133.514 275.449L125.881 275.551L125.216 275.561C120.175 275.374 115.163 274.784 110.238 273.799C105.963 272.355 103.95 267.473 103.01 263.441C102.319 262.888 101.767 262.209 101.391 261.448C101.014 260.687 100.822 259.862 100.827 259.028L100.626 248.189C100.582 246.833 101.046 245.503 101.94 244.413L101.91 242.828L101.819 238.008L96.8084 236.243L96.7766 234.603L101.772 235.192L101.238 206.39C100.301 205.326 99.7858 204.01 99.7753 202.651L99.2888 176.163C99.2354 174.661 99.8111 173.196 100.901 172.061C101.369 168.846 102.663 163.939 106.27 163.551L128.04 163.279L149.818 163.007C153.428 163.289 154.906 168.178 155.492 171.375C156.626 172.48 157.257 173.93 157.261 175.436L157.76 201.924C157.803 203.281 157.34 204.61 156.445 205.7L156.983 234.689L161.529 234.044L161.56 235.685L157.031 237.402L157.118 242.13L157.179 243.742C158.095 244.803 158.597 246.107 158.606 247.451L158.808 258.291C158.843 259.657 158.365 260.994 157.452 262.083C156.729 266.241 154.941 271.625 150.496 273.254C145.607 274.362 140.62 275.077 135.592 275.389L133.516 275.416L133.514 275.449Z" fill="white"/>
</g>
<path d="M118.064 173.005C114.212 173.005 111.09 171.372 111.09 169.358C111.09 167.344 114.212 165.712 118.064 165.712L138.986 165.712C142.837 165.712 145.959 167.344 145.959 169.358C145.959 171.372 142.837 173.005 138.986 173.005L118.064 173.005Z" fill="#333333"/>
<path d="M109.674 173.007C107.444 173.007 105.637 171.375 105.637 169.361C105.637 167.347 107.444 165.714 109.674 165.714L117.749 165.714C119.979 165.714 121.786 167.347 121.786 169.361C121.786 171.375 119.979 173.007 117.749 173.007L109.674 173.007Z" fill="#333333"/>
<path d="M122.603 275.72C121.488 275.72 120.584 274.904 120.584 273.897C120.584 272.89 121.488 272.074 122.603 272.074L138.752 272.074C139.867 272.074 140.771 272.89 140.771 273.897C140.771 274.904 139.867 275.72 138.752 275.72L122.603 275.72Z" fill="#333333"/>
<path d="M137.934 173.006C135.704 173.006 133.896 171.374 133.896 169.36C133.896 167.346 135.704 165.713 137.934 165.713L146.009 165.713C148.238 165.713 150.046 167.346 150.046 169.36C150.046 171.374 148.238 173.006 146.009 173.006L137.934 173.006Z" fill="#333333"/>
<path d="M131.424 247.184L131.425 247.155C137.058 247.262 142.657 246.467 147.963 244.807C149.216 244.473 150.374 243.904 151.363 243.137C152.352 242.37 153.148 241.421 153.701 240.354L153.704 240.295C153.798 240.056 153.869 239.809 153.916 239.558C154.032 239.024 154.015 238.473 153.865 237.945L147.102 221.284C145.345 223.534 133.874 224.196 129.536 224.371C125.201 224.149 113.726 223.405 111.913 221.139L105.472 237.738C105.333 238.266 105.327 238.817 105.454 239.351C105.505 239.603 105.579 239.851 105.675 240.092L105.684 240.151C106.26 241.225 107.077 242.18 108.081 242.955C109.086 243.731 110.256 244.311 111.518 244.656C116.851 246.356 122.464 247.194 128.099 247.134L128.098 247.163C128.659 247.166 129.209 247.169 129.751 247.168C130.293 247.166 130.842 247.176 131.404 247.176L131.424 247.184Z" fill="#333333"/>
<path d="M110.617 196.422L133.311 196.636L147.031 196.781L147.892 196.789C152.516 193.68 152.717 186.072 152.262 181.02L105.792 180.567C105.397 185.611 105.658 193.223 110.313 196.419L110.617 196.422Z" fill="#333333"/>
<path d="M101.599 195.588C101.109 209.559 101.222 217.393 101.599 231.362C101.599 231.362 109.674 215.933 109.674 211.747C109.674 207.56 101.599 191.384 101.599 195.588Z" fill="#333333"/>
<path d="M156.688 196.544C156.84 211.485 158.263 233.346 156.688 231.357C156.688 231.357 150.045 215.416 150.045 211.23C150.045 207.044 156.688 192.339 156.688 196.544Z" fill="#333333"/>
<g filter="url(#filter7_d_4317_14192)">
<path d="M440.389 275.94L432.756 276.042L432.091 276.052C427.05 275.865 422.038 275.276 417.113 274.29C412.838 272.847 410.825 267.965 409.885 263.932C409.194 263.38 408.642 262.7 408.266 261.939C407.889 261.178 407.697 260.353 407.702 259.52L407.501 248.68C407.457 247.324 407.921 245.994 408.815 244.905L408.785 243.319L408.694 238.5L403.683 236.735L403.652 235.094L408.647 235.684L408.113 206.882C407.176 205.818 406.661 204.501 406.65 203.142L406.164 176.654C406.11 175.153 406.686 173.688 407.776 172.553C408.244 169.337 409.538 164.43 413.145 164.043L434.915 163.77L456.693 163.498C460.303 163.78 461.781 168.67 462.367 171.867C463.501 172.972 464.132 174.421 464.136 175.928L464.635 202.416C464.678 203.772 464.215 205.102 463.32 206.191L463.858 235.18L468.404 234.536L468.435 236.176L463.906 237.894L463.993 242.621L464.054 244.234C464.97 245.294 465.472 246.598 465.481 247.943L465.683 258.783C465.718 260.149 465.24 261.485 464.327 262.575C463.604 266.733 461.816 272.117 457.371 273.745C452.482 274.854 447.495 275.568 442.467 275.88L440.391 275.907L440.389 275.94Z" fill="black"/>
</g>
<g filter="url(#filter8_d_4317_14192)">
<path d="M440.389 275.94L432.756 276.042L432.091 276.052C427.05 275.865 422.038 275.276 417.113 274.29C412.838 272.847 410.825 267.965 409.885 263.932C409.194 263.38 408.642 262.7 408.266 261.939C407.889 261.178 407.697 260.353 407.702 259.52L407.501 248.68C407.457 247.324 407.921 245.994 408.815 244.905L408.785 243.319L408.694 238.5L403.683 236.735L403.652 235.094L408.647 235.684L408.113 206.882C407.176 205.818 406.661 204.501 406.65 203.142L406.164 176.654C406.11 175.153 406.686 173.688 407.776 172.553C408.244 169.337 409.538 164.43 413.145 164.043L434.915 163.77L456.693 163.498C460.303 163.78 461.781 168.67 462.367 171.867C463.501 172.972 464.132 174.421 464.136 175.928L464.635 202.416C464.678 203.772 464.215 205.102 463.32 206.191L463.858 235.18L468.404 234.536L468.435 236.176L463.906 237.894L463.993 242.621L464.054 244.234C464.97 245.294 465.472 246.598 465.481 247.943L465.683 258.783C465.718 260.149 465.24 261.485 464.327 262.575C463.604 266.733 461.816 272.117 457.371 273.745C452.482 274.854 447.495 275.568 442.467 275.88L440.391 275.907L440.389 275.94Z" fill="black"/>
</g>
<path d="M424.939 173.497C421.087 173.497 417.965 171.864 417.965 169.85C417.965 167.836 421.087 166.203 424.939 166.203L445.861 166.203C449.712 166.203 452.834 167.836 452.834 169.85C452.834 171.864 449.712 173.497 445.861 173.497L424.939 173.497Z" fill="#333333"/>
<path d="M416.549 173.499C414.319 173.499 412.512 171.866 412.512 169.852C412.512 167.838 414.319 166.206 416.549 166.206L424.624 166.206C426.854 166.206 428.661 167.838 428.661 169.852C428.661 171.866 426.854 173.499 424.624 173.499L416.549 173.499Z" fill="#333333"/>
<path d="M429.478 276.212C428.363 276.212 427.459 275.396 427.459 274.389C427.459 273.382 428.363 272.565 429.478 272.565L445.627 272.565C446.742 272.565 447.646 273.382 447.646 274.389C447.646 275.396 446.742 276.212 445.627 276.212L429.478 276.212Z" fill="#333333"/>
<path d="M444.809 173.498C442.579 173.498 440.771 171.865 440.771 169.851C440.771 167.837 442.579 166.205 444.809 166.205L452.884 166.205C455.113 166.205 456.921 167.837 456.921 169.851C456.921 171.865 455.113 173.498 452.884 173.498L444.809 173.498Z" fill="#333333"/>
<path d="M438.299 247.676L438.3 247.646C443.933 247.754 449.532 246.959 454.838 245.298C456.091 244.965 457.249 244.396 458.238 243.629C459.227 242.862 460.023 241.913 460.576 240.845L460.579 240.787C460.673 240.547 460.744 240.3 460.791 240.049C460.907 239.516 460.89 238.965 460.74 238.436L453.977 221.775C452.22 224.026 440.749 224.687 436.411 224.863C432.076 224.641 420.601 223.896 418.788 221.631L412.347 238.229C412.208 238.758 412.202 239.309 412.329 239.842C412.38 240.095 412.454 240.343 412.55 240.584L412.559 240.643C413.135 241.716 413.952 242.671 414.956 243.447C415.961 244.223 417.131 244.802 418.393 245.148C423.726 246.847 429.339 247.686 434.974 247.626L434.973 247.655C435.534 247.658 436.084 247.661 436.626 247.659C437.168 247.658 437.717 247.668 438.279 247.667L438.299 247.676Z" fill="#333333"/>
<path d="M417.494 196.914L440.188 197.128L453.908 197.272L454.769 197.281C459.393 194.171 459.593 186.563 459.139 181.512L412.669 181.059C412.274 186.103 412.535 193.715 417.19 196.911L417.494 196.914Z" fill="#333333"/>
<path d="M408.474 196.08C407.984 210.05 408.097 217.884 408.474 231.854C408.474 231.854 416.549 216.425 416.549 212.238C416.549 208.052 408.474 191.875 408.474 196.08Z" fill="#333333"/>
<path d="M463.565 197.036C463.717 211.977 465.14 233.838 463.565 231.849C463.565 231.849 456.922 215.908 456.922 211.722C456.922 207.535 463.565 192.831 463.565 197.036Z" fill="#333333"/>
<g filter="url(#filter9_d_4317_14192)">
<path d="M641.532 275.939L633.898 276.042L633.233 276.051C628.193 275.865 623.18 275.275 618.255 274.29C613.981 272.846 611.967 267.964 611.028 263.932C610.337 263.379 609.785 262.7 609.408 261.939C609.032 261.178 608.84 260.353 608.844 259.519L608.643 248.68C608.6 247.324 609.063 245.994 609.958 244.904L609.928 243.319L609.836 238.499L604.826 236.734L604.794 235.093L609.789 235.683L609.255 206.881C608.318 205.817 607.803 204.501 607.793 203.141L607.306 176.654C607.253 175.152 607.829 173.687 608.919 172.552C609.387 169.337 610.681 164.43 614.287 164.042L636.057 163.77L657.835 163.498C661.446 163.78 662.924 168.669 663.51 171.866C664.643 172.971 665.275 174.421 665.279 175.927L665.777 202.415C665.821 203.771 665.358 205.101 664.462 206.191L665.001 235.18L669.546 234.535L669.578 236.176L665.048 237.893L665.136 242.621L665.197 244.233C666.112 245.294 666.614 246.598 666.624 247.942L666.825 258.782C666.86 260.148 666.383 261.485 665.469 262.574C664.746 266.732 662.958 272.116 658.513 273.745C653.625 274.853 648.637 275.567 643.609 275.879L641.533 275.907L641.532 275.939Z" fill="#C2C5CA"/>
</g>
<g filter="url(#filter10_d_4317_14192)">
<path d="M641.532 275.939L633.898 276.042L633.233 276.051C628.193 275.865 623.18 275.275 618.255 274.29C613.981 272.846 611.967 267.964 611.028 263.932C610.337 263.379 609.785 262.7 609.408 261.939C609.032 261.178 608.84 260.353 608.844 259.519L608.643 248.68C608.6 247.324 609.063 245.994 609.958 244.904L609.928 243.319L609.836 238.499L604.826 236.734L604.794 235.093L609.789 235.683L609.255 206.881C608.318 205.817 607.803 204.501 607.793 203.141L607.306 176.654C607.253 175.152 607.829 173.687 608.919 172.552C609.387 169.337 610.681 164.43 614.287 164.042L636.057 163.77L657.835 163.498C661.446 163.78 662.924 168.669 663.51 171.866C664.643 172.971 665.275 174.421 665.279 175.927L665.777 202.415C665.821 203.771 665.358 205.101 664.462 206.191L665.001 235.18L669.546 234.535L669.578 236.176L665.048 237.893L665.136 242.621L665.197 244.233C666.112 245.294 666.614 246.598 666.624 247.942L666.825 258.782C666.86 260.148 666.383 261.485 665.469 262.574C664.746 266.732 662.958 272.116 658.513 273.745C653.625 274.853 648.637 275.567 643.609 275.879L641.533 275.907L641.532 275.939Z" fill="#C2C5CA"/>
</g>
<path d="M626.087 173.499C622.236 173.499 619.113 171.867 619.113 169.853C619.113 167.839 622.236 166.206 626.087 166.206L647.009 166.206C650.861 166.206 653.983 167.839 653.983 169.853C653.983 171.867 650.861 173.499 647.009 173.499L626.087 173.499Z" fill="#333333"/>
<path d="M617.692 173.499C615.462 173.499 613.654 171.866 613.654 169.852C613.654 167.838 615.462 166.206 617.692 166.206L625.766 166.206C627.996 166.206 629.804 167.838 629.804 169.852C629.804 171.866 627.996 173.499 625.766 173.499L617.692 173.499Z" fill="#333333"/>
<path d="M630.626 276.215C629.511 276.215 628.607 275.398 628.607 274.391C628.607 273.384 629.511 272.568 630.626 272.568L646.776 272.568C647.891 272.568 648.794 273.384 648.794 274.391C648.794 275.398 647.891 276.215 646.776 276.215L630.626 276.215Z" fill="#333333"/>
<path d="M645.953 173.501C643.724 173.501 641.916 171.868 641.916 169.854C641.916 167.84 643.724 166.207 645.953 166.207L654.028 166.207C656.258 166.207 658.066 167.84 658.066 169.854C658.066 171.868 656.258 173.501 654.028 173.501L645.953 173.501Z" fill="#333333"/>
<path d="M639.441 247.676L639.443 247.646C645.076 247.754 650.675 246.959 655.98 245.298C657.233 244.965 658.392 244.396 659.38 243.629C660.369 242.862 661.166 241.913 661.719 240.845L661.722 240.787C661.816 240.547 661.887 240.3 661.933 240.049C662.05 239.516 662.032 238.965 661.882 238.436L655.119 221.775C653.363 224.026 641.892 224.687 637.553 224.863C633.219 224.641 621.743 223.896 619.931 221.631L613.49 238.229C613.351 238.758 613.345 239.309 613.472 239.842C613.523 240.095 613.596 240.343 613.693 240.584L613.702 240.643C614.278 241.716 615.094 242.671 616.099 243.447C617.103 244.223 618.274 244.802 619.535 245.148C624.868 246.847 630.482 247.686 636.117 247.626L636.115 247.655C636.677 247.658 637.227 247.661 637.769 247.659C638.31 247.658 638.86 247.668 639.422 247.667L639.441 247.676Z" fill="#333333"/>
<path d="M618.636 196.914L641.33 197.128L655.051 197.273L655.912 197.281C660.536 194.172 660.736 186.564 660.282 181.512L613.811 181.059C613.417 186.103 613.677 193.715 618.333 196.912L618.636 196.914Z" fill="#333333"/>
<path d="M609.616 196.08C609.126 210.051 609.239 217.885 609.616 231.854C609.616 231.854 617.691 216.425 617.691 212.239C617.691 208.053 609.616 191.876 609.616 196.08Z" fill="#333333"/>
<path d="M664.708 197.036C664.86 211.977 666.282 233.838 664.708 231.849C664.708 231.849 658.064 215.908 658.064 211.722C658.064 207.535 664.708 192.831 664.708 197.036Z" fill="#333333"/>
<g filter="url(#filter11_d_4317_14192)">
<path d="M742.102 275.94L734.468 276.042L733.803 276.052C728.763 275.865 723.751 275.276 718.826 274.29C714.551 272.847 712.538 267.965 711.598 263.932C710.907 263.379 710.355 262.7 709.979 261.939C709.602 261.178 709.41 260.353 709.415 259.52L709.214 248.68C709.17 247.324 709.633 245.994 710.528 244.905L710.498 243.319L710.407 238.5L705.396 236.734L705.365 235.094L710.36 235.684L709.825 206.881C708.889 205.818 708.374 204.501 708.363 203.142L707.877 176.654C707.823 175.152 708.399 173.688 709.489 172.553C709.957 169.337 711.251 164.43 714.857 164.043L736.627 163.77L758.406 163.498C762.016 163.78 763.494 168.67 764.08 171.866C765.213 172.972 765.845 174.421 765.849 175.928L766.348 202.416C766.391 203.772 765.928 205.102 765.033 206.191L765.571 235.18L770.116 234.536L770.148 236.176L765.618 237.894L765.706 242.621L765.767 244.234C766.683 245.294 767.185 246.598 767.194 247.943L767.396 258.783C767.431 260.149 766.953 261.485 766.04 262.575C765.316 266.733 763.528 272.117 759.083 273.745C754.195 274.854 749.208 275.568 744.179 275.88L742.104 275.907L742.102 275.94Z" fill="white"/>
</g>
<g filter="url(#filter12_d_4317_14192)">
<path d="M742.102 275.94L734.468 276.042L733.803 276.052C728.763 275.865 723.751 275.276 718.826 274.29C714.551 272.847 712.538 267.965 711.598 263.932C710.907 263.379 710.355 262.7 709.979 261.939C709.602 261.178 709.41 260.353 709.415 259.52L709.214 248.68C709.17 247.324 709.633 245.994 710.528 244.905L710.498 243.319L710.407 238.5L705.396 236.734L705.365 235.094L710.36 235.684L709.825 206.881C708.889 205.818 708.374 204.501 708.363 203.142L707.877 176.654C707.823 175.152 708.399 173.688 709.489 172.553C709.957 169.337 711.251 164.43 714.857 164.043L736.627 163.77L758.406 163.498C762.016 163.78 763.494 168.67 764.08 171.866C765.213 172.972 765.845 174.421 765.849 175.928L766.348 202.416C766.391 203.772 765.928 205.102 765.033 206.191L765.571 235.18L770.116 234.536L770.148 236.176L765.618 237.894L765.706 242.621L765.767 244.234C766.683 245.294 767.185 246.598 767.194 247.943L767.396 258.783C767.431 260.149 766.953 261.485 766.04 262.575C765.316 266.733 763.528 272.117 759.083 273.745C754.195 274.854 749.208 275.568 744.179 275.88L742.104 275.907L742.102 275.94Z" fill="white"/>
</g>
<path d="M726.652 173.497C722.8 173.497 719.678 171.864 719.678 169.85C719.678 167.836 722.8 166.203 726.652 166.203L747.573 166.203C751.425 166.203 754.547 167.836 754.547 169.85C754.547 171.864 751.425 173.497 747.573 173.497L726.652 173.497Z" fill="#333333"/>
<path d="M718.262 173.499C716.032 173.499 714.225 171.866 714.225 169.852C714.225 167.838 716.032 166.205 718.262 166.205L726.337 166.205C728.567 166.205 730.374 167.838 730.374 169.852C730.374 171.866 728.567 173.499 726.337 173.499L718.262 173.499Z" fill="#333333"/>
<path d="M731.193 276.212C730.078 276.212 729.174 275.395 729.174 274.388C729.174 273.381 730.078 272.565 731.193 272.565L747.342 272.565C748.457 272.565 749.361 273.381 749.361 274.388C749.361 275.395 748.457 276.212 747.342 276.212L731.193 276.212Z" fill="#333333"/>
<path d="M746.52 173.498C744.29 173.498 742.482 171.865 742.482 169.851C742.482 167.837 744.29 166.204 746.52 166.204L754.595 166.204C756.824 166.204 758.632 167.837 758.632 169.851C758.632 171.865 756.824 173.498 754.595 173.498L746.52 173.498Z" fill="#333333"/>
<path d="M740.014 247.675L740.015 247.646C745.648 247.753 751.247 246.958 756.553 245.298C757.806 244.965 758.964 244.396 759.953 243.628C760.941 242.861 761.738 241.913 762.291 240.845L762.294 240.787C762.388 240.547 762.459 240.3 762.506 240.049C762.622 239.516 762.605 238.965 762.455 238.436L755.692 221.775C753.935 224.026 742.464 224.687 738.126 224.863C733.791 224.641 722.316 223.896 720.503 221.631L714.062 238.229C713.923 238.758 713.917 239.309 714.044 239.842C714.095 240.094 714.169 240.342 714.265 240.584L714.274 240.643C714.85 241.716 715.666 242.671 716.671 243.447C717.675 244.223 718.846 244.802 720.108 245.148C725.441 246.847 731.054 247.686 736.689 247.626L736.688 247.655C737.249 247.658 737.799 247.66 738.341 247.659C738.883 247.658 739.432 247.667 739.994 247.667L740.014 247.675Z" fill="#333333"/>
<path d="M719.206 196.913L741.901 197.127L755.621 197.272L756.482 197.281C761.106 194.171 761.306 186.563 760.852 181.512L714.382 181.059C713.987 186.102 714.248 193.714 718.903 196.911L719.206 196.913Z" fill="#333333"/>
<path d="M710.185 196.08C709.695 210.05 709.807 217.884 710.185 231.854C710.185 231.854 718.259 216.425 718.259 212.238C718.259 208.052 710.185 191.875 710.185 196.08Z" fill="#333333"/>
<path d="M765.274 197.035C765.426 211.977 766.849 233.838 765.274 231.849C765.274 231.849 758.631 215.908 758.631 211.722C758.631 207.535 765.274 192.831 765.274 197.035Z" fill="#333333"/>
</g>
</g>
<defs>
<filter id="filter0_f_4317_14192" x="-1027.73" y="-773.73" width="2864.84" height="1491.28" filterUnits="userSpaceOnUse" color-interpolation-filters="sRGB">
<feFlood flood-opacity="0" result="BackgroundImageFix"/>
<feBlend mode="normal" in="SourceGraphic" in2="BackgroundImageFix" result="shape"/>
<feGaussianBlur stdDeviation="113.365" result="effect1_foregroundBlur_4317_14192"/>
</filter>
<filter id="filter1_d_4317_14192" x="195.916" y="161.001" width="72.806" height="120.577" filterUnits="userSpaceOnUse" color-interpolation-filters="sRGB">
<feFlood flood-opacity="0" result="BackgroundImageFix"/>
<feColorMatrix in="SourceAlpha" type="matrix" values="0 0 0 0 0 0 0 0 0 0 0 0 0 0 0 0 0 0 127 0" result="hardAlpha"/>
<feOffset dy="2.00569"/>
<feGaussianBlur stdDeviation="2.00569"/>
<feColorMatrix type="matrix" values="0 0 0 0 0 0 0 0 0 0 0 0 0 0 0 0 0 0 0.2 0"/>
<feBlend mode="normal" in2="BackgroundImageFix" result="effect1_dropShadow_4317_14192"/>
<feBlend mode="normal" in="SourceGraphic" in2="effect1_dropShadow_4317_14192" result="shape"/>
</filter>
<filter id="filter2_d_4317_14192" x="195.916" y="161.001" width="72.806" height="120.577" filterUnits="userSpaceOnUse" color-interpolation-filters="sRGB">
<feFlood flood-opacity="0" result="BackgroundImageFix"/>
<feColorMatrix in="SourceAlpha" type="matrix" values="0 0 0 0 0 0 0 0 0 0 0 0 0 0 0 0 0 0 127 0" result="hardAlpha"/>
<feOffset dy="2.00569"/>
<feGaussianBlur stdDeviation="2.00569"/>
<feColorMatrix type="matrix" values="0 0 0 0 0 0 0 0 0 0 0 0 0 0 0 0 0 0 0.2 0"/>
<feBlend mode="normal" in2="BackgroundImageFix" result="effect1_dropShadow_4317_14192"/>
<feBlend mode="normal" in="SourceGraphic" in2="effect1_dropShadow_4317_14192" result="shape"/>
</filter>
<filter id="filter3_d_4317_14192" x="209.217" y="356.61" width="110.851" height="122.274" filterUnits="userSpaceOnUse" color-interpolation-filters="sRGB">
<feFlood flood-opacity="0" result="BackgroundImageFix"/>
<feColorMatrix in="SourceAlpha" type="matrix" values="0 0 0 0 0 0 0 0 0 0 0 0 0 0 0 0 0 0 127 0" result="hardAlpha"/>
<feOffset dy="2.00569"/>
<feGaussianBlur stdDeviation="2.00569"/>
<feColorMatrix type="matrix" values="0 0 0 0 0 0 0 0 0 0 0 0 0 0 0 0 0 0 0.2 0"/>
<feBlend mode="normal" in2="BackgroundImageFix" result="effect1_dropShadow_4317_14192"/>
<feBlend mode="normal" in="SourceGraphic" in2="effect1_dropShadow_4317_14192" result="shape"/>
</filter>
<filter id="filter4_d_4317_14192" x="209.217" y="356.61" width="110.851" height="122.274" filterUnits="userSpaceOnUse" color-interpolation-filters="sRGB">
<feFlood flood-opacity="0" result="BackgroundImageFix"/>
<feColorMatrix in="SourceAlpha" type="matrix" values="0 0 0 0 0 0 0 0 0 0 0 0 0 0 0 0 0 0 127 0" result="hardAlpha"/>
<feOffset dy="2.00569"/>
<feGaussianBlur stdDeviation="2.00569"/>
<feColorMatrix type="matrix" values="0 0 0 0 0 0 0 0 0 0 0 0 0 0 0 0 0 0 0.2 0"/>
<feBlend mode="normal" in2="BackgroundImageFix" result="effect1_dropShadow_4317_14192"/>
<feBlend mode="normal" in="SourceGraphic" in2="effect1_dropShadow_4317_14192" result="shape"/>
</filter>
<filter id="filter5_d_4317_14192" x="92.766" y="161.001" width="72.806" height="120.577" filterUnits="userSpaceOnUse" color-interpolation-filters="sRGB">
<feFlood flood-opacity="0" result="BackgroundImageFix"/>
<feColorMatrix in="SourceAlpha" type="matrix" values="0 0 0 0 0 0 0 0 0 0 0 0 0 0 0 0 0 0 127 0" result="hardAlpha"/>
<feOffset dy="2.00569"/>
<feGaussianBlur stdDeviation="2.00569"/>
<feColorMatrix type="matrix" values="0 0 0 0 0 0 0 0 0 0 0 0 0 0 0 0 0 0 0.2 0"/>
<feBlend mode="normal" in2="BackgroundImageFix" result="effect1_dropShadow_4317_14192"/>
<feBlend mode="normal" in="SourceGraphic" in2="effect1_dropShadow_4317_14192" result="shape"/>
</filter>
<filter id="filter6_d_4317_14192" x="92.766" y="161.001" width="72.806" height="120.577" filterUnits="userSpaceOnUse" color-interpolation-filters="sRGB">
<feFlood flood-opacity="0" result="BackgroundImageFix"/>
<feColorMatrix in="SourceAlpha" type="matrix" values="0 0 0 0 0 0 0 0 0 0 0 0 0 0 0 0 0 0 127 0" result="hardAlpha"/>
<feOffset dy="2.00569"/>
<feGaussianBlur stdDeviation="2.00569"/>
<feColorMatrix type="matrix" values="0 0 0 0 0 0 0 0 0 0 0 0 0 0 0 0 0 0 0.2 0"/>
<feBlend mode="normal" in2="BackgroundImageFix" result="effect1_dropShadow_4317_14192"/>
<feBlend mode="normal" in="SourceGraphic" in2="effect1_dropShadow_4317_14192" result="shape"/>
</filter>
<filter id="filter7_d_4317_14192" x="399.641" y="161.493" width="72.806" height="120.577" filterUnits="userSpaceOnUse" color-interpolation-filters="sRGB">
<feFlood flood-opacity="0" result="BackgroundImageFix"/>
<feColorMatrix in="SourceAlpha" type="matrix" values="0 0 0 0 0 0 0 0 0 0 0 0 0 0 0 0 0 0 127 0" result="hardAlpha"/>
<feOffset dy="2.00569"/>
<feGaussianBlur stdDeviation="2.00569"/>
<feColorMatrix type="matrix" values="0 0 0 0 0 0 0 0 0 0 0 0 0 0 0 0 0 0 0.2 0"/>
<feBlend mode="normal" in2="BackgroundImageFix" result="effect1_dropShadow_4317_14192"/>
<feBlend mode="normal" in="SourceGraphic" in2="effect1_dropShadow_4317_14192" result="shape"/>
</filter>
<filter id="filter8_d_4317_14192" x="399.641" y="161.493" width="72.806" height="120.577" filterUnits="userSpaceOnUse" color-interpolation-filters="sRGB">
<feFlood flood-opacity="0" result="BackgroundImageFix"/>
<feColorMatrix in="SourceAlpha" type="matrix" values="0 0 0 0 0 0 0 0 0 0 0 0 0 0 0 0 0 0 127 0" result="hardAlpha"/>
<feOffset dy="2.00569"/>
<feGaussianBlur stdDeviation="2.00569"/>
<feColorMatrix type="matrix" values="0 0 0 0 0 0 0 0 0 0 0 0 0 0 0 0 0 0 0.2 0"/>
<feBlend mode="normal" in2="BackgroundImageFix" result="effect1_dropShadow_4317_14192"/>
<feBlend mode="normal" in="SourceGraphic" in2="effect1_dropShadow_4317_14192" result="shape"/>
</filter>
<filter id="filter9_d_4317_14192" x="600.784" y="161.492" width="72.806" height="120.577" filterUnits="userSpaceOnUse" color-interpolation-filters="sRGB">
<feFlood flood-opacity="0" result="BackgroundImageFix"/>
<feColorMatrix in="SourceAlpha" type="matrix" values="0 0 0 0 0 0 0 0 0 0 0 0 0 0 0 0 0 0 127 0" result="hardAlpha"/>
<feOffset dy="2.00569"/>
<feGaussianBlur stdDeviation="2.00569"/>
<feColorMatrix type="matrix" values="0 0 0 0 0 0 0 0 0 0 0 0 0 0 0 0 0 0 0.2 0"/>
<feBlend mode="normal" in2="BackgroundImageFix" result="effect1_dropShadow_4317_14192"/>
<feBlend mode="normal" in="SourceGraphic" in2="effect1_dropShadow_4317_14192" result="shape"/>
</filter>
<filter id="filter10_d_4317_14192" x="600.784" y="161.492" width="72.806" height="120.577" filterUnits="userSpaceOnUse" color-interpolation-filters="sRGB">
<feFlood flood-opacity="0" result="BackgroundImageFix"/>
<feColorMatrix in="SourceAlpha" type="matrix" values="0 0 0 0 0 0 0 0 0 0 0 0 0 0 0 0 0 0 127 0" result="hardAlpha"/>
<feOffset dy="2.00569"/>
<feGaussianBlur stdDeviation="2.00569"/>
<feColorMatrix type="matrix" values="0 0 0 0 0 0 0 0 0 0 0 0 0 0 0 0 0 0 0.2 0"/>
<feBlend mode="normal" in2="BackgroundImageFix" result="effect1_dropShadow_4317_14192"/>
<feBlend mode="normal" in="SourceGraphic" in2="effect1_dropShadow_4317_14192" result="shape"/>
</filter>
<filter id="filter11_d_4317_14192" x="701.354" y="161.492" width="72.806" height="120.577" filterUnits="userSpaceOnUse" color-interpolation-filters="sRGB">
<feFlood flood-opacity="0" result="BackgroundImageFix"/>
<feColorMatrix in="SourceAlpha" type="matrix" values="0 0 0 0 0 0 0 0 0 0 0 0 0 0 0 0 0 0 127 0" result="hardAlpha"/>
<feOffset dy="2.00569"/>
<feGaussianBlur stdDeviation="2.00569"/>
<feColorMatrix type="matrix" values="0 0 0 0 0 0 0 0 0 0 0 0 0 0 0 0 0 0 0.2 0"/>
<feBlend mode="normal" in2="BackgroundImageFix" result="effect1_dropShadow_4317_14192"/>
<feBlend mode="normal" in="SourceGraphic" in2="effect1_dropShadow_4317_14192" result="shape"/>
</filter>
<filter id="filter12_d_4317_14192" x="701.354" y="161.492" width="72.806" height="120.577" filterUnits="userSpaceOnUse" color-interpolation-filters="sRGB">
<feFlood flood-opacity="0" result="BackgroundImageFix"/>
<feColorMatrix in="SourceAlpha" type="matrix" values="0 0 0 0 0 0 0 0 0 0 0 0 0 0 0 0 0 0 127 0" result="hardAlpha"/>
<feOffset dy="2.00569"/>
<feGaussianBlur stdDeviation="2.00569"/>
<feColorMatrix type="matrix" values="0 0 0 0 0 0 0 0 0 0 0 0 0 0 0 0 0 0 0.2 0"/>
<feBlend mode="normal" in2="BackgroundImageFix" result="effect1_dropShadow_4317_14192"/>
<feBlend mode="normal" in="SourceGraphic" in2="effect1_dropShadow_4317_14192" result="shape"/>
</filter>
<radialGradient id="paint0_angular_4317_14192" cx="0" cy="0" r="1" gradientUnits="userSpaceOnUse" gradientTransform="translate(834.457 194.198) rotate(-67.3249) scale(553.057 953.93)">
<stop offset="0.0944448" stop-color="#5B67EC"/>
<stop offset="0.438386" stop-color="#70E6FB"/>
<stop offset="0.64588" stop-color="#5B67EC"/>
<stop offset="0.855691" stop-color="#70E6FB"/>
</radialGradient>
<linearGradient id="paint1_linear_4317_14192" x1="511.226" y1="-193.619" x2="502.138" y2="360.083" gradientUnits="userSpaceOnUse">
<stop stop-color="white"/>
<stop offset="1" stop-color="white" stop-opacity="0"/>
</linearGradient>
<linearGradient id="paint2_linear_4317_14192" x1="-695.313" y1="-1096.34" x2="-816.635" y2="-1093.2" gradientUnits="userSpaceOnUse">
<stop stop-color="#DADADA"/>
<stop offset="1" stop-color="white"/>
</linearGradient>
<linearGradient id="paint3_linear_4317_14192" x1="-696.094" y1="-1254.52" x2="-797.217" y2="-1252.33" gradientUnits="userSpaceOnUse">
<stop stop-color="#DADADA"/>
<stop offset="1" stop-color="white"/>
</linearGradient>
<linearGradient id="paint4_linear_4317_14192" x1="78.3278" y1="23.5001" x2="-32.4548" y2="57.8018" gradientUnits="userSpaceOnUse">
<stop stop-color="#DADADA"/>
<stop offset="1" stop-color="white"/>
</linearGradient>
<linearGradient id="paint5_linear_4317_14192" x1="180.125" y1="23.5001" x2="69.3421" y2="57.8018" gradientUnits="userSpaceOnUse">
<stop stop-color="#DADADA"/>
<stop offset="1" stop-color="white"/>
</linearGradient>
<linearGradient id="paint6_linear_4317_14192" x1="789.328" y1="23.5001" x2="678.545" y2="57.8018" gradientUnits="userSpaceOnUse">
<stop stop-color="#DADADA"/>
<stop offset="1" stop-color="white"/>
</linearGradient>
<linearGradient id="paint7_linear_4317_14192" x1="891.123" y1="23.5001" x2="780.34" y2="57.8018" gradientUnits="userSpaceOnUse">
<stop stop-color="#DADADA"/>
<stop offset="1" stop-color="white"/>
</linearGradient>
<linearGradient id="paint8_linear_4317_14192" x1="992.136" y1="23.5001" x2="897.282" y2="47.975" gradientUnits="userSpaceOnUse">
<stop stop-color="#DADADA"/>
<stop offset="1" stop-color="white"/>
</linearGradient>
<linearGradient id="paint9_linear_4317_14192" x1="687.533" y1="23.5001" x2="576.75" y2="57.8018" gradientUnits="userSpaceOnUse">
<stop stop-color="#DADADA"/>
<stop offset="1" stop-color="white"/>
</linearGradient>
<linearGradient id="paint10_linear_4317_14192" x1="585.738" y1="23.5001" x2="474.955" y2="57.8018" gradientUnits="userSpaceOnUse">
<stop stop-color="#DADADA"/>
<stop offset="1" stop-color="white"/>
</linearGradient>
<linearGradient id="paint11_linear_4317_14192" x1="485.509" y1="23.5001" x2="374.727" y2="57.8018" gradientUnits="userSpaceOnUse">
<stop stop-color="#DADADA"/>
<stop offset="1" stop-color="white"/>
</linearGradient>
<linearGradient id="paint12_linear_4317_14192" x1="383.715" y1="23.5001" x2="272.932" y2="57.8018" gradientUnits="userSpaceOnUse">
<stop stop-color="#DADADA"/>
<stop offset="1" stop-color="white"/>
</linearGradient>
<linearGradient id="paint13_linear_4317_14192" x1="281.92" y1="23.5001" x2="171.137" y2="57.8018" gradientUnits="userSpaceOnUse">
<stop stop-color="#DADADA"/>
<stop offset="1" stop-color="white"/>
</linearGradient>
<clipPath id="clip0_4317_14192">
<rect width="1024" height="1084" fill="white"/>
</clipPath>
</defs>
</svg>
